<?xml version="1.0" encoding="UTF-8"?>
<svg id="Layer_1" data-name="Layer 1" xmlns="http://www.w3.org/2000/svg" version="1.1" viewBox="0 0 1 1">
  <defs>
    <style>
      .cls-1 {
        fill: #000;
      }

      .cls-1, .cls-2, .cls-3, .cls-4 {
        stroke-width: 0px;
      }

      .cls-2 {
        fill: #ff3c00;
      }

      .cls-3 {
        fill: #f50;
      }

      .cls-4 {
        fill: #ff7800;
      }
    </style>
  </defs>
  <g>
    <path class="cls-4" d="M.4685.0144c.2311.0041.2434.1104.2413.2638l-.2067-.0106-.2126.0127S.2374.0103.4685.0144Z"/>
    <path class="cls-1" d="M.4685.013c.1638-.0222.276.1065.252.2653.0011.0114.0006.0117-.0113.0106-.1437-.013-.2839-.0194-.4274.003C.2421.1626.3136-.0142.4685.013H.4685ZM.4685.0157c-.1412-.0017-.1886.1458-.1673.2624.0747-.0275.2869-.0116.4091-.0106-.0321-.1359.0015-.2436-.2418-.2518H.4685Z"/>
  </g>
  <g>
    <path class="cls-2" d="M.4884.054c.1485.0034.1563.0908.155.2169l-.1327-.0087-.1387.0054s-.032-.2169.1164-.2136Z"/>
    <path class="cls-1" d="M.4885.0527c.1875-.0204.1793.2355.1542.229-.0939-.0105-.1845-.0183-.2788-.0026-.0262-.0841.0028-.2438.1246-.2264H.4885ZM.4884.0554c-.1041.0079-.1096.1282-.1057.2105-.0099-.0204.2079-.0052.2613-.0057-.0242.0223.0302-.222-.1556-.2049H.4884Z"/>
  </g>
  <g>
    <path class="cls-2" d="M.2885.2859s.1201-.0135.2086-.0164.2148.0145.2148.0145c0,0,.0307.0973-.002.1693l-.4193.0019s-.0573-.0837-.002-.1693Z"/>
    <path class="cls-1" d="M.2878.2848c.1396-.0257.2879-.032.4292-.0061.0121.0594.0227.1223-.0019.1819-.1435.006-.2871.0092-.4306.0047-.0339-.056-.0352-.1293.0033-.1805H.2878ZM.2892.287c-.0301.0507-.0225.1175.0098.1623l-.0084-.0044c.134-.0007.3046-.0124.4123.0051.0236-.0495.0211-.1115.0032-.1641-.1154.0057-.2794-.0142-.4169.0012H.2892Z"/>
  </g>
  <g>
    <path class="cls-3" d="M.633.0672c.002.0026.0032.0174-.0107.0274.0198.0308.0316.0789.0162.1169.0092.0057.0106.0199.0092.0225,0,0-.0255.0046-.0282-.0064-.0296.0034-.1059.0058-.1176.0066-.0117.0008-.0872-.0026-.1161-.0051-.0084.0104-.0305.0124-.0305.0124,0,0,.0016-.0216.0122-.029-.0096-.0217-.0266-.0721.0048-.1123.0011-.0018-.0081-.0231-.0026-.0249.0026-.0009.0319-.0028.0343.0117.0481-.0118.1603-.0184.2006-.007.0098-.014.0264-.0154.0284-.0128Z"/>
    <path class="cls-1" d="M.6338.0665c.0074.0081-.008.0343-.0094.0268.0227.034.0353.0784.0212.1209-.0081-.0202.0169.0077.01.0234-.0111.0083-.0335.0132-.0455-.0075,0,0,.0105.0072.0105.0072l-.2353-.001c.015-.0041-.0207.0157-.029.0138-.0185-.0077-.0071-.0333.0055-.0457-.0127.0339-.0298-.0924.0021-.1109-.0038.0125-.0052-.006-.0058-.0073-.0103-.0034.0134-.0302.0182-.0225.0201-.008.0569.0339.0254.0125.0807-.0191.1668.0047.2323-.0099h0ZM.6321.0679c-.0659.0242-.1527.0052-.2254.0297-.0055.002-.0177.0043-.0219-.0017.002-.0018.0043-.0098.0084-.0071,0,0-.0077-.0043-.0168-.0032.0008-.006.0046-.0089.0055.0193-.0232.028-.0212.0688-.0056.1036-.0017.0122-.0114.0192-.0124.0336,0,0-.0095-.0093-.0095-.0093.0842-.0181.1757.0067.2638-.0149.0127.0139.0366.003.0216.0122-.0013-.0057-.0102-.0164-.0084-.0216.0178-.0364.0035-.0798-.0106-.116.0081-.0049.0139-.0157.0112-.0246h0Z"/>
  </g>
  <g>
    <path class="cls-4" d="M.2885.4531l.4234-.002s.0307.1023-.002.1779l-.4193.002s-.0573-.0879-.002-.1779Z"/>
    <path class="cls-1" d="M.2879.452c.1388-.0079.2847-.0155.4291-.0067.0113.0612.0232.1248.0003.1868-.1369.0194-.2901.0091-.4332.0095-.0338-.0595-.0351-.135.0038-.1897H.2879ZM.2892.4543c-.0299.0537-.0222.1231.0103.1708l-.0089-.0048c.1336,0,.3066-.0134.4119.0054.0308-.0462.0079-.1407.0093-.1685-.1393.0097-.2776.0035-.4226-.0029H.2892Z"/>
  </g>
  <g>
    <path class="cls-2" d="M.2885.627l.4234-.002s.0307.1023-.002.1779l-.4193.002s-.0573-.0879-.002-.1779Z"/>
    <path class="cls-1" d="M.2879.6258c.1388-.0079.2847-.0155.4291-.0067.0113.0612.0232.1248.0003.1868-.1369.0194-.2901.0091-.4332.0095-.0338-.0595-.0351-.135.0038-.1897H.2879ZM.2892.6282c-.0299.0537-.0222.1231.0103.1708l-.0089-.0048c.1336,0,.3066-.0134.4119.0054.0308-.0462.0079-.1407.0093-.1685-.1393.0097-.2776.0035-.4226-.0029H.2892Z"/>
  </g>
  <g>
    <path class="cls-4" d="M.2885.8008l.4234-.002s.0315.0797-.0012.1553c0,0-.1327.032-.2166.0305-.0841-.0015-.2105-.0229-.2105-.0229,0,0-.0502-.0709.005-.1609Z"/>
    <path class="cls-1" d="M.2879.7997c.1383-.0087.2843-.0151.4284-.0062.0146.053.023.1099.0018.1637-.1388.0466-.2972.0461-.4411.0132-.0328-.0553-.0237-.1228.0109-.1708H.2879ZM.2892.802c-.1214.2536.2845.145.4142.1489.1001-.2398-.1843-.107-.4142-.1489H.2892Z"/>
  </g>
  <g>
    <path class="cls-3" d="M.6232.1195s.0071.0459-.0018.0776"/>
    <path class="cls-1" d="M.6239.1193c.0031.0228.0112.0594-.0032.0776-.0087-.0279-.0056-.0531.0032-.0776h0Z"/>
  </g>
  <g>
    <path class="cls-3" d="M.3806.1212s.0071.0459-.0018.0776"/>
    <path class="cls-1" d="M.3813.1211c.0031.0228.0112.0594-.0032.0776-.0087-.0279-.0056-.0531.0032-.0776H.3813Z"/>
  </g>
</svg>