<?xml version="1.0" encoding="UTF-8"?>
<svg id="Layer_1" data-name="Layer 1" xmlns="http://www.w3.org/2000/svg" version="1.1" viewBox="0 0 1.22 1">
  <defs>
    <style>
      .cls-1 {
        fill: #555546;
      }

      .cls-1, .cls-2, .cls-3 {
        stroke-width: 0px;
      }

      .cls-2 {
        fill: #353b36;
      }

      .cls-3 {
        fill: #000;
      }
    </style>
  </defs>
  <g>
    <path class="cls-2" d="M.3007.1058s-.065-.0229-.0707.0096.0688.302.0688.302c0,0,.0669-.1452.0019-.3115H.3007Z"/>
    <path class="cls-3" d="M.2996.1069c-.0262-.0059-.0786-.0111-.0561.0271.0299.0931.0301.1884.0661.2802-.0388-.0008.0368-.2191-.0099-.3073,0,0,0,0,0,0ZM.3017.1047c.0599.1081.0518.2436-.0089.3513.0186-.0824-.165-.4322.0089-.3513H.3017Z"/>
  </g>
  <g>
    <path class="cls-2" d="M.7269.5759l-.3727.3s-.1089.0936-.2064.1108c-.0975.0172-.1204-.0592-.1204-.0592,0,0-.0057-.0344.0268-.0612.0126-.0104.4069-.3031.5294-.3555.1936-.0828.1433.065.1433.065"/>
    <path class="cls-3" d="M.7278.5771c-.1662.1067-.5301.5804-.7103.352-.0114-.0907.3858-.3329.5533-.4226.0551-.0475.213-.0289.1546.0689.0363-.1046-.0904-.0936-.1467-.0517C.4468.6157.0701.8284.0369.9248c.1602.2128.5142-.2825.6909-.3477h0Z"/>
  </g>
  <g>
    <path class="cls-1" d="M.0427.8932s-.0067-.01-.0119-.0265c-.0107-.0336-.0158-.0942.0521-.1531,0,0,.1376-.1128.151-.1357s.0612-.1013.065-.1605.0153-.1682.0019-.2312-.0401-.1147-.0115-.1242.0956-.0153.1204-.0096.0325.0287.0401.0554c.0076.0267.1701.4262.1701.4262,0,0-.3115.323-.3803.3459s-.1414.0669-.1968.0134h-.0001Z"/>
    <path class="cls-3" d="M.0415.8941c-.0787-.1464.1067-.2334.1777-.3184.0665-.1128.0808-.2417.0744-.3763C.1675.0444.4955-.025.4814.1611c.0041.0129.1506.3632.155.376-.1639.1369-.3597.4609-.595.357,0,0,.0001,0,.0001,0ZM.0438.8922c.1999.1008.4246-.2599.5658-.3681.0051.0695-.1457-.3708-.1467-.3575.0154-.1696-.2771-.1247-.1554.0301.0091.1335.0097.2709-.0679.3911-.0842.0908-.2654.1622-.1957.3044h0Z"/>
  </g>
  <g>
    <path class="cls-2" d="M.4708.6791s-.0975-.0726-.1128-.0975-.0268-.0707-.0115-.107.0784-.1433.0841-.1739-.0038-.0612-.0038-.0612l-.0172-.086s-.0268-.0382.0229-.0612.1319-.0516.1433-.0726c0,0,.021-.0172.0306.0057s-.0076.0726.0038.1185.0936.1911.1357.2484c0,0-.0554.0917-.13.1472s-.1452.1395-.1452.1395h.0001Z"/>
    <path class="cls-3" d="M.4709.6806c-.0657-.0455-.1666-.1017-.1352-.2072.0236-.0841.1066-.1504.0825-.2323-.0563-.2054.0315-.1281.1499-.2256.07-.0355.0486.0651.0501.0826.0087.104.0866.1979.1397.2854-.0365.1308-.2078.1907-.2869.297h-.0001ZM.4706.6777c.0753-.0836.2234-.2387.2633-.2765-.0557-.0959-.1376-.1887-.1394-.3037.0246-.1417-.041-.0297-.1204-.0168-.1089.0291-.0476.0771-.0387.1572.0296.194-.2261.2753.0352.4399H.4706Z"/>
  </g>
  <g>
    <path class="cls-1" d="M.6561.2491s-.1357.0726-.021.3039c0,0,.0841-.0592.1013-.107s-.0057-.1644-.0803-.1968h0Z"/>
    <path class="cls-3" d="M.6562.2506c-.0989.0789-.035.2285-.0254.2961.1143-.0669.1292-.2136.0254-.2961h0ZM.6561.2476c.1535.0647.109.2666-.0237.3166-.0487-.092-.0997-.2499.0237-.3166h0Z"/>
  </g>
  <g>
    <path class="cls-2" d="M.809.2033s-.0592-.0229-.0745-.0038.0019.2867.0019.2924.0784-.1701.0726-.2886Z"/>
    <path class="cls-3" d="M.8078.2041c-.1154-.0558-.0619.1859-.0644.2516-.0071.0066.0231.0441-.0145.0255.0297-.0885.0681-.1848.0789-.2771h0ZM.8103.2024c.0135.0845-.0103.1728-.0417.2503l-.0184.0389c-.0502.0005-.0136-.024-.0247-.0348.0148-.085-.0693-.3318.0847-.2544h.0001Z"/>
  </g>
  <g>
    <path class="cls-1" d="M.358.7747s.0096-.0936.0516-.1051.1089,0,.1644-.0325.1128-.0975.1223-.107.0917-.2045.0956-.3-.0038-.1089.042-.1166.1548,0,.1873.0268c.0325.0268-.0306.1261-.0325.1319s.1548.2408.1548.2408c0,0,.0363.1319.0191.1854,0,0-.1758.021-.237.0784s-.279.1338-.5676-.0019v-.0002Z"/>
    <path class="cls-3" d="M.3567.7754c-.0112-.1859.2275-.0683.2785-.2058.0939-.072.1187-.2191.147-.3327-.0632-.1645.2257-.1734.2531-.056-.0065.033-.0218.0619-.0366.0901.0248.051.1204.1781.1529.2297.0218.0632.0361.1286.0244.2017-.3417.0911-.4214.2668-.8193.073H.3567ZM.3593.774c.3369.1715.4985-.0269.8015-.0897-.015.0285-.0081-.1274-.0303-.1677.0054.0119-.1014-.1674-.1033-.1695-.0545-.059-.0347-.1048-.005-.1686-.0174-.0865-.2922-.1071-.222.0598-.0279.1227-.0369.2654-.152.3478-.0658.138-.2965.0113-.2889.188H.3593Z"/>
  </g>
  <g>
    <path class="cls-2" d="M.7842.7155s-.0554-.0497-.0764-.1376c0,0,.1968-.1223.2045-.193s.0382-.0879.0401-.1223-.0096-.0478.0382-.0535.1185-.0038.1185-.0038c0,0,.0592-.0076.0459.0726,0,0-.0153.065-.0363.0841s.0612.1548.044.3364l-.1892.065s.0191-.1242-.1892-.0478h-.0001Z"/>
    <path class="cls-3" d="M.7839.7169c-.2071-.2115.0669-.1543.1212-.3544.0159-.0578.0444-.0857.0481-.1475.0864-.0255.2708-.0412.1981.0962-.0575.1281.0625.2581.0249.398l-.009.0029-.1903.0612-.0159.0051c.025-.1007-.1039-.0902-.1772-.0615h0ZM.7845.714c.1899-.0971.2279.0749.1855.0391l.1877-.0687c-.0131.0214-.0091-.1939-.0413-.2469-.0244-.0387-.005-.1052.0167-.1344.0729-.1198-.111-.0993-.1707-.0791.007.0414-.0288.1012-.0369.1424-.0498.227-.3245.1302-.1411.3475h0Z"/>
  </g>
  <g>
    <path class="cls-1" d="M1.0403.597s.0268-.0956.0956-.1185c0,0,.0631.086.0268.2198-.0038.0038-.1357.042-.1357.042,0,0-.0153-.0497.0134-.1433h-.0001Z"/>
    <path class="cls-3" d="M1.0388.5965c.0065-.0402.0563-.1472.1069-.1251.0288.0526.0619.2245.0066.2428-.0126.0042-.1288.0432-.1379.0457-.0104-.059.0046-.114.0244-.1634h0ZM1.0417.5974c-.0221.0468.0139.1624-.0189.1285.0157-.0046.1174-.0339.1313-.036.0468-.0862-.0373-.2159-.0145-.1999-.0426.0162-.0785.0591-.0979.1074h0Z"/>
  </g>
  <g>
    <path class="cls-2" d="M.358.7747l-.0287.0248-.0057.065s.2484.1854.581.0268l.0019-.0306.1089-.0516.021.0612s.1472-.0478.1586-.0573l.0038-.0956-.0363-.0191s-.2599.0688-.3039.1032-.2733.0917-.5007-.0268h0Z"/>
    <path class="cls-3" d="M.3582.7762c.0008-.0011-.031.0301-.0263.0237.0009-.0025-.0033.0787-.0055.0611.137.1085.5631.1035.5742-.0044.003-.0014.1092-.0508.1125-.0523l.0054-.0025.0021.0057c-.0041.0008.0379.0784.0139.0563-.004.005.1762-.0759.1501-.0514l.0017-.0954c.0211.0258-.0225-.0057-.0284-.006-.0058-.002.0082.0007.008.0003-.2544.0904-.5515.2326-.8078.0649h.0001ZM.3578.7732c.2764.1489.5387-.0139.8111-.0869.0067.007.0483.0187.0425.0316l-.0059.0953-.0004.0066c-.0032.0021-.1631.055-.1665.0569-.0107.0132-.024-.0616-.0283-.0657l.0073.0031c.0023-.0039-.1249.0657-.1049.0472-.0093.1328-.4745.1388-.5936.0028.0009-.0019.0063-.0652.0086-.0665l.0301-.0243h0Z"/>
  </g>
  <path class="cls-3" d="M.7302.2696c.0709.0483.1798.0254.253.0589-.0799.0389-.1697.062-.2547.0883-.0256-.0793.191.1011.13.1022-.0598-.0604-.1823-.0121-.1872-.0299.0021.0047.09.0974.0793.1037-.0339-.0155-.0721-.0346-.1123-.0175-.0651-.0344.2323-.0763.1604-.022-.0133-.0607-.0806-.0738-.0969-.1071.0352-.0308.2588-.0572.2253.0074-.0542-.0404-.2327-.0836-.2191-.1687.0989-.0118.1974.0207.2763-.029-.0758.0639-.1876.0295-.2688.0472.0129.0307.2447.1137.231.1435-.0662.0128-.1552-.0159-.2263.0165l-.0003-.0263c.0448.0161.1194.0792.0956.1249-.0855-.0382-.1789.0331-.1831-.004.0282-.0131.1318-.002.1083.0342l-.0764-.0969c.0074-.0344.2438-.0214.1932.023-.0349-.0583-.1042-.0819-.1474-.1127.0758-.0483.1797-.0547.2647-.0858-.0081.0357-.2146-.0179-.2444-.0497h0l-.0002-.0002Z"/>
  <path class="cls-3" d="M.453.1524c-.0111.0473-.1773.2009-.1871.1422.0794.0464.1535.0785.238.0563-.0728.0249-.1846.108-.2432.0929.0255.0393.0699.0716.1157.0668.0012.0375-.1143.0267-.1533.0081-.0391-.0171-.0255-.0123.0049-.0213.0851-.0067.1863-.0822.1787-.0383-.2611-.0883-.1332-.1056.0433-.183.0002.0335-.1922-.0329-.2188-.0623.0733.0418.1643.0476.2468.0663-.0121.0062-.1016.0535-.116.0609-.0372.0163-.0513.0341-.1095.0457l.0167-.0238c.0447.0334.1141.056.1705.0791-.0623.0541-.137.0655-.2075.0786l.0049-.0211c.0268.0311.1389-.0077.1406.0271-.0581.0026-.1017-.0396-.1285-.0837.0654-.0101.1273-.0515.1877-.0845.0391.0674-.16-.0211-.2042-.0611.0939-.0043.1679-.0762.2203-.1449,0,0,0,0,0,0Z"/>
  <path class="cls-3" d="M.356.8089c.1381.0765.2869.0632.4362.0476-.1296.0668-.3345.0491-.4362-.0476h0Z"/>
  <path class="cls-3" d="M.023.9113c.0971.0676.2038-.0075.2982-.0511-.0616.0698-.2321.1385-.2982.0511h0Z"/>
</svg>