<?xml version="1.0" encoding="UTF-8"?>
<svg id="Layer_1" data-name="Layer 1" xmlns="http://www.w3.org/2000/svg" version="1.1" viewBox="0 0 1 1">
  <defs>
    <style>
      .cls-1 {
        fill: #ff0808;
      }

      .cls-1, .cls-2, .cls-3, .cls-4, .cls-5, .cls-6, .cls-7, .cls-8 {
        stroke-width: 0px;
      }

      .cls-2 {
        fill: #606060;
      }

      .cls-3 {
        fill: #5b5b5b;
      }

      .cls-9 {
        fill: none;
        stroke: #000;
        stroke-miterlimit: 10;
        stroke-width: .0143px;
      }

      .cls-4 {
        fill: #3a3a3a;
      }

      .cls-5 {
        fill: #999;
      }

      .cls-6 {
        fill: #df2500;
      }

      .cls-7 {
        fill: #000;
      }

      .cls-8 {
        fill: #c9b7a1;
      }
    </style>
  </defs>
  <g>
    <path class="cls-8" d="M.2472.0069c-.0433-.0003-.0786.0354-.0789.0799-.0003.0444.0345.0807.0778.081s.0786-.0355.0789-.0799c.0003-.0445-.0345-.0807-.0778-.081ZM.2439.1494c-.0292-.0002-.0527-.0268-.0525-.0593.0002-.0326.0241-.0588.0533-.0586.0293.0002.0528.0268.0526.0594-.0002.0326-.0241.0588-.0534.0586Z"/>
    <g>
      <path class="cls-7" d="M.2472.0078c-.0923.0021-.0983.1593-.0011.1548.089-.0019.0956-.1462.0011-.1548C.2472.0078.3417.0164.2472.0078ZM.2472.0061c.1093-.0157.1135.1788-.0011.167-.1064.0025-.1103-.179.0011-.167C.2472.0061.1358-.0059.2472.0061Z"/>
      <path class="cls-7" d="M.2439.1503c-.0794.0057-.0732-.123.0009-.124.0827-.005.0759.1357-.0009.124C.2439.1503.3206.162.2439.1503ZM.2439.1486c.0622-.0107.0569-.1058.0008-.1118-.0648-.0021-.0603.1051-.0008.1118C.2439.1486.1844.1418.2439.1486Z"/>
    </g>
  </g>
  <g>
    <path class="cls-2" d="M.5262.6982s-.2701.1486-.4142-.1039C.112.5943-.0121.2909.2838.162c.2633-.1147.3965.123.3965.123,0,0,.153.2785-.1541.4132Z"/>
    <path class="cls-7" d="M.5267.6991C-.0459.968-.0674.0247.5017.1324c.2751.0697.3046.483.025.5667h0ZM.5257.6972c.4558-.2155-.0295-.8003-.3606-.4479-.2191.2395.0683.6198.3606.4479h0Z"/>
  </g>
  <g>
    <path class="cls-2" d="M.7566.8475s-.2552.1632-.4429.1309c0,0-.1688-.058.102-.2059.2608-.1424.4368-.1652.4368-.1652,0,0,.2011.0609-.0958.2402Z"/>
    <path class="cls-7" d="M.7572.8484c-.1186.1154-.6857.2526-.4366-.0191.1574-.1155.342-.1971.5351-.2321.1686.0618-.0065.2111-.0984.2512h0ZM.756.8466c.4227-.3224-.1038-.2421-.4306-.0112-.2288.2521.3417.0937.4306.0112h0Z"/>
  </g>
  <g>
    <path class="cls-5" d="M.72.7783c-.0026,0-.2342.1445-.4038.1433,0,0-.1349-.027.0994-.1472.2689-.138.432-.1678.4185-.1616,0,0,.1894.0031-.1141.1656Z"/>
    <path class="cls-7" d="M.7203.7793c-.1446.1211-.6411.2437-.3647.0239.1278-.0671.3515-.2063.4835-.182,0,0-.0045-.0182-.0045-.0182.173.0228-.0457.1482-.1142.1764h0ZM.7198.7773c.0442-.0265.2481-.1402.1143-.1549,0,0-.0046-.0184-.0046-.0184-.0401.044-.1057.0386-.156.0654-.08.0304-.2376.1013-.3134.141-.2683.2081.2848.0361.3597-.0331h0Z"/>
  </g>
  <g>
    <path class="cls-5" d="M.5067.6568s-.2513.1253-.3869-.1061C.1199.5508.003.2902.2786.1656c.2705-.1223.3809.1356.3679.1042,0,0,.1837.2382-.1397.387Z"/>
    <path class="cls-7" d="M.5072.6577C.1592.8485-.0914.3398.259.169c.1168-.0785.3547-.0508.3784.1046,0,0,.0169-.0096.0169-.0096.122.1447.0114.3507-.1471.3938h0ZM.5063.6559C.887.504.5951-.0019.2645.18c-.3446.1541-.092.6437.2418.476h0Z"/>
  </g>
  <path class="cls-7" d="M.2951.6562c-.4367-.1912.0964-.7291.3578-.3629.0221.0497.0311.1135.0167.1616.0054-.0525-.0116-.1097-.031-.152C.3845-.0412-.1106.4452.2951.6562H.2951Z"/>
  <path class="cls-7" d="M.3344.8929c-.0173-.0671.4064-.2591.4871-.2219-.1591.0273-.3865.1051-.4871.2219H.3344Z"/>
  <path class="cls-7" d="M.2884.5325c.0091.0508-.0715.0454-.0696-.0005-.009-.054.0846-.0479.0696.0005,0,0,.015-.0484,0,0ZM.2867.5325c-.0098-.0343-.0527-.0293-.0576-.0004-.0033.0369.0526.0324.0576.0004,0,0-.005.032,0,0Z"/>
  <path class="cls-1" d="M.3219.3446c-.0215-.027-.0436-.054-.0517-.0883.0288.0195.0649.0208.0963.0333-.0218.033-.0278-.0362-.0363-.0547.0217.0177.0396.0505.0488.0789-.0357-.0083-.0657-.0341-.1015-.0413.0192-.017.0406.0547.0445.0722H.3219Z"/>
  <g>
    <polygon class="cls-8" points=".4388 .6791 .4621 .7476 .622 .6824 .5843 .6208 .4388 .6791"/>
    <path class="cls-7" d="M.4396.6794l.028.0662c.0098-.0289.1135-.0379.1522-.0683.0015.029-.0399-.0548-.0424-.0522.0053.0207-.0973.036-.1378.0543H.4396ZM.438.6787c.0456-.0223.0962-.0499.15-.0678.0046.008.0379.0671.0424.075-.061.0144-.1126.0517-.1725.0691-.0004-.0014-.0191-.0733-.0199-.0764H.438Z"/>
  </g>
  <path class="cls-7" d="M.4582.7283c.0473-.0267.0975-.063.1507-.0695-.0445.0329-.1003.0567-.1507.0695H.4582Z"/>
  <path class="cls-7" d="M.6115.3734c-.0074-.0206-.0338-.0313-.0113-.049.0011.0132-.0256.01-.0329.012.0016-.0147.0224.0489.0237.047,0,0-.012.0051-.012.0051-.0057-.0082-.0192-.0342-.024-.0434.0269.0042-.0082.0101-.0121.0155.0075-.0333.0098.0342.0126.0373-.0018.0044-.0227-.0386-.0234-.0382-.0008-.0022-.0028-.009-.0037-.0112.009-.0043.0287-.0139.0377-.0182.0022.0044.0159.0324.0184.0375.0047.0116.0103.0157-.0059.02.0007-.0024-.0191-.0567-.012-.0566.0047.0016.0377-.0205.0235-.0005.0245-.0047.0137.0112.0187.0173-.001.0006.0067.0273.0025.0255h0Z"/>
  <path class="cls-9" d="M.4966.567s-.0211-.0053-.0249.0149.0074.0154.0193.0175.0192-.0029.023.0057c.0113.0259-.0049.0308-.0244.0282"/>
  <g>
    <path class="cls-4" d="M.4224.5041s.0741.0845.0723.079l-.0339-.1057.0498-.0006-.0522-.0355.0689-.0662-.0847.0454.0217-.0557-.0421.043s-.1006-.1696-.1007-.1603.0644.178.0644.178c-.0027.0045-.0907-.0098-.0728-.0172.0108-.0044.0652.0559.0652.0559l-.0644.0438.0836-.0156-.0058.0703.0306-.0584Z"/>
    <path class="cls-7" d="M.4223.5033c.0224.0274.0596.0522.0674.0795-.0336-.1194-.0712-.1163.0207-.1123,0,0-.0034.0114-.0034.0114l-.0513-.0365c-.006-.0033-.0054-.0041-.0007-.0079.0034.0022.0734-.0817.074-.0591,0,0-.0851.0443-.0851.0443l-.0069.0036.0029-.0071c.0026.0022.0182-.0704.0269-.0519-.0053.0015-.0481.0619-.0492.0428-.0214-.0485-.09-.114-.0882-.1613,0,0,.0643.1733.0643.1733l.0025.0067c-.0276.0106-.0372.002-.0537.0011-.0049-.0092-.0485.0094-.0248-.0303.0353.018.0478.0426.072.0656-.0026.0017-.0682.0444-.0725.0472,0,0-.0043-.0104-.0043-.0104.0073-.0014.0819-.0135.0892-.0149,0,0-.0006.0053-.0006.0053-.0025-.0004-.0026.0802-.0119.0686,0,0,.0326-.058.0326-.058H.4223ZM.4225.505c-.0414.0911-.0328.0577-.029-.013.0155.0092-.0996.0227-.1053.0271.0065,0,.0979-.0804.0847-.0502-.0617-.0604-.0922-.0741.0059-.0482.0034.035-.0646-.1816-.0649-.1749.0484.0186.0421.0517.0651.0771l.0475.082c-.0264.0062.0373-.0405.0349-.0429.0147-.0143.0153-.0169.0063.0041-.0033.0017-.0214.0662-.0264.0518.0177-.0097.0925-.051.1088-.0599-.0066.0016-.0912.1007-.0888.0792.0117.0077.0586.0381.0695.0453,0,0-.0202.0006-.0202.0006-.0048-.0037-.0676.0116-.0428-.0079,0,0,.0309.1047.0309.1047-.0371-.0103-.0516-.0512-.0762-.0749H.4225Z"/>
  </g>
  <g>
    <path class="cls-6" d="M.3965.4735s.0364.0021.0348-.0275l-.2611-.0263s-.0102-.0058-.0012.022l.2275.0319Z"/>
    <path class="cls-7" d="M.3966.4725c.0329-.0022.0204-.037.0338-.0189-.0873-.0169-.1764-.0179-.2644-.026.0166-.0106.0051.0054.0118.011.0365-.014.1516.0247.2188.0338H.3966ZM.3964.4745c-.0798-.0056-.1601-.0108-.2391-.0255.0132-.0134-.023-.0219.017-.0375.071.016.195.0144.2647.0342.0045.0263-.0278.0338-.0426.0288H.3964Z"/>
  </g>
  <g>
    <path class="cls-3" d="M.4006.4721s.0364.0021.0348-.0275l-.0416-.0484s-.0365.0016-.0275.0294l.0343.0465Z"/>
    <path class="cls-7" d="M.401.4714c.0688-.0139-.0185-.0713-.0069-.0682-.0462.0042.0003.0462.0069.0682H.401ZM.4002.4729c-.001-.0019-.045-.0442-.0426-.0462-.0089-.0257.0256-.0455.0415-.0348.0096.0216.0292.0352.0431.0525.004.0254-.0263.0332-.042.0285H.4002Z"/>
  </g>
</svg>