<?xml version="1.0" encoding="UTF-8"?>
<svg id="Layer_1" data-name="Layer 1" xmlns="http://www.w3.org/2000/svg" version="1.1" viewBox="0 0 1 1">
  <defs>
    <style>
      .cls-1 {
        fill: #1f71ff;
      }

      .cls-1, .cls-2, .cls-3, .cls-4 {
        stroke-width: 0px;
      }

      .cls-2 {
        fill: #19579b;
      }

      .cls-3 {
        fill: #000;
      }

      .cls-4 {
        fill: #003e6a;
      }
    </style>
  </defs>
  <g>
    <path class="cls-2" d="M.5126.2766s.0308.0269.0308.1135-.0654.2444-.0597.3272.0346.2252.0346.2252c0,0,.1655.0058.229-.0616,0,0-.0674-.1347-.0481-.2637s.0173-.3329-.0135-.3695-.0751-.0269-.1039-.025-.0693.0289-.0693.0539Z"/>
    <path class="cls-3" d="M.514.2759c.0973.191-.0764.4008.0096.6654.0491-.0114.1687-.0102.2163-.0674-.1191-.1336-.0017-.4313-.0589-.6155-.0306-.0488-.1435-.0443-.167.0175h0ZM.5112.2772c.1445-.1834.2404.0302.2151.1868-.0179.1491-.0227.2945.0284.4239-.07.0597-.1594.057-.2411.06-.0108-.1128-.0643-.2283-.0278-.3452.0258-.1071.0867-.223.0254-.3255h0Z"/>
  </g>
  <path class="cls-3" d="M.5913.5696c.0042.1068.0431.2099.0373.3155-.0426-.0974-.0586-.2179-.0373-.3155h0Z"/>
  <g>
    <path class="cls-4" d="M.1746.2788s.0078-.0765.2825-.0785c.2278-.0016.2531.0235.2923.0706,0,0,.0804-.053.0628-.1354S.4826.0453.3826.0492s-.2315.0157-.2452.0883.0373.1412.0373.1412Z"/>
    <path class="cls-3" d="M.1742.2773c.0932-.1162.5069-.1307.5719-.0116.2067-.1858-.1418-.2031-.2715-.2022-.1471-.0061-.4336-.0042-.3004.2138H.1742ZM.175.2802C.0059.0614.3141.0164.4753.0347c.1537-.0071.5014.0518.2723.2438-.0664-.0978-.4979-.0973-.5726.0017H.175Z"/>
  </g>
  <g>
    <path class="cls-1" d="M.1912.0803s-.1058.0443-.1097.1155.0115.0654.0019.0962-.0192.2232.4465.1982c0,0,.2502.0096.3233-.1039,0,0,.0253-.0461.0231-.1001-.0038-.0943-.0231-.1501-.1078-.1828,0,0,.0751.0308.0481.0885s-.1732.0808-.3426.0943c-.1317.0105-.3481-.0275-.3406-.1193.004-.0499.0518-.0825.0577-.0866Z"/>
    <path class="cls-3" d="M.1899.081c-.0554.0289-.1204.0807-.1023.1517.0091.0712-.01.137.0559.1764.1922.0972.5383.1331.7023-.027.0414-.0918.0222-.2357-.0821-.2659.0176-.0678.1048.049.0603.0906-.0313.0402-.0752.0489-.1144.0609-.1387.0538-.7575.0605-.5197-.1868H.1899ZM.1925.0796C.0105.2426.3476.2926.4639.2736c.0829-.0089.4664-.0314.2995-.1575,0,0,.0102-.0255.0102-.0255.1248.0418.1366.2046.0868.3004-.1594.1497-.547.1487-.7313.0359C.0405.3684.0424.109.1925.0796H.1925Z"/>
  </g>
  <path class="cls-3" d="M.1854.3193c.1866.1.3851.0745.5761.0105-.1608.1127-.4254.1126-.5761-.0105H.1854Z"/>
  <g>
    <path class="cls-1" d="M.5954.2727s.0348-.0246.0482.0582-.0268.2441-.0083.3223.069.2097.069.2097c0,0,.1643-.0209.2165-.0955,0,0-.0873-.118-.0883-.2443s-.0164-.2781-.0525-.3081-.0815-.0199-.1097-.0135-.0789.0473-.0751.0712Z"/>
    <path class="cls-3" d="M.5959.2714c.1014.0107.0409.2189.0492.2871-.0178.1035.0421.2004.0639.3025.0474-.0188.1644-.0364.2036-.0991,0,0,.0001.0114.0001.0114-.1534-.1536-.0426-.4166-.1555-.5628-.0547-.0249-.14.0009-.1615.0609h0ZM.5948.2741c.0941-.1787.2539-.066.2453.1091-.0039.1429.0232.2774.0888.39-.0604.0686-.1485.0796-.2283.0957-.0262-.1027-.0943-.1983-.0819-.3121-.0038-.064.0675-.2673-.0239-.2827h0Z"/>
  </g>
  <path class="cls-3" d="M.701.2482c.0889.0397.0795.3294.0519.4177-.0286-.1366.0291-.3099-.0519-.4177h0Z"/>
  <path class="cls-3" d="M.5302.9845c-.0173-.0144-.0221-.0321-.0139-.0532.0174.0144.022.0321.0139.0532,0,0,.008-.021,0,0Z"/>
  <path class="cls-3" d="M.5884.9739c-.0156-.01-.0185-.0228-.0084-.0385.0157.01.0184.0229.0084.0385,0,0,.01-.0156,0,0Z"/>
  <path class="cls-3" d="M.6511.9677c-.0156-.01-.0185-.0228-.0084-.0385.0157.01.0184.0229.0084.0385,0,0,.01-.0156,0,0Z"/>
  <path class="cls-3" d="M.7155.9448c-.0156-.01-.0185-.0228-.0084-.0385.0157.01.0184.0229.0084.0385,0,0,.01-.0156,0,0Z"/>
  <path class="cls-3" d="M.7677.9269c-.0179-.0113-.0235-.027-.0165-.0471.018.0113.0234.027.0165.0471,0,0,.0069-.02,0,0Z"/>
  <path class="cls-3" d="M.7263.9075c-.019-.0102-.0262-.0257-.0212-.0468.0191.0101.0261.0258.0212.0468,0,0,.0049-.021,0,0Z"/>
  <path class="cls-3" d="M.7781.8857c-.0156-.01-.0185-.0228-.0084-.0385.0157.01.0184.0229.0084.0385,0,0,.01-.0156,0,0Z"/>
  <path class="cls-3" d="M.839.8671c-.0156-.01-.0185-.0228-.0084-.0385.0157.01.0184.0229.0084.0385,0,0,.01-.0156,0,0Z"/>
  <path class="cls-3" d="M.9001.8431c-.0173-.0078-.0227-.0205-.0157-.0383.0175.0077.0226.0205.0157.0383,0,0,.0069-.0177,0,0Z"/>
  <path class="cls-3" d="M.9424.8069c-.0184-.0046-.0258-.0161-.0218-.0347.0185.0045.0257.0162.0218.0347,0,0,.0038-.0186,0,0Z"/>
</svg>