<?xml version="1.0" encoding="UTF-8"?>
<svg id="Layer_1" data-name="Layer 1" xmlns="http://www.w3.org/2000/svg" xmlns:xlink="http://www.w3.org/1999/xlink" version="1.1" viewBox="0 0 1 1">
  <defs>
    <style>
      .cls-1 {
        clip-path: url(#clippath);
      }

      .cls-2 {
        fill: none;
      }

      .cls-2, .cls-3, .cls-4, .cls-5 {
        stroke-width: 0px;
      }

      .cls-3 {
        fill: #000;
      }

      .cls-4 {
        fill: #34490f;
      }

      .cls-6 {
        stroke: #000;
        stroke-miterlimit: 10;
        stroke-width: .0117px;
      }

      .cls-6, .cls-5 {
        fill: #588706;
      }
    </style>
    <clipPath id="clippath">
      <path class="cls-2" d="M.5355.9825h-.066c-.1424,0-.2748-.098-.2748-.2404l.017-.2529c0-.1424.1154-.2578.2578-.2578h.066c.1424,0,.2578.1154.2578.2578l.0194.2339c0,.1424-.1348.2594-.2772.2594Z"/>
    </clipPath>
  </defs>
  <g>
    <path class="cls-4" d="M.5355.9825h-.066c-.1424,0-.2748-.098-.2748-.2404l.017-.2529c0-.1424.1154-.2578.2578-.2578h.066c.1424,0,.2578.1154.2578.2578l.0175.2358c0,.1424-.1329.2575-.2753.2575Z"/>
    <path class="cls-3" d="M.5355.9841c-.3721.0569-.3861-.3026-.3198-.5714.0886-.2932.5994-.2466.5933.0763.0357.2336.0261.4845-.2735.4951h0ZM.5355.9808c.2899-.0242.2711-.2775.2422-.4918.0166-.2811-.4717-.3536-.5481-.0721-.0448.2521-.0465.6041.3059.5639h0Z"/>
  </g>
  <g class="cls-1">
    <g>
      <rect class="cls-5" x=".2916" y=".1965" width=".4264" height=".8173"/>
      <path class="cls-3" d="M.7188,1.0146c-.0128-.0021-.4236.01-.4364.0085-.0015-.0059.0033-.8191.0022-.8266,0,0,0-.007,0-.007h.0071s.4262-.004.4262-.004h.0112c.0022.0095-.0118.8184-.0102.8291h0ZM.7172,1.013c.0072.0081-.0272-.8662.0007-.8056.0053-.0031-.4578.0054-.4193-.0108-.0063-.0073.0166.8593-.0069.808,0,0,.4254.0083.4254.0083h0Z"/>
    </g>
  </g>
  <g>
    <path class="cls-4" d="M.5032.8138h-.0015c-.07,0-.1267-.0567-.1267-.1267v-.1605c0-.07.0567-.1267.1267-.1267h.0015c.07,0,.1267.0567.1267.1267l.0116.1565c0,.07-.0684.1307-.1383.1307Z"/>
    <path class="cls-3" d="M.5032.8154c-.2083.0115-.1954-.4329.0094-.4252.0701-.0017.1354.0668.1325.1354.0176.1269.028.289-.142.2898h0ZM.5032.8121c.1542-.0119.1213-.1821.1113-.2856.0138-.1292-.2164-.1674-.2301-.0178.0119.1128-.0377.2893.1188.3034h0Z"/>
  </g>
  <g>
    <rect class="cls-4" x=".4" y=".0194" width=".2168" height=".2215"/>
    <path class="cls-3" d="M.3988.2431c-.0017-.0737-.0199-.1548-.0101-.237.0791.0055.1584.0113.2375.0021.0069.0825.0066.1651.0073.2477-.0814.0047-.1624-.0102-.2346-.0127H.3988ZM.4012.2407c.0515.0048.2379-.0422.1991-.0009.0091-.0645-.0157-.1956.0164-.2102-.0481-.0161-.2298.0174-.2042-.0101.0071.0694-.0099.143-.0113.2212H.4012Z"/>
  </g>
  <g>
    <rect class="cls-4" x=".3734" y=".0194" width=".2701" height=".0511"/>
    <path class="cls-3" d="M.3722.0719c.0004-.0024-.0069-.0572-.0065-.0577.0957-.0259.1916.0161.2874-.0075.0014.0174.0047.06.0061.0774-.098.0069-.202-.0011-.287-.0122H.3722ZM.3745.0696c.0643-.0028.2848-.0386.2542.0006,0,0,.004-.0507.004-.0507l.0106.0106c-.09-.0187-.1799.0179-.2699-.0036.0165-.0271-.0019.0421.0011.0431H.3745Z"/>
  </g>
  <path class="cls-6" d="M.3943.1183s-.0932-.0228-.1027.0456.0304.1046.0304.1046l-.0171.0171s-.0494-.078-.0399-.1217.0552-.0894.1331-.0666l-.0038.0209Z"/>
  <g>
    <line class="cls-4" x1=".613" y1=".1316" x2=".4" y2=".1297"/>
    <path class="cls-3" d="M.613.1316c-.0711.0123-.1421.0118-.213-.0019.0711-.0124.1421-.0116.213.0019,0,0-.0709-.0135,0,0Z"/>
  </g>
  <g>
    <line class="cls-4" x1=".6149" y1=".1772" x2=".4019" y2=".1753"/>
    <path class="cls-3" d="M.6149.1772c-.0711.0123-.1421.0118-.213-.0019.0711-.0124.1421-.0116.213.0019,0,0-.0709-.0135,0,0Z"/>
  </g>
</svg>