<?xml version="1.0" encoding="UTF-8"?>
<svg id="Layer_1" data-name="Layer 1" xmlns="http://www.w3.org/2000/svg" version="1.1" viewBox="0 0 1.7 1">
  <defs>
    <style>
      .cls-1 {
        fill: #2ad2ff;
      }

      .cls-1, .cls-2, .cls-3, .cls-4, .cls-5, .cls-6 {
        stroke-width: 0px;
      }

      .cls-2 {
        fill: #432fba;
      }

      .cls-3 {
        fill: #000;
      }

      .cls-4 {
        fill: #2a1f54;
      }

      .cls-7 {
        stroke-width: .01px;
      }

      .cls-7, .cls-8 {
        fill: #7b4dba;
        stroke: #000;
        stroke-miterlimit: 10;
      }

      .cls-8 {
        stroke-width: .0099px;
      }

      .cls-5 {
        fill: #b47f00;
      }

      .cls-6 {
        fill: #2a90ff;
      }
    </style>
  </defs>
  <g>
    <path class="cls-1" d="M.0257.7621c-.003.0137.4661.2136.4661.2136l.1243-.0427L.9501.0281S.2083-.0613.0257.7621Z"/>
    <path class="cls-3" d="M.0279.7626c.133.072.3618.1427.4582.1962,0,0,.1237-.0438.1237-.0438.0758-.2356.2383-.6007.3242-.8929C.5634.0557.1203.2737.0279.7626H.0279ZM.0235.7616C.079.3144.4913-.0491.9521.0111c.0226.0026.0267-.0027.0141.023-.1319.2974-.2238.6224-.3439.917,0,0-.1245.0415-.1245.0415l-.0071.0024c-.1565-.0766-.3157-.1398-.467-.2334H.0235Z"/>
  </g>
  <g>
    <path class="cls-6" d="M.4918.9758l1.1225-.101S1.4551-.0147.8569.0242C.8569.0242.4064.0824.4918.9758Z"/>
    <path class="cls-3" d="M.4933.974c.3634-.0266.8098-.1235,1.1094-.0973C1.3958-.22.378-.2446.4933.974H.4933ZM.4904.9775c-.1844-1.2996.9293-1.2443,1.1385-.0926-.3819.05-.7681.0668-1.1385.0926H.4904Z"/>
  </g>
  <g>
    <path class="cls-4" d="M.7016.8359l.7185-.063s-.1019-.5547-.4848-.5305c0,0-.2884.0363-.2337.5935Z"/>
    <path class="cls-3" d="M.7025.8348c.2345-.0171.5152-.0767.7104-.0607-.1247-.6793-.7901-.6957-.7104.0607h0ZM.7007.837c-.1238-.8043.6001-.7694.7266-.0655-.2196.0519-.4956.0425-.7266.0655h0Z"/>
  </g>
  <g>
    <path class="cls-2" d="M.9513.2526s.0841.407-.1137.564l-.136.0194s-.0755-.4946.2497-.5833Z"/>
    <path class="cls-3" d="M.9518.2518c.0496.2167.0464.5978-.2556.5916-.0345-.2139-.0004-.5291.2556-.5916h0ZM.9507.2535c-.247.0716-.2478.3982-.25.576.2916.0172.2707-.3655.25-.576h0Z"/>
  </g>
  <path class="cls-7" d="M.9649.3891s.0273.3366-.1569.4321l-.091-.1342s.1615-.0432.2479-.2979Z"/>
  <g>
    <path class="cls-2" d="M.9967.2549s.0591.4309.2892.5276l.1335-.0185s-.0916-.5126-.4227-.509Z"/>
    <path class="cls-3" d="M.9975.2555c.0551.2068.1405.5954.421.5021-.0638-.1743-.1592-.4944-.421-.5021h0ZM.996.2542c.2695-.0024.3903.2952.4309.5151-.293.0864-.4007-.2927-.4309-.5151h0Z"/>
  </g>
  <path class="cls-8" d="M1.0377.4095s.0772.3278.2774.3692l.0228-.1441s-.1478-.0041-.3002-.2251Z"/>
  <g>
    <g>
      <polygon class="cls-5" points=".4692 .9871 .4214 .8098 .4987 .7734 .5237 .9849 .4692 .9871"/>
      <path class="cls-3" d="M.4684.9881c-.0165-.053-.0557-.1259-.0494-.1838.0305-.0038.0868-.0575.0873-.0318.0131.0726.027.1453.0242.2197-.0022.0004-.0583-.0043-.062-.0041H.4684ZM.4699.9861l.0535-.0082c-.0333-.023-.0228-.1449-.0321-.2035.0242.0124-.0531.024-.0672.0407.028.0184.032.1159.0459.1711H.4699Z"/>
    </g>
    <g>
      <path class="cls-5" d="M.4692.8234s.0114.1251.0296.1546"/>
      <path class="cls-3" d="M.4702.8233c.015.0519.0355.0986.0277.1552-.0202-.0431-.0308-.1089-.0277-.1552H.4702Z"/>
    </g>
  </g>
  <g>
    <g>
      <polygon class="cls-5" points=".0228 .7739 .0192 .5903 .1031 .5736 .0763 .7849 .0228 .7739"/>
      <path class="cls-3" d="M.0218.7747c-.0033-.0554-.0236-.1356-.0036-.1903.0305.0037.0981-.0349.0924-.0098-.0048.0736-.0089.1475-.0295.219-.0022-.0001-.0556-.0182-.0592-.019H.0218ZM.0238.7731l.0539.0049c-.0267-.0304.0128-.1461.0179-.2053.0205.0178-.0573.0104-.075.0233.0228.0246.0031.1202.0032.1771H.0238Z"/>
    </g>
    <g>
      <path class="cls-5" d="M.0712.6187s-.0173.1307-.0068.1637"/>
      <path class="cls-3" d="M.0722.6189c.0026.0559.0119.1087-.0088.1639-.0097-.049-.0049-.1172.0088-.1639H.0722Z"/>
    </g>
    <g>
      <path class="cls-5" d="M.0418.5878s-.0084.082.0021.1151"/>
      <path class="cls-3" d="M.0428.5879c.0057.0394.0178.0764.0002.1153-.0127-.0328-.011-.0844-.0002-.1153H.0428Z"/>
    </g>
  </g>
  <g>
    <g>
      <polygon class="cls-5" points="1.5964 .8854 1.5929 .7017 1.6767 .6851 1.6494 .8802 1.5964 .8854"/>
      <path class="cls-3" d="M1.5956.8863c-.0026-.0544-.0239-.1355-.0038-.1904.0306.0037.0984-.035.0924-.0097-.0049.0678-.0095.1358-.0295.2013-.0008.0002-.0568-.0013-.0591-.0012h0ZM1.5972.8844l.0514-.0113c-.0211-.0285.0137-.1342.0206-.189.0205.018-.0573.0105-.075.0234.0229.0243.0023.1191.0031.1769h0Z"/>
    </g>
    <g>
      <path class="cls-5" d="M1.6314.7015s-.0198.0729-.0093.106"/>
      <path class="cls-3" d="M1.6323.7017c.002.0379.0098.0701-.0112.1061-.0093-.0293-.0025-.0807.0112-.1061h0Z"/>
    </g>
    <g>
      <path class="cls-5" d="M1.6405.772s-.0198.0729-.0093.106"/>
      <path class="cls-3" d="M1.6414.7722c.002.0379.0098.0701-.0112.1061-.0093-.0293-.0025-.0807.0112-.1061h0Z"/>
    </g>
  </g>
</svg>