<?xml version="1.0" encoding="UTF-8"?>
<svg id="Layer_1" data-name="Layer 1" xmlns="http://www.w3.org/2000/svg" version="1.1" viewBox="0 0 1.7 1">
  <defs>
    <style>
      .cls-1 {
        fill: #aff;
      }

      .cls-1, .cls-2, .cls-3, .cls-4 {
        stroke-width: 0px;
      }

      .cls-2 {
        fill: #8fff00;
      }

      .cls-3 {
        fill: #000;
      }

      .cls-4 {
        fill: #72e058;
      }
    </style>
  </defs>
  <g>
    <path class="cls-2" d="M1.5445.0387l.0338-.0229-.0206.0653.0411.0183-.0386.0418.0463.0209-.0386.0339.0514.0339-.0386.0287.0463.0209-.0411.0444.0488.0209-.0437.0496.0463.0131-.0283.0496.0334.0157-.0308.0392.0488.0365-.0308.0392.0334.0209-.0257.0444.0334.0287-.0206.0261.0386.0261-.0437.0313s-.0514.0365-.0566.0183-.0797-.7258-.0797-.7258l.0356-.0188Z"/>
    <path class="cls-3" d="M1.544.0378l.0332-.0235.0027.002c-.0008,0-.0194.0765-.0209.0619.0027.0034.0573.0181.0426.0237-.0025-.0004-.0434.0592-.0392.0346.006.0039.0502.0206.0549.0235-.0037.0019-.04.0376-.0447.0408,0,0-.0007-.0108-.0007-.0108.0635.0472.0841.0231.0144.0754,0,0-.0016-.0152-.0016-.0152.0076.0042.0497.0229.0563.0264-.0042.0039-.0442.0467-.0495.0519,0,0-.0025-.0116-.0025-.0116.0845.0352.0547.0183.0065.0808,0,0-.0027-.009-.0027-.009.0031.0009.0509.0151.0521.0155-.0008.0016-.0304.0514-.0321.0545-.0096-.0143.0329.0132.0354.0125,0,0-.0029.0036-.0029.0036-.0008-.0028-.0351.0509-.0317.0345.0007.0034.0611.0374.05.0415-.0022-.0028-.0347.0565-.0313.0327.0566.0309.0341.0206.0104.0721-.0104-.0226.0307.0226.0324.0207,0,0,.0049.0041.0049.0041l-.004.0052-.0201.0262-.0016-.0101.0388.0254.0099.0065c-.0351.0209-.0579.051-.1035.0635-.062-.1085-.0661-.5839-.0925-.7393-.0024-.0014.0369-.0196.037-.02h0ZM1.545.0395c.0008-.0005-.04.0236-.0343.0179.0255.1872.068.5373.0869.7218.0206.0046.0882-.0692.0867-.0392-.0049-.0069-.0551-.0294-.0396-.0369.0045-.0018.0249-.0403.0217-.0167,0,0-.0329-.0291-.0329-.0291-.0115-.0017.0246-.0466.0249-.0515.0119.0202-.0358-.0201-.0358-.0172,0,0,.0033-.0041.0033-.0041.0011.001.0362-.0518.032-.0331-.0012-.0024-.0534-.0378-.0488-.0416.0015.0013.0342-.0527.0316-.034-.0018-.0005-.0375-.0171-.0376-.0169,0,0,.0022-.004.0022-.004.0027.0012.0294-.0682.0304-.0428-.0061-.0017-.0501-.0133-.0549-.0146,0,0,.0059-.0069.0059-.0069l.0429-.0501c.016.0255-.0531-.0163-.0563-.0138.0035-.0045.0428-.0471.0475-.0527.016.0304-.0369-.0088-.0438-.0072-.0161-.0064-.0167-.0055-.0017-.0154,0,0,.0389-.0279.0389-.0279l.0004.013c-.0048-.0023-.055-.0385-.0582-.04.0032-.0042.0416-.0341.0459-.0389,0,0,.0015.0097.0015.0097-.0026-.0033-.0653-.0241-.0473-.0297.002.0038.0443-.057.0405-.0348-.0653-.0254-.0368-.023-.0206-.0875.0108.001-.0326.0231-.0315.0242h0Z"/>
  </g>
  <g>
    <path class="cls-2" d="M.1329.9425l-.0418.0131.0366-.0754-.0409-.0187.039-.0414-.0461-.0214.0389-.0335-.0511-.0345.0388-.0283-.0461-.0214.0416-.044-.0486-.0214.0442-.0491-.0461-.0135.0288-.0493-.0333-.016.0312-.0388-.0485-.0371.0312-.0388-.0332-.0212.0262-.0441-.0331-.0291.0208-.0259L.0076.2011l.0261-.0131s.0653-.0287.0703-.0104.0724.7266.0724.7266l-.0435.0383Z"/>
    <path class="cls-3" d="M.1334.9434c-.0019-.0032-.0445.0197-.0438.0113,0,0,.0351-.0759.0351-.0759.0109.0135-.0396-.0158-.0395-.0134-.0063-.002-.0056-.0028-.0013-.0068.0028.0003.0442-.0595.0397-.0336-.0064-.0041-.05-.0211-.0551-.0243.0041-.0023.0404-.0372.0455-.0408,0,0,.0007.0114.0007.0114-.0073-.0057-.0557-.0354-.0617-.04.0062-.0038.0415-.0311.0485-.0357,0,0,.0014.0147.0014.0147-.0073-.0042-.0495-.0233-.0557-.0268,0,0,.0077-.0079.0077-.0079.0054-.0004.0487-.0637.0443-.032-.0055-.0028-.0522-.0236-.0562-.0257.0009-.0011.0479-.0516.0507-.0548,0,0,.0024.0086.0024.0086-.0032-.0036-.0624-.0128-.0485-.0211.0016.0024.0321-.064.031-.0434-.0015-.0025-.0449-.0176-.034-.0216.0009.0028.0354-.0516.0317-.0341-.0003-.0023-.0621-.0402-.0496-.0424,0,0,.0306-.0391.0306-.0391.0108.0201-.037-.0194-.0367-.0164.0003-.002.0269-.0459.0281-.0491.0104.0234-.0303-.0226-.0322-.0208,0,0-.005-.0043-.005-.0043.002-.0047.0219-.0265.0245-.0313.0062.0295-.0333-.045-.0349-.0425,0,0-.0061-.009-.0061-.009.0401-.0087.0629-.0509.1179-.0216.007.0651.0249.2445.032.312,0,0,.034.4168.034.4168.0009.003-.0443.0376-.0452.0395H.1334ZM.1324.9417c-.0007.0005.0464-.0439.0417-.0374,0,0-.0488-.4135-.0488-.4135-.0067-.0677-.0237-.2452-.0302-.3107-.0098-.0081-.0983.0418-.0808.0167.0014.0061.0432.0572.0327.0606-.0047.0019-.0253.0403-.0219.0162.0512.0429.0356.0289.0072.081,0,0-.0017-.0073-.0017-.0073.0565.0339.0337.022.0023.0672-.0097-.02.0468.0348.0471.0318,0,0,.0006.0049.0006.0049-.0013-.0013-.035.0512-.0322.0337.0024.0032.0443.0154.035.021-.0025-.0014-.0301.0672-.0306.0428.0822.0206.0513.0095.0053.0713-.0156-.0249.0535.0174.0559.0147-.0033.0042-.0433.0466-.0477.0519-.0154-.0297.0374.0097.0438.0081.0155.0063.0156.0055.0015.0149,0,0-.0388.028-.0388.028l-.0002-.0136c.0051.0027.0545.039.0582.0409-.0036.0045-.0419.0337-.0466.0387,0,0-.0014-.0103-.0014-.0103.073.0343.054.0179.0075.0712-.0113-.0185.0375.015.0391.0128.0073.0018-.0366.0766-.0363.0792-.0104-.0036.0405-.0134.0396-.0146H.1324Z"/>
  </g>
  <g>
    <path class="cls-1" d="M.1334.9486c.0096,0,.096-.1267.3744-.078s.3552.1007.6464.1007.4928-.2145.4928-.2145l-.1024-.7182s-.4452.2494-.7072.143C.4694.0322.0406.1817.0406.1817l.0928.7669Z"/>
    <path class="cls-3" d="M.1344.9475c.1821-.1876.5521-.0339.7713-.0054.2578.0549.5599-.0086.7343-.1843,0,0-.1041-.7177-.1041-.7177-.1524.119-.5002.24-.7366.1429-.2281-.1011-.5623-.0262-.746-.0026,0,0,.0811.7672.0811.7672H.1344ZM.1324.9497L.028.1833C.5901-.0781.9473.4068,1.5516.0255c.001.0207.1052.7174.1004.7362-.189.2029-.4875.2594-.75.2034-.2536-.0353-.539-.1971-.7696-.0155H.1324Z"/>
  </g>
  <g>
    <ellipse class="cls-4" cx=".2612" cy=".2125" rx=".0508" ry=".0337" transform="translate(-.029 .0417) rotate(-8.6596)"/>
    <path class="cls-3" d="M.3121.205c.0013.0542-.0857.0626-.1052.0156,0-.0572.0939-.0661.1052-.0156,0,0-.0113-.0505,0,0ZM.3108.2052c-.0205-.0373-.0906-.0214-.0959.0143.0123.0408.0893.0244.0959-.0143,0,0-.0066.0387,0,0Z"/>
  </g>
  <g>
    <ellipse class="cls-4" cx=".6163" cy=".2239" rx=".0338" ry=".0508" transform="translate(.348 .8223) rotate(-85.8221)"/>
    <path class="cls-3" d="M.6676.2276c-.0104.0534-.0971.0424-.106-.0076.0123-.0561.1058-.044.106.0076,0,0-.0002-.0516,0,0ZM.6663.2275c-.0121-.0407-.0839-.0407-.0967-.0069.0033.0424.082.0434.0967.0069,0,0-.0147.0365,0,0Z"/>
  </g>
  <g>
    <ellipse class="cls-4" cx=".6258" cy=".4858" rx=".0338" ry=".0508" transform="translate(.0957 1.0746) rotate(-85.8221)"/>
    <path class="cls-3" d="M.6772.4895c-.0104.0534-.0971.0424-.106-.0076.0123-.0561.1058-.044.106.0076,0,0-.0002-.0516,0,0ZM.6758.4894c-.0121-.0407-.0839-.0407-.0967-.0069.0033.0424.082.0434.0967.0069,0,0-.0147.0365,0,0Z"/>
  </g>
  <g>
    <ellipse class="cls-4" cx=".6503" cy=".8034" rx=".0338" ry=".0508" transform="translate(-.1984 1.3934) rotate(-85.8221)"/>
    <path class="cls-3" d="M.7016.8071c-.0104.0534-.0971.0424-.106-.0076.0123-.0561.1058-.044.106.0076,0,0-.0002-.0516,0,0ZM.7003.807c-.0121-.0407-.0839-.0407-.0967-.0069.0033.0424.082.0434.0967.0069,0,0-.0147.0365,0,0Z"/>
  </g>
  <g>
    <ellipse class="cls-4" cx=".8338" cy=".6793" rx=".0337" ry=".0508" transform="translate(-.0109 1.3449) rotate(-77.4017)"/>
    <path class="cls-3" d="M.8842.6902c-.0179.0514-.1021.0279-.1039-.0227.0202-.0538.1109-.0283.1039.0227,0,0,.007-.051,0,0ZM.8829.69c-.0063-.042-.0773-.0524-.0948-.0207-.0026.0424.075.0548.0948.0207,0,0-.0197.0341,0,0Z"/>
  </g>
  <g>
    <ellipse class="cls-4" cx=".9671" cy=".8623" rx=".0337" ry=".0508" transform="translate(-.0854 1.618) rotate(-77.4017)"/>
    <path class="cls-3" d="M1.0174.8733c-.0179.0514-.1021.0279-.1039-.0227.0202-.0538.1109-.0283.1039.0227,0,0,.007-.051,0,0ZM1.0161.873c-.0063-.042-.0773-.0524-.0948-.0207-.0026.0424.075.0548.0948.0207,0,0-.0197.0341,0,0Z"/>
  </g>
  <g>
    <ellipse class="cls-4" cx="1.002" cy=".5395" rx=".0337" ry=".0508" transform="translate(.257 1.3997) rotate(-77.4017)"/>
    <path class="cls-3" d="M1.0523.5505c-.0179.0514-.1021.0279-.1039-.0227.0202-.0538.1109-.0283.1039.0227,0,0,.007-.051,0,0ZM1.051.5502c-.0063-.042-.0773-.0524-.0948-.0207-.0026.0424.075.0548.0948.0207,0,0-.0197.0341,0,0Z"/>
  </g>
  <g>
    <ellipse class="cls-4" cx=".9743" cy=".2741" rx=".0337" ry=".0508" transform="translate(.4942 1.1652) rotate(-77.4017)"/>
    <path class="cls-3" d="M1.0246.2851c-.0179.0514-.1021.0279-.1039-.0227.0202-.0538.1109-.0283.1039.0227,0,0,.007-.051,0,0ZM1.0233.2848c-.0063-.042-.0773-.0524-.0948-.0207-.0026.0424.075.0548.0948.0207,0,0-.0197.0341,0,0Z"/>
  </g>
  <g>
    <ellipse class="cls-4" cx=".8077" cy=".3757" rx=".0337" ry=".0508" transform="translate(.2649 1.0819) rotate(-77.4017)"/>
    <path class="cls-3" d="M.858.3866c-.0179.0514-.1021.0279-.1039-.0227.0202-.0538.1109-.0283.1039.0227,0,0,.007-.051,0,0ZM.8567.3864c-.0063-.042-.0773-.0524-.0948-.0207-.0026.0424.075.0548.0948.0207,0,0-.0197.0341,0,0Z"/>
  </g>
  <g>
    <ellipse class="cls-4" cx=".4276" cy=".3393" rx=".0508" ry=".0337" transform="translate(-.0462 .0682) rotate(-8.6596)"/>
    <path class="cls-3" d="M.4785.3317c.0013.0542-.0857.0626-.1052.0156,0-.0572.0939-.0661.1052-.0156,0,0-.0113-.0505,0,0ZM.4772.3319c-.0205-.0373-.0906-.0214-.0959.0143.0123.0408.0893.0244.0959-.0143,0,0-.0066.0387,0,0Z"/>
  </g>
  <g>
    <ellipse class="cls-4" cx=".2889" cy=".4998" rx=".0508" ry=".0337" transform="translate(-.072 .0492) rotate(-8.6596)"/>
    <path class="cls-3" d="M.3399.4922c.0013.0542-.0857.0626-.1052.0156,0-.0572.0939-.0661.1052-.0156,0,0-.0113-.0505,0,0ZM.3385.4924c-.0205-.0373-.0906-.0214-.0959.0143.0123.0408.0893.0244.0959-.0143,0,0-.0066.0387,0,0Z"/>
  </g>
  <g>
    <ellipse class="cls-4" cx=".1831" cy=".6443" rx=".0508" ry=".0337" transform="translate(-.0949 .0349) rotate(-8.6596)"/>
    <path class="cls-3" d="M.234.6367c.0013.0542-.0857.0626-.1052.0156,0-.0572.0939-.0661.1052-.0156,0,0-.0113-.0505,0,0ZM.2327.6369c-.0205-.0373-.0906-.0214-.0959.0143.0123.0408.0893.0244.0959-.0143,0,0-.0066.0387,0,0Z"/>
  </g>
  <g>
    <ellipse class="cls-4" cx=".1475" cy=".3644" rx=".0508" ry=".0337" transform="translate(-.0532 .0264) rotate(-8.6596)"/>
    <path class="cls-3" d="M.1984.3568c.0013.0542-.0857.0626-.1052.0156,0-.0572.0939-.0661.1052-.0156,0,0-.0113-.0505,0,0ZM.1971.357c-.0205-.0373-.0906-.0214-.0959.0143.0123.0408.0893.0244.0959-.0143,0,0-.0066.0387,0,0Z"/>
  </g>
  <g>
    <ellipse class="cls-4" cx=".4804" cy=".6341" rx=".0508" ry=".0337" transform="translate(-.09 .0796) rotate(-8.6596)"/>
    <path class="cls-3" d="M.5313.6265c.0013.0542-.0857.0626-.1052.0156,0-.0572.0939-.0661.1052-.0156,0,0-.0113-.0505,0,0ZM.53.6267c-.0205-.0373-.0906-.0214-.0959.0143.0123.0408.0893.0244.0959-.0143,0,0-.0066.0387,0,0Z"/>
  </g>
  <g>
    <ellipse class="cls-4" cx=".3203" cy=".7746" rx=".0508" ry=".0337" transform="translate(-.113 .0571) rotate(-8.6596)"/>
    <path class="cls-3" d="M.3712.767c.0013.0542-.0857.0626-.1052.0156,0-.0572.0939-.0661.1052-.0156,0,0-.0113-.0505,0,0ZM.3699.7672c-.0205-.0373-.0906-.0214-.0959.0143.0123.0408.0893.0244.0959-.0143,0,0-.0066.0387,0,0Z"/>
  </g>
  <g>
    <ellipse class="cls-4" cx="1.1222" cy=".4117" rx=".0508" ry=".0337" transform="translate(-.0492 .1737) rotate(-8.6596)"/>
    <path class="cls-3" d="M1.1732.4041c.0013.0542-.0857.0626-.1052.0156,0-.0572.0939-.0661.1052-.0156,0,0-.0113-.0505,0,0ZM1.1719.4043c-.0205-.0373-.0906-.0214-.0959.0143.0123.0408.0893.0244.0959-.0143,0,0-.0066.0387,0,0Z"/>
  </g>
  <g>
    <ellipse class="cls-4" cx="1.1289" cy=".723" rx=".0508" ry=".0337" transform="translate(-.096 .1782) rotate(-8.6596)"/>
    <path class="cls-3" d="M1.1798.7154c.0013.0542-.0857.0626-.1052.0156,0-.0572.0939-.0661.1052-.0156,0,0-.0113-.0505,0,0ZM1.1785.7156c-.0205-.0373-.0906-.0214-.0959.0143.0123.0408.0893.0244.0959-.0143,0,0-.0066.0387,0,0Z"/>
  </g>
  <g>
    <ellipse class="cls-4" cx="1.3856" cy=".6547" rx=".0509" ry=".0337" transform="translate(-.1343 .4588) rotate(-17.9472)"/>
    <path class="cls-3" d="M1.4347.6391c.0096.0532-.0748.0755-.1015.0321-.0088-.0564.0823-.0802.1015-.0321,0,0-.0192-.0481,0,0ZM1.4334.6395c-.0261-.0336-.0928-.0067-.0925.0293.0186.0383.0919.0099.0925-.0293,0,0-.0006.0392,0,0Z"/>
  </g>
  <g>
    <ellipse class="cls-4" cx="1.3534" cy=".3694" rx=".0509" ry=".0337" transform="translate(-.048 .435) rotate(-17.9472)"/>
    <path class="cls-3" d="M1.4026.3538c.0096.0532-.0748.0755-.1015.0321-.0088-.0564.0823-.0802.1015-.0321,0,0-.0192-.0481,0,0ZM1.4013.3542c-.0261-.0336-.0928-.0067-.0925.0293.0186.0383.0919.0099.0925-.0293,0,0-.0006.0392,0,0Z"/>
  </g>
  <g>
    <ellipse class="cls-4" cx="1.4787" cy=".1559" rx=".0509" ry=".0337" transform="translate(.1202 .7602) rotate(-30)"/>
    <path class="cls-3" d="M1.5235.1304c.0205.05-.0574.0894-.0926.0526-.0204-.0533.0637-.0956.0926-.0526,0,0-.0288-.0431,0,0ZM1.5223.131c-.0325-.0274-.0921.0128-.0844.048.0262.0336.092-.0095.0844-.048,0,0,.0076.0385,0,0Z"/>
  </g>
  <g>
    <ellipse class="cls-4" cx="1.5118" cy=".456" rx=".0509" ry=".0337" transform="translate(-.0486 .6978) rotate(-25.5927)"/>
    <path class="cls-3" d="M1.5585.434c.0166.0515-.0641.0847-.0963.0453-.0162-.0547.0709-.0904.0963-.0453,0,0-.0254-.0451,0,0ZM1.5572.4346c-.0303-.0298-.0928.0057-.0878.0414.0235.0355.0924-.0024.0878-.0414,0,0,.0046.0389,0,0Z"/>
  </g>
  <g>
    <ellipse class="cls-4" cx="1.5675" cy=".7576" rx=".0509" ry=".0337" transform="translate(-.1688 .8852) rotate(-30)"/>
    <path class="cls-3" d="M1.6123.7321c.0205.05-.0574.0894-.0926.0526-.0204-.0533.0637-.0956.0926-.0526,0,0-.0288-.0431,0,0ZM1.6111.7328c-.0325-.0274-.0921.0128-.0844.048.0262.0336.092-.0095.0844-.048,0,0,.0076.0385,0,0Z"/>
  </g>
  <g>
    <ellipse class="cls-4" cx="1.2622" cy=".8671" rx=".0509" ry=".0366" transform="translate(-.233 .5367) rotate(-22.0262)"/>
    <path class="cls-3" d="M1.3103.8482c.0173.0548-.0711.0849-.0994.0389-.0169-.0579.0789-.0905.0994-.0389,0,0-.0205-.0516,0,0ZM1.309.8487c-.0282-.0355-.0953-.003-.0902.0354.0204.041.095.0062.0902-.0354,0,0,.0047.0416,0,0Z"/>
  </g>
  <g>
    <ellipse class="cls-4" cx="1.2419" cy=".552" rx=".0509" ry=".0366" transform="translate(-.1164 .506) rotate(-22.0262)"/>
    <path class="cls-3" d="M1.29.5332c.0173.0548-.0711.0849-.0994.0389-.0169-.0579.0789-.0905.0994-.0389,0,0-.0205-.0516,0,0ZM1.2887.5337c-.0282-.0355-.0953-.003-.0902.0354.0204.041.095.0062.0902-.0354,0,0,.0047.0416,0,0Z"/>
  </g>
  <g>
    <ellipse class="cls-4" cx="1.2324" cy=".2498" rx=".0509" ry=".0366" transform="translate(-.0037 .4804) rotate(-22.0262)"/>
    <path class="cls-3" d="M1.2805.231c.0173.0548-.0711.0849-.0994.0389-.0169-.0579.0789-.0905.0994-.0389,0,0-.0205-.0516,0,0ZM1.2792.2315c-.0282-.0355-.0953-.003-.0902.0354.0204.041.095.0062.0902-.0354,0,0,.0047.0416,0,0Z"/>
  </g>
  <path class="cls-3" d="M.5825.7332c.0561-.1712.1773-.3293.3375-.4158-.1389.1108-.2658.251-.3375.4158h0Z"/>
  <path class="cls-3" d="M.7658.8316c.0091-.2138.0988-.4627.3081-.5596-.1871.1222-.2796.3438-.3081.5596h0Z"/>
</svg>