<?xml version="1.0" encoding="UTF-8"?>
<svg id="Layer_1" data-name="Layer 1" xmlns="http://www.w3.org/2000/svg" version="1.1" viewBox="0 0 1.1 1">
  <defs>
    <style>
      .cls-1 {
        fill: #3b3f2b;
      }

      .cls-1, .cls-2, .cls-3, .cls-4 {
        stroke-width: 0px;
      }

      .cls-2 {
        fill: #5a862e;
      }

      .cls-3 {
        fill: #000;
      }

      .cls-4 {
        fill: #9b9849;
      }
    </style>
  </defs>
  <g>
    <path class="cls-2" d="M.2756.9235S-.1682.4509.1214.1635c.3392-.3365.7643-.0192.895.1317"/>
    <path class="cls-3" d="M.2748.9243C-.1584.5471-.0027-.1229.6322.0305c.1492.0482.2902.1482.3834.2655C.4208-.3172-.36.2296.2748.9243H.2748Z"/>
  </g>
  <g>
    <path class="cls-4" d="M.1628.8846c-.0054-.0052-.0256-.039-.0103-.0657s.126-.3343.5746-.5608c0,0,.1893-.0992.2483-.0578s.0968.1265.0968.1265c0,0,.0325.0446.0014.133-.0658.1869-.3397.4722-.7263.5271,0,0-.0923-.0122-.1846-.1023Z"/>
    <path class="cls-3" d="M.162.8854c.001-.3117.378-.5514.6505-.67.1111-.0621.222-.0114.2663.1084.089.3419-.6443.8723-.9168.5616H.162ZM.1637.8837c.2544.286.9721-.2335.9029-.5527-.0417-.1142-.1379-.1726-.251-.1077C.555.3519.1812.5839.1637.8837H.1637Z"/>
  </g>
  <g>
    <path class="cls-1" d="M.3017.9412s.0919-.1735.3046-.3415.4384-.2484.4384-.2484c0,0,.0821.0739-.2452.3873-.2284.2187-.4978.1977-.4978.2026Z"/>
    <path class="cls-3" d="M.3021.9395c.1469-.2875.4587-.4962.749-.5951.0014.3203-.4353.6198-.749.5951H.3021ZM.3013.9429c.312-.0275.6769-.286.7371-.5846-.2539.1082-.5639.3198-.7371.5846H.3013Z"/>
  </g>
  <path class="cls-3" d="M.1704.82c.0231.0497.0773.0632.1192.0984-.0459-.0011-.1179-.0484-.1192-.0984H.1704Z"/>
  <path class="cls-3" d="M.2022.7308c.0231.0497.0773.0632.1192.0984-.0459-.0011-.1179-.0484-.1192-.0984H.2022Z"/>
  <path class="cls-3" d="M.2174.823c.029.0347.0759.0419.1117.0735-.0395.001-.1014-.034-.1117-.0735H.2174Z"/>
  <path class="cls-3" d="M.2733.676c.0335.0517.0919.0732.1352.1116-.0568-.0097-.1207-.0579-.1352-.1116H.2733Z"/>
  <path class="cls-3" d="M.2711.624c.0435.057.106.0903.159.1324-.0676-.0146-.134-.0728-.159-.1324H.2711Z"/>
  <path class="cls-3" d="M1.0036.3661c-.0252-.0559-.0795-.0855-.1165-.1296.0545.0176.1105.0746.1165.1296h0Z"/>
  <path class="cls-3" d="M1.0296.3328c-.0252-.0559-.0795-.0855-.1165-.1296.0545.0176.1105.0746.1165.1296h0Z"/>
  <path class="cls-3" d="M.8983.3193c-.0206-.0429-.0666-.0586-.0986-.0957.0405.0048.0985.0528.0986.0957h0Z"/>
  <path class="cls-3" d="M.8531.405c-.0283-.0385-.0711-.0609-.0977-.0978.0447.012.0871.0571.0977.0978h0Z"/>
  <path class="cls-3" d="M.57.5171c-.0283-.0385-.0711-.0609-.0977-.0978.0447.012.0871.0571.0977.0978h0Z"/>
  <path class="cls-3" d="M.6003.4881c-.0283-.0385-.0711-.0609-.0977-.0978.0447.012.0871.0571.0977.0978h0Z"/>
  <path class="cls-3" d="M.0597.309c.0016.1553.0548.3031.1306.4328C.0873.6284.0441.4546.0597.309H.0597Z"/>
  <path class="cls-3" d="M.0748.2714c.0283.1474.07.2946.1409.4227-.0988-.115-.1294-.2811-.1409-.4227H.0748Z"/>
  <path class="cls-3" d="M.8206.2174c-.0904-.0994-.221-.1583-.3491-.1857.1316-.0047.2841.0819.3491.1857h0Z"/>
  <path class="cls-3" d="M.766.2393c-.1052-.0862-.2243-.1604-.3528-.193.1385.0031.2653.1009.3528.193h0Z"/>
  <path class="cls-3" d="M.5649.2101c-.0508-.0495-.1142-.0772-.1695-.1226.0631.0145.1363.0676.1695.1226h0Z"/>
  <path class="cls-3" d="M.5878.2969c-.0418-.0568-.0996-.0939-.1468-.1473.0597.0241.1232.088.1468.1473h0Z"/>
  <path class="cls-3" d="M.1569.3482c.0221.0958.0742.1738.1273.2551-.0726-.0545-.1246-.1657-.1273-.2551H.1569Z"/>
</svg>