<?xml version="1.0" encoding="UTF-8"?>
<svg id="Layer_1" data-name="Layer 1" xmlns="http://www.w3.org/2000/svg" version="1.1" viewBox="0 0 1.1 1">
  <defs>
    <style>
      .cls-1 {
        fill: #a3994a;
      }

      .cls-1, .cls-2, .cls-3 {
        stroke-width: 0px;
      }

      .cls-2 {
        fill: #000;
      }

      .cls-3 {
        fill: #d6e3e5;
      }
    </style>
  </defs>
  <g>
    <g>
      <path class="cls-1" d="M.0382.7928l.0122-.6195s.0129-.0579.054-.054c.0269.0025.0477.0445.0477.0445v-.0604s.0081-.0461.0516-.0461.0533.0337.0533.0337v-.0421s.007-.0393.0533-.0393.0432.0261.0561.0659c0,0,.0021-.0357.0533-.0323.0378.0025.0519.0365.0519.0617l.0028.3632.0869-.1108s.0296-.0345.0549-.0302.0419.0387.0321.0639-.1641.2216-.1823.4137c0,0-.4277-.0072-.4277-.0119Z"/>
      <path class="cls-2" d="M.036.7928C.0663.581-.0474.1946.0948.1026c.0423-.0017.099.0626.0423.0611C.1172.0588.2165-.0029.2666.0879c0,0-.0198.0029-.0198.0029.0002-.0018.0008-.0421.0012-.0437.0074-.0353.0471-.0508.0758-.0436.0325-.0012.0669.0767.0344.0713.0132-.0595.0994-.0515.1177-.0025.0185.0917.0106.2964.018.3915.0064.0112-.0342-.0098-.0351-.008.045-.0479.0609-.1004.1297-.1444.0527-.0215.0921.0359.082.0761-.0781.1433-.1707.2716-.1909.4345,0,0-.0142-.0009-.0142-.0009l-.4295-.0283H.036ZM.0404.7929l.4256-.0046c-.0595.015.0747-.2862.119-.3363.045-.0501.0599-.1109.0194-.1029-.0491.031-.0994.1236-.1505.1708.001-.0332.0031-.2754.0043-.3145.003-.0913.0141-.204-.0997-.1274.0074-.0692-.0795-.0806-.0926-.0275.0009.0147.0018.0745.0025.0955,0,0-.0212-.0522-.0212-.0522-.0151-.0373-.0802-.0309-.0818.0119.0014.0189.0022.0989.0033.1271-.0156-.0435-.0742-.1562-.1002-.0555-.0033.1911-.0194.4118-.0281.6156H.0404Z"/>
    </g>
    <g>
      <polygon class="cls-1" points=".0468 .9665 .0504 .8024 .4697 .7954 .4697 .9733 .0468 .9665"/>
      <path class="cls-2" d="M.0452.968l-.0092-.1658-.0007-.0122c.1486-.0227.298.0172.4464-.0092.0009.0235.0081.1895.009.2121-.1527.0063-.3093-.0115-.4455-.0249H.0452ZM.0484.9649c.0936.0034.4422-.0475.4012.0082,0,0,.0075-.1777.0075-.1777l.0128.0126c-.0877-.0275-.4032.0471-.4051-.0052,0,0-.0163.1621-.0163.1621H.0484Z"/>
    </g>
    <g>
      <line class="cls-3" x1=".1497" y1=".511" x2=".1647" y2=".1253"/>
      <path class="cls-2" d="M.1482.511c-.0037-.1247-.016-.2655.018-.3856.013.1277.0064.2677-.018.3856H.1482Z"/>
    </g>
    <g>
      <line class="cls-3" x1=".2632" y1=".4596" x2=".2654" y2=".0846"/>
      <path class="cls-2" d="M.2617.4596c-.0078-.1208-.0248-.2575.0051-.375.0173.1235.0153.2601-.0051.375H.2617Z"/>
    </g>
    <g>
      <line class="cls-3" x1=".3618" y1=".4896" x2=".3725" y2=".0225"/>
      <path class="cls-2" d="M.3603.4896c-.005-.1521-.019-.3194.0137-.467.0144.1545.0095.3214-.0137.467H.3603Z"/>
    </g>
  </g>
  <g>
    <g>
      <path class="cls-1" d="M1.0732.7928l-.0126-.6195s-.0133-.0579-.0559-.054c-.0279.0025-.0493.0445-.0493.0445v-.0604s-.0084-.0461-.0534-.0461-.0551.0337-.0551.0337v-.0421s-.0073-.0393-.0551-.0393-.0447.0261-.0581.0659c0,0-.0022-.0357-.0551-.0323-.0391.0025-.0537.0365-.0537.0617l-.0029.3632-.09-.1108s-.0307-.0345-.0568-.0302-.0433.0387-.0332.0639.1698.2216.1887.4137c0,0,.4426-.0072.4426-.0119Z"/>
      <path class="cls-2" d="M1.0709.7929c-.0089-.2035-.0254-.4252-.0288-.6153-.0268-.0994-.0871.0094-.1037.0544.0006-.0316.0024-.097.0031-.1284-.0267-.0713-.0935-.0234-.1063.0407.0005-.0229.0018-.0725.0023-.0952-.0113-.0461-.1028-.0449-.0961.0291,0,0-.0161-.002-.0161-.002-.0067-.0331-.0739-.0303-.0836.0036-.0128.076.0031.3013.0001.3846,0,0,0,.004,0,.004l.0006.0514c-.0523-.0472-.1041-.1386-.1544-.1698-.0987-.0085.1929.3206.1591.4532-.0903-.0357.4379-.0011.4238-.0101h0ZM1.0754.7928l-.4445.0286-.0143.0009c-.0206-.1657-.1192-.2919-.198-.4371-.0093-.0422.0356-.0967.0859-.0737.0691.0437.0869.0962.1329.1438,0-.0029-.0424.0203-.0355.0085.0084-.0974-.0019-.3007.0195-.394.022-.0473.1055-.0539.1204.0049-.0337.0045.003-.0733.0363-.0715.029-.0068.0695.0075.0778.0437-.0022.0306.0134.0507-.0189.0408.0541-.0924.1535-.0272.1336.0759-.0578.0008.0013-.0631.0437-.0614.1464.0879.0302.4795.0612.6905h0Z"/>
    </g>
    <g>
      <polygon class="cls-1" points="1.0643 .9665 1.0606 .8024 .6266 .7954 .6266 .9733 1.0643 .9665"/>
      <path class="cls-2" d="M1.0627.9649l-.0164-.1621c-.0092.0539-.3259-.023-.4198.0055,0,0,.013-.0128.013-.0128l.0076.1777c-.0468-.0556.3195-.006.4156-.0083h0ZM1.0659.968c-.1409.0139-.3029.0316-.4607.0252.0003-.0037.008-.188.0085-.1977.001-.0121-.0032-.0177.0132-.013.1492.0233.2994-.0161.4486.0076,0,0-.0007.0121-.0007.0121l-.009.1658h0Z"/>
    </g>
    <g>
      <line class="cls-3" x1=".9578" y1=".511" x2=".9423" y2=".1253"/>
      <path class="cls-2" d="M.9563.5111c-.0137-.1239-.0374-.2636-.0125-.3858.0234.1262.0278.2666.0125.3858h0Z"/>
    </g>
    <g>
      <line class="cls-3" x1=".8403" y1=".4596" x2=".8381" y2=".0846"/>
      <path class="cls-2" d="M.8388.4596c-.0094-.1206-.0282-.2573.0008-.375.019.1233.0186.2601-.0008.375h0Z"/>
    </g>
    <g>
      <line class="cls-3" x1=".7383" y1=".4896" x2=".7272" y2=".0225"/>
      <path class="cls-2" d="M.7368.4896c-.0122-.1516-.0344-.3183-.0081-.4672.0219.1536.0248.3208.0081.4672h0Z"/>
    </g>
  </g>
</svg>