<?xml version="1.0" encoding="UTF-8"?>
<svg id="Layer_1" data-name="Layer 1" xmlns="http://www.w3.org/2000/svg" version="1.1" viewBox="0 0 1 1">
  <defs>
    <style>
      .cls-1 {
        fill: #ffd400;
      }

      .cls-1, .cls-2, .cls-3, .cls-4, .cls-5 {
        stroke-width: 0px;
      }

      .cls-2 {
        fill: #7a390e;
      }

      .cls-3 {
        fill: #b56b00;
      }

      .cls-4 {
        fill: #000;
      }

      .cls-5 {
        fill: #ff7f00;
      }
    </style>
  </defs>
  <g>
    <path class="cls-1" d="M.0203.6848s.188-.282.233-.3231.0999-.0568.0999-.0568l.28.0137s.0568.0137.0705.0352.2428.329.2428.329c0,0-.0392.0881-.1273.094l-.0979-.1194.0117.3055s-.2428.0431-.5111-.002l.0215-.2976-.1057.1194s-.0646-.0157-.1175-.0979Z"/>
    <path class="cls-4" d="M.0188.6848c.113-.1229.1597-.3233.335-.3915,0,0,.2798.0146.2798.0146.1142.0222.2308.2817.3193.3743-.0229.0505-.0807.1094-.14.0996,0,0-.0996-.1178-.0996-.1178l.0182-.0069.0152.3051.0006.0124c-.1743.0273-.3514.0287-.5256.0014-.0125-.0023-.0188.0015-.0147-.0163,0,0,.0281-.297.0281-.297l.0147.0062-.1082.117c-.0515-.0065-.0947-.0577-.1227-.1011H.0188ZM.0218.6848c.0221.0424.0871.0809.1124.0945,0,0,.103-.1216.103-.1216.0198-.0239.016-.0219.0148.0062,0,0-.015.2979-.015.2979.0011-.0003-.0174-.0187-.0103-.0154.1478.0432.3998-.0036.4927.0168,0,0-.0083-.3053-.0083-.3053-.0011-.0362-.0045-.0361.0183-.007,0,0,.096.1207.096.1207.0245-.0026.1028-.0544.1166-.0856,0,0-.1465-.1959-.1465-.1959-.1397-.2264-.2042-.1496-.4427-.1735-.1428.0525-.2185.2476-.3309.3682H.0218Z"/>
  </g>
  <g>
    <polygon class="cls-2" points=".4197 .3382 .3864 .207 .59 .2012 .5431 .3382 .4197 .3382"/>
    <path class="cls-4" d="M.4188.3394c-.0035-.0091-.0499-.1423-.0515-.1462.0781.0005.1566.0112.2341-.0026-.0114.0556-.03.1089-.0476.1625-.0473.0009-.0941-.01-.1349-.0137H.4188ZM.4206.337c.0311.0012.1419-.0277.1085-.0037.0187-.0337.0352-.1421.0611-.1234-.0418-.0168-.2226.0323-.1907-.0061,0,0,.0211.1332.0211.1332H.4206Z"/>
  </g>
  <g>
    <path class="cls-3" d="M.4197.3382l-.0157-.1057-.0842-.002s.0313.0803.0999.1077Z"/>
    <path class="cls-4" d="M.4188.337c-.0033-.0275-.0439-.1165-.0151-.0949-.0278-.0092-.056-.0022-.0841.0017.0185-.0451.0598.0782.0991.0932H.4188ZM.4206.3394c-.0661-.0095-.1042-.0672-.1209-.126.0365.0055.0736.0201.1101.0079.0195.0396.0077.0865.0108.1182H.4206Z"/>
  </g>
  <g>
    <path class="cls-3" d="M.5411.3519l.0169-.1057.0908-.002s-.0338.0803-.1077.1077Z"/>
    <path class="cls-4" d="M.5401.3531c-.0022-.1605-.0025-.0953.1257-.124-.0151.0606-.0581.1178-.1257.124h0ZM.5421.3507c.0387-.0152.0888-.1329.1069-.0949-.0213-.0111-.1044.0064-.081-.0079.0047.0313-.0184.0618-.0258.1028h0Z"/>
  </g>
  <g>
    <path class="cls-5" d="M.3316.8356l.0724-.094c-.0078.002-.0333-.0196-.0333-.0196l-.0705.092.0313.0215Z"/>
    <path class="cls-4" d="M.3314.8341c.0199-.036.0449-.0981.0737-.0882-.0024-.004-.0667-.0193-.0265-.0178-.013.02-.0653.1127-.0729.0782,0,0,.0257.0278.0257.0278H.3314ZM.3318.837c-.0045-.0023-.0401-.0162-.0437-.018.0162-.0448.0501-.0774.0821-.1108.0083.0073.03.0265.0383.0339-.0161.0403-.0488.0761-.0767.0949H.3318Z"/>
  </g>
  <g>
    <path class="cls-5" d="M.6363.8434l-.0697-.094c.0075.002.032-.0196.032-.0196l.0678.092-.0301.0215Z"/>
    <path class="cls-4" d="M.636.8449c-.0269-.019-.0586-.0547-.0738-.0947.0081-.0074.0288-.0265.0369-.0339.0308.0335.0637.0661.0789.1105-.0028.0017-.0381.0161-.042.0181h0ZM.6365.8419c.0049-.0014.0334-.0479.0224-.0147-.0192-.0151-.0862-.0958-.054-.0901,0,0-.0393.0165-.0393.0165.0285-.0091.0517.0524.071.0883h0Z"/>
  </g>
  <g>
    <path class="cls-5" d="M.8054.7425l.1136-.0929c-.0024.0074.0255.0333.0255.0333l-.1192.091-.0198-.0313Z"/>
    <path class="cls-4" d="M.8039.7423c.0255-.0344.0668-.0731.1134-.0967.0087.008.0319.0293.0406.0372-.0419.0387-.0827.0796-.137.1013-.0017-.0025-.0151-.0382-.017-.0418h0ZM.8068.7427c.0004.0046.0437.0361.0136.0247.0192-.0237.1177-.1099.1177-.078,0,0-.0233-.0411-.0233-.0411.0038.036-.0664.067-.108.0944h0Z"/>
  </g>
  <g>
    <path class="cls-5" d="M.0555.6437l.1077.1038c-.0076-.0016-.0294.0313-.0294.0313l-.105-.0943.0266-.0408Z"/>
    <path class="cls-4" d="M.0553.6422c.0359.0215.0817.0584.1114.1027-.0023.0042-.0224.0339-.0252.0388-.0212.0163-.1039-.073-.1254-.0999.001-.0003.0369-.0397.0392-.0417H.0553ZM.0557.6451c-.0034.0011-.0216.0706-.0201.0321.0249.0173.1204.0883.0908.0964,0,0,.0377-.0305.0377-.0305-.0362.0078-.0736-.0589-.1084-.0981H.0557Z"/>
  </g>
  <path class="cls-4" d="M.4768.9785c-.0078-.2104-.0257-.4364.0071-.6422.0179.2124.0155.4381-.0071.6422H.4768Z"/>
  <path class="cls-4" d="M.2477.6828c.0038-.1116.0005-.2456.0443-.3503.0058.1184-.011.2443-.0443.3503H.2477Z"/>
  <path class="cls-4" d="M.7177.6711c-.0259-.106-.0643-.2229-.0497-.3312.0362.1044.0552.232.0497.3312h0Z"/>
  <path class="cls-4" d="M.5594.4966c-.0026-.0147-.0192-.1047-.0211-.1622.021.0232.037.198.0211.1622h0Z"/>
  <path class="cls-4" d="M.3849.4893c.0024-.0147.0164-.1052.0336-.1601.0122.0288-.0303.1991-.0336.1601H.3849Z"/>
  <g>
    <path class="cls-1" d="M.6668.2276c-.1766.0378-.3616-.0042-.3616-.0042l.0479-.126.0724-.0646s.1018-.0157.1194-.0078.0431.0431.0607.0685.0611.1342.0611.1342Z"/>
    <path class="cls-4" d="M.6682.2284c-.1135.0297-.2808.0472-.37-.0077.0218-.0413.0311-.0877.0487-.1304.0027-.0015.0744-.0774.0765-.0719.184-.0529.1958.0787.2448.21h0ZM.6654.2269C.6015.116.5709.0008.4279.0471c.0293-.0178-.0728.0592-.0684.0572-.0084.0256-.0376.0807-.0472.1217.0774-.0188.2449.0252.3532.0009h0Z"/>
  </g>
</svg>