<?xml version="1.0" encoding="UTF-8"?>
<svg id="Layer_1" data-name="Layer 1" xmlns="http://www.w3.org/2000/svg" version="1.1" viewBox="0 0 2.37 1">
  <defs>
    <style>
      .cls-1 {
        fill: #fff9b3;
      }

      .cls-1, .cls-2, .cls-3, .cls-4, .cls-5, .cls-6 {
        stroke-width: 0px;
      }

      .cls-2 {
        fill: #708c02;
      }

      .cls-3 {
        fill: #000;
      }

      .cls-4 {
        fill: #ce5f02;
      }

      .cls-5 {
        fill: #ff7800;
      }

      .cls-6 {
        fill: #fff200;
      }
    </style>
  </defs>
  <g>
    <path class="cls-5" d="M2.1979.026h-.4926l-.2639.1319S.1265.1931.1133.2019.0254.2855.0254.4878s.088.2947.088.2947l1.3502.0484.2507.1275.4608.0014.023-.9338Z"/>
    <path class="cls-3" d="M2.1954.0285c.003.0013-.5214.02-.481.0158,0,0-.2614.1365-.2614.1365-.4048.0303-.8217.0205-1.2286.0313C-.0431.1872.0171.6347.1266.7697c-.0679-.0159,1.3533.0319,1.338.0271.0037-.001.0114.0015.0144.0037,0,0,.2509.1267.2509.1267.0826-.014.3055.0011.445.0024,0,0-.0301.0293-.0301.0293l.0505-.9304h0ZM2.2005.0235l.0046.9369v.0284c-.1683.0036-.3401.013-.5068.0007.009.0006-.2971-.1459-.2361-.1246,0,0-1.3494-.064-1.3494-.064C-.0273.6469-.0181.3656.0946.1991c.42-.0572.9456-.0625,1.3355-.0642.0053,0,.2647-.1283.2709-.1295.0059-.0014.4937.019.4994.0181h0Z"/>
  </g>
  <ellipse class="cls-6" cx="2.1979" cy=".501" rx=".1451" ry=".475"/>
  <g>
    <path class="cls-4" d="M1.7054.026s-.1148.1302-.101.4676c.0057.1381.0287.3832.1098.4647l-.2507-.1275s-.0826-.0523-.0949-.3241c-.0043-.0952.0155-.2948.0729-.3487L1.7054.026Z"/>
    <path class="cls-3" d="M1.7073.0245c-.1282.272-.1316.7122.0372.9584-.0081-.0061-.2709-.1256-.2892-.1358-.1016-.0995-.0976-.2309-.1097-.3485.0037-.1199-.0016-.2514.0886-.3554,0,0,.273-.1187.273-.1187h0ZM1.7035.0274l-.2546.1451c-.0393.0709-.0584.2177-.0577.3247.0064.3103.0812.3249.3272.4527-.177-.1832-.1843-.6834-.0149-.9225h0Z"/>
  </g>
  <path class="cls-1" d="M2.1037.1951s.0246-.0383.0656-.0356.0766.1532.0766.32-.0383.3282-.0711.3419-.0903-.0438-.0903-.0438c0,0-.093-.3036.0191-.5826Z"/>
  <g>
    <polygon class="cls-2" points="1.2625 .7273 1.2907 .8521 .9055 .8485 .8694 .7174 1.2625 .7273"/>
    <path class="cls-3" d="M1.264.7254c.0019.0086.044.1325.045.1376-.1349.0286-.2688-.0235-.4036-.0008-.0106.0039-.0106-.0015-.0133-.0102-.0056-.0193-.0478-.1391-.0527-.1555.1445-.0064.2959.0097.4246.0289h0ZM1.261.7291c-.086-.0009-.4327.0502-.3706-.0173,0,0,.0283.1329.0283.1329l-.013-.01c.0729.0323.3887-.0432.3713.0203,0,0-.016-.1259-.016-.1259h0Z"/>
  </g>
  <path class="cls-3" d="M2.1979.9783c-.2323-.1528-.2175-.7976,0-.9666.1814.1083.1502.3245.1684.4893-.0102.164-.0128.383-.1684.4774h0ZM2.1979.9736c.1823-.1329.1603-.8068,0-.9333-.1322.0758-.127.3047-.1273.4607.0209.1583-.0144.3747.1273.4726h0Z"/>
</svg>