<?xml version="1.0" encoding="UTF-8"?>
<svg id="Layer_1" data-name="Layer 1" xmlns="http://www.w3.org/2000/svg" xmlns:xlink="http://www.w3.org/1999/xlink" version="1.1" viewBox="0 0 1 1">
  <defs>
    <style>
      .cls-1 {
        clip-path: url(#clippath);
      }

      .cls-2 {
        fill: none;
      }

      .cls-2, .cls-3, .cls-4, .cls-5 {
        stroke-width: 0px;
      }

      .cls-6 {
        clip-path: url(#clippath-1);
      }

      .cls-3 {
        fill: #000;
      }

      .cls-7 {
        opacity: .58;
      }

      .cls-4 {
        fill: #ff1414;
      }

      .cls-5 {
        fill: #fff;
      }
    </style>
    <clipPath id="clippath">
      <path class="cls-2" d="M.0268.0376s.0785.2988.0459.4443-.0134.4326.0211.4917c0,0,.2527-.082.3848-.042s.4403.0459.4844.0249c0,0-.0728-.3159-.0134-.4653.0594-.1489-.0153-.4517-.0153-.4517C.9343.0396.6988-.0176.492.0474S.0517.0493.0268.0376Z"/>
    </clipPath>
    <clipPath id="clippath-1">
      <path class="cls-2" d="M.0314.0388s.0631.164.0367.4314c.0022.0045-.0125.348.0227.503,0,0,.0923-.0641.4331-.0349.0066.0067.2735.0454.4384.014,0,0-.0426-.1311-.014-.4052,0,0,.0669-.333-.0122-.5082,0,0-.2423-.0604-.4314.007C.5047.0458.1722.1107.0314.0388Z"/>
    </clipPath>
  </defs>
  <path class="cls-5" d="M.0268.0376s.0785.2987.0459.4442-.0134.4327.0211.492c0,0,.2527-.0823.3848-.0421s.4403.0459.4844.0249c0,0-.0728-.3159-.0134-.4652.0594-.1493-.0153-.4518-.0153-.4518,0,0-.2355-.0574-.4423.0077-.2068.0651-.4403.0019-.4652-.0096h0Z"/>
  <g class="cls-1">
    <g class="cls-6">
      <g>
        <g class="cls-7">
          <path class="cls-4" d="M.8979,1.0691c-.0584-.1784-.046-.3591-.0294-.5401.0083-.0905.0177-.1811.0198-.2714s-.003-.1806-.0238-.2704c.0604.1781.045.3582.0265.539-.0093.0904-.0194.181-.0212.2715s.0045.1811.0282.2714h-.0001Z"/>
        </g>
        <g class="cls-7">
          <path class="cls-4" d="M.8068-.0112c.0628.1774.0484.356.0302.5355-.0089.0873-.0186.1748-.0209.2624,0,.0026-.0001.0053-.0002.0079-.0018.09.0046.1801.0283.2703h0s0,0,0,0c-.0293-.0888-.0408-.1782-.0429-.268-.0021-.0896.0051-.1795.0132-.2694.0081-.09.0171-.1801.0187-.27.0015-.0899-.0044-.1796-.0263-.2688Z"/>
        </g>
        <g class="cls-7">
          <path class="cls-4" d="M.7491-.0094c.0653.1767.0518.3539.0339.5321-.0087.0868-.0185.1739-.0206.2613,0,.0026-.0001.0052-.0002.0079-.0018.0894.0047.1791.0284.2691h0s0,0,0,0c-.0293-.0883-.0408-.1773-.043-.2665-.0022-.0891.005-.1786.0129-.2681.0079-.0896.0166-.1792.0175-.2686.0009-.0894-.0058-.1785-.0289-.2671Z"/>
        </g>
        <g class="cls-7">
          <path class="cls-4" d="M.6914-.0077c.0678.176.0552.3517.0377.5286-.0085.0864-.0183.173-.0204.2602,0,.0026-.0001.0052-.0002.0078-.0017.0888.0047.178.0286.2679h0s0,0,0,0c-.0294-.0878-.0408-.1763-.043-.2651-.0022-.0887.0049-.1777.0126-.2668.0077-.0891.016-.1783.0164-.2672.0004-.0889-.0073-.1775-.0315-.2654Z"/>
        </g>
        <g class="cls-7">
          <path class="cls-4" d="M.6337-.0059c.0702.1753.0586.3495.0414.5251-.0084.0859-.0181.1722-.0202.2591,0,.0026-.0001.0052-.0002.0078-.0017.0882.0048.177.0287.2668h0s0,0,0,0c-.0294-.0873-.0409-.1753-.0431-.2637-.0022-.0882.0048-.1768.0122-.2654.0075-.0887.0155-.1774.0152-.2657-.0002-.0884-.0087-.1764-.0341-.2638Z"/>
        </g>
        <g class="cls-7">
          <path class="cls-4" d="M.576-.0042c.0727.1746.062.3473.0452.5216-.0082.0854-.018.1713-.02.258,0,.0026-.0001.0051-.0002.0077-.0016.0876.0049.176.0288.2656h0s0,0,0,0c-.0294-.0868-.0409-.1744-.0431-.2623-.0022-.0878.0047-.176.0119-.2641.0073-.0882.0149-.1764.0141-.2643-.0008-.0879-.0101-.1754-.0366-.2621Z"/>
        </g>
        <g class="cls-7">
          <path class="cls-4" d="M.5183-.0024c.0752.1739.0654.3451.0489.5181-.0081.085-.0178.1704-.0198.2569,0,.0025-.0001.0051-.0002.0076-.0016.087.0049.175.0289.2645h0s0,0,0,0c-.0295-.0863-.0409-.1734-.0432-.2609-.0023-.0874.0046-.1751.0116-.2628.0071-.0878.0144-.1755.013-.2629-.0014-.0874-.0115-.1743-.0392-.2605Z"/>
        </g>
        <g class="cls-7">
          <path class="cls-4" d="M.4605-.0007c.0776.1732.0687.3429.0526.5146-.0079.0845-.0176.1695-.0196.2557,0,.0025-.0001.0051-.0002.0076-.0015.0864.005.174.029.2633h0s0,0,0,0c-.0295-.0858-.0409-.1725-.0432-.2595-.0023-.0869.0045-.1742.0113-.2615.0069-.0873.0138-.1746.0118-.2615-.002-.0868-.0129-.1732-.0418-.2588Z"/>
        </g>
        <g class="cls-7">
          <path class="cls-4" d="M.4028.0011c.0801.1725.0721.3407.0564.5111-.0078.0841-.0175.1687-.0194.2546,0,.0025-.0001.005-.0001.0075-.0015.0858.0051.173.0292.2621H.4688s0,0,0,0c-.0296-.0853-.0409-.1715-.0433-.258-.0023-.0865.0044-.1733.011-.2602.0067-.0869.0132-.1737.0107-.26-.0026-.0863-.0143-.1722-.0444-.2572Z"/>
        </g>
        <g class="cls-7">
          <path class="cls-4" d="M.3451.0028c.0826.1719.0755.3386.0601.5077-.0076.0836-.0173.1678-.0192.2535,0,.0025-.0001.005-.0001.0075-.0014.0852.0052.1719.0293.261H.4152s0,0,0,0c-.0296-.0848-.041-.1705-.0433-.2566-.0024-.086.0043-.1725.0107-.2588.0064-.0864.0127-.1728.0095-.2586-.0032-.0858-.0157-.1711-.0469-.2555Z"/>
        </g>
        <g class="cls-7">
          <path class="cls-4" d="M.2874.0046c.085.1712.0789.3364.0638.5042-.0074.0831-.0171.1669-.0189.2524,0,.0025,0,.0049-.0001.0074-.0014.0846.0052.1709.0294.2598H.3616s0,0,0,0c-.0296-.0843-.041-.1696-.0434-.2552-.0024-.0856.0042-.1716.0104-.2575.0062-.086.0121-.1718.0084-.2572-.0038-.0853-.0171-.1701-.0495-.2538Z"/>
        </g>
        <g class="cls-7">
          <path class="cls-4" d="M.2297.0063c.0875.1705.0823.3342.0676.5007-.0073.0827-.0169.166-.0187.2513,0,.0025,0,.0049-.0001.0074-.0013.084.0053.1699.0295.2587H.3079s0,0,0,0c-.0297-.0838-.041-.1686-.0434-.2538-.0024-.0852.0041-.1707.0101-.2562.006-.0855.0116-.1709.0072-.2557-.0043-.0848-.0186-.169-.0521-.2522Z"/>
        </g>
        <g class="cls-7">
          <path class="cls-4" d="M.172.008c.09.1698.0857.332.0713.4972-.0071.0822-.0168.1652-.0185.2502,0,.0024,0,.0049-.0001.0073-.0013.0835.0054.1689.0296.2575H.2543s0,0,0,0c-.0297-.0834-.041-.1676-.0435-.2524-.0025-.0847.004-.1699.0098-.2549.0058-.0851.011-.17.0061-.2543-.0049-.0843-.02-.168-.0546-.2505Z"/>
        </g>
        <g class="cls-7">
          <path class="cls-4" d="M.1143.0098c.0924.1691.089.3298.0751.4937-.007.0818-.0166.1643-.0183.2491,0,.0024,0,.0048-.0001.0072-.0012.0829.0054.1679.0297.2563H.2006s0,0,0,0c-.0298-.0829-.0411-.1667-.0436-.2509-.0025-.0843.0039-.169.0095-.2536.0056-.0846.0105-.1691.0049-.2529-.0055-.0838-.0214-.1669-.0572-.2489Z"/>
        </g>
        <g class="cls-7">
          <path class="cls-4" d="M.147,1.0121c-.0298-.0824-.0411-.1658-.0436-.2496s.0038-.1681.0092-.2522c.0108-.1683.018-.336-.056-.4987.0949.1684.0924.3276.0788.4902-.0068.0813-.0164.1634-.0181.2479s.0047.1715.0297.2624H.147Z"/>
        </g>
      </g>
      <g>
        <g class="cls-7">
          <path class="cls-4" d="M-.0809.1008c.5961.0585.8511-.1353,1.1567.0009C.7842.0004.2602.2166-.0809.1008Z"/>
        </g>
        <g class="cls-7">
          <path class="cls-4" d="M-.0743.1611c.5739.0423.8505-.1233,1.1502-.0039-.2836-.0841-.8112.102-1.1502.0039Z"/>
        </g>
        <g class="cls-7">
          <path class="cls-4" d="M-.0677.2214c.5517.026.8498-.1112,1.1437-.0087-.2755-.0668-.8067.089-1.1437.0087Z"/>
        </g>
        <g class="cls-7">
          <path class="cls-4" d="M-.061.2817c.5295.0098.8492-.0991,1.1372-.0134-.2675-.0496-.8022.0761-1.1372.0134Z"/>
        </g>
        <g class="cls-7">
          <path class="cls-4" d="M-.0544.342c.5073-.0065.8486-.0871,1.1308-.0182-.2594-.0324-.7977.0631-1.1308.0182Z"/>
        </g>
        <g class="cls-7">
          <path class="cls-4" d="M-.0478.4023c.4851-.0227.848-.075,1.1243-.023-.2513-.0151-.7932.0502-1.1243.023Z"/>
        </g>
        <g class="cls-7">
          <path class="cls-4" d="M-.0412.4625c.4629-.039.8473-.063,1.1178-.0278-.2433.0021-.7887.0372-1.1178.0278Z"/>
        </g>
        <g class="cls-7">
          <path class="cls-4" d="M-.0346.5228c.4407-.0553.8467-.0509,1.1113-.0326-.2352.0193-.7842.0243-1.1113.0326Z"/>
        </g>
        <g class="cls-7">
          <path class="cls-4" d="M-.028.5831c.4184-.0715.8461-.0388,1.1048-.0373-.2272.0365-.7797.0113-1.1048.0373Z"/>
        </g>
        <g class="cls-7">
          <path class="cls-4" d="M-.0214.6434c.3962-.0878.8454-.0268,1.0983-.0421-.2191.0538-.7752-.0016-1.0983.0421Z"/>
        </g>
        <g class="cls-7">
          <path class="cls-4" d="M-.0148.7037c.374-.104.8448-.0147,1.0918-.0469-.211.071-.7707-.0146-1.0918.0469Z"/>
        </g>
        <g class="cls-7">
          <path class="cls-4" d="M-.0081.764c.3518-.1203.8442-.0026,1.0853-.0517-.203.0882-.7662-.0275-1.0853.0517Z"/>
        </g>
        <g class="cls-7">
          <path class="cls-4" d="M-.0015.8243c.3296-.1365.8436.0094,1.0788-.0565-.1949.1055-.7617-.0405-1.0788.0565Z"/>
        </g>
        <g class="cls-7">
          <path class="cls-4" d="M.0051.8846c.3074-.1528.8429.0215,1.0724-.0612-.1868.1227-.7572-.0534-1.0724.0612Z"/>
        </g>
        <g class="cls-7">
          <path class="cls-4" d="M.0117.9449c.2852-.1691.8423.0335,1.0659-.066-.1788.1399-.7527-.0664-1.0659.066Z"/>
        </g>
      </g>
    </g>
  </g>
  <path class="cls-3" d="M.0275.0384c.1034.2895.0031.6591.0641.9281.2825-.1172.5795.0421.8687-.0155-.1099-.2648.0639-.6135-.0359-.9089C.6696-.0211.3098.1473.0275.0384H.0275ZM.0262.0368c.3086.1113.6075-.0981.917-.0059.1008.3093-.0674.6163.0272.9306-.3003.0543-.592-.105-.8813.0217C-.016.6691.1359.352.0262.0368H.0262Z"/>
</svg>