<?xml version="1.0" encoding="UTF-8"?>
<svg id="Layer_1" data-name="Layer 1" xmlns="http://www.w3.org/2000/svg" xmlns:xlink="http://www.w3.org/1999/xlink" version="1.1" viewBox="0 0 1 1">
  <defs>
    <style>
      .cls-1 {
        fill: #5cb833;
      }

      .cls-1, .cls-2, .cls-3, .cls-4, .cls-5, .cls-6, .cls-7, .cls-8, .cls-9, .cls-10, .cls-11, .cls-12, .cls-13, .cls-14, .cls-15, .cls-16, .cls-17, .cls-18, .cls-19, .cls-20 {
        stroke-width: 0px;
      }

      .cls-2 {
        fill: #efefed;
      }

      .cls-21 {
        clip-path: url(#clippath);
      }

      .cls-3, .cls-22 {
        fill: none;
      }

      .cls-4 {
        fill: #e2bc00;
      }

      .cls-5 {
        fill: #eae2d0;
      }

      .cls-23 {
        stroke: #fff;
        stroke-width: .0202px;
      }

      .cls-23, .cls-22 {
        stroke-linejoin: round;
      }

      .cls-23, .cls-18 {
        fill: #231f20;
      }

      .cls-6 {
        fill: #d7ad00;
      }

      .cls-7 {
        fill: #c1bfac;
      }

      .cls-24 {
        clip-path: url(#clippath-1);
      }

      .cls-25 {
        clip-path: url(#clippath-3);
      }

      .cls-26 {
        clip-path: url(#clippath-2);
      }

      .cls-8, .cls-27 {
        fill: #000;
      }

      .cls-9 {
        fill: #ff6700;
      }

      .cls-10 {
        fill: #ed1f73;
      }

      .cls-11 {
        fill: #ffb000;
      }

      .cls-12 {
        fill: #f9d43b;
      }

      .cls-13 {
        fill: #ffe581;
      }

      .cls-14 {
        fill: #ccb721;
      }

      .cls-28 {
        opacity: .55;
      }

      .cls-27 {
        stroke-width: .0018px;
      }

      .cls-27, .cls-29 {
        stroke: #000;
        stroke-miterlimit: 10;
      }

      .cls-22 {
        stroke: #ed1670;
        stroke-width: .0262px;
      }

      .cls-15, .cls-29 {
        fill: #fff;
      }

      .cls-16 {
        fill: #efefef;
      }

      .cls-17 {
        fill: #c9c3ab;
      }

      .cls-19 {
        fill: #ffe500;
      }

      .cls-29 {
        stroke-width: .0021px;
      }

      .cls-20 {
        fill: #b29c54;
      }
    </style>
    <clipPath id="clippath">
      <path class="cls-3" d="M.0057.1038l.0667.0035s-.0474.0684.4088.0632c0,0,.3755.0263.4597-.0684l.0526.0035.0018.7703s-.0579.0035-.0632.0053c-.0053.0018-.0948-.0684-.4334-.0562,0-.0001-.4141-.0001-.4141.0508l-.0737.0035L.0057.1038Z"/>
    </clipPath>
    <clipPath id="clippath-1">
      <path class="cls-3" d="M.0057.0928l.0667.0035s-.0309.0524.411.0524c.2281,0,.4278-.0047.4575-.0577l.0526.0035.0018.7703s-.0579.0035-.0632.0053c-.0053.0018-.0948-.0684-.4334-.0562,0,0-.4141,0-.4141.0509l-.0737.0035L.0057.0928Z"/>
    </clipPath>
    <clipPath id="clippath-2">
      <path class="cls-3" d="M.0057.1903l.0667.0035s-.0309.0524.411.0524c.2281,0,.4278-.0047.4575-.0577l.0526.0035.0018.6739s-.0579.0035-.0632.0053c-.0053.0018-.0948-.0684-.4334-.0562,0,0-.4141,0-.4141.0509l-.0737.0035L.0057.1903Z"/>
    </clipPath>
    <clipPath id="clippath-3">
      <path class="cls-3" d="M.0864.9571l.0018-.4464s.1298-.0018.2176.0509c.0878.0527.1983.0509.1983.0509,0,0,.1056-.0023.2193-.0684.0755-.0439.186-.0457.186-.0457l.0035.4619-.8265-.0031h0Z"/>
    </clipPath>
  </defs>
  <path class="cls-10" d="M.0057.0928l.0667.0035s-.026.0514.4079.053c.256.0009.4336-.0099.4607-.0583l.0526.0035.0018.7703s-.0579.0035-.0632.0053-.0948-.0684-.4334-.0562c-.0001,0-.4142,0-.4142.0509l-.0737.0035L.0057.0928Z"/>
  <g>
    <g class="cls-21">
      <path class="cls-8" d="M.0864.1055l.0018.2983s.1298-.0018.2176.0509c.0878.0527.1983.0509.1983.0509,0,0,.1056-.0023.2193-.0684.0755-.0439.186-.0456.186-.0456l.0035-.3053L.0864.1055Z"/>
    </g>
    <g class="cls-24">
      <path class="cls-19" d="M.0864.0945l.0018.2983s.1298-.0018.2176.0509c.0878.0527.1983.0509.1983.0509,0,0,.1056-.0023.2193-.0684.0755-.0439.186-.0456.186-.0456l.0035-.3053L.0864.0945Z"/>
    </g>
  </g>
  <g class="cls-26">
    <g>
      <path class="cls-18" d="M.0864,1.0549l.0018-.5612s.1298-.0018.2176.0509c.0878.0527.1983.0509.1983.0509,0,0,.1056-.0023.2193-.0684.0755-.0439.186-.0456.186-.0456l.0035.5137-.8265.0598h0Z"/>
      <path class="cls-15" d="M.0864,1.0609l.0018-.5612s.1298-.0018.2176.0509c.0878.0527.1983.0509.1983.0509,0,0,.1056-.0023.2193-.0684.0755-.0439.186-.0456.186-.0456l.0035.5137-.8265.0598h0Z"/>
      <path class="cls-14" d="M.0864.9571l.0018-.4464s.1298-.0018.2176.0509c.0878.0527.1983.0509.1983.0509,0,0,.1056-.0023.2193-.0684.0755-.0439.186-.0456.186-.0456l.0035.4618-.8265-.0031h0Z"/>
      <g class="cls-25">
        <g>
          <path class="cls-11" d="M.2127.5057l-.1338.2321s-.0081.1579-.0032.1579.2369-.0242.2369-.0242c0,0,.0725-.303.0677-.3062s-.1676-.0596-.1676-.0596Z"/>
          <polygon class="cls-5" points=".1531 .6105 .3336 .6266 .3255 .6508 .1386 .6363 .1531 .6105"/>
          <polygon class="cls-5" points=".1934 .538 .3739 .5541 .3658 .5782 .1789 .5637 .1934 .538"/>
          <polygon class="cls-5" points=".0999 .7007 .2804 .7168 .2691 .7458 .0822 .7313 .0999 .7007"/>
          <polygon class="cls-5" points=".0499 .8135 .2917 .8345 .2804 .8635 .0322 .8441 .0499 .8135"/>
          <polygon class="cls-9" points=".1386 .6346 .3191 .6508 .2901 .7136 .0999 .7007 .1386 .6346"/>
          <g>
            <path class="cls-2" d="M.3341.5628s-.05-.0032-.0854.0435c-.0279.0368-.0838.0242-.0838.0242,0,0-.0774-.0193-.108-.0064s-.0097.0709.0661.0838c.0328.0056.0806-.0113.0902-.0306s.0419-.0532.0548-.0612.0532-.0306.0999-.029l-.0338-.0242H.3341Z"/>
            <path class="cls-17" d="M.0553.6353s.0226.0693.1579.029c0,0,.0161-.0081.0226-.0145,0,0-.0048.0548-.0951.0596,0,0-.079.0177-.0854-.0741Z"/>
            <path class="cls-20" d="M.3519.5854s-.0637.0142-.0897.0341-.0312.0347-.0489.0448c-.013.0075-.0666.0151-.095.0115,0,0,.0546.0147.1079-.0115,0,0,.0263-.0312.036-.0388.0277-.0217.0867-.0329.0867-.0329"/>
          </g>
          <g>
            <path class="cls-16" d="M.2412.8508s-.1404-.2768.2691-.3046c.3122-.0212.498-.0306.498-.0306l.2703.2432-.0624.1484-.8848.0236s-.0902-.08-.0902-.08Z"/>
            <path class="cls-7" d="M.2557.8428s-.1372-.2671.2723-.2949c.3122-.0212.4947-.0403.4947-.0403l.2703.2432-.0624.1484-.8848.0236-.0902-.08h0Z"/>
            <path class="cls-13" d="M.2952.685s-.0201-.0214.0112-.0294c0,0,.0172-.0061.0323.0071,0,0-.0121-.0303.0414-.0424,0,0,.0848-.0212.0948-.0363s.0101-.0272.0242-.0313.0303-.0071.0515-.004c0,0,.0071-.0262.0383-.0192,0,0,.0172-.0262.0404-.0121,0,0,.0081-.0131.0323.005,0,0,.0071-.0343.0515-.0222,0,0,.0161.002.0202.0182,0,0,.0232-.002.0272-.0091s.0151-.0185.0343-.0175c0,0,.0296.0153.0481.0066.0448-.0213.1712.0069.181.0221.0131.0202.0565-.0252.0676.005,0,0,.005.0141.005.0192,0,0,.0141-.0101.0353.004,0,0,.0081-.0081.0272-.001,0,0,.0131.004.0111.0242,0,0,.0333-.0111.0343.0222,0,0,.0161-.0262.0474.004l.0172.1836-.0878.0928s-.6771.0202-.7013.0111-.0353-.0343-.0494-.0272-.0424.0151-.0505.002-.0444-.0192-.0262-.0515c0,0-.0535.0172-.0353-.0232,0,0-.0303-.0192-.0091-.0363,0,0-.0252-.0111-.0212-.0303,0,0-.0092-.021.0069-.0341h0Z"/>
            <path class="cls-12" d="M.3801.8604s-.0018-.013.0032-.0205.02-.0158.0233-.0225.0076-.0216.0359-.0225c0,0,.0118-.0476.053-.0205,0,0-.0138-.0171-.0022-.0346s.0225-.0434.0417-.0258c0,0-.005-.0434.04-.0308l.0425.0183s.0108.0042.015,0l.0142.0125.0258-.0042.0208.0225.0192-.0409.0283-.0017.0233.0233.01.0075s.0025-.0409.0542-.0325c-.0017.0017.0258-.0025.0258-.0025,0,0,.0158-.0175.0183-.0183s.0223-.0372.0469-.052c.0794-.0476.0988.0582.1552-.0071.0022-.0026.078.0932.083.1049s.0083.02.0083.02l-.0167.025s.0225.0092.0242.0275c0,0,.0275-.0075.0392.0233s-.1251.0825-.1251.0825l-.5202.0008s-.0809.0117-.0984-.0108-.0258-.0258-.0475-.0167-.038.0086-.0415-.0045l.0003.0003Z"/>
            <path class="cls-4" d="M.3518.6844s-.0138.0039-.0207-.0099-.0187-.0099-.0246-.0039.0079.0246.0079.0246c0,0-.0227,0-.0197.0167,0,0,.0049.0187.0128.0227,0,0,.0059-.0177.0266-.0187,0,0,.0099.0128.0167.0099,0,0-.0238.0085-.0298.0183s-.0099.0191-.0008.029c.0062.0067.0207.003.0207.003,0,0-.0197.0089-.0138.0207s.0266.002.0266.002c0,0-.0108-.0129.009-.015.0128-.0014.0233.0007.0339.0064,0,0-.0191-.0191-.0092-.0247s.0226.0106.0226.0106c0,0-.0127-.0092-.017-.0049s.0113.0226.017.0177-.0007-.0148.012-.0219.0141-.0057.0162-.0007-.0007.0205-.0155.0254-.0205.0177-.0205.0311c0,0,.0106-.0184.024-.0247s.0162-.0028.0162-.0028c0,0,.0049-.017.017-.024s.0233-.0042.036.0035c0,0-.0004-.017-.0194-.0312-.0152-.0114-.0224-.0061-.0386.0041-.0163-.0122-.0274.0173-.0274.0173,0,0-.0085-.0191-.0226-.0162,0,0-.0184-.0078-.0283-.0042s-.0042.012-.0042.012c0,0,.0134.0049.0212,0,0,0-.0071.0092.0021.0191,0,0-.0141-.0113-.0283-.0113s-.0245-.0012-.024-.0113c.0007-.0134.0261-.017.029-.0177s.017-.0007.017-.0007l.0184.0014s.0049-.0198.0155-.0261-.017.0141-.029.0099-.0099-.0177-.0099-.0177c0,0-.0155.0219-.024.0078s.0088-.0251.0088-.0251v-.0005Z"/>
            <path class="cls-4" d="M.5174.7321s.0148-.0071.0261.0085c0,0-.0021-.0381.0191-.0431,0,0,.0205-.0014.0134.0381,0,0-.0016.0036-.0056.0084.0051-.0389-.0068-.0356-.0089-.0338s-.0162.0154-.0035.0446c-.0038.0025-.0083.0048-.0136.0067-.0089-.0249-.0189-.0231-.0238-.0205-.0065.0035-.0114.0159-.0025.0255-.0029.0001-.006.0002-.0092.0001,0,0-.0127-.0205.0085-.0346h0Z"/>
            <path class="cls-6" d="M.5097.7773s.0275.0042.0544-.0106.0226-.017.0226-.017c0,0,.024-.0092.0459.0198,0,0,.0028-.0205.017-.0148s.0184.0247.0155.0325-.0141.0057-.0198-.012c0,0,0,.053-.0367.0283,0,0,.0198-.0049.0057-.0297,0,0-.0071-.0134-.0233-.0085,0,0-.0092.0042-.0007.0233,0,0-.0141-.0212-.0388-.0106,0,0-.0141.0035-.017.0311,0,0-.0014-.0261-.0247-.0318h-.0001Z"/>
            <path class="cls-4" d="M.5266.7659s-.0109-.0144-.003-.0179.0114.0159.0114.0159l-.0085.002h.0001Z"/>
            <path class="cls-4" d="M.5627.7505s-.0082-.0193.0005-.0299c0,0,.0063-.0029-.0005.0299Z"/>
            <path class="cls-13" d="M.4456.7527s.0061.0047.0014.0163c0,0,.0136-.0156.0305-.0115,0,0-.0108-.0196-.0318-.0047h0Z"/>
            <path class="cls-4" d="M.4714.6849s.0042.0135.023.0075c.019-.0061.0312-.019.0346-.0325s-.0136-.0224-.0332-.0169-.0257.0115-.0217.0196.0217.0075.0318-.0034c0,0,.011.0053-.0068.0169-.0196.0129-.0278.0088-.0278.0088h0Z"/>
            <path class="cls-4" d="M.4639.6727s-.0142-.0203.0136-.0379c0,0-.0142-.0136-.023-.0054s0,.0224-.0047.0291-.0129.0115-.0305.0061-.0291-.0136-.0481.0014c0,0-.0068.0061-.0034.0156,0,0-.0224.0129-.0163.0196s.019-.0136.019-.0136l.0047.0075s-.0054.0122.0027.0149.0203-.0034.0264-.0081.0129-.0156.0278-.0156.0271-.0122.0318-.0136Z"/>
            <path class="cls-13" d="M.4124.6768s-.023-.0142-.0318-.0047.0014.0176.0041.0196.0129.0061.0278-.0149h0Z"/>
            <path class="cls-4" d="M.4809.6287c.0007-.0224.023-.044.0447-.0251s.0346.0142.0501.0047.0312-.0088.0481-.0027.0379.0041.04-.0122-.0271-.0149-.0271-.0149c.0088-.0054.0108-.0183.0054-.0251s-.0169-.0041-.0339.0054-.0325.0136-.0549.0041-.0488-.002-.0596.0075-.0129.02-.0156.0264c-.0068.0163-.0332.0203-.0454.0264s-.0427.0081-.063.0129-.0196.0149-.0217.0264.0054.0115.0054.0115c0,0,.0007-.0163.0136-.0224s.0264-.0068.0413-.0007.0325-.0047.0325-.0047c0,0-.0025-.0159.0102-.0237.0196-.0122.0298.0061.0298.0061h0Z"/>
            <path class="cls-6" d="M.4538.7988s.0041-.0196.0203-.0196.0359.0068.0488.0332.0108.0217.0149.0169.0027-.0278.0115-.0332.0224-.0115.0379.0122c0,0,.0447.0359.0664-.0027.0027.0007.0156.0136.021.0041s.0095-.0251.0027-.044c0,0,.021-.0047.0264.0169s-.0088.0427-.023.0481-.0278-.0088-.0278-.0088c0,0-.0088.0271-.0271.0244s-.0305-.0196-.0393-.0291-.0278-.019-.0346.0068c0,0,.0027.0325-.021.0271s-.0244-.0312-.0393-.0407-.0224-.0007-.0264.0122c0,0-.0041-.0142.002-.021s.0271-.0102.0407.0095c0,0-.0163-.0379-.0542-.0122h.0001Z"/>
            <path class="cls-6" d="M.5662.8936c.002-.0014.0095-.0285.0366-.0183s.0196.021.0196.021l.0088-.0027s-.0047-.0163.0027-.0257.0203-.0224.0359-.0169.042.021.0501.0346l-.0271.0014s-.0095-.0203-.0285-.0251-.0203.0318-.0203.0318l.0949-.0054s-.0081-.0176-.0014-.0257.0332.0041.0413.0169l.0257.002s-.021-.0176-.0251-.0278c0,0,.0264.0115.0481-.0041s.0149-.0386.0149-.0386c0,0,.0149.0318.0481.0163s.0379-.0407.0379-.0407c0,0-.0014.023.0136.0352,0,0-.0224.0163-.0271.0508l-.0156-.0014s.0047-.0251-.0217-.023-.0366.0285-.0366.0285l-.0196.0007s.0122-.0176.0264-.0264c0,0-.0271.0237-.0501.0156l.0176.0163.042-.0027s.0014-.0183.0115-.021.0251-.0041.0217.0156l.0393.0007s-.002-.0325.0312-.0542c0,0-.0257-.0325-.0068-.0549l.0095-.0041s.0156.0251.0196.0474.0031.0524.0031.0524l-.016.0133.0081-.0413s-.0136-.0034-.0203.0034-.0183.0325-.0176.042-.3659.0237-.3659.0237l-.0088-.0095h.0003Z"/>
            <path class="cls-6" d="M.7221.8658s.0014-.0156.0142-.019.0312.0081.0312.0081c0,0-.0203-.0095-.0183-.0373s.0102-.0312.0102-.0312c0,0-.0169.0224-.0434.0156,0,0,.0041.0251-.0271.0413,0,0,.0129-.002.0332.0224h0Z"/>
            <path class="cls-6" d="M.7099.7581s.0075.0061.0095.0244c0,0,.0251.0027.0271-.0142,0,0,.0183.021.044.0061s.0244-.061.0745-.0393c0,0,.0108.0481.0542.0373,0,0-.0332-.0027-.0373-.0427s.0284-.0622.0311-.0622.0088-.0208.0088-.0208c0,0-.0501.0274-.0514.0626,0,0-.0034.0108-.0183.0075s-.0379-.0142-.0528-.0068-.0102.0196-.0183.0305-.0366-.0014-.0407-.0054.0115.0339.0495.0176c0,0-.0095.0346-.061-.0061,0,0-.0041.0142-.019.0115h.0001Z"/>
            <path class="cls-4" d="M.6272.7405c.002-.0014.0122-.023.0041-.042,0,0,.0176.0156.0318.0007s-.0014-.0176.0068-.021.0183.0047.0224.023l.0041.0183s.0041-.0407.0251-.0447.042.0251.042.0251c0,0-.0047-.0312.0298-.0257s.0468.0163.0806-.0075c0,0-.0122.0183-.0136.0285s-.0061.0081-.0136.0027-.0488-.0217-.065-.0122-.0088.0298-.0088.0298c0,0,.0041-.0257.0257-.0244,0,0-.0203.0088-.0264.0352,0,0-.0108.0115-.0203,0s-.0081-.0339-.0257-.0318-.0108.0352-.0183.0481-.0237.0047-.0298.0068c0,0-.0041-.0318-.0169-.0339s-.0257.0196-.0271.0271l-.0068-.002h-.0001Z"/>
            <path class="cls-6" d="M.9481.7477c-.0007-.0021-.021-.0052-.0303-.0146-.021-.0214.0225-.046.0192-.0511-.0042-.0067-.0017-.0088-.0028-.0173,0,0-.0534.0356-.0365.0736.0143.032.0503.0095.0503.0095h0Z"/>
            <path class="cls-4" d="M.8167.665s.0489.0141.0637-.0356c0,0-.0178.0119-.0222.0119,0,0,.0111-.0059.0126-.0237s.0015-.0541-.0208-.0526-.0378.0208-.0378.0208c0,0-.0059.0126-.0133.0133,0,0,.0037-.0141.0015-.0252s-.023-.0259-.043-.0089c0,0-.0267-.0096-.0296.02,0,0-.017-.0119-.0304-.003,0,0-.0156-.0385-.0408-.0156,0,0,.0274.0007.0222.023,0,0-.0037.0237-.0237.0311l.0037.0059s.017-.0089.0222-.0007c0,0,.0259-.0289.0571-.0141,0,0,.0082-.0415.0356-.0363,0,0,.0267.0007.0141.0459,0,0,.0163.0022.023-.0037s.0037-.0126.0104-.0215.0226-.0195.0326-.0052c.0052.0074.0133.0482-.0371.0741h0Z"/>
            <path class="cls-4" d="M.5632.5486s.0089-.0156.0259-.0067c0,0,.02-.0289.04-.0104,0,0,.017-.0163.0341.0082,0,0,.0096-.0422.0422-.0282,0,0,.0311.0259.0022.0504,0,0-.0282-.0252-.0541-.0141,0,0-.0111-.0193-.0304-.0096s-.0415.0274-.06.0104h0Z"/>
            <path class="cls-4" d="M.6951.6768s-.0215-.0274-.0378-.0156c0,0-.0067.0096-.0007.0208,0,0-.0185.0156-.0363-.003s-.0148-.0282-.0089-.0319.02-.0015.0311.0141c0,0,.0015-.0341.0415-.0111,0,0,.0037-.0245.0259-.0267s.0267.0133.0497.0163.066-.0089.0763-.0282c0,0,.0089.0193-.0245.0371s-.0511.0111-.0511.0111c0,0-.0119.0015-.0044.0141,0,0-.0385-.0371-.0608.003Z"/>
            <circle class="cls-1" cx=".5563" cy=".5961" r=".0193"/>
            <circle class="cls-1" cx=".7836" cy=".673" r=".0217"/>
            <circle class="cls-1" cx=".5454" cy=".8412" r=".0247"/>
            <circle class="cls-1" cx=".4566" cy=".6468" r=".019"/>
            <path class="cls-4" d="M.4616.6918s-.0339.0113-.0466.0275-.0099.0226-.0021.0268c0,0,.0083-.022.0246-.0104,0,0,.015-.0143.0319-.0086,0,.0014.0141.0028.0254.0233,0,0,.0014-.0177.0148-.0304s.0283.0007.0283.0007c0,0-.0049-.036.0226-.0374s.0277.0187.0304.0283l-.0021.0219s.0191-.0021.0283.0049c0,0,.0071-.017.0014-.0374,0,0-.0205-.0071-.0219-.0268,0,0-.0198-.0184-.0452-.0099,0,0-.0106.0035-.0155.0106,0,0-.0318.0381-.0579.0318,0,0-.0134-.0042-.0162-.0148h-.0002Z"/>
            <path class="cls-4" d="M.5951.6561s-.0044-.0348.04-.0208c0,0-.0111-.0245-.0422-.0185s-.0415.0259-.063.0074-.0378.0089-.0378.0089c0,0,.0371-.0148.0534.02,0,0,.0222-.0156.0497.003h-.0001Z"/>
            <path class="cls-13" d="M.6062.5834s-.0267.0037-.0363.0126-.0259.0022-.0341-.0052-.0208-.0111-.0319-.0059c0,0,.0104-.0185.0348-.0067s.0534-.0015.0534-.0015c0,0,.0178-.0104.02-.0044s.003.0096-.0059.0111Z"/>
            <path class="cls-4" d="M.7255.5597s.0133-.0163.0296-.0111c0,0,.0274-.0289.0563.0111,0,0,.0341-.0371.0571-.0089,0,0,.0015-.0215-.0044-.0393,0,0-.0133.0141-.0333.0119s-.017-.0059-.0215-.0111-.0282-.0119-.0385.0082c0,0-.0119.0185-.0371.0133,0,0,.0052.0096-.0082.0259Z"/>
            <path class="cls-4" d="M.6455.7425s.0088-.0027.0183.0095c0,0,.0041-.0156-.0034-.023s-.0149.0136-.0149.0136h0Z"/>
            <path class="cls-6" d="M.819.8022s-.0095-.0142-.0196-.0163c0,0-.0379-.0081-.0386.0278-.0006.0312.0224.0346.0366.0305s.0203-.0108.0224-.0169l-.0102-.0075c.0013.0008-.0147.0221-.0278.0129-.0103-.0072-.0115-.0203-.0047-.0291s.0251-.0115.0359.0047l.0169.0163s-.0034-.04.0169-.0474c-.0027.0014.0014.0346.023.0352,0,0,.0285.0014.0495-.0264,0,0-.0149.0061-.0318-.0007-.018-.0072-.0278-.0325-.0278-.0325,0,0,.002.0413.0278.0434,0,0-.0163.0102-.0257-.002s-.0142-.0427-.0142-.0427c0,0-.0305-.0068-.0285.0508h0Z"/>
            <path class="cls-4" d="M.998.6409s-.0222-.0371-.0497-.0319-.0304.0156-.0304.0156c0,0-.0192-.0222-.02-.0304s.0077-.041.0151-.038.0145.0076.0123.0172-.003.0245.0015.0274.0115-.0103.0156-.02c.0029-.007.012.0033.0089.0096-.0023.0047.0023.0105.0023.0105,0,0,.0103.0058.0147-.0031s.0082-.0059.0082-.0059c0,0-.0022.0082.0015.0178.0014.0035.0141.023.02.0311h0Z"/>
            <path class="cls-6" d="M.3931.8055s.0028.0078.0021.0191-.0042.0162.0057.0177.0113-.0141.0155-.0191.0064-.0162.0155-.0184.0148.0064.0155.0134,0,.012.0057.0162.0162.0113.0226.0233.0283.0071.0283.0071c-.0085.0014-.0134-.0071-.0191-.0148s-.0191-.0148-.0191-.0148c.017-.0042.029.0049.0374.0155s.024.0155.0339.0162.0233-.0064.0247-.017.0064-.0184.0064-.0184c.0049-.0021.0092-.0014.0254.0155.0133.0139.0403.0106.0403.0106-.0071.0035-.0184.012-.0184.012,0,0-.0064-.0092-.0261-.0106s-.0325.017-.0325.017c-.0099-.0042-.0388.0007-.0501.0028s-.0297-.0057-.0494-.0212-.024-.0148-.0325-.0127-.0191.0134-.0254.0141-.0092-.0071-.0092-.0071c0,0-.0066-.017-.0224-.0183,0,0-.0108-.0085-.0023-.0198s.0275-.0085.0275-.0085v.0002Z"/>
            <path class="cls-6" d="M.8836.6796s.0721-.078.0966-.0446c.0245.0334.0245.0674-.0007.0919,0,0-.0156.0104-.0237.0119,0,0,.023.0052.0185.0348,0,0,.0259-.0111.0296.0296,0,0,.0082-.0015.0082-.0074s.0022-.0363-.0311-.0385c0,0,.0015-.0082-.0059-.0148,0,0,.017-.003.02-.0133,0,0,.0022.023.0215.0178.0193-.0052.023-.0037.0156-.017s-.0104-.0289-.0015-.0304.0119.0089.0141.0215c.0022-.0022.0126-.0089.0119-.0245s.0111-.0267.0141-.0267-.0037.0667-.0126.0793-.0104.0059-.0104.0059c0,0-.0133-.0096-.0289,0,0,0,.0082.017.0052.04,0,0-.0437.0289-.0637.0267,0,0,.0015-.0178.0148-.023s.0067.02.0067.02l.0119-.0082s-.003-.0474-.0385-.0089c0,0,.017-.0274-.0052-.0519l-.0044-.0237s.02-.0089.0156-.0333-.0259-.0059-.0259-.0059l-.0052-.02s.0148-.0156.0296-.0067.02.0193.017.0363c0,0,.0228-.0241-.0141-.0548-.0178-.0148-.0656.0428-.0685.045"/>
            <path class="cls-4" d="M1.0721.6572s-.0252.0015-.0245.0333c0,0-.0126-.0104-.0259.0022,0,0-.0148.0104-.0037.0356,0,0-.0104.0156-.017-.0082,0,0,.0156-.0156.0141-.0467,0,0,.0393-.003.0556-.0267l-.003-.0074s-.0252.0282-.0571.0148c0,0-.0015-.0104.0089-.0096s.0296.0067.0504-.0148l-.003-.0067s-.0104.0208-.0482.0133-.0319-.0585-.0319-.0585c0,0-.0052-.0089-.0096-.0037s-.0141.0141-.0141.0141c0,0,.0089-.0222-.0067-.0282s-.023.02-.023.02c0,0,.0119-.0259-.0119-.0363s-.0282.0245-.0282.0245c0,0,.0015-.0282-.0119-.0348,0,0-.0022-.003-.0096-.0022l-.0082-.0215s.0282-.0059.0326.0208c0,0,.0319-.0245.0482.0148,0,0,.023-.023.0296.0119,0,0,.0096-.0089.0222.0015.0126.0104.0032.0227.0059.0341.003.0126.0126.0385.0437.0333,0,0,.0178-.0052.0267-.02,0,0-.0363.0222-.0504.0052s-.0015-.0356.0059-.0393.0326.0015.0326.0015l.0015.0096s-.0267-.0059-.0304.0052.0015.023.0082.0208-.0067-.0111.0037-.0163.0193,0,.0193,0c0,0,.0082.0193.0089.0645h.0003Z"/>
          </g>
        </g>
      </g>
    </g>
  </g>
  <g>
    <g class="cls-28">
      <g>
        <path class="cls-22" d="M.2872.3272c.006-.001.0152-.0017.0259-.0017.0127,0,.0211.002.0268.0063.0047.0035.0076.0091.0076.0165,0,.0104-.0081.0172-.0144.0192v.0004c.0055.0022.0087.0075.0108.0143.0027.0089.0052.0193.0068.0224h-.0189c-.0013-.0023-.0033-.0081-.0059-.0181-.0025-.0098-.006-.0124-.0141-.0125h-.0063v.0306h-.0184v-.0773h.0001ZM.3055.3607h.0083c.0095,0,.0153-.0042.0153-.011,0-.0073-.0057-.0106-.0142-.0106-.0052,0-.008.0003-.0094.0006v.021Z"/>
        <path class="cls-22" d="M.3964.4045l-.0011-.0057h-.0004c-.0039.0046-.0102.0071-.0175.0071-.0126,0-.0195-.0087-.0195-.0175,0-.0148.0133-.0221.0359-.022v-.0005c0-.0025-.0013-.0072-.0112-.0072-.0062,0-.0131.0022-.0171.0046l-.0034-.0117c.0042-.0024.0124-.0053.0236-.0053.0195,0,.0265.0109.0265.0249v.0194c0,.0057.0003.0111.0009.014h-.0167,0ZM.3943.3779c-.0107,0-.018.0023-.018.0087,0,.0042.0029.0065.0075.0065.0049,0,.0089-.0034.0101-.0071.0003-.001.0003-.0021.0003-.0032v-.005h.0001Z"/>
        <path class="cls-22" d="M.4274.3661c0-.0074-.0002-.0135-.0005-.0185h.0155l.0007.0081h.0004c.0022-.0034.0074-.0095.0184-.0095.0077,0,.014.0041.0166.0104h.0002c.0024-.0033.005-.0057.0079-.0073.0033-.002.0071-.0031.0117-.0031.0111,0,.0206.0076.0206.0257v.0326h-.0179v-.03c0-.0088-.0033-.0135-.0094-.0135-.0046,0-.0077.0031-.0089.0065-.0005.0014-.0007.0033-.0007.0046v.0324h-.0179v-.0306c0-.0082-.0033-.0129-.0092-.0129-.0053,0-.0081.0041-.0092.0068-.0006.0015-.0007.0031-.0007.0045v.0322h-.0179v-.0384h.0003Z"/>
        <path class="cls-22" d="M.5483.3818c.0006.0068.0086.0104.0174.0104.0065,0,.0118-.0008.0173-.0026l.0025.0123c-.0066.0027-.014.0039-.0223.0039-.0205,0-.0325-.0116-.0325-.0293,0-.0129.0087-.0304.0307-.0304.0205,0,.0274.0159.0274.0289,0,.0028-.0004.0055-.0007.0067h-.0398ZM.5714.3692c0-.0032-.0019-.011-.0111-.011-.0083,0-.0117.0067-.0123.011h.0234Z"/>
        <path class="cls-22" d="M.5999.3661c0-.0074-.0002-.0135-.0005-.0185h.0161l.0008.0083h.0004c.0021-.0034.0082-.0097.0189-.0097.0119,0,.0221.0075.0221.0256v.0327h-.0185v-.0302c0-.0082-.0031-.0133-.0101-.0133-.0057,0-.0088.004-.0101.0072-.0005.0011-.0006.0027-.0006.0041v.0322h-.0185v-.0384Z"/>
      </g>
    </g>
    <g>
      <path class="cls-23" d="M.2892.3232c.006-.001.0152-.0017.0259-.0017.0127,0,.0211.002.0268.0063.0047.0035.0076.0091.0076.0165,0,.0104-.0081.0172-.0144.0192v.0004c.0055.0022.0087.0075.0108.0143.0027.0089.0052.0193.0068.0224h-.0189c-.0013-.0023-.0033-.0081-.0059-.0181-.0025-.0098-.006-.0124-.0141-.0125h-.0063v.0306h-.0184v-.0773h0ZM.3075.3567h.0083c.0095,0,.0153-.0042.0153-.011,0-.0073-.0057-.0106-.0142-.0106-.0052,0-.008.0003-.0094.0006v.021Z"/>
      <path class="cls-23" d="M.3985.4005l-.0011-.0057h-.0004c-.0039.0046-.0102.0071-.0175.0071-.0126,0-.0195-.0087-.0195-.0175,0-.0148.0133-.0221.0359-.022v-.0005c0-.0025-.0013-.0072-.0112-.0072-.0062,0-.0131.0022-.0171.0046l-.0034-.0117c.0042-.0024.0124-.0053.0236-.0053.0195,0,.0265.0109.0265.0249v.0194c0,.0057.0003.0111.0009.014h-.0167,0ZM.3963.3738c-.0107,0-.018.0023-.018.0087,0,.0042.0029.0065.0075.0065.0049,0,.0089-.0034.0101-.0071.0003-.001.0003-.0021.0003-.0032v-.005h.0001Z"/>
      <path class="cls-23" d="M.4294.3621c0-.0074-.0002-.0135-.0005-.0185h.0155l.0007.0081h.0004c.0022-.0034.0074-.0095.0184-.0095.0077,0,.014.0041.0166.0104h.0002c.0024-.0033.005-.0057.0079-.0073.0033-.002.0071-.0031.0117-.0031.0111,0,.0206.0076.0206.0257v.0326h-.0179v-.03c0-.0088-.0033-.0135-.0094-.0135-.0046,0-.0077.0031-.0089.0065-.0005.0014-.0007.0033-.0007.0046v.0324h-.0179v-.0306c0-.0082-.0033-.0129-.0092-.0129-.0053,0-.0081.0041-.0092.0068-.0006.0015-.0007.0031-.0007.0045v.0322h-.0179v-.0384h.0003Z"/>
      <path class="cls-23" d="M.5503.3778c.0006.0068.0086.0104.0174.0104.0065,0,.0118-.0008.0173-.0026l.0025.0123c-.0066.0027-.014.0039-.0223.0039-.0205,0-.0325-.0116-.0325-.0293,0-.0129.0087-.0304.0307-.0304.0205,0,.0274.0159.0274.0289,0,.0028-.0004.0055-.0007.0067h-.0398ZM.5735.3652c0-.0032-.0019-.011-.0111-.011-.0083,0-.0117.0067-.0123.011h.0234Z"/>
      <path class="cls-23" d="M.6019.3621c0-.0074-.0002-.0135-.0005-.0185h.0161l.0008.0083h.0004c.0021-.0034.0082-.0097.0189-.0097.0119,0,.0221.0075.0221.0256v.0327h-.0185v-.0302c0-.0082-.0031-.0133-.0101-.0133-.0057,0-.0088.004-.0101.0072-.0005.0011-.0006.0027-.0006.0041v.0322h-.0185v-.0384Z"/>
    </g>
    <g>
      <path class="cls-18" d="M.2892.3232c.006-.001.0152-.0017.0259-.0017.0127,0,.0211.002.0268.0063.0047.0035.0076.0091.0076.0165,0,.0104-.0081.0172-.0144.0192v.0004c.0055.0022.0087.0075.0108.0143.0027.0089.0052.0193.0068.0224h-.0189c-.0013-.0023-.0033-.0081-.0059-.0181-.0025-.0098-.006-.0124-.0141-.0125h-.0063v.0306h-.0184v-.0773h0ZM.3075.3567h.0083c.0095,0,.0153-.0042.0153-.011,0-.0073-.0057-.0106-.0142-.0106-.0052,0-.008.0003-.0094.0006v.021Z"/>
      <path class="cls-18" d="M.3985.4005l-.0011-.0057h-.0004c-.0039.0046-.0102.0071-.0175.0071-.0126,0-.0195-.0087-.0195-.0175,0-.0148.0133-.0221.0359-.022v-.0005c0-.0025-.0013-.0072-.0112-.0072-.0062,0-.0131.0022-.0171.0046l-.0034-.0117c.0042-.0024.0124-.0053.0236-.0053.0195,0,.0265.0109.0265.0249v.0194c0,.0057.0003.0111.0009.014h-.0167,0ZM.3963.3738c-.0107,0-.018.0023-.018.0087,0,.0042.0029.0065.0075.0065.0049,0,.0089-.0034.0101-.0071.0003-.001.0003-.0021.0003-.0032v-.005h.0001Z"/>
      <path class="cls-18" d="M.4294.3621c0-.0074-.0002-.0135-.0005-.0185h.0155l.0007.0081h.0004c.0022-.0034.0074-.0095.0184-.0095.0077,0,.014.0041.0166.0104h.0002c.0024-.0033.005-.0057.0079-.0073.0033-.002.0071-.0031.0117-.0031.0111,0,.0206.0076.0206.0257v.0326h-.0179v-.03c0-.0088-.0033-.0135-.0094-.0135-.0046,0-.0077.0031-.0089.0065-.0005.0014-.0007.0033-.0007.0046v.0324h-.0179v-.0306c0-.0082-.0033-.0129-.0092-.0129-.0053,0-.0081.0041-.0092.0068-.0006.0015-.0007.0031-.0007.0045v.0322h-.0179v-.0384h.0003Z"/>
      <path class="cls-18" d="M.5503.3778c.0006.0068.0086.0104.0174.0104.0065,0,.0118-.0008.0173-.0026l.0025.0123c-.0066.0027-.014.0039-.0223.0039-.0205,0-.0325-.0116-.0325-.0293,0-.0129.0087-.0304.0307-.0304.0205,0,.0274.0159.0274.0289,0,.0028-.0004.0055-.0007.0067h-.0398ZM.5735.3652c0-.0032-.0019-.011-.0111-.011-.0083,0-.0117.0067-.0123.011h.0234Z"/>
      <path class="cls-18" d="M.6019.3621c0-.0074-.0002-.0135-.0005-.0185h.0161l.0008.0083h.0004c.0021-.0034.0082-.0097.0189-.0097.0119,0,.0221.0075.0221.0256v.0327h-.0185v-.0302c0-.0082-.0031-.0133-.0101-.0133-.0057,0-.0088.004-.0101.0072-.0005.0011-.0006.0027-.0006.0041v.0322h-.0185v-.0384Z"/>
    </g>
  </g>
  <g>
    <path class="cls-15" d="M.5771.2418c-.0034,0-.0065.0013-.0088.0035v-.0261c0-.0075-.0086-.0165-.0158-.0165h-.0297c-.0021,0-.0041.0011-.0051.003-.0001.0002-.0003.0005-.0006.0008-.0005.0008-.0012.0018-.0018.0031-.0041-.0048-.0102-.0075-.0163-.0075h-.0152c-.0065,0-.0107.0038-.0124.0085-.0006-.0009-.0012-.0017-.002-.0025-.0034-.0038-.0081-.0059-.0127-.0059h-.0078c0-.0006-.0002-.0012-.0003-.0017-.0004-.0027-.0008-.0058-.0023-.0086-.0022-.004-.006-.0062-.0108-.0062-.0021,0-.0055.0007-.0085.0028-.0039.0026-.006.0065-.006.011v.0065c-.0039-.0031-.0087-.0045-.0125-.0045h-.0059c-.0055,0-.0155.0046-.0221.0127v-.0002c0-.0081-.006-.0138-.0145-.0138-.0042,0-.0075.0012-.0098.0036-.0014.0014-.0022.0029-.0027.0045-.0016-.0048-.0064-.0081-.0125-.0081-.0037,0-.0069.001-.0093.0028-.0031-.0025-.0072-.0041-.0111-.0041-.0063,0-.0123.0027-.0168.0077-.0015.0017-.0028.0035-.0038.0054-.0011-.0018-.0025-.0034-.0041-.0048-.0039-.0033-.0089-.0052-.0139-.0052h-.0152c-.0051,0-.0088.0023-.011.0056v-.0015c0-.0097-.0087-.0179-.0158-.0179h-.0059c-.0073,0-.0114.0054-.0136.0099-.0012.0025-.0022.0054-.003.0082-.0009-.0028-.0019-.0057-.0033-.0082-.0047-.0087-.0115-.0105-.0163-.0105-.0056,0-.0106.0022-.0141.0062-.0028.0031-.0045.0072-.0049.0113-.0083-.0047-.0178-.0072-.0275-.0072-.0307,0-.0557.0248-.0557.0552s.025.0552.0557.0552c.0141,0,.0276-.0054.0378-.0151.0095-.0091.0155-.0211.017-.0342.0027.0048.0064.0072.0108.0072.0068,0,.0106-.0052.0125-.0097.0006.0026.0018.0047.0039.0074.0011.0014.0028.0023.0047.0023h.0152c.0018,0,.0036-.0009.0047-.0023.0004-.0005.0007-.001.0009-.0016.0029.0027.0064.0049.0106.006h.014c.0063-.0015.0114-.0051.0149-.01.0018.0049.0069.0084.0131.0084.0091,0,.0138-.0063.0138-.0125v-.0288s.0009-.0002.0014-.0004v.0206c0,.0115.0148.0224.0237.0224h.0059c.0047,0,.0105-.0025.0153-.0065.0031-.0026.0055-.0057.0071-.009.0019.0029.0044.0057.0073.0082.0069.0061.0151.0098.0214.0098h.0059c.0104,0,.0291-.009.0343-.0268v.0055c0,.0051-.0002.0115.0039.0158.0023.0024.0054.0036.0093.0036.0062,0,.0107-.0042.0127-.0088.0051.006.0121.0094.0196.0094.0093,0,.0171-.0039.0219-.0103.0017.0044.0062.0096.0131.0096.0071,0,.0122-.0045.0135-.0094.0017.0046.0058.01.0129.01.0037,0,.0071-.0013.0097-.0037.0013-.0012.0023-.0026.003-.0041.0023.0028.0059.0047.0099.0047.0069,0,.0125-.0055.0125-.0122s-.0056-.0122-.0125-.0122v.0002ZM.256.2289v-.0062c.0009.0014.0021.0026.0034.0036-.0012.0007-.0024.0016-.0034.0026ZM.4108.2443c-.0032,0-.0092-.0039-.0092-.0092v-.0012c.0004.0007.001.0014.0016.0021.0016.0017.0046.0037.0095.0037.003,0,.0058-.0008.0082-.0022-.0012.003-.005.0069-.0102.0069h.0001ZM.4747.2275v-.0026l.0006.0006s.0007.0006.001.0008c-.0006.0004-.0011.0007-.0017.0011h.0001Z"/>
    <path class="cls-8" d="M.5771.2477c-.0037,0-.0066.0028-.0066.0063s.003.0063.0066.0063c.0037,0,.0066-.0028.0066-.0063s-.003-.0063-.0066-.0063ZM.5771.259c-.003,0-.0054-.0023-.0054-.005s.0024-.005.0054-.005.0054.0023.0054.005-.0024.005-.0054.005Z"/>
    <path class="cls-8" d="M.4991.208h-.0152c-.0069,0-.0073.0063-.0073.0073,0,.0052.0041.0079.0079.0079.0044,0,.0055-.0033.0092-.0033.0025,0,.0046.0017.0046.0033,0,.0075-.0257.0004-.0257.0218,0,.0042.0066.0185.0204.0185.0135,0,.0211-.0096.0211-.0204v-.0198c0-.0101-.0084-.0152-.0151-.0152h0ZM.4978.2449c-.0006.0007-.0017.0026-.0046.0026-.0024,0-.004-.0025-.004-.004,0-.0003.0024-.0039.0066-.0039.001,0,.0011.0001.002,0v.0053Z"/>
    <path class="cls-8" d="M.1507.2199c-.0191,0-.0346.015-.0346.0335s.0155.0335.0346.0335.0346-.015.0346-.0335-.0155-.0335-.0346-.0335ZM.1508.2786c-.0139,0-.0252-.0113-.0252-.0252,0-.0073.0031-.0139.0081-.0185.0038.004.0108.0078.0156.0057,0,0-.0027-.0023-.0022-.0047.0002-.0011.0091.0062.0172.0012,0,0-.0075-.0026-.0078-.0082.0112.0025.0195.0126.0195.0246,0,.0139-.0113.0252-.0252.0252H.1508Z"/>
    <path class="cls-8" d="M.5525.2087h-.0297c-.001.0017-.0026.0033-.0026.0059v.0409c0,.0018.0028.0072.0079.0072s.0079-.0037.0079-.0059v-.0349h.0105v.033c0,.0014.0022.0086.0079.0086.0047,0,.0079-.0035.0079-.0066v-.0376c0-.0045-.006-.0105-.0099-.0105h0Z"/>
    <path class="cls-8" d="M.2501.2061c0-.0064-.0061-.012-.0099-.012h-.0059c-.0121,0-.0117.0264-.0168.0318-.0048-.0055-.0038-.0324-.0194-.0324-.0084,0-.0132.0069-.0132.0134v.0181c0,.0011-.0005.0023,0,.0036.0029.0037.0051.0079.0066.0124.0012.0039.0019.008.0019.0123,0,.0224-.0186.0406-.0415.0406s-.0415-.0182-.0415-.0406.0186-.0406.0415-.0406c.008,0,.0154.0022.0218.006.0021.0011.0035.002.0053.0032v-.0098c-.0079-.0051-.0173-.0081-.0274-.0081-.0275,0-.0498.0221-.0498.0493s.0223.0493.0498.0493c.0263,0,.0473-.0205.0491-.0461,0,0-.0007-.0212.0012-.0348.0054.0165.0064.0388.0153.0388.0107,0,.0097-.0254.017-.0396.0007.0085.0008.0303.0008.0303.0001.0042.0006.0059.0033.0094h.0152c-.0014-.005-.0033-.0104-.0033-.0134v-.0411Z"/>
    <path class="cls-8" d="M.3662.206c-.0081,0-.0073.0058-.0073.0099v.0251c0,.003-.003.0059-.0053.0059-.0032,0-.0053-.0024-.0053-.0046v-.0303c0-.0034-.0026-.0059-.0072-.0059-.0034,0-.0086.0012-.0086.0079v.0316c0,.008.0118.0165.0178.0165h.0059c.006,0,.0185-.0075.0185-.0185v-.0297c0-.0042-.0026-.0079-.0086-.0079,0,0,0,0,0,0Z"/>
    <path class="cls-8" d="M.4569.208h-.0119c-.0035-.0044,0-.0165-.0092-.0165-.0024,0-.0086.0021-.0086.0079v.0362c0,.0063-.007.0145-.0165.0145-.0064,0-.0152-.0065-.0152-.0152,0-.0051.0028-.009.0066-.0132h.0033c0,.0033-.0013.0119.0072.0119.0073,0,.0106-.0066.0106-.0112,0-.0121-.0108-.0152-.0145-.0152h-.0059c-.0053,0-.0231.0089-.0231.025v.0059c0,.0128.0179.0264.0277.0264h.0059c.0084,0,.0277-.0086.0297-.0277,0-.0014,0-.0099,0-.0152h.0105c-.0003.0026,0,.0102,0,.0257,0,.0069-.0011.0152.0073.0152.0053,0,.0079-.0055.0079-.0079v-.0343c0-.0061-.0054-.0125-.0119-.0125h0v.0002Z"/>
    <path class="cls-8" d="M.3208.2047c-.0103,0-.0171.01-.0171.0165v.033c0,.0042.004.0066.0079.0066.0051,0,.0079-.003.0079-.0066v-.033c.0036-.0025.0112-.0004.0112-.0092,0-.0037-.0051-.0072-.0099-.0072H.3208Z"/>
    <path class="cls-8" d="M.2822.2078h-.0152c-.0069,0-.0073.0063-.0073.0073,0,.0052.0042.0079.0079.0079.0044,0,.0055-.0033.0092-.0033.0025,0,.0046.0017.0046.0033,0,.0075-.0257.0004-.0257.0218,0,.0042.0067.0185.0204.0185.0135,0,.0211-.0096.0211-.0204v-.0198c0-.0101-.0084-.0152-.0152-.0152h.0002ZM.2808.2448c-.0006.0007-.0017.0026-.0046.0026-.0024,0-.004-.0025-.004-.004,0-.0003.0024-.004.0066-.004.001,0,.0011.0001.002,0v.0053H.2808Z"/>
    <polygon class="cls-8" points=".1449 .2455 .1413 .249 .1378 .2455 .1413 .242 .1449 .2455 .1449 .2455"/>
    <polygon class="cls-8" points=".165 .2455 .1614 .249 .1579 .2455 .1614 .242 .165 .2455 .165 .2455"/>
    <path class="cls-8" d="M.1378.2533s.006.0031.0158.0021c0,0,.0058-.0007.0089-.0038l.0016-.0013s.0015-.0004.002.0007c.0005.0011-.0004.0019-.0004.0019,0,0-.0053.0037-.0096.0038,0,0-.0082.0014-.0169-.002l-.0017-.0007.0003-.0008H.1378Z"/>
    <polygon class="cls-8" points=".1517 .2506 .1527 .2505 .1544 .2517 .1525 .2535 .1484 .2527 .1499 .2503 .1517 .2506"/>
    <path class="cls-8" d="M.579.2553s-.0004-.0006-.0007-.0008c-.0001,0-.0003-.0002-.0005-.0003.0006,0,.001-.0003.0013-.0005.0003-.0003.0004-.0006.0004-.001,0-.0003,0-.0006-.0003-.0009-.0002-.0003-.0004-.0004-.0007-.0005s-.0007-.0002-.0013-.0002h-.0028v.0058h.0008v-.0026h.0015s.0003,0,.0004.0002c.0001,0,.0003.0002.0004.0004.0002.0002.0004.0004.0006.0008l.0008.0012h.001l-.0011-.0016h.0002ZM.5772.2536h-.0018v-.0019h.002s.0008,0,.001.0003c.0002.0002.0003.0004.0003.0007,0,.0002,0,.0004-.0002.0005-.0001.0002-.0003.0003-.0005.0003s-.0005,0-.0009,0h.0001Z"/>
  </g>
  <g>
    <polyline class="cls-29" points=".627 .2287 .627 .2889 .6696 .3315 .8314 .3315 .874 .2889 .874 .2287"/>
    <polygon class="cls-29" points=".7084 .1646 .6481 .1646 .6056 .2072 .6056 .2674 .6481 .31 .7084 .31 .751 .2674 .751 .2072 .7084 .1646"/>
    <polygon class="cls-29" points=".8533 .1646 .7931 .1646 .7505 .2072 .7505 .2674 .7931 .31 .8533 .31 .8959 .2674 .8959 .2072 .8533 .1646"/>
    <polygon class="cls-27" points=".7036 .1761 .6529 .1761 .617 .212 .617 .2627 .6529 .2985 .7036 .2985 .7395 .2627 .7395 .212 .7036 .1761"/>
    <polygon class="cls-27" points=".8483 .1761 .7976 .1761 .7618 .212 .7618 .2627 .7976 .2985 .8483 .2985 .8842 .2627 .8842 .212 .8483 .1761"/>
  </g>
  <g>
    <path class="cls-15" d="M.2065.4761c.0028.0024.0073.0052.0125.0065.0051.0012.0084,0,.0091-.0033.0006-.0028-.0013-.005-.0071-.0083-.0079-.0044-.013-.0099-.0112-.0178.0019-.0083.0108-.0127.0224-.01.0062.0014.0102.0036.0131.0058l-.0047.0082c-.0019-.0014-.0054-.0039-.0107-.0051-.0049-.0011-.0078.0004-.0083.0028-.0007.0031.002.0051.0081.0087.0085.0051.0119.0103.0102.0177-.0018.0077-.0095.0135-.0239.0102-.0059-.0014-.0115-.0044-.0141-.0068,0,0,.0046-.0086.0046-.0086Z"/>
    <path class="cls-15" d="M.2638.5045l.0005-.0036h-.0002c-.0033.0018-.0075.002-.0118.0005-.0074-.0026-.0097-.0091-.0079-.0143.003-.0087.0124-.0103.0257-.0056v-.0003c.0006-.0015.0008-.0045-.005-.0065-.0037-.0013-.0082-.0014-.011-.0008l.0004-.0076c.003-.0006.0084-.0006.015.0017.0115.004.0134.0119.0106.0201l-.004.0114c-.0012.0034-.0021.0066-.0023.0085l-.0098-.0034h-.0002ZM.268.4883c-.0063-.0023-.0111-.0023-.0124.0014-.0009.0025.0004.0045.0031.0054.0029.001.006-.0002.0074-.0021.0004-.0005.0006-.0012.0008-.0018l.001-.0029h0Z"/>
    <path class="cls-15" d="M.2798.5099c.0012-.0017.0035-.0054.0056-.0091l.0209-.0357.01.0058-.0105.018h0c.0036-.0016.0082-.0013.0129.0015.0079.0046.0107.0141.0048.0238-.0065.0112-.0176.0119-.025.0075-.0039-.0023-.0071-.0061-.0072-.0112h0l-.003.0042-.0085-.0049h0ZM.298.5022c-.0003.0006-.0006.0011-.0008.0016-.0009.003.0002.007.0036.009.0045.0026.0093.0013.0124-.0041.0027-.0046.0025-.0099-.0025-.0128-.0031-.0018-.0071-.0013-.0097.0015-.0004.0005-.0008.001-.0012.0016l-.0019.0032h0Z"/>
    <path class="cls-15" d="M.3648.5363c-.0056.0111-.0171.0127-.0269.0078-.0098-.0049-.0147-.0151-.0095-.0254.005-.0099.0156-.0134.0271-.0076.0104.0053.0141.0157.0093.0251H.3648ZM.3392.5239c-.0027.0054-.002.0108.0026.0131.0042.0021.0089.0003.012-.0058.0024-.0048.0026-.0105-.0024-.013-.0052-.0026-.0097.0009-.0122.0057Z"/>
    <path class="cls-15" d="M.3746.5345c.0021-.0054.0033-.0085.0042-.0113l.0092.0037-.0023.0067h.0003c.0039-.0045.0092-.0048.0126-.0034.001.0004.0014.0006.0022.0011l-.004.01c-.0008-.0005-.0016-.0011-.0029-.0016-.0044-.0018-.0079-.0006-.0098.0024-.0003.0006-.0006.0012-.0009.0019l-.0066.0167-.0108-.0043.0087-.0218h0Z"/>
    <path class="cls-15" d="M.4342.578v-.0036h-.0002c-.003.0023-.0072.0029-.0116.0019-.0077-.0017-.0107-.008-.0095-.0133.002-.009.0111-.0117.0249-.0085v-.0003c.0004-.0015.0003-.0046-.0058-.0059-.0038-.0009-.0083-.0004-.011.0004l-.0005-.0076c.0029-.0009.0083-.0016.0151,0,.0119.0027.0147.0103.0128.0188l-.0027.0118c-.0008.0035-.0013.0068-.0014.0087l-.0102-.0023h0ZM.4366.5615c-.0065-.0015-.0113-.001-.0122.0028-.0006.0026.0009.0044.0037.005.003.0007.0059-.0008.0071-.0029.0003-.0006.0005-.0013.0006-.0019l.0007-.003h.0001Z"/>
    <path class="cls-15" d="M.5185.5784c-.0021.0013-.0072.0031-.014.0037-.0184.0016-.0289-.0082-.0302-.0221-.0014-.016.0102-.027.0267-.0285.0065-.0006.0117.0002.014.0012l-.0017.0092c-.0027-.0009-.0065-.0016-.0111-.0011-.0098.0009-.0168.0071-.0159.0175.0008.0092.0076.0153.0188.0143.004-.0004.0082-.0015.0106-.0028l.0027.0087h.0001Z"/>
    <path class="cls-15" d="M.5495.5741l-.0013-.0034h-.0003c-.0019.0033-.0054.0056-.0099.0064-.0077.0014-.013-.0031-.014-.0085-.0017-.0091.0056-.0151.0195-.0177v-.0003c-.0004-.0016-.0017-.0043-.0078-.0031-.0038.0007-.0078.0029-.0099.0048l-.0034-.0068c.0023-.002.007-.0047.0139-.006.012-.0022.0176.0036.0192.0122l.0022.0119c.0007.0035.0015.0068.0022.0085l-.0103.0019h-.0001ZM.5451.558c-.0066.0012-.0108.0035-.01.0074.0005.0026.0026.0037.0054.0031.003-.0006.0051-.0031.0054-.0055,0-.0006,0-.0014-.0002-.002l-.0006-.0031h0Z"/>
    <path class="cls-15" d="M.5646.5469c-.0012-.0045-.0023-.0081-.0033-.0111l.0094-.0025.0017.0047h.0003c.0008-.0025.003-.007.0096-.0087.0047-.0012.0091.0002.0117.0036h.0001c.0009-.0024.0021-.0043.0036-.0057.0017-.0018.0038-.003.0066-.0037.0067-.0018.0137.0013.0166.0122l.0052.0197-.0108.0029-.0048-.0181c-.0014-.0053-.0042-.0076-.0078-.0066-.0028.0007-.0041.0031-.0044.0054,0,.0009.0001.0021.0003.0029l.0052.0195-.0108.0029-.0049-.0185c-.0013-.0049-.004-.0072-.0076-.0063-.0032.0008-.0042.0038-.0044.0056-.0001.001,0,.002.0003.0029l.0052.0194-.0108.0029-.0062-.0232v-.0002Z"/>
    <path class="cls-15" d="M.658.5441l-.0019-.0031h-.0002c-.0013.0036-.0045.0064-.0088.0079-.0074.0027-.0133-.001-.0152-.0061-.0031-.0087.0032-.0158.0164-.0205v-.0003c-.0007-.0015-.0024-.004-.0082-.0019-.0037.0013-.0073.0041-.0091.0063l-.0045-.0061c.002-.0023.0062-.0058.0127-.0081.0115-.0041.0179.0008.0209.009l.0041.0114c.0012.0034.0025.0064.0035.0081l-.0098.0035h.0001ZM.6511.5288c-.0063.0022-.0101.0052-.0087.0089.0009.0025.0031.0032.0058.0022.0029-.001.0045-.0039.0045-.0063,0-.0006-.0003-.0013-.0005-.0019,0,0-.0011-.0029-.0011-.0029Z"/>
    <path class="cls-15" d="M.6687.5146c-.0024-.0052-.0039-.0082-.0054-.0108l.009-.0042.0033.0062h.0003c-.0007-.0061.0027-.0101.0061-.0117.0009-.0004.0014-.0006.0023-.0008l.0045.0097c-.0009.0002-.0019.0005-.0031.0011-.0043.002-.0058.0054-.005.0087.0002.0007.0005.0013.0008.002l.0076.0163-.0105.0049-.0099-.0213h0Z"/>
    <path class="cls-15" d="M.7319.4901c.0052.0112-.0006.0213-.0106.0259-.0099.0046-.021.0021-.0258-.0083-.0046-.01-.0008-.0205.0109-.0259.0106-.0049.0211-.0013.0255.0083ZM.7106.4635l-.0038.0142-.0073.0034.0013-.0131.0098-.0045ZM.7064.5024c.0025.0055.0072.0082.0119.0061.0043-.002.0058-.0068.0029-.013-.0022-.0049-.0066-.0085-.0117-.0061-.0053.0025-.0054.0082-.0031.0131h0Z"/>
    <path class="cls-15" d="M.7373.4818c-.0016-.0043-.003-.0079-.0042-.0108l.0095-.0034.0023.0047h.0002c.0005-.0025.0027-.0075.009-.0098.007-.0025.0146-.0003.0184.0103l.0069.0193-.0109.0039-.0064-.0177c-.0017-.0048-.0047-.0072-.0088-.0057-.0033.0012-.0043.0042-.0044.0064,0,.0007.0002.0017.0005.0025l.0068.019-.0109.0039-.0081-.0226h0Z"/>
  </g>
</svg>