<?xml version="1.0" encoding="UTF-8"?>
<svg id="Layer_1" data-name="Layer 1" xmlns="http://www.w3.org/2000/svg" version="1.1" viewBox="0 0 1 1">
  <defs>
    <style>
      .cls-1 {
        fill: #b2cbd1;
      }

      .cls-1, .cls-2, .cls-3, .cls-4, .cls-5 {
        stroke-width: 0px;
      }

      .cls-2 {
        fill: #000;
      }

      .cls-3 {
        fill: #41585e;
      }

      .cls-4 {
        fill: #d6e3e5;
      }

      .cls-5 {
        fill: #d0e6ea;
      }
    </style>
  </defs>
  <g>
    <path class="cls-1" d="M.0523.4267l.0855.4813s.0225.0787.1192.0832.4768,0,.4768,0c0,0,.1147-.0112.1305-.0945s.072-.4746.072-.4746l-.8839.0045Z"/>
    <path class="cls-2" d="M.0535.4276c.0006-.0006.097.4821.0964.477.0353.1026.1699.0703.2684.0778.0949-.0147.4015.0562.4356-.0793.0149-.1019.0529-.3775.0685-.4828-.2036.0543-.5882-.0059-.8689.0074H.0535ZM.0512.4257c.2814.0088.6413-.0519.899-.0015-.0179.1072-.0602.3805-.0802.4835-.0444.1436-.3465.0745-.4521.0923-.0916-.0078-.2399.0437-.2921-.0885-.0016-.0011-.0734-.4846-.0746-.4859H.0512Z"/>
  </g>
  <g>
    <path class="cls-1" d="M.924.4764s-.0628,0-.0568.0523.0374.0314.0374.0314l.0194-.0837Z"/>
    <path class="cls-2" d="M.9236.4767c-.0555-.0102-.0766.0935-.0216.0796-.0024-.0143.0135-.0516.0216-.0796h0ZM.9244.4761c-.0051.0255-.0037.0634-.0194.0889-.0705.006-.0408-.1108.0194-.0889h0Z"/>
  </g>
  <g>
    <path class="cls-1" d="M.0797.5496s.0576-.0157.0361-.0638-.057-.0154-.057-.0154l.0209.0792Z"/>
    <path class="cls-2" d="M.08.5492c.0626-.0085.0335-.1199-.018-.0754.01.0036.0112.0504.018.0754H.08ZM.0795.5501c-.0067-.0248-.0255-.0557-.0237-.0831.0641-.0501.0979.0869.0237.0831H.0795Z"/>
  </g>
  <g>
    <ellipse class="cls-3" cx=".501" cy=".4267" rx=".4487" ry=".0607"/>
    <path class="cls-2" d="M.9513.4267c-.2794.1096-.6242.1002-.9079,0,.2791-.1178.6293-.105.9079,0h0ZM.9483.4267c-.2594-.077-.6284-.0621-.8869,0,.2546.0802.6283.072.8869,0h0Z"/>
  </g>
  <g>
    <ellipse class="cls-1" cx=".5033" cy=".3074" rx=".0607" ry=".4487" transform="translate(.1393 .7715) rotate(-83.3153)"/>
    <path class="cls-2" d="M.9504.3599c-.2903.0763-.6316.0269-.9018-.1056.2909-.0845.6372-.0311.9018.1056h0ZM.9475.3595c-.2487-.1067-.6169-.1348-.8809-.1033.2435.1093.6157.1446.8809.1033h0Z"/>
  </g>
  <polygon class="cls-4" points=".6999 .3748 .5074 .2959 .2815 .2478 .3801 .2403 .5109 .2959 .8313 .3688 .6999 .3748"/>
  <g>
    <path class="cls-1" d="M.3919.2715s.0067-.1215.1282-.108c0,0,.1057-.0067.1012.1192,0,0-.0292.0135-.0427,0,0,0-.0067-.081-.063-.0855,0,0-.0765.0045-.0855.0787,0,0-.018.0225-.0382-.0045Z"/>
    <path class="cls-2" d="M.3905.2719c-.0097-.1696.254-.151.2407.0111-.0033.016-.0405.0246-.0614.0088-.0178-.1129-.1065-.0924-.1336-.0152-.0099.0204-.0404.012-.0457-.0047H.3905ZM.3934.271c.0121.019.0339.0017.0308.0041.0179-.1452.1791-.0917.1635-.0014,0,0,.0181.0046.0296,0l-.0057.0085c.0294-.1463-.206-.1432-.2182-.0112H.3934Z"/>
  </g>
  <g>
    <path class="cls-5" d="M.0905.5099S.0298.0555.4842.0375C.4842.0375.952.0083.898.5279c0,0,.0112.0112.0202.0022C.9183.5301.9992.0105.4864.0263.4864.0263.0681-.0164.0703.5054c0,0,.0112.0112.0202.0045Z"/>
    <path class="cls-2" d="M.0901.5097C.0018-.1332,1.012-.1111.9007.5281c.0568-.0472-.0047-.2914-.07-.3639-.1549-.1832-.5066-.1859-.6621.0008-.0555.0751-.1378.2832-.0785.3447H.0901ZM.091.5101C-.0603-.1192,1.037-.1762.9211.5305c-.0055.0104-.0229.0056-.0258-.003C1.011-.1041.0085-.1207.091.5101H.091Z"/>
  </g>
  <polygon class="cls-4" points=".7216 .4938 .6767 .9899 .7267 .9815 .7686 .4794 .7216 .4938"/>
</svg>