<?xml version="1.0" encoding="UTF-8"?>
<svg id="Layer_1" data-name="Layer 1" xmlns="http://www.w3.org/2000/svg" version="1.1" viewBox="0 0 1.1 1">
  <defs>
    <style>
      .cls-1 {
        fill: #547212;
      }

      .cls-1, .cls-2, .cls-3, .cls-4 {
        stroke-width: 0px;
      }

      .cls-2 {
        fill: #000;
      }

      .cls-3 {
        fill: #648912;
      }

      .cls-4 {
        fill: #e5e5e5;
      }
    </style>
  </defs>
  <g>
    <path class="cls-1" d="M.1586.0248s-.0666.1648-.0761.2599L.0223.9281s.1648.1078.4533.0317c-.0032-.0063.0792-.3677.0792-.3677l.0697.3772s.2282.0602.4501-.0444l-.0475-.561s-.0349-.2314-.0761-.3487L.1586.0248Z"/>
    <path class="cls-2" d="M.1594.026C.046.2948.0831.6814.0294.9175c.1222.0864.3344.0464.439.0458,0,0,.0817-.3721.0817-.3721l.005-.0227.0045.0228.0736.3763c.1092.0093.3089.0174.4357-.0548-.0159.0677-.0421-.4574-.0472-.4446.0097-.1372-.0941-.3529-.0706-.4392,0,0-.7916-.003-.7916-.003H.1594ZM.1577.0236C.1725.0265.9485-.0009.9621.0012c.069.2646.1255.6696.1181.9359-.1418.0609-.3238.0846-.4644.0337.0066-.0015-.083-.3956-.0564-.3775,0,0-.0767.3628-.0767.3628-.1284.0664-.3272.0522-.4674-.0172C.0368.6441.0466.3133.1577.0236H.1577Z"/>
  </g>
  <g>
    <polygon class="cls-3" points=".0062 .8764 .1484 .8584 .2432 .4182 .0445 .4002 .0062 .8764"/>
    <path class="cls-2" d="M.0072.8753l.1398-.027c-.002-.0835.0697-.3441.0952-.4216,0,0-.1989-.0129-.1989-.0129.0407.0735-.0326.3162-.0362.4615H.0072ZM.0051.8775c.006-.1557.0082-.3256.0272-.4926,0,0,.0135.0016.0135.0016l.198.0232.0105.0012c-.0473.1492-.0549.307-.0982.4571,0,0-.0066.0004-.0066.0004l-.1444.0091H.0051Z"/>
  </g>
  <path class="cls-2" d="M.0298.5571l.1405-.0158c-.0249.0181.0676-.1437.0721-.117-.0404-.0145-.2184.0081-.1843-.0227-.0003.0484-.0159.096-.0284.1555H.0298ZM.0276.5592c-.0025-.049-.0072-.1147.0056-.1737.0738.0045.1459.0253.2199.0269-.027.0492-.0416.1049-.0775.1491-.004,0-.1437-.0023-.148-.0024H.0276Z"/>
  <path class="cls-2" d="M.0807.3314c.1142-.0064.1511-.1195.1818-.2136.0117.0898-.0749.2373-.1818.2136H.0807Z"/>
  <path class="cls-2" d="M1.0061.3334c-.1117.0157-.1921-.1238-.1819-.2156.0296.097.0711.2047.1819.2156h0Z"/>
  <path class="cls-2" d="M.5546.6066c-.0172-.1845-.0377-.3894-.0468-.5863.0455-.001.0982-.01.1466-.0163,0,0-.0002.0084-.0002.0084-.0248.3539.0368.4735-.0998.5195.0081-.0164-.002.0767.0002.0748h0ZM.5547.6046l-.003-.0754c.0335-.034.092-.0364.0737-.0934-.002-.0897.0098-.3315.0148-.4241.0063.0179-.0951.0139-.1304.0147.0354.1673.0277.3793.0449.5781h0Z"/>
  <path class="cls-2" d="M.1251.1165c.0026-.0215.0125-.0749.0345-.0919,0,0,.792-.0217.792-.0217.0111-.0103.0383.0943.0434.0981.0223.0351-.8553.0048-.8699.0155H.1251ZM.1265.115l.859-.0204-.0091.0132c.002.0014-.0486-.1169-.0244-.0868,0,0-.7966.0099-.7966.0099l.0055-.0017c-.0069.0303-.014.0507-.0344.0858H.1265Z"/>
  <g>
    <polygon class="cls-3" points="1.0896 .8764 .9501 .8584 .8571 .4182 1.0519 .4002 1.0896 .8764"/>
    <path class="cls-2" d="M1.0906.8775l-.1417-.0092-.0066-.0004c-.0425-.1502-.0499-.3077-.0964-.457.0145-.0017.2043-.0242.2181-.0259.0187.167.0208.3367.0266.4925h0ZM1.0886.8753c-.0034-.1449-.0759-.388-.0355-.4616,0,0-.1951.0131-.1951.0131.0254.0777.0954.3378.0935.4217,0,0,.1371.0269.1371.0269h0Z"/>
  </g>
  <path class="cls-2" d="M1.0685.5592c-.0043,0-.1414.0022-.1453.0023-.0353-.0442-.0493-.0997-.0758-.1488.0726-.0021.1433-.0224.2157-.027.0126.059.0079.1245.0054.1736h0ZM1.0664.5571c-.0123-.0595-.0277-.1071-.028-.1556.0344.0302-.1409.0088-.1806.0226.0044-.0261.0957.1352.0708.1172,0,0,.1378.0157.1378.0157h0Z"/>
  <path class="cls-2" d="M1.02.8584c-.0189-.1049-.0475-.2129-.0423-.3161.0265.1024.0398.2159.0423.3161h0Z"/>
  <path class="cls-2" d="M.0841.8584c.0115-.1033.0151-.2188.0507-.3158-.0035.1064-.0231.215-.0507.3158H.0841Z"/>
  <g>
    <path class="cls-3" d="M.2815.1316c0-.0113.0203-.1174.0203-.1174.0068.0045.0406.0023.0406.0023l-.0226.1129-.0384.0023Z"/>
    <path class="cls-2" d="M.2808.1323c.0009-.0307.0014-.095.0232-.1213.0067-.0001.0413-.0023.0472-.0024,0,0-.0015.0094-.0015.0094-.0064.0397-.0096.0801-.026.1177-.0003.0002-.0413-.0034-.0429-.0034H.2808ZM.2822.1308c.0005.0015.0527-.0149.0317-.0028.0023-.0248.0111-.1217.0289-.1042.0011-.0014-.0594-.0049-.0373-.0088-.0034.0393-.0072.0705-.0234.1158H.2822Z"/>
  </g>
  <g>
    <path class="cls-3" d="M.8345.1225c0-.0113.0023-.1174.0023-.1174-.0075.0045-.0451.0023-.0451.0023v.1129l.0429.0023Z"/>
    <path class="cls-2" d="M.8338.1218c-.0088-.046-.005-.0779-.001-.1166.0235.006-.0426.0094-.0416.0117.0203-.023.0092.0798.0068.1033-.0229-.0153.0348.004.0359.0016h0ZM.8353.1233c-.0027-.0001-.0474.0037-.0487.0036-.0091-.0431-.0034-.0865-.0045-.1298.0113.0009.0477.0042.0592.0052.0008.0404.0051.0877-.006.121h0Z"/>
  </g>
  <g>
    <circle class="cls-4" cx=".575" cy=".0684" r=".0248"/>
    <path class="cls-2" d="M.6013.0684c.0045.092-.1175-.0121-.0314-.0414.0268-.0006.0372.0275.0314.0414h0ZM.5983.0684c-.018-.0441-.064.0225-.0229.014.0057.0044.0192-.0008.0229-.014h0Z"/>
  </g>
</svg>