<?xml version="1.0" encoding="UTF-8"?>
<svg id="Layer_1" data-name="Layer 1" xmlns="http://www.w3.org/2000/svg" version="1.1" viewBox="0 0 1 1">
  <defs>
    <style>
      .cls-1, .cls-2 {
        stroke: #000;
        stroke-miterlimit: 10;
        stroke-width: .0101px;
      }

      .cls-1, .cls-3 {
        fill: #ffd881;
      }

      .cls-2 {
        fill: #9b9895;
      }

      .cls-4 {
        fill: #2c9f00;
      }

      .cls-4, .cls-5, .cls-6, .cls-3 {
        stroke-width: 0px;
      }

      .cls-5 {
        fill: #000;
      }

      .cls-6 {
        fill: #f50;
      }
    </style>
  </defs>
  <path class="cls-2" d="M.4334.4852s.0015-.0483.0774-.1329c.0769-.0857.2037-.1545.2596-.1954.0344-.0251.0917-.0549.107-.0943.0051-.0131.0057-.0271-.0017-.041-.0041-.0077-.0103-.0115-.0178-.0124-.0095-.0011-.0212.0024-.0338.0087-.0501.025-.1149.0943-.1149.0943,0,0-.1421.1142-.1758.1493-.0573.0598-.0901.1067-.1079.1325s-.0258.0397-.0456.0456c0,0-.0842.0239-.1063.0733s-.1397.1103-.1495.1131c-.0057.0016-.0152.0068-.0168.0107-.0012.0029.002.0052.0142.0049,0,0,.0786-.011.1617-.0995,0,0,.0125-.017.017-.0152s0,.0143-.0063.0241-.0671.076-.1422.0983c0,0-.0134.0063-.0098.0125s.0206.0045.0384-.0045.0653-.0259.1368-.1028c0,0,.0089-.0089.0134-.0054s0,.0152-.0089.0259-.0742.0688-.1413.1019c0,0-.0161.0089-.0107.0152.0027.0031.0092.002.0165-.0008s.0156-.0073.0219-.0108c.0125-.0072.0966-.059.1252-.0992,0,0,.0161-.0179.0206-.008s-.0045.0206-.0125.0304-.0581.0626-.1332.0939c0,0-.0224.0098-.0134.0206.0034.004.0129.0036.0261-.0004.022-.0068.0544-.0238.0857-.0479.0501-.0384.1243-.0931.127-.1847Z"/>
  <path class="cls-1" d="M.3436.7351c.0031-.001.024-.0698-.0187-.1062s-.0927-.126-.1666-.0802-.0656.075-.0635.0968.0333.0646.0666.0843.0812.0302.0896.0146-.0625-.0156-.0958-.0521-.0479-.0677-.0292-.0687c0,0,.0035.0493.0375.0687.0364.0208.0885.0354.0885.0354,0,0,.0198.026-.0062.0854s0,.1801,0,.1801l.0156-.0021s-.026-.0875-.0125-.1354.0292-.0885.0302-.1125c0,0,.0115.05-.0083.1093s-.001.1031-.001.1031l.0156-.0021s-.0187-.0541-.0083-.076.0219-.0739.0229-.0771.0208.0833.0115.1416l.0167.0115s.0094-.0864-.0146-.1677l.0229-.025s.0385.1479.0146.2093l.0156.0042s.0219-.0521.0073-.1093-.0156-.0948-.0177-.1083-.0125-.0219-.0125-.0219Z"/>
  <path class="cls-5" d="M.2785.7433c.0142-.0432.001-.1013-.0494-.108-.038-.0184-.069-.0828-.112-.0584-.0036.0404.0828.104.1334.1267.0332.0069-.0142-.0423-.0434-.0396-.024-.0279-.0459-.0487-.0683-.0644.0195.0075.0586.0428.0718.0556.0196-.0064.097.0486.0393.0579-.0323-.0129-.0615-.0333-.0886-.0554-.0051-.0368-.0593-.0402-.047-.0827.0497-.0292.0798.0365.1179.0519.0528.0095.0663.0788.0461.1164H.2785Z"/>
  <path class="cls-5" d="M.2993.8007c-.0037-.0952.0599-.1144-.0436-.1578-.0094-.0495-.0411-.0654-.0933-.0683.0706-.0706.1004.0372.1444.0734-.0573-.0305-.0649-.1201-.1353-.0736.0415-.0142.0836.0236.0861.066.1088.0395.0528.0618.0417.1603H.2993Z"/>
  <g>
    <path class="cls-3" d="M.3134.7861s.0029-.0278.0108-.0542-.0049-.047-.0049-.0499.0331.0223.017.0791"/>
    <path class="cls-5" d="M.3129.7861c.0019-.0358.0154-.0694.0019-.1041.0399.0052.0316.0517.022.0793.004-.0277-.0063-.0565-.0131-.0793,0,.0348.0088.0741-.0108.1041H.3129Z"/>
  </g>
  <g>
    <path class="cls-4" d="M.2102.6863s-.0225-.0286.0107-.0393.0527.0197.0429.034-.0068.0128-.0209.0167l-.0328-.0113Z"/>
    <path class="cls-5" d="M.2099.6867c-.049-.0792.1282-.0351.0345.0157.0012.0025-.0343-.0155-.0345-.0157H.2099ZM.2105.6859c.022.0039.0418.015.0511-.0105.0099-.0433-.0809-.0309-.0511.0105H.2105Z"/>
  </g>
  <g>
    <path class="cls-6" d="M.176.5808s.0145-.0277.0297-.0242c.0009.0009.0314.0193.0197.025s-.019.0211-.0302.0185l-.0192-.0194Z"/>
    <path class="cls-5" d="M.1757.5809c.0062-.013.0129-.0303.0318-.0259.0057.0095.023.0085.0221.0278-.0248.0178-.0301.0367-.0539-.0019H.1757ZM.1764.5807c.0279.0247.0211.015.0482-.0026-.0132-.0235-.03-.0237-.0482.0026H.1764Z"/>
  </g>
</svg>