<?xml version="1.0" encoding="UTF-8"?>
<svg id="Layer_1" data-name="Layer 1" xmlns="http://www.w3.org/2000/svg" xmlns:xlink="http://www.w3.org/1999/xlink" version="1.1" viewBox="0 0 1 1">
  <defs>
    <style>
      .cls-1 {
        fill: #382628;
      }

      .cls-1, .cls-2, .cls-3, .cls-4, .cls-5, .cls-6, .cls-7, .cls-8, .cls-9, .cls-10, .cls-11, .cls-12, .cls-13, .cls-14, .cls-15, .cls-16, .cls-17, .cls-18, .cls-19, .cls-20, .cls-21, .cls-22, .cls-23 {
        stroke-width: 0px;
      }

      .cls-24 {
        stroke-width: .0008px;
      }

      .cls-24, .cls-25 {
        stroke: #000;
        stroke-miterlimit: 10;
      }

      .cls-24, .cls-19 {
        fill: #fff;
      }

      .cls-26 {
        clip-path: url(#clippath);
      }

      .cls-2 {
        fill: none;
      }

      .cls-3 {
        fill: #ec1e24;
      }

      .cls-4 {
        fill: url(#linear-gradient);
      }

      .cls-5 {
        fill: #e01f26;
      }

      .cls-6 {
        fill: #ffffe0;
      }

      .cls-27 {
        clip-path: url(#clippath-1);
      }

      .cls-7 {
        fill: #659740;
      }

      .cls-8, .cls-25 {
        fill: #000;
      }

      .cls-9 {
        fill: #f1ae4b;
      }

      .cls-25 {
        stroke-width: .0006px;
      }

      .cls-10 {
        fill: #802b31;
      }

      .cls-11 {
        fill: #fad940;
      }

      .cls-12 {
        fill: #e6d4c7;
      }

      .cls-13 {
        fill: #dbdbda;
      }

      .cls-14 {
        fill: url(#linear-gradient-4);
      }

      .cls-15 {
        fill: url(#linear-gradient-2);
      }

      .cls-16 {
        fill: url(#linear-gradient-3);
      }

      .cls-17 {
        fill: #fcf7f2;
      }

      .cls-18 {
        fill: #f7deca;
      }

      .cls-20 {
        fill: #f7ec48;
      }

      .cls-21 {
        fill: #170a0d;
      }

      .cls-22 {
        fill: #231f20;
      }

      .cls-23 {
        fill: #ef4f41;
      }
    </style>
    <linearGradient id="linear-gradient" x1=".2373" y1="487.4037" x2=".7025" y2="488.0294" gradientTransform="translate(0 -487.2609)" gradientUnits="userSpaceOnUse">
      <stop offset=".0228" stop-color="#d3b86f"/>
      <stop offset=".1422" stop-color="#fffff3"/>
      <stop offset=".2412" stop-color="#fffff3"/>
      <stop offset=".3838" stop-color="#d3b86f"/>
      <stop offset=".56" stop-color="#d3b86f"/>
      <stop offset=".7329" stop-color="#ffffe2"/>
      <stop offset=".8908" stop-color="#d3b86f"/>
      <stop offset="1" stop-color="#998351"/>
    </linearGradient>
    <linearGradient id="linear-gradient-2" x1=".2532" y1="487.377" x2=".7524" y2="488.144" gradientTransform="translate(0 -487.2609)" gradientUnits="userSpaceOnUse">
      <stop offset=".0072" stop-color="#877139"/>
      <stop offset=".1728" stop-color="#ffb"/>
      <stop offset=".3571" stop-color="#c9a753"/>
      <stop offset=".5119" stop-color="#745c31"/>
      <stop offset=".6595" stop-color="#c9a753"/>
      <stop offset=".7826" stop-color="#c9a753"/>
      <stop offset=".932" stop-color="#756435"/>
      <stop offset="1" stop-color="#492a24"/>
    </linearGradient>
    <clipPath id="clippath">
      <path class="cls-2" d="M.105.3194s.0445.0903.0544.1637l.0325.2427s.0353.0663.3133.0663c0,0,.2921.0056.3105-.0677l.048-.2583s.0278-.1214.0506-.1468H.105Z"/>
    </clipPath>
    <linearGradient id="linear-gradient-3" x1="-17.3516" y1="17.5718" x2="-17.2652" y2="17.7494" gradientTransform="translate(14.8441 -19.411) rotate(-8.357)" gradientUnits="userSpaceOnUse">
      <stop offset="0" stop-color="#4e2822"/>
      <stop offset=".068" stop-color="#78632c"/>
      <stop offset=".2174" stop-color="#d1a642"/>
      <stop offset=".3405" stop-color="#d1a642"/>
      <stop offset=".4881" stop-color="#795c28"/>
      <stop offset=".6429" stop-color="#d1a642"/>
      <stop offset=".8272" stop-color="#fbf5b5"/>
      <stop offset=".9928" stop-color="#8b702e"/>
    </linearGradient>
    <linearGradient id="linear-gradient-4" x1=".2465" y1=".5191" x2=".2966" y2=".5926" gradientTransform="matrix(1,0,0,1,0,0)" xlink:href="#linear-gradient-3"/>
    <clipPath id="clippath-1">
      <ellipse class="cls-2" cx=".5112" cy=".3257" rx=".4046" ry=".0573"/>
    </clipPath>
  </defs>
  <g>
    <path class="cls-4" d="M.5042.0151C.2354.0151.0175.233.0175.5018s.2179.4868.4867.4868.4868-.2179.4868-.4868S.7731.0151.5042.0151Z"/>
    <circle class="cls-15" cx=".5042" cy=".5018" r=".4669"/>
  </g>
  <g>
    <path class="cls-21" d="M.105.3194s.0445.0903.0544.1637l.0325.2427s.0353.0663.3133.0663c0,0,.2921.0056.3105-.0677l.048-.2583s.0278-.1214.0506-.1468H.105Z"/>
    <g class="cls-26">
      <ellipse class="cls-10" cx=".5034" cy=".6386" rx=".2761" ry=".2428"/>
      <ellipse class="cls-5" cx=".5034" cy=".6386" rx=".2263" ry=".2105"/>
    </g>
    <path class="cls-7" d="M.7115.7221c.0112.0093.0491,0,.0491,0-.0012-.0151-.0255-.0182-.0255-.0182.0043-.0066.0012-.0159.0012-.0159l-.0052.0035c.0049-.0134-.0092-.0263-.0092-.0263-.0079.0098-.0049.0287-.0049.0287"/>
    <path class="cls-12" d="M.6492.7135s-.0067-.0159.0098-.0342.0208-.0165.0299-.0159.0226.0006.0257.0171c0,0,.0153.0134.0037.0367l-.069-.0037Z"/>
    <g>
      <path class="cls-23" d="M.5627.6664s.0208-.0334.0595-.0216.0446.0706.0446.0706h-.052l-.052-.0491Z"/>
      <path class="cls-7" d="M.625.6723s.0237,0,.0338-.0136c0,0-.0091.0217-.0272.0262,0,0,.0181.0192.0207.0227,0,0-.0257-.0146-.0292-.0192,0,0-.0151.0252-.0222.0262,0,0,.0136-.0237.0126-.0338,0,0-.0216-.0131-.0403-.0116,0,0,.0262-.0091.0418.005l-.0055-.0146s.0035-.006.0086-.0035.0071.0161.0071.0161Z"/>
    </g>
    <g>
      <path class="cls-7" d="M.2551.6702s-.0098-.0128-.0147-.0153c0,0-.0049.0214.0085.0411,0,0-.0079.0005-.0104.009,0,0,.0061.0079.0299.0092l-.0134-.044Z"/>
      <path class="cls-23" d="M.3498.6702s-.0331-.0524-.0707-.0369c-.0582.0241-.0124.0858-.0124.0858l.0715.0055.0116-.0544Z"/>
      <path class="cls-7" d="M.2764.6607s-.0238,0-.0339-.0136c0,0,.0091.0217.0274.0262,0,0-.0182.0192-.0208.0227,0,0,.0258-.0146.0294-.0192,0,0,.0152.0252.0223.0262,0,0-.0137-.0237-.0127-.0338,0,0,.0217-.0131.0405-.0116,0,0-.0263-.0091-.042.005l.0056-.0146s-.0035-.006-.0086-.0035-.0071.0161-.0071.0161Z"/>
      <path class="cls-12" d="M.4231.6909s.0112-.0264-.0175-.0386c-.0152-.0146-.0346-.0101-.0469-.0071s-.0306.0064-.0314.0256c0,0-.018.0188.0026.0417l.0932-.0216Z"/>
    </g>
    <path class="cls-18" d="M.2906.7221s-.025-.0177-.0477-.0079c0,0-.0086.0232.0171.0348s.0458.0153.0458.0153l-.0153-.0422Z"/>
    <g>
      <g>
        <polygon class="cls-3" points=".6629 .6572 .7064 .5547 .7449 .6499 .6668 .6626 .6629 .6572"/>
        <path class="cls-22" d="M.7043.5567c.0206,0,.0374.0187.0374.0418,0,.0108-.0036.0206-.0096.028l.0084-.0011s.0002,0,.0003,0c.0011,0,.0021.0009.0021.002l.0007.0226c0,.0011-.0008.002-.0018.0021l-.0746.0087s-.0002,0-.0002,0c-.0011,0-.0021-.0009-.0021-.0021v-.0218c0-.0011.0008-.0019.0018-.0021l.0165-.0021c-.0097-.0076-.0161-.0201-.0161-.0343,0-.0231.0167-.0418.0374-.0418M.7043.5534c-.0224,0-.0406.0202-.0406.045,0,.0121.0044.0236.012.032l-.0097.0012-.0028.0004-.0018.0049v.0251l.0053.0021.0753-.0088.003-.0003.0017-.0051-.0007-.0226v-.0031s-.0053-.002-.0053-.002l-.0019.0002c.004-.0071.0062-.0154.0062-.0239,0-.0248-.0182-.045-.0406-.045h0Z"/>
      </g>
      <g>
        <polygon class="cls-3" points=".6634 .6587 .7044 .5556 .7444 .6499 .6668 .6621 .6634 .6587"/>
        <path class="cls-19" d="M.7043.5567c.0206,0,.0374.0187.0374.0418,0,.0108-.0036.0206-.0096.028l.0084-.0011s.0002,0,.0003,0c.0011,0,.0021.0009.0021.002l.0007.0226c0,.0011-.0008.002-.0018.0021l-.0746.0087s-.0002,0-.0002,0c-.0011,0-.0021-.0009-.0021-.0021v-.0218c0-.0011.0008-.0019.0018-.0021l.0165-.0021c-.0097-.0076-.0161-.0201-.0161-.0343,0-.0231.0167-.0418.0374-.0418M.7043.5551c-.0215,0-.039.0195-.039.0434,0,.0142.0062.0275.0167.0356l-.0157-.0008-.0032.0255v.0016l.0037.0021.0751-.0088.0015-.0002.0018-.0036-.0007-.0226v-.0016s-.0037-.002-.0037-.002l-.0088.0011c.0079-.0053.0114-.0156.0114-.0264,0-.0239-.0175-.0434-.039-.0434h0Z"/>
      </g>
      <polygon class="cls-19" points=".7326 .6134 .6767 .6191 .6711 .6142 .6711 .5861 .6754 .5813 .7313 .5756 .7369 .5805 .7369 .6085 .7326 .6134"/>
    </g>
    <g>
      <path class="cls-16" d="M.3457.5988c.0075.0275-.0035.0544-.0245.0602s-.0441-.0119-.0516-.0394c-.0008-.0029-.0014-.0058-.0018-.0087-.0006-.0046-.0004-.0135-.0004-.0135,0,0,.0343-.0393.0381-.0389.0174.0018.034.0178.0402.0403Z"/>
      <path class="cls-14" d="M.2675.5973s.0344-.0012.0381-.0389l-.0381.0389Z"/>
    </g>
    <ellipse class="cls-13" cx=".5129" cy=".741" rx=".2299" ry=".0599"/>
    <ellipse class="cls-17" cx=".5098" cy=".7324" rx=".2299" ry=".0544"/>
    <g id="YQYiUM">
      <g>
        <g>
          <polygon class="cls-19" points=".5605 .5516 .5521 .563 .5605 .5516 .5605 .5516"/>
          <polygon class="cls-19" points=".4721 .5834 .4714 .5835 .4714 .5835 .4721 .5834"/>
          <path class="cls-8" d="M.5296.5835s-.0006.0008-.0009.0012c.0003-.0004.0006-.0008.0009-.0012Z"/>
          <path class="cls-8" d="M.5283.5852s-.0005.0007-.0007.0011c.0002-.0003.0005-.0007.0007-.0011Z"/>
          <path class="cls-8" d="M.5305.5822s-.0006.0008-.0009.0013c.0003-.0004.0006-.0008.0009-.0013Z"/>
          <path class="cls-8" d="M.4712.5826s.0001.0004.0002.0006c0-.0002-.0001-.0004-.0002-.0006Z"/>
          <path class="cls-8" d="M.5305.5822c.0083-.0109.0252-.0286.0299-.0306h0c-.0047.002-.0216.0197-.0299.0306Z"/>
          <polygon class="cls-8" points=".4714 .5835 .4714 .5832 .4714 .5835 .4714 .5835"/>
        </g>
        <path class="cls-19" d="M.6631.5551c-.0005-.0003-.0016-.0005-.0021-.0002-.0008.0004-.0013.0012-.002.0019-.0065.0072-.0129.0144-.0196.0215-.0021.0022-.0049.0039-.0075.0058-.0004-.0003-.0007-.0005-.0011-.0008.0009-.0016.0019-.0032.0026-.0048.0016-.0034.0035-.0068.0045-.0104.0012-.0043-.0022-.0078-.0067-.0083-.0069.0093-.015.0172-.0248.0239-.0001-.0018,0-.0035.001-.0047.0042-.0053.0083-.0106.0132-.0154.0053-.0052.0109-.0103.0191-.012.0004,0,.0009-.0015.0007-.0021-.0019-.0061-.0065-.0103-.0144-.0067-.0019.0009-.0039.0019-.0056.003-.0083.0054-.0152.012-.0206.0197-.0045.0064-.0102.0115-.0165.0164-.0015.0012-.0033.002-.005.003-.0003-.0002-.0007-.0005-.001-.0007.0013-.0023.0025-.0046.004-.0068.0052-.0075.0105-.015.0158-.0224.0024-.0033.0021-.0067.0005-.0101-.0019-.004-.0044-.0046-.0082-.002-.0026.0018-.0051.0037-.0076.0057-.0024.0019-.0046.0038-.0077.0063.0019-.0047.0011-.0082-.0015-.0114-.0021-.0026-.0042-.0029-.007-.001-.003.002-.0058.0042-.0085.0065-.0037.0033-.007.0068-.0105.0102-.0003-.0002-.0005-.0005-.0008-.0007.0037-.0098.0015-.0177-.0049-.0183-.0012.003-.0017.0063-.0037.0088-.0065.0084-.0133.0166-.0204.0246-.0031.0035-.0072.0064-.011.0093-.0008.0006-.0027.0009-.0035.0005-.0008-.0004-.0011-.002-.0009-.003.0001-.0012.0008-.0025.0014-.0036.0021-.0033.0043-.0066.0065-.0099.0024-.0037.0049-.0072.007-.011.0023-.0043.0006-.0106-.0031-.013-.0027-.0018-.0044-.0012-.0052.0017-.0004.0013-.0008.0027-.0015.0039-.0049.0093-.0124.0169-.0201.0243-.0039.0037-.0083.007-.0125.0104-.0004.0004-.0012.0004-.0019.0005-.0002,0-.0005,0-.0007,0h0s0-.0002,0-.0003c0-.0002-.0001-.0004-.0002-.0006-.0001-.0005-.0003-.001-.0001-.0015.0009-.0025.0018-.0051.0032-.0074.0078-.0124.0163-.0245.0234-.0373.0036-.0065.0081-.0086.0156-.0074.0022.0004.0032.0007.0037.003.0006.0023.0023.0045.004.0065.0012.0013.0029.0009.0041-.0007.0027-.0034.0055-.0068.0083-.0102.0013-.0016.0016-.0032.0002-.0049-.0043-.005-.011-.005-.0152,0-.0002.0002-.0005.0004-.0005.0004-.0038-.0003-.0073-.0005-.011-.0008.001-.0025.0021-.0046.0028-.0069.0014-.0048-.002-.0108-.0069-.0125-.0016-.0005-.0026-.0007-.0034.0013-.0024.0057-.0051.0113-.0079.0168-.0005.0009-.0021.002-.0032.002-.0045,0-.009-.0005-.0136-.0007.0011-.0024.0021-.0044.0028-.0064.0017-.0049-.0015-.011-.0065-.0129-.0014-.0005-.0027-.0011-.0036.001-.0025.0058-.0053.0116-.0081.0174-.0003.0007-.0013.0015-.0021.0016-.0042.0004-.0084.0005-.0129.0007,0-.0044.0003-.0084,0-.0124-.0009-.0088-.0075-.015-.0171-.0155-.0047-.0002-.0096.0006-.0142.0019-.009.0026-.016.008-.0222.0143-.0057-.0041-.0114-.0041-.0178.0002-.0064.0043-.0114.0098-.0157.0158-.0093.013-.0144.0269-.0111.0425.0025.0116.0107.0193.0229.0211.0098.0014.0187-.0012.0268-.0059.0199-.0116.0332-.028.0429-.0471.0014-.0028.0017-.0067.004-.0082.0023-.0015.0065-.0005.0099-.0006.0003,0,.0006.0001.0013.0002-.0008.0013-.0015.0025-.0022.0037-.0054.0088-.011.0175-.0162.0264-.0031.0053-.0059.0108-.0078.0165-.0013.004-.0004.0084.0039.0111.0043.0027.0085.0012.012-.0015.0046-.0036.009-.0075.0134-.0113.0013-.0012.0025-.0025.0038-.0037,0,.0018-.0007.0033-.0011.0048-.0012.0043.0007.0098.004.0118.0034.0021.0076.0017.0124-.0017.0037-.0026.007-.0056.0104-.0086.0017-.0014.0031-.003.0042-.0041.0008.0038.001.0076.0025.0111.0018.0043.0067.0056.0112.0034.0026-.0012.005-.0029.0072-.0046.0026-.002.0048-.0044.0077-.0071-.0009.0069.0022.0123.0068.0127.0003-.0007.0008-.0016.0015-.0026.0002-.0003.0005-.0007.0007-.0011.0001-.0002.0003-.0004.0004-.0006.0003-.0004.0006-.0008.0009-.0012.0003-.0004.0006-.0008.0009-.0013.0083-.0109.0252-.0286.0299-.0306h0s0,0,0,0c-.0028.0038-.0058.0075-.0084.0114-.0004.0006-.0007.0011-.0011.0017-.0024.0038-.0045.0079-.0059.0121-.0014.0042.0018.0102.0054.0121.0029-.0048.0053-.0099.0087-.0145.0035-.0046.0076-.0089.0119-.0129.0042-.0038.009-.007.0135-.0105-.0042.0069-.0087.0133-.0129.0198-.0027.0042-.0029.0088-.0012.0134.0017.0046.0054.0061.0103.0039.0021-.0009.004-.0021.0058-.0034.0027-.002.0051-.0041.0078-.0063.0007.0049.0031.0086.0081.0102.0046.0015.0069-.0022.0097-.0043.0028-.0021.0053-.0046.008-.007,0,.0004.0002.0007.0001.001-.0012.0046.0015.0076.0053.0099.0037.0022.0069,0,.0099-.0019.0004-.0002.0007-.0005.001-.0007.0105-.008.0184-.0179.0264-.0278.0003-.0003.0005-.0007.0005-.0011,0-.0005,0-.0014-.0003-.0016ZM.3937.5809c-.0048.0029-.01.0049-.0158.0054-.0068.0007-.0112-.0012-.0141-.0068-.0042-.0083-.0045-.017-.0009-.0255.0049-.0116.014-.0202.0248-.0285.004.0171.0127.0285.0354.0231-.0078.013-.0162.0244-.0293.0324ZM.4334.5225c-.0028-.0014-.0055-.0027-.0083-.004-.0013.0042.0007.0069.0074.0105-.0016.0037-.0031.0075-.0048.0113-.0001.0003-.0004.0007-.0008.0009-.0055.0026-.0113.0046-.0176.0028-.0057-.0016-.0079-.006-.0094-.0109-.0029-.0098.0073-.0192.0168-.0216.0016-.0004.0032-.0006.0048-.0008.0091-.0011.0133.003.0117.0117ZM.4402.5841l-.0015-.0006c.0004-.0018.0005-.0038.0014-.0054.0038-.0069.0077-.0137.0118-.0204.0056-.009.0116-.0178.0174-.0268.0008-.0012.0014-.0017.0033-.0015.0043.0005.0087.0005.0133.0008-.0116.0208-.0247.0401-.0457.0539Z"/>
      </g>
    </g>
    <g>
      <path class="cls-19" d="M.4747.4837c-.0047.001-.0049.0008-.0052-.0052,0-.0019-.0003-.0038-.0011-.0058-.0004.002-.0006.0041-.0013.0059-.0008.0019-.0022.0036-.0033.0053-.001-.0017-.0023-.0033-.003-.0051-.0008-.0019-.001-.0041-.0021-.0061,0,.0028,0,.0056,0,.0085-.0001.0081-.0046.0149-.0114.0172-.0068.0023-.0143-.0007-.0182-.0073-.0038-.0063-.0034-.015.0009-.0211.0044-.0062.0122-.0084.0188-.0055.0026.0012.0027.0013.0025.0052-.004-.0022-.0079-.004-.0124-.0023-.0072.0027-.0111.0109-.0086.0185.0027.0082.0107.0119.0179.0084.0069-.0034.0094-.0119.0065-.0196-.0012-.0032-.0014-.0071-.0013-.0107,0-.0016.0022-.004.0036-.0042.0014-.0002.0036.0015.0045.003.0012.002.0015.0047.0025.0083.0009-.0032.0015-.0053.002-.0074.0007-.0027.0021-.0044.0047-.004.0027.0004.0039.0025.004.0055,0,.0061,0,.0123,0,.0186Z"/>
      <path class="cls-19" d="M.5231.4701c-.0002.0022-.0011.0049-.0003.0064.0009.0016.0035.0029.0052.0028.0025,0,.0038-.0025.0038-.0055,0-.0037-.0003-.0075.0001-.0111.0002-.0015.0017-.0028.0026-.0042.001.0011.0025.0021.0027.0034.0004.0023.0014.0024.003.0025.0042.0002.0053.0015.0054.0063,0,.0033.0003.0066-.0001.0099-.0002.0015-.0017.0028-.0025.0042-.0008-.0014-.0023-.0027-.0024-.0041-.0004-.0034-.0001-.0068-.0001-.0102-.0033-.0014-.003.0009-.0031.003-.0001.0061-.0031.0103-.0084.0118-.0065.0018-.0132-.0048-.0125-.0123.0005-.0055.0054-.0097.0101-.0086.001.0002.0024.0007.0028.0016.0007.0017.0012.0038.001.0057-.0001.001-.002.0026-.0029.0024-.0013-.0003-.0024-.0019-.0035-.0029l-.001-.0009Z"/>
      <path class="cls-19" d="M.5013.468c-.0015.0006-.0026.001-.0039.0015,0,.0036.0002.0072-.0001.0107-.0001.0013-.0014.0033-.0024.0036-.0022.0005-.0028-.0014-.0028-.0036,0-.0036-.0001-.0072,0-.0107.0002-.0052.0041-.0076.0082-.0052.0005.0003.0013.0002.0019,0,.003-.0015.0045-.0005.0045.0034,0,.0027,0,.0055,0,.0082,0,.0008.0009.0016.0014.0024.0005-.0008.0015-.0015.0015-.0023.0002-.003-.0001-.0061.0002-.009.0001-.0012.0015-.0022.0023-.0034.001.0011.0028.002.003.0032.0004.0037.0004.0074,0,.0111-.0003.0041-.0036.0066-.0076.0064-.0037-.0002-.0063-.0031-.0064-.0074,0-.0029,0-.0057,0-.0089Z"/>
      <path class="cls-19" d="M.6674.4771c.0002.0018.0004.0036.0006.0054h-.0005s-.0002-.0009-.0003-.0009c-.0045.0004-.0091-.0038-.0134.0006-.0007.0007-.0026.0013-.0029.0009-.002-.0025-.0043-.0007-.0064-.0006-.0043.0002-.0087.0009-.013.0016-.003.0005-.0061.0007-.0089.0019-.0057.0022-.0111.0007-.0167,0-.0037-.0005-.0076,0-.0114-.0002-.0017,0-.0034-.0004-.0057-.0006.0009-.0008.0012-.0013.0016-.0013.0027-.0004.0053-.0009.008-.0009.0045-.0002.0091,0,.0136,0,.0046,0,.0092.0002.0138-.0004.0066-.0008.0131-.0023.0196-.0035.0032-.0006.0064-.0014.0096-.0016.004-.0003.008,0,.0125,0Z"/>
      <path class="cls-19" d="M.4135.4779c-.0053.0022-.0105.0053-.0159.0065-.0051.0011-.0105.0001-.0158,0-.0007,0-.0014-.0002-.0021,0-.0057.0006-.0114.0024-.0169.0017-.0056-.0008-.011,0-.0164-.0003-.0021-.0002-.0042-.0011-.007-.0018-.0002-.0011-.0005-.003-.0009-.0049l.0006-.0002s.0003.0013.0003.0013c.0044-.0005.0088.0042.0133.0001.0006-.0005.0021-.0005.0027,0,.0028.0021.0056.0016.0085.0008.0008-.0002.0018-.0003.0025,0,.0069.0029.0137.001.0205-.0008.0009-.0002.002-.0003.0029,0,.0067.002.0129.0006.0191-.0024.0013-.0006.0027-.0008.0041-.0012l.0003.0013Z"/>
      <path class="cls-19" d="M.4319.4805c.0002-.0067.0054-.0122.0112-.0119.0062.0003.0108.006.0106.0131-.0002.0069-.005.0119-.0112.0117-.0063-.0001-.0108-.0056-.0106-.0129ZM.4473.4759h-.0108c-.0026.0041-.0024.0084.0009.0119.003.0031.0076.0032.0106,0,.0032-.0032.0037-.0082.0012-.0119-.001-.0014-.0024-.0023-.0036-.0035l-.0004.0006c.0005.0007.001.0014.0021.0028Z"/>
      <path class="cls-19" d="M.5673.4705c0,.0036.0002.0071-.0001.0107-.0001.0012-.0014.0023-.0022.0035-.001-.0011-.0028-.0021-.0028-.0033-.0003-.0046-.0002-.0093,0-.014,0-.0009.001-.0025.0016-.0026.003-.0003.0061-.0006.009.0001.0013.0003.0028.003.0031.0047.0005.0038.0004.0077,0,.0115-.0001.0013-.0016.0025-.0024.0038-.001-.0012-.0026-.0022-.0028-.0035-.0004-.0029,0-.006-.0003-.009,0-.001-.0012-.0019-.0018-.0029-.0004.0003-.0008.0007-.0012.001Z"/>
      <polygon class="cls-19" points=".4843 .4691 .4815 .4698 .4779 .4676 .4807 .4645 .4857 .4644 .4893 .4667 .4885 .4823 .4817 .4844 .4767 .4781 .4807 .4719 .4846 .4706 .4843 .4691"/>
      <path class="cls-19" d="M.5546.4692c-.0009.0002-.0017.0005-.0026.0005-.0011,0-.0024,0-.0033-.0007-.0005-.0004-.0008-.0024-.0005-.0028.0008-.0009.0021-.0016.0033-.0018.0014-.0003.003-.0004.0043,0,.0014.0005.0037.0017.0037.0027.0002.0048.0005.0099-.0005.0145-.0007.0033-.0045.0043-.0071.003-.0021-.0011-.0041-.0038-.005-.0063-.001-.0029.0008-.0052.0035-.0062.0014-.0005.0029-.001.0044-.0014,0-.0005-.0002-.0009-.0002-.0014Z"/>
      <polygon class="cls-19" points=".5827 .4835 .5797 .4855 .5776 .483 .5799 .481 .5827 .4835"/>
    </g>
    <path class="cls-11" d="M.6901.7569c.0027-.0087.0232-.0165.0214-.0281s-.0073-.0208-.0147-.0189-.0177.0031-.022-.0043-.0079-.0006-.011.0037-.0043,0-.0073-.0055-.0049-.0049-.0104-.0024-.0141.0037-.0196-.0067-.0202-.0122-.0293-.0092-.0122-.011-.0196-.0202c-.0024-.0031-.0043-.0092-.0128-.0061s-.0177.0067-.0275-.0031-.0116.0018-.0116.0018c-.0006-.0214-.0153-.0183-.0202-.0177s-.0086.0177-.0128.0128-.0067-.0086-.0159-.0049-.0037.0122-.0061.0183-.0037.0079-.0098.0037-.0134.0006-.022.0049-.0049.0147-.0141.0122-.0293-.0012-.0318.0031-.0061.0098-.0165.0055-.0067.0018-.0122.0055-.0086.0012-.0189.0006-.0104.0055-.0156.0106-.0052.012-.0101.0144-.0079-.0012-.0159.0031,0,.0177,0,.0177c0,0,.0116.0159.0275.0214s.1093.0183.1741.0183c.0965,0,.1338-.011.1668-.0159,0,0,.0141-.0031.0177-.0147Z"/>
    <path class="cls-20" d="M.3382.738c.0023-.0036.0134.0006.0165-.0043s.0073-.0079.0128-.0073.0122.0037.0189.0092.011.0049.0171.0018.0232-.0134.0257-.0171.0141-.0006.0165.0037.0134.0043.0141-.0043.0055-.0122.0079-.0134.0134-.0024.0202.0067.0055-.0037.0073-.0055.0024-.0024.0049-.0024.0147-.0012.0269.0141.0086-.0061.0165-.0024.0147.0067.0196.011.0189.0092.025.0049.022-.0024.022.0073.0043.0116.0092.0086.0122-.0012.0122.0037v.0049h.0086c.0055-.0024.0183-.011.0238-.0024s.0183,0,.022-.0031.0098-.0141.0134-.011.0006.0098-.0049.0141-.0049.011-.0104.0134-.0923.0226-.1839.0196-.1711-.0159-.179-.0226-.0159-.0177-.0079-.0214l.0079-.0037s.0128.0049.0171-.0018Z"/>
    <path class="cls-9" d="M.3132.7435s-.0114-.0062-.002-.0108.0144.0004.0169-.0045.0033-.0144.0078-.0144.007-.0062.0091-.0074.0054.0004.0086.0008.0066.0086.0041.0099c-.0049-.0058-.0122-.0136-.0161.0008-.0041.0152-.0103.0222-.0115.023s-.0049.0012-.0049.0012c0,0,.0002-.0122-.012.0013Z"/>
    <path class="cls-9" d="M.3515.7265s-.0074,0-.0066-.0062.0078-.0045.0091-.0021l.0012.0025s.0082.0021.0095-.0029-.0029-.0103-.0029-.0103c0,0,.0062-.0021.0078-.0054s.0058-.0033.0095-.0008.0123.0107.0123.0152c0,0-.0099-.0123-.0165-.0099s-.0041.0095-.0041.0095c0,0,.0041-.0062.0082-.0037s.0054.014-.0012.0173c0,0,.0012-.014-.0054-.0095,0,0-.0156.0082-.021.0062Z"/>
    <path class="cls-9" d="M.3865.7355s.0046-.0078.0021-.0135c0,0,.0058.0033.0062.0078,0,0,.0111-.0091-.0054-.0276,0,0,.0058-.0033.0074-.007s.0226-.0021.0292-.0012c0,0,.0086-.0012.0115-.0074,0,0,.0111.0021.0082.0156,0,0,.0058-.0115-.0008-.0226,0,0,.0012-.0082.0123-.0049s.0136.0029.0156-.0008c0,0,.0033.0123-.007.0111s-.0132-.0033-.0132-.0033c0,0,.0025.0086.014.0091,0,0-.0078.0049-.014-.0004,0,0,.0041.0222-.0058.0251,0,0-.0078.0016-.0078-.0132s-.0058-.0041-.0058-.0041c0,0-.0082.0189-.0161.0107s-.0086-.0115-.0165-.0103c0,0-.0049.0029-.0016.0086s.0021-.0029.0054-.0029.0049.0029.0016.0062-.0033.0103-.0033.0115.0049,0,.007-.0054.0144-.0029.0058.0033-.0128.007-.0132.0128-.0037.0074-.0037.0074c0,0-.0116-.003-.0124-.0046Z"/>
    <path class="cls-9" d="M.4137.7315s.021-.0181.0218-.0243c0,0,.0033.0078.0025.0123,0,0-.0185.0041-.0243.0119Z"/>
    <path class="cls-9" d="M.4614.7113s-.0082-.0099-.0021-.0119.0103-.0008.0123-.0045.0136-.0152.0062-.0268c0,0-.0041-.0136.0033-.0156s.0037.0082.0111.0107.0119.0066.0136.0115.0025.0165.0136.014.0173-.0103.0263-.0021-.0054.0132.0161.0173.0247-.0021.028.007.0016.0152.0016.0152c0,0-.014.0049-.0173.0004s.0074-.0037.0099-.0049-.0054-.0148-.0132-.0103-.0037.0095-.0066.0095-.0041.0025-.0049-.0049-.0062-.0103-.0115-.0086-.0103.0066-.0132.0103-.0123-.0062-.0123-.0103.0078.0029.0103.0029.0045-.0033.0066-.007.0054-.0136-.0029-.0156-.0058.0066-.0185.0074-.0144-.0086-.0165-.0128-.0082-.0111-.0119-.0115c0,0,.0107.0152.0119.0284,0,0-.0078-.0189-.0148-.021,0,0-.0012.0144-.0086.0193s-.0144.0062-.0144.0062c0,0,.0226-.0004.0243-.0099s.0075.0138.0075.0138c0,0-.0071-.0023-.0075-.0056s-.007.0037-.0128.0041-.0107,0-.0136.0054Z"/>
    <path class="cls-9" d="M.5067.7059l-.0004-.0074s.0222.0021.0263-.0049.0045.007-.0004.0103c0,0-.0193-.0054-.0255.0021Z"/>
    <path class="cls-9" d="M.4989.6586s.007,0,.0111.0136.0123.0115.0173.0086.0189-.0041.0239.0008.0268.0119.0317.0049c0,0-.0066-.0251-.0156-.0218s-.0284.0029-.0358-.0045c0,0-.0099.014-.0111.0074s.0029-.0255-.0123-.0235c0,0-.0012.0136-.0091.0144Z"/>
    <path class="cls-9" d="M.5619.6985s.0292-.0082.035.0123c0,0,.0029.0107.0025.0132s.0074-.007.0111.0041-.0008.0148.0066.0132.0148-.0115.0177-.0021.0161.0111.0198.0029.0062-.0156,0-.0156-.0086.0119-.0123.0086-.0123-.007-.0198-.0029-.0049-.0185-.0148-.014-.0021-.0399-.0457-.0198Z"/>
    <path class="cls-9" d="M.6034.6948s.0054.0107.0045.0156.0066-.0045.0111.0074.0119.0095.0173.0074.014,0,.0144-.0062.0045-.0161-.0033-.0123-.0136.0054-.0144.0041-.0148-.0119-.0161-.0156.0058.0268.0226.0226c0,0-.0066.0123-.0156.0004s-.014-.023-.0206-.0235Z"/>
    <path class="cls-9" d="M.6582.722s.0095.0103.0037.0226c0,0,.0078.0078.0181.0016s.0128-.0165.0189-.014c0,0,.0049-.0132,0-.0165,0,0-.0091.0033-.0156-.0004,0,0,.0033.0103.0103.0095,0,0-.0107.0115-.014.0152s-.0115.0008-.0115.0008c0,0,.0152-.0049.0156-.014,0,0-.0091-.007-.0123-.0169l-.0046.0054s.0095.0098.0062.0147c0,0-.0086-.014-.0148-.014v.0058Z"/>
    <path class="cls-9" d="M.3315.7691s-.0113-.0043-.0044-.0119.0046-.0053.0175-.0099.0175-.0106.0228-.0099.0258.0205.038.0099.0243-.0236.0395-.0114.0228,0,.0243-.0053.0175-.0129.0228-.0038.0084.0205.0015.0251-.0243-.0038-.0365.0053c0,0,.0099-.019.0251-.0137,0,0,.0008-.019-.0061-.0114s-.0076.0182-.0342.0152-.0258.0023-.0327.0068-.0228-.0038-.0372-.0046-.0327.0084-.0327.0084c0,0,.0426-.0053.0555.0038s.0182-.0046.0319-.0038.0175.0243.0175.0243l-.0152.0008s.0053-.0175-.0076-.016-.019.0122-.0334.0068-.0428-.0164-.0564-.0048Z"/>
    <path class="cls-9" d="M.4396.7557s.0137.0182.0152.0304h.0213s-.003-.0167.0114-.0122.009.0114.0224.0129.0149-.0205.0263-.0228.0213.0068.0327.0091.0228.0038.0251-.0068c0,0-.0152.0053-.0281-.003s-.0365-.0205-.0494-.0046-.0198-.0038-.0304-.0008-.019.0137-.0182.0205c0,0-.0175-.0266-.0281-.0228Z"/>
    <path class="cls-9" d="M.4821.7868s-.0028-.017.018.0006l-.018-.0006Z"/>
    <path class="cls-9" d="M.527.7868s.0053-.003.0091-.0114.0175,0,.0274.0038.0296.0053.0357-.0008.0068-.0167.0137-.0198.0015-.0015.0137.0038.0122-.0015.0228-.0038.0167.0046.019.0076l.0023.003-.0137.0061s.0015-.0144-.0099-.0099-.0167.0122-.0266.0038-.0144.0137-.0144.0137l-.0502.003s-.0106-.0106-.0167.0015l-.0122-.0008Z"/>
    <path class="cls-9" d="M.4669.7199s.0023-.0137.0137-.0038c0,0-.0152.0091-.019.0167l.0053-.0129Z"/>
    <path class="cls-9" d="M.5011.7169s.0114.0236.0038.0372c0,0,.0129-.0023.0167-.0091s.035.0015.041.0099c0,0,.0053-.0213-.0038-.016,0,0-.016-.022-.0129-.0099s-.0099.0061-.016.0038-.0172.0081-.0172.0081c0,0,.0004-.0188-.0117-.0241Z"/>
    <path class="cls-9" d="M.5703.7389s.0015.0106-.0015.0167.0266.0061.0319.0023.0061-.0228-.0023-.019-.016.003-.0182.0023.0061.0084.0167.0038c0,0,.0023.0084-.0061.0084s-.0114.0023-.0205-.0144Z"/>
    <g class="cls-27">
      <ellipse class="cls-1" cx=".5096" cy=".3194" rx=".4046" ry=".0573"/>
      <g>
        <ellipse class="cls-10" cx=".508" cy=".3242" rx=".3143" ry=".0416"/>
        <ellipse class="cls-5" cx=".508" cy=".3242" rx=".2681" ry=".0333"/>
        <path class="cls-7" d="M.7246.3507c.012.003.0526,0,.0526,0-.0012-.0049-.0273-.0059-.0273-.0059.0046-.0021.0012-.0052.0012-.0052l-.0055.0011c.0052-.0044-.0098-.0086-.0098-.0086-.0085.0032-.0052.0094-.0052.0094"/>
        <path class="cls-12" d="M.6579.3479s-.0072-.0052.0105-.0112.0222-.0054.032-.0052.0242.0002.0275.0056c0,0,.0164.0044.0039.012l-.0739-.0012Z"/>
        <g>
          <path class="cls-23" d="M.5653.3325s.0223-.0109.0637-.007.0477.0231.0477.0231h-.0557s-.0557-.016-.0557-.016Z"/>
          <path class="cls-7" d="M.632.3344s.0254,0,.0362-.0044c0,0-.0097.0071-.0291.0086,0,0,.0194.0063.0221.0074,0,0-.0275-.0048-.0313-.0063,0,0-.0162.0082-.0237.0086,0,0,.0146-.0077.0135-.011,0,0-.0231-.0043-.0432-.0038,0,0,.0281-.003.0448.0016l-.0059-.0048s.0038-.002.0092-.0012.0076.0053.0076.0053Z"/>
        </g>
        <g>
          <path class="cls-7" d="M.2361.3338s-.0105-.0042-.0157-.005c0,0-.0052.007.0091.0134,0,0-.0085.0002-.0111.003,0,0,.0065.0026.032.003l-.0144-.0144Z"/>
          <path class="cls-23" d="M.3374.3338s-.0355-.0171-.0757-.012c-.0624.0079-.0133.028-.0133.028l.0765.0018.0124-.0178Z"/>
          <path class="cls-7" d="M.2588.3307s-.0255,0-.0363-.0044c0,0,.0098.0071.0293.0086,0,0-.0195.0063-.0222.0074,0,0,.0277-.0048.0315-.0063,0,0,.0163.0082.0239.0086,0,0-.0146-.0077-.0136-.011,0,0,.0232-.0043.0434-.0038,0,0-.0282-.003-.045.0017l.006-.0048s-.0038-.002-.0092-.0012-.0076.0053-.0076.0053Z"/>
          <path class="cls-12" d="M.4159.3405s.0119-.0086-.0188-.0126c-.0163-.0048-.037-.0033-.0502-.0023s-.0328.0021-.0336.0084c0,0-.0193.0062.0028.0136l.0997-.0071Z"/>
        </g>
        <path class="cls-18" d="M.2894.3507s-.0251-.0058-.0477-.0026c0,0-.0086.0076.0171.0114s.0458.005.0458.005l-.0153-.0138Z"/>
        <ellipse class="cls-13" cx=".512" cy=".3569" rx=".2461" ry=".0196"/>
        <ellipse class="cls-17" cx=".5087" cy=".3541" rx=".2461" ry=".0178"/>
        <path class="cls-11" d="M.7018.3621c.0029-.0028.0249-.0054.0229-.0092s-.0078-.0068-.0157-.0062-.019.001-.0235-.0014-.0085-.0002-.0118.0012-.0046,0-.0078-.0018-.0052-.0016-.0111-.0008-.015.0012-.0209-.0022-.0216-.004-.0314-.003-.0131-.0036-.0209-.0066c-.0026-.001-.0046-.003-.0137-.002s-.019.0022-.0294-.001-.0124.0006-.0124.0006c-.0007-.007-.0164-.006-.0216-.0058s-.0092.0058-.0137.0042-.0072-.0028-.017-.0016-.0039.004-.0065.006-.0039.0026-.0105.0012-.0144.0002-.0235.0016-.0052.0048-.015.004-.0314-.0004-.034.001-.0065.0032-.0177.0018-.0072.0006-.0131.0018-.0092.0004-.0203.0002-.0111.0018-.0167.0035-.0055.0039-.0108.0047-.0085-.0004-.017.001,0,.0058,0,.0058c0,0,.0124.0052.0294.007s.117.006.1864.006c.1033,0,.1432-.0036.1786-.0052,0,0,.015-.001.019-.0048Z"/>
        <path class="cls-20" d="M.325.3559c.0025-.0012.0144.0002.0177-.0014s.0078-.0026.0137-.0024.0131.0012.0203.003.0118.0016.0183.0006.0249-.0044.0275-.0056.015-.0002.0177.0012.0144.0014.015-.0014.0059-.004.0085-.0044.0144-.0008.0216.0022.0059-.0012.0078-.0018.0026-.0008.0052-.0008.0157-.0004.0288.0046.0092-.002.0177-.0008.0157.0022.0209.0036.0203.003.0268.0016.0235-.0008.0235.0024.0046.0038.0098.0028.0131-.0004.0131.0012v.0016h.0092c.0059-.0008.0196-.0036.0255-.0008s.0196,0,.0235-.001.0105-.0046.0144-.0036.0007.0032-.0052.0046-.0052.0036-.0111.0044-.0988.0074-.1969.0064-.1831-.0052-.1916-.0074-.017-.0058-.0085-.007l.0085-.0012s.0137.0016.0183-.0006Z"/>
        <path class="cls-9" d="M.312.3577s-.0114-.002-.002-.0035.0144.0001.0169-.0015.0033-.0047.0078-.0047.007-.002.0091-.0024.0054.0001.0086.0003.0066.0028.0041.0032c-.0049-.0019-.0122-.0044-.0161.0003-.0041.005-.0103.0073-.0115.0075s-.0049.0004-.0049.0004c0,0,.0002-.004-.012.0004Z"/>
        <path class="cls-9" d="M.3393.3522s-.0079,0-.007-.002.0084-.0015.0097-.0007l.0013.0008s.0088.0007.0101-.0009-.0031-.0034-.0031-.0034c0,0,.0066-.0007.0084-.0017s.0062-.0011.0101-.0003.0132.0035.0132.005c0,0-.0106-.004-.0176-.0032s-.0044.0031-.0044.0031c0,0,.0044-.002.0088-.0012s.0057.0046-.0013.0056c0,0,.0013-.0046-.0057-.0031,0,0-.0167.0027-.0225.002Z"/>
        <path class="cls-9" d="M.3767.3551s.0049-.0025.0022-.0044c0,0,.0062.0011.0066.0026,0,0,.0119-.003-.0057-.009,0,0,.0062-.0011.0079-.0023s.0242-.0007.0313-.0004c0,0,.0093-.0004.0123-.0024,0,0,.0119.0007.0088.0051,0,0,.0062-.0038-.0009-.0074,0,0,.0013-.0027.0132-.0016s.0145.0009.0167-.0003c0,0,.0035.004-.0075.0036s-.0141-.0011-.0141-.0011c0,0,.0026.0028.015.003,0,0-.0084.0016-.015-.0001,0,0,.0044.0073-.0062.0082,0,0-.0084.0005-.0084-.0043s-.0062-.0013-.0062-.0013c0,0-.0088.0062-.0172.0035s-.0093-.0038-.0176-.0034c0,0-.0053.0009-.0018.0028s.0022-.0009.0057-.0009.0053.0009.0018.002-.0035.0034-.0035.0038.0053,0,.0075-.0017.0154-.0009.0062.0011-.0137.0023-.0141.0042-.004.0024-.004.0024c0,0-.0124-.001-.0133-.0015Z"/>
        <path class="cls-9" d="M.4058.3538s.0225-.0059.0233-.0079c0,0,.0035.0026.0026.004,0,0-.0198.0013-.026.0039Z"/>
        <path class="cls-9" d="M.4569.3472s-.0088-.0032-.0022-.0039.011-.0003.0132-.0015.0145-.005.0066-.0087c0,0-.0044-.0044.0035-.0051s.004.0027.0119.0035.0128.0021.0145.0038.0026.0054.0145.0046.0185-.0034.0282-.0007-.0057.0043.0172.0056.0264-.0007.03.0023.0018.005.0018.005c0,0-.015.0016-.0185.0001s.0079-.0012.0106-.0016-.0057-.0048-.0141-.0034-.004.0031-.007.0031-.0044.0008-.0053-.0016-.0066-.0034-.0123-.0028-.011.0022-.0141.0034-.0132-.002-.0132-.0034.0084.0009.011.0009.0048-.0011.007-.0023.0057-.0044-.0031-.0051-.0062.0022-.0198.0024-.0154-.0028-.0176-.0042-.0088-.0036-.0128-.0038c0,0,.0115.005.0128.0093,0,0-.0084-.0062-.0159-.0069,0,0-.0013.0047-.0093.0063s-.0154.002-.0154.002c0,0,.0242-.0001.026-.0032s.008.0045.008.0045c0,0-.0076-.0008-.008-.0018s-.0075.0012-.0137.0013-.0115,0-.0145.0017Z"/>
        <path class="cls-9" d="M.5054.3454l-.0004-.0024s.0238.0007.0282-.0016.0048.0023-.0004.0034c0,0-.0207-.0017-.0273.0007Z"/>
        <path class="cls-9" d="M.497.33s.0075,0,.0119.0044.0132.0038.0185.0028.0203-.0013.0256.0003.0286.0039.0339.0016c0,0-.0071-.0082-.0167-.0071s-.0304.0009-.0383-.0015c0,0-.0106.0046-.0119.0024s.0031-.0083-.0132-.0077c0,0-.0013.0044-.0097.0047Z"/>
        <path class="cls-9" d="M.5644.343s.0313-.0027.0375.004c0,0,.0031.0035.0026.0043s.0079-.0023.0119.0013-.0009.0048.007.0043.0159-.0038.0189-.0007.0172.0036.0211.0009.0066-.0051,0-.0051-.0093.0039-.0132.0028-.0132-.0023-.0211-.0009-.0053-.006-.0159-.0046-.0022-.013-.0489-.0064Z"/>
        <path class="cls-9" d="M.6089.3418s.0057.0035.0048.0051.007-.0015.0119.0024.0128.0031.0185.0024.015,0,.0154-.002.0048-.0052-.0035-.004-.0145.0017-.0154.0013-.0159-.0039-.0172-.0051.0062.0087.0242.0074c0,0-.007.004-.0167.0001s-.015-.0075-.022-.0077Z"/>
        <path class="cls-9" d="M.6675.3507s.0101.0034.004.0074c0,0,.0084.0026.0194.0005s.0137-.0054.0203-.0046c0,0,.0053-.0043,0-.0054,0,0-.0097.0011-.0167-.0001,0,0,.0035.0034.011.0031,0,0-.0115.0038-.015.005s-.0123.0003-.0123.0003c0,0,.0163-.0016.0167-.0046,0,0-.0097-.0023-.0132-.0055l-.0049.0018s.0102.0032.0067.0048c0,0-.0093-.0046-.0159-.0046v.0019Z"/>
        <path class="cls-9" d="M.3178.3661s-.0121-.0014-.0047-.0039.0049-.0017.0187-.0032.0187-.0035.0244-.0032.0277.0067.0407.0032.026-.0077.0423-.0037.0244,0,.026-.0017.0187-.0042.0244-.0012.009.0067.0016.0082-.026-.0012-.0391.0017c0,0,.0106-.0062.0269-.0045,0,0,.0008-.0062-.0065-.0037s-.0081.006-.0366.005-.0277.0007-.035.0022-.0244-.0012-.0399-.0015-.035.0027-.035.0027c0,0,.0456-.0017.0594.0012s.0195-.0015.0342-.0012.0187.0079.0187.0079l-.0163.0002s.0057-.0057-.0081-.0052-.0203.004-.0358.0022-.0459-.0053-.0604-.0016Z"/>
        <path class="cls-9" d="M.4335.3617s.0146.006.0163.0099h.0228s-.0033-.0055.0122-.004.0096.0037.0239.0042.0159-.0067.0281-.0074.0228.0022.035.003.0244.0012.0269-.0022c0,0-.0163.0017-.0301-.001s-.0391-.0067-.0529-.0015-.0212-.0012-.0325-.0002-.0203.0045-.0195.0067c0,0-.0187-.0087-.0301-.0074Z"/>
        <path class="cls-9" d="M.4791.3718s-.0029-.0055.0193.0002l-.0193-.0002Z"/>
        <path class="cls-9" d="M.5271.3718s.0057-.001.0098-.0037.0187,0,.0293.0012.0317.0017.0382-.0003.0073-.0055.0146-.0065.0016-.0005.0146.0012.013-.0005.0244-.0012.0179.0015.0203.0025l.0024.001-.0146.002s.0016-.0047-.0106-.0032-.0179.004-.0285.0012-.0155.0045-.0155.0045l-.0537.001s-.0114-.0035-.0179.0005l-.013-.0002Z"/>
        <path class="cls-9" d="M.4628.35s.0024-.0045.0146-.0012c0,0-.0163.003-.0203.0055l.0057-.0042Z"/>
        <path class="cls-9" d="M.4994.349s.0122.0077.0041.0122c0,0,.0138-.0007.0179-.003s.0374.0005.0439.0032c0,0,.0057-.007-.0041-.0052,0,0-.0171-.0072-.0138-.0032s-.0106.002-.0171.0012-.0184.0027-.0184.0027c0,0,.0005-.0061-.0126-.0079Z"/>
        <path class="cls-9" d="M.5735.3562s.0016.0035-.0016.0055.0285.002.0342.0007.0065-.0074-.0024-.0062-.0171.001-.0195.0007.0065.0027.0179.0012c0,0,.0024.0027-.0065.0027s-.0122.0007-.022-.0047Z"/>
      </g>
      <g>
        <polyline class="cls-24" points=".3775 .2808 .3774 .2878 .425 .2932 .6062 .295 .6539 .2905 .654 .2835"/>
        <polygon class="cls-24" points=".4686 .2743 .4012 .2736 .3535 .2781 .3534 .285 .401 .2905 .4685 .2911 .5162 .2866 .5163 .2797 .4686 .2743"/>
        <polygon class="cls-24" points=".6309 .2759 .5635 .2752 .5157 .2797 .5157 .2866 .5633 .292 .6307 .2927 .6785 .2882 .6785 .2813 .6309 .2759"/>
        <polygon class="cls-25" points=".4633 .2755 .4065 .275 .3663 .2787 .3663 .2846 .4064 .2892 .4632 .2897 .5034 .286 .5034 .2801 .4633 .2755"/>
        <polygon class="cls-25" points=".6253 .2771 .5685 .2766 .5284 .2803 .5283 .2862 .5684 .2908 .6252 .2913 .6654 .2876 .6654 .2817 .6253 .2771"/>
      </g>
      <g id="YQYiUM-2" data-name="YQYiUM">
        <g>
          <g>
            <polygon class="cls-19" points=".5626 .3174 .5534 .3194 .5626 .3174 .5626 .3174"/>
            <polygon class="cls-19" points=".466 .3229 .4652 .3229 .4652 .3229 .466 .3229"/>
            <path class="cls-8" d="M.5288.3229s-.0006.0001-.0009.0002c.0003,0,.0006-.0001.0009-.0002Z"/>
            <path class="cls-8" d="M.5275.3232s-.0005.0001-.0008.0002c.0002,0,.0005-.0001.0008-.0002Z"/>
            <path class="cls-8" d="M.5298.3227s-.0007.0001-.001.0002c.0003,0,.0007-.0001.001-.0002Z"/>
            <path class="cls-8" d="M.4649.3227s.0001,0,.0002.0001c0,0-.0001,0-.0002-.0001Z"/>
            <path class="cls-8" d="M.5298.3227c.0091-.0019.0276-.0049.0327-.0053h0c-.0051.0003-.0236.0034-.0327.0053Z"/>
            <polygon class="cls-8" points=".4652 .3229 .4651 .3228 .4652 .3229 .4652 .3229"/>
          </g>
          <path class="cls-19" d="M.6749.318c-.0006,0-.0017,0-.0023,0-.0009,0-.0015.0002-.0021.0003-.0071.0012-.0141.0025-.0214.0037-.0023.0004-.0054.0007-.0081.001-.0004,0-.0008,0-.0012-.0001.001-.0003.002-.0005.0029-.0008.0018-.0006.0039-.0012.005-.0018.0013-.0007-.0024-.0013-.0073-.0014-.0075.0016-.0164.0029-.0271.0041-.0001-.0003,0-.0006.0011-.0008.0046-.0009.0091-.0018.0144-.0026.0058-.0009.0119-.0018.0209-.0021.0005,0,.001-.0003.0008-.0004-.0021-.001-.0071-.0018-.0158-.0011-.0021.0002-.0042.0003-.0062.0005-.009.0009-.0166.0021-.0226.0034-.0049.0011-.0112.002-.018.0028-.0016.0002-.0037.0003-.0055.0005h-.0011c.0014-.0005.0027-.0009.0044-.0013.0057-.0013.0115-.0026.0173-.0039.0026-.0006.0023-.0012.0005-.0017-.0021-.0007-.0048-.0008-.0089-.0004-.0029.0003-.0056.0006-.0083.001-.0026.0003-.0051.0007-.0084.0011.0021-.0008.0012-.0014-.0017-.002-.0023-.0004-.0046-.0005-.0077-.0002-.0032.0003-.0064.0007-.0093.0011-.004.0006-.0077.0012-.0115.0018h-.0009c.0041-.0018.0017-.0032-.0054-.0033-.0013.0005-.0019.0011-.004.0015-.0071.0014-.0145.0028-.0223.0042-.0034.0006-.0078.0011-.012.0016-.0009.0001-.003.0002-.0038,0-.0008,0-.0012-.0003-.001-.0005.0001-.0002.0008-.0004.0016-.0006.0023-.0006.0047-.0011.0071-.0017.0026-.0006.0054-.0012.0076-.0019.0025-.0007.0006-.0018-.0034-.0022-.003-.0003-.0048-.0002-.0057.0003-.0004.0002-.0009.0005-.0016.0007-.0054.0016-.0136.0029-.022.0042-.0042.0006-.0091.0012-.0137.0018-.0005,0-.0013,0-.0021,0-.0003,0-.0005,0-.0008,0h0s0,0,0,0c0,0-.0001,0-.0002-.0001-.0002,0-.0003-.0002-.0001-.0003.001-.0004.002-.0009.0035-.0013.0085-.0021.0178-.0042.0256-.0064.004-.0011.0088-.0015.0171-.0013.0025,0,.0035.0001.0041.0005.0006.0004.0025.0008.0044.0011.0013.0002.0032.0002.0045-.0001.0029-.0006.006-.0012.009-.0018.0014-.0003.0018-.0005.0002-.0008-.0047-.0009-.012-.0009-.0166,0-.0002,0-.0005,0-.0006,0-.0041,0-.008,0-.012-.0001.0011-.0004.0023-.0008.003-.0012.0016-.0008-.0021-.0019-.0075-.0021-.0017,0-.0029-.0001-.0038.0002-.0026.001-.0055.0019-.0086.0029-.0005.0002-.0023.0004-.0035.0004-.0049,0-.0099,0-.0149-.0001.0012-.0004.0023-.0008.003-.0011.0018-.0008-.0017-.0019-.0072-.0022-.0015,0-.0029-.0002-.0039.0002-.0027.001-.0058.002-.0088.003-.0004.0001-.0014.0003-.0023.0003-.0046,0-.0092,0-.0141.0001,0-.0008.0004-.0014,0-.0021-.001-.0015-.0082-.0026-.0188-.0027-.0051,0-.0105.0001-.0155.0003-.0099.0004-.0175.0014-.0243.0024-.0063-.0007-.0125-.0007-.0195,0-.007.0007-.0125.0017-.0171.0027-.0101.0022-.0158.0046-.0121.0073.0027.002.0117.0033.0251.0036.0107.0002.0205-.0002.0294-.001.0218-.002.0363-.0048.0469-.0081.0015-.0005.0018-.0012.0044-.0014.0025-.0003.0072,0,.0109-.0001.0003,0,.0007,0,.0014,0-.0009.0002-.0016.0004-.0024.0006-.0059.0015-.0121.003-.0177.0045-.0033.0009-.0064.0019-.0085.0028-.0015.0007-.0005.0015.0042.0019.0047.0005.0093.0002.0132-.0003.0051-.0006.0098-.0013.0146-.0019.0015-.0002.0028-.0004.0041-.0006,0,.0003-.0008.0006-.0012.0008-.0013.0007.0007.0017.0043.002.0037.0004.0083.0003.0135-.0003.004-.0005.0077-.001.0114-.0015.0018-.0002.0034-.0005.0046-.0007.0009.0006.0011.0013.0027.0019.002.0007.0074.001.0123.0006.0028-.0002.0055-.0005.0078-.0008.0028-.0004.0052-.0008.0084-.0012-.001.0012.0024.0021.0075.0022.0003-.0001.0009-.0003.0016-.0004.0002,0,.0005-.0001.0008-.0002.0001,0,.0003,0,.0004,0,.0003,0,.0006-.0001.0009-.0002s.0007-.0001.001-.0002c.0091-.0019.0276-.0049.0327-.0053h0,0c-.0031.0007-.0063.0013-.0092.002-.0004,0-.0008.0002-.0012.0003-.0026.0007-.0049.0014-.0065.0021-.0016.0007.0019.0017.0059.0021.0031-.0008.0058-.0017.0095-.0025.0038-.0008.0083-.0015.013-.0022.0045-.0007.0098-.0012.0148-.0018-.0046.0012-.0095.0023-.0141.0034-.003.0007-.0032.0015-.0013.0023.0019.0008.0059.001.0113.0007.0022-.0002.0044-.0004.0063-.0006.0029-.0003.0056-.0007.0086-.0011.0008.0008.0034.0015.0088.0018.005.0003.0075-.0004.0106-.0007.0031-.0004.0058-.0008.0088-.0012,0,0,.0002.0001.0001.0002-.0013.0008.0017.0013.0058.0017.0041.0004.0075,0,.0108-.0003.0004,0,.0008,0,.0011-.0001.0115-.0014.0202-.0031.0288-.0048.0003,0,.0006-.0001.0006-.0002,0,0,0-.0002-.0003-.0003ZM.3802.3224c-.0052.0005-.0109.0008-.0173.0009-.0074.0001-.0123-.0002-.0154-.0012-.0046-.0014-.005-.0029-.001-.0044.0053-.002.0154-.0035.0271-.0049.0044.0029.0139.0049.0387.004-.0085.0022-.0177.0042-.032.0056ZM.4237.3124c-.0031-.0002-.006-.0005-.009-.0007-.0014.0007.0007.0012.0081.0018-.0017.0006-.0034.0013-.0052.0019-.0002,0-.0005.0001-.0009.0002-.0061.0004-.0124.0008-.0192.0005-.0063-.0003-.0087-.001-.0102-.0019-.0031-.0017.008-.0033.0184-.0037.0017,0,.0035-.0001.0053-.0001.0099-.0002.0145.0005.0128.002ZM.4311.323h-.0016s.0005-.0008.0015-.001c.0042-.0012.0084-.0024.0129-.0035.0062-.0015.0127-.0031.019-.0046.0009-.0002.0016-.0003.0036-.0003.0047,0,.0095,0,.0146.0001-.0127.0036-.027.0069-.0499.0093Z"/>
        </g>
      </g>
      <g>
        <path class="cls-19" d="M.4688.3057c-.0051.0002-.0054.0001-.0057-.0009-.0001-.0003-.0003-.0006-.0012-.001-.0005.0003-.0006.0007-.0014.001-.0009.0003-.0024.0006-.0036.0009-.0011-.0003-.0025-.0006-.0033-.0009-.0008-.0003-.0011-.0007-.0023-.001,0,.0005,0,.001,0,.0015-.0001.0014-.0051.0026-.0125.003-.0074.0004-.0156-.0001-.02-.0013-.0041-.0011-.0037-.0026.001-.0036.0048-.0011.0133-.0014.0205-.0009.0028.0002.0029.0002.0028.0009-.0043-.0004-.0086-.0007-.0136-.0004-.0079.0005-.0122.0019-.0094.0032.003.0014.0117.0021.0196.0014.0075-.0006.0103-.002.0071-.0034-.0013-.0006-.0016-.0012-.0014-.0018,0-.0003.0024-.0007.0039-.0007.0015,0,.0039.0002.0049.0005.0013.0003.0017.0008.0028.0014.001-.0005.0016-.0009.0022-.0013.0008-.0005.0023-.0008.0052-.0007.003,0,.0043.0004.0043.0009,0,.0011,0,.0021,0,.0032Z"/>
        <path class="cls-19" d="M.5218.3034s-.0013.0008-.0004.0011c.001.0003.0038.0005.0057.0005.0027,0,.0042-.0004.0042-.001,0-.0006-.0003-.0013.0001-.0019.0002-.0003.0018-.0005.0028-.0007.001.0002.0027.0004.003.0006.0004.0004.0015.0004.0033.0004.0046,0,.0058.0003.0059.0011,0,.0006.0003.0011-.0001.0017-.0002.0003-.0018.0005-.0028.0007-.0009-.0002-.0025-.0005-.0027-.0007-.0004-.0006-.0001-.0012-.0001-.0017-.0036-.0002-.0033.0002-.0034.0005-.0001.001-.0034.0018-.0091.002-.0071.0003-.0144-.0008-.0136-.0021.0006-.0009.0059-.0017.0111-.0015.0011,0,.0027.0001.0031.0003.0008.0003.0013.0007.0011.001-.0001.0002-.0022.0004-.0031.0004-.0014,0-.0026-.0003-.0039-.0005l-.0011-.0002Z"/>
        <path class="cls-19" d="M.4978.303l-.0042.0003c0,.0006.0002.0012-.0001.0018-.0001.0002-.0015.0006-.0026.0006-.0024,0-.0031-.0002-.003-.0006,0-.0006-.0001-.0012,0-.0018.0003-.0009.0045-.0013.009-.0009.0005,0,.0015,0,.0021,0,.0033-.0003.0049,0,.005.0006,0,.0005-.0001.0009,0,.0014,0,.0001.001.0003.0015.0004.0006-.0001.0016-.0003.0017-.0004.0002-.0005-.0002-.001.0002-.0016.0002-.0002.0016-.0004.0025-.0006.0011.0002.0031.0004.0033.0006.0004.0006.0004.0013,0,.0019-.0004.0007-.0039.0011-.0083.0011-.004,0-.0069-.0005-.007-.0013,0-.0005,0-.001,0-.0015Z"/>
        <path class="cls-19" d="M.6796.3046s.0005.0006.0007.0009h-.0006s-.0003-.0002-.0003-.0002c-.0049,0-.0099-.0007-.0147.0001-.0008.0001-.0028.0002-.0032.0002-.0022-.0004-.0047-.0001-.007-.0001-.0047,0-.0095.0002-.0142.0003-.0033,0-.0066.0001-.0097.0003-.0062.0004-.0122.0001-.0183,0-.0041,0-.0083,0-.0125,0-.0019,0-.0037,0-.0063-.0001.001-.0001.0013-.0002.0017-.0002.0029,0,.0058-.0001.0087-.0002.005,0,.0099,0,.0149,0,.005,0,.0101,0,.015,0,.0072-.0001.0143-.0004.0214-.0006.0035,0,.0069-.0002.0105-.0003.0044,0,.0088,0,.0137,0Z"/>
        <path class="cls-19" d="M.4018.3047c-.0058.0004-.0114.0009-.0174.0011-.0056.0002-.0115,0-.0172,0-.0008,0-.0016,0-.0023,0-.0062.0001-.0125.0004-.0185.0003-.0061-.0001-.012,0-.018,0-.0023,0-.0046-.0002-.0076-.0003l-.001-.0008h.0007s.0003.0002.0004.0002c.0048,0,.0096.0007.0146,0,.0006,0,.0023,0,.003,0,.003.0004.0061.0003.0093.0001.0009,0,.0019,0,.0027,0,.0076.0005.015.0002.0224-.0001.001,0,.0022,0,.0032,0,.0073.0003.0142,0,.0209-.0004.0014-.0001.003-.0001.0045-.0002l.0003.0002Z"/>
        <path class="cls-19" d="M.4219.3052c.0002-.0012.0059-.0021.0123-.002.0068,0,.0118.001.0116.0022-.0002.0012-.0054.002-.0123.002-.0069,0-.0118-.001-.0116-.0022ZM.4388.3044h-.0118c-.0029.0007-.0027.0014.001.002.0033.0005.0083.0005.0116,0,.0034-.0005.0041-.0014.0013-.002-.001-.0002-.0026-.0004-.0039-.0006h-.0005c.0006.0002.0011.0003.0023.0006Z"/>
        <polygon class="cls-19" points=".5701 .3035 .57 .3053 .5676 .3059 .5645 .3053 .5644 .3029 .5662 .3025 .5761 .3025 .5794 .3033 .5795 .3053 .5768 .3059 .5737 .3053 .5734 .3038 .5714 .3033 .5701 .3035"/>
        <polygon class="cls-19" points=".4793 .3032 .4762 .3034 .4723 .303 .4753 .3024 .4808 .3024 .4848 .3028 .4839 .3055 .4764 .3059 .471 .3048 .4753 .3037 .4797 .3035 .4793 .3032"/>
        <polygon class="cls-19" points=".5561 .3033 .5533 .3033 .5497 .3032 .5492 .3027 .5528 .3024 .5575 .3024 .5616 .3029 .561 .3054 .5533 .3059 .5478 .3048 .5516 .3037 .5564 .3035 .5561 .3033"/>
        <polygon class="cls-19" points=".5869 .3057 .5837 .3061 .5813 .3056 .5838 .3053 .5869 .3057"/>
      </g>
    </g>
  </g>
  <path class="cls-19" d="M.8321.7099c-.0071-.0056-.0083-.038-.0104-.0712,0,0,.0008.0579-.0095.0721-.009.0126-.0297.0111-.051.0118,0,0,.0367,0,.048.0199.0043.0076.0092.0534.0135.0943,0,0-.0024-.0705.0119-.0935.0084-.0136.0299-.0159.0491-.0167,0,0-.0388-.0063-.0515-.0167h-.0001Z"/>
  <path class="cls-19" d="M.9125.5783c-.0048-.0035-.0056-.0233-.0069-.0437h0s.0005.0355-.0064.0442c-.006.0077-.02.0067-.0345.0073,0,0,.0249,0,.0324.0122.0029.0047.0061.0327.0092.0578,0,0-.0017-.0432.008-.0574.0058-.0083.0202-.0097.0332-.0101,0,0-.0261-.0041-.0349-.0102h-.0001Z"/>
  <path class="cls-19" d="M.7003.2132c-.0042-.0029-.0049-.0196-.0061-.0368h0s.0004.0299-.0056.0372c-.0053.0065-.0176.0056-.0304.0061,0,0,.0219,0,.0285.0103.0026.004.0054.0275.0081.0486,0,0-.0015-.0364.007-.0483.0051-.007.0178-.0082.0292-.0085,0,0-.023-.0035-.0307-.0086h0Z"/>
  <path class="cls-19" d="M.3131.1011s.0005.0344-.0062.0428c-.0058.0074-.0193.0065-.0335.0071,0,0,.0241,0,.0314.0119.0029.0046.0059.0318.0089.0561,0,0-.0017-.0421.0077-.0558.0055-.0081.0196-.0094.0321-.0098,0,0-.0254-.0038-.0338-.0098-.0047-.0034-.0054-.0227-.0067-.0425h.0001Z"/>
  <path class="cls-6" d="M.1843.1491s.0008.0574-.0099.0717c-.0093.0125-.0307.0109-.0529.0117,0,0,.0383,0,.0496.0197.0045.0076.0096.0529.0141.0938,0,0-.0024-.0701.0123-.093.0088-.0136.031-.0157.0511-.0165,0,0-.0403-.0063-.0535-.0165-.0072-.0057-.0086-.0377-.0106-.0709h-.0003s.0001,0,0,0Z"/>
</svg>