<?xml version="1.0" encoding="UTF-8"?>
<svg xmlns="http://www.w3.org/2000/svg" xmlns:xlink="http://www.w3.org/1999/xlink" version="1.1" viewBox="0 0 1 1">
  <defs>
    <style>
      .cls-1 {
        fill: #eac675;
      }

      .cls-1, .cls-2, .cls-3, .cls-4, .cls-5, .cls-6, .cls-7, .cls-8, .cls-9, .cls-10, .cls-11, .cls-12, .cls-13, .cls-14, .cls-15, .cls-16, .cls-17, .cls-18, .cls-19, .cls-20, .cls-21, .cls-22, .cls-23, .cls-24, .cls-25, .cls-26, .cls-27 {
        stroke-width: 0px;
      }

      .cls-2 {
        fill: #ffd602;
      }

      .cls-28 {
        clip-path: url(#clippath);
      }

      .cls-3 {
        fill: none;
      }

      .cls-4 {
        fill: url(#linear-gradient);
      }

      .cls-5 {
        fill: #b7b5b2;
      }

      .cls-6 {
        fill: #fce790;
      }

      .cls-7 {
        fill: #ffffde;
      }

      .cls-8 {
        fill: #b1ed1d;
      }

      .cls-9 {
        fill: #ebc057;
      }

      .cls-29 {
        clip-path: url(#clippath-1);
      }

      .cls-30 {
        clip-path: url(#clippath-2);
      }

      .cls-10 {
        fill: #b2d12f;
      }

      .cls-11 {
        fill: #ebedee;
      }

      .cls-12 {
        fill: #ffffab;
      }

      .cls-13 {
        fill: #fff06d;
      }

      .cls-14 {
        fill: #ff6700;
      }

      .cls-15 {
        fill: #ddb602;
      }

      .cls-16 {
        fill: #ffe86b;
      }

      .cls-17 {
        fill: #ff801a;
      }

      .cls-31 {
        opacity: .55;
      }

      .cls-18 {
        fill: url(#linear-gradient-2);
      }

      .cls-32, .cls-19 {
        isolation: isolate;
      }

      .cls-19 {
        fill: #e5e1cc;
        opacity: .53;
      }

      .cls-19, .cls-33 {
        mix-blend-mode: multiply;
      }

      .cls-20 {
        fill: #fffa94;
      }

      .cls-21 {
        fill: #a80f28;
      }

      .cls-22 {
        fill: #ccc;
      }

      .cls-33 {
        opacity: .46;
      }

      .cls-23 {
        fill: #fff;
      }

      .cls-24 {
        fill: #f7f7f7;
      }

      .cls-25 {
        fill: #ecedec;
      }

      .cls-26 {
        fill: #9b9992;
      }

      .cls-27 {
        fill: #9fb713;
      }
    </style>
    <linearGradient id="linear-gradient" x1=".2358" y1=".1438" x2=".701" y2=".7695" gradientUnits="userSpaceOnUse">
      <stop offset=".0228" stop-color="#dab862"/>
      <stop offset=".1422" stop-color="#fffff3"/>
      <stop offset=".2412" stop-color="#fffff3"/>
      <stop offset=".3838" stop-color="#dab862"/>
      <stop offset=".56" stop-color="#dab862"/>
      <stop offset=".7329" stop-color="#ffffe0"/>
      <stop offset=".8908" stop-color="#dab862"/>
      <stop offset="1" stop-color="#9f8349"/>
    </linearGradient>
    <linearGradient id="linear-gradient-2" x1=".2517" y1=".1171" x2=".7509" y2=".8841" gradientUnits="userSpaceOnUse">
      <stop offset=".0072" stop-color="#8c702e"/>
      <stop offset=".1728" stop-color="#ffffb4"/>
      <stop offset=".3571" stop-color="#d1a641"/>
      <stop offset=".5119" stop-color="#785b29"/>
      <stop offset=".6595" stop-color="#d1a641"/>
      <stop offset=".7826" stop-color="#d1a641"/>
      <stop offset=".932" stop-color="#78632c"/>
      <stop offset="1" stop-color="#4e2822"/>
    </linearGradient>
    <clipPath id="clippath">
      <path class="cls-3" d="M.2127.2114l.0754.6274s.0189.0596.2053.0586c0,0,.199,0,.2263-.0547l.0734-.6357-.5804.0039v.0005Z"/>
    </clipPath>
    <clipPath id="clippath-1">
      <path class="cls-3" d="M.2127.2114l.0754.6274s.0189.0596.2053.0586c0,0,.199,0,.2263-.0547l.0734-.6357-.5804.0039v.0005Z"/>
    </clipPath>
    <clipPath id="clippath-2">
      <path class="cls-3" d="M.5067.1294c.1546,0,.2799.0273.2799.0605,0,.0342-.1254.061-.2799.061s-.2799-.0269-.2799-.061c0-.0337.1254-.0605.2799-.0605Z"/>
    </clipPath>
  </defs>
  <g class="cls-32">
    <g id="Layer_1" data-name="Layer 1">
      <g id="Layer_1-2" data-name="Layer 1-2">
        <path class="cls-4" d="M.5027.0161C.2339.0161.016.234.016.5028s.2179.4868.4867.4868.4868-.2179.4868-.4868S.7716.0161.5027.0161Z"/>
        <circle class="cls-18" cx=".5027" cy=".5028" r=".4669"/>
        <path class="cls-11" d="M.2127.2112H.2127s.0754.6277.0754.6277c0,0,.0189.0596.2053.0586,0,0,.199,0,.2263-.0545l.0734-.636-.5804.0042Z"/>
        <g class="cls-31">
          <g class="cls-28">
            <polygon class="cls-23" points=".4431 .2652 .4859 .9138 .5587 .9138 .5908 .261 .4431 .2652"/>
          </g>
        </g>
        <path class="cls-17" d="M.5772.6591c-.0744.0356-.1061.0115-.1527-.0093-.0688-.0306-.1255-.0435-.1375-.0419h-.0003l.0035.0457s.0276-.0075.1359.0419c.0569.026.0783.0246.0879.0242.0112-.0006.0504-.0062.0809-.0228.0855-.0464.1303-.0501.1303-.0501l.0035-.0457s-.0402.0047-.1515.058Z"/>
        <path class="cls-21" d="M.577.719c-.0681.0322-.1061.0139-.1527-.0068-.0688-.0306-.1208-.0456-.1329-.0439h-.0002s.0053.0487.0053.0487c0,0,.0213-.0086.1294.0409.0569.026.0783.0246.0879.0242.0112-.0006.0504-.0062.0809-.0228.0854-.0464.1232-.0496.1232-.0496l.0035-.0457s-.033.0023-.1443.055Z"/>
        <g>
          <polygon class="cls-17" points=".362 .4509 .3422 .4465 .3472 .5195 .3663 .5225 .362 .4509"/>
          <polygon class="cls-17" points=".3725 .5244 .3725 .5243 .3724 .5243 .3725 .5244"/>
          <path class="cls-17" d="M.4207.4966s.0006-.0278-.0247-.0328c-.0253-.005-.0266.0222-.0266.0222l.0031.0383.0166.0025s-.0018-.0248-.0018-.0303-.0007-.0137.0062-.0142.0087.01.0087.01l.0005.0352.0192.0031-.0013-.034Z"/>
          <path class="cls-17" d="M.4597.4972l-.0087-.0049s-.0093-.0025-.0006-.0043h.018l-.0006-.0167-.0222.0006s-.0167-.0025-.0167.0155c0,0-.0013.0124.01.0167l.0112.0043s.0105.0043.0018.0074l-.0229-.0013h-.0002v.016h.0272s.0167.0006.0167-.0173c0,0,.0013-.013-.013-.016Z"/>
          <rect class="cls-17" x=".4793" y=".4663" width="0" height=".0003"/>
          <path class="cls-17" d="M.5152.4892v-.016l-.0154.0014-.0018-.008h-.0186l-.0005.0436s-.0013.0284.0352.021l.0006-.0148h-.01s-.0074-.0038-.0074-.0124v-.0135l.018-.0013Z"/>
          <polygon class="cls-17" points=".5614 .5301 .5612 .5301 .5612 .5301 .5614 .5301"/>
          <path class="cls-17" d="M.5688.47c-.0215-.0043-.0415.0062-.0464.0186s-.0068.026.0068.0377c.0135.0117.0317.0039.032.0038h0s.0013-.0181.0013-.0181c0,0-.0112.0087-.0197,0-.0085-.0087-.0025-.0197.0055-.0229.008-.0032.0192-.0043.0204.0112l-.0006.0297.0192-.0006.0013-.0322s.0018-.0229-.0197-.0272Z"/>
          <path class="cls-17" d="M.6266.4634c-.0205-.0025-.0309.016-.0309.0297,0,.0081-.0006.034-.0006.034h.0001s.0167-.0014.0167-.0014l.0006-.0334s.0018-.0112.0093-.0117c.0074-.0005.0055.0117.0055.0155l-.0013.0284.0173-.0025.0013-.0364s.0025-.0197-.018-.0222Z"/>
          <polygon class="cls-17" points=".3688 .535 .3689 .535 .3689 .535 .3688 .535"/>
          <path class="cls-17" d="M.4196.5944l-.0192-.0018s-.0105.0006-.0112-.018c-.0007-.0186-.0018-.0371-.0018-.0371l-.0185-.0025.0025.0415s.0018.0309.0229.0334l.0266.0031-.0013-.0186Z"/>
          <path class="cls-17" d="M.6662.4958l.0006-.0222.0148-.0024-.0005-.0148-.0093.0025-.0018-.008-.016.0031h0s-.0031.0452-.0031.0452c0,0-.0006.029.026.016l-.0006-.0155s-.0087.0068-.01-.0038Z"/>
          <path class="cls-17" d="M.4772.5567h-.0179l.0005.0277c0,.0185-.0074.016-.0074.016-.01.0006-.0087-.0142-.0087-.0142l-.0006-.0309-.0192-.0006H.4239s.0003.0001.0003.0001l.0006.0309s.0012.0328.029.0328c.0278,0,.0247-.0303.0247-.0303l-.0013-.0315Z"/>
          <path class="cls-17" d="M.5148.5559c-.0278.0007-.0272.0254-.0272.0254v.0358h.0185v-.0255s-.0013-.0192.0074-.0186c.0118.0009.0093.013.0093.013l.0005.0297h.018s.0006-.0291.0006-.0315.0006-.0291-.0272-.0284Z"/>
          <path class="cls-17" d="M.5926.5547h0c-.0148-.0012-.0272.005-.0272.005-.0167.0092-.0198.0322-.0105.0451.0093.0129.0347.008.0347.008l.0006-.0167c-.0037.0023-.0204.0048-.021-.0112s.0229-.0135.0229-.0135l.0006-.0167Z"/>
          <path class="cls-17" d="M.6385.546c-.015-.0036-.018.0055-.018.0055l-.0006-.0155-.0179.0018v.0002s-.0017.0735-.0017.0735l.0155-.0018.0018-.0303s.0013-.013.0093-.013c.0081,0,.0062.016.0062.016l-.0018.0266.016-.0024.0025-.0385s.0038-.0186-.0112-.0222Z"/>
        </g>
        <g class="cls-33">
          <g class="cls-29">
            <g>
              <polygon class="cls-19" points=".7136 .2202 .6718 .9093 .7198 .9046 .7912 .2047 .7136 .2202"/>
              <polygon class="cls-19" points=".2939 .1925 .2063 .1771 .287 .877 .3412 .8816 .2939 .1925"/>
            </g>
          </g>
        </g>
        <g>
          <path class="cls-19" d="M.2128.2113h-.0001l.0027.0289s.0907.0564.2794.0524c.1499-.0032.2456-.0185.2945-.0545l.0039-.031-.5804.0042Z"/>
          <path class="cls-25" d="M.2035.1883v.0198c0,.0372.1347.0674.3006.0674s.3006-.0302.3006-.0674v-.0198S.2035.1883.2035.1883Z"/>
          <path class="cls-24" d="M.5041.1207c-.1661,0-.3006.0303-.3006.0676s.1346.0675.3006.0675.3006-.0303.3006-.0675-.1347-.0675-.3006-.0675h0Z"/>
          <g>
            <ellipse class="cls-5" cx=".5067" cy=".1902" rx=".2799" ry=".0607"/>
            <g class="cls-30">
              <g>
                <polygon class="cls-26" points=".6766 .1076 .6638 .3101 .7965 .2787 .814 .1332 .6766 .1076"/>
                <polygon class="cls-22" points=".3182 .1332 .2053 .1598 .2308 .2914 .3344 .2762 .3182 .1332"/>
                <path class="cls-20" d="M.2716.2273s-.0043-.016.021-.016.013-.0197.013-.0197c0,0-.0025-.0142.013-.0142s.021.01.021.01l.0124.013s.0055-.0284.0297-.0242c0,0,.0254-.0229.0513-.018,0,0,.0074-.0192.0457-.0112.0383.008.0415.0277.0415.0277,0,0,.0532-.026.0637.0093l.0049.0068s-.0025-.029.0217-.0408.0489.0013.0557.0167c0,0,.021.0087.0197.0303,0,0,.0186-.0055.0277,0s.0087.0217.0087.0217c0,0,.0222-.0124.0347.0038,0,0-.0724.0347-.2486.0371-.1762.0024-.2367-.0322-.2367-.0322h-.0001Z"/>
                <path class="cls-1" d="M.3264.2063c-.0222-.0143-.0131-.0245.0031-.0197.013.0038.0308.0191.0321.0177.0033-.0039.009-.0078.0184-.0059.0175.0036.0323.0095.0369-.0011s-.0104-.0275.0072-.028c.0217-.0006.0175-.0217.0408-.0159.008.002.0289.0031.0297.0112.0014.0147.0161.0175.0169.0213-.0092-.0082-.0219-.0094-.0293-.0051-.0006-.0136-.068-.0247-.0517.0259.0078-.0487.0487-.0228.0531-.0167.0247-.0124.0351.0179.0365.016.0012-.0014.03.0187.0412.0147.0166-.0058.0116-.0449-.0316-.028,0-.0115.0079-.0099.0131-.0127.0105-.0058.0256-.0046.0303.0046s.009.0332.009.0332l.0097-.0006s.0048-.0471.0117-.0464c-.0043.0371.0031.0456.0031.0456l.0074-.0004s-.0139-.0395.0081-.0511.0439.0125.0439.0125c0,0,.0179.0287.0101.0287-.002,0-.0116-.0264-.0201-.0264.0109.0217.0024.0305-.0015.0193-.0064-.0184-.0221-.0267-.0287-.0233-.0109.0055-.007.0264-.0054.031.0163-.0012.0286.0244.0286.0244l-.2862.016s-.0054-.0179.0139-.0295c.0104-.0063.0324.0144.0307.0097-.0027-.0082-.0086-.0164-.0215-.019-.0157-.0031-.0362.0137-.0362.0137l-.0231-.0155h-.0002v-.0002Z"/>
                <path class="cls-14" d="M.561.2133s.001-.0168.0148-.0178l.0415-.003s.0059.003.0089.0108-.0443.0141-.0443.0141l-.021-.0042h.0001Z"/>
                <path class="cls-14" d="M.561.2133s.001-.0168.0148-.0178l.0415-.003s.0059.003.0089.0108-.0443.0141-.0443.0141l-.021-.0042h.0001Z"/>
                <path class="cls-14" d="M.4079.2064s.001-.0168.0148-.0178l.0415-.003s.0059.003.0089.0108-.0443.0141-.0443.0141l-.021-.0042h0Z"/>
                <g>
                  <circle class="cls-10" cx=".687" cy=".2182" r=".0283"/>
                  <ellipse class="cls-8" cx=".6933" cy=".1976" rx=".004" ry=".0086" transform="translate(.3455 .8291) rotate(-77.0617)"/>
                  <path class="cls-27" d="M.7153.2182c0,.0144-.0127.0261-.0283.0261s-.0283-.0116-.0283-.0261c.006.0071.0114.0089.0271.0089s.0242-.0038.0296-.0089h-.0001Z"/>
                </g>
                <g>
                  <circle class="cls-10" cx=".3353" cy=".2215" r=".0352"/>
                  <ellipse class="cls-8" cx=".3443" cy=".1963" rx=".0046" ry=".0105" transform="translate(.0226 .4278) rotate(-65.4237)"/>
                </g>
                <path class="cls-12" d="M.2661.2318s-.0043-.0204.0222-.026c.0266-.0055.0272.01.0272.01,0,0,.0242-.016.034.0062,0,0,.0087-.0043.016.0068,0,0,.0167-.016.0445.0043,0,0,.0043-.0495.0464-.0502s.0502.0229.0502.0229c0,0,.0043-.0229.0303-.0043,0,0,.0395-.0148.0451.016,0,0-.0062-.0142.0315-.01,0,0,.0013-.0135.016-.0167s.0414.0072.0371.021c.0254.0051.029.0303.029.0303,0,0-.081.0217-.1978.0204s-.2319-.0309-.2319-.0309h.0001v.0003h0Z"/>
                <path class="cls-16" d="M.2754.24s-.0069-.0271.0173-.0287.0167.0158.0167.0158c0,0,.0025.0093.0173.0112s.0192-.0087.0124-.0142c.016,0,.0217.0043.021.0112l.0043.0148s-.0074-.0247.0347-.0204l.0018.0068s-.026-.0055-.0277.0093l-.047.0055-.0507-.0112h-.0001Z"/>
                <path class="cls-16" d="M.6593.2529s-.0037-.0208.0062-.0284c.0112-.0087.0297.0197.0222.0277l-.0284.0006h0Z"/>
                <path class="cls-6" d="M.4416.219s.0142-.0049.0105-.0135.0013-.0186.013-.0173.0303.0049.0347.0242c0,0,0,.0055-.0043.01s.0018.0112.0068.0093c.0049-.0019.0148-.0087.0142-.0173s0-.0155.008-.0117.0055.0112.0148.0105.021-.0093.0284-.0055.0087.0117.0087.0142-.0062.013-.0142.01-.0124-.0142-.0192-.013-.0222.0062-.0197.0148.0055.0142.0112.0105-.0043-.016.0062-.0155.008.0112.0167.0117.029,0,.0297-.0155c0,0,.0023-.012.0269-.0088,0,0,.0128.0131.0201.007s.0018-.0192.0112-.0197.0147.0015.0135.0153-.0043.023-.0073.0224-.0068-.0093-.0055-.0142-.0043.0148-.0328.0013-.013.0105-.0105.0124.0074.0124.0074.0124l-.018.0018-.0031-.0124-.0117.0093-.0704.0045-.0261-.0015s-.0074-.0197.0013-.0284.0117-.0112.0038-.0204-.026-.0117-.0197.0038c.0062.0155-.0197.0266-.0197.0266l-.0043-.0167h-.0004l-.0002-.0004v-.0002Z"/>
                <g>
                  <path class="cls-2" d="M.4138.2045c-.0222.0105-.0146.0488-.0146.0488.0092.023.072.0082.0665-.0073-.0099-.0278-.0297-.052-.0519-.0414Z"/>
                  <ellipse class="cls-13" cx=".4247" cy=".2114" rx=".0105" ry=".0059"/>
                  <path class="cls-15" d="M.3988.2388s.0364.018.0624-.0018c0,0,.0105.0105.0025.018,0,0-.0204.013-.0519.008,0,0-.0112.0074-.013-.0242H.3988Z"/>
                </g>
                <path class="cls-9" d="M.3817.1761s.0109.0038.0164.0155.0142.0031.013-.0043-.0087-.0222-.0135-.0217-.0168.0105-.0159.0105h0Z"/>
                <g>
                  <path class="cls-10" d="M.5178.2264c-.0172,0-.0311.0139-.0311.0311,0,.0172.0139.0311.0311.0311.0172,0,.0311-.0139.0311-.0311,0-.0172-.0139-.0311-.0311-.0311Z"/>
                  <ellipse class="cls-8" cx=".5243" cy=".2354" rx=".0041" ry=".0088" transform="translate(.1364 .6595) rotate(-71.7333)"/>
                </g>
              </g>
            </g>
          </g>
          <path class="cls-9" d="M.4069.1597s-.013.0025-.0013.0284c0,0,.0038.008-.0043.0062s-.026-.0167-.0432-.0105c0,0,.0067-.0147.021-.0076,0,0,.0049-.0245.0278-.0164H.4069Z"/>
          <path class="cls-16" d="M.3247.211s-.0112.0013-.0087.0117.0124.0068.0124.0068c0,0,.0112-.0043-.0038-.0186h.0001Z"/>
        </g>
        <path class="cls-23" d="M.7601.7618c-.0062-.0049-.0073-.0333-.0091-.0624,0,0,.0007.0507-.0083.0632-.0079.011-.026.0097-.0447.0103,0,0,.0322,0,.0421.0174.0038.0067.0081.0468.0118.0826,0,0-.0021-.0618.0104-.0819.0074-.0119.0262-.0139.043-.0146,0,0-.034-.0055-.0451-.0146Z"/>
        <path class="cls-23" d="M.8271.6414c-.0048-.0035-.0056-.0233-.0069-.0437h0s.0005.0355-.0064.0442c-.006.0077-.02.0067-.0345.0073,0,0,.0249,0,.0324.0122.0029.0047.0061.0327.0092.0578,0,0-.0017-.0432.008-.0574.0058-.0083.0202-.0097.0332-.0101,0,0-.0261-.0041-.0349-.0102Z"/>
        <path class="cls-23" d="M.3625.0443s.0005.035-.0065.0436c-.0061.0075-.0203.0066-.0351.0072,0,0,.0253,0,.0329.0121.003.0047.0062.0324.0093.0571,0,0-.0018-.0428.0081-.0568.0058-.0082.0206-.0096.0337-.01,0,0-.0266-.0039-.0355-.01-.0049-.0035-.0057-.0231-.007-.0433h0Z"/>
        <path class="cls-7" d="M.1885.2179s.0008.0574-.0099.0717c-.0093.0125-.0307.0109-.0529.0117,0,0,.0383,0,.0496.0197.0045.0076.0096.0529.0141.0938,0,0-.0024-.0701.0123-.093.0088-.0136.031-.0157.0511-.0165,0,0-.0403-.0063-.0535-.0165-.0072-.0057-.0086-.0377-.0106-.0709h-.0003Z"/>
        <g>
          <path class="cls-21" d="M.7305.3763c-.0034.0007-.0061.0039-.0061.0071,0,.0032.0027.0052.0061.0045.0033-.0007.006-.0039.006-.0071s-.0027-.0052-.006-.0045ZM.7256.3831c0-.0026.0022-.0051.0049-.0056.0027-.0006.0049.0011.0049.0038,0,.0026-.0022.0051-.0049.0057h0c-.0028.0005-.0049-.0013-.0049-.0039Z"/>
          <path class="cls-21" d="M.6588.3514c-.0046.0007-.0094.0013-.014.0018-.0063.0008-.0067.0066-.0067.0075,0,.0048.0039.0069.0073.0065.0041-.0005.005-.0038.0085-.0041.0023-.0003.0043.001.0043.0025,0,.0071-.0238.0034-.0238.0231,0,.0039.0061.0165.0189.015.0125-.0016.0194-.0116.0194-.0217v-.0184c0-.0094-.0078-.0129-.0139-.0121ZM.6533.3889c-.0022.0003-.0037-.0019-.0037-.0033,0-.0003.0022-.0039.0061-.0044.001,0,.0011,0,.0018-.0003v.005h.0001c-.0006.0008-.0016.0027-.0043.003Z"/>
          <polygon class="cls-21" points=".3201 .3688 .3191 .371 .3212 .3693 .3201 .3688"/>
          <path class="cls-21" d="M.3359.3575H.3359c-.0081-.0012-.0091.008-.0147.0118.0037.0041.0092.0084.0132.0072,0,0-.0025-.0026-.002-.0046.0002-.0009.0076.0052.0148.0035-.0027-.0026-.0026-.0072-.006-.0085.0002.0052.0072.0088.0072.0088-.0005.0002-.0006-.0004-.0012-.0002.0053.0051.012.0095.012.0169,0,.0129-.0104.0219-.0232.0198h-.0001c-.0128-.0021-.0232-.0145-.0232-.0274,0-.0058.0029-.0101.0064-.0137-.0052.0046-.015.0038-.015.012,0,.0172.0142.0339.0318.0368.0176.0029.0319-.0092.0319-.0264,0-.0172-.0143-.0331-.0319-.0359Z"/>
          <path class="cls-21" d="M.3411.3668c.0034.0013.0034.006.006.0085.0005-.0001.0006.0005.0012.0002,0,0-.007-.0035-.0072-.0088Z"/>
          <polygon class="cls-21" points=".7077 .3444 .7078 .3445 .708 .3444 .7077 .3444"/>
          <path class="cls-21" d="M.7078.3445c-.009.0016-.018.0031-.027.0044-.001.0017-.0024.0035-.0024.0059v.0379c0,.0016.0026.0063.0072.0056.0047-.0008.0072-.0045.0072-.0067v-.0325c.0033-.0005.0065-.0011.0097-.0016v.0305c0,.0013.002.0076.0072.0067.0043-.0008.0072-.0045.0072-.0074v-.0349c0-.0042-.0054-.0087-.009-.008Z"/>
          <path class="cls-21" d="M.4276.3941v-.0382h.0002c0-.0059-.0056-.0116-.0092-.0119-.0018-.0002-.0037-.0003-.0055-.0005-.0112-.0011-.0109.0235-.0156.0279-.0043-.0056-.0035-.0304-.018-.0322-.0077-.001-.0122.0047-.0122.0109v.0168c0,.0011-.0005.0021,0,.0034.0027.0039.0047.0079.0061.0123.0012.0038.0018.0076.0018.0116,0,.0208-.0172.0356-.0383.0322-.0211-.0034-.0381-.0238-.0381-.0446,0-.0208.017-.0342.0381-.0307.0073.0013.0142.0043.02.0087.002.0014.0032.0023.0048.0037v-.0092c-.0072-.0057-.0159-.0099-.0252-.0114-.0253-.0041-.0456.012-.0456.0373,0,.0252.0203.0502.0456.0542.0242.004.0436-.0129.0453-.0363,0,0-.0005-.0197.0011-.0322.0049.0159.0059.0366.0141.0376.01.0011.009-.0226.0158-.0352.0006.0079.0008.0281.0008.0281,0,.0039.0006.0055.0031.009.0046.0004.0094.0008.014.0012-.0013-.0047-.0031-.0099-.0031-.0126Z"/>
          <path class="cls-21" d="M.5359.3589h-.0003c-.0075.0001-.0068.0056-.0068.0094v.0233c0,.0028-.0029.0055-.0048.0055-.0031,0-.0048-.0022-.0048-.0043v-.0281c0-.0032-.0024-.0055-.0067-.0055-.0032,0-.0079.0011-.0079.0072v.0294c0,.0074.011.0154.0165.0153h.0055c.0055,0,.0172-.0072.0172-.0175v-.0275c0-.0039-.0024-.0072-.0079-.0072Z"/>
          <path class="cls-21" d="M.6199.3561h0c-.0037.0003-.0073.0006-.011.001-.0033-.0039,0-.0153-.0086-.0146-.0022.0002-.0079.0026-.0079.0079v.0336c0,.0058-.0065.0139-.0153.0144-.0059.0004-.014-.0052-.014-.0133,0-.0047.0027-.0085.0061-.0125.0011,0,.002,0,.0031-.0002,0,.0031-.0013.0111.0067.0106.0068-.0004.0099-.0068.0099-.0111,0-.0112-.0101-.0133-.0134-.0132-.0018,0-.0037.0002-.0055.0003-.0049.0003-.0215.0092-.0215.0242v.0055c0,.0119.0166.0239.0257.0234.0018,0,.0037-.0002.0055-.0003.0078-.0004.0257-.0099.0275-.0276v-.014c.0033-.0003.0065-.0005.0098-.0009-.0003.0024,0,.0095,0,.0239,0,.0064-.001.0141.0067.0133.0048-.0005.0073-.0058.0073-.0081v-.0318c0-.0056-.0049-.011-.011-.0105Z"/>
          <polygon class="cls-21" points=".4933 .3579 .4933 .358 .4934 .3579 .4933 .3579"/>
          <path class="cls-21" d="M.4933.358c-.0095-.0001-.0159.0087-.0159.0148v.0305c0,.0039.0038.0062.0073.0063.0047,0,.0073-.0027.0073-.0059v-.0305c.0034-.0023.0104-.0002.0104-.0084,0-.0035-.0046-.0068-.0092-.0068Z"/>
          <path class="cls-21" d="M.4576.3595h-.0002.0001c-.0046-.0003-.0094-.0005-.014-.0009-.0064-.0004-.0067.0053-.0067.0063,0,.0048.0038.0076.0073.0078.0041.0003.005-.0028.0086-.0026.0023,0,.0043.0017.0043.0033,0,.0071-.0239-.0011-.0239.0188,0,.0039.0062.0177.019.0185.0126.0007.0195-.0079.0195-.0181v-.0184c0-.0094-.0078-.0143-.014-.0147ZM.4562.3936H.4562c-.0005.0008-.0016.0025-.0043.0023-.0022,0-.0037-.0026-.0037-.0038,0-.0003.0022-.0036.0061-.0034.001,0,.0011.0002.0018,0v.0048h0v.0002Z"/>
          <rect class="cls-21" x=".3251" y=".3774" width=".0042" height=".005" transform="translate(-.1664 .2921) rotate(-39.1737)"/>
          <rect class="cls-21" x=".3436" y=".3805" width=".0042" height=".0049" transform="translate(-.1639 .3023) rotate(-38.9275)"/>
          <path class="cls-21" d="M.3481.3877s-.0009.0007-.0014.001c-.0029.0024-.0082.0023-.0082.0023-.009-.0004-.0145-.0043-.0145-.0043h-.0002s-.0003.0004-.0003.0006c.0004.0003.001.0006.0015.0009.0081.0044.0156.0044.0156.0044.0042.0005.0089-.0022.0089-.0022,0,0,.0008-.0006.0004-.0017-.0004-.0011-.0018-.0009-.0018-.0009Z"/>
          <polygon class="cls-21" points=".3376 .3863 .3368 .3862 .3352 .3858 .3338 .3877 .3374 .3891 .3392 .3877 .3376 .3863"/>
          <polygon class="cls-21" points=".7306 .3818 .7305 .3818 .7305 .3819 .7306 .3818"/>
          <path class="cls-21" d="M.7324.3826v.0004s-.0005-.0005-.0008-.0006c0,0-.0003,0-.0005-.0002.0006-.0002.001-.0004.0013-.0008.0003-.0003.0004-.0007.0004-.0011,0-.0003,0-.0006-.0002-.0008-.0002-.0002-.0004-.0004-.0007-.0004h-.0012c-.0009.0002-.0017.0004-.0026.0005v.0053s.0005,0,.0008-.0002v-.0024s.0006,0,.0009-.0002h.0008s.0003,0,.0004.0003c0,.0003.0003.0004.0006.0007.0002.0003.0005.0007.0008.001.0003,0,.0007,0,.001-.0002-.0003-.0004-.0007-.0009-.001-.0013ZM.7306.3818h0S.7305.3818.7305.3818c-.0006,0-.001.0002-.0015.0003v-.0018c.0006,0,.0013-.0003.0018-.0004h.001s.0003.0003.0003.0006c0,.0002,0,.0004-.0002.0005,0,.0002-.0002.0003-.0005.0004-.0002,0-.0005.0002-.0009.0003h0s0,0,0,0Z"/>
        </g>
      </g>
    </g>
  </g>
</svg>