<?xml version="1.0" encoding="UTF-8"?>
<svg id="Capa_1" data-name="Capa 1" xmlns="http://www.w3.org/2000/svg" version="1.1" viewBox="0 0 1 1">
  <defs>
    <style>
      .cls-1 {
        fill: #d54122;
      }

      .cls-1, .cls-2, .cls-3 {
        stroke: #000;
        stroke-miterlimit: 10;
        stroke-width: .01px;
      }

      .cls-4 {
        fill: #f7d3c2;
        stroke-width: 0px;
      }

      .cls-2 {
        fill: #000;
      }

      .cls-3 {
        fill: #fff;
      }
    </style>
  </defs>
  <path class="cls-4" d="M.112.522s.006-.002.01,0c-.003.001-.006.002-.01,0Z"/>
  <g>
    <polygon class="cls-1" points=".374 .115 .378 .11 .378 .111 .374 .115"/>
    <path class="cls-1" d="M.346.155s-.002.005-.003.008c-.002.004-.004.009-.003.014.002-.001.002-.003.002-.005,0-.007.003-.014.006-.021.004-.009.009-.017.014-.025.003-.004.007-.008.011-.012-.006.006-.013.012-.018.02-.004.007-.008.013-.01.021Z"/>
    <path class="cls-1" d="M.985.471s-.002-.002-.002-.003c0-.001,0-.002,0-.003,0,0-.001,0-.001-.002-.001-.003-.004-.005-.006-.007-.002,0-.003-.001-.004-.002,0,0-.001,0-.002,0-.003-.002-.006-.005-.01-.005-.008,0-.016,0-.024,0-.008,0-.017,0-.025,0-.004,0-.006-.001-.006-.006,0-.006-.003-.011-.004-.017-.001-.005-.003-.01-.005-.015-.003-.007-.006-.015-.009-.022-.002-.005-.005-.011-.008-.016-.003-.005-.006-.011-.009-.016-.005-.008-.01-.015-.016-.022-.005-.006-.009-.012-.014-.017-.007-.008-.014-.016-.023-.023-.007-.006-.014-.012-.021-.017-.012-.009-.025-.017-.039-.024-.003-.002-.004-.004-.004-.007,0-.036,0-.073,0-.109,0-.008-.007-.018-.018-.018-.008,0-.016.003-.023.005-.009.002-.017.006-.025.01-.012.006-.022.014-.032.024-.01.01-.019.022-.026.035-.004.008-.007.016-.01.024,0,.003-.002.003-.004.003-.011,0-.021,0-.032,0-.004,0-.004,0-.003-.004,0-.001,0-.002,0-.003,0-.013.001-.025-.002-.038-.002-.008-.004-.015-.007-.022-.002-.004-.004-.009-.007-.013-.006-.01-.012-.019-.02-.027-.011-.011-.024-.02-.038-.027-.008-.004-.016-.006-.025-.008-.008-.001-.015-.003-.023-.002-.007,0-.014.001-.021.002-.004,0-.009.002-.013.003-.006.002-.012.004-.017.007-.007.004-.014.008-.021.012-.004.003-.006.007-.009.01.009-.009.02-.016.032-.021.008-.004.017-.007.026-.008.012-.002.024-.002.036-.001.012,0,.022.005.033.008.002,0,.004.001.005.003.004.001.008.004.012.006.016.01.029.023.039.039.005.008.009.017.012.025.001.003.002.007.003.011.001.005.002.011.003.016.001.006.001.013,0,.019-.001.006-.001.012-.003.018-.002.007-.004.013-.007.019-.006.014-.015.027-.027.037,0,0,0,.001,0,.002.011.001.023,0,.034,0,.008,0,.016.007.016.015,0,.007-.008.015-.016.015-.052,0-.104,0-.156,0-.012,0-.024.002-.036.004-.007.001-.014.004-.021.004-.009,0-.016-.011-.012-.02.002-.005.006-.008.012-.009.008-.002.015-.004.023-.005-.011-.004-.016-.013-.023-.021-.005-.006-.009-.014-.012-.021-.002-.004-.003-.008-.004-.012-.001-.005-.003-.01-.004-.015-.001-.011-.003-.023-.001-.034,0-.002,0-.005,0-.007-.002,0-.002.003-.002.005v.028s.002.009.003.014c0,.003,0,.007.003.01.001.002,0,.004-.003.004-.008.002-.015.005-.022.008-.008.004-.016.008-.024.012-.01.006-.02.012-.03.019-.008.006-.015.012-.023.018-.013.011-.024.023-.035.037-.006.008-.012.016-.017.024-.004.006-.008.013-.012.02-.002.004-.004.009-.007.013-.003.004-.004.009-.006.014-.002.006-.004.011-.006.017-.002.006-.003.011-.005.017,0,.003-.001.007-.003.01-.002.004-.002.009-.003.013-.002.008-.003.017-.003.025,0,0,0,0,0,.001,0,.002-.001.003-.004.003-.002,0-.004,0-.006,0-.007,0-.013.001-.02.001-.007,0-.014.002-.022.002-.001,0-.003,0-.003.002.001,0,.003,0,.004,0,.015-.003.031-.004.047-.003.003,0,.004.001.004.004,0,.005-.001.01,0,.016,0,.003.001.006,0,.008.002.01.002.02.003.03.001.009.003.017.005.026.002.009.005.019.008.028.003.009.007.018.011.026.006.013.013.026.021.038.01.015.022.028.033.042,0,0,0,0,.001,0,0,0,0,0,0,0,.002,0,.004.003.005.005l.007.006s.002,0,.002.002c.003.002.005.005.008.006.001,0,.002,0,.002.002.001,0,.003.002.004.003,0,.002.002.004.001.006,0,.008,0,.016.001.025,0,.014.002.028.003.043.001.014.003.027.005.041.001.012.007.023.013.034,0,0,.001.001.002.001.002.003.005.005.008.008,0,0,.001,0,.001.001h0s.002,0,.002.002c0,0,.001,0,.002,0,.003.001.007.003.01.006,0,0,.002,0,.003,0,.001,0,.002,0,.002.001,0,0,.002,0,.003,0,.002,0,.005,0,.007.002,0,0,.002,0,.003,0,0,0,0,0,0,0,.005,0,.011,0,.016,0,.001,0,.003,0,.004,0,.002-.002.004-.002.006-.002,0,0,.001,0,.002,0,.003-.003.007-.003.011-.005.001,0,.002-.003.004-.002.002,0,.003-.002.005-.003,0-.002.001-.003.003-.003.004-.003.007-.007.01-.011,0-.001,0-.002.002-.002,0-.001.002-.002.002-.004.001-.002.001-.005.004-.006,0,0,0,0,0-.001,0-.002,0-.003.001-.004,0,0,0-.001,0-.002,0-.003,0-.005.002-.007,0-.002,0-.004,0-.006,0-.004,0-.009.002-.013,0,0,0-.002,0-.003-.001-.002,0-.004,0-.006,0-.002,0-.005,0-.007,0-.005,0-.009.002-.013,0-.002,0-.005,0-.007-.001-.001,0-.002,0-.003.002-.001.01,0,.012.002.006,0,.013,0,.019,0,.001,0,.002,0,.003,0h.186s.002,0,.003,0h.019c.003.01.003.021.004.031.001.007.001.014.002.021.001.01.004.019.01.027.002.003.003.007.006.009.002.002.004.004.006.006.001,0,.003,0,.003.002.002.001.003.003.006.004.001,0,.002,0,.002.002,0,0,.001,0,.002,0,.001,0,.002,0,.002.001.002,0,.003.001.005.002.001,0,.002,0,.003.001,0,0,.001,0,.002,0,.002,0,.005,0,.007.002,0,0,.002,0,.003,0,.001,0,.016,0,.017,0,.001,0,.002,0,.003,0,.002-.002.004-.002.006-.002,0,0,.001,0,.002,0,.001-.001.003-.002.004-.002h.003s.002-.003.004-.004c.002,0,.003-.001.004-.002,0-.001.001-.003.003-.003.004-.003.007-.006.01-.01,0,0,0-.001.001-.001,0-.001.002-.002.002-.003,0-.002.001-.003.003-.003,0-.001.001-.003.002-.004,0-.001,0-.002.001-.002,0,0,0-.001,0-.002,0-.001,0-.002.002-.003,0,0,0,0,0-.001,0-.002,0-.004.002-.006,0,0,0,0,0-.001,0-.001,0-.003.001-.004,0-.002,0-.004,0-.005,0-.004,0-.007.002-.011,0-.002,0-.004,0-.006,0-.004,0-.009.002-.013,0-.002,0-.004,0-.006-.001-.003,0-.005.001-.008,0-.001,0-.002,0-.003,0-.002-.001-.004,0-.006,0,0,0-.002,0-.003-.001-.003,0-.007,0-.01,0-.003,0-.006,0-.01,0-.005,0-.011,0-.016,0-.002,0-.005,0-.007,0-.001,0-.002.001-.003,0-.002,0-.005.002-.006,0,0,0-.001.002-.001,0,0,0,0,.001,0,0-.001.001-.001.002-.001.001,0,.002-.002.004-.003,0-.001,0-.002.002-.002,0,0,0,0,0,0,0-.001,0-.002.002-.002.001,0,.002-.002.003-.003,0,0,0-.001.001-.001,0,0,.001-.001.002-.001,0-.002.002-.004.004-.004,0,0,.001-.001.002-.001.001-.003.003-.005.006-.006,0-.001,0-.002.002-.002,0-.003.003-.005.006-.006.002-.001.003-.003.004-.005,0-.002.002-.004.004-.004,0-.001.001-.002.002-.003,0-.001,0-.002.002-.002,0,0,0,0,0,0,0-.003.002-.005.005-.006,0,0,0,0,0-.001,0,0,0-.001.001-.001,0,0,0,0,0-.001,0-.001,0-.002.002-.002,0-.002.002-.003.004-.005,0-.001,0-.002.001-.002,0,0,0-.001,0-.002,0-.002.001-.003.003-.003.001-.002.002-.004.003-.005,0,0,0-.001.001-.001,0,0,0-.001,0-.002,0-.001,0-.002.002-.002,0,0,0,0,0-.001.002-.003.003-.007.006-.009,0-.002.002-.003.002-.005.001-.005.004-.008.006-.013,0,0,0,0,.001,0,0,0,0,0,0-.001,0-.003,0-.006.004-.008,0,0,.001-.001.002-.002,0-.002.002-.003.004-.003,0,0,0,0,.001,0,0-.002.002-.001.003-.001h.057s.002,0,.002,0c.001,0,.002,0,.003,0,.001-.001.003-.003.005-.002,0,0,0,0,.001,0,0-.001.001-.003.003-.002,0,0,0,0,0,0,0-.001,0-.002.002-.002.001-.001.003-.002.004-.003,0,0,0-.001.001-.001,0,0,0-.001,0-.002,0,0,0-.001.001-.002.001,0,0-.002,0-.003,0-.001,0-.003.002-.003,0-.016,0-.031,0-.047,0-.025,0-.049,0-.074ZM.78.381c.001-.005.007-.01.012-.01.008,0,.013.002.015.009.003.007.001.015.002.022,0,.006,0,.012,0,.017,0,.006-.006.013-.011.013-.011,0-.016-.003-.017-.012-.001-.007,0-.014,0-.021,0-.006,0-.012,0-.018Z"/>
  </g>
  <path class="cls-4" d="M.098.524s.006-.002.009-.002c-.003.001-.006.003-.009.002Z"/>
  <path class="cls-4" d="M.091.496s-.004.003-.007.002c.002-.002.005-.002.007-.002Z"/>
  <path class="cls-4" d="M.101.602s.002-.005.004-.007c0,.003,0,.006-.004.007Z"/>
  <path class="cls-4" d="M.092.612s.003-.004.005-.005c0,.003-.002.004-.005.005Z"/>
  <path class="cls-4" d="M.089.527s.004-.002.007-.002c-.002.002-.004.002-.007.002Z"/>
  <path class="cls-4" d="M.106.584s0-.003,0-.004c.002.001.002.003,0,.004Z"/>
  <path class="cls-4" d="M.089.565s-.002.001-.004.001c0-.002.002-.003.004-.001Z"/>
  <path class="cls-4" d="M.099.567s-.003,0-.003-.002c.002,0,.003,0,.003.002Z"/>
  <path class="cls-4" d="M.106.578s-.001-.002,0-.003c.001,0,.001.002,0,.003Z"/>
  <path class="cls-4" d="M.106.588s0-.002,0-.003c0,.001,0,.002,0,.003Z"/>
  <path class="cls-4" d="M.105.593s0-.002,0-.002c.001.001,0,.002,0,.002Z"/>
  <path class="cls-4" d="M.106.574s-.002,0-.002-.002c.001,0,.002,0,.002.002Z"/>
  <path class="cls-4" d="M.085.528s0-.002.002-.001c0,.001-.001.002-.002.001Z"/>
  <path class="cls-4" d="M.087.616s.001-.001.002-.001c0,.001-.001.001-.002.001Z"/>
  <path class="cls-4" d="M.098.606s0-.001.001-.001c0,0,0,.001-.001.001Z"/>
  <path class="cls-2" d="M.143.493c-.016,0-.031,0-.047.003-.001,0-.003,0-.004,0,0,0,0,0-.001,0-.002.001-.004.003-.007.002,0,0-.001,0-.002,0-.001.002-.003.002-.005.002,0,0-.001,0-.002,0,0,.001-.002.002-.003.001,0,0-.002,0-.003,0,0,.001,0,.002-.002.001,0,0-.002,0-.003,0,0,.001,0,.002-.002.001,0,0,0,0-.001,0,0,.001,0,.002-.002.002-.001,0-.003.001-.004.002,0,0,0,.001-.001.001,0,0-.001,0-.002,0,0,.001-.001.003-.003.003,0,0-.001,0-.002,0,0,0,0,.001-.001.001-.002.001-.004.003-.006.004,0,.001,0,.002-.002.002,0,0,0,0,0,0,0,.002-.003.004-.005.005,0,0,0,0,0,0,0,.003-.002.005-.005.006,0,.001-.001.002-.002.003,0,.002,0,.004-.003.005,0,0,0,.002,0,.003,0,.001,0,.002-.002.002,0,0,0,.002,0,.003,0,.001,0,.003-.002.003,0,0,0,.001,0,.002,0,.002,0,.005-.002.006v.016s.002.004.002.007c0,0,0,.001,0,.002.001,0,.001.001.001.002,0,0,0,0,0,.001,0,0,0,0,0,.001,0,0,0,0,0,0,.001,0,.001.001.001.002,0,0,0,.001,0,.002.001,0,.001.001.001.002.001.003.003.005.005.008.002,0,.003.001.003.003,0,0,0,0,0,0,.001,0,.002,0,.002.002,0,.002.003.002.004.003.002,0,.004.001.006.003H.044s.002,0,.002.001c0,0,0,0,.001,0,.002,0,.003.001.004.001,0,0,.001,0,.002,0,.002,0,.003,0,.004.001.004,0,.008,0,.013,0,.001,0,.002-.002.003,0,0,0,.001,0,.002,0,.001-.001.002-.003.004-.002,0,0,0,0,.001,0,0-.001,0-.002.002-.002.001,0,.002-.001.003-.002,0-.001.001-.001.002-.001.001,0,.002-.002.003-.003,0-.002.003-.004.005-.005,0,0,0,0,0-.001,0,0,0-.001.001-.001,0,0,.001-.002.001-.003.001-.003.002-.005.004-.007,0,0,0,0,0-.001-.001-.001,0-.002,0-.002,0-.001,0-.002,0-.003,0-.001,0-.002,0-.003H.106v-.006H.106s-.001-.003,0-.004c0,0,0,0,0-.001-.001,0-.002,0-.002-.002,0-.003-.003-.003-.005-.005-.001,0-.003,0-.003-.002-.002-.001-.005,0-.007,0,0,.001-.002.001-.003.001,0,0,0,0-.001,0,0,.002-.001.003-.003.003,0,0,0,0-.001.001,0,.002,0,.004-.002.005,0,.003,0,.005,0,.008,0,.004-.002.007-.006.008,0,0,0,0,0,0,0,.001,0,.002-.002.002,0,0,0,0-.001,0-.002.002-.007.002-.009,0,0,0-.001,0-.002,0-.002,0-.004-.002-.005-.004-.001-.002-.004-.003-.004-.006-.002,0-.003-.002-.002-.004,0,0,0-.001,0-.002,0-.004-.001-.008,0-.012,0,0,0-.001,0-.001,0,0,0-.001,0-.002,0-.002,0-.003.002-.004,0,0,0,0,0-.001,0-.002,0-.003.002-.003,0-.002.002-.003.003-.005,0-.002.001-.003.003-.003,0,0,.002-.002.003-.003,0-.003.003-.004.006-.005.002-.001.003-.002.005-.003,0-.001.002-.002.004-.003,0,0,.001,0,.002,0,0-.003.004-.002.006-.003,0,0,0,0,.001,0,0,0,0,0,.001,0,0,0,0,0,.001,0,0,0,0-.002.002-.001,0,0,.001,0,.002,0,.002-.002.004-.002.006-.002,0,0,.002,0,.003,0,.003-.002.006-.002.009-.002.002,0,.003,0,.005,0,.003-.002.006-.002.01,0,.008,0,.016,0,.024,0,.001-.003,0-.006,0-.008,0-.005,0-.01,0-.016,0-.003,0-.004-.004-.004Z"/>
  <path class="cls-1" d="M.579.189c-.001-.005-.001-.011-.003-.016,0-.004-.002-.007-.003-.011-.003-.009-.007-.017-.012-.025-.01-.016-.023-.029-.039-.039-.004-.002-.007-.005-.012-.006-.001-.002-.003-.002-.005-.003-.011-.004-.021-.007-.033-.008-.012-.001-.024,0-.036.001-.009.002-.018.004-.026.008-.012.005-.022.012-.032.021-.005.005-.01.01-.015.016-.006.008-.011.016-.014.025-.003.007-.005.013-.006.021,0,.002,0,.003-.002.005H.341s0,.006,0,.008c-.002.011,0,.023.001.034,0,.005.002.01.004.015.001.004.003.008.004.012.003.007.007.015.012.021.006.008.012.018.023.021,0,0,.001,0,.002,0,.001-.001.003,0,.004,0,0,0,.002,0,.003,0,.002-.001.004-.002.006,0,.003,0,.005,0,.008,0,0-.001.001-.001.002-.001.007,0,.013,0,.02,0,.013,0,.026,0,.04,0,.002,0,.004,0,.006,0,.001,0,.003,0,.004,0,.019,0,.038,0,.058,0,.001,0,.003,0,.004,0,0,0,.001,0,.002,0,0,0,0-.001,0-.002.011-.011.02-.023.027-.037.003-.006.005-.013.007-.019.001-.006.002-.012.003-.018.001-.006.001-.013,0-.019ZM.466.278c-.006.002-.013,0-.016-.005-.003-.004-.003-.008-.003-.012,0-.004-.002-.005-.005-.005-.004,0-.008,0-.011,0-.006,0-.013-.004-.014-.009-.002-.008,0-.015.007-.018.002,0,.004-.001.006-.001.012,0,.024,0,.037,0,.004,0,.008,0,.01-.006.001-.004-.001-.009-.006-.01-.004,0-.007,0-.011,0-.005,0-.009,0-.014,0-.013,0-.026-.01-.031-.022-.004-.009-.004-.018-.001-.026.003-.009.009-.017.018-.021.004-.002.008-.003.012-.004.002,0,.003-.001.003-.004,0-.004,0-.008.002-.012.007-.009.017-.009.024,0,.002.002.002.005.002.008,0,.008,0,.008.008.008.006,0,.011,0,.016.006.006.006.003.018-.005.022-.004.002-.007.001-.011.001-.004,0-.009,0-.013,0-.006,0-.013,0-.019,0-.006,0-.012.004-.009.012.001.003.004.005.008.005.007,0,.013,0,.02,0,.015,0,.03.011.035.026.004.012.002.023-.006.033-.005.007-.012.012-.02.014-.002,0-.003.002-.003.004,0,.002,0,.003,0,.005,0,.006-.004.011-.009.013Z"/>
  <path class="cls-2" d="M.54.285s.001,0,.002,0c.011.001.023,0,.034,0,.008,0,.016.007.016.015,0,.007-.008.015-.016.015-.052,0-.104,0-.156,0-.012,0-.024.002-.036.004-.007.001-.014.004-.021.004-.009,0-.016-.012-.012-.02.002-.005.006-.008.012-.009.008-.002.015-.004.023-.005,0,0,.001,0,.002,0,.001,0,.003.001.004,0,0,0,.002,0,.002,0,.002.001.004,0,.006,0,.003,0,.005,0,.008,0,.005,0,.011,0,.016,0,.038,0,.076,0,.114,0,.001,0,.003,0,.004,0Z"/>
  <path class="cls-2" d="M.809.402c0,.006,0,.012,0,.017,0,.006-.006.013-.011.013-.011,0-.016-.003-.017-.012-.001-.007,0-.014,0-.021,0-.006,0-.012,0-.018.001-.005.007-.01.012-.01.008,0,.013.002.015.009.003.007.001.015.002.022Z"/>
  <path class="cls-3" d="M.47.167c-.006,0-.013,0-.019,0-.006,0-.012.004-.009.012.001.003.004.005.008.005.007,0,.013,0,.02,0,.015,0,.03.011.035.026.004.012.002.023-.006.033-.005.007-.012.012-.02.014-.002,0-.003.002-.003.004,0,.002,0,.003,0,.005,0,.006-.004.011-.009.013-.006.002-.013,0-.016-.005-.003-.004-.003-.008-.003-.012,0-.004-.002-.005-.005-.005-.004,0-.008,0-.012,0-.006,0-.013-.004-.014-.009-.002-.008,0-.015.007-.019.002,0,.004-.001.006-.001.012,0,.024,0,.037,0,.004,0,.008,0,.01-.006.001-.004-.001-.009-.006-.01-.004,0-.007,0-.011,0-.005,0-.009,0-.014,0-.013,0-.026-.01-.031-.022-.004-.009-.004-.018-.001-.026.003-.009.009-.017.018-.021.004-.002.008-.003.012-.004.002,0,.003-.001.003-.004,0-.004,0-.008.002-.012.007-.009.017-.009.024,0,.002.002.002.005.002.008,0,.008,0,.008.008.008.006,0,.011,0,.016.006.006.006.003.018-.005.022-.004.002-.007.001-.011.001-.004,0-.009,0-.013,0Z"/>
</svg>