<?xml version="1.0" encoding="UTF-8"?>
<svg id="Capa_1" data-name="Capa 1" xmlns="http://www.w3.org/2000/svg" version="1.1" viewBox="0 0 1 1">
  <defs>
    <style>
      .cls-1 {
        fill: #d54122;
      }

      .cls-1, .cls-2 {
        stroke: #000;
        stroke-miterlimit: 10;
        stroke-width: .01px;
      }

      .cls-2 {
        fill: #000;
      }
    </style>
  </defs>
  <rect class="cls-2" x=".415" y=".004" width=".038" height=".987"/>
  <g>
    <path class="cls-1" d="M.092.459c.009-.01.019-.017.031-.021.012-.004.024-.005.036-.004.016.001.031.006.045.012.002,0,.004,0,.005-.001.009-.009.02-.016.032-.022.006-.003.012-.005.018-.007.007-.003.015-.003.023-.005.001,0,.002,0,.003,0,.013,0,.025-.002.038-.002,0,0,.002,0,.003,0,.003,0,.004-.001.003-.004-.001-.005-.001-.011-.002-.017,0-.002,0-.003.003-.003.004,0,.008,0,.011-.001.003,0,.005,0,.007.002.007.005.015.007.023.009.017.005.035.004.052.003.006,0,.012-.002.019-.003.006-.001.013-.003.019-.005.01-.003.02-.007.027-.014.007-.007.015-.008.024-.008.002,0,.002,0,.003.002,0,.006.001.011.002.017,0,.002,0,.004.002.004.003,0,.006,0,.007-.003.001-.002.002-.005.003-.008.005-.014.009-.028.014-.042.004-.012.008-.025.012-.037,0,0,0,0,.001,0,.001.004-.001.007-.002.01-.004.013-.008.026-.013.039-.004.011-.008.023-.011.034-.001.003,0,.004.003.004.022-.002.038-.012.048-.031.004-.008.006-.016.008-.025.005-.017.01-.034.015-.05.004-.012.007-.025.011-.037.005-.016.01-.032.014-.048.004-.013.008-.026.011-.04.004-.016.008-.031.013-.047,0-.003.002-.005,0-.008,0-.002.002-.002.003-.003.002-.005.003-.011.004-.016,0-.003.002-.004.005-.005.003,0,.007,0,.009.003.002.004.003.007.004.011.001.004.004.005.006.003.001,0,.001-.002.001-.003.001-.004,0-.008.004-.012.004-.004.01-.003.012.002.001.003.003.006.004.01,0,.003.002.003.005.003.006,0,.012,0,.018,0,.009,0,.017,0,.026.002.003,0,.003.001.002.004-.005.007-.01.014-.015.02-.002.002,0,.003.001.003.003,0,.007,0,.01,0,.008,0,.016.002.024.003.018.004.033.013.049.022.016.009.032.018.048.028,0,0,.002.001.003.002.003.001.005.004.008.005.002.002.004.003.006.004.002.001.004.002.006.004.001.001.003.002.004.002.002.002.005.003.006.005.004.004.008.008.011.013.001.002,0,.004.003.006,0,0,0,0,0,.001,0,.001,0,.003,0,.004-.002.002-.004,0-.005-.002-.002-.006-.005-.011-.01-.015-.007-.006-.015-.01-.023-.015-.002,0-.002,0-.003.001-.003.004-.005.009-.008.013-.005.008-.01.016-.015.024-.002.003-.001.004.001.006.002.001.003.003.005.004.003.003.004.006.002.009-.002,0-.002,0-.003-.002-.003-.003-.007-.007-.01-.01-.003-.003-.004-.004-.001-.008.008-.013.016-.027.024-.04,0-.001.001-.002.002-.003,0-.002,0-.004-.002-.004-.003-.001-.005-.005-.009-.003-.001,0-.002.002-.002.003-.015.026-.03.051-.045.077-.003.005-.005.009-.008.014-.002.003-.001.003.002.004.008.001.008.001.012-.006.005-.007.009-.014.013-.021.003-.004.004-.005.009-.004.005.002.011.001.017.003,0,0,.002,0,.002,0,0,0,.001.001.001.002,0,.002.002.003.004.004.006.004.012.008.018.012.001,0,.003.002.004.003.002.002.002.003,0,.005-.005.006-.011.01-.019.012-.006.002-.011.002-.017.002-.004,0-.007-.002-.01-.002-.005,0-.01-.001-.015-.003-.003-.001-.006-.001-.01-.002-.005,0-.01-.002-.015-.003-.005,0-.01-.002-.015-.003-.004,0-.008,0-.011-.002-.001,0-.002,0-.002.002,0,0,0,0,0,.001,0,.031,0,.062,0,.093,0,.009,0,.018,0,.028,0,.009,0,.018.002.026.002.009.002.017.003.026.001.006.003.013.002.019,0,.003.002.004.002.007,0,.007.003.015.004.022.001.008.003.015.005.022,0,.006.003.011.004.017.002.007.004.015.004.022,0,0,0,0,0,.001.002.029-.007.054-.026.076-.001.001-.003.002-.004.003-.007.008-.016.014-.025.02-.001,0-.003.002-.004.002-.002,0-.002.002-.001.003.002.007.004.015.006.022.002.006.003.013.005.019.002.006.004.013.005.019,0,.003.002.006.002.009.002.004.002.01.004.014.002.004.001.008.003.012.001.002.001.005.002.008,0,.005.003.009.003.014,0,.004.002.009.002.013,0,.001,0,.003,0,.005,0,.027,0,.055,0,.082,0,.008,0,.017.002.025,0,0,0,.002,0,.003-.002,0-.003-.002-.003-.003,0-.002-.002-.003-.004-.003-.017,0-.033-.002-.05-.002-.005,0-.005,0-.007.005-.003,0-.004-.003-.003-.007,0-.005.001-.01.002-.016.001-.007.002-.014.003-.022.002-.009.002-.018.003-.028,0-.007.003-.013.002-.02,0-.002,0-.003,0-.005.001-.004.002-.009.002-.013,0-.002,0-.004,0-.007.001-.004-.001-.007-.004-.009-.006-.008-.012-.017-.018-.025-.006-.009-.013-.018-.019-.027-.01-.016-.021-.031-.032-.047-.002-.003-.004-.004-.008-.004-.007,0-.015,0-.022,0-.014,0-.028-.001-.042-.002-.007,0-.015-.002-.022-.003-.009-.001-.017-.003-.026-.005-.013-.003-.027-.006-.04-.009-.008-.002-.017-.004-.026-.006-.012-.003-.023-.006-.035-.008-.01-.002-.02-.004-.03-.005-.003,0-.004,0-.005.003-.004.01-.009.019-.013.029,0,.002-.001.004-.004.004-.002-.002,0-.003,0-.005.004-.01.008-.019.013-.029,0-.001.001-.002.001-.004,0-.002-.003-.001-.004-.001-.003,0-.005.002-.007.003-.005.003-.006.002-.006-.003,0-.012,0-.023,0-.035,0-.001,0-.003,0-.004-.002.002-.003.005-.004.007-.003.006-.005.011-.008.017-.004.009-.008.017-.012.026-.004.008-.007.016-.01.023-.006.014-.012.028-.019.042-.007.016-.018.029-.032.04-.007.005-.013.011-.02.017-.001.001-.002.003-.003.004-.012.008-.022.018-.033.026,0,0,0,0,0,0-.007.006-.007.006-.003.015.003.008.006.016.009.024,0,.005.003.01.005.014.003.008.006.017.009.025.003.007.006.015.009.022,0,.001.002.003,0,.004-.002-.002-.004-.002-.006-.002-.017,0-.034,0-.051,0-.003,0-.004,0-.005.004-.002.001-.002,0-.002-.002-.001-.004-.002-.008-.003-.012,0-.003,0-.007-.001-.01,0-.004-.001-.007-.003-.011-.001-.003-.002-.007-.003-.011,0-.004-.002-.007-.003-.01,0-.004-.003-.008-.003-.013,0-.003-.002-.007-.003-.01-.003-.009-.004-.019-.003-.028.001-.007.006-.013.011-.019.001-.001.002-.002.003-.004.009-.009.018-.018.025-.028.005-.006.007-.013.007-.02,0-.009-.002-.017-.003-.026,0-.005-.002-.01-.003-.015-.001-.006-.001-.011-.003-.017-.001-.004-.002-.007-.002-.011,0-.004-.003-.007-.003-.011,0,0,0-.002-.002-.002-.001,0-.002,0-.002.002-.007.012-.015.023-.024.034-.001.001-.002.003-.004.004,0,0,0,0-.001,0,0-.002,0-.003.002-.004.01-.011.019-.024.027-.037.001-.002.001-.004,0-.006-.004-.012-.009-.024-.015-.035-.008-.015-.016-.031-.02-.048-.003-.012-.003-.024-.001-.036.004-.027.015-.051.033-.071.002-.003.002-.003,0-.005-.009-.004-.019-.007-.029-.009-.008-.002-.015-.002-.023-.002-.016,0-.031.004-.044.013-.004.002-.007.005-.01.008-.001.001-.002.003-.004.003,0,0,0,0,0-.001Z"/>
    <path class="cls-1" d="M.803.559s.004.001.006.002c.009.003.019.006.028.01.011.004.023.007.034.011.012.004.024.007.035.013.009.006.016.014.02.024.003.008.004.016.004.025,0,.02,0,.04,0,.061,0,.021-.009.036-.027.047-.014.009-.029.018-.043.027-.011.007-.021.013-.032.02-.003.002-.005.001-.005-.003,0-.025,0-.051,0-.076,0-.004,0-.005.005-.005.008,0,.015,0,.023,0,.007,0,.014.002.02.002.01,0,.015-.004.013-.013-.002-.011-.005-.021-.008-.031-.001-.005-.002-.01-.004-.015-.002-.005-.006-.008-.011-.009-.012-.002-.024-.003-.036-.005-.008,0-.015-.002-.023-.003-.009,0-.018-.003-.028-.003,0,0,.002-.002.003-.003.009,0,.018.002.028.004.007,0,.014.002.022.003.008.001.015.002.023.003.005,0,.009.001.014.002.006.001.01.005.012.011.003.011.006.022.008.033,0,.004.002.008.003.012.003.009-.003.017-.013.017-.004,0-.009,0-.013-.001-.001,0-.002,0-.003,0-.004,0-.008-.001-.012-.001-.002,0-.003,0-.005,0-.005,0-.01-.001-.015,0,0,0,0,0,0,.001,0,0,0,.002,0,.003,0,.024,0,.048,0,.072,0,0,0,.001,0,.002.002.002.002,0,.003,0,.011-.007.022-.014.033-.021.016-.01.032-.019.047-.03.007-.005.012-.012.015-.021.002-.005.003-.01.003-.016,0-.025,0-.049,0-.074,0-.013-.006-.023-.015-.032-.006-.006-.014-.009-.022-.012-.012-.004-.023-.008-.035-.012-.016-.005-.031-.011-.047-.016-.002,0-.004-.001-.005-.003,0,0,0,0,0-.001Z"/>
    <path class="cls-1" d="M.092.459h0s-.001.005-.003.006c-.007.008-.011.018-.014.027-.003.011-.004.022-.003.033.002.026.013.048.028.069.009.011.016.023.022.037.005.011.008.023.008.035,0,.009-.001.018-.004.027,0,.001,0,.002-.002.002-.001-.001,0-.002,0-.003,0-.005.002-.01.003-.016.002-.01,0-.02-.002-.03-.005-.021-.017-.038-.029-.056-.008-.012-.015-.024-.02-.037-.005-.014-.008-.028-.007-.042.001-.019.007-.036.02-.051,0,0,.001-.001.002-.002Z"/>
    <path class="cls-1" d="M.556.303s0,0,0,0c0-.005.003-.01.005-.015.002-.007.005-.014.007-.021.002-.007.004-.014.007-.02.002-.007.005-.014.007-.022.004-.011.008-.022.011-.033.002-.007.004-.014.007-.021.003-.009.006-.017.009-.026.002-.004.004-.009.005-.013.002-.009.009-.016.016-.02.009-.006.02-.008.03-.01,0,.001-.002.001-.003.002-.002.002-.006.002-.009.003-.009.003-.018.006-.025.013-.005.005-.007.011-.009.018-.003.011-.007.022-.011.033-.005.015-.01.029-.015.044-.006.017-.012.034-.017.051-.004.011-.008.023-.011.034,0,.001,0,.003-.002.004Z"/>
    <path class="cls-1" d="M.125.692s0,.002,0,.003c.001.001,0,.003,0,.004-.006.014-.015.027-.025.038-.003.003-.005.006-.008.009.013-.005.026-.011.038-.019.013-.008.025-.018.037-.029.003-.003.006-.005.008-.008.001-.001.002-.003.004-.003,0,0,0,0,.001,0-.003.005-.007.008-.011.012-.017.017-.036.031-.058.041-.007.004-.015.007-.023.01,0,0-.002.002-.003,0,0-.001,0-.002.001-.003.006-.006.011-.011.016-.018.009-.011.017-.023.022-.037,0,0,0-.001.001-.002Z"/>
    <path class="cls-2" d="M.178.688c-.005.006-.011.011-.016.016-.016.014-.033.026-.051.036-.006.003-.012.006-.018.008,0,0-.002.001-.003,0,0-.001,0-.002.001-.002.01-.011.02-.022.027-.035.003-.005.006-.01.007-.016.002-.002.002-.005.003-.008.003-.011.004-.022.002-.034-.003-.02-.012-.038-.024-.054-.007-.01-.015-.02-.02-.031-.005-.01-.009-.021-.011-.032-.002-.012-.002-.023-.001-.035,0-.007.003-.014.006-.021.004-.008.008-.015.014-.022.005-.005.011-.01.017-.014.007-.004.014-.007.022-.009.011-.003.021-.002.032-.002.008,0,.016.002.023.005.006.002.012.004.018.007.002,0,.003.002,0,.004-.01.01-.018.021-.023.034-.004.009-.007.018-.009.028-.002.008-.003.017-.003.025,0,.01.002.019.005.028.004.013.01.024.016.036.006.011.012.023.016.035,0,.002.001.004.002.006.001.003,0,.004-.002.007-.004.006-.008.012-.012.019-.005.007-.011.014-.017.021Z"/>
    <path class="cls-1" d="M.347.385s.006.003.01.005c.005.002.01.004.015.005.004,0,.007.002.011.002.012.002.023.002.035.002.002,0,.004,0,.006,0,.008,0,.015-.002.022-.003.005-.001.01-.003.015-.004.011-.003.02-.008.03-.015.003-.002.004-.005.007-.006.001.006.002.012.002.018,0,.016.003.033.004.049,0,.01.002.02.003.03,0,.005,0,.011.001.016,0,.003-.001.006-.004.008-.015.012-.032.02-.051.025-.012.003-.024.004-.036.004-.02,0-.039-.006-.056-.015-.004-.002-.006-.005-.006-.01-.001-.015-.003-.031-.004-.046,0-.009-.001-.017-.002-.026-.001-.011-.002-.023-.003-.034,0-.002,0-.003.001-.005Z"/>
    <path class="cls-1" d="M.861.718c.006.001.012.003.018,0,.006-.003.008-.009.006-.015-.001-.004-.002-.008-.003-.012,0-.004-.002-.008-.003-.011-.001-.004-.002-.009-.003-.013-.001-.004-.001-.008-.004-.011-.003-.005-.007-.007-.013-.008-.006,0-.013-.001-.019-.002-.003,0-.006,0-.01-.001-.008,0-.015-.003-.023-.003-.008,0-.017-.003-.025-.003-.002,0-.004,0-.006-.002.008-.01.015-.02.02-.033.004-.012.007-.025.006-.039,0-.002,0-.003,0-.005.01.004.02.006.03.01.009.003.018.006.026.009.011.004.022.007.033.011.015.005.026.015.032.03.002.004.003.008.003.013,0,.027,0,.053,0,.08,0,.011-.005.021-.013.029-.008.008-.018.013-.028.019-.007.004-.014.009-.021.013-.001,0-.002.002-.003.002-.001-.001-.001-.003-.001-.005,0-.016,0-.033,0-.049,0-.001,0-.002,0-.003Z"/>
    <path class="cls-1" d="M.347.385c.001.013.002.026.004.039.001.01.002.02.002.03.001.012.002.023.003.035,0,.003,0,.005,0,.008,0,.004.003.006.006.008.014.007.029.012.045.013.015.002.03,0,.044-.003.019-.004.037-.013.052-.025.003-.002.004-.005.003-.009,0-.008-.001-.016-.002-.024-.001-.012-.002-.024-.004-.036,0-.007,0-.014-.002-.02-.001-.009,0-.018-.003-.027,0-.001,0-.003,0-.004.004-.001.009-.002.014-.002.002,0,.003,0,.003.003,0,.012.003.024.004.036,0,.007.001.013.002.02.001.013.002.027.004.04.001.01.002.021.002.031,0,.005.001.01.002.016,0,.003,0,.005-.002.007-.009.009-.02.015-.031.021-.01.005-.02.009-.03.012-.008.002-.016.004-.025.004-.008,0-.015,0-.023,0-.01,0-.02-.002-.03-.004-.011-.002-.021-.007-.031-.011-.004-.002-.008-.004-.012-.007-.004-.003-.003-.007-.004-.011,0-.012-.002-.025-.003-.037,0-.012-.002-.024-.003-.036-.001-.011-.002-.021-.003-.032-.001-.007,0-.013,0-.02,0-.005-.002-.009-.002-.013,0-.002,0-.003.003-.003.005,0,.009,0,.014,0Z"/>
    <path class="cls-2" d="M.556.303c.003-.009.006-.019.01-.028.004-.011.007-.022.012-.033.003-.009.006-.018.009-.027.003-.009.006-.017.009-.026.004-.011.007-.022.011-.033.003-.01.006-.019.01-.029.003-.007.009-.011.015-.014.008-.004.016-.007.025-.008.001,0,.002,0,.002.002-.003.01-.006.02-.008.03-.002.008-.004.017-.007.025-.003.01-.006.021-.009.031-.003.008-.004.016-.007.023-.001.005-.003.009-.004.014-.003.009-.005.017-.008.026-.002.007-.005.015-.007.022-.002.008-.005.016-.007.023-.002.008-.005.015-.007.023-.002.005-.003.011-.005.016-.004.014-.009.027-.02.036-.009.008-.02.013-.032.014-.002,0-.003,0-.005,0-.004,0-.005-.001-.003-.005.004-.01.007-.02.01-.029.003-.009.007-.017.009-.026.002-.007.005-.014.007-.021,0-.002.002-.004.002-.006Z"/>
    <path class="cls-1" d="M.379.675s-.002.003-.002.005c-.004.01-.011.02-.018.028-.014.018-.028.035-.041.053-.002.002-.003.004,0,.007.01.017.019.035.029.052.004.006.007.013.01.019.004.007.008.015.013.022,0,0,.002.002,0,.003-.003,0-.005-.001-.008-.001-.017,0-.033,0-.05,0-.002,0-.004,0-.006,0-.003,0-.002-.002-.004-.004-.003-.008-.006-.016-.009-.023-.006-.015-.012-.029-.017-.044-.002-.005-.004-.01-.007-.016,0,0,0-.001,0-.002,0-.003.001-.004.003-.006.011-.009.022-.017.032-.028.01-.01.017-.022.022-.034.003-.008.007-.016.011-.024.005-.011.01-.021.014-.032.006-.015.013-.029.019-.044,0-.002.002-.004.003-.006,0,0,0-.002.001-.001.001,0,.001.001.002.002,0,.001,0,.003,0,.004,0,.01,0,.021,0,.031,0,.004,0,.005.004.003.002,0,.004-.002.006-.003.003-.001.006-.001.008,0-.002.007-.006.014-.009.021-.002.005-.005.01-.007.016Z"/>
    <path class="cls-1" d="M.921.218s.003.01.002.015c0,.007-.003.014-.007.02-.003.004-.012.005-.016.004-.006-.002-.011-.003-.017-.005-.004-.001-.007-.002-.011-.003-.002,0-.005-.002-.006,0,0,0,0-.001,0-.002h0s0,0,0-.001c.002-.006-.003-.008-.007-.011-.004-.003-.004-.004-.001-.009.005-.007.009-.015.014-.022.003-.005.006-.01.01-.015,0-.001.001-.002.002,0,.01.007.021.011.029.02.002.003.004.006.005.01,0,.002,0,.004.003.004.003,0,.002-.002.002-.004Z"/>
    <path class="cls-2" d="M.777.908c.004.009.007.017.011.026.001.003,0,.004-.002.004-.02,0-.04,0-.061,0-.002,0-.003,0-.004-.003-.002-.003-.002-.007-.003-.011-.002-.006-.003-.012-.005-.019,0-.006,0-.006.006-.006.017,0,.035.002.052.002.002,0,.003,0,.003.003,0,.001.001.003.002.004Z"/>
    <path class="cls-2" d="M.865.248s-.002.001-.003.001c-.005-.002-.011-.001-.016-.003-.004-.001-.006,0-.008.004-.005.009-.011.017-.016.026,0,.002-.002.003-.005.002-.002,0-.005-.001-.007-.001-.003,0-.003-.002-.002-.004.003-.005.005-.01.009-.015.005-.008.01-.017.015-.025.009-.014.017-.029.026-.044.002-.004.005-.008.007-.012,0-.002.002-.002.004-.001.003.002.005.003.008.005.002.001.002.003.001.005-.005.008-.009.015-.014.023-.004.007-.009.014-.013.021,0,.001-.001.002,0,.003.005.005.01.01.015.015,0,0,0,0,0,0Z"/>
    <path class="cls-2" d="M.716.125c-.007,0-.014,0-.021,0-.003,0-.004-.001-.005-.003-.003-.007-.005-.014-.007-.02,0-.001,0-.002,0-.002.003,0,.006-.002.01-.002.013,0,.027,0,.04.001.007,0,.013,0,.02,0,.001,0,.003,0,.003,0,0,0,0,.002-.001.003-.005.007-.01.014-.015.021-.001.001-.002.001-.004.001-.007,0-.014,0-.021,0Z"/>
    <path class="cls-1" d="M.264.906s.002.01.003.015c0,.004.002.009.003.013,0,.002,0,.003-.003.003-.019,0-.037,0-.056,0-.003,0-.004-.002-.005-.005-.002-.007-.003-.014-.006-.021,0-.001,0-.002,0-.003q0-.005.006-.005c.017,0,.035,0,.052,0,.003,0,.005,0,.006.003Z"/>
    <path class="cls-1" d="M.885.185s.004.002.006.004c-.002,0-.005,0-.006-.004Z"/>
    <path class="cls-1" d="M.897.193s.003.001.004.002c-.002,0-.004,0-.004-.002Z"/>
    <path class="cls-2" d="M.304.864s0-.002.003-.002c.02,0,.039,0,.059,0,.002,0,.003.001.005.002.003.004.002.009.005.013,0,.004.002.007.003.011.002.005.001.007-.004.007-.018,0-.036,0-.054,0-.004,0-.005,0-.007-.005-.001-.003-.003-.007-.004-.011,0,0,0,0,0,0-.003-.005-.005-.009-.005-.014Z"/>
    <path class="cls-1" d="M.31.879s.003.008.005.012c0,.002.002.003.004.003.019,0,.038,0,.057,0,.003,0,.004-.001.002-.004-.001-.004-.004-.008-.004-.013.003,0,0,.002.002.003,0,0,0,0,0,0,.002.004.004.008.004.013,0,.003-.001.004-.004.004-.019,0-.038,0-.057,0-.002,0-.004,0-.005-.003-.001-.005-.005-.009-.004-.014Z"/>
    <path class="cls-1" d="M.304.864s.004.01.005.014c0,0,0,0,0,0-.003-.004-.003-.008-.005-.012,0-.001,0-.003-.001-.004,0,0,0-.002,0-.002.002,0,.001.003.002.004Z"/>
    <path class="cls-2" d="M.861.718s0,.003,0,.004c0,.017,0,.035,0,.052-.006.004-.012.008-.018.012-.006.004-.011.007-.017.01,0,0-.002.002-.003,0,0,0,0-.002,0-.003,0-.025,0-.05,0-.075,0,0,0-.002,0-.003h0c.005,0,.01,0,.016,0,.002,0,.004,0,.006,0,.004,0,.008.001.012.001.001,0,.002,0,.003,0Z"/>
    <path class="cls-1" d="M.825.716c0,.027,0,.054,0,.081,0,0,0-.002,0-.003,0-.025,0-.05,0-.074,0-.001,0-.002,0-.003Z"/>
    <path class="cls-1" d="M.841.716c-.005,0-.01,0-.016,0,.005-.001.01,0,.016,0Z"/>
    <path class="cls-1" d="M.858.718s-.008,0-.012-.001c.004,0,.008,0,.012.001Z"/>
    <path class="cls-1" d="M.356.839c-.004-.005-.006-.011-.01-.017-.006-.01-.011-.02-.017-.03-.005-.009-.01-.017-.014-.026,0-.002,0-.003,0-.005.011-.014.021-.027.032-.041.009-.011.019-.022.025-.035.001-.002.002-.004.004-.006,0,.006-.004.01-.007.015-.011.016-.023.03-.035.046-.005.007-.011.014-.017.021-.002.002-.002.004,0,.006.008.014.015.027.023.041.006.01.012.02.017.031,0,0,0,0,0,0Z"/>
    <path class="cls-1" d="M.356.839s0,0,0,0c.004.006.007.012.011.018.004.006.005.013.007.019,0,0,0,.002,0,.003-.001,0,0-.002-.002-.003-.002-.004-.003-.008-.004-.012-.004-.007-.008-.015-.013-.022,0,0,0-.002,0-.003Z"/>
    <path class="cls-1" d="M.302.86s0,.002,0,.002c-.005-.013-.011-.027-.016-.04-.006-.014-.011-.028-.016-.042,0-.001-.002-.003-.002-.005,0,0,0,0,0,0,.004.01.008.02.012.029.003.007.006.014.008.021.004.009.008.019.011.028,0,.002.003.004.002.006Z"/>
    <path class="cls-2" d="M.231.906c.009,0,.018,0,.027,0,.003,0,.005.002.005.005,0,.005.002.01.003.015,0,.003.001.006.002.009,0,.002-.001.002-.003.002-.006,0-.012,0-.017,0-.011,0-.022,0-.033,0-.006,0-.006,0-.008-.006-.002-.007-.003-.014-.006-.021,0-.002,0-.003.003-.003.009,0,.018,0,.027,0Z"/>
  </g>
</svg>