<?xml version="1.0" encoding="UTF-8"?>
<svg id="Layer_1" data-name="Layer 1" xmlns="http://www.w3.org/2000/svg" version="1.1" viewBox="0 0 1 1">
  <defs>
    <style>
      .cls-1 {
        fill: #e92e00;
      }

      .cls-1, .cls-2 {
        stroke-width: 0px;
      }

      .cls-2 {
        fill: #000;
      }
    </style>
  </defs>
  <g>
    <rect class="cls-2" x=".5"/>
    <path class="cls-2" d="M.5,0h-.1.1ZM.5,0h0Z"/>
  </g>
  <g>
    <path class="cls-1" d="M.975.607s-.003.006-.004.01c-.011.029-.041.045-.071.039-.006-.001-.007-.004-.007-.009,0-.091,0-.183,0-.274,0-.006.001-.008.007-.01.028-.007.06.01.07.039.001.003.002.006.004.01v.196Z"/>
    <path class="cls-1" d="M.661.508c0-.064,0-.128,0-.192,0-.035.023-.06.056-.063.031-.003.061.021.065.051,0,.005,0,.01,0,.015,0,.126,0,.253,0,.379,0,.031-.015.055-.041.064-.04.014-.08-.015-.081-.058,0-.062,0-.124,0-.186,0-.003,0-.006,0-.01Z"/>
    <path class="cls-1" d="M.339.51c0,.065,0,.13,0,.195,0,.025-.012.044-.034.055-.022.011-.044.008-.064-.006-.017-.013-.024-.031-.024-.053,0-.121,0-.242,0-.364,0-.01,0-.021.001-.031.005-.032.033-.055.064-.053.033.003.057.028.057.062,0,.065,0,.13,0,.195Z"/>
    <path class="cls-1" d="M.202.511c0,.06,0,.12,0,.18,0,.008-.002.01-.01.012-.037.006-.071-.022-.071-.061,0-.065,0-.13,0-.195,0-.023,0-.047,0-.07,0-.037.032-.064.069-.061.008,0,.012.004.012.014,0,.06,0,.121,0,.181Z"/>
    <path class="cls-1" d="M.798.509c0-.06,0-.121,0-.181,0-.009.004-.012.012-.013.038-.004.068.023.069.063,0,.041,0,.082,0,.124,0,.045,0,.091,0,.136,0,.032-.019.056-.048.063-.002,0-.004,0-.006,0-.024.002-.027,0-.027-.024,0-.057,0-.113,0-.17Z"/>
    <path class="cls-1" d="M.66.466v.086h-.319v-.086h.319Z"/>
    <path class="cls-1" d="M.106.51c0,.046,0,.091,0,.137,0,.006-.002.008-.007.009-.036.008-.073-.019-.074-.056,0-.06,0-.12,0-.18,0-.037.037-.064.074-.056.005.001.007.003.007.009,0,.046,0,.092,0,.138Z"/>
  </g>
  <g>
    <path class="cls-2" d="M.981.607c0,.034-.074.091-.088.025-.002-.073-.014-.175-.011-.247.03-.09.11-.012.11.021.003.007-.012.194-.011.2h0ZM.981.607l-.011-.196c.007-.021-.074-.05-.051-.026.003.041-.003.082-.004.123l-.007.123c-.01.04.071.013.074-.025h0Z"/>
    <path class="cls-2" d="M.667.508c.013-.075-.059-.25.062-.265.12.01.062.193.08.267-.018.076.041.257-.082.266-.126-.045-.038-.184-.06-.267h0ZM.667.508c.021.082-.035.231.06.247.091-.018.028-.162.042-.245-.015-.084.05-.227-.04-.247-.098.013-.041.164-.062.245,0,0,.021-.081,0,0Z"/>
    <path class="cls-2" d="M.339.509c-.013.074.057.251-.06.266-.134-.048-.064-.303-.077-.413-.024-.157.176-.16.142.001,0,0-.005.145-.005.145H.339ZM.339.509c-.021-.081.036-.231-.061-.246-.091.018-.028.161-.042.245.007.088-.037.22.042.247.097-.015.039-.165.061-.246,0,0-.021.081,0,0Z"/>
    <path class="cls-2" d="M.202.51c-.016.065.05.161-.033.201-.099-.034-.05-.143-.067-.203.017-.059-.031-.171.069-.202.081.046.016.137.032.204,0,0-.015-.067,0,0ZM.202.51c-.011-.058.012-.178-.028-.184-.068.019-.025.116-.033.182.007.067-.035.163.031.184.043-.001.017-.125.03-.182,0,0-.012.057,0,0Z"/>
    <path class="cls-2" d="M.805.509c.016-.066-.05-.16.033-.203.099.034.05.143.068.204-.017.06.032.171-.069.202-.079-.042-.016-.137-.031-.203,0,0,.015.066,0,0ZM.805.509c.011.057-.011.18.028.183.067-.018.025-.116.033-.183-.007-.066.034-.164-.032-.184-.042.004-.017.126-.029.184,0,0,.012-.057,0,0Z"/>
    <path class="cls-2" d="M.66.466s.009.093,0,.09c-.012-.009-.357.041-.339-.004.006-.014-.008-.103.019-.102.001,0,.32.016.321.016h0ZM.66.466c.008-.009-.384.038-.304,0,0,0,.004.086.004.086l-.02-.02.319.016c-.01.021.003-.084,0-.082h0Z"/>
    <path class="cls-2" d="M.106.509c-.016.05.049.131-.032.156-.083-.016-.061-.112-.068-.157.007-.044-.015-.141.069-.156.08.027.016.106.031.157,0,0-.015-.051,0,0ZM.106.509c-.011-.042.012-.15-.028-.137-.057.011-.031.08-.032.136.001.056-.025.125.032.137.041.014.017-.095.029-.136,0,0-.012.041,0,0Z"/>
  </g>
</svg>