<?xml version="1.0" encoding="UTF-8"?>
<svg id="Layer_1" data-name="Layer 1" xmlns="http://www.w3.org/2000/svg" version="1.1" viewBox="0 0 1 1">
  <defs>
    <style>
      .cls-1, .cls-2, .cls-3, .cls-4, .cls-5 {
        fill: #e92e00;
      }

      .cls-1, .cls-6 {
        stroke-width: 0px;
      }

      .cls-2 {
        stroke-width: .01px;
      }

      .cls-2, .cls-3, .cls-7, .cls-4, .cls-5 {
        stroke: #000;
        stroke-linecap: round;
        stroke-miterlimit: 10;
      }

      .cls-6, .cls-7 {
        fill: #000;
      }

      .cls-3 {
        stroke-width: .011px;
      }

      .cls-7 {
        stroke-width: .005px;
      }

      .cls-4 {
        stroke-width: .008px;
      }

      .cls-5 {
        stroke-width: .007px;
      }
    </style>
  </defs>
  <g>
    <path class="cls-2" d="M.4204.089s-.0065-.0594.0046-.0557c0,0,.0074-.0241.0139-.0046.0001-.0001.0001-.0186.0085-.0158s.0019.0195.0019.0297.0074.0427.0074.0427l-.0362.0037h0Z"/>
    <g>
      <path class="cls-1" d="M.4074.2028s-.0217-.0271-.0217-.061.0244-.0488.0298-.0596.0163-.0203.0325-.0108c0,0,.0136-.0122.0285.0027,0,0,.0101-.0022.0074.0201s.0019.0213.0028.039-.0074.0473-.0111.0733-.0028.1865.0232.2292l.0334.051s.0213.0891.0232.1763-.0009.219-.0009.219c0,0-.0158.0111-.0343.0019,0,0-.0046-.052-.0148-.0798s-.0186-.0566-.0186-.0566c0,0-.0455.0093-.0752-.0028,0,0-.0065.0297-.0139.0631s-.0065.0844-.0065.0844c0,0-.0176.0084-.0297-.0037,0,0-.0158-.116-.0176-.1578s.0158-.2144.0399-.2682c0,0,.0399-.0464.0343-.2339,0,0,.0011-.0027-.0106-.0259h0Z"/>
      <path class="cls-6" d="M.407.203c-.0051-.0275-.0308-.0533-.0189-.0828.015-.0191.0267-.0644.061-.0508-.0027-.0054.0245-.0075.0291.0028l-.0019-.0006c.0307.0671-.0102.1422.0027.2123.0298.2106.1079.3643.0768.6004-.0109.007-.0295.0097-.0388-.0003-.003-.0428-.0284-.1051-.0297-.1327l-.0721-.0023-.0053-.0002c.0067.0266-.0185.1012-.0143.1465-.0116.0061-.0312.0074-.0389-.0063-.0024-.0714-.0292-.1427-.0096-.2141.0058-.1361.1024-.3594.0599-.4719H.407ZM.4079.2025c.0451.1188-.0471.3334-.0508.4729-.0211.0662.0102.1528.0078.2098.0058.0061.016.0063.0243.0028-.0059-.0319.0077-.1024.019-.1477.0023,0,.008.0003.0103.0003.0029,0,.0689.003.0712.003.0156.0427.0298.1002.032.1375.0759.0003.0158-.3036.0077-.3937-.099-.1134-.04-.2888-.0522-.4111-.0097-.0077-.0193-.0094-.0301-.0033-.0265-.0141-.0423.0296-.0564.048-.0121.028.0127.054.0173.0814h-.0001Z"/>
    </g>
    <path class="cls-2" d="M.3688.5563s.0232.0251.0316.0176.0074-.0139-.0028-.0371-.0139-.0353-.0139-.0353c0,0-.0093-.0204-.0241-.0046s-.0167.052-.0084.0659.0176-.0065.0176-.0065Z"/>
    <path class="cls-2" d="M.5361.5563s-.023.0251-.0312.0176-.0073-.0139.0028-.0371c.0101-.0232.0138-.0353.0138-.0353,0,0,.0092-.0204.0239-.0046s.0165.052.0083.0659-.0175-.0065-.0175-.0065h-.0001Z"/>
    <path class="cls-2" d="M.3967.4384s.0065.0223.0483.0223.0538-.0251.0538-.0251c0,0,.0056-.0056.013.0093s.0074.0158.0009.0213-.0223.0213-.0603.0195c0,0-.0557,0-.0687-.0232,0,0-.0065-.0102.0009-.0213s.0102-.0121.0121-.0028Z"/>
    <path class="cls-5" d="M.4649.0787s-.013.0015-.0138.0184.0161.0184.0161.0184c0,0,.0153.0008.0145-.0184s-.0168-.0184-.0168-.0184Z"/>
    <path class="cls-5" d="M.4353.0787s-.0158.0019-.0167.0223.0195.0223.0195.0223c0,0,.0186.0009.0176-.0223s-.0204-.0223-.0204-.0223Z"/>
    <path class="cls-2" d="M.4344.191s-.039.0056-.0288.0288.0399-.0084.0288-.0288Z"/>
    <path class="cls-2" d="M.4603.1957s.0056.039.0288.0288-.0084-.0399-.0288-.0288Z"/>
    <path class="cls-5" d="M.4492.1205c.0065-.0046.0136-.011.0179-.005s.0136.0171.0145.0329-.0046.0232-.0019.0362.0028.0408-.0232.0362-.0306-.0353-.0297-.064.0158-.0316.0223-.0362h.0001Z"/>
    <path class="cls-5" d="M.4659.1363s-.0223-.0084-.026.0139.0037.0529.013.0575.0204-.0019.0195-.039-.0065-.0325-.0065-.0325H.4659Z"/>
    <path class="cls-2" d="M.3614.8885s.0071.0254.0061.0458-.0009.0585.0065.0575.0074-.039.0084-.0399.0074.0371.0186.0362-.0037-.0371-.0037-.0371c0,0,.0139.0297.0241.0232s-.0093-.0297-.0139-.0436-.0141-.023-.0163-.0384c0,0-.0219.0043-.0297-.0037h0Z"/>
    <path class="cls-2" d="M.5201.8839s.0189.0071.0343-.0019c0,0-.0032.0431.0015.0625s.0019.0566-.0121.0065c0,0-.0065.0455-.0121.0399s-.0084-.0464-.0084-.0464c0,0-.0139.0334-.0167.0269s-.0009-.0176.0046-.0408.0109-.0416.0087-.0468h.0002Z"/>
    <path class="cls-3" d="M.452.4769s-.0316-.0139-.039-.0111-.0046.0334.0028.0325.0366-.0124.0366-.0124c0,0,.0238.0208.0293.0161s.0028-.0269.0019-.0334-.0316.0084-.0316.0084h0Z"/>
    <path class="cls-4" d="M.4409.4815s-.0019.0139.0102.013.013-.0074.013-.0148-.0084-.013-.0158-.0121-.0074.0139-.0074.0139Z"/>
    <ellipse class="cls-7" cx=".4351" cy=".0993" rx=".0031" ry=".0086"/>
    <ellipse class="cls-7" cx=".4699" cy=".096" rx=".0031" ry=".0086"/>
  </g>
  <path class="cls-6" d="M.535.2381c.0215.0257.0455.0507.0617.0794-.0231-.0245-.0439-.0519-.0617-.0794h0Z"/>
  <path class="cls-6" d="M.5557.2211c.0413.0223.0846.043.1221.0701-.0423-.0206-.0836-.0447-.1221-.0701h0Z"/>
  <path class="cls-6" d="M.5518.1985c.0477.0015.0965.0006.1431.008-.0478.0005-.0964-.0026-.1431-.008h0Z"/>
  <path class="cls-6" d="M.5423.1665c.0486-.016.0975-.0346.147-.0447-.0481.018-.098.0327-.147.0447h0Z"/>
  <path class="cls-6" d="M.5234.1364c.0294-.0246.0582-.0518.0907-.0712-.0282.0262-.0594.0502-.0907.0712h0Z"/>
</svg>