<?xml version="1.0" encoding="UTF-8"?>
<svg id="Capa_1" data-name="Capa 1" xmlns="http://www.w3.org/2000/svg" version="1.1" viewBox="0 0 1 1">
  <defs>
    <style>
      .cls-1 {
        fill: #e92e00;
      }

      .cls-1, .cls-2 {
        stroke-width: 0px;
      }

      .cls-2 {
        fill: #000;
      }
    </style>
  </defs>
  <g>
    <path class="cls-1" d="M.448.859c-.029,0-.057,0-.086,0-.031,0-.049-.019-.049-.05,0-.24,0-.48,0-.72,0-.032.019-.05.051-.05.09,0,.181,0,.271,0,.031,0,.049.018.049.05,0,.154,0,.308,0,.463,0,.086,0,.172,0,.258,0,.032-.017.05-.049.051-.029,0-.057,0-.086,0-.033,0-.067,0-.1,0ZM.499.538c.049,0,.089-.04.088-.089,0-.049-.041-.089-.09-.088-.048,0-.088.041-.088.089,0,.05.039.089.089.089ZM.587.204c0-.049-.041-.089-.09-.088-.048,0-.088.041-.088.089,0,.049.041.089.09.089.049,0,.089-.041.089-.09ZM.498.783c.05,0,.089-.039.089-.088,0-.049-.039-.09-.089-.089-.053,0-.089.041-.09.089,0,.05.039.089.089.089Z"/>
    <path class="cls-1" d="M.448.859c.033,0,.067,0,.1,0,0,.005,0,.01,0,.015,0,.238,0-.142,0,.097,0,.004,0,.009,0,.013-.033,0-.067,0-.1,0,0-.005,0-.011,0-.016,0-.237,0,.145,0-.092,0-.005,0-.011-.001-.016Z"/>
    <path class="cls-1" d="M.587.204c0,.049-.04.09-.089.09-.049,0-.089-.04-.09-.089,0-.048.04-.089.088-.089.049,0,.09.039.09.088Z"/>
    <path class="cls-1" d="M.498.783c-.05,0-.089-.039-.089-.089,0-.048.037-.088.09-.089.049,0,.088.04.089.089,0,.05-.039.088-.089.088Z"/>
  </g>
  <g>
    <g>
      <path class="cls-2" d="M.448.86c-.151.021-.143-.038-.141-.174-.002-.143,0-.432.002-.576-.02-.122.174-.063.24-.078.043.009.106-.026.139.033.013.21.002.51.002.722.019.127-.175.061-.242.073H.448ZM.448.858c.075-.022.242.048.229-.071-.005-.207,0-.512-.004-.717-.027-.052-.204-.015-.268-.028-.049-.01-.104.009-.088.068l.004.288c.021.342-.084.485.128.46H.448Z"/>
      <path class="cls-2" d="M.499.537c.104-.002.109-.178,0-.171-.1.003-.107.163,0,.171,0,0-.108-.007,0,0ZM.499.539c-.127.014-.128-.193,0-.185.122.003.126.194,0,.185H.499Z"/>
      <path class="cls-2" d="M.586.204c-.003-.105-.178-.108-.171.001.003.101.163.106.171-.001,0,0-.008.107,0,0ZM.588.204c.014.126-.193.13-.185.002.003-.122.194-.127.185-.002h0Z"/>
      <path class="cls-2" d="M.498.782c.105,0,.11-.178,0-.171-.101.001-.108.164,0,.171,0,0-.108-.007,0,0ZM.498.784c-.127.015-.127-.194,0-.185.123.002.125.196,0,.185H.498Z"/>
    </g>
    <path class="cls-2" d="M.448.859l.101-.006h.006c0,.024.002.079,0,.103-.027-.011-.007-.022-.012-.032-.006-.032.011-.041.009-.004l.003.065c.007.014-.11.006-.115.01,0-.004,0-.07,0-.076.009-.009-.02-.026.02-.029,0,.016-.001.05-.003.066-.028-.004-.007-.02-.012-.029l.003-.067H.448ZM.449.86l.005.065c-.006.009.016.026-.012.029-.001-.016-.003-.05-.003-.066.039.003.011.02.019.029-.004.002.009.094-.011.057-.002.003.123-.004.094.009-.003-.016.007-.144.011-.061-.006.011.015.022-.012.032-.002-.032-.003-.065,0-.097.031.017-.095-.003-.093,0H.449Z"/>
    <path class="cls-2" d="M.499.539c-.126.011-.123-.18,0-.185.128-.01.128.198,0,.185H.499ZM.499.537c.107-.008.099-.169,0-.171-.109-.006-.104.169,0,.171,0,0-.105-.001,0,0Z"/>
    <path class="cls-2" d="M.588.204c.01.125-.18.124-.185.002-.01-.128.197-.128.185-.002h0ZM.586.204c-.009-.107-.169-.099-.171.001-.006.11.169.103.171-.001,0,0-.002.104,0,0Z"/>
    <path class="cls-2" d="M.498.784c-.126.011-.122-.182,0-.185.128-.01.126.2,0,.185H.498ZM.498.782c.108-.007.101-.169,0-.171-.11-.008-.106.17,0,.171,0,0-.105,0,0,0Z"/>
  </g>
</svg>