<?xml version="1.0" encoding="UTF-8"?>
<svg id="Layer_1" data-name="Layer 1" xmlns="http://www.w3.org/2000/svg" version="1.1" viewBox="0 0 1 1">
  <defs>
    <style>
      .cls-1 {
        fill: #e92e00;
      }

      .cls-1, .cls-2 {
        stroke-width: 0px;
      }

      .cls-2 {
        fill: #000;
      }
    </style>
  </defs>
  <g>
    <polygon class="cls-1" points=".2615 .5569 .2925 .9041 .3127 .8995 .3111 .5476 .2615 .5569"/>
    <path class="cls-2" d="M.2623.5574c.0145.1143.0357.253.0293.3421.003.0002.0284-.0108.0157-.0001-.0007-.1136-.0155-.2506.0044-.3483,0,0-.0494.0063-.0494.0063H.2623ZM.2608.5563c.0021-.0004.0528-.0131.0536-.0132.0091.1187.0077.2375.0037.3563.0026.009-.0244.0074-.0298.0104-.0089-.1174-.0275-.2409-.0275-.3534H.2608Z"/>
  </g>
  <g>
    <polygon class="cls-1" points=".4817 .6421 .5127 .9894 .5328 .9847 .5313 .6328 .4817 .6421"/>
    <path class="cls-2" d="M.4824.6427c.0145.1143.0357.253.0293.3421.003.0002.0284-.0108.0157-.0001-.0007-.1136-.0155-.2506.0044-.3483,0,0-.0494.0063-.0494.0063H.4824ZM.4809.6416c.0021-.0004.0528-.0131.0536-.0132.0091.1187.0077.2375.0037.3563.0026.009-.0244.0074-.0298.0104-.0089-.1174-.0275-.2409-.0275-.3534H.4809Z"/>
  </g>
  <g>
    <polygon class="cls-1" points=".7421 .5476 .7731 .8948 .7932 .8902 .7917 .5383 .7421 .5476"/>
    <path class="cls-2" d="M.7428.5481c.0145.1143.0357.253.0293.3421.003.0002.0284-.0108.0157-.0001-.0007-.1136-.0155-.2506.0044-.3483,0,0-.0494.0063-.0494.0063h0ZM.7413.547c.0021-.0004.0528-.0131.0536-.0132.0091.1187.0077.2375.0037.3563.0026.009-.0244.0074-.0298.0104-.0089-.1174-.0275-.2409-.0275-.3534h0Z"/>
  </g>
  <g>
    <polygon class="cls-1" points=".5545 .4902 .5855 .8374 .6057 .8328 .6041 .4809 .5545 .4902"/>
    <path class="cls-2" d="M.5553.4908c.0145.1143.0357.253.0293.3421.003.0002.0284-.0108.0157-.0001-.0007-.1136-.0155-.2506.0044-.3483,0,0-.0494.0063-.0494.0063h0ZM.5538.4896c.0021-.0004.0528-.0131.0536-.0132.0091.1187.0077.2375.0037.3563.0026.009-.0244.0074-.0298.0104-.0089-.1174-.0275-.2409-.0275-.3534h0Z"/>
  </g>
  <g>
    <path class="cls-1" d="M.2507.5724c.0012,0,0-.045.0016-.045.0812,0,.3054-.0481.3054-.0481l.248-.0078s.0682.0419.0109.0837-.2465.1163-.2465.1163c0,0-.0713.031-.1395-.0016s-.1798-.0977-.1798-.0977Z"/>
    <path class="cls-2" d="M.2498.5721c-.0237-.0752.0905-.0476.1327-.0655.0999-.0309.3181-.0418.4229-.0386.0864.0402-.0021.1206-.0522.1316-.2122.1287-.3139.1076-.5034-.0275H.2498ZM.2516.5726c.2148.1243.2713.1284.4951.0138.0522-.0167.1298-.0689.0572-.1116-.1081.0008-.3088.0191-.4194.0434-.0452.0155-.1567-.0159-.1328.0545H.2516Z"/>
  </g>
  <g>
    <path class="cls-1" d="M.2507.529c.0062,0,.3069-.093.3069-.093l.2108.0341s.1054,0,.0481.0419-.2465.1163-.2465.1163c0,0-.0713.031-.1395-.0016s-.1798-.0977-.1798-.0977Z"/>
    <path class="cls-2" d="M.2498.5287c.1985-.0592.2635-.1325.5191-.0621.0153.0005.0917-.003.0593.0427-.0513.0342-.1871.0924-.2434.1217-.126.0683-.2382-.059-.335-.1023H.2498ZM.2516.5292c.2598.1605.3128.0969.5691-.0279.0271-.0213-.0309-.0274-.0529-.0279,0,0-.2112-.0307-.2112-.0307-.0844.0319-.203.055-.305.0864H.2516Z"/>
  </g>
  <g>
    <polygon class="cls-1" points=".2601 .1794 .2925 .529 .3065 .5278 .3168 .5209 .294 .1662 .2601 .1794"/>
    <path class="cls-2" d="M.2609.18c.0162.1144.0356.2544.0313.3442.011-.0009.0134-.001.0214-.0077-.0152-.0938-.0295-.248-.0186-.3473,0,0-.034.0109-.034.0109H.2609ZM.2593.1789c.002,0,.0362-.0175.0371-.0172.017.1201.0235.241.026.3621-.0081.0066-.0183.011-.0294.01-.0225-.1052-.0293-.2441-.0337-.3549H.2593Z"/>
  </g>
  <g>
    <polygon class="cls-1" points=".3378 .1633 .3727 .5061 .3879 .5061 .3978 .4998 .3716 .1554 .3378 .1633"/>
    <path class="cls-2" d="M.3386.1638c.017.113.0361.2481.0342.3376-.0004,0,.0218-.001.0125.0004.0135-.0827-.031-.2457-.0131-.3436,0,0-.0336.0056-.0336.0056H.3386ZM.337.1627c.0031.0016.0362-.0149.0374-.0075.0149.1152.0303.2355.0261.3491-.0067.0064-.0191.0078-.0278.0065-.0218-.1053-.0304-.2394-.0357-.3481H.337Z"/>
  </g>
  <g>
    <polygon class="cls-1" points=".4171 .1552 .4487 .4867 .462 .4908 .4738 .4808 .4543 .1471 .4171 .1552"/>
    <path class="cls-2" d="M.4178.1557c.0179.1103.03.2366.0328.3267.0092.0094.0212-.0085.018-.0014-.0077-.108-.0269-.2355-.0137-.3309,0,0-.037.0056-.037.0056H.4178ZM.4163.1546l.0372-.0106c.0248.1071.0207.2248.0255.3364-.0631.0677-.0528-.2645-.0627-.3258H.4163Z"/>
  </g>
  <g>
    <path class="cls-1" d="M.498.1212l.0255.3461s.0072-.0009.0118,0,.0113-.0095.0113-.0095l-.0199-.3474-.0286.0108Z"/>
    <path class="cls-2" d="M.4988.1217c.0135.1133.0306.2519.0243.3409.0127.0022.019-.0077.019-.0077-.0104-.0999-.0262-.2419-.0146-.342,0,0-.0287.0088-.0287.0088H.4988ZM.4972.1207l.0284-.0127c.0239.1124.0236.2361.0253.3528-.0124.012-.0218.0138-.0319.0095-.007-.1163-.0239-.2377-.0218-.3496H.4972Z"/>
  </g>
  <g>
    <path class="cls-1" d="M.2091.074c.0057-.0025.3137-.0413.3137-.0413,0,0,.0217-.0109.0202.0186s.0085.1195.0085.1195l-.3441.076-.0183-.1402s-.0078-.0202.0202-.0326Z"/>
    <path class="cls-2" d="M.2087.0732c.1012-.0171.2124-.0385.312-.0449.0433-.0101.0215.0794.0359.1419.0051.0124-.3424.0791-.3475.0847,0,0-.0092.0021-.0092.0021.0064-.0331-.04-.1727.0088-.1838H.2087ZM.2095.0749c-.0439.0093.0099.1451.0059.1708-.0567-.006.367-.0885.3308-.0743-.0066-.0289.0074-.1421-.0212-.1342-.1034.0203-.2086.0276-.3155.0378H.2095Z"/>
  </g>
  <g>
    <path class="cls-1" d="M.237.0678c.0057-.0025.3137-.0413.3137-.0413,0,0,.0217-.0109.0202.0186s.0085.1195.0085.1195l-.3441.076-.0183-.1402s-.0078-.0202.0202-.0326Z"/>
    <path class="cls-2" d="M.2366.067c.1012-.0171.2124-.0385.312-.0449.0433-.0101.0215.0794.0359.1419.0051.0124-.3424.0791-.3475.0847,0,0-.0092.0021-.0092.0021.0064-.0331-.04-.1727.0088-.1838H.2366ZM.2374.0687c-.0439.0093.0099.1451.0059.1708-.0567-.006.367-.0885.3308-.0743-.0066-.0289.0074-.1421-.0212-.1342-.1034.0203-.2086.0276-.3155.0378H.2374Z"/>
  </g>
</svg>