<?xml version="1.0" encoding="UTF-8"?>
<svg id="Capa_1" data-name="Capa 1" xmlns="http://www.w3.org/2000/svg" version="1.1" viewBox="0 0 2.83 1.03">
  <defs>
    <style>
      .cls-1 {
        fill: #fed875;
      }

      .cls-1, .cls-2, .cls-3, .cls-4, .cls-5 {
        stroke-width: 0px;
      }

      .cls-2 {
        fill: #febf6b;
      }

      .cls-3 {
        fill: #000;
      }

      .cls-4 {
        fill: #e56915;
      }

      .cls-5 {
        fill: #fca76d;
      }
    </style>
  </defs>
  <path class="cls-5" d="M.44.48s.02-.07.05-.1c.03-.04.08-.06.13-.07.06,0,.13,0,.19,0,0,0,0,0,0,0,0,0,0,0,0,0,0,0,0,0,0,0,.09,0,.18,0,.27,0,.03,0,.07,0,.1,0,.01,0,.03,0,.04.01.07.04.11.1.11.18,0,.07-.03.13-.1.17-.08-.05-.12-.14-.09-.23,0-.02,0-.02-.02-.02-.11,0-.21,0-.32,0-.02,0-.02,0-.02.02,0,.08,0,.17,0,.25,0,0,0,0,0,0-.06,0-.12,0-.18,0-.09,0-.16-.07-.18-.15,0,0,0,0,0,0v-.06Z"/>
  <path class="cls-1" d="M1.25.68c.06-.04.09-.09.1-.17,0,0,.02,0,.02,0,.34,0,.67,0,1.01,0,0,.08,0,.15-.03.22-.03.08-.05.16-.05.25,0,.01,0,.01-.01.01-.08,0-.16,0-.24-.01-.06,0-.13-.01-.19-.02-.09-.01-.18-.03-.26-.04-.23-.05-.45-.11-.67-.18-.04-.01-.08-.02-.12-.04,0,0,0,0,0,0,.12,0,.25,0,.37,0,.03,0,.05-.01.07-.02Z"/>
  <path class="cls-1" d="M2.38.51c-.34,0-.67,0-1.01,0,0,0-.02,0-.02,0,0-.08-.04-.14-.11-.18-.01,0-.03,0-.04-.01,0,0,.01,0,.02,0,.08-.02.15-.04.23-.06.07-.02.14-.03.21-.05.1-.02.2-.03.3-.04.05,0,.1-.01.16-.01.06,0,.13,0,.19,0,.02.08.06.16.07.24,0,.04.01.08,0,.12Z"/>
  <path class="cls-1" d="M2.3.14c-.06,0-.13,0-.19,0-.05,0-.1,0-.16.01-.1,0-.2.03-.3.04-.07.01-.14.03-.21.05-.08.02-.16.04-.23.06,0,0-.01,0-.02,0-.03,0-.07,0-.1,0-.09,0-.18,0-.27,0,.05-.02.11-.04.16-.05.14-.04.29-.09.43-.12.14-.03.29-.06.43-.08.08-.01.17-.02.25-.02.06,0,.12,0,.19,0,.01,0,.02,0,.02.02,0,.03,0,.07,0,.1Z"/>
  <polygon class="cls-2" points=".81 .31 .81 .31 .81 .31 .81 .31"/>
  <path class="cls-4" d="M1.25.68s-.05.02-.07.02c-.12,0-.25,0-.37,0,0-.08,0-.17,0-.25,0-.02,0-.02.02-.02.11,0,.21,0,.32,0,.02,0,.02,0,.02.02-.03.09,0,.18.09.23Z"/>
  <g>
    <path class="cls-3" d="M.44.49c.04-.18.23-.17.38-.17,0,0,.38,0,.38,0,.18.03.22.29.06.37-.09-.02-.14-.18-.1-.25-.08,0-.2,0-.28,0-.11-.02-.05.05-.07.27-.15.04-.4-.01-.37-.22H.44ZM.44.49c-.02.24.22.22.37.23.01-.09-.07-.31.07-.29.09,0,.2,0,.29,0,.02.04,0,.04,0,.06-.02.07.06.16.08.18.15-.08.11-.31-.06-.35,0,0-.38,0-.37,0-.14,0-.34-.02-.38.16H.44Z"/>
    <path class="cls-3" d="M1.25.68c.06-.03.09-.1.1-.17,0,0,1.03,0,1.03,0,.07.91-.83.35-1.57.21.11-.03.33.03.44-.03h0ZM1.25.68c-.12.05-.33.02-.44.03.48.14.97.28,1.47.28.04-.12.06-.36.1-.47,0,0-1.03,0-1.03,0,0,.06-.04.14-.1.17h0Z"/>
    <path class="cls-3" d="M2.38.52h-1.03c-.02-.08-.06-.17-.16-.18,0,0,0-.01,0-.01.37-.12.74-.18,1.12-.17.03.12.08.24.08.37h0ZM2.38.52c0-.12-.06-.26-.08-.37-.37-.01-.78.11-1.11.16.08,0,.19.14.15.19,0,0,1.03,0,1.03,0h0Z"/>
    <path class="cls-3" d="M2.3.15c-.38,0-.76.07-1.11.18,0,0-.41.02-.38-.02C1.29.17,1.83,0,2.3.05c0,0,0,.1,0,.1h0ZM2.3.15V.05C1.83-.02,1.25.24.82.31c.49.05.98-.19,1.48-.16h0Z"/>
    <path class="cls-3" d="M.81.32s0,.02,0,0c0-.03.01,0,0,0,0,0,0,0,0,0ZM.81.32s0,.02,0,0c-.01,0,0,0,0,0,0,0,0,0,0,0Z"/>
    <path class="cls-3" d="M1.25.68c-.07.04-.37.04-.45.03.01-.12-.06-.32.08-.28.08,0,.2,0,.29,0-.01.09-.01.2.09.25h0ZM1.25.68c-.09-.05-.12-.15-.09-.24-.03,0-.13,0-.17,0-.05.02-.2-.03-.18.04v.23c.08-.03.33.03.43-.03h0Z"/>
  </g>
</svg>