<svg id="Capa_1" data-name="Capa 1" xmlns="http://www.w3.org/2000/svg" version="1.1" viewBox="0 0 2.1 1"><defs><style>.cls-2,.cls-4{stroke-width:0}.cls-2{fill:#1d1d1d}.cls-4{fill:#febf6b}</style></defs><path class="cls-4" d="M.389.495z"/><path d="M.463.686H.454C.396.686.338.686.28.684A.188.188 0 0 1 .102.541C.101.537.102.531.096.528V.462C.106.445.108.426.117.409A.183.183 0 0 1 .279.307C.337.305.395.307.453.305v.248c0 .014.002.019.018.019h.314C.8.572.804.569.799.553A.187.187 0 0 1 .884.332a.186.186 0 0 1 .095.163C.971.595.923.654.827.681.785.687.743.684.701.685H.463v.001z" style="fill:#ef8c14;stroke-width:0"/><path class="cls-2" d="M.463.686C.322.689.129.703.094.528.066.315.294.283.455.299.461.296.457.31.458.311l.003.214C.429.598.614.549.742.564.864.593.691.43.887.327c.154.081.109.328-.059.357L.463.686zm0-.001L.827.68C1.195.562.778.055.797.571.718.576.602.571.521.573.485.579.435.575.451.525L.453.304C.386.311.308.3.238.313-.019.42.068.741.462.685h.001z"/><path d="M.463.686h.238c.042 0 .084.002.126-.004.004.006.01.007.016.008.075.02.15.041.226.058.068.015.135.032.203.044a4.284 4.284 0 0 0 .444.055c.061.004.123.007.185.004l-.008.114h-.132C1.737.957 1.712.96 1.687.958a3.295 3.295 0 0 1-.313-.036A5.93 5.93 0 0 1 .523.705C.503.699.482.694.463.684v.002z" style="fill:#e7b064;stroke-width:0"/><path class="cls-2" d="M.463.686.827.679c.342.114.742.149 1.083.174-.004.005 0 .135-.016.122C1.405.979.932.812.463.687V.686zm.001 0c.47.113.938.291 1.43.278-.002.005.007-.114.007-.113C1.421.881.944.644.464.685v.001z"/><path d="M.454.307V.305c.182-.058.364-.114.548-.16a4.06 4.06 0 0 1 .452-.09c.08-.011.16-.019.24-.023.06-.003.121-.006.181-.007.012 0 .018.002.017.016 0 .084.021.164.049.243a.586.586 0 0 1 .034.212H.977A.19.19 0 0 0 .882.333C.867.322.849.317.832.312.802.305.771.307.741.307H.452h.002z" style="stroke-width:0;fill:#fed875"/><path class="cls-2" d="M.453.307C1.431.062 2.02-.294 1.977.503L.979.498C.961.234.633.322.453.307zm.001 0C.63.321.97.231.98.494h.998C2-.325 1.282.126.455.307H.454z"/><g><path class="cls-4" d="M.979.495h.998a.617.617 0 0 1-.034.213 1.227 1.227 0 0 0-.042.143 3.123 3.123 0 0 1-.629-.059C1.204.78 1.137.763 1.069.748.993.731.918.709.843.69.837.688.831.688.827.682.923.655.971.596.979.496V.495z"/><path class="cls-2" d="M.98.494c.011 0 .996-.007 1.005-.006-.018.127-.036.254-.078.372A3.754 3.754 0 0 1 .825.682.205.205 0 0 0 .979.494H.98zM.979.495A.19.19 0 0 1 .828.68c.757.159 1.154.377 1.149-.185H.979z"/></g><g><path class="cls-4" d="M.454.685h.003L.456.686.454.685z"/><path class="cls-2" d="M.454.685V.681c0 .006.003-.021.005.013 0 0-.011-.008-.005-.009 0 0-.006 0 0 0zm.001 0z"/></g><g><path d="M.454.307h.289c.03 0 .061-.002.091.005a.13.13 0 0 1 .05.021.187.187 0 0 0-.085.221C.804.57.799.573.785.573H.471C.455.573.453.567.453.554V.308L.454.307z" style="fill:#dd8210;stroke-width:0"/><path class="cls-2" d="M.454.307C.588.318.776.271.897.333.786.389.804.487.803.578.72.585.608.576.524.578.492.585.433.578.451.528l.004-.22L.454.307zm0 .001v.219C.444.605.551.563.798.57.78.486.795.378.884.332.774.284.579.317.454.308z"/></g><path class="cls-4" d="M.389-1.618z"/></svg>