<?xml version="1.0" encoding="UTF-8"?>
<svg id="Capa_1" data-name="Capa 1" xmlns="http://www.w3.org/2000/svg" version="1.1" viewBox="0 0 1 1">
  <defs>
    <style>
      .cls-1 {
        fill: #d54122;
      }

      .cls-1, .cls-2 {
        stroke: #000;
        stroke-miterlimit: 10;
        stroke-width: .01px;
      }

      .cls-2 {
        fill: #000;
      }
    </style>
  </defs>
  <g id="dgk5av.tif">
    <g>
      <path class="cls-1" d="M.982.089c-.006-.016-.015-.03-.027-.041,0,0,0,0,0,0-.021-.02-.045-.032-.073-.037-.024-.004-.047,0-.07.009-.017.007-.031.018-.043.03-.114.115-.229.229-.343.343-.021.021-.041.041-.059.064-.022.029-.041.06-.056.094-.012.027-.023.054-.037.079-.021.036-.046.07-.076.1-.001.001-.003.002-.003.004.01.01.021.021.031.031.001.001.003.002.004.003,0,0,0,.001,0,.002.006.005.011.011.017.016.007.007.013.013.019.02.002,0,.003-.002.004-.003.018-.018.038-.035.059-.05.033-.024.068-.042.105-.057.056-.023.105-.055.148-.097.044-.043.087-.086.13-.13.08-.08.16-.16.24-.24.027-.027.04-.059.039-.098,0-.015-.004-.029-.009-.043Z"/>
      <path class="cls-1" d="M.158.915s-.002,0-.002-.001c-.002,0-.003-.001-.004-.002-.01-.01-.019-.019-.029-.029,0,0-.001-.002-.002-.003,0,0-.002,0-.003,0,0-.003-.003-.004-.004-.006-.009-.009-.017-.017-.026-.026-.002-.002-.004-.004-.004-.006-.005-.002-.007-.006-.011-.009-.011-.01-.024-.013-.037-.008-.029.01-.037.043-.015.065.014.014.028.028.042.042.001.001.002.003.004.003,0,0,0,.002.001.002.014.014.028.029.043.043.01.01.023.013.037.009.023-.007.035-.034.023-.055-.004-.007-.01-.012-.015-.018Z"/>
      <polygon class="cls-1" points=".158 .915 .156 .914 .159 .913 .159 .913 .158 .915"/>
      <path class="cls-2" d="M.245.787c-.005-.005-.011-.011-.017-.016,0,0,0-.001,0-.002-.001-.001-.003-.002-.004-.003-.01-.01-.021-.021-.031-.031-.002,0-.003.002-.004.003-.015.014-.029.029-.043.043-.02.02-.041.041-.061.061,0,.003.003.004.004.006.009.009.017.017.026.026.002.002.004.003.004.006,0,0,.002,0,.003,0,0,.001.001.002.002.003.009.01.019.019.029.029.001,0,.002.002.004.002,0-.001.002-.001.003-.002h0s.004-.002.005-.004c.027-.027.054-.054.081-.081.006-.006.013-.012.018-.019,0,0,0,0,.001-.001-.006-.007-.013-.013-.019-.02Z"/>
    </g>
  </g>
</svg>