<svg id="Capa_1" data-name="Capa 1" xmlns="http://www.w3.org/2000/svg" version="1.1" viewBox="0 0 1 1"><defs><style>.cls-1{fill:#ff94d1}.cls-1,.cls-2,.cls-3{stroke-width:0}.cls-2{fill:#000}.cls-3{fill:#d689ac}</style></defs><path class="cls-1" d="M.294.164c.009.031.03.05.056.066a.287.287 0 0 1 .102.1.186.186 0 0 1 .022.061c.001.008.005.015.015.015C.499.406.503.4.505.392A.228.228 0 0 1 .589.258.313.313 0 0 1 .631.229C.656.213.677.194.685.164h.046a.223.223 0 0 1 .07.127.209.209 0 0 1-.032.148.749.749 0 0 0-.044.084C.721.53.72.539.718.547.717.553.714.555.708.557A.184.184 0 0 1 .612.554.2.2 0 0 1 .511.497C.507.493.503.489.497.486.489.483.482.483.476.49a.21.21 0 0 1-.12.067.19.19 0 0 1-.079.002C.268.557.264.553.261.544A.378.378 0 0 0 .212.443.217.217 0 0 1 .178.33.23.23 0 0 1 .242.171L.248.165h.046z"/><path class="cls-2" d="M.294.164C.561.413.426.471.57.272A.528.528 0 0 0 .685.161c.144-.006.149.225.072.31-.012.154-.2.072-.266.02C.432.551.24.623.225.474.169.383.144.164.294.164zm0 0C.145.165.172.382.228.472.249.62.42.545.492.484.574.53.729.625.749.466.82.377.817.242.729.167.741.167.672.17.688.165.618.252.527.301.49.407.446.312.361.248.294.164z"/><path class="cls-3" d="M.727.78a.918.918 0 0 0-.068.039L.636.809A.446.446 0 0 0 .399.791a.38.38 0 0 0-.08.028A.918.918 0 0 0 .251.78L.252.778.333.713C.337.71.34.707.341.703.341.694.334.692.328.689L.213.635C.204.631.201.624.205.615L.215.59C.218.582.224.579.233.581l.195.058a.222.222 0 0 0 .13-.002L.75.58C.757.578.76.58.762.587a.305.305 0 0 0 .013.032C.779.627.776.631.769.634a6.45 6.45 0 0 0-.12.056C.643.693.637.695.637.704c0 .003.002.005.004.007l.042.034c.014.012.03.022.043.036z"/><path class="cls-2" d="M.727.78C.627.866.492.724.32.821A.343.343 0 0 1 .248.778C.349.693.365.706.234.649.175.649.213.544.259.582a.585.585 0 0 0 .466.001C.769.546.8.651.743.645.616.696.625.699.727.778zm0 0C.698.754.663.732.636.703.682.671.842.606.725.589a.595.595 0 0 1-.47.004c-.117.009.04.073.088.112C.314.732.277.768.251.778c0 0 .075.043.066.039C.494.721.624.865.726.78z"/><path class="cls-1" d="M.319.819a.33.33 0 0 1 .08-.028.446.446 0 0 1 .237.018l.023.01A.358.358 0 0 0 .53.98C.528.984.526.986.522.987a.106.106 0 0 1-.066 0C.452.985.449.983.447.979a.367.367 0 0 0-.129-.16z"/><path class="cls-2" d="M.319.819C.416.767.589.773.662.822.582.859.544 1.014.489.99.434 1.013.401.856.319.819zm0 0c.085.038.121.191.17.165.052.018.046-.052.077-.079C.588.878.634.817.657.823A.438.438 0 0 0 .318.819h.001z"/><path class="cls-1" d="M.727.78C.714.767.698.756.684.744L.642.71.638.703h.156c.009 0 .014.002.017.01a.592.592 0 0 0 .012.025c.003.006.002.01-.005.011a.414.414 0 0 0-.09.03z"/><path class="cls-2" d="M.727.78C.702.753.649.733.637.7h.156C.878.749.765.769.727.78zm0 0C.758.765.868.75.793.707H.637c.025.01.059.052.09.074z"/><g><path class="cls-1" d="M.341.703S.337.71.333.713L.252.778.251.78a.414.414 0 0 0-.09-.03C.154.749.152.745.156.739A.26.26 0 0 0 .17.71C.173.704.178.703.184.703h.158-.001z"/><path class="cls-2" d="M.341.703A.746.746 0 0 1 .25.782L.161.755C.13.66.296.713.341.703zm0 0C.297.712.149.681.163.746l.089.032C.268.758.318.731.341.704z"/></g><g><path class="cls-3" d="M.294.164H.248A6.1 6.1 0 0 0 .255.029c0-.004.001-.006.006-.006C.287.022.287.021.288.047l.006.117z"/><path class="cls-2" d="M.294.164C.22.171.253.164.25.029c.068-.048.035.107.044.135zm0 0C.281.123.305.013.26.03.253.178.227.164.294.164z"/></g><g><path class="cls-3" d="M.731.164H.685C.687.119.689.074.693.029.694.017.707.025.714.024c.004 0 .01-.004.01.005l.007.135z"/><path class="cls-2" d="M.731.164s-.048.004-.048 0C.686.146.673-.044.727.033L.73.164zm0 0C.718.081.735.009.697.029.69.177.663.163.731.164z"/></g></svg>