<?xml version="1.0" encoding="UTF-8"?>
<svg id="Capa_1" data-name="Capa 1" xmlns="http://www.w3.org/2000/svg" version="1.1" viewBox="0 0 2.81 1">
  <defs>
    <style>
      .cls-1 {
        fill: #e54e92;
      }

      .cls-1, .cls-2, .cls-3, .cls-4, .cls-5 {
        stroke-width: 0px;
      }

      .cls-2 {
        fill: #b5236c;
      }

      .cls-3 {
        fill: #000;
      }

      .cls-4 {
        fill: #ea75b0;
      }

      .cls-5 {
        fill: #d44e1d;
      }
    </style>
  </defs>
  <g>
    <g>
      <path class="cls-1" d="M1.67.94c-.05,0-.1,0-.15-.04-.05-.03-.09-.05-.14-.08-.01-.04-.01-.07,0-.11,0-.04.02-.08.04-.11.01-.02.03-.04.04-.05.02-.03.03-.06,0-.09-.02-.02-.03-.04-.05-.06-.04-.07-.05-.14-.03-.22.04-.02.09-.04.13-.07.04-.02.08-.04.12-.04,0,.12,0,.25,0,.37,0,0,0,.01,0,.02-.02.01-.05.02-.07.02-.02,0-.02,0-.02.02,0,.01,0,.02.02.02.04,0,.07.02.1.04,0,0,0,.01,0,.02,0,.12,0,.23,0,.35Z"/>
      <path class="cls-1" d="M1.13.29s.02,0,.02-.02c.03-.05.05-.11.07-.16t.03-.01s.02,0,.04.01t.01.03c-.03.09-.05.18-.08.27-.02.06-.02.12,0,.18.03.09.05.18.08.27,0,0,0,.01,0,.02-.02,0-.03.01-.05.02-.01,0-.02,0-.02,0-.03-.06-.05-.11-.08-.17,0,0,0-.02-.02-.02,0,0,0,0-.01,0-.02.02-.03.04-.05.06-.02.02-.03.04-.05.06-.02-.03-.03-.06-.05-.09,0-.01,0-.02.01-.03.02-.05.03-.11.04-.16,0-.06,0-.11-.01-.17,0-.04-.02-.08-.04-.11.02-.03.04-.06.05-.09,0,0,0,0,0,0,.03.04.06.07.09.11,0,0,0,0,.01.01Z"/>
      <path class="cls-4" d="M.97.26s.03.07.04.11c.01.06.02.11.01.17,0,.06-.01.11-.04.16,0,.01,0,.02-.01.03-.06-.08-.13-.14-.22-.18,0,0,0,0-.01-.01-.01-.03-.01-.06,0-.09,0,0,0,0,.01-.01.09-.04.16-.1.22-.18Z"/>
      <path class="cls-1" d="M1.64.45s0-.01,0-.02c0-.12,0-.25,0-.37.03,0,.05,0,.08,0,.06.01.12.05.17.09,0,.02,0,.04,0,.06-.04.01-.07.04-.09.08-.04.06-.08.11-.14.14,0,0,0,0-.01,0Z"/>
      <path class="cls-1" d="M1.67.94c0-.12,0-.23,0-.35,0,0,0-.01,0-.02.05.03.08.07.11.12.01.02.02.04.04.05.02.02.03.03.06.03,0,.02,0,.04,0,.06-.06.06-.13.1-.21.1Z"/>
      <path class="cls-4" d="M1.38.17c-.02.08-.01.15.03.22.01.02.03.04.05.06.03.03.02.06,0,.09-.01.02-.03.03-.04.05-.03.03-.03.07-.04.11,0,.04,0,.07,0,.11,0,0-.01,0-.02,0-.03,0-.03,0-.03-.04,0-.06,0-.11.03-.16.01-.03.03-.06.06-.09,0,0,0,0,.01-.01.01-.02.01-.03,0-.04-.02-.02-.05-.05-.06-.08-.02-.05-.03-.1-.04-.15,0-.01,0-.02,0-.03,0-.02.01-.03.03-.03,0,0,.01,0,.02,0Z"/>
      <path class="cls-4" d="M1.03.83s.03-.04.05-.06c.02-.02.03-.04.05-.06,0,0,0,0,.01,0,0,.07,0,.14,0,.22,0,.01,0,.02-.01.02-.01,0-.02.01-.04.02,0,0-.01,0-.02,0,0-.04-.02-.08-.04-.13Z"/>
      <path class="cls-4" d="M1.13.29s-.01,0-.01-.01c-.03-.04-.06-.07-.09-.11,0,0,0,0,0,0,.02-.04.03-.08.04-.13,0,0,0-.01.02,0,.01,0,.03.01.04.02,0,0,0,.01,0,.02,0,.07,0,.14,0,.2,0,0,0,.01,0,.02Z"/>
      <path class="cls-2" d="M1.88.23s0-.04,0-.06c.06,0,.12,0,.19.01,0,0,0,0,0,0,0,.04,0,.04-.03.04-.05,0-.11,0-.16,0Z"/>
      <path class="cls-2" d="M1.88.84s0-.04,0-.06c.06,0,.12,0,.19.01.02,0,0,.02,0,.03,0,0,0,.01,0,.01-.06,0-.12,0-.19.01Z"/>
    </g>
    <rect class="cls-5" x="1.47" y=".45" width=".01" height="0" transform="translate(1.93 -1.02) rotate(90)"/>
  </g>
  <g>
    <path class="cls-3" d="M1.67.94c-.1-.02-.2-.05-.29-.11-.04-.14.05-.23.1-.33-.04-.1-.15-.19-.1-.33.08-.05.17-.1.26-.11,0,.13,0,.26,0,.39-.03.02-.11.02-.08.06.18.06.11.06.12.42h0ZM1.67.94c-.01-.37.06-.36-.12-.42-.04-.05.07-.06.08-.06,0-.13-.01-.28,0-.38-.09.02-.18.07-.25.1-.05.13.05.22.1.32-.05.1-.13.19-.1.33.09.05.18.1.29.11h0Z"/>
    <path class="cls-3" d="M1.13.29s.05-.1.08-.15c-.01-.08.14-.04.08.02-.09.22-.09.44,0,.66.05.06-.1.11-.09.03-.09-.21-.06-.14-.18-.02,0,0-.05-.09-.05-.09.05-.15.08-.32,0-.47,0,0,.05-.09.05-.1.04.04.07.09.11.13h0ZM1.13.29s-.07-.09-.11-.12c0,0-.06.1-.05.09.07.14.05.34,0,.47,0,0,.05.09.05.09.1-.15.11-.17.19.02,0,.08.11.03.07-.02-.09-.22-.09-.44,0-.66.05-.06-.09-.1-.08-.02-.03.05-.04.11-.08.15h0Z"/>
    <path class="cls-3" d="M.97.26c.07.15.06.33,0,.48-.04-.05-.08-.09-.12-.12-.03-.04-.14-.04-.11-.12-.04-.07.17-.11.24-.24h0ZM.97.26c-.06.13-.27.17-.23.24-.03.07.07.07.11.11.04.03.11.09.12.13.05-.15.08-.32,0-.47h0Z"/>
    <path class="cls-3" d="M1.64.45c0-.24-.1-.57.25-.29,0,0,0,.07,0,.07-.1.05-.15.16-.24.22h0ZM1.64.45c.09-.06.15-.19.24-.23,0,0,0-.06,0-.06-.34-.25-.22.05-.24.29h0Z"/>
    <path class="cls-3" d="M1.67.94v-.37c.08.04.12.17.21.21.02.11-.12.16-.21.16h0ZM1.67.94c.09,0,.23-.06.21-.16-.08-.03-.14-.14-.21-.2.02-.02,0,.37,0,.37h0Z"/>
    <path class="cls-3" d="M1.38.17c-.05.14.05.22.1.32-.07.16-.11.12-.1.33-.1,0-.03-.11-.04-.16,0-.07.07-.11.09-.17-.05-.05-.18-.31-.05-.32h0ZM1.38.17c-.13.01,0,.27.06.32-.02.06-.09.1-.09.17,0,.05-.06.16.03.15-.05-.14.06-.22.09-.32-.04-.1-.15-.19-.09-.32h0Z"/>
    <path class="cls-3" d="M1.03.83c.16-.23.1-.07.11.09,0,.04-.08.06-.08.01l-.03-.1h0ZM1.03.83c.03.07.03.2.1.09,0,0,0-.22,0-.22-.02.04-.07.08-.1.12h0Z"/>
    <path class="cls-3" d="M1.13.29s-.08-.08-.11-.13c0,0,.04-.13.04-.13.11-.05.06.19.07.25h0ZM1.13.29c0-.07.03-.27-.06-.25,0,0-.04.13-.04.13.03.03.06.09.1.12h0Z"/>
    <path class="cls-3" d="M1.88.23c0-.1,0-.06.19-.06.06.09-.15.05-.19.06h0ZM1.88.23s.14-.01.18-.01c.02,0,.01-.03,0-.04h-.19s0,.05,0,.05h0Z"/>
    <path class="cls-3" d="M1.88.84c0-.1,0-.06.11-.06.03.01.09-.02.09.03,0,.05-.14.02-.2.03h0ZM1.88.84s.21,0,.19-.03c.01-.03-.06-.01-.08-.02-.12,0-.1-.03-.11.05h0Z"/>
  </g>
</svg>