<svg id="Capa_1" data-name="Capa 1" xmlns="http://www.w3.org/2000/svg" version="1.1" viewBox="0 0 2.81 1.01"><defs><style>.cls-1{fill:#f2b0ae}.cls-1,.cls-10,.cls-2,.cls-3,.cls-4,.cls-6,.cls-8{stroke-width:0}.cls-2{fill:#af6f6d}.cls-3{fill:#fcc00e}.cls-4{fill:#000}.cls-6{fill:#f1a5a3}.cls-8{fill:#ef9694}.cls-10{fill:#ed7975}</style></defs><path d="M.9.28s.08-.06.13-.07L2.14.03h.21s0 .01.01.02v.88c0 .03-.01.04-.04.04h-.11c-.1 0-.2-.02-.3-.03-.3-.04-.59-.07-.89-.11C.97.83.92.81.89.77.87.74.85.71.85.68V.42c0-.05 0-.1.04-.14Zm.98.4c.11-.09.1-.25.02-.34-.09-.1-.25-.11-.34-.02-.1.09-.1.24-.02.34.09.1.25.11.34.02ZM1.21.32H1.12c-.02 0-.02.01-.02.03V.7c0 .02 0 .03.03.03h.08c.02 0 .03-.01.03-.03V.33ZM1.48.3s.02.02.04.03c.01 0 .02 0 .01-.01a.09.09 0 0 0-.06-.06h-.02v.02c0 .01.01.02.02.03Zm.25.57c.01-.02.01-.08 0-.09h-.02c-.01.03-.01.06 0 .09 0 0 0 .01.02 0Zm0-.63V.15c0-.01-.01-.01-.02 0-.01.03-.01.06 0 .09 0 .01.01 0 .02 0Zm-.28.28s.01-.02 0-.02a.139.139 0 0 0-.09 0s-.01 0 0 .01h.1Zm.5-.23s.02-.02.03-.04V.23h-.01a.09.09 0 0 0-.06.06V.3h.02c.01 0 .02-.01.03-.03Zm-.44.46s.02-.02.03-.04c0-.01 0-.02-.01-.02-.02 0-.06.04-.07.06 0 .01 0 .02.02.01.01 0 .02-.01.03-.02Zm.48-.26v.02h.07c.01 0 .03 0 .03-.02 0-.01-.02-.01-.03-.02h-.07Zm-.06.24s.02.02.04.03h.01V.75a.09.09 0 0 0-.06-.06h-.01v.02c0 .01.01.02.02.03Zm.05-.35s-.01 0 0 .02H2s.02 0 .03-.01V.37h-.02c-.01 0-.02 0-.03.01ZM1.6.21s0-.01-.02 0v.01c0 .02 0 .03.02.04h.02V.25c0-.01 0-.02-.01-.03Zm.25.55h-.02v.01c0 .01 0 .02.01.03h.02V.79c0-.01 0-.02-.01-.03ZM1.42.4s.02.01.03.01h.01V.4S1.44.39 1.43.39h-.02v.02Zm.42-.16s.02-.03.01-.04h-.01c-.02 0-.02.02-.02.04v.02h.02Zm.14.38s.02.01.04.01c.01 0 .02-.01 0-.02C2.02.6 2 .59 1.98.59h-.01v.02Zm-.36.19s.02-.04.01-.04h-.02c-.01.01-.02.04 0 .04h.02Zm-.2-.19s-.01.01 0 .02h.02c.01 0 .02 0 .03-.01V.61h-.01c-.01 0-.02 0-.03.01Z" style="fill:#f77915;stroke-width:0"/><path class="cls-3" d="M.9.28S.86.37.86.42v.26c0 .04.02.07.04.09C.89.8.86.8.83.8h-.3L.51.78V.32C.51.27.53.25.58.25h.25c.03 0 .05 0 .06.03ZM1.88.68c-.09.09-.25.09-.34-.02a.249.249 0 0 1 .02-.34c.09-.08.25-.08.34.02.08.09.09.24-.02.34ZM1.8.31c.04.06.09.12.14.18 0-.08-.07-.17-.14-.18ZM1.21.32v.37c0 .02 0 .03-.03.03H1.1c-.02 0-.03 0-.03-.03V.34c0-.02 0-.03.02-.03H1.18ZM1.48.3S1.46.28 1.46.27V.25h.02c.03.01.05.03.06.06 0 .01 0 .02-.01.01-.02 0-.03-.02-.04-.03ZM1.73.87h-.02a.139.139 0 0 1 0-.09s.01-.01.02 0 .01.08 0 .09ZM1.73.24h-.02a.139.139 0 0 1 0-.09c0-.01.01-.01.02 0 .01.03.01.06 0 .09ZM1.45.52H1.35V.51c.02-.01.07-.01.09 0 0 0 .01.01 0 .02ZM1.95.29l-.03.03H1.9V.31a.09.09 0 0 1 .06-.06h.01v.02c0 .02-.02.03-.03.04ZM1.51.75s-.02.02-.03.02c-.01 0-.02 0-.02-.01 0-.02.05-.06.07-.06.01 0 .01 0 .01.02s-.02.03-.03.04ZM1.99.49s.04-.01.07 0c.01 0 .03 0 .03.02s-.02.02-.03.02h-.07s-.01 0 0-.02ZM1.93.73S1.91.71 1.91.7V.68h.01c.03.01.05.03.06.06v.01h-.01c-.02 0-.03-.02-.04-.03ZM1.98.38S2 .37 2.01.37h.02v.02S2.01.39 2 .4h-.02V.38ZM1.6.21s.01.02.01.03v.01h-.02a.076.076 0 0 1-.02-.04V.2h.02ZM1.85.76s.01.02.01.03V.8h-.02S1.83.78 1.83.77V.76h.02ZM1.42.4V.38h.02c.01 0 .02 0 .03.01V.4h-.01c-.01 0-.03 0-.03-.01ZM1.84.24h-.02V.22c0-.02 0-.03.02-.04h.01c0 .01 0 .03-.01.04ZM1.98.62V.6h.01c.01 0 .03 0 .04.02v.02c-.01 0-.03 0-.04-.01ZM1.62.81s-.01.01-.02 0V.77h.02s0 .03-.01.04ZM1.42.62s.02-.01.03-.01h.01v.02s-.02.01-.03.01h-.02V.62Z"/><path d="M1.8.31c.07.01.14.11.14.18C1.89.43 1.85.37 1.8.31Z" style="fill:#fefefe;stroke-width:0"/><path class="cls-4" d="M.9.28c.14-.12.52-.11.71-.16.24-.02.52-.14.75-.07l.01.73c.02.18 0 .22-.19.2-.23-.02-.85-.1-1.09-.13C.96.86.84.77.85.64.85.52.81.39.88.28Zm0 0C.83.38.88.52.87.64c0 .13.11.22.24.21.24.03.85.11 1.08.12.18.02.19-.02.18-.19L2.36.05c-.22-.06-.51.05-.75.07-.2.05-.57.04-.71.16Z"/><path class="cls-4" d="M1.88.68c.23-.2-.1-.56-.32-.35-.23.2.09.57.32.35Zm0 0C1.65.9 1.32.53 1.55.32c.23-.22.57.16.33.36ZM1.21.32c-.17-.05-.12.07-.1.39.14.02.13.03.1-.39Zm0 0c0 .19.09.47-.11.4-.02-.36-.05-.45.11-.4Z"/><path class="cls-4" d="M1.48.3s.08.04.02 0c-.03-.05-.07-.04-.02 0Zm0 0c-.05-.05 0-.07.03-.02.05.05.02.06-.03.02ZM1.73.87s0-.1-.01-.09c-.01.02-.02.1.01.09Zm0 0S1.71.84 1.7.83c0-.14.08-.03.03.04ZM1.73.24C1.74.17 1.71.1 1.7.2c0 .01 0 .06.03.04Zm0 0s-.04-.07-.02-.1c.04-.03.03.08.02.1ZM1.45.52S1.39.49 1.37.5c-.02.03.05.02.08.02Zm0 0h-.06s-.06 0-.03-.03c.03-.01.12-.01.09.03ZM1.95.29s.02-.07-.02-.02c-.05.04-.03.06.02.02Zm0 0s-.03.04-.05.03c0-.03.02-.03.03-.05.02 0 .02-.04.05-.03 0 .02-.02.03-.03.05 0 0 0-.02 0 0ZM1.51.75s.03-.03.03-.05c-.04-.02-.12.12-.03.05Zm0 0c-.05.05-.07 0-.02-.04.05-.05.07 0 .02.04ZM1.99.49s.02.02.04.02c.11 0 .03-.04-.04-.02Zm0 0c.1-.04.14.04.04.03-.01 0-.06 0-.04-.03ZM1.93.73s.03.03.05.03c.03 0-.12-.13-.05-.03Zm0 0c-.05-.05 0-.06.03-.02.05.05 0 .06-.03.02ZM1.98.38s.03.02.04 0c.02-.02-.02-.02-.04 0 0 0 .02-.01 0 0Zm0 0s.07-.02.04.02c-.01.02-.08 0-.04-.02 0 0-.03.02 0 0ZM1.6.21s-.01.03 0 .04c.02.01.02-.02 0-.04 0 0 .01.02 0 0Zm0 0s.03.06-.01.05C1.58.24 1.57.18 1.6.21c0 0-.03-.03 0 0ZM1.85.76s-.02.03 0 .04c.03.02.02-.02 0-.04 0 0 0 .02 0 0Zm0 0s.03.07-.02.05c-.01-.02-.02-.07.02-.05 0 0-.03-.02 0 0ZM1.42.4s.06.01.04 0C1.45.39 1.4.37 1.42.4c0 0-.02-.03 0 0Zm0 0s.03-.03.05-.02c.02.04-.04.03-.05.02 0 0 .01.01 0 0ZM1.84.24s.02-.05 0-.04c-.02 0-.03.06 0 .04 0 0-.03.02 0 0Zm0 0s-.04-.05 0-.05.01.04 0 .05c0 0 0-.01 0 0ZM1.98.62s.06.02.04 0c-.01 0-.06-.03-.04 0 0 0-.02-.04 0 0Zm0 0s.04-.02.05-.01c0 .04-.04.01-.05.01 0 0 .01 0 0 0ZM1.62.81s.01-.06 0-.04c-.02 0-.02.06 0 .04 0 0-.03.02 0 0Zm0 0S1.58.77 1.61.76c.04-.02.03.04.01.05 0 0 .02 0 0 0ZM1.42.62s.03.02.04 0c.02-.02-.02-.02-.04 0 0 0 .02 0 0 0Zm0 0s.06-.03.04.01c-.01.02-.08.01-.04-.01 0 0-.03.03 0 0ZM.9.28C.83.41.85.64.91.77.86.83.64.81.54.8L.52.78V.33C.5.22.63.26.69.25.76.26.85.22.9.28Zm0 0C.85.22.76.27.69.25.63.25.5.23.52.33v.45L.55.8C.64.8.85.83.91.77.85.65.83.41.91.28Z"/><path class="cls-4" d="M1.88.68C1.65.9 1.32.53 1.55.32c.23-.22.57.16.33.36Zm0 0c.23-.2-.1-.56-.32-.35-.23.2.09.57.32.35Z"/><path class="cls-4" d="m1.8.31.14.18C1.92.44 1.89.33 1.8.31Zm0 0c.07.01.17.12.13.19L1.8.31ZM1.21.32c0 .19.09.47-.11.4-.02-.36-.05-.45.11-.4Zm0 0c-.17-.05-.12.07-.1.39.14.02.13.03.1-.39ZM1.48.3c-.05-.05 0-.07.03-.02.05.05.02.06-.03.02Zm0 0s.08.04.02 0c-.03-.05-.07-.04-.02 0ZM1.73.87S1.71.85 1.7.83c0-.14.08-.03.03.04Zm0 0s0-.11-.01-.09c-.01.02-.02.1.01.09ZM1.73.24S1.69.17 1.71.15c.04-.04.03.08.02.09Zm0 0C1.74.17 1.71.1 1.7.21c0 .01 0 .05.03.03ZM1.45.52h-.06s-.06 0-.03-.02c.02-.01.12-.01.09.02Zm0 0S1.39.49 1.37.5c-.02.03.06.02.08.02ZM1.95.29s-.03.04-.05.03c0-.03.02-.03.03-.05.02 0 .02-.04.05-.03 0 .02-.02.03-.03.05 0 0 0-.02 0 0Zm0 0s.02-.07-.02-.02c-.05.04-.03.06.02.02ZM1.51.75c-.05.05-.07 0-.02-.04.05-.05.07 0 .02.04Zm0 0S1.55.67 1.5.72c-.04.03-.03.07.01.03ZM1.99.49c.1-.04.14.04.04.03-.01 0-.07 0-.04-.03Zm0 0s.03.02.04.02c.11 0 .02-.04-.04-.02ZM1.93.73c-.05-.05 0-.06.03-.02.05.05 0 .06-.03.02Zm0 0s.03.03.05.03c.03 0-.12-.13-.05-.03ZM1.98.38s.06-.02.04.02c-.01.02-.08 0-.04-.02 0 0-.03.02 0 0Zm0 0s.03.02.04 0c.02-.02-.02-.02-.04 0 0 0 .02-.01 0 0ZM1.6.21s.03.06-.01.05C1.58.24 1.57.18 1.6.21c0 0-.03-.03 0 0Zm0 0s-.01.03 0 .04c.02.01.02-.02 0-.04 0 0 .01.02 0 0ZM1.85.76s.03.07-.02.05c-.01-.02-.02-.07.02-.05 0 0-.03-.02 0 0Zm0 0s-.02.03 0 .04c.03.02.02-.02 0-.04 0 0 0 .02 0 0ZM1.42.4s.03-.03.05-.02c.02.04-.04.03-.05.02 0 0 .01.01 0 0Zm0 0s.06.01.04 0C1.45.39 1.4.37 1.42.4c0 0-.02-.03 0 0ZM1.84.24s-.04-.05 0-.05.01.04 0 .05c0 0 0-.01 0 0Zm0 0s.02-.05 0-.04c-.02 0-.03.06 0 .04 0 0-.03.02 0 0ZM1.98.62s.03-.02.05-.01c.01.04-.04.02-.05.01 0 0 .01 0 0 0Zm0 0s.06.02.04 0c-.01 0-.06-.03-.04 0 0 0-.02-.04 0 0ZM1.62.81S1.58.78 1.61.76c.04-.03.04.04.01.05 0 0 .02 0 0 0Zm0 0s.01-.06 0-.04c-.02 0-.02.06 0 .04 0 0-.03.02 0 0ZM1.42.62s.06-.03.05.01c-.01.02-.08.02-.05-.01 0 0-.03.03 0 0Zm0 0s.03.02.04 0c.02-.02-.02-.02-.04 0 0 0 .02 0 0 0Z"/><path class="cls-4" d="M1.8.31c.08.02.16.11.14.19 0 0-.13-.19-.14-.19Zm0 0 .14.18s-.01 0 0 0c0-.08-.05-.16-.13-.18Z"/><g id="U8N6E5.tif"><path class="cls-8" d="M-339.35 726.81c10.48 9 18.88 19.65 25.56 31.74 4.88 8.84 8.15 18.26 10.04 28.11.47 2.42 1.75 4.87.9 7.5-1.27.7-1.33 2.01-1.61 3.2-.98 4.23-2.22 8.38-3.63 12.5-1.21 3.51-3.44 6.63-3.9 10.41-3.21-1.62-6.24-3.65-9.96-4.02-.16 0-.33-.01-.49-.01-.04-.63-.38-.96-1.02-.98-.83 0-1.65-.01-2.48-.02-.04-.63-.38-.96-1.02-.98-1.33 0-2.65-.01-3.98-.02-.67-1.35-1.76-1.43-3.01-.98-6.16-.17-12.32-.55-18.48 0-1.02-.77-1.72.06-2.5.51-1.5.17-3 .33-4.49.5-.73-.02-1.43 0-1.52.98-2.92-.34-5.36 1.27-8.03 1.94.14-1.61 2.18-1.46 2.61-3.07 1.65-6.29 2.6-12.42.62-18.95-2.59-8.56-7.74-15.35-14.01-21.25-5.83-5.48-12.25-10.35-19.35-14.25-5.91-3.25-11.88-6.35-18.13-8.91-6.83-2.8-13.78-5.15-20.86-7.22-4.55-1.33-9.13-2.57-13.74-3.58-4.32-.94-8.75-1.56-13.1-2.38-6.59-1.24-13.27-2.26-19.87-2.53-9.91-.4-19.79-1.89-29.79-.82-6.07.65-12.24.48-18.34 1.14-5.91.63-11.83 1.12-17.68 2.3-3.53.71-7.07 1.48-10.61 2.04-4.95.78-9.81 1.97-14.52 3.4-5.5 1.68-11.01 3.45-16.43 5.52-8.86 3.37-17.33 7.44-25.49 12.2-.51-5.6-.79-11.22-1.16-16.82-.22-3.42-.27-7.01-1.13-10.3-.95-3.64-.72-7.35-1.51-10.99-.47-2.18-1.13-4.43-1.27-6.76-.17-2.74-.94-5.44-1.47-8.16-.5-2.58-1.88-5.28 1.06-7.37.98-.05 1.89-.18 2.88-.53 4.47-1.6 8.99-3.1 13.55-4.42 4.31-1.25 8.69-2.25 13.05-3.31 5.2-1.27 10.36-2.84 15.63-3.61 4.89-.72 9.79-1.56 14.66-2.34 6.94-1.11 13.92-1.95 20.89-2.65 11.54-1.17 23.16-1.52 34.77-1.58 6.64-.03 13.28.26 19.92.47 2.9.09 5.8.21 8.68.56 7.05.87 14.14 1.34 21.19 2.28 5.31.71 10.61 1.47 15.87 2.4 5.73 1.01 11.42 2.32 17.11 3.58 6.97 1.53 13.86 3.38 20.64 5.42 8.11 2.45 16.13 5.3 23.99 8.58 12.42 5.19 24.46 11.05 35.8 18.32 1.71 1.1 3.15 2.64 5.18 3.24Z"/><path class="cls-6" d="M-623.16 700.41c-2.94 2.08-1.56 4.79-1.06 7.37.53 2.72 1.3 5.42 1.47 8.16.14 2.33.8 4.58 1.27 6.76.79 3.64.56 7.35 1.51 10.99.86 3.29.91 6.88 1.13 10.3.36 5.61.64 11.22 1.16 16.82-.02 5.16-.03 10.32-.05 15.47-1.15.25-.93 1.17-.93 1.95-.01 1.87.01 3.73.02 5.6v2.96c-3.68 5.49-7.26 10.97-12.48 15.3-8.73 7.24-18.88 10.68-29.87 12.15-7.8 1.04-15.71.74-23.51 1.61-2.86.32-5.85-.13-8.59.99-1.65.67-2.43.07-3.04-1.43-2.77-6.85-5.06-13.77-4.97-21.31.07-5.88-.16-11.78 1.04-17.58 1.04-5 1.88-10.05 3.28-14.95.96-3.38 1.42-6.89 2.64-10.21.3-.81.23-1.89-1.08-2.11.12-1.85 1.74-2.93 2.32-4.6 1.07-3.1 1.31-6.36 1.61-9.51.69-7.22.79-14.44-.56-21.71-1.92-10.3-6.11-19.46-12.16-27.88-1.47-2.05-3.26-3.77-5.42-5.05-2.88-1.7-5.53-.9-6.96 2.16-.86 1.85-1.43 3.84-2.13 5.76-.16-.18-.4-.34-.47-.55-2.99-9.52-7.27-18.43-12.28-27.05-2.46-4.23-5.48-8.06-7.92-12.28 2.07-.8 2.25-2.97 3.06-4.55 4.96-9.7 11.97-17.67 20.35-24.47 6-4.86 12.69-8.7 19.46-12.38 4.57-2.49 9.24-4.81 13.86-7.21.72-.05 1.3.26 1.85.69 1.17 1.94 3.23 2.51 5.13 3.32.13-.02.26 0 .38.05.03.69.39 1.02 1.08.97 1.31 1 2.99 1.52 3.92 3.02 0 .67.34 1.01 1.02 1-.01.98.68 1.04 1.39 1.07.18.18.37.36.55.54.03.72.08 1.41 1.08 1.38h-.01c-.02.69.31 1.03 1 1.01-.02.68.32 1.02 1 1.02 0 .96.51 1.45 1.44 1.54.36.47.71.94 1.07 1.42-.03.68.29 1.04.98 1.06.39.18.52.51.54.91-.05.7.27 1.06.97 1.09.81.88 1.57 1.79 2.02 2.92.7 1.83 1.41 3.65 3.32 4.6.54 1.13 1.53 2.03 1.7 3.35.32 1.25.59 2.53 1.96 3.12.05.12.06.25.03.38.33 1.24.59 2.53 1.96 3.11.14.34.29.68.44 1.03-.74 1.13.13 1.29.9 1.5.19.91 1.17 1.47 1.08 2.5-.15 1.58.41 2.79 1.89 3.49.05.33.11.65.16.98-.3.21-.47.51-.28.84 1.71 2.97 2.64 6.27 4.06 9.35.51 1.11.17 3 2.07 3.31l.12.99c-.55.44-.33.86.05 1.25 1.03 1.03 1.61 2.31 2.02 3.68 1.32 4.39 2.89 8.69 4.18 13.09 1.77 6.05 3.54 12.08 4.87 18.25.33 1.54.58 3.95 3.39 2.68Zm-84.33-42.3c0 .83-.02 1.66 0 2.49.14 5.61 5.05 8.88 10.37 7.06 4.17-1.43 7.27-4.17 9.92-7.51 4.37-5.5 6.86-11.72 6.44-18.83-.36-6.26-5.43-10.36-12.16-6.77-9.37 5-13.67 13.27-14.57 23.56Z"/><path class="cls-8" d="M-695.23 749.26c1.3.22 1.37 1.29 1.08 2.11-1.22 3.32-1.68 6.83-2.64 10.21-1.39 4.9-2.24 9.95-3.28 14.95-1.2 5.81-.97 11.7-1.04 17.58-.09 7.53 2.2 14.46 4.97 21.31.61 1.5 1.39 2.11 3.04 1.43 2.75-1.12 5.73-.67 8.59-.99 7.81-.87 15.71-.57 23.51-1.61 11-1.47 21.15-4.91 29.87-12.15 5.21-4.32 8.8-9.81 12.48-15.3.13.2.4.42.38.61-.66 6.04-1.09 12.08-2.18 18.09-.71 3.91-1.44 7.87-2.45 11.66-1.59 5.96-3.33 11.98-6.63 17.32-1.35 2.2-.53 3.4 1.32 4.79 3.98 2.99 8.19 5.62 12.46 8.14 5.08 3.01 10.42 5.58 15.88 7.85 6.56 2.71 13.09 5.43 19.99 7.27 4.33 1.15 8.61 2.58 12.97 3.65 7.47 1.82 15.04 3.06 22.65 4.15 8.65 1.24 17.32 2.04 26.05 2.38 7.62.3 15.23-.03 22.85-.01 2.21 0 4.49-.08 6.61-.29 7.55-.76 15.11-1.53 22.63-2.67 9.07-1.38 18.02-3.33 26.84-5.75 7.61-2.09 15.08-4.79 22.41-7.77-.12.39-.19.81-.37 1.17-2.63 5.16-4.61 10.56-6.24 16.12-1.22 4.14-2.3 8.27-3.05 12.54-.8 4.53-1.63 9.03-1.87 13.63-2.37-.23-4.57.75-6.76 1.29-5.69 1.4-11.44 2.58-17.19 3.53-5.51.92-11.11 1.56-16.66 2.33-11.19 1.56-22.44 1.93-33.67 2.21-11.84.29-23.7-.17-35.52-1.37-4.85-.49-9.7-.94-14.51-1.73-4.46-.74-8.93-1.51-13.39-2.15-4.17-.6-8.3-1.45-12.34-2.43-5.71-1.37-11.41-2.86-17.06-4.55-6.58-1.97-13.14-4.01-19.52-6.47-11.53-4.44-22.68-9.75-33.29-16.16-9.61-5.8-18.85-12.1-27.15-19.64-10.62-9.64-19.76-20.54-26.39-33.37-4.31-8.35-7.53-17.09-9.26-26.35-.14-.72-.44-1.02-1.15-.97-.08-4.32 1.29-8.39 2.16-12.55 1.12-.14 1.01-.91.88-1.7.03-.6.07-1.2.1-1.8 1.41-.25.93-1.31.91-2.16.04-.44.07-.89.11-1.33.75-.07 1.01-.49.87-1.2.05-.6.11-1.2.16-1.79.73-.08.98-.5.85-1.18l.12-1.32c.74-.07 1.01-.48.88-1.19.05-.44.11-.87.16-1.31.71-.07.96-.48.86-1.16.03-.28.07-.57.1-.85.73-.06 1.01-.47.89-1.18-.26-1.18.79-1.86 1.1-2.82.73-.06 1.02-.46.9-1.17l.12-.83c.71-.06.99-.46.89-1.15-.18-1.04.91-1.48 1.1-2.35.7-.05 1-.43.92-1.12-.01-.13 0-.26.06-.38.71-.05 1.01-.43.93-1.13-.02-.13 0-.25.06-.37.73-.04 1.03-.43.93-1.15.01-.68.15-1.27.94-1.44Z"/><path class="cls-10" d="M-712.23 793.86c.7-.05 1.01.25 1.15.97 1.73 9.26 4.95 18 9.26 26.35 6.62 12.83 15.77 23.73 26.39 33.37 8.3 7.54 17.54 13.84 27.15 19.64 10.61 6.41 21.76 11.72 33.29 16.16 6.38 2.45 12.94 4.5 19.52 6.47 5.65 1.69 11.35 3.18 17.06 4.55 4.04.97 8.17 1.83 12.34 2.43 4.46.64 8.93 1.41 13.39 2.15 4.81.8 9.66 1.24 14.51 1.73a280.99 280.99 0 0 0 35.52 1.37c11.23-.28 22.48-.65 33.67-2.21 5.54-.77 11.14-1.42 16.66-2.33 5.75-.95 11.5-2.13 17.19-3.53 2.18-.54 4.39-1.52 6.76-1.29.02 4.31.05 8.62.07 12.93-.08.74-.05 1.42.9 1.57-.32 2.51.39 4.88 1.5 7 1.05 1.99 1.72 3.49-.95 4.51-.45.05-.9.09-1.35.14-.65-.25-1.05-.03-1.24.62-.92.13-1.83.25-2.75.38-1.04-.18-1.92.09-2.65.86-.45.05-.9.09-1.35.13-1.07-.35-1.95-.06-2.64.81-.78.07-1.56.15-2.34.22-1.09-.38-1.96-.07-2.66.82-.78.07-1.55.13-2.33.2-1.09-.41-1.96-.09-2.66.8-.94.07-1.89.14-2.83.2-1.22-.4-2.25-.04-3.16.79-.95.07-1.89.13-2.84.2-1.38-.44-2.58-.09-3.66.82-1.11.06-2.23.12-3.34.17-1.58-.4-3.05-.27-4.28.93-1.4.03-2.8.05-4.21.08-2.06-.48-3.98-.12-5.78.94-2.07.02-4.14.05-6.21.07-3.28-.48-6.48.06-9.66.8-8.45.06-16.9.6-25.35.13-3.19-1.06-6.46-1.29-9.78-.92-2.28-.07-4.55-.15-6.83-.22-1.47-.76-2.99-1.23-4.66-.77-1.61-.07-3.22-.15-4.83-.22-1.24-1-2.63-1.24-4.16-.8l-3.34-.18c-1.08-.91-2.28-1.25-3.66-.82-.95-.06-1.89-.13-2.84-.19-.91-.83-1.94-1.19-3.16-.79l-2.33-.21c-.85-1.06-1.93-1.2-3.15-.82l-2.34-.18c-.7-.88-1.57-1.2-2.66-.81-.61-.06-1.23-.12-1.84-.19-.69-.89-1.56-1.2-2.65-.83-.62-.05-1.23-.09-1.85-.14-.68-.9-1.56-1.21-2.64-.87-.45-.04-.9-.09-1.35-.13-.54-.75-1.22-1.14-2.16-.83l-1.83-.18c-.54-.73-1.22-1.12-2.16-.83-.45-.05-.89-.11-1.34-.16-.54-.74-1.21-1.13-2.15-.86l-1.35-.15c-.54-.74-1.21-1.13-2.15-.86-.75-.12-1.5-.24-2.26-.37-.17-.65-.57-.89-1.22-.67l-1.77-.33c-.17-.65-.57-.9-1.22-.67-.29-.04-.58-.07-.87-.11-.54-.72-1.21-1.12-2.14-.88l-4.29-1.29c-.14-.67-.53-.94-1.2-.71l-1.77-.33c-.16-.65-.55-.9-1.2-.71-2.78-1.06-5.56-2.12-8.34-3.19-.11-.68-.46-1-1.17-.77-1.26-.01-2.16-.95-3.3-1.26-.13-.66-.5-.96-1.18-.76-.43-.09-.87-.19-1.3-.28-.14-.63-.51-.92-1.16-.78-5.76-2.34-11.14-5.45-16.46-8.61-13.26-7.88-25.53-17.06-36.03-28.44-10.35-11.22-18.55-23.79-23.64-38.27-.27-.77-.26-1.63-.39-2.45.2-.7 0-1.14-.77-1.25-.08-.75-.15-1.5-.23-2.26.2-.69 0-1.13-.76-1.24-.09-.91-.18-1.82-.26-2.74.2-.79.35-1.55-.77-1.75-.07-1.08-.15-2.17-.22-3.25.19-.77.35-1.53-.74-1.75-.02-.33-.05-.65-.07-.98.53-.37.46-.7-.06-1.01-.04-1.25-.08-2.51-.11-3.76.05-3.37.19-6.75.12-10.12-.04-1.85.55-3.77-.38-5.56l.28-2.46Z"/><path class="cls-1" d="M-428.31 912.62c-.02-4.31-.05-8.62-.07-12.93.23-4.6 1.07-9.1 1.87-13.63.75-4.27 1.83-8.4 3.05-12.54 1.63-5.56 3.62-10.96 6.24-16.12.18-.36.25-.78.37-1.17 8.07-15.34 19.76-26.96 35.43-34.5 1.11-.29 2.38-.25 3.03-1.48.32-.01.63-.03.95-.04.77.09 1.25-.28 1.55-.96l.95-.03c.76.09 1.25-.28 1.55-.95l.96-.03c.9.12 1.65-.06 2.03-.99.48-.01.96-.02 1.45-.04 2.67-.67 5.11-2.28 8.03-1.94.74.03 1.45.02 1.52-.98 1.5-.17 3-.33 4.49-.5 1.07.99 1.76.11 2.5-.51 6.16-.55 12.32-.17 18.48 0 .79.97 1.88 1.06 3.01.98 1.33 0 2.65.01 3.98.02.03.65.36.98 1.02.98.83 0 1.65.01 2.48.02.03.65.36.98 1.02.98.16 0 .33 0 .49.01-.08.65-.05 1.35-.27 1.96-2.06 5.5-4.21 10.97-6.83 16.23-3.7 7.43-7.56 14.77-11.64 22.01-5.34 9.45-11.17 18.57-17.33 27.48-4.38 6.33-9.27 12.28-14.04 18.34-7.68 9.76-16.4 18.47-25.46 26.89-.71.66-.83 1.14-.39 1.89-8.95 3.93-19.48 3.65-25.42-4.54-1.11-1.53-2.45-.16-3.52-.82 2.67-1.02 2-2.52.95-4.51-1.11-2.11-1.82-4.49-1.5-7 .08-.74.07-1.44-.9-1.57ZM-623.16 700.41c-2.82 1.26-3.06-1.14-3.39-2.68-1.33-6.17-3.11-12.2-4.87-18.25-1.29-4.41-2.86-8.71-4.18-13.09-.41-1.36-.99-2.64-2.02-3.68-.38-.38-.61-.81-.05-1.25 1.09.97 2.03.84 3.29.04 4.73-3.02 10.07-4.68 15.3-6.59 4.97-1.81 10.12-3 15.27-3.6 4.78-.56 9.69-1.27 14.6-.48 1.79.29 3.66.04 5.48.18 5.95.44 11.65 1.9 17.09 4.36.19.09.29.39.43.59-.31.39-.62.36-1.07.16-2.74-1.22-3.27-1.05-4.38 1.76-2.27 5.77-4.9 11.38-7.49 17.01-.7 1.52-2.66 3.32-1.62 4.6 1.15 1.41 3.38-.11 5.13-.35 6.03-.82 11.87-2.65 17.95-3.31 1.84-.2 3.95-.4 5.47-1.89 5.34.36 10.52-1.11 15.8-1.35 1.9-.09 3.79-.51 5.68-.56 11.04-.25 22.09-1.15 33.13-.52 9.9.56 19.81 1.06 29.69 2.29 11.85 1.48 23.56 3.51 35.13 6.32 10.92 2.65 21.72 5.74 32.12 10.08.99.41 2.05.65 3.03 1.09 1.36.6 2.49.55 3.32-.84.66 1.26.36 2.91 2.31 3.62 7.42 2.69 14.31 6.51 21.22 10.28 8.48 4.62 16.46 9.98 24.01 15.99 3.31 2.63 3.21 2.76 4.89-.96.11.21.37.47.32.62-.87 2.45-.22 4.4 1.84 5.96.22.17.26.57.39.87-2.02-.6-3.47-2.15-5.18-3.24-11.34-7.27-23.38-13.13-35.8-18.32-7.86-3.28-15.88-6.13-23.99-8.58-6.79-2.05-13.68-3.89-20.64-5.42-5.69-1.25-11.38-2.57-17.11-3.58-5.26-.93-10.57-1.69-15.87-2.4-7.05-.94-14.14-1.41-21.19-2.28-2.87-.35-5.78-.47-8.68-.56-6.64-.21-13.28-.51-19.92-.47-11.61.06-23.23.4-34.77 1.58-6.97.71-13.94 1.54-20.89 2.65-4.87.78-9.77 1.62-14.66 2.34-5.27.78-10.43 2.35-15.63 3.61-4.36 1.06-8.74 2.07-13.05 3.31-4.56 1.32-9.08 2.82-13.55 4.42-.98.35-1.89.48-2.88.53Z"/><path class="cls-2" d="M-739.2 648.55c2.44 4.22 5.47 8.05 7.92 12.28 5.01 8.62 9.28 17.53 12.28 27.05.07.21.31.37.47.55-.05 2.54-1.18 4.93-1.04 7.5-.48.27-.51.66-.28 1.11-.23 2.62-.47 5.25-.7 7.87-.49.29-.52.68-.25 1.14-.24 2.78-.49 5.57-.73 8.35-.5.27-.6.59-.11.97-.87 4.96-1.26 10-2.7 14.88-.66 2.25-1.58 4.34-2.7 6.35-3.03 5.41-8.36 5.45-13.32 2.34-8.77-5.49-14.56-13.63-19.13-22.71-1.57-3.11-2.71-6.39-3.68-9.74.19-.45.11-.83-.33-1.08-.23-.97-.47-1.93-.7-2.9.22-.45.16-.83-.3-1.1-.07-.8-.15-1.61-.22-2.41.09-1.11-.08-2.16-.75-3.09-.09-1.63-.17-3.27-.26-4.9.22-.9.53-1.82-.32-2.59-.49-3-.48-6 0-9 .92-.94.52-2.02.34-3.08.08-1.64.16-3.27.23-4.91.59-.44.64-.93.15-1.48.04-.28.08-.56.11-.84.56-.26.77-.66.51-1.26.08-.97.15-1.94.23-2.91.66-.74.94-1.59.77-2.58.14-1.09.28-2.17.41-3.26.59-.21.84-.59.62-1.22.06-.48.11-.96.17-1.43.45-.27.51-.64.31-1.09 1.86-6.89 4.5-13.48 7.72-19.84 2.34-.29 3.57 1.48 4.95 2.8 3.51 3.34 6.9 6.82 10.34 10.24Z"/><path class="cls-6" d="M-397.92 931.05c-.44-.75-.31-1.24.39-1.89 9.06-8.42 17.78-17.13 25.46-26.89 4.76-6.05 9.66-12.01 14.04-18.34 6.16-8.91 11.99-18.03 17.33-27.48 4.09-7.23 7.94-14.58 11.64-22.01 2.62-5.26 4.77-10.73 6.83-16.23.22-.6.19-1.3.27-1.96 3.71.37 6.75 2.4 9.96 4.02 1.97 1.86 3.93 3.72 5.9 5.58.4.38.9.37 1.4.32-.03 1.86.78 3.53 1.2 5.28 1.59 6.63-.65 12.61-3.43 18.38-5.37 11.14-13.02 20.68-21.22 29.85a254.701 254.701 0 0 1-16.76 17.07c-12.99 12.07-27.17 22.54-43.04 30.58-3.17 1.61-6.52 2.81-9.97 3.72Z"/><path class="cls-8" d="M-341.9 719.37c-1.68 3.72-1.58 3.59-4.89.96-7.55-6-15.52-11.37-24.01-15.99-6.92-3.76-13.8-7.59-21.22-10.28-1.95-.71-1.65-2.36-2.31-3.62.05-.49.11-.98.16-1.47.98-.38 1.68-.88.87-2.03.04-.32.09-.64.13-.97.64-.32 1.64-.46.81-1.55l.18-.95c1.92-1.42 2.42-3.63 3.16-5.7.48-1.69 1.69-2.93 2.66-4.32.95-.12 1.47-.61 1.38-1.62 2.02-2.68 4.17-5.21 7.4-6.52 1.46-.33 2.94-.63 3.72-2.14.48-.06.97-.13 1.45-.19 1.82.73 3.65.72 5.47 0 .48.06.97.12 1.45.17.74 1.55 2.27 1.78 3.69 2.18 1.01.21 1.7.89 2.36 1.61.07.95.56 1.46 1.53 1.47 0 .68.33 1.01 1.01 1 .09 1.21.78 1.85 1.95 2.04.2.3.4.59.59.89-.08 1 .43 1.5 1.38 1.62.05.13.09.26.1.4-.06.68.25 1.04.93 1.08.5.56 1.15 1.03 1.07 1.91-.07.67.23 1.03.9 1.09.05.14.07.28.08.43-.05.64.24 1 .88 1.08.06.29.11.57.17.86-.1.68.2 1.05.87 1.13.04.29.09.58.13.86-.11.68.19 1.05.87 1.13.04.29.09.58.13.87-.11.66.15 1.05.82 1.15l.18 1.35c-.12.67.15 1.05.82 1.15.07.61.13 1.22.2 1.83-.14.67.11 1.06.79 1.17.06.62.12 1.23.19 1.85-.03.84-.45 1.83.86 2.13.05.78.1 1.56.16 2.35-.25 1.5-.07 2.91.93 4.13.03 1.12.05 2.23.08 3.35 0 4.08-.01 8.16-.02 12.24-.02.62-.03 1.24-.05 1.86Z"/><path class="cls-1" d="M-739.2 648.55c-3.44-3.42-6.83-6.89-10.34-10.24-1.38-1.31-2.62-3.09-4.95-2.8 5.66-11.66 13.42-21.57 23.9-29.36 5.84-4.34 12.2-7.67 19.14-9.37 9.28-2.27 18.65-2.01 27.67 1.81.69.29 1.1.69 1.31 1.36-4.62 2.4-9.29 4.72-13.86 7.21-6.77 3.68-13.46 7.51-19.46 12.38-8.38 6.8-15.39 14.77-20.35 24.47-.81 1.59-.99 3.75-3.06 4.55Z"/><path class="cls-6" d="M-552.22 673.93c-1.52 1.49-3.63 1.7-5.47 1.89-6.08.66-11.92 2.49-17.95 3.31-1.75.24-3.99 1.76-5.13.35-1.04-1.28.92-3.08 1.62-4.6 2.59-5.63 5.22-11.24 7.49-17.01 1.11-2.81 1.64-2.98 4.38-1.76.45.2.76.23 1.07-.16.33.05.65.11.98.16.57 1.45 1.72 2.07 3.19 2.25.94.54 1.88 1.08 2.81 1.62.09.94.58 1.44 1.54 1.44 0 .69.35 1.02 1.03 1.01.31.34.63.68.94 1.02.15 1.6.76 2.89 2.37 3.51.04.33.08.66.13.98-.9 1.27-.21 1.96.91 2.51l.11 3.48Z"/><path class="cls-10" d="M-304.7 826.17c-.5.05-.99.06-1.4-.32-1.97-1.86-3.93-3.72-5.9-5.58.45-3.78 2.69-6.9 3.9-10.41 1.42-4.12 2.65-8.27 3.63-12.5.28-1.19.34-2.5 1.61-3.2.38 1.02.4 2.07.34 3.14-.74 4.16-.77 8.31.02 12.47-.07 1.65-.14 3.3-.2 4.95-1.05 1.19-1.63 2.47-.79 4.04-.07.82-.14 1.64-.22 2.45-.95.64-1.45 1.42-.76 2.55-.08.8-.15 1.61-.23 2.41Z"/><path class="cls-8" d="M-712.5 796.31c.93 1.79.35 3.71.38 5.56.07 3.37-.07 6.74-.12 10.12-.57-.31-.81-.8-.81-1.43v-13.2c0-.43.15-.81.54-1.05Z"/><path class="cls-1" d="M-637.8 660.47c-1.9-.31-1.56-2.21-2.07-3.31-1.42-3.08-2.35-6.39-4.06-9.35-.19-.32-.02-.63.28-.84 2.53 3.07 3.24 6.98 4.84 10.48.43.93 1.17 1.85 1 3.02Z"/><path class="cls-8" d="M-302.5 809.77c-.78-4.15-.76-8.31-.02-12.47.91 4.15.93 8.31.02 12.47Z"/><path class="cls-1" d="M-341.85 717.51c0-4.08.01-8.16.02-12.24.24.21.67.4.69.63.33 3.66.31 7.33-.01 11-.02.22-.46.41-.7.62ZM-494.79 935.68c3.18-.74 6.38-1.27 9.66-.8-3.14 1.18-6.35 1.57-9.66.8ZM-529.92 934.88c3.32-.37 6.59-.13 9.78.92-3.33.46-6.62.42-9.78-.92ZM-366.93 663c-1.82.72-3.65.73-5.47 0 1.83-1.42 3.65-1.07 5.47 0ZM-389.01 677.79c-.75 2.07-1.25 4.28-3.16 5.7.66-2.12 1.25-4.27 3.16-5.7ZM-675.49 603.96c-1.9-.81-3.96-1.38-5.13-3.32 1.94.75 4.04 1.26 5.13 3.32ZM-478.93 934.81c1.8-1.06 3.72-1.42 5.78-.94-1.81 1.05-3.73 1.38-5.78.94ZM-653.77 627.51c-1.91-.95-2.62-2.77-3.32-4.6 1.84 1.01 2.64 2.76 3.32 4.6Z"/><path class="cls-8" d="M-303.49 818.76c-.84-1.56-.26-2.84.79-4.04.37 1.47.14 2.82-.79 4.04Z"/><path class="cls-1" d="M-541.41 933.89c1.67-.46 3.19.01 4.66.77-1.72.72-3.22.13-4.66-.77ZM-550.4 932.86c1.52-.44 2.91-.19 4.16.8-1.54.54-2.92.24-4.16-.8ZM-468.95 933.79c1.23-1.2 2.7-1.33 4.28-.93-1.25 1.13-2.73 1.2-4.28.93ZM-373.85 663.18c-.78 1.51-2.25 1.81-3.72 2.14.75-1.56 2.25-1.83 3.72-2.14ZM-553.36 666.96c-1.61-.62-2.22-1.91-2.37-3.51 1.26.86 2.1 1.99 2.37 3.51ZM-361.79 665.35c-1.42-.4-2.95-.63-3.69-2.18 1.46.35 2.98.57 3.69 2.18ZM-341.91 701.91c-1-1.22-1.18-2.63-.93-4.13 1.48 1.11.97 2.68.93 4.13ZM-643.81 645.99c-1.47-.71-2.04-1.91-1.89-3.49 1.18.87 1.59 2.15 1.89 3.49ZM-461.33 932.69c1.07-.91 2.28-1.26 3.66-.82-1.07.93-2.25 1.37-3.66.82ZM-557.39 931.87c1.38-.44 2.58-.09 3.66.82-1.4.56-2.59.12-3.66-.82ZM-562.06 658.37c-1.47-.18-2.62-.8-3.19-2.25 1.45.21 2.56.88 3.19 2.25ZM-563.39 930.89c1.22-.4 2.25-.04 3.16.79-1.3.71-2.26.09-3.16-.79ZM-568.88 929.86c1.22-.39 2.31-.25 3.15.82-1.21.33-2.3.21-3.15-.82ZM-765.74 676.34c.18 1.06.58 2.14-.34 3.08-.61-1.11-.84-2.17.34-3.08ZM-454.83 931.67c.91-.82 1.94-1.19 3.16-.79-.9.88-1.86 1.51-3.16.79ZM-650.11 633.98c-1.37-.59-1.64-1.87-1.96-3.12 1.55.48 1.55 1.93 1.96 3.12ZM-648.11 637.47c-1.38-.58-1.63-1.87-1.96-3.11 1.55.47 1.54 1.93 1.96 3.11ZM-552.33 670.46c-1.11-.54-1.81-1.24-.91-2.51.78.66 1.07 1.5.91 2.51ZM-765.5 695.92c.67.93.84 1.97.75 3.09-.94-.86-1.6-1.79-.75-3.09ZM-354.95 671.45c-1.17-.19-1.86-.83-1.95-2.04 1.12.23 1.81.88 1.95 2.04ZM-443.84 929.68c.7-.89 1.57-1.2 2.66-.82-.71.86-1.51 1.38-2.66.82ZM-573.87 928.86c1.09-.39 1.96-.07 2.66.81-1.14.57-1.95.04-2.66-.81ZM-438.85 928.65c.7-.87 1.57-1.16 2.64-.81-.7.86-1.49 1.42-2.64.81ZM-448.84 930.68c.7-.89 1.57-1.21 2.66-.8-.71.84-1.53 1.36-2.66.8ZM-578.36 927.84c1.08-.36 1.96-.05 2.65.83-1.15.56-1.95.02-2.65-.83ZM-582.85 926.84c1.09-.35 1.96-.03 2.64.87-1.15.53-1.96.02-2.64-.87ZM-766.07 688.43c.85.77.54 1.69.32 2.59-1.06-.75-1.01-1.63-.32-2.59Z"/><path class="cls-8" d="M-304.47 823.76c-.68-1.13-.19-1.91.76-2.55.34 1.03.03 1.86-.76 2.55Z"/><path class="cls-1" d="M-763.74 662.36c.18.99-.11 1.84-.77 2.58-.67-1.14-.15-1.92.77-2.58ZM-393.29 686.95c.81 1.15.1 1.65-.87 2.03-.22-.9.13-1.55.87-2.03ZM-434.85 927.7c.72-.77 1.61-1.04 2.65-.86-.69.89-1.5 1.39-2.65.86ZM-606.82 919.82c.93-.24 1.6.16 2.14.88-1.08.6-1.63-.09-2.14-.88ZM-593.85 923.85c.94-.27 1.61.12 2.15.86-1.07.6-1.63-.09-2.15-.86ZM-590.36 924.87c.94-.3 1.62.09 2.16.83-1.06.61-1.62-.07-2.16-.83ZM-342.99 695.43c-1.31-.3-.89-1.29-.86-2.13 1.1.38.93 1.28.86 2.13ZM-586.37 925.87c.95-.31 1.62.08 2.16.83-1.05.59-1.62-.09-2.16-.83Z"/><path class="cls-6" d="M-708.18 775.65c.02.86.5 1.91-.91 2.16-.03-.86-.12-1.75.91-2.16Z"/><path class="cls-1" d="M-597.34 922.84c.94-.27 1.61.12 2.15.86-1.07.6-1.62-.1-2.15-.86ZM-646.78 640c-.77-.22-1.64-.38-.9-1.5.69.27 1.03.74.9 1.5ZM-557.7 661.43c-.97 0-1.46-.5-1.54-1.44.94.03 1.41.55 1.54 1.44ZM-392.35 684.44c.83 1.09-.17 1.22-.81 1.55-.27-.8.1-1.26.81-1.55ZM-662.67 615.53c-.93-.09-1.44-.58-1.44-1.54.9.13 1.42.59 1.44 1.54ZM-352.98 673.96c-.96-.11-1.47-.61-1.38-1.62.83.23 1.41.66 1.38 1.62ZM-384.97 671.84c.09 1.01-.43 1.5-1.38 1.62-.03-.96.56-1.39 1.38-1.62ZM-357.9 668.42c-.97 0-1.46-.52-1.53-1.47.93.05 1.42.56 1.53 1.47Z"/><path class="cls-8" d="M-711.04 822.74c1.12.2.98.96.77 1.75-.77-.36-.95-.97-.77-1.75ZM-712 817.74c1.09.22.93.98.74 1.75-.75-.37-.96-.97-.74-1.75Z"/><path class="cls-6" d="M-709.19 779.61c.13.78.24 1.56-.88 1.7-.1-.77.07-1.4.88-1.7Z"/><path class="cls-1" d="M-765.36 669.95c.49.55.44 1.04-.15 1.48-.62-.56-.62-1.06.15-1.48ZM-666.08 611.98c-.99.03-1.05-.67-1.08-1.38.71.19 1.01.69 1.08 1.38ZM-667.71 610.05c-.72-.03-1.4-.09-1.39-1.07.69.06 1.2.35 1.39 1.07Z"/><path class="cls-8" d="M-712.13 815.76c.52.31.59.64.06 1.01-.46-.31-.46-.65-.06-1.01Z"/><path class="cls-6" d="M-707.19 773.12c.13.71-.13 1.13-.87 1.2-.06-.66.32-.99.87-1.2ZM-706.18 770.14c.12.69-.13 1.11-.85 1.18-.08-.66.31-.98.85-1.18ZM-705.19 767.64c.13.71-.14 1.12-.88 1.19-.06-.66.33-.98.88-1.19ZM-704.17 765.18c.1.68-.16 1.08-.86 1.16-.08-.66.32-.96.86-1.16ZM-703.18 763.16c.12.71-.15 1.11-.89 1.18-.05-.66.33-.98.89-1.18ZM-701.18 759.17c.11.71-.17 1.11-.9 1.17-.04-.65.34-.98.9-1.17ZM-700.17 757.19c.1.69-.18 1.09-.89 1.15-.05-.65.34-.96.89-1.15Z"/><path class="cls-8" d="M-710 827.23c.75.11.95.55.76 1.24-.53-.25-.9-.59-.76-1.24ZM-709.02 830.73c.76.11.97.55.77 1.25-.54-.24-.9-.59-.77-1.25Z"/><path class="cls-6" d="M-697.16 752.22c.08.7-.22 1.08-.93 1.13-.03-.65.35-.97.93-1.13ZM-696.17 750.7c.1.71-.2 1.1-.93 1.15-.02-.65.35-.98.93-1.15Z"/><path class="cls-1" d="M-631.74 909.74c.66-.14 1.03.14 1.16.78-.67.16-1.01-.17-1.16-.78ZM-629.28 910.8c.68-.19 1.05.1 1.18.76-.65.14-.99-.19-1.18-.76ZM-624.8 912.82c.71-.22 1.06.09 1.17.77-.63.11-.98-.21-1.17-.77Z"/><path class="cls-6" d="M-721.66 715.37c-.49-.38-.39-.7.11-.97.47.38.43.7-.11.97Z"/><path class="cls-1" d="M-615.29 916.78c.65-.19 1.04.06 1.2.71-.66.2-1-.13-1.2-.71ZM-612.31 917.82c.68-.23 1.06.04 1.2.71-.64.17-.99-.16-1.2-.71ZM-763.53 705.41c.45.26.52.63.33 1.08-.59-.21-1-.49-.33-1.08ZM-603.82 920.81c.65-.23 1.05.02 1.22.67-.65.21-.99-.12-1.22-.67ZM-600.82 921.81c.65-.23 1.05.02 1.22.67-.65.21-.99-.12-1.22-.67Z"/><path class="cls-6" d="M-720.82 706.05c-.27-.46-.24-.85.25-1.14.64.54.26.85-.25 1.14Z"/><path class="cls-1" d="M-764.53 701.42c.45.27.51.65.3 1.1-.56-.24-.96-.53-.3-1.1Z"/><path class="cls-6" d="M-719.86 697.04c-.23-.45-.2-.84.28-1.11.66.56.27.86-.28 1.11Z"/><path class="cls-1" d="M-344.04 691.45c-.68-.11-.94-.51-.79-1.17.57.19.93.51.79 1.17ZM-429.45 926.46c.19-.65.6-.88 1.24-.62-.25.53-.6.86-1.24.62ZM-345.03 688.45c-.67-.1-.94-.48-.82-1.15.57.17.94.49.82 1.15ZM-346.04 685.96c-.67-.1-.93-.49-.82-1.15.57.17.94.48.82 1.15ZM-346.98 683.95c-.68-.08-.98-.45-.87-1.13.57.16.95.48.87 1.13ZM-347.98 681.95c-.68-.08-.97-.45-.87-1.13.58.15.95.46.87 1.13ZM-349.02 679.96c-.64-.08-.93-.44-.88-1.08.6.11.97.41.88 1.08ZM-349.98 678.45c-.66-.06-.97-.43-.9-1.09.59.12.96.43.9 1.09ZM-351.95 675.44c-.68-.04-1-.4-.93-1.08.61.11.96.43.93 1.08ZM-356.89 669.42c-.68.02-1.02-.32-1.01-1 .62.04.96.38 1.01 1ZM-764.74 667.86c.26.6.04 1-.51 1.26-.36-.63-.08-1.01.51-1.26ZM-556.68 662.43c-.69.02-1.04-.31-1.03-1.01.62.05.95.4 1.03 1.01ZM-762.7 657.88c.22.62-.03 1.01-.62 1.22-.27-.65.02-1.01.62-1.22ZM-762.22 655.36c.2.45.14.83-.31 1.09-.66-.58-.26-.86.31-1.09ZM-659.11 620c-.7-.03-1.03-.39-.97-1.09.59.12.96.45.97 1.09ZM-660.62 618c-.68-.02-1-.38-.98-1.06.62.09.94.44.98 1.06ZM-664.1 614c-.68 0-1.01-.34-1-1.02.62.06.95.4 1 1.02Z"/><path class="cls-1" d="M-665.09 612.99c-.69.01-1.02-.32-1-1.01.62.05.95.4 1 1.01ZM-669.09 608.99c-.68.01-1.01-.32-1.02-1 .61.05.96.38 1.02 1ZM-674.03 604.98c-.69.05-1.06-.27-1.08-.97.63.02.95.39 1.08.97Z"/><path class="cls-6" d="M-698.15 753.72c.08.69-.22 1.07-.92 1.12-.04-.66.34-.97.92-1.12Z"/><path class="cls-10" d="m-372.45 818.22-.96.03c-1.19-.77-1.31.18-1.55.95l-.95.03c-1.19-.77-1.31.19-1.55.96-.32.01-.63.03-.95.04-1.45-.41-2.34.34-3.03 1.48-15.67 7.54-27.36 19.16-35.43 34.5-7.33 2.99-14.79 5.69-22.41 7.77-8.82 2.42-17.77 4.37-26.84 5.75-7.52 1.15-15.08 1.91-22.63 2.67-2.13.21-4.4.3-6.61.29-7.61-.02-15.22.31-22.85.01-8.73-.34-17.4-1.15-26.05-2.38-7.61-1.09-15.19-2.33-22.65-4.15-4.36-1.07-8.64-2.49-12.97-3.65-6.9-1.84-13.44-4.56-19.99-7.27-5.47-2.26-10.8-4.83-15.88-7.85-4.26-2.53-8.47-5.16-12.46-8.14-1.86-1.39-2.68-2.59-1.32-4.79 3.29-5.35 5.03-11.37 6.63-17.32 1.01-3.79 1.74-7.75 2.45-11.66 1.09-6.01 1.51-12.06 2.18-18.09.02-.19-.25-.41-.38-.61v-2.96c1.14-.24.96-1.15.96-1.94 0-1.87-.03-3.74-.05-5.61.02-5.16.03-10.32.05-15.47 8.17-4.76 16.63-8.82 25.49-12.2 5.41-2.06 10.92-3.84 16.43-5.52 4.72-1.44 9.58-2.62 14.52-3.4 3.54-.56 7.08-1.33 10.61-2.04 5.85-1.17 11.77-1.66 17.68-2.3 6.1-.65 12.27-.49 18.34-1.14 10-1.07 19.88.42 29.79.82 6.6.27 13.28 1.29 19.87 2.53 4.35.82 8.78 1.44 13.1 2.38 4.61 1 9.19 2.25 13.74 3.58 7.09 2.07 14.04 4.42 20.86 7.22 6.25 2.56 12.22 5.65 18.13 8.91 7.1 3.91 13.52 8.77 19.35 14.25 6.27 5.9 11.42 12.69 14.01 21.25 1.98 6.53 1.03 12.66-.62 18.95-.42 1.61-2.46 1.46-2.61 3.07-.48.01-.96.02-1.45.04-1.29-.92-1.73-.11-2.03.99Zm-150.84-52.31c-2.16-.47-4.15.09-5.93 1.23-3.45 2.22-4.35 4.39-.3 6.79 3.76 2.23 7.54 4.43 11.34 6.6 13.06 7.48 26.15 14.91 39.18 22.44 11.45 6.61 22.79 13.41 34.26 19.97 4.12 2.36 8.48 2.37 12.67-.11 2.88-1.7 2.97-4.63.13-6.3-5.65-3.32-11.34-6.55-17.01-9.82-8.67-5-17.35-9.99-26.01-15.01-5.64-3.27-11.25-6.59-16.9-9.85-7.93-4.58-15.91-9.08-23.81-13.69-2.39-1.39-4.66-2.92-7.61-2.26Zm-29.39 16.97c-2.96-.42-5.36.39-7.34 2.45-1.95 2.03-1.59 4.06.85 5.43 4.47 2.51 8.91 5.09 13.34 7.67 10.08 5.86 20.12 11.78 30.21 17.61 11.93 6.89 23.86 13.77 35.88 20.51 3.46 1.94 6.49 4.91 10.88 4.95 3.2.03 6.27-.2 8.65-2.66 1.31-1.35 1.25-2.79.01-4.2-1.18-1.34-2.81-1.99-4.31-2.86-10.66-6.16-21.28-12.39-31.94-18.56-15.52-8.99-31.02-18-46.61-26.87-3-1.71-5.77-4.44-9.63-3.46Zm-29.17 16.97c-2.02-.24-3.79.02-5.47.89-1.58.83-2.99 1.79-3.36 3.68-.4 2.04 1.28 2.67 2.52 3.58.54.39 1.1.75 1.67 1.08 8.37 4.8 16.75 9.57 25.11 14.39 6.64 3.83 13.23 7.76 19.88 11.59 11.81 6.8 23.71 13.45 35.45 20.37 4.4 2.59 8.63 4.46 13.71 2.1 1.64-.76 3.22-1.46 3.5-3.45.3-2.13-1.3-3.1-2.79-4.01-4.23-2.58-8.54-5.01-12.81-7.52-11.44-6.74-23.07-13.17-34.58-19.8-11.25-6.48-22.4-13.15-33.71-19.54-2.85-1.61-5.48-4.28-9.15-3.35Z"/><path class="cls-6" d="M-330.94 814.25c-1.13.07-2.22-.01-3.01-.98 1.26-.44 2.34-.37 3.01.98ZM-352.43 813.26c-.74.62-1.43 1.5-2.5.51.78-.45 1.47-1.28 2.5-.51ZM-359.42 814.27c-.07 1-.78 1.01-1.52.98.09-.98.79-.99 1.52-.98ZM-322.44 816.25c-.66 0-.99-.33-1.02-.98.64.02.97.35 1.02.98ZM-325.94 815.25c-.65 0-.99-.33-1.02-.98.64.01.97.35 1.02.98Z"/><path d="M-707.49 658.11c.9-10.29 5.2-18.55 14.57-23.56 6.73-3.59 11.8.5 12.16 6.77.41 7.11-2.07 13.33-6.44 18.83-2.65 3.34-5.75 6.08-9.92 7.51-5.31 1.82-10.23-1.45-10.37-7.06-.02-.83 0-1.66 0-2.49Zm4.78-3.15c.08 2.79.38 4.97 2.63 6.3 2.33 1.36 4.31.18 6.29-.85 2.29-1.19 3.83-3.22 5.16-5.3 2.04-3.17 3.35-6.66 2.8-10.55-.07-.5-.02-1.28-.75-1.43-.57-.11-.83.47-1.14.82-.85.96-1.78 2.03-3.14 1.18-1.25-.78-.58-2.05-.34-3.18.12-.58.88-1.27.13-1.79-.65-.45-1.43-.19-2.12.2-5.9 3.31-8.96 8.41-9.53 14.61Z" style="fill:#f6f6f6;stroke-width:0"/><path class="cls-8" d="M-617.73 776.29c.02 1.87.05 3.74.05 5.61 0 .79.19 1.7-.96 1.94 0-1.87-.03-3.73-.02-5.6 0-.78-.21-1.7.93-1.95ZM-428.31 912.62c.98.14.98.83.9 1.57-.96-.15-.99-.83-.9-1.57ZM-381.43 821.72c.69-1.15 1.58-1.89 3.03-1.48-.65 1.23-1.92 1.2-3.03 1.48ZM-372.45 818.22c.3-1.1.75-1.91 2.03-.99-.39.93-1.14 1.11-2.03.99ZM-377.46 820.2c.24-.77.35-1.73 1.55-.96-.29.68-.78 1.05-1.55.96ZM-374.96 819.2c.24-.77.36-1.72 1.55-.95-.29.68-.78 1.04-1.55.95ZM-523.29 765.91c2.95-.65 5.23.87 7.61 2.26 7.91 4.61 15.88 9.12 23.81 13.69 5.65 3.26 11.26 6.58 16.9 9.85 8.66 5.02 17.34 10.01 26.01 15.01 5.67 3.27 11.37 6.5 17.01 9.82 2.85 1.67 2.76 4.6-.13 6.3-4.2 2.47-8.55 2.46-12.67.11-11.47-6.57-22.82-13.36-34.26-19.97-13.03-7.53-26.12-14.95-39.18-22.44-3.79-2.17-7.57-4.38-11.34-6.6-4.05-2.4-3.15-4.57.3-6.79 1.77-1.14 3.76-1.71 5.93-1.23ZM-552.68 782.88c3.86-.97 6.63 1.76 9.63 3.46 15.59 8.87 31.09 17.88 46.61 26.87 10.65 6.17 21.28 12.4 31.94 18.56 1.5.87 3.13 1.52 4.31 2.86 1.24 1.41 1.29 2.85-.01 4.2-2.38 2.46-5.45 2.69-8.65 2.66-4.39-.04-7.42-3.01-10.88-4.95-12.01-6.74-23.95-13.62-35.88-20.51-10.1-5.83-20.14-11.74-30.21-17.61-4.43-2.58-8.87-5.16-13.34-7.67-2.44-1.37-2.8-3.39-.85-5.43 1.98-2.06 4.38-2.87 7.34-2.45ZM-581.85 799.85c3.67-.93 6.29 1.74 9.15 3.35 11.31 6.39 22.45 13.06 33.71 19.54 11.51 6.63 23.13 13.06 34.58 19.8 4.26 2.51 8.58 4.94 12.81 7.52 1.49.91 3.08 1.88 2.79 4.01-.28 2-1.86 2.69-3.5 3.45-5.08 2.35-9.31.49-13.71-2.1-11.74-6.92-23.64-13.57-35.45-20.37-6.65-3.83-13.24-7.76-19.88-11.59-8.36-4.82-16.74-9.59-25.11-14.39-.58-.33-1.14-.69-1.67-1.08-1.25-.9-2.92-1.54-2.52-3.58.37-1.89 1.77-2.86 3.36-3.68 1.68-.88 3.45-1.13 5.47-.89Z"/><path class="cls-2" d="M-702.71 654.96c.57-6.2 3.63-11.29 9.53-14.61.69-.39 1.47-.64 2.12-.2.76.52 0 1.21-.13 1.79-.24 1.13-.92 2.39.34 3.18 1.36.85 2.29-.21 3.14-1.18.31-.35.57-.94 1.14-.82.74.15.68.92.75 1.43.55 3.9-.76 7.38-2.8 10.55-1.34 2.08-2.88 4.1-5.16 5.3-1.98 1.03-3.97 2.22-6.29.85-2.25-1.32-2.55-3.51-2.63-6.3Z"/></g></svg>