<svg id="Capa_1" data-name="Capa 1" xmlns="http://www.w3.org/2000/svg" version="1.1" viewBox="0 0 1 1"><defs><style>.cls-1,.cls-3{fill:#000;stroke-width:0}.cls-3{fill:#fdbf0e}</style></defs><path d="M.38.795A.13.13 0 0 1 .343.716C.339.678.331.641.326.604L.294.403.263.202A1.384 1.384 0 0 0 .252.139V.116a.092.092 0 0 0 0-.037C.25.065.252.052.252.038.252.027.263.02.278.02.33.02.381.02.432.018L.55.016.696.014l.032.001c.015 0 .026.011.023.026a.211.211 0 0 0 .002.071c0 .006 0 .012-.002.017C.746.158.746.187.739.216.735.236.736.257.732.277.725.312.722.349.717.385L.703.494.686.63.675.71C.671.74.664.769.639.79L.624.801C.595.818.563.811.532.813H.481C.445.816.41.817.378.793S.38.795.38.795zM.632.362V.339A.129.129 0 0 0 .548.24a.13.13 0 0 0-.142.041.12.12 0 0 0-.02.119.125.125 0 0 0 .155.082.126.126 0 0 0 .091-.121v.001zm-.23.302v.007c0 .018.002.02.02.02h.025c.033 0 .067 0 .1-.002.018-.002.036.004.055 0C.614.686.619.681.618.669L.615.635C.615.625.61.621.601.621H.485c-.019 0-.038.002-.056 0C.408.619.399.627.402.647v.017zm.27-.317A.054.054 0 0 0 .65.352C.644.355.642.357.65.363c.012.01.024.005.036.003.005 0 .012-.002.013-.008C.699.352.693.35.687.35.682.35.677.348.673.347H.672zM.373.225s-.008 0-.006.006c.007.016.017.028.034.033.004.002.01.003.01-.005C.411.248.385.224.373.224v.001zm.228.033s.005.006.01.004A.055.055 0 0 0 .642.228C.644.223.642.22.637.221.628.221.602.247.602.259L.601.258zM.404.457C.395.457.368.485.368.493c0 .006.004.006.008.004C.392.492.402.48.409.465.411.46.409.456.403.456h.001v.001zM.339.353c-.006 0-.013 0-.019.002-.003 0-.007.002-.008.006 0 .005.004.005.007.007.014.007.029.005.043 0C.365.368.368.365.367.362.367.358.364.357.361.356.354.353.346.353.339.353zm.272.102C.605.455.602.458.604.462c.007.015.015.029.032.034.003 0 .006.002.008 0C.646.493.646.49.644.488.637.478.631.469.621.462.617.459.613.458.61.457L.611.455zM.496.196v.019c0 .003.002.007.006.007S.508.219.509.217c.004-.015.007-.03 0-.045C.505.165.501.167.498.173.494.18.496.188.495.196h.001zm.002.331c0 .006 0 .013.003.019.002.003.003.007.007.006.003 0 .005-.004.006-.006C.519.538.517.529.516.52c0-.007 0-.021-.01-.021S.499.513.497.521v.006h.001zM.581.512a.022.022 0 0 0-.013-.02C.563.49.561.495.561.499c0 .006.01.024.014.024.007 0 .003-.008.007-.012L.581.512zM.35.291c-.006 0-.011 0-.01.006.003.011.013.012.022.013.004 0 .011 0 .009-.006C.367.294.358.292.35.291zm.081-.08c0 .007.006.013.014.016C.45.229.452.223.451.219.449.211.448.2.437.198.431.197.43.203.43.211h.001zM.574.205s0-.01-.006-.009C.558.198.556.206.555.214c0 .005 0 .012.006.011C.57.223.573.214.573.205h.001zM.36.414C.352.414.346.42.344.428.342.433.348.435.352.434.36.432.371.43.372.42.372.414.367.414.36.414zm.096.092c0-.006 0-.012-.007-.01-.01.003-.011.012-.011.02 0 .005.002.01.007.008C.454.521.456.513.457.506H.456zM.653.287S.641.291.639.299c0 .005.003.008.008.008.006 0 .021-.011.02-.015C.667.286.661.286.653.286v.001zM.652.409S.64.409.641.415c0 .01.01.012.018.013.005 0 .011 0 .01-.006 0-.01-.01-.011-.017-.013z" style="fill:#f77a15;stroke-width:0"/><path class="cls-1" d="M.38.795C.315.695.331.571.302.46.295.396.237.088.252.03.3-.003.449.022.511.012.6.017.811-.037.756.13L.687.645C.677.699.683.77.626.801.546.807.448.832.382.794H.38v.001zm0 0C.446.832.544.807.623.8.679.769.672.699.682.645L.747.127C.798-.04.608.037.51.021.456.029.299.009.257.033.242.088.297.399.304.46c.028.111.011.235.075.335H.38z"/><path class="cls-1" d="M.632.362C.642.189.361.205.384.369c.01.154.249.146.248-.007zm0 0C.636.521.388.531.374.37.355.193.648.187.632.362z"/><path class="cls-3" d="M.38.795c.031.024.067.022.103.02h.051C.565.813.597.82.626.803A.143.143 0 0 0 .641.792C.655.8.66.812.657.829c-.002.014.002.029 0 .043-.002.03 0 .059 0 .089 0 .023-.012.034-.035.034-.041 0-.082 0-.124.002-.033 0-.066.002-.099 0C.375.997.366.984.366.959c0-.043 0-.087-.003-.131 0-.015.003-.026.015-.034L.38.795z"/><path class="cls-1" d="M.38.795C.455.834.565.815.642.79c.035.05.013.111.021.166-.01.08-.103.029-.148.045C.397.997.325 1.047.38.796V.795zm0 0C.35.845.375.907.37.962c.009.064.098.02.145.031.046-.013.139.024.139-.037C.652.903.661.828.642.794.563.82.454.835.379.794H.38v.001z"/><path class="cls-3" d="M.632.362a.126.126 0 0 1-.091.121C.471.5.411.47.386.401a.12.12 0 0 1 .02-.119.127.127 0 0 1 .142-.041.127.127 0 0 1 .084.099c.002.007 0 .015 0 .023V.362zM.402.319l.097-.07C.456.243.402.29.402.319zM.402.664V.648C.399.627.408.619.429.622c.019.002.038 0 .056 0 .024-.002.048 0 .071 0h.045c.009 0 .014.004.014.014L.618.67c0 .012-.005.017-.016.02C.583.694.565.688.547.69.514.693.48.69.447.692H.422C.403.692.402.69.402.672V.664zM.672.347.686.35c.006 0 .012.002.012.008S.691.365.685.366C.673.368.661.373.649.363.642.357.644.355.649.352A.054.054 0 0 1 .671.347h.001zM.373.225C.384.225.41.249.411.26c0 .007-.005.006-.01.005C.384.26.374.248.367.232.364.225.37.226.373.226V.225zM.601.258C.601.246.627.22.636.22c.006 0 .006.003.005.007A.055.055 0 0 1 .61.261C.605.263.6.261.6.257l.001.001zM.404.457c.007 0 .007.004.006.009a.05.05 0 0 1-.033.032C.372.5.369.498.369.494c0-.009.026-.036.036-.036H.404V.457zM.339.353c.007 0 .015 0 .022.003.003 0 .006.003.006.006 0 .004-.003.006-.005.006-.014.005-.029.007-.043 0C.316.366.312.365.312.361S.317.355.32.355L.339.353zM.611.455.622.46c.01.007.016.016.023.026.002.003.003.006 0 .008C.642.497.64.496.637.494.62.489.612.475.605.46.603.456.605.453.612.453L.611.455zM.496.196c0-.008 0-.016.003-.023C.502.167.506.165.51.172c.008.015.005.03 0 .045C.51.22.506.222.503.222.498.222.497.218.497.215V.196H.496zM.498.527V.521C.5.513.498.5.507.499c.008 0 .008.013.01.021 0 .008.002.017-.002.026C.513.549.512.552.509.552.505.552.503.548.502.546.498.54.5.533.499.527H.498zM.581.512s0 .011-.007.012C.569.524.559.507.56.5.56.496.563.492.567.493c.008.003.013.01.013.02L.581.512zM.35.291c.008 0 .018.003.021.013C.373.31.366.311.362.31.353.31.343.308.34.297.338.292.344.291.35.291zM.574.205c0 .009-.003.017-.012.02C.556.227.555.22.556.214c0-.008.003-.016.013-.018C.575.195.575.2.575.205H.574zM.36.414c.006 0 .013 0 .012.006C.37.431.36.433.352.434.348.434.342.432.344.428.347.42.352.414.36.414zM.456.506c0 .007-.003.015-.012.018C.439.526.436.521.437.516c0-.008.002-.017.011-.02C.454.494.455.5.455.506h.001zM.653.287c.008 0 .013 0 .014.006 0 .004-.014.015-.02.015C.642.308.638.304.639.3A.014.014 0 0 1 .653.288V.287zM.652.409c.007.002.016.003.017.013 0 .006-.005.007-.01.006C.651.426.642.424.641.415.641.409.647.41.652.409z"/><path d="M.402.319c0-.029.054-.076.097-.07l-.097.07z" style="fill:#fefefe;stroke-width:0"/></svg>