<?xml version="1.0" encoding="UTF-8"?>
<svg id="Capa_1" data-name="Capa 1" xmlns="http://www.w3.org/2000/svg" version="1.1" viewBox="0 0 2.81 1">
  <defs>
    <style>
      .cls-1 {
        fill: none;
      }

      .cls-1, .cls-2, .cls-3, .cls-4, .cls-5 {
        stroke-width: 0px;
      }

      .cls-2 {
        fill: #e6d00b;
      }

      .cls-3 {
        fill: #f7e00b;
      }

      .cls-4 {
        fill: #a08d05;
      }

      .cls-5 {
        fill: #000;
      }
    </style>
  </defs>
  <polygon class="cls-4" points="1.67 .66 1.67 .32 1.94 .32 1.88 .49 1.94 .66 1.67 .66"/>
  <g>
    <polygon class="cls-3" points="1.93 .65 1.93 .65 1.93 .65 1.93 .65 1.93 .65"/>
    <path class="cls-3" d="M.81.04s0,0,0,0c-.03,0-.04,0-.04.03v.04s.03-.05.04-.07Z"/>
    <g>
      <path class="cls-1" d="M1.75.41s-.04.01-.05.03c-.04.04-.04.08,0,.11.06.06.14.09.23.09,0,0,0-.01-.01-.02-.05-.06-.05-.12-.04-.18-.02,0-.03-.01-.05-.02-.02,0-.05-.02-.08-.02Z"/>
      <path class="cls-1" d="M1.93.34s-.07.01-.1.02c-.03,0-.05.03-.08.05.03,0,.05.02.08.02.02,0,.03.01.05.02,0-.02,0-.04.02-.06,0-.02.02-.03.04-.05Z"/>
      <polygon class="cls-1" points="1.93 .65 1.93 .65 1.93 .65 1.93 .65 1.93 .65"/>
      <polygon class="cls-1" points="1.93 .65 1.93 .65 1.93 .65 1.93 .65"/>
      <path class="cls-2" d="M1.04.37c.13-.02.28-.03.42-.03.08,0,.15.02.23.05.02,0,.04.01.06.02.03-.02.05-.04.08-.05.03,0,.06-.02.1-.02-.01.02-.03.03-.04.05-.01.02-.01.04-.02.06.02,0,.03.01.05.02,0-.01,0-.02,0-.04.02-.04.06-.08.1-.1.01,0,.02-.02.02-.03,0-.03,0-.06,0-.09,0-.03,0-.03-.03-.04-.05,0-.1,0-.15-.02-.09-.02-.18-.05-.25-.11,0,0-.02,0-.03,0-.11.03-.23.04-.35.04-.14,0-.28-.01-.42-.04-.02.02-.03.05-.04.07,0,.09,0,.19,0,.28.01,0,.02,0,.03,0,.08,0,.16-.03.24-.04Z"/>
      <path class="cls-3" d="M1.58.94s.02,0,.03,0c.06-.05.13-.08.21-.1.06-.02.13-.02.2-.03.02,0,.03-.01.03-.03,0-.03,0-.06,0-.09,0-.02,0-.03-.02-.04-.04-.02-.08-.06-.1-.11-.01-.03,0-.05,0-.08-.02,0-.03-.01-.05-.02-.02.06-.01.12.04.18,0,0,.01.01.01.02,0,0,0,0,0,0,0,0,0,0,0,0,0,0,0,0,0,0,0,0,0,0,0,0,0,0,0,0,0,0,0,0,0,0,0,0,0,0,0,0,0,0-.09,0-.16-.03-.23-.09-.04-.04-.04-.07,0-.11.01-.02.03-.02.05-.03-.02,0-.04-.01-.06-.02-.08-.02-.15-.04-.23-.05-.14,0-.28,0-.42.03-.08.01-.16.03-.24.04-.01,0-.02,0-.03,0v.1c0,.14,0,.28,0,.42,0,.03.01.04.04.03.12-.02.24-.04.36-.04.14,0,.27,0,.41.04Z"/>
    </g>
  </g>
  <g>
    <path class="cls-5" d="M.77.49c.02-.15-.06-.54.09-.44.35.1.72-.07.78,0,.19.19.44,0,.4.23-.03.08-.15.12-.13.21,0,.1.15.12.13.22.04.12-.12.1-.19.12-.09,0-.16.06-.23.12-.22-.08-.53-.04-.76-.02-.16.09-.08-.28-.09-.45h0ZM.77.49c.02.18-.06.53.09.44.23-.03.56-.07.76.01.07-.05.15-.11.24-.12.07-.02.22.01.18-.11.02-.09-.14-.11-.13-.21-.02-.1.11-.15.13-.22.04-.23-.2-.03-.4-.23-.04-.07-.44.09-.78,0-.15-.1-.08.27-.09.44h0Z"/>
    <path class="cls-5" d="M1.93.65c-.09-.07-.09-.25,0-.3-.32.05-.33.26,0,.3h0ZM1.93.65c-.34-.03-.32-.27,0-.31-.09.08-.1.22,0,.31h0Z"/>
  </g>
</svg>