<svg id="Capa_1" data-name="Capa 1" xmlns="http://www.w3.org/2000/svg" version="1.1" viewBox="0 0 1 1"><defs><style>.cls-1{fill:#fec86f}.cls-1,.cls-2,.cls-3,.cls-4,.cls-5{stroke-width:0}.cls-2{fill:#e07083}.cls-3{fill:#c12945}.cls-4{fill:#000}.cls-5{fill:#d74861}</style></defs><path class="cls-5" d="M.806.555.804.566V.77S.799.767.798.764L.79.751C.771.728.747.729.725.745.718.75.715.758.714.767c0 .012 0 .023.003.035a.31.31 0 0 0 .032.066C.751.872.756.876.753.88.749.884.745.88.741.877A.284.284 0 0 0 .678.846.106.106 0 0 0 .647.841a.04.04 0 0 0-.035.061.05.05 0 0 0 .023.022.22.22 0 0 0 .082.023l.024.002c.007 0 .009.003.004.009A.066.066 0 0 1 .723.98H.509S.506.972.506.967V.632c.002-.006.005-.003.007 0l.01.013C.529.65.535.653.542.649.549.646.555.64.555.632A.057.057 0 0 0 .547.604C.543.596.537.589.532.582.524.572.525.571.537.568.545.566.554.568.562.565.567.565.572.562.577.56.588.555.592.548.591.54A.023.023 0 0 0 .57.522a.089.089 0 0 0-.046.016c-.002 0-.005.002-.007 0C.514.536.515.533.517.53.52.52.524.511.526.501V.485C.526.477.521.47.513.466.51.466.506.463.507.459V.284S.51.277.514.274l.07-.052C.591.217.595.211.594.202V.184c0-.01.002-.012.012-.012h.08L.682.163.639.09C.637.087.632.083.639.08l.15.05c0 .004-.004.004-.006.006L.768.143c-.005.003-.006.005 0 .01.01.009.02.019.029.031a.038.038 0 0 1 .009.018C.808.211.804.217.794.218c-.006 0-.012 0-.018-.002C.757.21.74.201.723.193.713.188.711.188.704.197a.168.168 0 0 0-.02.034C.681.237.682.241.689.244l.023.011a.083.083 0 0 1 .012.008c.002.002.005.004.004.008 0 .004-.005.004-.009.005C.706.276.694.274.681.272c-.009 0-.011 0-.012.009C.669.29.666.299.667.308c0 .005.002.008.008.007.03-.002.061-.004.091-.01.005 0 .005-.003.003-.007C.764.289.759.28.756.269c0-.004-.003-.009 0-.013C.76.252.765.254.77.256a.168.168 0 0 1 .042.022c.01.007.02.008.031 0A.6.6 0 0 1 .869.263C.872.261.875.258.879.26l.099.175c.004.007.003.01-.004.014L.906.493C.903.493.901.489.9.486.877.437.853.388.831.338a.565.565 0 0 1-.02-.043v.261L.808.554z"/><path class="cls-4" d="M.806.555C.802.626.806.699.804.77L.798.764C.761.698.667.741.75.867.767.916.638.791.611.869c-.02.082.143.06.136.09-.001 0-.022.024-.024.023H.509C.496.866.506.747.503.63.524.617.515.647.541.645.58.618.478.557.56.561.576.559.579.548.587.541L.57.526C.55.528.533.542.514.541.507.511.535.496.51.47.512.472.5.455.501.459.508.279.463.314.588.203.579.138.657.18.685.168.68.176.679.168.677.165.671.145.62.093.64.077l.15.05C.796.131.787.136.786.139.746.15.805.172.809.202.79.251.739.191.713.199c-.02.012-.042.049 0 .054l.013.008c.02.037-.057 0-.054.021L.67.308l.005.005C.703.298.799.328.754.27V.255c.043.002.077.048.114.008 0 .001.013-.005.013-.002L.954.39C.96.411.994.433.97.456c-.001 0-.062.041-.063.04L.9.488.812.297C.814.379.815.48.81.556zm0 0C.813.479.805.379.81.296l.089.191s.007.007.004.007C.954.458.998.455.948.392.942.392.877.245.868.267.835.306.784.265.756.259c.003.022.03.056-.017.053C.728.312.668.327.663.31.659.259.687.273.718.275.731.272.715.263.71.26.67.257.681.204.71.195.746.187.778.239.802.206.793.179.737.149.786.133.802.144.636.084.639.087a.472.472 0 0 1 .053.088C.695.179.689.178.688.18.659.19.584.157.601.205.51.33.505.205.517.465c.009.01.019.025.016.039C.531.516.519.541.525.538.552.521.578.516.598.543.59.583.538.57.535.579c.018.019.051.09-.012.072L.512.637v.344h.214A.207.207 0 0 1 .747.96C.728.939.594.951.611.871c.032-.08.154.039.14 0C.667.744.762.697.802.766.817.727.8.622.809.557z"/><path class="cls-5" d="M.193.933V.921C.196.915.201.915.206.916.22.918.233.924.245.93L.28.949C.286.953.29.952.294.946A.36.36 0 0 0 .333.877C.336.871.333.866.33.861a.739.739 0 0 1-.043-.08C.284.769.289.764.301.766a.148.148 0 0 1 .035.013c.006.003.012.005.017.009.007.004.008 0 .009-.005A.626.626 0 0 0 .376.647c0-.01 0-.011-.011-.011-.016 0-.032.003-.047.005-.007 0-.009.004-.007.01l.007.051v.016c0 .003-.002.007-.006.008-.004 0-.006 0-.008-.004L.291.702.272.663C.268.654.266.653.257.658a.25.25 0 0 0-.053.03C.201.691.198.695.192.694V.566S.192.558.19.555V.319S.192.313.195.311L.221.297c.002 0 .004-.003.006 0 .002.002 0 .004 0 .006C.222.317.216.33.213.345a.122.122 0 0 0-.002.038c.001.012.008.021.02.026a.05.05 0 0 0 .036 0C.282.404.289.394.29.379a.172.172 0 0 0-.01-.06L.274.304S.271.298.274.296s.006 0 .008.002a.215.215 0 0 0 .067.027.036.036 0 0 0 .04-.02C.395.291.392.279.379.271.364.261.347.259.33.256.321.256.311.253.301.254c-.003 0-.008 0-.009-.003C.29.247.294.245.296.242A.32.32 0 0 0 .327.198C.331.19.332.181.339.174.343.172.348.172.353.172h.034c.013 0 .019.007.019.02v.009c0 .01.003.017.011.023l.067.05c.003.003.008.005.008.01V.46S.49.466.487.467C.476.471.473.48.473.491s.003.021.006.032l.003.009c0 .003.002.006 0 .008s-.005 0-.007 0A.136.136 0 0 0 .442.526L.428.524c-.01 0-.018.008-.02.018 0 .008.003.015.013.02.012.005.025.006.037.008.017.002.017.003.007.017a.091.091 0 0 0-.021.037C.442.633.442.642.451.648c.008.006.016.006.024 0L.486.634c.002-.003.005-.005.007 0v.331c0 .006 0 .012-.003.017H.228A.092.092 0 0 1 .194.936V.934z"/><path class="cls-4" d="M.193.933C.197.895.258.939.279.948.404.871.235.772.301.765.379.809.372.761.371.638.364.64.312.638.313.651c0 .018.016.064 0 .077C.304.728.294.709.289.703.264.634.255.666.206.69.204.69.19.701.19.694.19.648.191.6.188.557.201.481.152.34.22.294c0 0 .012.002.01 0v.01c-.064.136.103.143.039 0 .002-.039.092.052.114 0C.406.247.269.277.291.239.342.174.319.162.385.167.42.164.382.212.486.271.522.383.466.488.484.532.478.558.442.52.426.526.397.543.415.563.445.564.467.56.479.579.46.595.429.621.456.669.482.631c.03.094.005.238.007.35H.227L.192.933h.001zm0 0 .035.048h.261C.49.869.497.74.486.635.459.679.421.62.457.594.499.552.405.591.404.542.436.494.48.555.479.533.454.488.507.448.489.401.501.238.471.302.402.202.415.169.361.178.342.178A.505.505 0 0 1 .3.245C.291.261.415.239.393.309.362.356.305.309.279.304.299.347.306.435.23.412.185.381.22.324.223.299.155.348.211.596.195.693.189.69.202.687.203.685.286.633.264.655.306.72.318.73.317.709.316.702.316.69.303.647.318.639.371.632.385.628.375.687.37.747.377.814.3.767.24.774.405.872.278.949.256.941.196.895.192.933h.001z"/><path class="cls-1" d="M.338.174C.33.204.311.226.291.25a.206.206 0 0 1 .08.013c.017.008.024.02.022.033-.004.018-.017.03-.036.03A.11.11 0 0 1 .31.314a.335.335 0 0 1-.037-.02c.005.014.011.027.014.04a.175.175 0 0 1 .005.04c0 .022-.01.034-.031.038C.234.417.206.407.208.369c0-.017.004-.033.01-.049a.433.433 0 0 1 .01-.025 1.164 1.164 0 0 0-.036.02C.188.32.182.321.177.323.163.327.149.332.133.327.116.321.105.306.107.288L.118.269C.131.256.148.253.165.251.177.249.188.247.2.248h.007A.22.22 0 0 1 .172.2.032.032 0 0 1 .166.183L.192.136C.196.129.203.13.209.128c.012.003.017.013.023.023a.247.247 0 0 1 .019.054A.255.255 0 0 1 .27.15.059.059 0 0 1 .289.128C.303.119.319.122.33.135c0 .006-.002.01-.005.014L.313.17C.322.173.331.168.339.173H.338z"/><path class="cls-4" d="M.338.174.292.25c.031 0 .112 0 .1.055C.37.35.287.313.276.293.36.457.14.457.224.293l.007.006C.159.353.073.333.115.267A.179.179 0 0 1 .207.245C.199.251.166.202.164.182.202.087.239.138.25.205.267.109.341.108.326.15.307.179.317.167.339.175H.338zm0 0C.314.168.306.178.325.149.338.11.269.11.253.206.224.145.211.09.169.185.175.205.2.23.213.252a.194.194 0 0 0-.092.021c-.037.06.043.065.105.019C.261.266.163.411.251.411.319.411.274.328.275.293.398.38.447.247.292.252.289.251.339.176.339.175H.338z"/><path class="cls-1" d="M.193.694A.281.281 0 0 1 .257.655C.269.65.268.65.274.661.283.68.291.699.303.717.305.72.308.725.312.724S.316.717.316.713C.316.691.312.669.308.647c0-.004 0-.007.004-.008.02-.003.04-.006.06-.006.006 0 .008.002.008.008 0 .05-.005.1-.015.15 0 .007-.004.005-.008.003A.25.25 0 0 0 .31.773L.301.77C.291.768.288.77.291.781c.005.018.015.034.024.05l.022.037c.002.004.003.006 0 .01a.398.398 0 0 1-.042.075C.291.958.288.96.282.956A.278.278 0 0 0 .215.923C.208.921.2.918.193.923V.83c.006 0 .01.004.016.006s.011.004.016 0C.23.832.23.826.23.819.227.794.215.771.205.748.201.739.196.731.194.722V.695H.193z"/><path class="cls-4" d="M.193.694C.223.68.276.622.288.685c.006.01.027.059.026.024C.301.642.303.626.377.634.381.84.364.802.31.778.304.778.291.77.296.778c.01.035.043.066.045.102C.289.992.287.947.191.923V.83C.206.83.228.844.228.819.222.799.186.714.192.694h.001zm0 0C.187.714.225.8.231.819.235.843.198.84.194.83v.093c.074-.005.085.083.138-.047C.329.847.254.773.3.766.377.791.358.839.372.639.296.633.308.647.316.71.312.751.288.694.285.687.274.623.224.682.192.695h.001z"/><path class="cls-1" d="M.722.979C.729.97.739.962.746.951A.296.296 0 0 1 .667.939.123.123 0 0 1 .625.92C.6.901.598.875.615.851.627.834.647.835.665.839a.26.26 0 0 1 .078.035c.003.002.006.004.01.004L.734.845C.723.823.711.801.711.775c0-.018.006-.032.023-.04.02-.009.037-.006.052.008.008.008.012.018.018.027v.203C.804.979.801.98.796.98H.722z"/><path class="cls-4" d="M.722.979C.798.914.603.981.602.875.623.791.712.862.753.874L.749.88C.674.792.722.651.806.768.795.967.847.991.721.979zm0 0C.85.991.789.957.801.772.716.662.696.805.756.876c.008.035-.133-.094-.15 0 0 .101.194.038.115.103z"/><path class="cls-1" d="M.874.258.832.282C.825.285.82.285.814.282A.338.338 0 0 0 .773.258C.77.258.768.256.765.255c-.004 0-.008-.003-.011 0-.003.003 0 .007 0 .01.002.011.008.021.014.031.003.005.003.007-.004.009a.425.425 0 0 1-.061.008c-.011 0-.023 0-.034.002C.663.315.66.313.661.307c0-.012.002-.023.004-.035 0-.006.003-.006.008-.006a.158.158 0 0 0 .043.005c.003 0 .006 0 .007-.002C.723.266.721.265.719.263A.238.238 0 0 0 .68.243C.675.241.673.239.676.234A.213.213 0 0 1 .703.188C.707.183.711.183.716.186c.018.01.037.019.056.026.005.002.01.003.016.003C.8.215.803.209.799.198.795.188.788.18.781.173S.767.158.759.152C.754.148.755.146.759.144L.786.131a.03.03 0 0 1 .025.017c.02.038.042.075.063.113V.259z"/><path class="cls-4" d="M.874.258C.823.318.757.232.756.264.799.32.712.312.669.317.651.306.661.286.661.27c0 .002.012-.011.013-.009l.042.004h.003c0 .004-.002 0-.003 0L.678.246.672.23C.688.216.684.181.719.181c.029.017.112.054.06-.009C.73.139.791.064.875.257zm0 0C.846.223.827.155.787.132.757.141.757.153.783.17.842.239.752.213.716.189.702.186.693.221.681.236c.007.008.05.02.047.034C.719.28.678.265.67.27L.666.305C.693.318.734.301.765.301.773.294.757.276.754.263c0-.042.07.054.122-.006z"/><path class="cls-2" d="M.636.078v.006l.05.084c0 .001 0 .003.002.004C.686.175.683.174.681.174H.603C.596.174.592.176.594.183.6.209.586.224.566.237.545.25.526.266.506.281.506.284.503.286.5.284.497.284.498.279.5.277L.514.236.571.075.588.029c0-.004.002-.008.006-.01.013.016.023.033.034.05.002.003.004.007.008.009h.001z"/><path class="cls-4" d="M.636.078C.631.084.691.167.689.173.524.178.667.187.509.285.518.275.495.29.498.289L.494.276.586.029c.012-.028.031.038.05.049zm0 0C.614.062.595.006.588.029L.504.278C.51.264.582.234.591.203.581.142.68.189.684.168.684.165.63.083.635.078z"/><path class="cls-2" d="M.338.174h-.03C.314.16.324.149.328.136.335.121.344.107.352.092L.36.078C.365.076.367.071.369.068.38.052.39.035.402.02c.004.002.005.006.006.01l.017.046a10.286 10.286 0 0 0 .072.202v.006C.494.284.492.284.492.28L.41.219C.406.216.404.213.404.208V.183c0-.008-.002-.011-.01-.01H.339z"/><path class="cls-4" d="M.338.174C.29.178.313.171.327.135A.844.844 0 0 1 .4.018C.404.014.409.027.411.029L.5.277c0 .001-.001.01-.003.01 0 0-.012-.011-.008-.005L.428.235C.372.206.439.161.338.173zm0 0C.439.159.376.208.43.233.431.235.494.277.494.28v.001H.493V.279L.404.031c0-.002-.008-.01 0-.009C.39.04.376.064.362.079a2.259 2.259 0 0 0-.053.095.299.299 0 0 1 .03 0H.338z"/><path class="cls-5" d="M.105.288c.011.037.024.044.062.035.003 0 .005 0 .008-.002C.175.33.17.337.167.345L.102.484C.101.487.099.491.096.492L.025.446C.019.442.021.439.024.435L.106.289H.105z"/><path class="cls-4" d="M.105.288C.125.37.197.282.169.346.161.358.109.492.098.496-.037.447.067.376.105.288zm0 0C.073.38-.027.435.095.487L.099.48.166.344c.001 0 .007-.029.01-.022C.146.335.108.324.106.287H.105z"/><path class="cls-3" d="M.806.555.804.547c0-.086 0-.172.002-.259l.096.203a1.952 1.952 0 0 1-.095.063z"/><path class="cls-4" d="M.806.555C.801.46.804.363.801.267L.903.49C.905.494.806.552.805.555zm0 0S.906.484.9.492L.802.29C.825.355.796.471.806.555z"/><g><path class="cls-3" d="m.095.491.08-.17L.19.315c.003.003.002.006.002.01v.22S.193.552.19.555C.158.534.126.514.095.492z"/><path class="cls-4" d="M.095.491.172.32C.219.291.19.485.192.557.189.561.098.491.096.492H.095zm0 0 .096.062C.189.486.181.38.191.318L.176.324C.183.315.093.493.095.491z"/></g><g><path class="cls-5" d="M.424.076.403.019h.19L.572.076C.568.079.564.079.559.079H.435S.426.079.422.076h.002z"/><path class="cls-4" d="M.424.076S.398.019.403.018l.19-.003c.007 0 .008 0 .004.006L.575.077C.525.086.467.08.424.076zm0 0C.464.081.531.075.569.075l.02-.057C.615.034.4.016.403.021c.001-.008.02.057.021.056z"/></g><g><path class="cls-3" d="M.489.979V.627C.487.616.493.606.496.596c0-.003.005-.004.006 0 .003.01.009.02.007.031v.352h-.02z"/><path class="cls-4" d="M.489.979C.491.963.478.59.491.596c0 0 .023-.004.016 0l.006.032-.004.351h-.02zm0 0h.02L.505.627.498.598C.49.598.506.599.502.596L.494.627.489.979z"/></g><g><path class="cls-5" d="M.36.078S.362.08.36.082L.329.134.327.136C.305.121.288.124.273.147A.202.202 0 0 0 .25.209L.248.216C.238.183.234.15.206.129L.353.08.358.079H.36z"/><path class="cls-4" d="M.36.078a.193.193 0 0 1-.034.059C.27.101.261.198.248.231.233.194.232.15.198.128L.36.078zm0 0L.353.08.207.132C.218.111.267.22.244.214.254.181.281.093.326.136.337.119.352.098.36.078z"/></g><g><path class="cls-5" d="M.164.183a.258.258 0 0 0 .045.066.174.174 0 0 0-.093.02L.164.183z"/><path class="cls-4" d="m.164.183.05.068C.182.259.151.268.118.272.112.272.106.276.113.267L.164.183zm0 0S.12.288.114.266C.142.262.192.241.207.251L.164.183z"/></g><g><path class="cls-5" d="M.193.721c.016.031.033.061.039.096.001.008.001.015-.005.02s-.013.002-.02 0L.193.829V.722z"/><path class="cls-4" d="M.193.721c.003.028.082.122.012.12C.203.839.189.832.189.829L.193.721zm0 0S.2.841.195.826C.259.858.203.758.193.721z"/></g><g><path class="cls-1" d="M.193.933a.22.22 0 0 0 .034.046H.2C.194.979.193.977.193.972V.933z"/><path class="cls-4" d="m.193.933.043.049C.199.999.182.961.193.933zm0 0c-.009.068.041.029.03.049L.193.933z"/></g><g><path class="cls-3" d="M.424.076h.149L.537.179.5.282C.503.284.504.282.506.28c.003.003.002.007.002.01v.16s0 .007-.002.01a.014.014 0 0 1-.015 0C.488.458.489.454.489.451V.289s0-.006.002-.009l.007.004L.48.232.425.075z"/><path class="cls-4" d="M.424.076.573.074C.579.075.502.281.504.283.501.278.504.275.509.277c.004.066.008.12 0 .186C.467.483.491.329.49.278.491.276.498.281.5.281.47.227.453.137.425.075H.424zm0 0c.022.066.06.143.073.21L.491.282c.01.04-.015.158.013.174-.002.004 0-.174 0-.173C.478.309.575.08.572.076c.009.005-.149 0-.148 0z"/></g><g><path class="cls-1" d="M.491.461h.015C.524.468.531.479.526.5c0 .006-.003.012-.005.018L.515.536c.004 0 .007 0 .009-.003A.15.15 0 0 1 .559.519h.014c.01.002.019.011.02.021A.021.021 0 0 1 .58.561C.565.568.549.569.533.571H.528C.53.578.536.583.54.588.548.6.557.612.558.627c0 .012-.004.02-.015.024C.533.655.527.653.519.644L.509.628.504.612C.504.607.501.602.499.595a1.058 1.058 0 0 0-.01.034C.485.635.482.642.476.648S.463.656.454.653C.445.649.44.644.439.634c0-.012.004-.023.01-.032l.02-.029L.434.568A.043.043 0 0 1 .416.562C.406.557.401.549.403.54A.025.025 0 0 1 .426.52c.012 0 .023.003.033.008L.48.539C.483.536.48.533.48.531.476.519.472.508.471.495c0-.019.004-.026.021-.032V.461z"/><path class="cls-4" d="M.491.461c.05-.008.037.055.024.074C.54.526.573.501.592.537.601.566.522.581.531.571.601.651.516.7.494.597.514.59.492.624.494.631.483.659.449.668.436.635.441.616.457.572.469.577.432.58.372.549.426.519c.018.004.042.009.053.02C.476.514.457.472.491.462zm0 0C.456.473.48.513.481.54.405.493.372.571.47.57h.005a.14.14 0 0 0-.032.063C.475.68.493.603.499.576c.018.109.076.063.038.013C.537.585.513.562.528.567.623.564.591.492.515.536.523.508.543.455.491.46z"/></g><g><path class="cls-2" d="M.651.371H.71c.006 0 .008.002.008.008v.1s0 .007-.005.009L.655.522c-.003.002-.006 0-.009 0L.595.493C.588.489.584.484.584.475V.381c0-.008.002-.01.01-.01h.057z"/><path class="cls-4" d="M.651.371C.674.374.73.356.72.399.723.468.732.492.658.526.566.533.538.333.651.371zm0 0C.546.341.57.507.648.516.65.522.71.484.712.484.712.408.75.36.651.37z"/></g></svg>