<svg id="Capa_1" data-name="Capa 1" xmlns="http://www.w3.org/2000/svg" version="1.1" viewBox="0 0 2.81 1.01"><defs><style>.cls-1{fill:#c12945}.cls-1,.cls-2,.cls-3,.cls-4,.cls-5,.cls-6{stroke-width:0}.cls-2{fill:none}.cls-3{fill:#e06f83}.cls-4{fill:#000}.cls-5{fill:#fec76f}.cls-6{fill:#d74861}</style></defs><path class="cls-6" d="M1.54.08c.05.02.1.03.15.05 0 0-.02 0-.03.01.01.01.03.02.04.04V.2h-.02c-.02 0-.04-.02-.06-.03h-.01c-.01.01-.02.03-.03.04v.01c.01 0 .02.01.04.02h-.04v.04h.1s0-.02-.01-.03V.24h.01c.01 0 .03.02.04.02h.02c.01 0 .03-.02.04-.02.03.06.07.12.1.18v.01c-.02.01-.05.03-.07.04l-.1-.2V.74.73A.055.055 0 0 0 1.66.7c-.02 0-.03.02-.03.04 0 .03.01.05.02.07 0 .01.01.02.02.03-.01 0-.02-.01-.03-.02C1.61.81 1.59.79 1.56.8c-.01 0-.02 0-.03.01-.02.02-.02.05.01.07.01 0 .03.02.04.02.03 0 .05.01.08.01 0 0-.02.02-.02.03H1.43V.59.6c0 .01.02.02.03.01.01 0 .02-.02.01-.03 0-.01-.01-.02-.02-.03L1.44.53h.05c.01 0 .02-.01.01-.02 0-.01-.01-.02-.02-.02h-.02c-.01 0-.02 0-.03.01 0-.01 0-.03.01-.04 0-.02 0-.03-.02-.04V.24c.02-.02.05-.04.07-.05 0 0 .01-.01.01-.03V.14h.09L1.56.08c0-.01-.02-.02-.02-.04Zm.09.35V.38h-.12V.48s0 .01.01.02c.02 0 .03.02.05.03L1.63.5V.44ZM1.1.7V.34c.01 0 .02-.01.03-.02s0 .02 0 .02c0 .02 0 .03-.01.05 0 .04.03.05.05.04.02 0 .03-.02.03-.04V.35c0-.01-.01-.02-.01-.04s.04.02.06.03h.03c.01 0 .02-.02.03-.03 0-.01 0-.02-.02-.03-.01 0-.02 0-.04-.01H1.2c.02-.02.03-.04.04-.07h.06s.01 0 0 .01v.04c.01 0 .02.02.04.03.02.01.03.02.05.04V.5s-.02 0-.02.02v.02c0 .01 0 .02.01.04-.01 0-.03-.01-.05-.01-.01 0-.02 0-.02.02 0 0 0 .02.01.02h.06c0 .01-.02.02-.02.03 0 0-.01.02 0 .03 0 0 0 .02.01.02h.02s0-.01.01-.02V1.02h-.27C1.12 1 1.11.99 1.1.97V.96h.02c.02 0 .05.02.07.03h.01c.02-.02.03-.05.04-.08V.9c0-.01-.01-.02-.02-.04 0-.02-.02-.03-.03-.05V.8h.01c.02 0 .03.01.05.02.01-.05.02-.1.02-.15h-.06v.07C1.2.72 1.19.7 1.18.69h-.01c-.02.01-.05.02-.07.04Z"/><path class="cls-5" d="M1.24.18s-.02.05-.04.07h.05c.01 0 .03 0 .04.01.01 0 .02.01.02.03 0 .01-.01.03-.03.03h-.03c-.02 0-.04-.02-.06-.03s0 .03.01.04v.04c0 .02-.01.03-.03.04-.03 0-.06 0-.05-.04 0-.02 0-.03.01-.05V.3c-.01 0-.02.01-.03.02h-.03c-.03 0-.05 0-.06-.04 0 0 0-.01.01-.02s.04-.01.07-.02h.02a.161.161 0 0 1-.04-.07c0-.02.02-.03.03-.05h.02s.01 0 .01.01c.01.01.02.03.02.05v.03c0-.02.01-.05.03-.07.01-.02.03-.03.05-.01 0 .01-.02.02-.02.04h.03ZM1.1.7s.04-.03.07-.04h.01c0 .02.02.04.03.05V.64h.06c0 .05 0 .1-.02.15-.02 0-.03-.02-.05-.02h-.01s-.01 0 0 .01c0 .02.02.04.03.05 0 .01.01.02.02.04v.01c-.01.03-.03.05-.04.08h-.01C1.17.95 1.15.93 1.12.93H1.1V.84h.03V.82c0-.03-.02-.06-.04-.09V.7ZM1.63.99s.01-.02.02-.03c-.03 0-.05 0-.08-.01-.02 0-.03-.01-.04-.02C1.5.91 1.5.89 1.52.86c0 0 .02-.01.03-.01.03 0 .06.01.08.02.01 0 .02.01.03.02 0-.01-.01-.02-.02-.03a.185.185 0 0 1-.02-.07c0-.02.01-.04.03-.04.02 0 .04 0 .05.03V.99h-.07ZM1.79.26s-.03.02-.04.02h-.02c-.01 0-.03-.02-.04-.02h-.01v.01s0 .02.01.03h-.1V.26h.04c-.01 0-.02-.01-.04-.02V.23c0-.02.02-.03.03-.04h.01l.06.03h.02V.2c0-.01-.02-.03-.04-.04 0 0 .02 0 .03-.01.01 0 .02 0 .03.02.02.04.04.08.06.11Z"/><path class="cls-3" d="M1.54.08s.01.03.02.04l.03.06H1.5V.2c0 .01 0 .02-.01.03-.02.02-.05.03-.07.05 0-.03.02-.05.03-.08.02-.04.03-.09.05-.13V.05c0-.01 0-.02.01-.03.01.02.02.03.03.05ZM1.24.18h-.03s.02-.02.02-.04c.01-.01.02-.02.02-.04 0 0 .01-.01.01-.02.01-.01.02-.03.03-.05V.02c0 .02.01.03.02.05.02.05.04.11.06.16 0 .02.01.03.02.05-.01-.01-.03-.02-.05-.04-.01 0-.02-.02-.04-.03V.16h-.06Z"/><path class="cls-6" d="M1.01.29c0 .03.03.04.06.04h.01c-.03.05-.05.11-.08.16C.98.47.95.46.93.44V.43c.03-.05.06-.1.08-.15Z"/><path class="cls-1" d="M1.72.56V.3l.1.2s-.06.04-.1.06ZM1 .5c.03-.05.05-.11.08-.16h.02v.22C1.07.54 1.04.52 1 .5Z"/><path class="cls-6" d="M1.33.08S1.32.05 1.31.03h.18s0 .02-.01.03v.02h-.15Z"/><path class="cls-1" d="M1.4.99V.61v.38h-.02Z"/><path class="cls-6" d="M1.27.08s0 .02-.01.02c0 .01-.01.03-.02.04-.02-.02-.04-.01-.05.01-.01.02-.02.05-.03.07V.19c0-.02-.01-.03-.02-.05L1.13.13l.1-.03c.02 0 .04-.01.06-.02ZM1.07.19s.03.05.04.07h-.02c-.02 0-.05 0-.07.02.01-.02.03-.05.04-.07V.19ZM1.1.73s.03.06.04.09v.02h-.03V.73Z"/><path class="cls-5" d="M1.1.94s.02.03.03.05H1.1V.95Z"/><path class="cls-6" d="M1.02.27Z"/><path class="cls-1" d="M1.33.08h.15c-.02.04-.03.09-.05.13 0 .03-.02.05-.03.08v.18h-.02V.29c0-.02-.01-.03-.02-.05C1.34.19 1.32.13 1.3.08Z"/><path class="cls-5" d="M1.4.46h.02c.02 0 .02.02.02.04 0 .01 0 .02-.01.04.01 0 .02-.01.03-.01h.02c.01 0 .02 0 .02.02 0 0 0 .02-.01.02h-.05s0 .01.01.02c0 .01.01.02.02.03 0 .01 0 .03-.01.03s-.02 0-.03-.01V.6v.03s0 .01-.01.02H1.4s-.01 0-.01-.02V.6c0-.01.01-.02.02-.03h-.06c-.01 0-.02-.01-.01-.02 0-.01.01-.02.02-.02.02 0 .03 0 .05.01 0-.01 0-.02-.01-.04V.48s0-.01.02-.02Z"/><path class="cls-3" d="M1.63.43V.49l-.06.03c-.02 0-.03-.02-.05-.03 0 0-.01 0-.01-.02V.37h.12v.05Z"/><path class="cls-6" d="M1.13.3zM1.18.3zM1.08.32Z"/><path class="cls-4" d="m1.54.08.15.05s-.02.03 0 .06c.03.05-.04.02-.06.01-.03-.03-.05.01-.06.04 0 0 .07.05.01.04-.03-.02-.04.05-.01.04.06-.01.09.01.07-.06.06 0 .06.05.12 0 .01.04.13.18.09.2 0 0-.06.05-.07.04l-.1-.2c.04.04 0 .19.01.26v.22h-.02c-.08-.1-.09.04-.04.1l-.01.01c-.18-.1-.18.06 0 .06v.01s-.02.03-.03.03h-.22c-.02 0 0-.35 0-.36.04.06.06-.02.01-.05.02-.02.07 0 .06-.04-.02-.03-.05 0-.07 0 0-.02.03-.06 0-.07V.28c.16-.1.02-.11.18-.11l-.06-.1Zm0 0 .06.1s-.1-.03-.1.03c-.01.04-.06.06-.09.08v.18c.03 0 .02.08 0 .08.02 0 .06-.03.08 0 .01.03-.06.05-.06.04.09.11-.05.09-.02.06 0 0 .01.38 0 .35h.21l.02-.03c-.21.02-.19-.19.01-.08C1.62.92 1.6.81 1.6.78c.02-.06.1-.04.11 0h-.02V.57c-.01-.09 0-.19 0-.28h.01s.12.22.09.2c.05-.04.09-.03.04-.1 0 0-.09-.14-.07-.13-.03.08-.16-.07-.11.04-.03.02-.06.01-.09.02-.05 0-.02-.08.01-.05.06 0 0 0-.02-.03 0-.02.03-.07.06-.04.02.01.08.04.05 0-.02-.02-.05-.06 0-.06L1.51.09Z"/><path class="cls-4" d="M1.63.43c0-.07-.01-.06-.07-.05-.06 0-.06 0-.05.06-.03.1.15.09.13 0Zm0 0c.03.12-.16.12-.15 0 0-.07.02-.08.07-.07.07 0 .08 0 .07.06ZM1.1.7V.32s.04-.03.03-.02c-.01.04-.04.12.02.11.08 0 .01-.11.03-.11 0-.02.09.06.1 0 .01-.04-.06-.03-.1-.05 0 0 .05-.09.05-.08.06 0 .08 0 .07.05l.08.06v.19c-.04.03 0 .05-.01.08-.07-.04-.1.02-.02.02 0 0 .01.01.01.02-.04.03-.03.09 0 .05h.02s.01.37 0 .37h-.27L1.07.96c0-.06.09.02.1.01.01-.03.05-.06.04-.09-.11-.18.06 0 .04-.11l.01-.11c-.02 0-.09-.01-.06.04 0 .01.01.05 0 .05-.04-.08-.04-.08-.11-.03Zm0 0c.08-.05.07-.06.12.03.01 0 0-.03 0-.04-.03-.05.04-.05.07-.04v.11c0 .06-.05.05-.08.03-.02.06.09.06 0 .18-.04 0-.08-.03-.1-.03 0 0 0 .02 0 0 0 0 .04.06.03.04 0 0 .3-.01.26 0 0 0-.02-.39.01-.35-.05.07-.09-.02-.03-.07v.02c-.02 0-.08 0-.07-.05.03-.04.07 0 .08 0-.01.03-.04-.06 0-.07-.01.04 0-.2 0-.17C1.33.24 1.31.24 1.3.18h-.05c.01-.01-.03.06-.04.07-.01-.01.05 0 .06 0 .08.03.01.12-.09.05.08.19-.15.14-.05 0 0 0-.04.03-.03.02V.7Z"/><path class="cls-4" d="M1.24.18s-.04.08-.05.08c.15 0 .11.14-.02.05 0-.04.07.12-.02.12-.08 0-.04-.1-.03-.13l.02.01C1.1.34 1.01.37 1 .29c0-.01 0-.03.03-.01V.27c.02 0 .09-.04.09 0 0 0-.05-.07-.04-.07.02-.02.01-.05.05-.06.02.02.05.07.04.09.01-.03.03-.12.08-.08-.02.04-.04.04 0 .04Zm0 0h-.03l.02-.04c-.05-.04-.06.05-.08.08C1.13.2 1.12.15 1.1.14c-.02 0-.03.06-.04.05 0 0 .05.07.04.07-.04 0-.08.04-.1 0l.01.01S1 .3 1 .28c0 .04.03.04.06.03h.02s.05-.03.03-.02l.02.01c-.01.05-.04.11.02.11.08 0 0-.11.03-.11.11.08.17-.04.02-.04l.05-.08ZM1.1.7s.09-.06.11 0c.05.06-.04-.08.04-.07.07-.03.04.08.04.11 0 .09-.03.06-.08.04.01.02.02.04.03.07.03.03-.03.15-.07.11C1.14.95 1.12.94 1.1.93v-.1c.08.03-.02-.1 0-.13Zm0 0s.02.08.03.1c.04.04-.03.06-.03.04 0 0 .01.11 0 .09.06-.01.1.07.12 0C1.27.88 1.21.86 1.19.8c.03-.05.05 0 .07 0V.75c0-.04.05-.12-.02-.1-.07-.04.02.13-.05.06-.01-.07-.06-.04-.1-.01ZM1.63.99c.07-.07-.11 0-.12-.1 0-.08.18-.01.15 0-.09-.1-.02-.23.06-.12-.01.2.04.23-.09.21Zm0 0c.07 0 .09.02.08-.07V.78c-.01-.04-.07-.04-.08 0 0 .04.05.1.03.12-.05-.02-.12-.07-.14 0 0 .1.19.04.12.1ZM1.79.26s-.07.03-.1 0c-.04-.03.03.07-.04.05-.03.02-.1 0-.08-.04.06-.03.07.01.02-.02-.02-.08.06-.08.1-.05.02 0 .02-.01 0-.03-.03-.02-.03-.04.01-.05.05.03.06.09.09.13Zm0 0S1.74.16 1.7.13c-.02.01-.04.01 0 .04.02 0 .03.06 0 .05-.02 0-.05-.02-.06-.02-.06.08.02.02.01.08H1.6c-.02.05.02.03.06.03.07.02-.02-.07.05-.05.03.03.06.03.1 0Z"/><path class="cls-4" d="M1.54.08s.07.1.06.1c-.17 0-.02 0-.18.11-.01.01-.02 0-.03 0 .02-.04.09-.23.1-.26l.04.06Zm0 0S1.49.02 1.5.02c-.01.04-.07.23-.09.27-.04-.02.08-.05.08-.09 0-.03.03-.04.04-.03h.06l-.05-.1Z"/><path class="cls-4" d="M1.24.18s-.02 0-.01-.04c.02-.03.05-.09.07-.12.06.07.07.18.11.27 0 .03-.09-.06-.1-.06 0-.06-.01-.04-.07-.05Zm0 0c.05 0 .07 0 .07.04 0 0 .09.07.08.06.01 0 0 0 0 .01C1.36.21 1.3.1 1.3.03l-.04.06c-.01.03-.04.06-.06.1h.03ZM1.01.29s.04.04.07.03c-.02.06-.05.12-.07.18C1 .51.95.47.94.47.88.45 1 .33 1.01.3Zm0 0c-.06.15-.13.13 0 .2H1l.08-.16c0 .02-.07 0-.07-.04ZM1.72.56c0-.08-.03-.22 0-.27.03.07.07.14.09.21l-.1.06Zm0 0 .09-.07s-.07-.13-.1-.2c.04.04 0 .19 0 .26Z"/><path class="cls-4" d="m1 .5.07-.17c.06-.07.03.17.03.23 0 0-.09-.07-.1-.07Zm0 0 .1.06c-.01-.06 0-.17 0-.23h-.01c-.03.07-.06.11-.08.17ZM1.33.08 1.31.03c.07 0 .19-.03.2 0-.03.09-.03.05-.18.05Zm0 0h.15s.02-.06.01-.06v.01h-.18s.01.04.02.05ZM1.4.99s-.01-.35 0-.36V.6h.02V.99H1.4Zm0 0h.02V.64c0 .01-.01-.03-.01-.03h.02v.03l-.02.35ZM1.27.08s-.02.05-.04.06c-.06-.04-.04.09-.09.08 0-.04-.03-.07-.04-.09l.16-.05Zm0 0s-.18.08-.15.05c.03.02.07.09.03.09.01-.03.04-.12.09-.08l.04-.06ZM1.07.19c.08.09.05.07-.04.09-.03 0 .04-.08.04-.09Zm0 0-.04.09s.09-.04.09-.02L1.08.19ZM1.1.73s.1.16 0 .12V.73Zm0 0v.11c.05.03 0-.06 0-.1ZM1.1.94l.04.04S1.08.96 1.1.94Zm0 0s0 .05.03.04c-.01.04-.02-.02-.03-.04Z"/><path class="cls-4" d="M1.02.27c-.03-.02 0 0-.01 0Zm0 0s.02.02-.01 0ZM1.33.08s.15-.01.15 0c0 0-.06.25-.08.2h.02v.18h-.03s-.01-.21.02-.18c0 .03-.07-.21-.08-.21Zm0 0 .08.21H1.4c.02-.03 0 .18.01.18-.02-.01 0 0 .01 0-.02.04 0-.18 0-.17 0 0 .02 0 0 .01-.03 0 .07-.21.07-.22h-.15Z"/><path class="cls-4" d="M1.4.46c.05-.01.04.06.03.07.08-.06.12.04.01.04.01-.02.04.04.04.06-.02.05-.07.02-.08-.04h.02v.03s-.07.04-.08 0c0-.02.03-.08.04-.06-.02 0-.07 0-.07-.04.02-.03.06 0 .08 0 0-.02-.02-.06 0-.08Zm0 0v.08c-.08-.04-.11.02-.01.03-.04.03-.03.1 0 .05V.59h.02c0 .08.08.05.01-.02.1-.01.06-.06-.01-.03.01-.03.03-.08-.02-.08Z"/><path class="cls-4" d="M1.63.43c.03.12-.16.12-.15 0 0-.07.02-.08.07-.07.07 0 .08 0 .07.06Zm0 0c0-.07-.01-.06-.07-.05-.06 0-.06 0-.05.06-.03.1.15.09.13 0Z"/><path class="cls-2" d="M1.13.3zM1.18.3z"/><path class="cls-4" d="M1.08.32c-.02-.03 0 0 0-.01Zm0 0s.02.03 0 0c0 0 0 .01 0 0Z"/></svg>