<svg id="Capa_1" data-name="Capa 1" xmlns="http://www.w3.org/2000/svg" version="1.1" viewBox="0 0 1.01 1.01"><defs><style>.cls-1{fill:#dbd9d8}.cls-1,.cls-2,.cls-3,.cls-4,.cls-6{stroke-width:0}.cls-2{fill:#000}.cls-3{fill:#e4e4e4}.cls-4{fill:#e8be38}.cls-6{fill:#ea6937}</style></defs><path d="M.62.99H.34C.39.98.42.95.45.91V.34C.45.32.45.3.44.28.4.2.36.12.32.05V.03h.02c.03.02.07.03.11.03C.5.06.55.06.6.03h.02v.02C.58.13.54.21.5.28.5.3.49.32.49.34V.9c.02.03.04.06.08.07.01 0 .03 0 .04.01Z" style="fill:#a57b05;stroke-width:0"/><path class="cls-4" d="M.49.55V.33C.49.31.49.29.5.27.54.19.58.11.62.04V.02h.02v.52H.49ZM.33.02v.02C.37.12.41.2.45.27c0 .02.01.04.01.06v.22H.31V.03h.02ZM.62.99S.59.99.58.98A.27.27 0 0 1 .5.91V.83h.41v.09c0 .01 0 .02-.02.03a.3.3 0 0 1-.1.04C.75.99.71 1 .68 1H.63ZM.46.82V.9C.43.94.4.97.35.98H.33C.26.98.2.98.14.95.12.95.11.94.1.92.1.92.09.9.09.89V.8h.4Z"/><path class="cls-3" d="M.65.55V.03c.03 0 .06.01.08.02v.5H.65ZM.31.02v.52H.23v-.5C.24.04.26.04.27.03.29.03.3.03.32.02Z"/><path class="cls-4" d="M.73.55v-.5c.01 0 .03 0 .04.01C.79.06.8.08.8.1v.25c0 .06.03.11.08.14C.89.49.9.51.9.52v.04H.73ZM.23.05v.5H.06V.52C.06.5.06.49.08.48.12.46.15.42.16.38V.1c0-.03 0-.03.03-.04h.04ZM.46.64v.1H.07v-.1h.4ZM.5.74v-.1H.9v.1H.5Z"/><path class="cls-1" d="M.06.74h.39v.09h-.4V.75ZM.5.74h.4v.08H.49V.74ZM.46.64h-.4V.57h.4v.08ZM.9.64H.5V.56h.4v.07Z"/><path class="cls-6" d="M.32.99h.02-.02ZM.31.99Z"/><path class="cls-2" d="M.62 1H.33C.4.98.48.92.45.83V.37C.45.23.34.16.31.02c.05-.03.12.04.17.02C.53.04.56.02.63.02.59.22.46.31.5.53.52.67.42.95.62 1Zm0 0C.42.96.51.67.49.53.46.36.55.18.62.03.65.03.49.06.49.06.44.08.39.04.34.04c.16.3.13.39.12.71C.46.87.46.99.33 1h.28Z"/><path class="cls-2" d="M.49.56C.47.3.51.24.63.01c.01 0 .02 0 .03.02 0 .18 0 .36-.01.53H.49Zm0 0h.15c0 .01-.03-.58 0-.52-.03 0-.01 0 0-.02C.56.26.47.27.5.56H.49Z"/><path class="cls-2" d="M.33.03C.41.2.5.37.48.56.45.59.33.58.3.56.31.56.3 0 .33.03Zm0 0S.35.64.31.55h.15-.01C.49.36.4.21.33.03ZM.62 1C.54.98.46.9.5.83.63.83.79.8.91.83v.1C.85 1.01.73 1 .63 1Zm0 0C.73 1 .93 1 .89.83L.9.84C.78.84.6.85.5.83.48.91.55.97.62 1ZM.46.83C.49.92.39 1.01.31 1 .19.98-.01 1 .06.82h.4Zm0 0S.02.85.07.83C.04.99.2.96.31.99.39.99.49.92.46.83ZM.64.56V.02c.01 0 .1.02.1.04L.73.57H.64Zm0 0h.08C.72.57.69 0 .72.07L.64.04h.02L.65.56Z"/><path class="cls-2" d="M.31.03v.53S.24.57.23.57L.21.56v-.5s.1-.02.1-.03Zm0 0S.22.06.23.06l.01.5H.23L.31.55H.3L.31.03ZM.73.56v-.5s.05 0 .08.02C.84.19.78.34.83.44c.16.14.04.13-.1.12Zm0 0C.85.56.98.59.82.45.74.37.85.06.73.07c.04-.07 0 .5 0 .49Z"/><path class="cls-2" d="M.22.06v.5S.06.57.05.58L.04.57c0-.11.13-.1.11-.26C.17.24.11.06.22.06Zm0 0C.1.06.17.24.16.31.19.49.04.48.07.57.01.54.23.57.22.56.19.63.22.05.22.07ZM.46.65v.1h-.4s0-.12.01-.12h.4-.01Zm0 0h-.4v.1c-.05-.03.4 0 .39 0v-.1h.01ZM.49.75v-.1h.4c.02 0 0 .1 0 .11h-.4Zm0 0h.4s0-.1-.01-.1c.06.03-.4 0-.39 0v.1Z"/><path class="cls-2" d="M.06.75s.4-.02.41 0c0 0 .01.1 0 .1h-.4V.76H.06Zm0 0v.08S.5.81.45.83V.76h-.4.01ZM.49.75h.4S.9.8.89.84H.48V.75h.01Zm0 0v.08s.43-.01.4 0V.76h-.4ZM.46.65h-.4S.06.6.05.56h.4v.09h.01Zm0 0V.57h-.4v.07h.4ZM.9.65H.5S.5.57.49.57c0-.02.23 0 .25 0C.89.58.92.53.9.66Zm0 0C.93.51.8.59.5.58.52.54.5.65.5.65.45.63.9.65.89.65ZM.32 1S.33.98.35 1c-.01.02-.02.01-.03 0Zm0 0s.02-.02 0 0c.03.02.01 0 0 0ZM.31 1s.01 0 0-.01c-.02.06 0 .01 0 .02Zm0 0s.02-.04 0 .02V1Z"/></svg>