<?xml version="1.0" encoding="UTF-8"?>
<svg id="Layer_1" data-name="Layer 1" xmlns="http://www.w3.org/2000/svg" version="1.1" viewBox="0 0 1 1">
  <defs>
    <style>
      .cls-1 {
        fill: #e92e00;
      }

      .cls-1, .cls-2, .cls-3 {
        stroke-width: 0px;
      }

      .cls-2 {
        fill: #000;
      }

      .cls-3 {
        fill: #fff;
      }
    </style>
  </defs>
  <g>
    <path class="cls-1" d="M.87.8554c0,.072-.1627.1381-.3677.1381s-.3799-.0468-.3748-.1381c.0008-.0135.0008-.0258.0008-.0386,0-.0246.0775-.0938.3705-.0918.2385.0016.3677.0658.3677.0866,0,.0156.0035.0258.0035.0438Z"/>
    <path class="cls-2" d="M.87.8554c-.0637.1342-.2474.1342-.3789.1432-.1252-.0136-.3294.0159-.3737-.1525.0567-.1567.2576-.1125.3834-.1263.1235.0172.3309-.005.3691.1355,0,0-.0382-.1404,0,0ZM.87.8554c-.0402-.1375-.2465-.1113-.3692-.1252-.1226.0102-.3304-.0075-.3628.1168.0414.1958.6557.1901.7321.0083h0Z"/>
  </g>
  <g>
    <path class="cls-1" d="M.87.8269c0,.072-.1662.1304-.3712.1304s-.3764-.0391-.3712-.1304c.0041-.0719.1662-.1304.3712-.1304s.3712.0584.3712.1304Z"/>
    <path class="cls-2" d="M.8716.8269c-.0874.1931-.6626.1979-.753.0043.0944-.2114.6549-.2012.753-.0043h0ZM.8685.8269c-.0942-.1647-.6445-.1577-.7315.0041.0432.1279.2378.1108.3602.1146.126-.015.3034.0053.3713-.1187h0Z"/>
  </g>
  <g>
    <path class="cls-1" d="M.4202.0329l-.1937.7649s-.0138.0972.2642.0972.2677-.1114.2677-.1114L.5554.0351s-.0177-.0263-.0709-.0241-.0643.0219-.0643.0219Z"/>
    <path class="cls-2" d="M.4216.0334s-.1844.7711-.183.766c.0574.1297.4588.1249.5073-.0126,0,0-.2034-.7482-.2034-.7482-.0088-.0105-.0863-.0383-.1209-.0052H.4216ZM.4187.0323c.0362-.0331.1065-.0473.1495-.0006,0,0,.2025.7485.2025.7485-.0231.1259-.1764.1155-.2746.1203-.099-.0111-.2458.0188-.2819-.1042-.0014-.0007.2052-.7629.2045-.7639H.4187Z"/>
  </g>
  <g>
    <path class="cls-3" d="M.2828.5892s-.0167.1015.2108.1015.2036-.0971.2036-.0971l.0377.1095s-.031.1033-.2403.1021c-.2272-.0013-.2405-.1174-.2405-.1174l.0288-.0986Z"/>
    <path class="cls-2" d="M.2831.5877c.0174.0941.132.0899.2069.09.0846.0002.2115-.0014.2051-.1077.0061.0234.0391.1094.0486.1333-.0822.192-.6159.1534-.4606-.1156H.2831ZM.2825.5907c-.1168.2364.3595.2565.4445.1101.0036.0225-.0315-.101-.0311-.0968,0,0-.0033-.0087-.0033-.0087.0359.1413-.406.1529-.4101-.0046H.2825Z"/>
  </g>
  <g>
    <ellipse class="cls-2" cx=".4889" cy=".0501" rx=".0473" ry=".017"/>
    <path class="cls-2" d="M.5374.0501c-.022.0394-.0711.0302-.1029,0,.0282-.0448.0833-.0345.1029,0C.5374.0501.5178.0156.5374.0501ZM.535.0501c-.0236-.0132-.0713-.0029-.0863,0,.0114.0175.0651.0082.0863,0C.535.0501.5139.0584.535.0501Z"/>
  </g>
</svg>