<?xml version="1.0" encoding="UTF-8"?>
<svg id="Layer_1" data-name="Layer 1" xmlns="http://www.w3.org/2000/svg" version="1.1" viewBox="0 0 1 1">
  <defs>
    <style>
      .cls-1 {
        fill: #e92e00;
      }

      .cls-1, .cls-2, .cls-3 {
        stroke-width: 0px;
      }

      .cls-2 {
        fill: #ad2307;
      }

      .cls-3 {
        fill: #000;
      }
    </style>
  </defs>
  <g>
    <path class="cls-1" d="M.1562.3463l.1036.5608s.0256.0718.2602.071c.1848-.0007.2301-.043.258-.0839l.0685-.5479H.1562Z"/>
    <path class="cls-3" d="M.1571.347c.0352.1886.0849.3791.1108.5571.1114.0936.4049.109.5053-.013-.0027.0123.0622-.549.0616-.5462.0685.0338-.6895-.0076-.6777.0021h0ZM.1552.3455l.691-.0109c.0123,0,.0155-.0033.0116.0132-.002.004-.0725.5464-.0754.5496-.1021.1188-.4171.1207-.5309.0128-.042-.19-.0628-.3806-.0964-.5647h0Z"/>
  </g>
  <g>
    <path class="cls-1" d="M.8575.3824c-.0265.0296-.1656.0765-.3562.0765s-.3451-.0322-.3451-.0718c0,0-.0333-.0291-.0036-.048s.7017-.0007.7017-.0007c0,0,.0398.0032.0032.0441h0Z"/>
    <path class="cls-3" d="M.8584.3833c-.2001.1157-.5348.1187-.7066.0087-.075-.0861.107-.0672.1475-.0722.102-.0016.3082.0018.41.0068.0319.0095.2162-.0174.1491.0567h0ZM.8565.3816c.0613-.0692-.12-.0302-.1476-.0383-.1018.0003-.3077-.0005-.4095-.0016-.0476.0088-.1868-.0248-.1391.0405.1699.1186.5069.08.6962-.0006h0Z"/>
  </g>
  <g>
    <path class="cls-2" d="M.8575.3416c0,.0397-.1656.0765-.3562.0765s-.3451-.0322-.3451-.0718.1559-.0864.3465-.0864.3548.042.3548.0817Z"/>
    <path class="cls-3" d="M.8587.3416c-.1702.1216-.5405.1221-.7092.0009.1764-.1371.5338-.1302.7092-.0009h0ZM.8562.3416c-.181-.1052-.5115-.0979-.6921.0031.1449.1014.5381.0885.6921-.0031h0Z"/>
  </g>
  <g>
    <path class="cls-1" d="M.1716.3437S.2038.0552.479.0599c.3763.0065.344.2967.344.2967l.028-.0151S.8872.0119.4769.0298C.1329.0449.1526.3391.1526.3391l.019.0047H.1716Z"/>
    <path class="cls-3" d="M.1716.3437c.0116-.3891.6784-.3849.6628.0141-.0337-.0169-.0009-.015.0109-.0265l-.006.0089c.0496-.4336-.7754-.3783-.6678.0035,0,0,0,0,0,0ZM.1716.3437c-.1192-.3911.7382-.464.6911-.001-.0006.0137-.0431.0253-.0536.0341C.8624-.0132.1899-.0459.1716.3437H.1716Z"/>
  </g>
</svg>