<?xml version="1.0" encoding="UTF-8"?>
<svg id="Capa_1" data-name="Capa 1" xmlns="http://www.w3.org/2000/svg" version="1.1" viewBox="0 0 2.83 1.01">
  <defs>
    <style>
      .cls-1 {
        fill: none;
      }

      .cls-1, .cls-2, .cls-3, .cls-4 {
        stroke-width: 0px;
      }

      .cls-2 {
        fill: #000;
      }

      .cls-3 {
        fill: #f94a55;
      }

      .cls-4 {
        fill: #c6edfa;
      }
    </style>
  </defs>
  <g>
    <path class="cls-3" d="M1.43.8s-.01.02-.02.02c-.01,0-.03.02-.04.03-.01,0-.02,0-.03,0-.01,0-.03-.02-.04-.03,0,0-.02-.01-.02-.02,0,0,0-.01,0-.02,0-.03.02-.06.03-.09,0-.01,0-.03.01-.05-.02.02-.04.04-.05.06-.03.03-.06.05-.1.06-.01,0-.02,0-.03,0-.01,0-.03,0-.04-.02-.03-.02-.06-.04-.1-.05-.03-.02-.05-.04-.06-.08,0,0,0,0,0,0v-.19s0,0,0,0c.01-.05.05-.08.1-.08.07,0,.14-.01.2-.02.06,0,.13,0,.19,0,.08,0,.17.02.25.02.05,0,.1.05.1.11,0,0,0,.02,0,.02,0,0,0,0,0,0,.01,0,.02,0,.04,0,0,0,0,0,0,0,0-.03,0-.06,0-.09,0-.08,0-.15,0-.23,0,0,0,0,0-.01.02,0,.05,0,.07,0,0,0,0,0,0,.01,0,.1,0,.21,0,.31,0,0,0,0,0,.01,0,0,0,0,0,.01,0,.03,0,.05,0,.08,0,0,0,.01,0,.01,0,0,0,0,0,.01,0,.06,0,.13,0,.19,0,.08-.05.16-.13.19-.02,0-.05.01-.08.01-.01,0-.02,0-.04,0,0-.02,0-.05,0-.07.03,0,.05,0,.08,0,.05-.02.09-.07.09-.12,0-.06,0-.13,0-.19,0,0,0,0,0,0-.01,0-.02,0-.04,0,0,0,0,0,0,0,0,.05-.02.09-.07.11-.03.01-.05.03-.08.04-.03.02-.05.03-.09.03-.04,0-.06-.02-.09-.04-.02-.02-.04-.05-.07-.07,0,0,0,0,0,0,0,0,0,0,0,0,0,.03.02.07.03.1,0,.02.01.03.01.05ZM1.71.52s0-.05,0-.08c0-.02-.02-.04-.04-.05-.02,0-.04,0-.05,0-.05,0-.1,0-.15-.01-.06,0-.12,0-.18,0-.09,0-.17.02-.26.02-.03,0-.04.02-.05.05,0,.05,0,.1,0,.15,0,.02,0,.03.02.04.04.02.07.04.11.06.03.02.06,0,.08-.02.02-.03.05-.05.07-.08.04-.05.11-.05.15,0,.02.03.05.05.07.08.02.02.05.03.08.02.04-.02.08-.04.11-.06.01,0,.02-.02.02-.04,0-.03,0-.05,0-.08Z"/>
    <path class="cls-4" d="M1.65.91s0,.05,0,.07c-.05,0-.1,0-.16,0-.02,0-.03-.02-.03-.04,0-.02.02-.04.04-.04.05,0,.1,0,.16,0Z"/>
    <path class="cls-4" d="M1.89.14s-.05,0-.07,0c-.01,0-.01,0-.01-.02,0-.03,0-.06,0-.09,0-.01,0-.02.02-.02.02,0,.04,0,.06,0,.01,0,.02,0,.02.02,0,.03,0,.06,0,.1,0,.01,0,.02-.01.02Z"/>
    <path class="cls-4" d="M1.16.77s.07-.03.1-.06c.02-.02.04-.04.05-.06,0,.02,0,.03-.01.05,0,.03-.02.06-.03.09,0,0,0,.01,0,.02-.02,0-.04,0-.06,0-.02,0-.04-.01-.05-.03Z"/>
    <path class="cls-4" d="M1.38.65s.04.05.07.07c.02.03.05.04.09.04-.02.02-.04.03-.07.03-.02,0-.03,0-.05,0,0-.02,0-.04-.01-.05,0-.03-.02-.06-.03-.1h0Z"/>
    <path class="cls-4" d="M1.71.52s0,.05,0,.08c0,.02,0,.03-.02.04-.04.02-.08.04-.11.06-.03.01-.06,0-.08-.02-.02-.03-.05-.05-.07-.08-.04-.05-.11-.05-.15,0-.02.03-.05.05-.07.08-.02.02-.05.03-.08.02-.04-.02-.07-.04-.11-.06-.02,0-.02-.02-.02-.04,0-.05,0-.1,0-.15,0-.03.02-.05.05-.05.09,0,.17-.02.26-.02.06,0,.12,0,.18,0,.05,0,.1,0,.15.01.02,0,.04,0,.05,0,.02,0,.04.02.04.05,0,.03,0,.05,0,.08Z"/>
    <polygon class="cls-4" points="1.38 .65 1.38 .65 1.38 .65 1.38 .65"/>
  </g>
  <g>
    <g>
      <path class="cls-2" d="M1.43.8c-.04.06-.12.06-.16,0,.01-.05.03-.12.05-.15-.04.05-.08.12-.16.12-.09-.02-.2-.07-.24-.16,0,0,0-.19,0-.19.03-.13.2-.09.3-.11.17,0,.35-.02.51.04.07.02.03.16.08.12,0-.08-.03-.25,0-.34.01,0,.08,0,.09.01-.03.37.12.87-.25.85-.01,0,0-.07,0-.08.08,0,.18-.03.17-.14,0-.04,0-.15,0-.18-.01,0-.05-.01-.04.01,0,.1-.11.12-.18.15-.09.05-.16-.05-.21-.1.02.04.03.1.04.15h0ZM1.43.8c0-.05-.03-.11-.04-.15.05.06.12.15.2.1.07-.03.17-.06.18-.15,0-.03.04-.03.05-.02.02.04,0,.14,0,.19.02.09-.13.18-.17.14,0,0,.01.1,0,.06.37.03.2-.56.23-.83,0,0,.01.01.01.01h-.07c.02-.06.04.44-.06.32.01-.12-.1-.13-.2-.13-.16,0-.57-.07-.63.1,0-.03,0,.19,0,.18.02.07.15.14.23.15.07,0,.11-.07.15-.12,0,.05-.04.1-.04.15.04.06.12.06.16,0h0Z"/>
      <path class="cls-2" d="M1.71.52c.04-.2-.25-.12-.4-.14-.16.02-.39-.02-.32.21,0,.05.13.12.18.11.06-.04.11-.16.21-.12.08.03.1.16.19.13.08-.03.16-.08.14-.18h0ZM1.71.52c.03.1-.06.15-.13.18-.1.04-.13-.1-.2-.12-.09-.03-.12.07-.19.13-.06.03-.21-.05-.22-.12-.04-.28.14-.19.35-.22.14.03.44-.05.4.16h0Z"/>
    </g>
    <path class="cls-2" d="M1.65.91c.01.11,0,.07-.11.08-.02,0-.1.02-.1-.05.02-.08.15-.03.2-.04h0ZM1.65.91c-.06.01-.17-.01-.18.04,0,.05.15.01.17.04,0,0,0-.07,0-.07h0Z"/>
    <path class="cls-2" d="M1.89.14s-.07,0-.07,0c-.04-.03-.01-.06-.02-.09,0-.02-.01-.02,0-.05.04-.02.13-.01.11.05,0,.03.01.07-.02.08h0ZM1.89.14s0-.06,0-.08c0-.04,0-.04-.04-.03-.04,0-.04,0-.04.03,0,.09-.01.08.07.08h0Z"/>
    <path class="cls-2" d="M1.16.77c.07,0,.1-.08.15-.13.05.03-.03.12-.03.16-.04.02-.09-.01-.12-.03h0ZM1.16.77s.07.03.11.03c-.02,0,.02-.11.03-.15.06.01-.1.13-.14.12h0Z"/>
    <path class="cls-2" d="M1.38.65c.1.12.16.09.16.12-.16.1-.13-.01-.16-.12h0ZM1.38.65s.07.16.04.14c.04,0,.07-.02.11-.03.03.08-.12-.06-.15-.11h0Z"/>
    <path class="cls-2" d="M1.71.52c.03.1-.06.15-.13.18-.1.04-.13-.1-.2-.12-.09-.03-.12.07-.19.13-.06.03-.21-.05-.22-.12-.04-.28.14-.19.35-.22.14.03.44-.05.4.16h0ZM1.71.52c.04-.2-.25-.12-.4-.14-.16.02-.39-.02-.32.21,0,.05.13.12.18.11.06-.04.11-.16.21-.12.08.03.1.16.19.13.08-.03.16-.08.14-.18h0Z"/>
    <polygon class="cls-1" points="1.38 .65 1.38 .65 1.38 .65 1.38 .65"/>
  </g>
</svg>