<svg id="Capa_1" data-name="Capa 1" xmlns="http://www.w3.org/2000/svg" version="1.1" viewBox="0 0 1.1 1"><defs><style>.cls-1,.cls-4{fill:#000;stroke-width:0}.cls-4{fill:#c6edfa}</style></defs><path d="M.302.763.278.761A.115.115 0 0 1 .234.746L.136.69A.106.106 0 0 1 .079.592V.455c0-.06.039-.104.1-.109L.395.325C.457.32.519.32.582.325l.18.017c.017.002.035.002.052.007a.105.105 0 0 1 .078.1v.004c0 .008-.004.02.002.025.005.005.016 0 .025 0q.022 0 .022-.022v-.3h.068v.318s0 .005.003.006c.005 0 .007.005.01.007v.089s-.006.006-.01.007c-.005 0-.003.006-.003.009v.177a.196.196 0 0 1-.191.199h-.04v-.07C.804.898.831.9.856.891A.127.127 0 0 0 .94.776V.589C.94.583.938.582.933.582H.899s-.008 0-.007.007a.111.111 0 0 1-.063.105C.804.707.779.721.755.736a.156.156 0 0 1-.083.026.121.121 0 0 1-.085-.041L.523.651c.008.032.02.063.029.094.005.017.014.032.012.05a.053.053 0 0 1-.022.02L.503.839a.027.027 0 0 1-.032 0L.432.815A.053.053 0 0 1 .41.795V.778L.438.692.451.648C.433.668.414.687.398.707a.14.14 0 0 1-.096.056zM.835.525V.457C.835.429.819.406.784.403L.58.384A.893.893 0 0 0 .425.382C.343.387.262.397.181.405a.047.047 0 0 0-.044.047v.145c0 .018.008.033.024.042l.104.059A.062.062 0 0 0 .344.683L.412.607a.098.098 0 0 1 .147 0l.07.077C.648.706.679.713.704.7l.11-.062A.042.042 0 0 0 .835.6V.526z" style="fill:#f94a55;stroke-width:0"/><path class="cls-1" d="M.302.763C.191.744.039.663.078.525c0-.054-.011-.124.043-.16C.28.312.464.322.635.328c.098.008.28-.001.261.148.077.037.028-.141.041-.32-.007-.01.069-.002.072-.004.012-.006 0 .32.005.323-.004 0 .015.008.013.012 0 .008.002.088-.001.093C1 .745 1.044.993.779.972.771.979.777.9.775.898.937.898.947.794.938.653.945.611.938.565.895.589.899.684.794.717.726.747.644.794.57.703.521.651c.021.036.032.097.044.144C.528.854.417.851.41.777l.041-.13C.41.691.37.758.301.762h.001zm0 0C.373.76.407.69.452.648l-.041.13c.007.071.116.073.151.016C.553.746.529.694.522.649c.05.053.122.141.201.094.068-.03.17-.064.165-.154C.941.553.95.617.941.653.955.783.929.923.78.898v.07C.849.97.965.932.99.84c.027-.084 0-.199.025-.272a4.254 4.254 0 0 1-.012-.412l.004.004S.925.164.943.156C.931.341.981.52.89.48.906.327.734.343.633.332.464.326.279.315.121.367.068.402.079.47.078.525.038.663.19.743.3.763h.002z"/><path class="cls-1" d="M.835.525C.878.333.592.405.454.385.306.398.071.368.142.588c.014.063.122.121.182.106C.38.651.425.544.518.577c.076.024.099.156.188.12C.779.666.862.621.834.525zm0 0C.864.62.781.668.708.699.615.737.589.602.517.582.429.552.389.653.328.701.272.729.143.652.132.588.096.317.265.411.454.38.59.402.879.331.835.525z"/><path class="cls-4" d="M1.009.157H.941C.931.156.927.15.927.141V.049c0-.013.005-.017.018-.017h.058c.009 0 .015.002.019.009V.15s-.008.008-.014.008h.001z"/><path class="cls-1" d="M1.009.157.941.159C.909.129.931.087.923.052.918.022.957.027.969.028c.017.001.041-.003.056.013-.004.01.008.12-.016.116zm0 0c.023.004.007-.106.01-.116C1.003.038.931.024.931.051c0 .081-.025.114.078.105z"/><path d="M1.009.157c.006 0 .01-.003.014-.008v.338S1.017.481 1.013.48C1.01.48 1.01.476 1.01.474V.156h-.001z" style="fill:#fefefe;stroke-width:0"/><path class="cls-1" d="m1.009.157.014-.008.005.338v.01C.981.462 1.019.226 1.009.157zm0 0c.014.101-.017.245.017.326C.997.518 1.047.1 1.009.157z"/><path class="cls-4" d="M.778.899v.07H.627C.609.969.594.952.594.934c0-.019.015-.035.035-.035h.15-.001z"/><path class="cls-1" d="M.778.899c.005.104.008.064-.103.074C.561.996.563.873.677.897l.1.002zm0 0C.724.914.62.872.598.933c.019.061.122.02.18.034-.004.008.001-.07 0-.069z"/><g><path class="cls-4" d="M.302.763A.137.137 0 0 0 .398.707C.414.687.432.669.451.648L.438.692.41.778C.408.784.41.789.41.795.391.795.371.797.353.791A.102.102 0 0 1 .304.762H.303z"/><path class="cls-1" d="M.302.763C.376.756.409.682.458.635.418.753.437.854.302.763zm0 0C.44.847.404.747.447.647.437.686.361.76.302.763z"/></g><g><path class="cls-4" d="m.521.651.064.07A.121.121 0 0 0 .67.762a.121.121 0 0 1-.065.032c-.015.002-.029 0-.044 0C.563.776.554.76.549.744L.52.65h.001z"/><path class="cls-1" d="M.521.651a.298.298 0 0 0 .159.11L.673.765C.637.785.6.806.559.798L.521.651zm0 0c.045.103.006.19.146.108C.626.766.552.696.521.651z"/></g><g><path class="cls-4" d="M.835.525v.074c0 .016-.007.03-.021.038C.778.658.741.68.704.699.678.713.648.705.629.683L.559.606a.098.098 0 0 0-.147 0 4.652 4.652 0 0 0-.068.076.062.062 0 0 1-.079.015A3.496 3.496 0 0 1 .161.638.046.046 0 0 1 .137.596V.451c0-.025.018-.045.044-.047C.262.396.344.386.425.381.477.378.529.379.58.383l.204.019c.035.003.052.027.051.054v.068z"/><path class="cls-1" d="M.835.525C.864.62.779.667.707.699.614.736.589.601.516.581.428.551.388.654.327.701.271.728.141.652.132.587.098.314.26.412.455.379c.135.022.424-.05.38.146zm0 0C.878.331.592.404.455.384.308.398.071.366.142.587c.013.064.121.121.182.107C.381.652.425.544.518.576.594.6.617.732.706.697.779.665.863.621.835.525z"/></g><path class="cls-4" d="M.521.651.52.65l.001.001z"/></svg>