<svg id="Capa_1" data-name="Capa 1" xmlns="http://www.w3.org/2000/svg" version="1.1" viewBox="0 0 2.8 1"><defs><style>.cls-1{fill:#fe9191}.cls-1,.cls-2,.cls-3,.cls-4,.cls-5,.cls-7{stroke-width:0}.cls-2{fill:#fe7070}.cls-3{fill:#fea1a1}.cls-4{fill:#feacac}.cls-5{fill:#000}.cls-7{fill:#ba6b6b}</style></defs><path class="cls-1" d="M1.8.29s.02-.05.04-.07c.02-.02.05-.02.07 0 .04.04.05.08.04.14 0 .01 0 .02.01.04.05.04.08.1.09.16v.03c0 .02-.01.04-.02.06H1.88V.62c0-.04-.02-.06-.05-.09C1.79.5 1.75.47 1.7.46a.746.746 0 0 0-.26-.04c-.04 0-.08 0-.12.01-.06.01-.12.03-.17.06 0-.06 0-.11-.02-.17.03 0 .06-.02.1-.03.06-.01.12-.02.19-.03.09 0 .19 0 .28.02a1.176 1.176 0 0 1 .22.08C1.89.34 1.86.32 1.82.3c0 0-.02 0-.02-.01Zm.13.08Z"/><path class="cls-3" d="M1.14.32c.01.06.02.11.02.17v.08l-.01.01c-.02.03-.05.05-.09.06h-.1C.94.64.94.64.93.62.92.58.93.55.93.51.93.49.94.47.94.45.96.38.95.32.91.27.91.27.9.26.89.26S.88.28.87.28A.238.238 0 0 0 .81.17C.83.13.86.09.9.07.92.06.94.04.97.03c.04.02.06.05.08.08.02.03.03.06.05.1l.03.11ZM.91.19s0 .02.01.03h.03A.09.09 0 0 0 .98.15C.98.13.96.12.95.13.92.14.91.17.91.2Z"/><path class="cls-1" d="M.95.45s0 .04-.01.06c0 .04-.01.07 0 .11 0 .02 0 .02.03.02h.1c.04 0 .07-.03.09-.06l.01-.01c0 .04 0 .08-.03.12v.02c.09.06.19.08.29.09h.09c.03 0 .06 0 .09-.01.04 0 .08-.02.12-.03v.02c-.01.03-.02.07-.02.1-.05.01-.11.02-.16.02h-.2a.63.63 0 0 1-.27-.1.536.536 0 0 1-.15-.15.185.185 0 0 1-.02-.07C.91.53.93.49.96.45Z"/><path class="cls-2" d="M.9.58s.01.05.02.07c.03.07.08.12.15.15.08.05.18.08.27.1.07.01.13.01.2 0 .05 0 .11-.01.16-.02 0 .02 0 .05.01.07-.1.03-.2.04-.3.03a.61.61 0 0 1-.3-.08.413.413 0 0 1-.17-.15A.254.254 0 0 1 .9.58Z"/><path class="cls-4" d="M1.71.95S1.7.9 1.7.88c0-.03.01-.07.02-.1V.75c.03-.04.06-.07.1-.09.01 0 .02 0 .04-.01h.12c-.01.03-.03.06-.04.1-.04.08-.1.15-.16.22v.01c-.03.01-.06.01-.08-.02ZM1.14.32 1.11.21c.03-.01.06-.03.09-.03h.09V.2c0 .02-.02.03-.02.05 0 0 0 .01 0 0 .03 0 .05 0 .08-.02h.25c.06 0 .13.02.19.05h.02s.01 0 .02.01c.03.02.07.04.1.06 0 0-.02 0-.02-.01a.679.679 0 0 0-.2-.07.863.863 0 0 0-.28-.02.68.68 0 0 0-.19.03c-.03 0-.06.02-.1.03Z"/><path class="cls-7" d="M.82.17s.04.07.06.11c0 .03 0 .06-.01.09V.4C.87.42.85.43.82.42.79.4.78.38.76.35A.244.244 0 0 1 .78.13l.04.04Z"/><path class="cls-3" d="M1.79.97V.96c.07-.06.12-.14.16-.22a.3.3 0 0 0 .04-.1h.03s.01.02.02.02c.01.03 0 .06-.02.08-.06.09-.13.16-.23.21h-.02Z"/><path class="cls-4" d="M.82.17.78.13C.8.08.87.01.95.02c.01 0 .02 0 .03.01C.96.04.93.06.91.07.87.1.84.13.82.17Z"/><path class="cls-3" d="M1.35.24s-.05 0-.08.02c0-.02.01-.03.02-.05V.19c.02 0 .03.01.04.02 0 0 .01.02.01.03Z"/><path class="cls-2" d="M2.05.67S2.03.66 2.03.65c.01-.02.02-.04.02-.06v.09ZM1.88.64s-.02 0-.04.01c-.04.02-.08.05-.1.09v.01c-.04.01-.08.03-.12.03-.03 0-.06.01-.09.01h-.09c-.11 0-.21-.03-.29-.09 0 0-.01-.01 0-.02.02-.04.03-.08.03-.12V.48c.05-.03.11-.05.17-.06.04 0 .08-.01.12-.01a.59.59 0 0 1 .39.11c.03.02.04.05.05.09v.03Zm-.21.03s.02 0 .02-.01c0 0 0-.01-.01-.01L1.47.53c-.01 0-.03-.02-.04-.02 0 0-.02 0-.02.01 0 0 0 .01.01.02l.21.12c.01 0 .02.02.04.02Zm-.08.04s.01 0 .02-.01c0 0 0-.01-.01-.01S1.58.68 1.56.67C1.5.63 1.43.6 1.37.56h-.03s-.02 0-.02.01c0 0 0 .01.01.02l.21.12c.01 0 .02.02.04.02ZM1.5.76h.02s.01 0 .01-.01L1.52.74s-.01 0-.02-.01L1.29.61h-.03s-.02 0-.02.01c0 0 0 .01.01.01.07.04.15.09.22.13 0 0 .02.01.03.01Z"/><path class="cls-4" d="M1.93.37zM1.93.37l.01.01-.01-.01z"/><path d="M.91.19S.93.14.95.12c.02 0 .03 0 .03.02C.98.17.97.19.95.21c0 0-.02.01-.03 0C.91.21.91.19.91.18ZM.95.14S.91.17.92.19c0 0 0 .01.02.01S.97.17.97.15H.96V.14Z" style="fill:#fefefe;stroke-width:0"/><path class="cls-1" d="M1.67.67s-.03 0-.04-.02L1.42.53s-.02 0-.01-.02c0 0 .01 0 .02-.01.02 0 .03 0 .04.02l.21.12s.02 0 .01.01c0 0-.01.01-.02.01ZM1.59.71s-.03 0-.04-.02L1.34.57s-.02 0-.01-.02c0 0 .01-.01.02-.01h.03c.06.04.13.07.19.11.01 0 .02.01.04.02 0 0 .01 0 .01.01 0 0 0 .01-.02.01ZM1.5.76s-.02 0-.03-.01C1.4.71 1.32.67 1.25.62c0 0-.02 0-.01-.01 0 0 .01-.01.02-.01h.03l.21.12s.01 0 .02.01c0 0 .01 0 .01.01 0 0 0 .01-.01.01H1.5Z"/><path class="cls-7" d="M.95.14v.01h.01C.96.17.96.2.93.2.93.2.91.2.91.19.91.17.92.15.94.14Z"/><path class="cls-5" d="M1.8.29c.05-.14.15-.07.15.05.01.11.17.19.08.32H2c-.04-.02-.09 0-.13 0C1.9.41 1.34.41 1.15.51L1.13.34c.25-.08.55-.07.79.05-.03-.03-.08-.05-.13-.08Zm0 0s.09.04.13.08C1.69.25 1.39.26 1.15.32l.02.17c.14-.11.74-.11.71.16.02-.01.09 0 .12 0h.02c.09-.12-.06-.2-.08-.31 0-.11-.1-.19-.15-.05ZM1.93.37s0-.01 0 0Zm0 0s0-.01 0 0Z"/><path class="cls-5" d="M1.14.32c.03.18.07.32-.18.33C.87.65.98.4.94.33.94.29.88.22.88.29L.82.17c.17-.27.27-.07.32.15Zm0 0C1.07.1 1-.08.82.17l.06.11C.85.26.92.22.95.33.99.39.88.64.96.64c.24 0 .2-.14.18-.32Z"/><path class="cls-5" d="M.91.19c0 .06.08 0 .07-.04 0-.06-.07 0-.07.04 0 0 0-.04 0 0Zm0 0S.92.15.94.13C.95.11 1 .12.99.15.99.19.92.26.91.19c0 0 0 .07 0 0ZM.94.45S.9.65.96.64c.08 0 .14-.04.2-.08 0 .06-.07.14 0 .16.17.09.38.08.55.03h.01l-.03.12C1.43.94.73.82.93.44Zm0 0c-.2.39.5.5.75.43-.01.02.03-.12.02-.12-.14.07-.4.06-.56-.03-.09-.02 0-.12-.01-.17-.04.05-.12.08-.19.08C.89.64.92.49.93.45Z"/><path class="cls-5" d="M.89.58c.1.33.54.34.81.3 0 0 .02.08 0 .08-.29.05-.83.02-.82-.38Zm0 0c0 .4.53.42.82.37 0 .03-.01-.07-.01-.07C1.46.95.98.89.9.58Z"/><path class="cls-5" d="M1.71.95c-.05-.17.12-.37.3-.31-.03.07-.23.42-.3.31Zm0 0c.07.11.26-.24.29-.31-.16-.03-.34.13-.29.31ZM1.14.32 1.11.21c.06-.03.13-.04.19-.02 0 .03-.02.05-.03.07.22-.05.48-.03.66.11C1.77.3 1.39.23 1.14.32Zm0 0c.25-.08.54-.07.78.05-.03 0-.1-.06-.13-.07-.17-.05-.35-.08-.53-.04 0-.03.02-.05.02-.08A.36.36 0 0 0 1.1.2l.03.11ZM.82.17l.06.11C.88.37.86.52.77.37.72.3.74.2.78.13l.04.04Zm0 0L.78.13C.75.2.73.3.78.37.8.4.84.46.86.41.89.31.88.26.83.17Z"/><path class="cls-5" d="M1.79.97c.07-.11.17-.21.21-.33.18.06-.12.3-.21.33Zm0 0c.11-.04.32-.23.24-.31 0 0-.04 0-.02-.01-.04.13-.15.22-.22.32ZM.82.17.78.13C.81.05.91-.02.99.03.92.06.87.12.82.17Zm0 0S.92.03.98.03C.9-.01.81.06.78.13l.04.04ZM1.35.24c-.09.03-.09.03-.06-.06.01-.01.06.03.06.06Zm0 0S1.3.2 1.3.18c-.03.1-.04.07.05.06Z"/><path class="cls-5" d="M2.05.67S2.02.65 2.03.65c0-.01.02-.07.03-.07l-.01.09Zm0 0V.59l-.03.06.02.02ZM1.88.64a.62.62 0 0 1-.71.1c-.09-.02 0-.13 0-.25.17-.1.73-.11.72.16Zm0 0c.01-.27-.55-.25-.71-.15.02.11-.08.22 0 .24.23.13.52.09.71-.09Z"/><path class="cls-5" d="M1.67.67C1.73.64 1.6.62 1.58.59c-.05-.02-.1-.06-.15-.08-.07 0 .19.13.24.16Zm0 0c-.05-.02-.1-.05-.15-.08C1.5.56 1.37.54 1.43.5c.06.02.1.05.15.08.02.03.15.06.09.09 0 0 .06-.03 0 0ZM1.59.71s0-.03-.02-.04C1.5.63 1.42.58 1.35.55c-.06 0 .2.14.24.16Zm0 0C1.51.68 1.44.63 1.37.59c-.02 0-.08-.04-.02-.05.08.03.15.08.22.12.02 0 .07.04.02.05ZM1.5.76s.01-.04-.01-.04C1.42.68 1.34.63 1.26.6c-.07 0 .23.15.24.16Zm0 0C1.44.72 1.16.61 1.26.59c.08.03.15.09.23.13.03 0 .06.04.01.05ZM1.93.37Zm0 0ZM1.93.37s0 .01 0 0Zm0 0ZM.91.19S.92.15.94.13C.95.11 1 .12.99.15.99.19.92.26.91.19c0 0 0 .07 0 0Zm0 0c0 .06.08 0 .07-.04 0-.06-.07 0-.07.04 0 0 0-.04 0 0Z"/><path class="cls-5" d="M.95.14c-.07.04.01.09.01 0H.95Zm0 0s0 .01.01 0c0 .1-.11.03-.01 0ZM1.67.67c-.05-.02-.1-.05-.15-.08C1.5.56 1.37.54 1.43.5c.06.02.1.05.15.08.02.03.15.06.09.09 0 0 .06-.03 0 0Zm0 0C1.73.64 1.6.62 1.58.59c-.05-.02-.1-.06-.15-.08-.07 0 .19.13.24.16ZM1.59.71C1.51.68 1.44.63 1.37.59c-.01 0-.08-.04-.02-.05.08.03.15.08.22.12.02 0 .07.04.02.05Zm0 0s0-.03-.02-.04C1.5.63 1.42.58 1.35.55c-.07 0 .18.13.24.16ZM1.5.76C1.44.72 1.16.61 1.26.59c.08.03.15.09.23.13.03 0 .06.04.01.05Zm0 0s.01-.04-.01-.04C1.42.68 1.34.62 1.26.6c-.07 0 .23.15.24.16Z"/><path class="cls-5" d="M.95.14s0 .01.01 0c0 .1-.11.03-.01 0Zm0 0c-.07.04.01.09.01 0H.95Z"/></svg>