<svg id="Capa_1" data-name="Capa 1" xmlns="http://www.w3.org/2000/svg" version="1.1" viewBox="0 0 1.4 1"><defs><style>.cls-1{fill:#fe9191}.cls-1,.cls-2,.cls-3{stroke-width:0}.cls-2{fill:#fe7070}.cls-3{fill:#000}</style></defs><path class="cls-1" d="M1.327.664c.012.034-.001.062-.02.089a.565.565 0 0 1-.215.191.101.101 0 0 1-.062.013C1.015.955 1.007.944.998.935A.136.136 0 0 1 .987.879c0-.01 0-.014-.013-.011a.92.92 0 0 1-.339.014A.697.697 0 0 1 .374.79.356.356 0 0 1 .233.641C.223.619.218.596.21.574A.257.257 0 0 1 .251.46.103.103 0 0 0 .267.417.19.19 0 0 0 .233.28L.228.273C.213.256.202.258.194.279L.192.286.187.275A.312.312 0 0 0 .096.14C.118.088.18.026.254.033A.129.129 0 0 1 .34.082a.355.355 0 0 1 .067.116q.007.018.024.01A.236.236 0 0 1 .59.19a.083.083 0 0 1 .045.026c.006.006.011.013.011.022 0 .011.006.011.013.01C.71.242.761.239.812.242a.915.915 0 0 1 .253.051c.008.003.012.003.014-.006a.12.12 0 0 1 .033-.055c.023-.022.047-.022.068.001a.161.161 0 0 1 .042.131c-.001.013.001.023.012.032a.284.284 0 0 1 .091.154c.002.009.005.019.004.028-.003 0-.005.002-.005.005a.247.247 0 0 1-.015.046c-.007.019-.005.024.014.034h.004zM.47.532c0 .012 0 .025-.002.037a.31.31 0 0 1-.029.116C.435.693.437.697.443.701a.407.407 0 0 0 .073.042.68.68 0 0 0 .491.01.038.038 0 0 0 .021-.017.212.212 0 0 1 .123-.097c.006-.002.009-.005.01-.011.01-.032 0-.06-.018-.085A.27.27 0 0 0 1.03.461.644.644 0 0 0 .749.413a1 1 0 0 0-.11.011.535.535 0 0 0-.156.054C.474.483.466.489.47.5c.003.01.002.021.002.031H.47zM.224.202c-.001.011 0 .021.011.026.01.006.02.001.028-.005C.285.206.297.185.295.157.295.139.279.13.263.139a.076.076 0 0 0-.04.063z"/><path class="cls-3" d="M1.327.664c.02.111-.218.345-.33.271C1.013.808.877.909.811.891.591.886.269.832.206.575.236.478.303.371.229.283.218.265.203.259.198.28V.278L.193.299C.191.283.102.158.093.142.114.021.32-.021.363.112c.035.046.041.127.108.076C.527.173.59.173.638.213.675.28.793.215.866.246c.151.009.219.078.226.016.046-.12.157.023.132.094.026.073.108.13.106.22-.01.024-.044.076-.002.086zm0 0c-.042-.009-.008-.063.002-.086.002-.09-.079-.145-.107-.221.022-.072-.084-.209-.128-.092C1.088.328 1 .258.864.252.79.221.68.288.633.218.589.182.526.18.472.196.41.247.382.16.356.118.306-.02.132.048.099.136l.092.136C.195.281.199.284.187.283c.041-.094.142.09.026.288.06.254.38.308.598.315.062.016.206-.077.188.047.108.069.345-.156.328-.27z"/><path class="cls-3" d="M.47.532c.011.071-.082.18.032.201a.649.649 0 0 0 .467.024c.074-.01.111-.121.188-.131.025-.076-.065-.111-.115-.152C.887.405.441.397.47.532zm0 0C.441.395.89.401 1.045.468c.051.042.145.075.12.162-.088.023-.108.117-.195.136A.657.657 0 0 1 .5.737C.387.714.479.603.469.533H.47zM.224.202C.24.263.3.194.29.157.283.111.218.168.224.202zm0 0C.215.173.275.094.3.157.309.198.238.268.224.202z"/><path class="cls-2" d="M.211.573C.219.595.224.619.234.64a.361.361 0 0 0 .141.149.69.69 0 0 0 .261.092.92.92 0 0 0 .339-.014c.012-.003.013 0 .013.011 0 .02.003.038.011.056a.879.879 0 0 1-.425.008A.56.56 0 0 1 .286.79.269.269 0 0 1 .208.604c0-.011 0-.021.003-.031z"/><path class="cls-3" d="M.211.573c.062.254.382.307.6.311.057.014.21-.076.192.046C.745 1.014.196.949.211.572zm0 0c-.01.39.533.408.783.362C1.01.805.879.916.811.892.592.885.271.829.211.573z"/><path class="cls-2" d="M.097.14a.303.303 0 0 1 .096.146l-.01.089C.181.388.179.401.173.413.164.432.15.436.133.424A.15.15 0 0 1 .071.336.275.275 0 0 1 .094.143L.097.14z"/><path class="cls-3" d="M.097.14c.087.131.119.124.082.268C.128.51.002.261.097.14zm0 0c-.09.126.04.347.074.265A.326.326 0 0 0 .186.276L.097.14z"/><path class="cls-2" d="M1.327.664C1.308.654 1.306.648 1.313.63c.006-.015.012-.03.015-.046 0-.003.002-.005.005-.005a.243.243 0 0 1-.006.085z"/><path class="cls-3" d="M1.327.664c-.039-.013-.004-.057-.004-.08.001 0 .011-.012.015-.011l-.011.091zm0 0s-.005-.101.006-.08c-.003.028-.043.064-.006.08z"/><g><path class="cls-2" d="M.47.532c0-.01 0-.021-.002-.031C.464.489.472.484.481.479A.545.545 0 0 1 .747.414a.644.644 0 0 1 .281.048.265.265 0 0 1 .113.082c.019.025.028.053.018.085-.002.006-.004.01-.01.011a.206.206 0 0 0-.123.097c-.005.009-.012.013-.021.017A.651.651 0 0 1 .842.79.659.659 0 0 1 .514.744.407.407 0 0 1 .441.702C.435.698.433.694.437.686A.315.315 0 0 0 .466.57c0-.012.003-.024.002-.037H.47zm.49.127h.005C.974.659.982.657.984.647.986.638.976.637.971.634A13.81 13.81 0 0 0 .765.515C.753.508.741.496.725.499.717.499.707.501.705.51.703.518.712.522.719.525l.203.118C.934.65.945.661.96.659zM.878.706h.011C.895.704.901.701.902.694.902.687.896.685.892.683L.874.673.667.554A.043.043 0 0 0 .645.548C.636.548.627.55.625.559s.007.012.013.015l.204.118c.011.006.021.017.036.016zM.797.753h.012C.815.751.822.749.823.741.825.733.818.731.813.728L.795.718.589.599A.037.037 0 0 0 .564.593C.556.593.548.596.545.604.542.613.551.615.557.618L.77.741c.009.005.017.014.027.012z"/><path class="cls-3" d="M.47.532C.438.39.931.403 1.053.476c.226.14.066.15-.046.282C.825.81.618.82.454.711.417.661.477.592.471.533H.47zm0 0C.424.718.437.73.63.778c.346.051.345-.05.518-.142.045-.064-.046-.119-.098-.154C.927.408.439.392.471.532H.47z"/><path class="cls-3" d="M.96.659C1.05.652.785.541.767.521.605.46.887.627.96.659zm0 0C.853.619.577.449.772.514c.014.019.28.139.188.145zM.878.706C.943.682.689.578.645.552.598.565.84.685.878.706zm0 0C.808.68.735.629.667.594.654.588.591.56.645.542.701.574.941.68.878.706zM.797.753h.012L.822.741A1.4 1.4 0 0 0 .563.598C.525.617.746.72.796.753zm0 0C.727.722.655.676.587.64.575.634.511.606.564.588.657.63.747.68.824.741.817.747.809.756.798.753z"/></g><g><path d="M.224.202a.076.076 0 0 1 .04-.063C.28.13.295.139.296.157a.074.074 0 0 1-.032.066C.256.229.246.234.236.228.226.223.224.213.225.202zM.282.163C.272.169.271.17.269.158.267.151.264.155.261.156.247.162.236.182.237.198c0 .014.009.02.022.013C.275.203.284.183.282.163z" style="fill:#fefefe;stroke-width:0"/><path class="cls-3" d="M.224.202C.223.172.26.107.298.146.317.192.242.27.224.202zm0 0C.245.267.305.186.29.15.271.119.223.17.224.202z"/><path class="cls-3" d="M.282.163C.267.178.272.153.262.158c-.056.048.017.081.02.005zm0 0C.293.25.181.21.26.154.275.148.265.175.282.163z"/></g><g><path class="cls-1" d="M.96.659C.945.661.934.65.922.643A13.443 13.443 0 0 1 .719.525C.713.521.704.518.705.51.707.5.717.5.725.499c.016-.003.028.009.04.016l.206.119c.006.003.015.004.013.013-.002.01-.01.012-.019.012H.96z"/><path class="cls-3" d="M.96.659C.87.631.557.434.785.522c.018.021.264.13.175.137zm0 0C1.032.644.871.587.858.572.821.558.741.49.709.511.783.559.873.618.96.659z"/></g><g><path class="cls-1" d="M.878.706C.863.706.853.697.842.69L.638.572C.632.568.623.565.625.557.627.548.636.546.645.546c.008 0 .015.002.022.006l.207.119.018.01c.005.003.011.004.01.011C.902.7.895.702.889.704H.878z"/><path class="cls-3" d="M.878.706C.807.677.736.629.667.593.655.587.591.559.644.541.71.575.962.694.878.706zm0 0C.958.692.715.588.645.551.584.552.83.679.878.706z"/></g><g><path class="cls-1" d="M.797.753C.787.755.779.746.77.741L.557.618C.551.615.542.613.545.604.547.596.555.593.564.593s.017.002.025.006l.206.119.018.01c.005.003.012.005.01.013C.821.748.815.751.809.753H.797z"/><path class="cls-3" d="M.797.753C.748.722.487.616.563.588c.048.021.325.156.234.165zm0 0C.896.754.567.581.55.605c.068.047.168.107.247.148z"/></g><g><path class="cls-2" d="M.282.163C.284.184.275.204.259.211.246.217.237.212.237.198c0-.016.01-.036.024-.042C.264.155.267.151.269.158q.003.011.013.005z"/><path class="cls-3" d="M.282.163C.292.25.182.21.26.154c.016 0 .008.02.022.009zm0 0C.272.176.268.153.262.158.207.205.28.24.282.163z"/></g></svg>