<?xml version="1.0" encoding="UTF-8"?><svg id="Capa_1" xmlns="http://www.w3.org/2000/svg" viewBox="0 0 2.81 1"><defs><style>.cls-1{fill:#1d1d1c;}.cls-1,.cls-2,.cls-3,.cls-4{stroke-width:0px;}.cls-2{fill:#fff;mix-blend-mode:soft-light;}.cls-2,.cls-5{isolation:isolate;}.cls-3{fill:#e83a43;}.cls-4{fill:#d44e1d;}</style></defs><g class="cls-5"><g id="Capa_1-2"><path class="cls-3" d="M2.78.27s0,.07-.01.1c-.02.04-.06.05-.1.05,0,0,0,0,0,.01-.01.09-.02.18-.04.26-.02.1-.04.19-.15.23-.15.06-.34.05-.5.03-.05,0-.1-.01-.14-.02-.06-.02-.09-.05-.11-.11-.03-.07-.04-.14-.06-.21-.02-.1-.06-.21-.17-.23,0,0,0,0,0,0-.05,0-.12-.01-.17,0,0,0,0,0,0,0-.12,0-.16.13-.18.23-.02.07-.04.14-.06.21-.02.06-.05.09-.11.11-.04.01-.09.02-.14.02-.16.02-.34.03-.5-.03-.1-.04-.12-.13-.15-.23-.02-.09-.03-.17-.04-.26,0,0,0-.01,0-.01-.04,0-.08-.02-.1-.05-.02-.03-.01-.07-.01-.1,0-.09.03-.15.12-.17.13-.04.28-.05.42-.06.14,0,.28,0,.41.05.12.04.24.11.37.14,0,0,0,0,0,0,.03.01.07,0,.1,0,0,0,0,0,0,0,.13-.03.24-.09.37-.14.13-.04.27-.05.41-.05.14,0,.29.02.42.06.09.03.12.09.12.17h0ZM2.53.63c.02-.12.11-.43-.06-.47,0,0,0,0,0,0-.11-.02-.23-.03-.35-.02-.11,0-.24,0-.34.05-.07.03-.09.08-.09.15,0,.1.02.21.06.31.03.07.06.16.13.2.08.04.2.03.29.03.08,0,.21,0,.28-.04.07-.04.07-.13.08-.2h0ZM1.13.34c0-.07-.02-.12-.09-.15-.1-.04-.23-.04-.34-.05-.12,0-.23,0-.35.02,0,0,0,0,0,0-.17.04-.08.36-.06.47.01.07.01.16.08.2.08.04.2.04.28.04.09,0,.21,0,.29-.03.07-.03.11-.13.13-.2.04-.1.06-.2.06-.31h0Z"/><path class="cls-1" d="M2.79.2s.02.12,0,.17-.06.06-.11.06c0,.09-.01.17-.03.26-.01.07-.02.15-.07.2-.05.05-.13.07-.19.09-.08.02-.17.02-.26.02-.09,0-.18-.01-.26-.03-.06-.01-.1-.04-.13-.1-.03-.07-.05-.15-.07-.22-.02-.1-.05-.23-.17-.24,0,0,0,0,0,0-.03,0-.06,0-.09,0-.02,0-.05,0-.07,0,0,0,0,0,0,0-.12.01-.14.15-.17.24-.02.07-.03.15-.07.22-.03.06-.07.09-.13.1-.09.02-.18.03-.26.03-.09,0-.17,0-.26-.02-.07-.01-.15-.03-.19-.09-.05-.05-.06-.13-.07-.2-.02-.08-.03-.17-.03-.26-.05,0-.09-.02-.11-.06-.02-.05-.01-.12,0-.17C.05.06.24.05.36.04c.17-.02.34-.04.51,0,.17.03.32.13.49.17.04,0,.08,0,.12,0,0,0,0,0,0,0,.17-.04.31-.14.48-.17.17-.03.34-.02.51,0,.12.02.3.02.34.16h0ZM2.77.37s.01-.07.01-.1c0-.09-.03-.15-.12-.17-.13-.04-.28-.05-.42-.06-.14,0-.28,0-.41.05-.12.04-.24.11-.37.14,0,0,0,0,0,0-.03,0-.07.01-.1,0,0,0,0,0,0,0-.13-.03-.24-.09-.37-.14-.13-.04-.27-.05-.41-.05-.14,0-.29.02-.42.06-.09.03-.12.09-.12.17,0,.03,0,.07.01.1.02.04.06.05.1.05,0,0,0,0,0,.01.01.09.02.18.04.26.02.1.04.19.15.23.15.06.34.05.5.03.05,0,.1-.01.14-.02.06-.02.09-.05.11-.11.03-.07.04-.14.06-.21.02-.1.06-.22.18-.23,0,0,0,0,0,0,.05-.01.12,0,.17,0,0,0,0,0,0,0,.11.02.15.13.17.23.02.07.04.14.06.21.02.06.05.09.11.11.04.01.09.02.14.02.16.02.34.03.5-.03.1-.04.12-.13.15-.23.02-.09.03-.17.04-.26,0,0,0-.01,0-.01.04,0,.08-.02.1-.05h0Z"/><path class="cls-1" d="M2.47.16c.17.04.08.36.06.47-.01.07-.01.16-.08.2-.08.04-.2.04-.28.04-.09,0-.21,0-.29-.03-.07-.03-.11-.13-.13-.2-.04-.1-.06-.2-.06-.31,0-.07.02-.12.09-.15.1-.04.23-.04.34-.05.12,0,.23,0,.35.02,0,0,0,0,0,0h0ZM2.52.54c.02-.1.07-.33-.06-.37,0,0,0,0,0,0-.21-.02-.41-.03-.62.01-.05.01-.11.02-.13.08-.02.05,0,.11,0,.16.01.11.04.22.1.32.03.06.07.08.13.09.06.01.12.01.18.02.05,0,.09,0,.14,0,.06,0,.13,0,.18-.03.08-.05.07-.2.08-.27h0Z"/><path class="cls-4" d="M2.46.17c.13.04.08.27.06.37-.01.08,0,.23-.08.27-.05.03-.13.03-.18.03-.05,0-.09,0-.14,0-.06,0-.12,0-.18-.02-.06-.01-.1-.04-.13-.09-.05-.1-.09-.21-.1-.32,0-.05-.02-.11,0-.16.02-.05.08-.07.13-.08.21-.04.41-.03.62-.01,0,0,0,0,0,0h0Z"/><path class="cls-1" d="M1.04.19c.07.03.09.08.09.15,0,.1-.02.21-.06.31-.03.07-.06.16-.13.2-.08.04-.2.03-.29.03-.08,0-.21,0-.28-.04-.07-.04-.07-.13-.08-.2-.02-.12-.11-.43.06-.47,0,0,0,0,0,0,.11-.02.23-.03.35-.02.11,0,.24,0,.34.05h0ZM1.1.42s.02-.11,0-.16c-.02-.05-.08-.07-.13-.08-.21-.04-.41-.03-.62-.01,0,0,0,0,0,0-.13.04-.08.27-.06.37.01.08,0,.23.08.27.05.03.13.03.18.03.05,0,.09,0,.14,0,.06,0,.12,0,.18-.02.06-.01.1-.04.13-.09.05-.1.09-.21.1-.32Z"/><path class="cls-4" d="M1.1.26s0,.11,0,.16c-.01.11-.04.22-.1.32-.03.06-.07.08-.13.09-.06.01-.12.01-.18.02-.05,0-.09,0-.14,0-.06,0-.13,0-.18-.03-.08-.05-.07-.2-.08-.27-.02-.1-.07-.33.06-.37,0,0,0,0,0,0,.21-.02.41-.03.62.01.05.01.11.02.13.08Z"/><path class="cls-1" d="M.36.86s-.02-.01-.04-.02c-.01,0-.02-.02-.03-.03,0,0,0,0,0,0,.01.02.04.05.06.05,0,0,0,0,0,0H.36Z"/><path class="cls-1" d="M.37.89s-.04-.02-.06-.03c0,0,0,0,0,0,.02.02.04.03.07.04,0,0,0,0,0,0h0Z"/><path class="cls-1" d="M2.71.16s-.05-.03-.07-.04c0,0,0,0,0,0,.03.01.05.03.07.04,0,0,.01,0,0,0h0Z"/><path class="cls-1" d="M2.69.18s-.02-.02-.04-.03c0,0,0,0,0,0,.01,0,.02.02.03.03,0,0,.01,0,0,0h0Z"/><path class="cls-2" d="M.37.2c-.08.06-.09.22-.04.3.01.02.04.02.05,0,.01-.05,0-.09,0-.14,0-.05.02-.09.03-.13,0-.02-.02-.04-.04-.03h0Z"/><path class="cls-2" d="M.37.55s-.03.05,0,.05.03-.05,0-.05Z"/><path class="cls-2" d="M1.79.24c-.06.07-.08.23,0,.3.02.02.04,0,.04-.02,0-.04-.02-.08-.02-.12,0-.05.01-.09.02-.13,0-.02-.02-.04-.04-.02h0Z"/><path class="cls-2" d="M1.85.6s-.03,0-.04,0c0,0,0,0,0,0-.01.01-.01.03,0,.04,0,0,0,0,0,0,.02.02.06,0,.05-.02,0-.01,0-.02-.02-.03Z"/></g></g></svg>