<?xml version="1.0" encoding="UTF-8"?>
<svg id="Layer_1" data-name="Layer 1" xmlns="http://www.w3.org/2000/svg" xmlns:xlink="http://www.w3.org/1999/xlink" version="1.1" viewBox="0 0 1 1">
  <defs>
    <style>
      .cls-1 {
        fill: #eac675;
      }

      .cls-1, .cls-2, .cls-3, .cls-4, .cls-5, .cls-6, .cls-7, .cls-8, .cls-9, .cls-10, .cls-11, .cls-12, .cls-13, .cls-14, .cls-15, .cls-16, .cls-17, .cls-18, .cls-19, .cls-20, .cls-21, .cls-22, .cls-23, .cls-24 {
        stroke-width: 0px;
      }

      .cls-2 {
        fill: #ffd602;
      }

      .cls-25 {
        clip-path: url(#clippath);
      }

      .cls-3 {
        fill: none;
      }

      .cls-4 {
        fill: #b7b5b2;
      }

      .cls-5 {
        fill: #fce790;
      }

      .cls-6 {
        fill: #b1ed1d;
      }

      .cls-7 {
        fill: #ebc057;
      }

      .cls-26 {
        clip-path: url(#clippath-1);
      }

      .cls-27 {
        clip-path: url(#clippath-2);
      }

      .cls-8 {
        fill: #b2d12f;
      }

      .cls-9 {
        fill: #ebedee;
      }

      .cls-10 {
        fill: #ffffab;
      }

      .cls-11 {
        fill: #fff06d;
      }

      .cls-12 {
        fill: #ff6700;
      }

      .cls-13 {
        fill: #ddb602;
      }

      .cls-14 {
        fill: #ffe86b;
      }

      .cls-15 {
        fill: #ff801a;
      }

      .cls-28 {
        opacity: .55;
      }

      .cls-29, .cls-16 {
        isolation: isolate;
      }

      .cls-16 {
        fill: #e5e1cc;
        opacity: .53;
      }

      .cls-16, .cls-30 {
        mix-blend-mode: multiply;
      }

      .cls-17 {
        fill: #fffa94;
      }

      .cls-18 {
        fill: #a80f28;
      }

      .cls-19 {
        fill: #ccc;
      }

      .cls-30 {
        opacity: .46;
      }

      .cls-20 {
        fill: #fff;
      }

      .cls-21 {
        fill: #f7f7f7;
      }

      .cls-22 {
        fill: #ecedec;
      }

      .cls-23 {
        fill: #9b9992;
      }

      .cls-24 {
        fill: #9fb713;
      }
    </style>
    <clipPath id="clippath">
      <path class="cls-3" d="M.1483.1243l.0948.7888s.0238.0749.2581.0737c0,0,.2502,0,.2845-.0688l.0923-.7993-.7297.0049s0,.0007,0,.0007Z"/>
    </clipPath>
    <clipPath id="clippath-1">
      <path class="cls-3" d="M.1483.1243l.0948.7888s.0238.0749.2581.0737c0,0,.2502,0,.2845-.0688l.0923-.7993-.7297.0049s0,.0007,0,.0007Z"/>
    </clipPath>
    <clipPath id="clippath-2">
      <path class="cls-3" d="M.518.0211C.7123.0211.8699.0554.8699.0972c0,.043-.1577.0767-.3519.0767s-.3519-.0338-.3519-.0767C.1661.0548.3237.0211.518.0211Z"/>
    </clipPath>
  </defs>
  <g class="cls-29">
    <g id="Layer_1-2" data-name="Layer 1">
      <g id="Layer_1-2" data-name="Layer 1-2">
        <path class="cls-9" d="M.1483.124H.1483l.0948.7892s.0238.0749.2581.0737c0,0,.2502,0,.2845-.0685l.0923-.7996s-.7297.0053-.7297.0053Z"/>
        <g class="cls-28">
          <g class="cls-25">
            <polygon class="cls-20" points=".438 .1919 .4918 1.0073 .5833 1.0073 .6237 .1866 .438 .1919"/>
          </g>
        </g>
        <path class="cls-15" d="M.6066.6871c-.0935.0448-.1334.0145-.192-.0117-.0865-.0385-.1578-.0547-.1729-.0527h-.0004l.0044.0575s.0347-.0094.1709.0527c.0715.0327.0984.0309.1105.0304.0141-.0008.0634-.0078.1017-.0287.1075-.0583.1638-.063.1638-.063l.0044-.0575s-.0505.0059-.1905.0729Z"/>
        <path class="cls-18" d="M.6063.7624c-.0856.0405-.1334.0175-.192-.0085-.0865-.0385-.1519-.0573-.1671-.0552h-.0003l.0067.0612s.0268-.0108.1627.0514c.0715.0327.0984.0309.1105.0304.0141-.0008.0634-.0078.1017-.0287.1074-.0583.1549-.0624.1549-.0624l.0044-.0575s-.0415.0029-.1814.0691h-.0001Z"/>
        <g>
          <polygon class="cls-15" points=".336 .4253 .3112 .4198 .3174 .5116 .3415 .5153 .336 .4253"/>
          <polygon class="cls-15" points=".3492 .5177 .3492 .5176 .3491 .5176 .3492 .5177"/>
          <path class="cls-15" d="M.4098.4828s.0008-.035-.0311-.0412-.0334.0279-.0334.0279l.0039.0482.0209.0031s-.0023-.0312-.0023-.0381-.0009-.0172.0078-.0179.0109.0126.0109.0126l.0006.0443.0241.0039-.0016-.0427h.0001Z"/>
          <path class="cls-15" d="M.4589.4835l-.0109-.0062s-.0117-.0031-.0008-.0054h.0226l-.0008-.021-.0279.0008s-.021-.0031-.021.0195c0,0-.0016.0156.0126.021l.0141.0054s.0132.0054.0023.0093l-.0288-.0016h-.0003v.0201h.0342s.021.0008.021-.0217c0,0,.0016-.0163-.0163-.0201Z"/>
          <rect class="cls-15" x=".4835" y=".4447" height=".0004"/>
          <path class="cls-15" d="M.5287.4735v-.0201l-.0194.0018-.0023-.0101h-.0234l-.0006.0548s-.0016.0357.0443.0264l.0008-.0186h-.0126s-.0093-.0048-.0093-.0156v-.017l.0226-.0016h-.0001Z"/>
          <polygon class="cls-15" points=".5867 .5249 .5865 .5249 .5865 .5249 .5867 .5249"/>
          <path class="cls-15" d="M.596.4493c-.027-.0054-.0522.0078-.0583.0234s-.0085.0327.0085.0474c.017.0147.0399.0049.0402.0048h0l.0016-.0228s-.0141.0109-.0248,0-.0031-.0248.0069-.0288.0241-.0054.0256.0141l-.0008.0373.0241-.0008.0016-.0405s.0023-.0288-.0248-.0342h-.0001Z"/>
          <path class="cls-15" d="M.6687.441c-.0258-.0031-.0388.0201-.0388.0373,0,.0102-.0008.0427-.0008.0427h.0001l.021-.0018.0008-.042s.0023-.0141.0117-.0147c.0093-.0006.0069.0147.0069.0195l-.0016.0357.0217-.0031.0016-.0458s.0031-.0248-.0226-.0279Z"/>
          <polygon class="cls-15" points=".3446 .5311 .3447 .5311 .3447 .5311 .3446 .5311"/>
          <path class="cls-15" d="M.4085.6057l-.0241-.0023s-.0132.0008-.0141-.0226-.0023-.0466-.0023-.0466l-.0233-.0031.0031.0522s.0023.0388.0288.042l.0334.0039s-.0016-.0234-.0016-.0234Z"/>
          <path class="cls-15" d="M.7185.4818l.0008-.0279.0186-.003-.0006-.0186-.0117.0031-.0023-.0101-.0201.0039h0l-.0039.0568s-.0008.0365.0327.0201l-.0008-.0195s-.0109.0085-.0126-.0048h-.0001Z"/>
          <path class="cls-15" d="M.4809.5583h-.0225l.0006.0348c0,.0233-.0093.0201-.0093.0201-.0126.0008-.0109-.0179-.0109-.0179l-.0008-.0388-.0241-.0008h.0004s.0008.039.0008.039c0,0,.0015.0412.0365.0412s.0311-.0381.0311-.0381c0,0-.0016-.0396-.0016-.0396Z"/>
          <path class="cls-15" d="M.5281.5573c-.035.0009-.0342.0319-.0342.0319v.045h.0233v-.0321s-.0016-.0241.0093-.0234c.0148.0011.0117.0163.0117.0163l.0006.0373h.0226s.0008-.0366.0008-.0396.0008-.0366-.0342-.0357h.0001Z"/>
          <path class="cls-15" d="M.626.5558h0c-.0186-.0015-.0342.0063-.0342.0063-.021.0116-.0249.0405-.0132.0567s.0436.0101.0436.0101l.0008-.021c-.0047.0029-.0256.006-.0264-.0141s.0288-.017.0288-.017l.0008-.021h-.0001Z"/>
          <path class="cls-15" d="M.6837.5449c-.0189-.0045-.0226.0069-.0226.0069l-.0008-.0195-.0225.0023v.0003l-.0021.0924.0195-.0023.0023-.0381s.0016-.0163.0117-.0163c.0102,0,.0078.0201.0078.0201l-.0023.0334.0201-.003.0031-.0484s.0048-.0234-.0141-.0279h-.0001Z"/>
        </g>
        <g class="cls-30">
          <g class="cls-26">
            <g>
              <polygon class="cls-16" points=".7781 .1353 .7255 1.0016 .7859 .9957 .8756 .1158 .7781 .1353"/>
              <polygon class="cls-16" points=".2504 .1005 .1403 .0811 .2418 .961 .3099 .9668 .2504 .1005"/>
            </g>
          </g>
        </g>
        <g>
          <path class="cls-16" d="M.1485.1241h-.0001l.0034.0363s.114.0709.3513.0659c.1885-.004.3088-.0233.3703-.0685l.0049-.039s-.7297.0053-.7297.0053Z"/>
          <path class="cls-22" d="M.1368.0952v.0249c0,.0468.1693.0847.3779.0847s.3779-.038.3779-.0847v-.0249H.1368Z"/>
          <path class="cls-21" d="M.5147.0102C.3059.0102.1368.0483.1368.0952s.1692.0849.3779.0849.3779-.0381.3779-.0849S.7233.0103.5147.0103h0Z"/>
          <g>
            <ellipse class="cls-4" cx=".518" cy=".0976" rx=".3519" ry=".0763"/>
            <g class="cls-27">
              <g>
                <polygon class="cls-23" points=".7316 -.0063 .7155 .2483 .8823 .2088 .9043 .0259 .7316 -.0063"/>
                <polygon class="cls-19" points=".281 .0259 .139 .0594 .1711 .2248 .3013 .2057 .281 .0259"/>
                <path class="cls-17" d="M.2224.1442s-.0054-.0201.0264-.0201.0163-.0248.0163-.0248c0,0-.0031-.0179.0163-.0179s.0264.0126.0264.0126l.0156.0163s.0069-.0357.0373-.0304c0,0,.0319-.0288.0645-.0226,0,0,.0093-.0241.0575-.0141.0482.0101.0522.0348.0522.0348,0,0,.0669-.0327.0801.0117l.0062.0085s-.0031-.0365.0273-.0513.0615.0016.07.021c0,0,.0264.0109.0248.0381,0,0,.0234-.0069.0348,0s.0109.0273.0109.0273c0,0,.0279-.0156.0436.0048,0,0-.091.0436-.3125.0466-.2215.003-.2976-.0405-.2976-.0405h-.0001Z"/>
                <path class="cls-1" d="M.2913.1178c-.0279-.018-.0165-.0308.0039-.0248.0163.0048.0387.024.0404.0223.0041-.0049.0113-.0098.0231-.0074.022.0045.0406.0119.0464-.0014s-.0131-.0346.0091-.0352c.0273-.0008.022-.0273.0513-.02.0101.0025.0363.0039.0373.0141.0018.0185.0202.022.0212.0268-.0116-.0103-.0275-.0118-.0368-.0064-.0008-.0171-.0855-.0311-.065.0326.0098-.0612.0612-.0287.0668-.021.0311-.0156.0441.0225.0459.0201.0015-.0018.0377.0235.0518.0185.0209-.0073.0146-.0564-.0397-.0352,0-.0145.0099-.0124.0165-.016.0132-.0073.0322-.0058.0381.0058s.0113.0417.0113.0417l.0122-.0008s.006-.0592.0147-.0583c-.0054.0466.0039.0573.0039.0573l.0093-.0005s-.0175-.0497.0102-.0642.0552.0157.0552.0157c0,0,.0225.0361.0127.0361-.0025,0-.0146-.0332-.0253-.0332.0137.0273.003.0383-.0019.0243-.008-.0231-.0278-.0336-.0361-.0293-.0137.0069-.0088.0332-.0068.039.0205-.0015.036.0307.036.0307l-.3598.0201s-.0068-.0225.0175-.0371c.0131-.0079.0407.0181.0386.0122-.0034-.0103-.0108-.0206-.027-.0239-.0197-.0039-.0455.0172-.0455.0172l-.029-.0195h-.0003v-.0003Z"/>
                <path class="cls-12" d="M.5862.1266s.0013-.0211.0186-.0224l.0522-.0038s.0074.0038.0112.0136-.0557.0177-.0557.0177l-.0264-.0053h.0001Z"/>
                <path class="cls-12" d="M.5862.1266s.0013-.0211.0186-.0224l.0522-.0038s.0074.0038.0112.0136-.0557.0177-.0557.0177l-.0264-.0053h.0001Z"/>
                <path class="cls-12" d="M.3938.1179s.0013-.0211.0186-.0224l.0522-.0038s.0074.0038.0112.0136-.0557.0177-.0557.0177l-.0264-.0053h.0001Z"/>
                <g>
                  <circle class="cls-8" cx=".7446" cy=".1328" r=".0356"/>
                  <ellipse class="cls-6" cx=".7526" cy=".1069" rx=".005" ry=".0108" transform="translate(.4799 .8165) rotate(-77.0617)"/>
                  <path class="cls-24" d="M.7802.1328c0,.0181-.016.0328-.0356.0328s-.0356-.0146-.0356-.0328c.0075.0089.0143.0112.0341.0112s.0304-.0048.0372-.0112h-.0001Z"/>
                </g>
                <g>
                  <circle class="cls-8" cx=".3025" cy=".1369" r=".0443"/>
                  <ellipse class="cls-6" cx=".3138" cy=".1053" rx=".0058" ry=".0132" transform="translate(.0876 .3469) rotate(-65.4237)"/>
                </g>
                <path class="cls-10" d="M.2155.1499s-.0054-.0256.0279-.0327c.0334-.0069.0342.0126.0342.0126,0,0,.0304-.0201.0427.0078,0,0,.0109-.0054.0201.0085,0,0,.021-.0201.0559.0054,0,0,.0054-.0622.0583-.0631s.0631.0288.0631.0288c0,0,.0054-.0288.0381-.0054,0,0,.0497-.0186.0567.0201,0,0-.0078-.0179.0396-.0126,0,0,.0016-.017.0201-.021s.052.0091.0466.0264c.0319.0064.0365.0381.0365.0381,0,0-.1018.0273-.2487.0256s-.2915-.0388-.2915-.0388h.0001v.0004h.0001Z"/>
                <path class="cls-14" d="M.2272.1602s-.0087-.0341.0217-.0361.021.0199.021.0199c0,0,.0031.0117.0217.0141s.0241-.0109.0156-.0179c.0201,0,.0273.0054.0264.0141l.0054.0186s-.0093-.0311.0436-.0256l.0023.0085s-.0327-.0069-.0348.0117l-.0591.0069-.0637-.0141h-.0001Z"/>
                <path class="cls-14" d="M.7098.1764s-.0047-.0262.0078-.0357c.0141-.0109.0373.0248.0279.0348l-.0357.0008h0Z"/>
                <path class="cls-5" d="M.4361.1338s.0179-.0062.0132-.017.0016-.0234.0163-.0217.0381.0062.0436.0304c0,0,0,.0069-.0054.0126s.0023.0141.0085.0117c.0062-.0024.0186-.0109.0179-.0217s0-.0195.0101-.0147.0069.0141.0186.0132.0264-.0117.0357-.0069.0109.0147.0109.0179-.0078.0163-.0179.0126-.0156-.0179-.0241-.0163-.0279.0078-.0248.0186.0069.0179.0141.0132-.0054-.0201.0078-.0195.0101.0141.021.0147.0365,0,.0373-.0195c0,0,.0029-.0151.0338-.0111,0,0,.0161.0165.0253.0088s.0023-.0241.0141-.0248.0185.0019.017.0192-.0054.0289-.0092.0282-.0085-.0117-.0069-.0179-.0054.0186-.0412.0016-.0163.0132-.0132.0156.0093.0156.0093.0156l-.0226.0023-.0039-.0156-.0147.0117-.0885.0057-.0328-.0019s-.0093-.0248.0016-.0357.0147-.0141.0048-.0256-.0327-.0147-.0248.0048c.0078.0195-.0248.0334-.0248.0334l-.0054-.021h-.0005l-.0003-.0005s0-.0003,0-.0003Z"/>
                <g>
                  <path class="cls-2" d="M.4012.1156c-.0279.0132-.0184.0614-.0184.0614.0116.0289.0905.0103.0836-.0092-.0124-.035-.0373-.0654-.0652-.052H.4012Z"/>
                  <ellipse class="cls-11" cx=".4149" cy=".1242" rx=".0132" ry=".0074"/>
                  <path class="cls-13" d="M.3823.1587s.0458.0226.0785-.0023c0,0,.0132.0132.0031.0226,0,0-.0256.0163-.0652.0101,0,0-.0141.0093-.0163-.0304H.3823Z"/>
                </g>
                <path class="cls-7" d="M.3608.0798s.0137.0048.0206.0195.0179.0039.0163-.0054-.0109-.0279-.017-.0273-.0211.0132-.02.0132h0Z"/>
                <g>
                  <path class="cls-8" d="M.5319.1431c-.0216,0-.0391.0175-.0391.0391s.0175.0391.0391.0391.0391-.0175.0391-.0391-.0175-.0391-.0391-.0391Z"/>
                  <ellipse class="cls-6" cx=".5401" cy=".1544" rx=".0052" ry=".0111" transform="translate(.2242 .6188) rotate(-71.7333)"/>
                </g>
              </g>
            </g>
          </g>
          <path class="cls-7" d="M.3925.0592s-.0163.0031-.0016.0357c0,0,.0048.0101-.0054.0078s-.0327-.021-.0543-.0132c0,0,.0084-.0185.0264-.0096,0,0,.0062-.0308.035-.0206H.3925Z"/>
          <path class="cls-14" d="M.2892.1237s-.0141.0016-.0109.0147.0156.0085.0156.0085c0,0,.0141-.0054-.0048-.0234h.0001Z"/>
        </g>
        <g>
          <path class="cls-18" d="M.7993.3315c-.0043.0009-.0077.0049-.0077.0089s.0034.0065.0077.0057c.0041-.0009.0075-.0049.0075-.0089s-.0034-.0065-.0075-.0057ZM.7932.3401c0-.0033.0028-.0064.0062-.007.0034-.0008.0062.0014.0062.0048,0,.0033-.0028.0064-.0062.0072h0c-.0035.0006-.0062-.0016-.0062-.0049Z"/>
          <path class="cls-18" d="M.7092.3002c-.0058.0009-.0118.0016-.0176.0023-.0079.001-.0084.0083-.0084.0094,0,.006.0049.0087.0092.0082.0052-.0006.0063-.0048.0107-.0052.0029-.0004.0054.0013.0054.0031,0,.0089-.0299.0043-.0299.029,0,.0049.0077.0207.0238.0189.0157-.002.0244-.0146.0244-.0273v-.0231c0-.0118-.0098-.0162-.0175-.0152h0ZM.7023.3474c-.0028.0004-.0047-.0024-.0047-.0041,0-.0004.0028-.0049.0077-.0055.0013,0,.0014,0,.0023-.0004v.0063h.0001c-.0008.001-.002.0034-.0054.0038Z"/>
          <polygon class="cls-18" points=".2834 .3221 .2821 .3249 .2848 .3227 .2834 .3221"/>
          <path class="cls-18" d="M.3032.3079H.3032c-.0102-.0015-.0114.0101-.0185.0148.0047.0052.0116.0106.0166.0091,0,0-.0031-.0033-.0025-.0058.0003-.0011.0096.0065.0186.0044-.0034-.0033-.0033-.0091-.0075-.0107.0003.0065.0091.0111.0091.0111-.0006.0003-.0008-.0005-.0015-.0003.0067.0064.0151.0119.0151.0212,0,.0162-.0131.0275-.0292.0249h-.0001c-.0161-.0026-.0292-.0182-.0292-.0344,0-.0073.0036-.0127.008-.0172-.0065.0058-.0189.0048-.0189.0151,0,.0216.0179.0426.04.0463s.0401-.0116.0401-.0332-.018-.0416-.0401-.0451H.3032Z"/>
          <path class="cls-18" d="M.3098.3196c.0043.0016.0043.0075.0075.0107.0006-.0001.0008.0006.0015.0003,0,0-.0088-.0044-.0091-.0111H.3098Z"/>
          <polygon class="cls-18" points=".7707 .2914 .7708 .2916 .771 .2914 .7707 .2914"/>
          <path class="cls-18" d="M.7708.2916c-.0113.002-.0226.0039-.0339.0055-.0013.0021-.003.0044-.003.0074v.0476c0,.002.0033.0079.0091.007.0059-.001.0091-.0057.0091-.0084v-.0409c.0041-.0006.0082-.0014.0122-.002v.0383c0,.0016.0025.0096.0091.0084.0054-.001.0091-.0057.0091-.0093v-.0439c0-.0053-.0068-.0109-.0113-.0101h-.0001Z"/>
          <path class="cls-18" d="M.4185.3539v-.048h.0003c0-.0074-.007-.0146-.0116-.015-.0023-.0003-.0047-.0004-.0069-.0006-.0141-.0014-.0137.0295-.0196.0351-.0054-.007-.0044-.0382-.0226-.0405-.0097-.0013-.0153.0059-.0153.0137v.0211c0,.0014-.0006.0026,0,.0043.0034.0049.0059.0099.0077.0155.0015.0048.0023.0096.0023.0146,0,.0262-.0216.0448-.0482.0405-.0265-.0043-.0479-.0299-.0479-.0561s.0214-.043.0479-.0386c.0092.0016.0179.0054.0251.0109.0025.0018.004.0029.006.0047v-.0116c-.0091-.0072-.02-.0124-.0317-.0143-.0318-.0052-.0573.0151-.0573.0469,0,.0317.0255.0631.0573.0681.0304.005.0548-.0162.057-.0456,0,0-.0006-.0248.0014-.0405.0062.02.0074.046.0177.0473.0126.0014.0113-.0284.0199-.0443.0008.0099.001.0353.001.0353,0,.0049.0008.0069.0039.0113.0058.0005.0118.001.0176.0015-.0016-.0059-.0039-.0124-.0039-.0158h0Z"/>
          <path class="cls-18" d="M.5547.3097h-.0004c-.0094.0001-.0085.007-.0085.0118v.0293c0,.0035-.0036.0069-.006.0069-.0039,0-.006-.0028-.006-.0054v-.0353c0-.004-.003-.0069-.0084-.0069-.004,0-.0099.0014-.0099.0091v.037c0,.0093.0138.0194.0207.0192h.0069c.0069,0,.0216-.0091.0216-.022v-.0346c0-.0049-.003-.0091-.0099-.0091Z"/>
          <path class="cls-18" d="M.6603.3061h0c-.0047.0004-.0092.0008-.0138.0013-.0041-.0049,0-.0192-.0108-.0184-.0028.0003-.0099.0033-.0099.0099v.0422c0,.0073-.0082.0175-.0192.0181-.0074.0005-.0176-.0065-.0176-.0167,0-.0059.0034-.0107.0077-.0157.0014,0,.0025,0,.0039-.0003,0,.0039-.0016.014.0084.0133.0085-.0005.0124-.0085.0124-.014,0-.0141-.0127-.0167-.0168-.0166-.0023,0-.0047.0003-.0069.0004-.0062.0004-.027.0116-.027.0304v.0069c0,.015.0209.03.0323.0294.0023,0,.0047-.0003.0069-.0004.0098-.0005.0323-.0124.0346-.0347v-.0176c.0041-.0004.0082-.0006.0123-.0011-.0004.003,0,.0119,0,.03,0,.008-.0013.0177.0084.0167.006-.0006.0092-.0073.0092-.0102v-.04c0-.007-.0062-.0138-.0138-.0132h-.0001Z"/>
          <polygon class="cls-18" points=".5011 .3084 .5011 .3085 .5012 .3084 .5011 .3084"/>
          <path class="cls-18" d="M.5011.3085c-.0119-.0001-.02.0109-.02.0186v.0383c0,.0049.0048.0078.0092.0079.0059,0,.0092-.0034.0092-.0074v-.0383c.0043-.0029.0131-.0003.0131-.0106,0-.0044-.0058-.0085-.0116-.0085h.0001Z"/>
          <path class="cls-18" d="M.4562.3104h-.0003.0001c-.0058-.0004-.0118-.0006-.0176-.0011-.008-.0005-.0084.0067-.0084.0079,0,.006.0048.0096.0092.0098.0052.0004.0063-.0035.0108-.0033.0029,0,.0054.0021.0054.0041,0,.0089-.03-.0014-.03.0236,0,.0049.0078.0223.0239.0233.0158.0009.0245-.0099.0245-.0228v-.0231c0-.0118-.0098-.018-.0176-.0185ZM.4545.3533H.4545c-.0006.001-.002.0031-.0054.0029-.0028,0-.0047-.0033-.0047-.0048,0-.0004.0028-.0045.0077-.0043.0013,0,.0014.0003.0023,0v.006H.4544v.0003h.0001Z"/>
          <rect class="cls-18" x=".2897" y=".333" width=".0053" height=".0063" transform="translate(-.1466 .2602) rotate(-39.1737)"/>
          <rect class="cls-18" x=".3129" y=".3369" width=".0053" height=".0062" transform="translate(-.1436 .2737) rotate(-38.9275)"/>
          <path class="cls-18" d="M.3186.3459s-.0011.0009-.0018.0013c-.0036.003-.0103.0029-.0103.0029-.0113-.0005-.0182-.0054-.0182-.0054h-.0003s-.0004.0005-.0004.0008c.0005.0004.0013.0008.0019.0011.0102.0055.0196.0055.0196.0055.0053.0006.0112-.0028.0112-.0028,0,0,.001-.0008.0005-.0021s-.0023-.0011-.0023-.0011h0Z"/>
          <polygon class="cls-18" points=".3054 .3441 .3044 .344 .3024 .3435 .3006 .3459 .3051 .3476 .3074 .3459 .3054 .3441"/>
          <polygon class="cls-18" points=".7995 .3385 .7993 .3385 .7993 .3386 .7995 .3385"/>
          <path class="cls-18" d="M.8017.3395v.0005s-.0006-.0006-.001-.0008c0,0-.0004,0-.0006-.0003.0008-.0003.0013-.0005.0016-.001.0004-.0004.0005-.0009.0005-.0014,0-.0004,0-.0008-.0003-.001s-.0005-.0005-.0009-.0005h-.0015c-.0011.0003-.0021.0005-.0033.0006v.0067s.0006,0,.001-.0003v-.003s.0008,0,.0011-.0003h.001s.0004,0,.0005.0004c0,.0004.0004.0005.0008.0009.0003.0004.0006.0009.001.0013.0004,0,.0009,0,.0013-.0003-.0004-.0005-.0009-.0011-.0013-.0016ZM.7995.3385h-.0001c-.0008,0-.0013.0003-.0019.0004v-.0023c.0008,0,.0016-.0004.0023-.0005h.0013s.0004.0004.0004.0008c0,.0003,0,.0005-.0003.0006,0,.0003-.0003.0004-.0006.0005-.0003,0-.0006.0003-.0011.0004h.0001Z"/>
        </g>
      </g>
    </g>
  </g>
</svg>