<svg id="Capa_1" data-name="Capa 1" xmlns="http://www.w3.org/2000/svg" version="1.1" viewBox="0 0 2.81 1"><defs><style>.cls-2,.cls-4,.cls-5{stroke-width:0}.cls-2{fill:none}.cls-4{fill:#000}.cls-5{fill:#fbd362}</style></defs><path d="M1.83.24s.05.08.06.13c0 .03 0 .06.02.09v.15-.12c0-.05-.03-.1-.06-.14 0 0 0-.02-.02-.03V.25s.03-.01.04-.01h-.03Z" style="stroke-width:0;fill:#ed968b"/><path class="cls-5" d="M1.44.99c-.2.02-.39-.09-.48-.27L1 .68c.02-.02.04-.04.06-.05.04-.03.08-.07.13-.1.08-.06.17-.11.25-.15.05-.03.11-.05.17-.07.02 0 .04-.02.06-.02s.03.04.05.05v.04s0 .08-.02.13c-.02.08-.04.15-.07.23-.03.05-.06.11-.09.15-.03.04-.06.07-.1.1h.01Z"/><path d="M1.68.28c-.07.02-.14.05-.21.08-.09.04-.17.09-.26.14-.05.04-.1.07-.15.12C1.03.64 1 .67.98.7H.96A.387.387 0 0 1 .91.46c0-.14.06-.25.16-.34.02 0 .05-.02.08-.03.04 0 .09-.02.14-.02.1 0 .19.02.27.05.02 0 .03.02.05.02h.02l.04.02v.11Z" style="fill:#e46353;stroke-width:0"/><path d="M1.44.99s.04-.03.06-.05c.05-.05.09-.1.12-.16.05-.09.08-.19.1-.29 0-.05 0-.1.02-.15h.06s.05.08.07.13c0 .04.02.07.02.11v.06l-.03.09c-.08.15-.2.24-.36.27h-.06Z" style="fill:#47c29f;stroke-width:0"/><path d="M1.66.2S1.63.18 1.62.18 1.55.14 1.51.13A.908.908 0 0 0 1.28.1c-.06 0-.12.02-.18.04s.08-.06.13-.08c.07-.03.14-.05.22-.05.09 0 .18.03.26.08v.02c0 .02.02.04.03.07s0 .01 0 .01c-.02 0-.03 0-.04.01h-.03Z" style="fill:#27a1da;stroke-width:0"/><path class="cls-5" d="M1.72.18S1.7.12 1.68.1s.05.02.07.04c.03.03.06.07.09.1H1.8S1.77.2 1.74.18h-.02Z"/><path d="M1.89.63V.57v.06Z" style="fill:#9da28b;stroke-width:0"/><path d="M1.72.18s.05.03.06.05 0 .03.02.05v.03s-.03.03-.05.02S1.7.29 1.69.27c0 0 0-.03-.02-.05V.19s.03-.03.05-.02Z" style="fill:#eaeff2;stroke-width:0"/><path d="M1.6.17Z" style="fill:#d0d0d8;stroke-width:0"/><path class="cls-2" d="M1.83.24s.05.08.06.13c0 .03 0 .06.02.09v.15-.12c0-.05-.03-.1-.06-.14 0 0 0-.02-.02-.03V.25s.03-.01.04-.01h-.03ZM1.44.99c-.2.02-.39-.09-.48-.27L1 .68c.02-.02.04-.04.06-.05.04-.03.08-.07.13-.1.08-.06.17-.11.25-.15.05-.03.11-.05.17-.07.02 0 .04-.02.06-.02s.03.04.05.05v.04s0 .08-.02.13c-.02.08-.04.15-.07.23-.03.05-.06.11-.09.15-.03.04-.06.07-.1.1h.01Z"/><path class="cls-2" d="M1.67.28c-.07.02-.14.05-.21.08-.09.04-.17.09-.26.14-.05.04-.1.07-.15.12C1.02.64.99.67.97.7H.95A.387.387 0 0 1 .9.46c0-.14.06-.25.16-.34.02 0 .05-.02.08-.03.04 0 .09-.02.14-.02.1 0 .19.02.27.05.02 0 .03.02.05.02h.02l.04.02v.11ZM1.44.99s.04-.03.06-.05c.05-.05.09-.1.12-.16.05-.09.08-.19.1-.29 0-.05 0-.1.02-.15h.06s.05.08.07.13c0 .04.02.07.02.11v.06l-.03.09c-.08.15-.2.24-.36.27h-.06Z"/><path class="cls-2" d="M1.66.2S1.63.18 1.62.18 1.55.14 1.51.13A.908.908 0 0 0 1.28.1c-.06 0-.12.02-.18.04s.08-.06.13-.08c.07-.03.14-.05.22-.05.09 0 .18.03.26.08v.02c0 .02.02.04.03.07s0 .01 0 .01c-.02 0-.03 0-.04.01h-.03Z"/><path class="cls-2" d="M1.72.18S1.7.12 1.68.1s.05.02.07.04c.03.03.06.07.09.1H1.8S1.77.2 1.74.18h-.02ZM1.88.63V.57v.06Z"/><path class="cls-2" d="M1.72.18s.05.03.06.05 0 .03.02.05v.03s-.03.03-.05.02S1.7.29 1.69.27c0 0 0-.03-.02-.05V.19s.03-.03.05-.02ZM1.6.17Z"/><path class="cls-4" d="M1.83.24c.08.13.09.22.09.37H1.9V.49C1.89.47 1.84.34 1.83.32V.24h.04-.03Zm0 0h.03-.04c0 .02.02.06.01.07.02.02.07.15.09.17V.6H1.9V.45S1.85.28 1.83.23ZM1.44.99C1.25 1.01 1.03.9.96.72c.11-.13.33-.26.48-.34.05-.01.19-.09.24-.08.09.06.03.14.03.23-.04.17-.14.39-.26.48Zm0 0s.15-.16.19-.25L1.7.51c0-.05.02-.14.02-.16L1.67.3c.01 0-.19.08-.22.09C1.3.47 1.09.6.97.73c.08.15.28.29.48.27Z"/><path class="cls-4" d="M1.68.28c-.29.1-.49.23-.72.44C.83.53.91.16 1.15.1c.18-.04.36.02.52.07 0 .03.01.08 0 .11Zm0 0s0-.09-.01-.11C1.51.11 1.32.07 1.15.1.91.17.87.52.96.7c.19-.19.45-.34.72-.42ZM1.44.99c.2-.16.26-.43.3-.66h.07c.23.28-.03.68-.37.67Zm0 0c.33 0 .57-.39.35-.65.04 0-.04.02-.05.01 0 .19-.11.5-.3.64Z"/><path class="cls-4" d="M1.68.19c0-.05-.15-.05-.19-.07A.768.768 0 0 0 1.12.1c.01-.01-.02.04-.02.03.09-.16.46-.19.6-.05-.02 0 .02.07.02.08 0 0 .02 0 .02.02-.02-.03-.05-.02-.07 0l.02.01h-.01Zm0 0c.04-.06.1.03.05-.02L1.7.1c-.01 0 .01-.02 0-.01-.2-.15-.45-.04-.62.04.03-.09.34-.05.4-.01.04.01.2.02.19.07Z"/><path class="cls-4" d="M1.72.18 1.68.1c.02-.04.14.1.17.14v.01h-.04C1.8.24 1.76.18 1.73.19Zm0 0s.07.05.08.06h.04c-.04 0-.1-.12-.16-.14 0-.01.04.08.04.08ZM1.89.63V.57v.06Zm0 0V.57v.06Z"/><path class="cls-4" d="M1.72.18s.07.05.09.1c.01.1-.11.06-.12-.01 0-.02-.02-.06-.02-.08 0-.02.05-.04.05-.01Zm0 0s-.04 0-.05.01v.03c.02.04.04.09.08.1.01.01.04 0 .04-.01V.28c-.01-.05-.03-.06-.07-.1ZM1.83.24c.08.13.09.22.09.37H1.9V.49C1.89.47 1.84.34 1.83.32V.24h.04-.03Zm0 0h.03-.04c0 .02.02.06.01.07.02.02.07.15.09.17V.6H1.9V.45S1.85.28 1.83.23Z"/><path class="cls-4" d="M1.44.99C1.25 1.01 1.03.9.96.72c.11-.13.33-.26.48-.34.05-.01.19-.09.24-.08.09.06.03.14.03.23-.04.17-.14.39-.26.48Zm0 0s.15-.16.19-.25L1.7.51c0-.05.02-.14.02-.16L1.67.3c.01 0-.19.08-.22.09C1.3.47 1.09.6.97.73c.08.15.28.29.48.27Z"/><path class="cls-4" d="M1.67.28c-.29.1-.49.23-.72.44C.82.53.9.16 1.14.1c.18-.04.36.02.52.07 0 .03.01.08 0 .11Zm0 0s0-.09-.01-.11C1.5.11 1.31.07 1.14.1.9.17.86.52.95.7c.19-.19.45-.34.72-.42ZM1.44.99c.2-.16.26-.43.3-.66h.07c.23.28-.03.68-.37.67Zm0 0c.33 0 .57-.39.35-.65.04 0-.04.02-.05.01 0 .19-.11.5-.3.64ZM1.72.18 1.68.1c.02-.04.14.1.17.14v.01h-.04C1.8.24 1.76.18 1.73.19Zm0 0s.07.05.08.06h.04c-.04 0-.1-.12-.16-.14 0-.01.04.08.04.08Z"/><path class="cls-4" d="M1.72.18s.07.05.09.1c.01.1-.11.06-.12-.01 0-.02-.02-.06-.02-.08 0-.02.05-.04.05-.01Zm0 0s-.04 0-.05.01v.03c.02.04.04.09.08.1.01.01.04 0 .04-.01V.28c-.01-.05-.03-.06-.07-.1ZM-315.45 466.91h2.81v1h-2.81z"/></svg>