<svg id="Capa_1" data-name="Capa 1" xmlns="http://www.w3.org/2000/svg" version="1.1" viewBox="0 0 1.1 1"><defs><style>.cls-2,.cls-3,.cls-7{stroke-width:0}.cls-2{fill:#000}.cls-3{fill:#fbd362}.cls-7{fill:#e46353}</style></defs><path class="cls-2" d="M-316.3 466.9h2.8v1h-2.8z"/><path class="cls-7" d="M.965.243a.446.446 0 0 1 .074.22l.001.002v.054l-.006.045c-.002.017-.004.035-.01.051C1.02.612 1.021.607 1.021.603V.566C1.019.544 1.017.521 1.012.499A.412.412 0 0 0 .953.357C.947.348.941.34.936.33.936.32.94.31.938.299a.185.185 0 0 0-.012-.04C.924.255.921.252.924.247.937.243.95.238.964.242z"/><path class="cls-2" d="M.965.243c.068.122.1.253.061.39a.154.154 0 0 1-.009-.067C1.036.487.851.234.966.243zm0 0c-.118-.017.08.218.062.368-.018.015.006-.046.003-.047l.007-.045A.557.557 0 0 0 .966.243z"/><path class="cls-3" d="M.584.983A.489.489 0 0 1 .11.715C.123.701.135.686.149.673L.207.62A1.742 1.742 0 0 1 .744.308C.765.301.785.293.806.287.809.287.811.284.814.283c.004 0 .005.003.006.005A.155.155 0 0 0 .87.34c.002 0 .004.003.005.006.002.013 0 .025-.002.038A1.027 1.027 0 0 1 .787.73a.723.723 0 0 1-.093.15.574.574 0 0 1-.1.097L.582.983h.002z"/><path class="cls-2" d="M.584.983a.485.485 0 0 1-.476-.27C.302.522.561.342.823.286l.055.059C.861.58.781.844.584.982zm0 0C.779.843.856.58.872.347.872.345.819.294.817.29a1.824 1.824 0 0 0-.704.424.49.49 0 0 0 .472.269z"/><path class="cls-7" d="M.816.284.809.289a1.733 1.733 0 0 0-.602.334.958.958 0 0 0-.08.076C.122.704.117.709.11.713A.476.476 0 0 1 .218.142C.241.128.267.122.292.115A.62.62 0 0 1 .744.17l.015.009a.647.647 0 0 1 .036.02c.003.002.007.004.009.007v.007a.097.097 0 0 0 .01.058c.002.003.004.007.002.011v.002z"/><path class="cls-2" d="M.816.284a2.066 2.066 0 0 0-.709.431C-.047.445.148.01.491.106.595.134.73.128.805.213c0 .01.012.062.012.071zm0 0C.803.218.816.204.759.179.597.106.391.07.22.144a.484.484 0 0 0-.107.567C.285.523.561.371.816.284z"/><path d="M.584.983C.602.968.622.954.639.937A.625.625 0 0 0 .761.779.919.919 0 0 0 .858.495c.009-.05.014-.1.017-.15.007-.002.012.002.018.003a.041.041 0 0 0 .022 0A.03.03 0 0 0 .93.338C.932.336.933.332.937.332a.434.434 0 0 1 .085.234v.058a.482.482 0 0 1-.386.354C.619.981.602.984.584.984z" style="fill:#47c29f;stroke-width:0"/><path class="cls-2" d="M.584.983C.773.828.853.579.871.341c0 0 .021.004.023.003C.917.351.929.327.941.33c.22.275-.038.649-.357.654zm0 0c.319-.01.565-.378.349-.648C.94.348.904.356.892.352.831.55.808.814.584.983z"/><path d="M.802.207.759.183C.755.179.75.177.745.175A.622.622 0 0 0 .403.1a.564.564 0 0 0-.176.041L.219.143A.493.493 0 0 1 .814.091c.007.005.01.013.014.021.011.021.02.043.029.065 0 .003.003.007 0 .01-.003.002-.007 0-.01 0C.832.184.82.188.811.201.809.204.808.208.803.206z" style="fill:#27a1da;stroke-width:0"/><path class="cls-2" d="M.802.207A.708.708 0 0 0 .205.15C.363.003.783-.078.857.187.833.182.818.191.802.207zm0 0C.817.192.833.181.857.187.78-.071.382.014.222.146.383.066.637.1.802.207z"/><g><path class="cls-3" d="M.856.187A.538.538 0 0 0 .82.105L.813.091a.453.453 0 0 1 .152.151l-.04.006C.922.249.921.246.919.244A.14.14 0 0 0 .86.19C.858.19.857.188.856.186z"/><path class="cls-2" d="M.856.187.811.092c.066.021.114.098.16.152L.926.25C.918.247.865.192.857.187zm0 0 .068.059.04-.007-.002.004A1.547 1.547 0 0 0 .815.09l.041.097z"/></g><g><path d="M1.023.623V.565c.004.012.001.024.002.036v.014s0 .005-.002.007z" style="fill:#9da28b;stroke-width:0"/><path class="cls-2" d="M1.023.623 1.018.565l.01-.002c0 .014 0 .046-.005.059zm0 0C1.026.609 1.02.581 1.018.567c.021-.015.001.052.005.056z"/></g><g><path d="M.856.187c.028.01.047.03.063.053l.006.009c.006.016.014.032.016.049L.938.331C.926.351.91.357.885.348.882.348.879.346.875.344A.172.172 0 0 1 .816.283.155.155 0 0 1 .801.237C.799.226.803.216.801.206L.803.205C.819.183.829.179.855.186h.001z" style="stroke-width:0;fill:#eaeff2"/><path class="cls-2" d="M.856.187c.087.045.133.187.027.166a.485.485 0 0 1-.07-.068C.792.243.789.164.856.187zm0 0C.722.16.873.412.934.331.95.268.901.222.856.187z"/></g><g><path d="M.744.175C.75.176.755.177.758.183.753.18.748.179.744.175z" style="fill:#d0d0d8;stroke-width:0"/><path class="cls-2" d="M.744.175s.029.002.011.012L.744.175zm0 0c.013.007.022 0 .009.01 0 0-.001-.006-.009-.01z"/></g></svg>