<?xml version="1.0" encoding="UTF-8"?>
<svg id="Capa_1" data-name="Capa 1" xmlns="http://www.w3.org/2000/svg" version="1.1" viewBox="0 0 1 1">
  <defs>
    <style>
      .cls-1 {
        fill: #e92e00;
      }

      .cls-1, .cls-2 {
        stroke: #000;
        stroke-miterlimit: 10;
        stroke-width: .01px;
      }

      .cls-2 {
        fill: #000;
      }
    </style>
  </defs>
  <path class="cls-2" d="M.655.467c-.044,0-.088,0-.131,0-.008,0-.016,0-.024,0-.004,0-.008,0-.012,0-.048,0-.095,0-.143,0,.007-.021.018-.039.03-.057.002-.004.005-.008.007-.012.014-.015.018-.034.022-.053.004-.021,0-.04-.003-.061.02,0,.04,0,.059,0,.013,0,.026.001.039,0,.004,0,.008,0,.013,0,.029,0,.058,0,.087,0,0,.012-.004.024-.004.036,0,.03.007.057.024.081.014.021.027.043.036.066Z"/>
  <path class="cls-1" d="M.499.032c-.037,0-.068.016-.091.045-.015.019-.023.042-.023.068,0,.027.003.054.007.081.002.019.004.038.009.057.02,0,.039,0,.059,0,.013,0,.026.001.039,0,.004,0,.008,0,.013,0,.029,0,.058,0,.087,0,.003-.014.004-.029.006-.043.004-.031.009-.063.009-.094,0-.063-.052-.115-.115-.114Z"/>
  <path class="cls-2" d="M.499.88c.052,0,.103,0,.155,0,.004,0,.008,0,.013,0-.004.011-.008.022-.013.033-.013.031-.04.05-.075.05-.053,0-.106,0-.159,0-.035,0-.06-.017-.074-.049-.004-.009-.007-.017-.01-.026,0-.002-.001-.005-.004-.006,0,0,0-.001.001-.002.019,0,.038,0,.056,0,.037,0,.073,0,.11,0Z"/>
  <path class="cls-1" d="M.69.597c-.006-.045-.018-.088-.035-.13-.044,0-.088,0-.131,0-.008,0-.016,0-.024,0-.004,0-.008,0-.012,0-.047,0-.095,0-.143,0-.026.059-.037.122-.041.186-.004.078.004.154.028.228.019,0,.038,0,.056,0,.037,0,.073,0,.11,0h.155s.008,0,.013.001c.018-.053.027-.107.029-.163.002-.041,0-.082-.006-.122Z"/>
</svg>