<?xml version="1.0" encoding="UTF-8"?>
<svg id="Layer_1" data-name="Layer 1" xmlns="http://www.w3.org/2000/svg" version="1.1" viewBox="0 0 1 1">
  <defs>
    <style>
      .cls-1 {
        fill: #e92e00;
      }

      .cls-1, .cls-2 {
        stroke-width: 0px;
      }

      .cls-2, .cls-3 {
        fill: #000;
      }

      .cls-3 {
        stroke: #000;
        stroke-linecap: round;
        stroke-miterlimit: 10;
        stroke-width: .0194px;
      }
    </style>
  </defs>
  <path class="cls-3" d="M.2643.8582l.0741.0343-.0941-.1028-.01.0267.0033-.6834.1433.766.0639.0428.3008-.0819v.0434l-.3091.0869s-.1771-.0752-.1755-.0802.0033-.0518.0033-.0518Z"/>
  <g>
    <polygon class="cls-1" points=".4414 .1617 .7639 .0772 .7639 .8649 .4399 .9718 .4414 .1617"/>
    <path class="cls-2" d="M.4406.1611c.0121-.0012.3175-.0909.33-.0927-.0043.0153.007.7917-.005.8018,0,0-.3228.1101-.3228.1101-.0106.0031-.0136.008-.0118-.0086,0,0,.0097-.8106.0097-.8106H.4406ZM.4421.1623l.0067.8094c-.0579-.0114.3225-.1069.3133-.1121-.0101.0292-.0017-.7884-.0048-.7823.0433.0102-.3226.0811-.3151.085H.4421Z"/>
  </g>
  <g>
    <polygon class="cls-1" points=".4481 .1597 .2559 .0728 .5367 .016 .7372 .0695 .4481 .1597"/>
    <path class="cls-2" d="M.4481.1607c-.0111-.0049-.2069-.0866-.2129-.0893C.4266.0257.5416-.0066.7394.0608c0,0,.0298.0072.0298.0072-.1055.0373-.2154.0668-.3211.0927H.4481ZM.4482.1587c.0886-.0192.23-.1133.2866-.0807,0,0-.199-.0583-.199-.0583-.0785.003-.2191.0751-.277.047,0,0,.1894.0919.1894.0919H.4482Z"/>
  </g>
  <g>
    <polygon class="cls-1" points=".4481 .1597 .2443 .0795 .2443 .8672 .4349 .9698 .4481 .1597"/>
    <path class="cls-2" d="M.4473.1602c.0056-.0013-.2388-.0751-.1964-.0806,0,0,.0002.7875.0002.7875-.0227-.0218.1918.0995.188.0948-.0351.054.0185-.8101.0082-.8016H.4473ZM.4489.1592c-.0007.0193-.0046.8072-.0051.8257-.0021-.0008-.1997-.1102-.2063-.1137-.0006-.0023.0006-.7886.0001-.7916,0,0,0-.0102,0-.0102l.0092.0039.2021.0858H.4489Z"/>
  </g>
  <path class="cls-2" d="M.4152.3928c.0117,0,.0299.0009.0274.0184-.0151.0063-.0262-.0073-.0274-.0184H.4152Z"/>
  <path class="cls-2" d="M.4562.4094c.1008-.0332.206-.0769.3097-.0867-.0988.0406-.208.0694-.3097.0867H.4562Z"/>
  <path class="cls-2" d="M.419.1497c.0012.2647.0117.5362-.0103.797-.009-.2648-.0039-.5361.0103-.797H.419Z"/>
  <g>
    <path class="cls-2" d="M.7122.7028l.0033-.2607s.0201-.0117.0184-.0067-.0084.2607-.0033.2623-.0183.005-.0183.005Z"/>
    <path class="cls-2" d="M.7115.7035c-.0059-.081-.0062-.1786.0018-.2653.0461-.0394.0223.1068.0273.124-.0117.0587.0072.1575-.029.1413h0ZM.7128.702c.0335.0115.0065-.0996.011-.1315-.0068-.1068.0217-.1481-.006-.1246.0061.0677.0028.1671-.005.2561h0Z"/>
  </g>
  <g>
    <path class="cls-2" d="M.7122.3001l.0016-.1387s.0201-.0117.0184-.0067-.0067.1387-.0017.1404-.0183.005-.0183.005Z"/>
    <path class="cls-2" d="M.7115.3008c-.0078-.0403-.0063-.0978.0001-.1433.0391-.0246.0276.041.0281.063-.0095.018.0094.0746-.0282.0803h0ZM.7128.2993c.0355.0075.0028-.0417.0101-.0705l.0006-.0506c-.0025-.0254.0135-.0252-.0074-.013.0054.0274.0053.0861-.0033.1342h0Z"/>
  </g>
</svg>