<?xml version="1.0" encoding="UTF-8"?>
<svg id="Capa_1" data-name="Capa 1" xmlns="http://www.w3.org/2000/svg" version="1.1" viewBox="0 0 1 1">
  <defs>
    <style>
      .cls-1 {
        fill: #d54122;
      }

      .cls-1, .cls-2 {
        stroke: #000;
        stroke-miterlimit: 10;
        stroke-width: .01px;
      }

      .cls-2 {
        fill: #000;
      }
    </style>
  </defs>
  <path class="cls-1" d="M.894.313c0-.05,0-.101,0-.151-.015,0-.029,0-.044,0-.065,0-.13,0-.195,0-.008,0-.016,0-.024,0-.004,0-.007.002-.011,0-.002,0-.003,0-.004,0-.005.002-.011.005-.016.009l-.003.003s0,.001-.001.002c-.001,0-.002.002-.002.003-.012.02-.023.04-.035.06,0,.001-.001.003-.003.004,0,0-.001.002-.002.003,0,.002-.002.004-.003.005,0,0-.001.002-.002.003-.007.013-.014.025-.022.038-.001.001-.002.003-.003.005-.003.006-.006.012-.011.018-.001.002-.002.003-.003.005,0,0,0,.001-.001.002-.002.002-.003.005-.004.008,0,0,0,.001-.001.002-.001.002-.002.003-.003.005,0,0-.001.002-.002.002h0c-.005.007-.01.015-.013.023,0,0,0,0-.001.001-.011.019-.023.038-.034.058-.016.027-.032.055-.047.082-.012.021-.024.041-.036.062-.011.019-.022.037-.037.053-.021.023-.047.042-.075.056-.022.01-.045.017-.069.02-.012.002-.024.002-.036.002-.03,0-.059,0-.089,0-.006,0-.012.001-.017.004-.016.008-.024.02-.024.038,0,.043,0,.087,0,.13,0,.01.004.018.01.025.009.01.021.015.034.015.03,0,.061,0,.091,0,.025,0,.049-.001.074-.005.019-.003.038-.007.056-.012.019-.005.037-.012.054-.02.025-.011.049-.025.072-.041.025-.018.048-.039.069-.062.007-.008.015-.015.02-.025,0,0,.002-.002.002-.003.001-.002.002-.003.003-.004.001-.001.002-.003.003-.004.002-.003.003-.006.006-.008,0,0,0-.001.001-.002.004-.006.007-.012.011-.018.007-.01.012-.021.018-.031,0-.001.002-.003.003-.004,0,0,0-.002.001-.003.002-.004.004-.008.007-.011,0,0,.001-.002.002-.003.005-.01.011-.019.016-.028.01-.017.019-.034.029-.051.006-.01.012-.02.018-.029,0,0,0-.001.001-.002.002-.005.006-.01.009-.015,0,0,0-.002.001-.002.003-.006.006-.011.009-.016,0,0,0-.001.001-.002.02-.034.04-.069.06-.103.002,0,.002-.002.002-.004.003-.006.007-.013.011-.018,0,0,.001-.002.002-.003,0-.002.001-.003.002-.004.006,0,.012,0,.018,0,.002,0,.005-.001.007-.001.025,0,.049,0,.074,0,.002,0,.004-.001.005.002,0,0,.001,0,.002,0,0,0,0,0,.001,0,.022,0,.043,0,.065,0,0,0,0,0,0,0,0-.02,0-.04,0-.06Z"/>
  <path class="cls-2" d="M.733.161q.006,0,.006-.006c0-.026,0-.051,0-.077,0-.012.004-.023.012-.031.021-.022.058-.015.07.013.003.007.003.014.003.021,0,.025,0,.05,0,.075,0,.005.001.006.006.006"/>
  <path class="cls-1" d="M.851.162"/>
  <path class="cls-1" d="M.559.653c.005-.01.011-.019.016-.028.01-.017.019-.034.029-.051.006-.01.012-.02.018-.029-.004.009-.009.016-.013.024-.015.027-.031.054-.046.08,0,.002-.002.004-.003.005Z"/>
  <path class="cls-1" d="M.517.723c.004-.006.007-.012.011-.018.007-.01.012-.021.018-.031,0-.001.002-.003.003-.004-.003.008-.008.015-.012.022-.006.01-.012.02-.018.03,0,0,0,.001-.002.001Z"/>
  <path class="cls-1" d="M.524.298c-.003.006-.006.012-.011.018.003-.006.006-.012.011-.018Z"/>
  <path class="cls-1" d="M.551.667s.004-.008.007-.011c-.002.004-.003.008-.007.011Z"/>
  <path class="cls-1" d="M.51.733s.003-.006.006-.008c-.001.003-.003.006-.006.008Z"/>
  <path class="cls-1" d="M.504.742s.001-.003.003-.004c0,.002-.001.004-.003.004Z"/>
  <polygon class="cls-1" points=".502 .337 .5 .339 .5 .339 .502 .337"/>
  <path class="cls-1" d="M.487.362s0,0-.001.001c0-.001,0-.001.001-.001Z"/>
  <path class="cls-1" d="M.506.33s0,.001-.001.002c0-.001,0-.001.001-.002Z"/>
  <path class="cls-1" d="M.511.321s0,.001-.001.002c0-.001,0-.001.001-.002Z"/>
  <polygon class="cls-1" points=".829 .373 .829 .376 .828 .374 .829 .373"/>
  <path class="cls-2" d="M.978.118s0,.004,0,.006c0,.271,0,.542,0,.814,0,.002,0,.004,0,.006-.002,0-.001.002-.002.003-.003.024-.026.039-.049.034-.007-.002-.013-.006-.019-.01,0,0,0,0,0,0,0-.001,0-.002-.002-.002,0,0,0,0,0,0-.003-.006-.006-.011-.009-.017,0,0,0-.001,0-.002,0-.01-.001-.019,0-.029,0,0,0-.001,0-.002,0,0,0-.001,0-.002,0,0,0,0-.001-.001,0,0-.001,0-.002-.001-.006-.006-.012-.013-.019-.018,0,0,0,0,0,0,0,0,0,0-.001-.001,0,0,0,0,0,0-.003-.004-.006-.008-.01-.01,0,0,0,0,0,0,0-.002-.002-.003-.004-.004-.009-.009-.018-.017-.028-.026-.001-.001-.002-.003-.004-.002-.002,0-.002.003-.002.005,0,.004,0,.008,0,.012-.001.008-.006.014-.01.02,0,0,0,0,0,0,0,0-.002,0-.002,0-.012.011-.025.013-.041.009-.004,0-.007-.004-.011-.004,0,0,0,0,0,0,0-.001-.001-.002-.002-.002-.008-.007-.015-.016-.015-.028,0-.162,0-.324,0-.486,0-.005.001-.006.006-.006.026,0,.053,0,.079,0,0,0,.001,0,.002,0,0,.001,0,.002.002.002.004.003.008.006.011.011.002.003.005.007.009.008.003.002.006.004.007.007,0,0,0,.001.002.002.003.002.005.004.007.006,0,.001,0,.002.002.002h0s0,.002.002.002h0s0,.002.002.002c.002.001.004.003.005.005.002.003.004.006.008.007.003.002.005.004.007.006,0,0,0,.001.001.001h0s0,0,0,0c.004.003.003,0,.003-.002,0-.019,0-.038,0-.058,0-.001,0-.002,0-.003,0-.02,0-.04,0-.06,0-.05,0-.101,0-.151,0-.001,0-.003,0-.005,0-.014,0-.028,0-.042.001-.011.006-.019.014-.026.01-.008.022-.011.034-.009.014.003.024.011.029.025.002.004,0,.009.004.012ZM.893.62s.001-.004.001-.006c0-.017,0-.034,0-.052,0-.008-.002-.013-.008-.019-.02-.018-.039-.037-.059-.056,0,0-.002-.003-.003-.002-.002,0,0,.002,0,.004,0,.02,0,.039,0,.059,0,.003.001.006.004.008.018.017.037.035.055.052.004.003.007.007.011.01ZM.894.769c0-.007,0-.015,0-.022,0-.008,0-.015-.009-.019,0,0-.001-.001-.002-.002-.019-.018-.037-.036-.056-.053,0,0-.002-.003-.003-.002-.002,0,0,.002,0,.004,0,.015,0,.03,0,.046,0,.013.001.023.013.03,0,0,0,0,.001,0,.018.017.036.034.054.051,0,0,.002.002.003.002.001,0,0-.002,0-.003,0-.01,0-.021,0-.031Z"/>
</svg>