<?xml version="1.0" encoding="UTF-8"?>
<svg id="Capa_1" data-name="Capa 1" xmlns="http://www.w3.org/2000/svg" version="1.1" viewBox="0 0 2.8 1">
  <defs>
    <style>
      .cls-1 {
        fill: #000;
      }

      .cls-1, .cls-2, .cls-3, .cls-4 {
        stroke-width: 0px;
      }

      .cls-2 {
        fill: #0698bf;
      }

      .cls-3 {
        fill: #fcb342;
      }

      .cls-4 {
        fill: #fd7ab5;
      }
    </style>
  </defs>
  <g>
    <path class="cls-3" d="M.97.69s-.04-.03-.06-.06c-.04-.05-.04-.11-.02-.17,0-.02.02-.04.03-.06.01-.02.02-.03.04-.05.04-.04.08-.07.12-.09.02-.01.03-.03.03-.05,0,0,0,0,0-.01,0-.01.01-.02.02-.02.01,0,.03,0,.03.02,0,0,0,.01,0,.02,0,.02,0,.03.03.04.05.03.1.06.14.11.03.03.05.07.06.1,0,0,0,.02,0,.03,0-.05.03-.09.07-.13,0,0,0-.01.01-.01.04-.04.08-.07.12-.09.02,0,.03-.02.03-.04,0,0,0-.01,0-.02,0-.02.02-.03.03-.03.01,0,.02.02.02.03,0,.02,0,.04.03.06.05.03.1.06.14.11,0,.01.02.02.02.03,0,.02.02.03.03.05,0,.02.01.03.02.05v.05s0,.04-.02.06c-.02.03-.04.05-.07.07,0,0,0,0,0,0,0,0,0,0,0,0,0,0,0,0,0,0,0,0-.01,0-.02,0-.02,0-.03,0-.04,0,0-.01,0-.03,0-.04.02-.02.04-.03.05-.05.02-.02.03-.04.03-.06,0-.05-.02-.08-.05-.12-.04-.04-.08-.07-.12-.1-.02-.01-.04-.01-.06,0-.04.03-.08.05-.12.09-.02.02-.04.05-.04.08-.01.05,0,.09.03.12.01.01.03.03.04.04.01.01.02.03,0,.04,0,.01-.03.02-.04,0-.02-.01-.04-.03-.06-.04-.03-.03-.05-.06-.05-.1,0,.04-.02.07-.05.1-.02.02-.04.03-.06.05-.02,0-.03,0-.04,0,0-.01,0-.03,0-.04.02-.02.04-.03.05-.05.02-.02.02-.04.03-.06,0-.03,0-.06-.03-.09-.04-.06-.09-.09-.15-.13-.02-.01-.04,0-.06,0-.03.02-.06.04-.09.06-.03.02-.06.05-.07.09-.02.05-.02.1.03.14.02.01.03.03.04.04.01.01.01.03,0,.04-.01.01-.03.02-.04,0,0,0,0,0-.02,0,0,0,0,0,0,0,0,0,0,0,0,0Z"/>
    <path class="cls-2" d="M1.45.65s.03.03.06.04c.02,0,.03,0,.04,0,.01-.01,0-.03,0-.04-.01-.01-.03-.02-.04-.04-.04-.03-.04-.07-.03-.12,0-.03.02-.05.04-.08.03-.04.07-.07.12-.09.02-.01.04-.01.06,0,.04.03.09.06.12.1.03.03.05.07.05.12,0,.03,0,.05-.03.06-.02.02-.04.03-.05.05-.01.01-.02.03,0,.04.01.01.02.02.04,0,0,0,.01,0,.02,0,0,.02,0,.03-.01.05-.02.06-.04.11-.07.16-.03.05-.08.08-.14.09-.06,0-.11-.02-.14-.07-.02-.03-.03-.07-.03-.11,0-.05,0-.1.01-.15Z"/>
    <path class="cls-2" d="M.97.69s.01,0,.02,0c.01,0,.03,0,.04,0,0-.01,0-.03,0-.04-.01-.01-.03-.03-.04-.04-.04-.04-.04-.09-.03-.14.01-.04.04-.06.07-.09.03-.02.06-.04.09-.06.02-.01.04-.01.06,0,.06.03.11.07.15.13.02.03.03.06.03.09,0,.02,0,.05-.03.06-.02.02-.04.03-.05.05-.01.01-.02.03,0,.04.01.01.03.02.04,0,.02-.01.04-.03.06-.05,0,.02,0,.04,0,.06,0,.03,0,.07,0,.1,0,.06-.03.11-.08.15-.04.02-.08.02-.13.01-.05-.02-.09-.05-.12-.1-.03-.06-.05-.11-.07-.17,0,0,0,0,0,0Z"/>
    <path class="cls-2" d="M1.89.4s-.02-.02-.02-.03c-.04-.04-.08-.08-.14-.11-.02-.01-.03-.03-.03-.06,0-.02,0-.03-.02-.03-.02,0-.03.01-.03.03,0,0,0,.01,0,.02,0,.02-.02.03-.03.04-.04.02-.09.05-.12.09,0,0,0,0-.01.01,0-.04-.01-.08-.02-.13,0-.04-.01-.08,0-.11.02-.06.07-.1.13-.11.09,0,.17.02.24.09.03.03.05.08.06.12.01.05.01.11.01.16,0,0,0,0,0,0Z"/>
    <path class="cls-2" d="M1.33.37s-.09-.08-.14-.11c-.02,0-.02-.02-.03-.04,0,0,0-.01,0-.02,0-.01-.02-.02-.03-.02-.01,0-.02.01-.02.02,0,0,0,0,0,.01,0,.02-.01.04-.03.05-.04.02-.08.05-.12.09-.01.01-.03.03-.04.05,0-.06,0-.12.01-.18.03-.11.1-.17.2-.2.04-.01.09-.01.13,0,.05.02.08.06.09.11,0,.04,0,.07,0,.11,0,.04-.01.08-.02.13Z"/>
    <path class="cls-4" d="M.97.69s0,0,0,0c0,0,0,0,0,0Z"/>
    <path class="cls-4" d="M1.83.69s0,0,0,0c0,0,0,0,0,0Z"/>
  </g>
  <g>
    <path class="cls-1" d="M.96.69c-.1-.07-.12-.19-.05-.28.04-.09.18-.1.19-.2,0-.04.07-.03.06.01.05.1.22.14.23.29.05-.17.16-.17.23-.29-.01-.04.06-.06.06-.01.03.12.23.15.23.3.01.08-.04.14-.09.19,0,0,0,0,0,0,0,.03-.06.03-.07,0,0-.03.03-.05.04-.06.14-.11-.05-.29-.17-.3-.14.08-.25.22-.08.34,0,.08-.08.02-.11,0,0,0-.05-.1-.05-.1.02,0-.05.1-.05.1-.02.03-.11.09-.11,0,.03-.04.08-.07.09-.12,0-.11-.1-.16-.17-.22-.12,0-.31.21-.17.31.07.02.03.12-.03.06h0ZM.96.69c.06.05.09-.04.02-.06-.04-.03-.07-.08-.05-.13.17-.33.38-.1.39.05-.01.05-.05.08-.09.12,0,.07.07.02.1-.01,0,0,.05-.1.05-.1,0,0,0,0,0,0,0,0,.05.1.05.1.03.03.1.08.1.01-.17-.11-.05-.27.08-.35.13,0,.32.2.18.31-.06.02-.04.1.02.06h0s0,0,0,0c.05-.05.1-.11.09-.18,0-.15-.2-.18-.23-.3,0-.04-.06-.02-.05.01-.09.14-.15.08-.24.29-.03-.15-.18-.18-.23-.29.01-.04-.05-.05-.05-.01,0,.1-.15.11-.19.2-.07.1-.05.22.05.28h0Z"/>
    <path class="cls-1" d="M1.45.65s.11.09.1,0c-.03-.04-.08-.06-.09-.12,0-.11.09-.17.17-.23.13,0,.32.2.18.31-.07.03-.03.11.03.05-.07.4-.46.43-.39-.03h0ZM1.45.65c-.02.12-.02.32.14.33.16.01.19-.2.24-.29-.07.05-.09-.04-.03-.07.14-.11-.05-.29-.17-.3-.08.06-.18.12-.17.22,0,.05.06.08.09.12,0,.08-.08.02-.1,0h0Z"/>
    <path class="cls-1" d="M.97.69c.06.05.08-.05.02-.06-.04-.03-.06-.08-.05-.13.17-.33.38-.09.4.05-.01.05-.06.09-.09.12,0,.07.07.01.09-.02.11.41-.3.47-.38.04h0ZM.97.69c.09.41.45.39.38-.03-.02.03-.11.09-.11,0,.17-.13.04-.24-.08-.34-.12,0-.31.2-.17.3.06.02.04.12-.02.07h0Z"/>
    <path class="cls-1" d="M1.88.4c-.05-.09-.19-.11-.2-.22-.06-.03-.03.08-.09.09-.04.03-.09.06-.13.1,0,0,0,0,0,0-.15-.54.48-.42.42.03h0ZM1.88.4c.05-.44-.56-.57-.41-.03,0-.03.08-.07.12-.1.06-.01.03-.12.1-.09,0,.11.15.13.2.22h0Z"/>
    <path class="cls-1" d="M1.33.37l-.12-.09c-.06,0-.03-.12-.09-.09,0,.11-.16.13-.2.22v.02c0-.09-.02-.19.03-.27.06-.14.35-.21.41-.03,0,.08,0,.17-.02.25h0ZM1.33.37c.03-.16.05-.38-.18-.34-.22.02-.21.23-.24.37.05-.1.2-.1.2-.22.07-.03.03.09.09.09l.12.09h0Z"/>
    <path class="cls-1" d="M.96.69h0s0,0,0,0c0,0,0,0,0,0ZM.96.69s.01,0,0,0h0Z"/>
    <path class="cls-1" d="M1.83.69h0s0,0,0,0c0,0,0,0,0,0ZM1.83.69s-.01,0,0,0h0Z"/>
  </g>
</svg>