<?xml version="1.0" encoding="UTF-8"?>
<svg id="Capa_1" data-name="Capa 1" xmlns="http://www.w3.org/2000/svg" version="1.1" viewBox="0 0 1.07 1.01">
  <defs>
    <style>
      .cls-1 {
        fill: #0caaba;
      }

      .cls-1, .cls-2, .cls-3, .cls-4, .cls-5, .cls-6 {
        stroke-width: 0px;
      }

      .cls-2 {
        fill: #feb948;
      }

      .cls-3 {
        fill: #aa0b1a;
      }

      .cls-4 {
        fill: #000;
      }

      .cls-5 {
        fill: #fe9a43;
      }

      .cls-6 {
        fill: #e83a43;
      }
    </style>
  </defs>
  <g>
    <path class="cls-2" d="M.08.44s0-.02.01-.03c.06-.13.16-.22.29-.27.05-.02.09-.03.14-.03,0,0,0,0,0,0-.02,0-.03,0-.05.02-.03.02-.06.05-.08.08-.05.07-.07.15-.09.24h0c-.08,0-.16,0-.24,0h0Z"/>
    <path class="cls-3" d="M.63.12c.1.02.18.06.26.12.06.05.1.12.13.19,0,0,0,0,0,0v.03s0,0,0,0c0,.02-.03.04-.05.04-.04,0-.08,0-.12,0-.03,0-.05-.02-.05-.05,0,0,0-.01,0-.02.06,0,.11,0,.17,0,.01,0,.01,0,0-.01-.01-.03-.02-.06-.04-.09-.02-.04-.04-.07-.07-.1-.02-.02-.04-.04-.06-.05-.04-.03-.08-.05-.12-.06-.01,0-.02,0-.03-.01Z"/>
    <path class="cls-1" d="M.58.51c0,.15,0,.3,0,.45,0,0,0,.01,0,.02h-.04s0-.01,0-.02c0-.11,0-.22,0-.33,0-.04,0-.08,0-.12,0,0,.02-.01.02-.02,0,0,0-.01,0-.02,0,.02.01.03.03.04Z"/>
    <path class="cls-5" d="M.08.45c.08,0,.16,0,.24,0,0,0,0,.01,0,.02,0,0,0,0,0,0,0,.02-.03.04-.06.04-.04,0-.08,0-.12,0-.03,0-.05-.02-.06-.04,0,0,0,0,0,0v-.02Z"/>
    <path class="cls-1" d="M.53.11s0,0,0,0c0-.02,0-.03,0-.05,0-.02,0-.03.02-.03h.01s.02.02.02.04c0,.02,0,.03,0,.05,0,0,0,0,0,0-.01,0-.03,0-.04,0,0,0,0,0,0,0Z"/>
    <path class="cls-3" d="M.31.47s0-.01,0-.02c0,0,0,0,0,0,.08,0,.16,0,.24,0,0,0,0,.01,0,.02,0,0,0,.01,0,.02,0,0-.01.02-.02.02-.01,0-.02,0-.04,0-.04,0-.07,0-.11,0-.03,0-.05-.02-.06-.05Z"/>
    <path class="cls-5" d="M.55.47s0-.01,0-.02h0c.08,0,.16,0,.24,0h0s0,.01,0,.02c0,0,0,0,0,0,0,.02-.03.04-.05.04-.04,0-.08,0-.12,0,0,0-.02,0-.03,0-.01,0-.02-.02-.03-.04Z"/>
    <path class="cls-6" d="M.57.11s0,0,0,0c.02,0,.04,0,.06,0,0,0,.02,0,.03.01.04.01.09.04.12.06.02.02.04.03.06.05.03.03.05.06.07.1.02.03.03.06.04.09,0,.01,0,.01,0,.01-.06,0-.11,0-.17,0,0,0,0,0,0,0,0-.03-.01-.05-.02-.08-.02-.06-.04-.12-.08-.17-.02-.03-.05-.06-.09-.08,0,0-.02,0-.02,0Z"/>
    <path class="cls-6" d="M.55.45c-.08,0-.16,0-.24,0,.02-.09.04-.17.09-.24.02-.03.05-.06.08-.08.01,0,.03-.01.05-.02,0,0,0,0,0,0t.02.02c0,.1,0,.2,0,.31,0,0,0,0,0,.01h0Z"/>
    <path class="cls-2" d="M.55.45s0,0,0-.01c0-.1,0-.2,0-.31t-.02-.02s.03,0,.04,0c0,0,.01,0,.02,0,.04.02.07.04.09.08.04.05.06.11.08.17,0,.03.01.05.02.08-.08,0-.16,0-.24,0Z"/>
  </g>
  <g>
    <path class="cls-4" d="M.08.44C.15.18.54.04.53.13c-.13.03-.17.22-.21.32-.07,0-.17,0-.24,0H.08ZM.08.44c.06.01.19-.01.23,0,.05-.11.07-.31.22-.35,0,0,0,.03,0,.03-.18,0-.37.13-.44.32H.08Z"/>
    <path class="cls-4" d="M.63.12c.19.02.35.19.4.35,0,.02-.03.05-.06.05-.06,0-.2.03-.19-.08,0,0,0,0,0,0h.17c-.03-.14-.17-.28-.32-.32h0ZM.63.12c.14.04.33.17.32.33,0,0-.17,0-.17,0,.02-.02,0,.07.11.05.06,0,.14,0,.12-.06-.07-.13-.2-.31-.38-.32h0Z"/>
    <path class="cls-4" d="M.58.51c0,.08,0,.27,0,.35,0,.04.03.14-.05.13-.01,0-.02-.02-.02-.03,0,0,0-.45,0-.45.04-.04.02-.05.06,0h0ZM.58.51l-.03-.04s-.02.03-.03.04c0,0,0,.45,0,.45,0,0,0,0,0,.01-.02,0,.05,0,.03,0,.02-.11,0-.33.02-.46h0Z"/>
    <path class="cls-4" d="M.08.45s.25-.03.25,0c0,0,0,.02,0,.02,0,0-.03.02,0,.01-.03.06-.1.04-.13.04-.05,0-.13,0-.11-.07H.08ZM.08.45c0,.07.07.06.11.06.08,0,.08,0,.12-.05-.02.02-.01.02-.01,0,.07.03-.23,0-.22,0H.08Z"/>
    <path class="cls-4" d="M.53.11s-.03-.08,0-.1c.07-.02.05.08.04.1,0,0-.04,0-.05,0h0ZM.53.11s.06-.01.04,0c0-.1-.05-.1-.05,0,0,0,0,0,0,0h0Z"/>
    <path class="cls-4" d="M.32.47s0-.02,0-.02c0,0,.24-.01.24-.01.03.03,0,.06-.02.08-.07,0-.19.03-.21-.05H.32ZM.32.47c.03.08.14.03.2.03,0,0,.02-.02.02-.04,0,.03,0,0,0-.01.07.03-.23,0-.22,0,0,0,0,.02,0,.02H.32Z"/>
    <path class="cls-4" d="M.55.47s0-.02,0-.02c0,0,.24-.01.23-.01.02.02.02.03,0,.05.02,0-.02.04-.03.04-.07,0-.18.02-.2-.05h0ZM.55.47s.03.04.03.04c.05,0,.12,0,.17,0,.02-.01,0,0,.04-.05-.02.02-.01.02-.01,0,0,0,.02.02.01.02,0,0-.24-.01-.24-.01,0,0,0,.02,0,.02h0Z"/>
    <path class="cls-4" d="M.58.11c.17.01.4.17.38.34,0,0-.17,0-.17,0-.04-.12-.08-.28-.21-.34h0ZM.58.11c.12.05.22.24.21.33,0,0,.17,0,.17,0-.04-.15-.21-.32-.38-.33h0Z"/>
    <path class="cls-4" d="M.55.45s-.24.02-.24,0c0,0,.07-.2.07-.2.02-.07.09-.13.16-.14.04.02.01.06.02.08,0,.05,0,.2,0,.26h0ZM.55.45c0-.05,0-.32-.01-.33-.13.02-.17.23-.22.33-.03-.01.24,0,.23,0h0Z"/>
    <path class="cls-4" d="M.55.45c0-.09,0-.27-.02-.34.16,0,.24.21.25.35,0,0-.24,0-.24,0h0ZM.55.45h.24c-.04-.11-.1-.32-.25-.33.03-.08.01.3.01.33h0Z"/>
  </g>
</svg>