<svg id="Capa_1" data-name="Capa 1" xmlns="http://www.w3.org/2000/svg" version="1.1" viewBox="0 0 1 1"><defs><style>.cls-1{fill:#feb948}.cls-1,.cls-2,.cls-3,.cls-4,.cls-5,.cls-8{stroke-width:0}.cls-2{fill:#fe3a2f}.cls-3{fill:#b5f0fa}.cls-4{fill:#000}.cls-5{fill:#da2116}.cls-8{fill:#fe9942}</style></defs><path class="cls-5" d="M.601.115a.513.513 0 0 1 .382.328v.004S.978.45.974.45H.925L.919.438A.503.503 0 0 0 .81.251a.43.43 0 0 0-.2-.126L.598.121S.595.119.598.117h.003V.115z"/><path class="cls-4" d="M.601.115c.175.031.33.164.387.332C.99.452.98.453.977.454c-.002 0-.053.002-.055 0C.857.307.75.16.601.115zm0 0c.148.041.261.183.327.331C.916.444.978.445.976.444.956.331.773.135.601.115z"/><path class="cls-3" d="M.508.017c.016.007.023.018.021.036v.042s0 .007.002.01c0 .002-.003.002-.004.002-.013 0-.027-.002-.04 0H.479S.475.107.473.104V.052c0-.017.006-.029.021-.035h.015-.001z"/><path class="cls-4" d="M.508.017c.037.011.017.062.026.088C.505.114.496.116.469.106.471.077.457.011.508.016v.001zm0 0C.46.015.48.073.477.104.475.099.479.104.486.102.496.104.523.1.527.107.517.075.544.035.507.017h.001z"/><path d="M.925.446h.058v.019a.066.066 0 0 1-.02.034.05.05 0 0 1-.031.013H.883S.887.506.89.505A.057.057 0 0 0 .922.454c0-.003 0-.006.003-.009v.001z" style="fill:#a31910;stroke-width:0"/><path class="cls-4" d="M.925.446s.06-.005.06 0C.994.502.924.531.88.512.902.496.923.474.925.446zm0 0c0 .019-.016.066-.042.063C.925.513.985.5.981.446c.01.005-.058-.001-.056 0z"/><path class="cls-1" d="M.473.105h.006S.475.109.473.109a.191.191 0 0 0-.098.065.495.495 0 0 0-.093.188C.275.386.27.41.265.434c0 .004 0 .009-.005.012H.036C.03.446.025.446.02.443A.511.511 0 0 1 .474.102v.002H.473v.001z"/><path class="cls-4" d="M.473.105C.365.159.293.319.262.449.179.449.1.455.013.447a.516.516 0 0 1 .46-.342zm0 0C.27.108.088.272.023.439.094.436.205.456.262.434.288.305.371.156.473.105z"/><path class="cls-3" d="M.531.507C.528.658.531.81.529.961c0 .016-.004.02-.02.02H.49C.477.981.472.976.472.963V.507h.003c.003.006.002.012.002.018v.03c0 .008.002.009.009.006.002 0 .004 0 .006-.002.007-.004.013-.003.021 0 .015.007.015.006.015-.01v-.03s0-.008.002-.011h.003-.002V.507z"/><path class="cls-4" d="M.531.507c-.014.102.037.44-.03.478C.434.938.483.83.469.755.473.753.464.5.475.505.486.521.468.559.486.56.489.557.509.558.513.558.542.572.518.521.531.507zm0 0C.518.521.545.572.513.56.456.567.482.543.475.509.471.496.477.757.475.756.486.827.453.948.5.978.557.922.515.613.53.508L.531.507z"/><path class="cls-8" d="M.531.507H.529C.52.507.516.499.511.493.504.485.501.475.498.465.498.458.496.451.501.446.505.444.509.444.513.444h.228s.002 0 .003.003c0 .007.003.015-.002.021L.739.475a.06.06 0 0 1-.055.04H.559A.068.068 0 0 1 .531.508V.507z"/><path class="cls-4" d="M.531.507C.508.498.491.469.501.445.559.452.761.41.746.471.722.545.596.518.532.508L.531.507zm0 0c.062.008.21.036.209-.06C.693.464.408.401.531.507z"/><path class="cls-5" d="M.501.446v.021a.046.046 0 0 1-.028.039H.471a.094.094 0 0 1-.037.007H.326C.293.513.275.501.263.471L.261.467a.02.02 0 0 1 0-.021L.273.443h.216S.497.443.5.445l.001.001z"/><path class="cls-4" d="M.501.446C.505.469.497.501.471.507.403.51.289.546.256.469.227.414.428.446.5.446h.001zm0 0C.448.45.263.428.265.464c.03.075.138.04.205.04C.495.499.503.469.501.445v.001z"/><g><path class="cls-8" d="M.26.446v.021L.257.474a.06.06 0 0 1-.055.04H.077A.059.059 0 0 1 .019.447H.26V.446z"/><path class="cls-4" d="M.26.446C.269.524.179.518.129.517.085.526.004.516.014.447.011.436.255.45.259.447H.26V.446zm0 0S0 .457.023.448C.017.507.08.517.129.511.18.513.266.524.26.446z"/></g><g><path class="cls-5" d="M.742.467V.446L.755.443h.157s.009 0 .012.003a.063.063 0 0 1-.039.066h.047-.127C.774.512.755.499.744.47.744.468.742.467.741.465v.002h.001z"/><path class="cls-4" d="M.742.467C.736.423.873.441.928.446.939.467.893.537.886.507 1.04.501.759.554.743.467H.742zm0 0C.775.548.9.487.973.515L.885.517C.827.519.931.509.92.446.885.458.738.417.742.467z"/></g><g><path class="cls-2" d="M.924.446H.742V.444L.737.428A.712.712 0 0 0 .695.287.383.383 0 0 0 .608.153.166.166 0 0 0 .531.109c-.002 0-.005 0-.007-.003s0-.003.003-.002h.004a.407.407 0 0 1 .07.012.467.467 0 0 1 .258.19.5.5 0 0 1 .066.14H.924z"/><path class="cls-4" d="M.924.446S.737.453.74.444C.703.321.657.163.53.114c0 0-.021 0-.002-.015C.703.11.87.267.924.446zm0 0C.862.27.706.111.525.109.657.131.71.328.743.446c-.008-.004.182.001.18 0h.001z"/></g><g><path class="cls-1" d="M.527.105C.535.106.543.11.551.113A.2.2 0 0 1 .63.172.52.52 0 0 1 .732.39l.011.053C.74.445.737.445.734.445H.502S.499.434.499.428v-.3c0-.011 0-.02-.012-.023a.14.14 0 0 1 .041 0H.527z"/><path class="cls-4" d="M.527.105c.133.051.181.214.22.337C.669.458.578.45.499.446.483.337.519.2.488.106a.267.267 0 0 1 .04 0L.527.105zm0 0h-.04c.03.056.008.238.015.337L.741.44C.703.337.66.154.527.105z"/></g><g><path class="cls-2" d="M.486.105c.01 0 .015.006.015.017v.325H.26A.621.621 0 0 1 .349.205.238.238 0 0 1 .43.125.164.164 0 0 1 .478.107h.007V.105h.001z"/><path class="cls-4" d="M.486.105C.52.122.495.388.504.447c0 .01-.241.001-.244.004C.256.451.252.453.256.446.304.335.341.129.486.105zm0 0C.338.124.312.362.26.443.258.445.516.439.498.447.49.387.52.124.486.105z"/></g><g><path d="M.472.506A.065.065 0 0 0 .5.467c.006.016.014.03.029.039v.051c0 .011 0 .013-.011.007C.506.557.495.558.483.564.473.569.472.568.472.557V.506z" style="fill:#6ee1f5;stroke-width:0"/><path class="cls-4" d="M.472.506S.498.462.502.467c.033.038.033.042.032.09C.53.586.495.557.476.569.463.548.474.526.472.506zm0 0c.001.019 0 .047.004.058C.487.553.537.568.524.557c0 .002 0-.061.003-.048L.498.468C.509.463.47.506.471.506h.001z"/></g></svg>