<svg id="Capa_1" data-name="Capa 1" xmlns="http://www.w3.org/2000/svg" version="1.1" viewBox="0 0 1.8 1"><defs><style>.cls-1,.cls-4{fill:#000;stroke-width:0}.cls-4{fill:#f59b40}</style></defs><path d="M.322.395C.375.372.432.359.488.345L.555.331c.008 0 .01-.004.011-.012L.587.158C.591.152.593.151.595.154.616.188.65.202.686.215L.675.298.651.49C.649.51.64.53.653.55A.279.279 0 0 1 .544.499C.54.529.536.556.534.583c0 .015.008.025.018.034a.186.186 0 0 0 .055.031.895.895 0 0 0 .524.02.266.266 0 0 0 .117-.053.038.038 0 0 0 .018-.037 2.141 2.141 0 0 0-.011-.079l-.004-.04-.016-.13c.098.016.194.041.286.081a.498.498 0 0 1 .175.115.169.169 0 0 1 .05.124.1.1 0 0 1-.008.038.244.244 0 0 1-.108.123l-.004.003h-.012a1.907 1.907 0 0 1-.475.08A2.031 2.031 0 0 1 .705.86 1.11 1.11 0 0 1 .447.783.498.498 0 0 1 .276.671.173.173 0 0 1 .224.557c0-.048.022-.086.052-.121C.289.421.307.412.318.395S.321.393.322.392v.002z" style="fill:#fab642;stroke-width:0"/><path class="cls-1" d="M.322.395C.519.313.574.409.586.157.609.16.64.205.687.215.679.313.647.459.652.552.657.551.529.5.546.5.477.675.74.662.839.691c.136-.026.469.027.412-.191l-.02-.17V.323l.005.002c.224.041.755.237.393.491C1.355.965-.137.909.322.395zm0 0C-.135.91 1.366.959 1.628.807 1.986.542 1.42.385 1.239.329c-.002.08.053.221.011.29C1.127.696.976.684.838.697.737.668.47.677.541.5L.544.499c0 .002.116.049.106.054C.638.457.677.317.683.217.649.217.608.169.586.161.561.216.604.329.522.34.453.354.387.378.32.397h.002z"/><path d="M.653.55C.64.531.649.51.651.49L.675.298.686.215a.758.758 0 0 0 .321.024c.05-.007.1-.017.146-.041.026-.014.051-.029.058-.062l.01.062.015.118V.33l.016.13.004.04a.282.282 0 0 1-.098.049.851.851 0 0 1-.188.033A1.06 1.06 0 0 1 .767.576C.732.571.698.562.664.557L.653.551z" style="fill:#fec675;stroke-width:0"/><path class="cls-1" d="M.653.55C.641.457.679.313.684.215c.166.023.437.073.529-.096.016.102.035.278.046.381C1.081.606.846.602.653.55zm0 0c.192.055.432.04.6-.05L1.232.33V.317c.004 0-.039-.198-.016-.179C1.112.292.841.25.688.216.682.314.642.457.653.551z"/><path class="cls-4" d="M.318.397C.307.414.289.423.276.438.246.473.223.511.224.559c0 .045.022.082.052.114a.503.503 0 0 0 .171.112c.083.036.17.06.258.077a2.216 2.216 0 0 0 .434.033 1.752 1.752 0 0 0 .475-.08h.012a.657.657 0 0 1-.157.078 1.45 1.45 0 0 1-.332.074A1.997 1.997 0 0 1 .828.98 1.59 1.59 0 0 1 .304.882a.526.526 0 0 1-.195-.12.166.166 0 0 1-.054-.124C.055.597.073.563.1.533A.5.5 0 0 1 .319.398z"/><path class="cls-1" d="M.318.397C.011.669.554.842.772.869c.3.042.605.018.894-.072C1.2 1.04.559 1.074.115.766-.056.617.17.427.317.396h.001zm0 0c-.148.032-.37.222-.2.368.43.298 1.05.263 1.505.045-.245.099-.576.098-.852.063C.553.845.008.667.318.396z"/><path class="cls-4" d="M1.21.137c-.006.033-.031.048-.058.062a.46.46 0 0 1-.146.041C.958.247.911.249.863.247A.627.627 0 0 1 .685.216C.65.203.616.189.594.155.592.152.591.153.586.159A.083.083 0 0 1 .631.078.405.405 0 0 1 .782.03a.754.754 0 0 1 .31.016.267.267 0 0 1 .089.041c.016.013.028.028.029.05z"/><path class="cls-1" d="M1.21.137C1.118.294.709.272.581.159.586.032.787.025.887.033c.112.012.266-.015.323.104zm0 0C1.151.019.998.048.887.038.789.032.599.041.591.159c.121.095.504.143.619-.022z"/><g><path class="cls-4" d="M.322.395.318.398.322.395z"/><path class="cls-1" d="M.322.395v.007C.313.385.32.403.322.395c0 0-.002.008 0 0zm0 0c0-.006.003.015-.008 0h.008z"/></g><g><path class="cls-4" d="M1.625.813 1.629.81l-.004.003z"/><path class="cls-1" d="M1.625.813V.806c.014.013 0 0 0 .007 0 0 0-.006 0 0zm0 0s-.008-.01.008 0h-.008z"/></g><g><path d="m.653.55.011.006c.007.014.02.019.033.025A.742.742 0 0 0 .979.64a1.128 1.128 0 0 0 .24-.022c.009-.002.019-.01.03-.002a.276.276 0 0 1-.117.053.892.892 0 0 1-.524-.02.186.186 0 0 1-.055-.031C.542.609.533.598.535.584L.545.5c.034.026.07.042.109.051z" style="fill:#78544a;stroke-width:0"/><path class="cls-1" d="M.653.55c.043.04.098.039.151.052a.978.978 0 0 0 .447.01C1.183.69.965.687.839.697L.631.655C.551.648.513.568.545.499L.652.55zm0 0S.54.5.546.5C.52.574.553.643.634.652c.195.046.434.057.613-.039A.871.871 0 0 1 .654.55z"/></g><g><path d="M1.248.616c-.01-.008-.021 0-.03.002a1.128 1.128 0 0 1-.24.022.738.738 0 0 1-.282-.059C.684.575.67.57.663.556.698.561.731.57.766.575a.918.918 0 0 0 .391-.027.274.274 0 0 0 .098-.049l.011.079c.002.016-.004.028-.018.037z" style="fill:#916658;stroke-width:0"/><path class="cls-1" d="M1.248.616A.975.975 0 0 1 .802.607C.751.591.689.601.651.55c.199.039.421.052.603-.051.002.036.03.09-.006.118zm0 0c.039-.027 0-.083.008-.116C1.078.603.859.599.663.561c.162.063.397.096.586.056z"/></g></svg>