<?xml version="1.0" encoding="UTF-8"?>
<svg id="Capa_1" data-name="Capa 1" xmlns="http://www.w3.org/2000/svg" version="1.1" viewBox="0 0 2.8 1">
  <defs>
    <style>
      .cls-1 {
        fill: #000;
      }

      .cls-1, .cls-2, .cls-3, .cls-4, .cls-5, .cls-6 {
        stroke-width: 0px;
      }

      .cls-2 {
        fill: #916658;
      }

      .cls-3 {
        fill: #fab642;
      }

      .cls-4 {
        fill: #f59b40;
      }

      .cls-5 {
        fill: #78544a;
      }

      .cls-6 {
        fill: #fec675;
      }
    </style>
  </defs>
  <g>
    <path class="cls-3" d="M1.71.34c.09.01.18.04.26.07.06.03.12.06.16.11.03.03.05.07.05.11,0,.01,0,.02,0,.03-.02.05-.05.09-.1.11,0,0,0,0,0,0,0,0,0,0,0,0,0,0,0,0-.01,0-.08.02-.16.04-.24.05-.07,0-.13.02-.2.02-.08,0-.16,0-.25,0-.05,0-.1-.01-.15-.02-.08-.02-.16-.04-.24-.07-.06-.03-.11-.06-.16-.1-.03-.03-.05-.06-.05-.1,0-.04.02-.08.05-.11.01-.01.03-.02.04-.04,0,0,0,0,0,0,0,0,0,0,0,0,.05-.02.1-.03.15-.05.02,0,.04,0,.06-.01,0,0,0,0,.01-.01,0-.05.01-.1.02-.15,0,0,0,0,0,0,.02.03.05.04.08.06,0,.03,0,.05,0,.08,0,.06-.02.12-.02.18,0,.02,0,.04,0,.05-.04,0-.07-.02-.1-.05,0,.03,0,.05,0,.08,0,.01,0,.02.02.03.01.01.03.02.05.03.07.03.15.04.23.04.09,0,.17,0,.25-.03.04-.01.08-.02.11-.05.01,0,.02-.02.02-.03,0-.02,0-.05,0-.07,0-.01,0-.02,0-.04,0-.04-.01-.08-.02-.12Z"/>
    <path class="cls-6" d="M1.71.34s.01.08.02.12c0,.01,0,.02,0,.04-.03.02-.06.04-.09.04-.06.02-.11.03-.17.03-.06,0-.12,0-.19,0-.03,0-.06-.01-.09-.02,0,0,0,0,0,0-.01-.02,0-.04,0-.05,0-.06.01-.12.02-.18,0-.03,0-.05,0-.08.05.02.11.03.16.03.04,0,.09,0,.13,0,.05,0,.09-.02.13-.04.02-.01.05-.03.05-.06,0,.02,0,.04,0,.06,0,.04,0,.07.01.11,0,0,0,0,0,.01Z"/>
    <path class="cls-4" d="M.87.4s-.03.02-.04.04c-.03.03-.05.07-.05.11,0,.04.02.07.05.1.04.05.1.08.16.1.08.03.16.06.24.07.05,0,.1.02.15.02.08,0,.16.01.25,0,.07,0,.13,0,.2-.02.08-.01.16-.03.24-.05,0,0,0,0,.01,0-.04.03-.09.05-.14.07-.1.04-.2.06-.3.07-.09.01-.19.02-.28.01-.16,0-.33-.03-.48-.09-.07-.03-.13-.06-.18-.11-.03-.03-.05-.07-.05-.11,0-.04.02-.07.04-.1.05-.06.12-.1.2-.12Z"/>
    <path class="cls-4" d="M1.68.16s-.03.04-.05.06c-.04.02-.09.03-.13.04-.04,0-.09,0-.13,0-.06,0-.11-.01-.16-.03-.03-.01-.06-.03-.08-.06,0,0,0,0,0,0,0-.03.01-.06.04-.07.04-.03.09-.04.14-.04.1-.01.19-.01.28.02.03,0,.06.02.08.04.01.01.03.03.03.05Z"/>
    <path class="cls-4" d="M.87.4s0,0,0,0c0,0,0,0,0,0Z"/>
    <path class="cls-4" d="M2.06.78s0,0,0,0c0,0,0,0,0,0Z"/>
    <path class="cls-5" d="M1.17.54s0,0,0,0c0,.01.02.02.03.02.08.04.17.05.26.05.03,0,.06,0,.09,0,.04,0,.09,0,.13-.02,0,0,.02,0,.03,0-.03.03-.07.04-.11.05-.08.02-.17.03-.25.03-.08,0-.15-.02-.23-.04-.02,0-.04-.02-.05-.03,0,0-.02-.02-.02-.03,0-.03,0-.05,0-.08.03.02.06.04.1.05Z"/>
    <path class="cls-2" d="M1.72.6s-.02,0-.03,0c-.04,0-.09.01-.13.02-.03,0-.06,0-.09,0-.09,0-.18-.01-.26-.05-.01,0-.02-.01-.03-.02.03,0,.06.01.09.02.06,0,.12.01.19,0,.06,0,.12-.01.17-.03.03,0,.06-.02.09-.04,0,.02,0,.05,0,.07,0,.01,0,.03-.02.03Z"/>
  </g>
  <g>
    <path class="cls-1" d="M1.71.34c.2.03.68.22.36.44-.26.13-1.61.09-1.2-.39.01,0,.02-.01,0,0,0,0-.01,0,0,0,.06-.02.12-.04.19-.05.07,0,.03-.11.05-.16.03-.01.06.04.09.05,0,.09-.04.23-.03.32,0,0,0,0,0,0,0,0-.12-.05-.1-.05-.02.07,0,.13.08.14.18.04.4.06.56-.03.04-.06-.01-.18-.01-.26h0ZM1.71.34c0,.08.05.2.01.26-.17.09-.39.08-.57.04-.07,0-.11-.08-.08-.14,0,0,.1.05.1.04-.02-.03,0-.11,0-.15,0,0,.02-.17.02-.15,0,0-.05-.03-.05-.03-.01,0-.04-.03-.04-.02,0,0-.01.1-.01.1,0,.12-.18.08-.25.14,0,0,0-.02,0-.02,0,0,0,0,0,0-.28.25.22.4.41.43.26.04.53.02.79-.05.31-.23-.16-.4-.36-.44h0Z"/>
    <path class="cls-1" d="M1.71.34l.02.16c-.16.1-.36.09-.54.06-.04-.04,0-.11,0-.16,0,0,.02-.15.02-.15h0s0,0,0,0c.15.03.38.07.48-.07.01.05.02.12.02.18h0ZM1.71.34c0-.06-.02-.12-.02-.18-.04.08-.15.08-.23.1-.08,0-.2,0-.25-.03,0,0-.02.15-.02.15,0,.05-.03.13,0,.15.18.04.38.04.54-.05,0,0-.02-.16-.02-.16h0Z"/>
    <path class="cls-1" d="M.87.4c-.28.25.22.41.42.43.24.06.66-.03.78-.05C1.71,1.1-.01.83.87.4h0ZM.87.4c-.74.35.43.59.74.52.15-.03.33-.08.46-.13-.25.13-1.61.09-1.2-.39h0Z"/>
    <path class="cls-1" d="M1.68.16c-.07.14-.47.12-.58.02,0-.12.19-.12.28-.12.1.01.24-.01.3.1h0ZM1.68.16c-.05-.11-.19-.08-.3-.09-.09,0-.26,0-.27.11.12.09.5.12.57-.02h0Z"/>
    <path class="cls-1" d="M.87.4h0s0,0,0,0h0ZM.87.4s0,.01,0,0h0Z"/>
    <path class="cls-1" d="M2.06.78h0s0,0,0,0h0ZM2.06.78s0-.01,0,0h0Z"/>
    <path class="cls-1" d="M1.17.54s.09.04.14.05c.14.04.28.03.42,0-.17.1-.39.08-.58.04-.07,0-.11-.08-.08-.14,0,0,.1.05.1.05h0ZM1.17.54s-.1-.05-.1-.05c-.08.24.53.18.64.1-.15.05-.4.02-.54-.06h0Z"/>
    <path class="cls-1" d="M1.72.6c-.13.02-.28.03-.41,0-.05-.01-.1,0-.14-.05.18.04.39.05.55-.05,0,.03.02.08,0,.11h0ZM1.72.6s0-.07,0-.11c-.16.1-.36.09-.54.06.15.05.36.09.54.05h0Z"/>
  </g>
  <path class="cls-1" d="M1.1.32c0,.06,0,.12-.02.18,0-.06,0-.12.02-.18,0,0-.01.06,0,0Z"/>
</svg>