<?xml version="1.0" encoding="UTF-8"?>
<svg id="Capa_1" data-name="Capa 1" xmlns="http://www.w3.org/2000/svg" version="1.1" viewBox="0 0 2.8 1">
  <defs>
    <style>
      .cls-1 {
        fill: #f5d090;
      }

      .cls-1, .cls-2, .cls-3, .cls-4, .cls-5, .cls-6 {
        stroke-width: 0px;
      }

      .cls-2 {
        fill: #ebbd83;
      }

      .cls-3 {
        fill: #d9d7da;
      }

      .cls-4 {
        fill: #000;
      }

      .cls-5 {
        fill: #b6b1b7;
      }

      .cls-6 {
        fill: #c8c5c9;
      }
    </style>
  </defs>
  <g>
    <path class="cls-3" d="M2.65.67s-.05,0-.08,0c-.09.01-.17.02-.26.04-.07.01-.15.02-.22.03-.05,0-.09.02-.14,0-.05-.01-.08-.04-.11-.08-.03-.04-.06-.07-.12-.07-.04,0-.09,0-.13,0-.04,0-.08,0-.11,0,0,0,0-.01,0-.02,0-.03,0-.05,0-.08h0c.09,0,.18,0,.27-.01.01,0,.02,0,.03-.01.04-.02.06-.05.07-.08.02-.04.06-.07.1-.09.02,0,.03-.01.05,0-.01.01-.02.02-.02.04,0,.02.01.03.04.03.03,0,.06,0,.1,0,.08,0,.17,0,.25,0,.08,0,.16,0,.24,0,.02,0,.03.02.03.03,0,.01-.01.03-.03.03-.06,0-.12,0-.18,0-.03,0-.06,0-.09,0-.08,0-.16,0-.24,0-.03,0-.05,0-.08,0-.02,0-.03.02-.03.04,0,.01,0,.02,0,.03,0,.02.02.04.04.04.05,0,.1-.01.16-.01.11,0,.21-.02.32-.02.03,0,.06,0,.09,0,.03,0,.05.02.04.05,0,.01-.01.01-.02.02-.03,0-.06,0-.08,0-.06,0-.12,0-.18.01-.11,0-.22.02-.32.03-.03,0-.04.02-.04.04,0,.02.02.03.04.03.05,0,.1-.01.15-.02.08-.01.15-.02.23-.03.06,0,.12-.02.18-.03.04,0,.04,0,.05.04l-.02.02Z"/>
    <path class="cls-1" d="M1.36.62s0,0-.01,0c-.1,0-.2.01-.3.02-.12,0-.23.01-.35.02-.09,0-.17.01-.26.02-.02,0-.04,0-.06.02-.06.03-.11.04-.17,0,0,0,0,0,0,0l-.04-.04s-.03-.06-.03-.09c.01,0,.02-.01.02-.02.04-.05.13-.07.18-.04.01,0,.02,0,.04.01.05,0,.1,0,.15,0,.08,0,.15,0,.23,0,.08,0,.16,0,.24,0,.07,0,.13,0,.2,0,0,0,.01,0,.02,0,.05,0,.1,0,.15,0,0,0,0,0,0,0,0,.04,0,.07,0,.11Z"/>
    <path class="cls-2" d="M1.35.51s-.1,0-.15,0c0,0-.01,0-.02,0-.07,0-.13,0-.2,0-.08,0-.16,0-.24,0-.08,0-.15,0-.23,0-.05,0-.1,0-.15,0-.01,0-.03,0-.04-.01-.06-.03-.14-.02-.18.04,0,0-.01.02-.02.02,0-.03.01-.06.02-.08l.04-.04s.04-.02.06-.03c.03,0,.06,0,.09.01.02.01.05.02.08.02.12,0,.23,0,.35,0,.16,0,.31,0,.47,0,.03,0,.06,0,.09,0,0,.03,0,.06,0,.08Z"/>
    <path class="cls-6" d="M2.01.31s-.03,0-.05,0c-.04.02-.08.05-.1.09-.02.03-.04.07-.07.08-.01,0-.02,0-.03.01-.09,0-.18,0-.27,0,0-.01,0-.03,0-.04,0-.01,0-.03,0-.04.04,0,.09,0,.13,0,.04,0,.09,0,.13,0,.04,0,.07-.03.09-.07.03-.06.07-.09.13-.1.04,0,.08,0,.12,0,.09,0,.19.01.28.02.09,0,.17.01.26.02.02,0,.03.01.03.03,0,.02-.01.03-.03.03-.05,0-.1,0-.15,0-.1,0-.19-.01-.29-.02-.04,0-.08,0-.12,0-.02,0-.03,0-.05,0Z"/>
    <path class="cls-5" d="M1.47.43s0,.03,0,.04c0,.01,0,.03,0,.04,0,0,0,0,0,0-.04,0-.08,0-.12,0,0,0,0,0,0,0,0-.03,0-.06,0-.08.04,0,.08,0,.12,0Z"/>
    <path class="cls-6" d="M1.35.52s.08,0,.12,0c0,.03,0,.05,0,.08,0,0,0,.01,0,.02,0,0-.02,0-.03,0-.03,0-.06,0-.1,0,0-.04,0-.07,0-.11Z"/>
  </g>
  <g>
    <path class="cls-4" d="M2.65.67c-.28,0-.67.23-.86-.05-.14-.05-.36.09-.31-.11.1,0,.21,0,.3-.02.08-.05.1-.2.23-.19-.1.12.27.05.36.07,0,0,.22,0,.22,0,.05-.02.08.06.02.07-.07,0-.47,0-.55,0-.1-.03-.08.15.01.1l.22-.02c.08,0,.26-.02.33-.02.05.02,0,.08-.03.07l-.44.04c-.05,0-.21,0-.12.08.11-.01.33-.04.44-.06.06.01.17-.07.19.02,0,0-.02.02-.02.02h0ZM2.65.67s.02-.02.02-.02c-.02-.09-.13-.01-.19-.02l-.22.03-.22.03c-.09-.08.08-.08.12-.08l.44-.04c.09,0,.07-.09-.08-.05-.11,0-.33.03-.44.04-.09.06-.12-.15-.01-.11.08,0,.48,0,.55,0,.04,0,.02-.07-.02-.05h-.22c-.06-.01-.48.05-.37-.07-.12,0-.14.13-.22.18-.1.02-.21.01-.3.01-.04.19.15.04.31.1.2.28.58.05.86.06h0Z"/>
    <path class="cls-4" d="M1.36.62c-.19.01-.68.05-.87.06-.09,0-.19.09-.28.02,0,0-.04-.04-.04-.04,0,0-.04-.1-.02-.1.06-.11.19-.06.28-.04h.31s.62-.01.62-.01c0,0,0,.11,0,.11h0ZM1.36.62s0-.11,0-.11c0,0-.62.02-.62.02h-.31c-.1-.01-.21-.06-.28.05,0-.02.03.09.03.09,0,0,.04.04.04.04.08.06.18-.02.28-.02.18-.01.68-.04.87-.06h0Z"/>
    <path class="cls-4" d="M1.35.51c-.21,0-.73.02-.93.02-.11-.02-.22-.06-.29.06,0-.01.02-.09.02-.1.07-.14.22-.04.33-.05,0,0,.29,0,.29,0h.58s0,.08,0,.08h0ZM1.35.51s0-.08,0-.08c-.19,0-.68.01-.87.02-.1.01-.2-.06-.28,0,0,0-.04.05-.04.04,0,0-.02.08-.02.08.03-.11.2-.06.28-.05.2,0,.73,0,.93-.01h0Z"/>
    <path class="cls-4" d="M2.01.31c-.12,0-.14.13-.23.19-.1.02-.21.01-.31.01,0,0-.01-.08-.01-.08.12-.03.33.05.37-.12.02-.05.07-.07.12-.07.23,0,.45.02.68.04.04.08-.08.05-.12.05-.17,0-.35-.03-.51-.03h0ZM2.01.31c.16,0,.35.02.51.02.04,0,.15.02.11-.04-.22.01-.64-.13-.79.03-.04.16-.26.11-.38.11,0,0,.01.08.01.08.09,0,.21,0,.3-.01.08-.05.1-.19.23-.18h0Z"/>
    <path class="cls-4" d="M1.47.43s.01.08.01.08c0,.01-.13,0-.13,0,0,0,0-.09,0-.09,0,0,.12,0,.12,0h0ZM1.47.43s-.13,0-.11,0c0,0,0,.09,0,.08,0,0,0,0,0,0,.14,0,.12.04.11-.08h0Z"/>
    <path class="cls-4" d="M1.35.52c.15,0,.11-.04.13.1-.16.01-.13.04-.13-.1h0ZM1.35.52v.11s.09,0,.13-.01c0,.02-.01-.09,0-.09,0,0-.12,0-.12,0h0Z"/>
  </g>
</svg>