<svg id="Capa_1" data-name="Capa 1" xmlns="http://www.w3.org/2000/svg" version="1.1" viewBox="0 0 2.8 1"><defs><style>.cls-1,.cls-2{fill:#ebbd83;stroke-width:0}.cls-2{fill:#000}</style></defs><path d="M1.477.423c-.043 0-.086 0-.13.002-.007 0-.013.003-.02.003-.118 0-.236.005-.354.005-.075 0-.15.003-.225.004C.665.437.583.44.5.442.445.442.391.448.336.446A.135.135 0 0 1 .26.429C.228.409.193.413.158.419a.164.164 0 0 0-.136.169c.001.06.027.106.076.139a.165.165 0 0 0 .151.017C.284.732.314.708.353.706.39.704.427.706.464.7c.099-.014.2-.01.3-.022.084-.01.169-.011.253-.017.112-.008.224-.016.336-.021.028-.005.056-.005.084-.005.017 0 .035.004.051-.006.045.002.09-.004.134-.008.04-.003.08 0 .12-.006a.124.124 0 0 1 .123.049c.025.031.043.067.08.088a.248.248 0 0 0 .163.025l.267-.038c.022-.003.045-.002.067-.006.098-.02.198-.031.297-.046.021-.003.04-.011.036-.037-.003-.023-.017-.037-.043-.033-.06.009-.12.016-.179.026-.068.012-.137.021-.205.031l-.234.033C2.095.71 2.08.709 2.069.695c-.012-.016-.007-.033 0-.05.007-.018.022-.016.037-.017l.181-.014c.084-.008.169-.015.253-.021.052-.004.104-.016.157-.013.013 0 .027-.003.04-.005.024-.004.036-.026.027-.045-.011-.022-.03-.027-.052-.024-.043.006-.085.008-.128.011-.059.005-.119.008-.178.014-.082.008-.164.018-.246.021-.017 0-.033 0-.049.007-.029.009-.052-.008-.054-.038 0-.009 0-.018-.003-.026-.006-.029 0-.04.03-.049.035-.01.07-.005.105-.005h.526c.024 0 .048-.019.045-.036-.005-.022-.019-.036-.044-.034h-.021c-.096.002-.192.002-.288.002-.06 0-.12.005-.181 0-.045-.004-.09.007-.136 0-.047-.007-.06-.03-.035-.072.046-.011.091-.002.137 0 .095.002.189.012.284.015.048 0 .097.005.145.008.033.002.066.013.102.004.021-.006.038-.014.036-.034-.002-.021-.022-.029-.043-.033-.054-.009-.109-.008-.163-.01-.094-.003-.187-.013-.281-.015-.044 0-.089-.003-.134-.006-.04-.003-.078-.011-.119-.004a.195.195 0 0 0-.155.11c-.02.042-.052.075-.1.083-.038.006-.078.006-.117.007h-.175l.005-.004z" style="fill:#fefefe;stroke-width:0"/><path class="cls-2" d="M1.477.423C1.164.417.578.464.273.433-.063.312-.048.874.284.729.506.666 1.11.666 1.353.637A12.6 12.6 0 0 1 1.75.611c.102-.013.142.098.208.144.239.052.525-.052.776-.071.056.008.043-.08-.006-.062-.218.027-.431.077-.652.085-.058-.056.025-.102.071-.087.166-.013.43-.033.596-.051.056-.031-.016-.08-.062-.056l-.598.05c-.04-.022-.053-.119.009-.12.167-.007.432-.004.6-.004.06.024.095-.066.025-.064l-.365.002c-.055-.016-.371.051-.298-.075.218-.007.44.021.659.026.061.009.054-.073-.004-.064-.252.006-.546-.079-.781 0-.067.184-.311.179-.45.162zm0 0c.14.017.382.023.449-.162.161-.072.347-.009.519-.016l.263.015c.06-.011.068.08.004.07-.216-.007-.446-.028-.656-.027-.05.075.065.073.112.069.117 0 .427-.001.547-.003.081-.001.035.104-.025.076-.166 0-.431-.002-.598.005-.058-.003-.04.09-.009.107.148-.014.447-.039.594-.051.12-.024.151.099-.084.088l-.447.037C2.094.619 2.038.658 2.08.7c.166-.007.344-.044.516-.067l.13-.019c.061-.024.072.091.008.079-.256.019-.533.123-.78.069C1.885.713 1.845.604 1.75.618 1.328.659.698.656.284.734-.049.88-.071.31.273.432c.301.031.892-.014 1.203-.008z"/><path class="cls-1" d="M1.353.639v.002l.001-.002h-.001z"/><path class="cls-2" d="M1.353.639c.012.007-.014-.004-.003 0h.003zm0 0 .004.003c.011.004-.015-.004-.004-.003z"/><path class="cls-1" d="M1.149.524c-.098 0-.196.003-.294.005C.778.531.702.535.625.534.534.534.444.54.353.542.296.543.245.521.191.51.129.498.083.526.044.568.037.575.033.584.023.587c0 .059.027.106.076.139A.165.165 0 0 0 .25.743C.285.731.316.707.354.705.391.703.428.704.465.699c.099-.014.2-.01.3-.022.083-.01.169-.011.253-.017.112-.008.223-.016.335-.021.003-.038-.002-.077-.006-.115-.066-.012-.132 0-.198 0z"/><path class="cls-2" d="M1.149.524C.946.518.475.562.284.531.192.496.075.51.027.587.023.714.176.791.282.726.394.677.518.702.636.683l.716-.045c-.011-.163.026-.102-.204-.114zm0 0s.199-.002.199 0l.006.115c0 .003-.716.05-.716.051C.522.709.394.686.285.735.18.804.002.715.022.583.153.42.391.583.571.533l.578-.01z"/><g><path class="cls-1" d="M.192.508C.246.519.296.541.354.54.444.538.535.53.626.532.703.533.779.529.856.527c.098-.002.196-.006.294-.005.066.002.132-.011.198 0V.519h.002V.422c-.007 0-.013.003-.02.003C1.212.423 1.094.43.976.43.901.43.826.434.751.434.668.434.586.437.503.439.448.441.394.445.339.443A.144.144 0 0 1 .263.426C.23.407.196.411.161.416a.163.163 0 0 0-.136.169C.036.583.039.573.046.566.086.523.132.496.193.508z"/><path class="cls-2" d="M.192.508c.316.067.845-.005 1.153.01 0 0 .004-.004.005-.003-.009.021-.003-.096-.005-.093l.005.004C1.098.421.516.462.277.431.17.374.014.455.025.585.063.54.126.491.192.508zm0 0C.123.49.067.543.023.585.03.289.439.484.633.433l.72-.016c-.003 0 .007.113-.004.105l.004-.003v.003C1.014.513.519.573.192.507z"/></g><g><path d="M2.737.614c-.06.008-.12.016-.179.026-.068.012-.137.021-.205.031l-.234.033C2.1.707 2.085.706 2.074.692c-.011-.015-.006-.033 0-.05.007-.018.022-.016.037-.017.061-.004.121-.008.181-.014.084-.008.169-.015.253-.021.052-.003.104-.016.157-.013.012 0 .027-.003.04-.005.024-.004.037-.025.027-.045C2.758.505 2.739.5 2.717.503a2.761 2.761 0 0 1-.128.011c-.059.005-.119.008-.178.014-.082.008-.164.018-.246.021a.161.161 0 0 0-.049.007c-.029.01-.052-.008-.054-.038L2.059.492c-.006-.03 0-.041.03-.049.035-.01.07-.005.105-.005h.526c.025 0 .049-.018.045-.036C2.76.38 2.746.366 2.721.368H2.7C2.604.37 2.508.37 2.412.37c-.06 0-.121.006-.181 0-.045-.004-.09.007-.136 0-.047-.007-.06-.03-.035-.072h.002c.045-.01.09 0 .135 0 .095.002.189.012.284.015.048 0 .097.005.145.008.034.003.067.013.102.004.021-.006.037-.014.036-.034-.002-.021-.022-.03-.043-.033-.054-.01-.109-.008-.163-.01-.094-.003-.187-.013-.281-.015-.045 0-.09-.003-.134-.006-.04-.002-.079-.011-.119-.004a.195.195 0 0 0-.155.11c-.021.041-.052.075-.1.083-.039.007-.078.007-.117.007h-.175l.006.093h.004c0 .037-.003.074.006.11.045.002.09-.004.134-.008.04-.003.08 0 .12-.006a.124.124 0 0 1 .123.049c.025.03.043.067.08.088a.248.248 0 0 0 .163.025L2.38.736c.022-.003.045-.002.067-.006.098-.02.198-.031.297-.046.021-.003.039-.011.036-.037C2.777.624 2.763.61 2.737.614z" style="fill:#c8c5c9;stroke-width:0"/><path class="cls-2" d="M2.737.614 2.17.698c-.117.04-.132-.063-.064-.073l.572-.047c.103.009.13-.071.037-.072-.127.01-.449.038-.571.05-.071.046-.127-.078-.063-.113.128-.013.255-.005.383-.008.063-.005.228.01.283-.008.108-.095-.356-.04-.383-.052-.08-.014-.383.05-.309-.079.218-.014.443.021.662.024.059.006.049-.068-.006-.059-.25.006-.546-.079-.778 0-.074.187-.289.171-.456.166a.331.331 0 0 1 .006.089c.012-.01.009.111.012.111.107.004.246-.045.352.01.07.099.177.176.304.132l.357-.047c.06-.015.212-.022.264-.047.021-.023-.003-.069-.035-.059zm0 0c.033-.01.057.035.036.059-.051.025-.205.034-.264.048-.124.004-.417.088-.534.041C1.805.57 1.73.614 1.494.628a.532.532 0 0 1-.006-.11c-.014.009-.009-.093-.012-.095.17-.005.377.026.455-.168.238-.081.529.004.783-.002.061-.016.073.086.007.075-.216-.006-.445-.029-.655-.026h-.002c.006-.007-.006.013-.005.013-.023.069.084.047.13.05l.534-.001c.085.012.058.098-.066.078-.184.003-.39-.008-.572.006-.093.158.157.083.25.084l.381-.031c.101.003.067.09-.037.08a83.4 83.4 0 0 1-.571.045C2.073.62 2.061.674 2.08.695c.157.016.489-.067.659-.081z"/></g><g><path d="M1.483.516h.001L1.478.423l-.13.002v.097c.003.039.009.078.006.117.028-.005.056-.005.084-.005.017 0 .035.004.051-.006C1.48.591 1.483.553 1.483.516z" style="fill:#b6b1b7;stroke-width:0"/><path class="cls-2" d="M1.483.516C1.484.487 1.476.45 1.478.424c.002-.002-.144.009-.127 0-.003.003.009.111-.003.102.007-.03.013.134.005.109.162-.019.134.033.129-.119zm0 0 .008.112c-.044.008-.102.019-.14.011a2.208 2.208 0 0 1-.006-.213c0-.009.13 0 .133-.004.005.03.004.065.005.094z"/></g></svg>