<svg id="Capa_1" data-name="Capa 1" xmlns="http://www.w3.org/2000/svg" version="1.1" viewBox="0 0 1 1"><defs><style>.cls-1{fill:#4aaeda}.cls-1,.cls-4,.cls-5,.cls-6,.cls-7{stroke-width:0}.cls-4{fill:#92d7df}.cls-5{fill:#000}.cls-6{fill:#fefefe}.cls-7{fill:#348ed8}</style></defs><path class="cls-1" d="M.517.623.503.554A.033.033 0 0 0 .498.538L.491.574C.488.59.486.607.481.623H.076L.084.547.093.466C.096.466.099.464.102.462A.375.375 0 0 0 .175.381C.18.374.184.372.193.372h.244v.105c0 .021 0 .02.021.021.008 0 .01-.002.01-.01V.372h.084l.023.111c.003.011.01.016.021.014C.605.497.608.49.607.481L.585.372h.227c.006 0 .009.002.012.007.02.03.044.057.072.081.002.002.005.007.008 0l.007.058.011.094v.012H.516z"/><path class="cls-5" d="M.517.623A1.55 1.55 0 0 0 .498.538S.482.624.481.623C.479.62.074.63.074.623.079.617.082.453.1.46.176.327.305.376.437.368c.016.007-.01.138.015.125C.479.48.449.395.468.367h.088c.008.016.016.166.047.114L.581.368H.76C.833.345.858.434.906.459c-.002.01.021.156.017.164 0 .005-.405-.003-.407 0zm0 0S.929.62.92.623V.611S.896.45.905.46c0 .006-.011 0-.011 0C.801.324.733.385.585.374.591.353.609.482.611.479.589.531.559.468.564.45.567.452.539.356.552.375.554.373.449.381.473.371c-.007.038.02.121-.021.13C.414.497.44.406.433.371.263.399.216.31.104.463c0 0-.017.009-.008.002L.078.622c-.013-.006.406.001.403 0A1.39 1.39 0 0 1 .498.538c.006.008.016.073.019.085z"/><path class="cls-4" d="M.076.622h.406L.467.706.435.881.423.945c0 .006-.004.008-.01.006L.252.924.069.893.053.891C.046.891.044.887.044.88L.06.748.073.64c0-.006 0-.012.002-.018z"/><path class="cls-5" d="M.076.622s.409-.01.409 0L.428.944l-.016.01-.343-.06C.06.894.048.892.042.879.042.872.075.62.076.621zm0 0L.073.64.046.88C.04.895.408.944.418.945c0 .001.059-.337.064-.32L.076.622z"/><path class="cls-4" d="M.517.623h.406l.01.079.011.094.008.074v.003c0 .012-.005.019-.016.021L.742.926.585.953c-.007 0-.009 0-.01-.007L.532.711A2.652 2.652 0 0 0 .516.624zm.222.156L.87.75C.875.75.875.746.874.742L.862.695C.862.688.859.685.851.687L.725.715C.721.715.719.717.72.722l.013.051c0 .003 0 .006.006.005z"/><path class="cls-5" d="M.517.623s.407-.009.409 0L.957.87C.973.917.603.944.586.955.544.868.541.72.517.623zm0 0c.021.091.037.246.068.328C.593.944.964.9.948.871.95.875.916.611.924.627L.518.624z"/><path class="cls-5" d="M.739.779.87.746C.863.658.817.706.725.716c-.009 0 .008.052.008.056l.006.006zm0 0C.731.779.721.728.719.723.717.711.787.7.794.697.818.697.84.671.867.696c0 .02.018.033.003.058L.739.78z"/><path d="M.122.229C.126.184.132.139.138.095c.01.032.031.04.06.04h.61A.05.05 0 0 0 .86.091l.007.055.009.079C.874.231.868.229.864.229H.556L.55.201C.547.186.539.18.524.183.516.184.516.188.517.194l.007.035H.468V.206C.468.19.46.182.444.182.437.182.437.185.437.19v.039H.122z" style="fill:#34507b;stroke-width:0"/><path class="cls-5" d="M.122.229S.135.093.139.095C.15.169.434.12.501.132.565.119.856.165.855.09.862.062.861.058.864.09L.88.224C.824.244.769.228.716.233h-.16C.544.217.553.178.525.187.506.231.567.236.468.233.461.218.474.188.45.186.43.186.445.218.437.232L.122.23zm0 0L.437.227C.437.22.426.182.451.18c.023 0 .023.044.018.046h.056C.492.173.556.154.56.228.544.222.876.225.872.223.877.231.843.073.865.091.84.172.746.126.692.138L.31.136C.256.125.16.164.138.095L.121.229h.001z"/><path d="M.86.092a.05.05 0 0 1-.052.044h-.61c-.029 0-.05-.008-.06-.04C.139.066.151.048.176.043h.632c.033 0 .051.017.053.051V.092z" style="fill:#353f52;stroke-width:0"/><path class="cls-5" d="M.86.092C.861.171.579.126.502.139.425.127.142.178.133.096.111-.006.409.054.535.041.593.055.874.004.86.092zm0 0C.874.004.593.058.535.045.417.059.118.008.143.096.163.165.42.12.502.133.582.121.859.171.86.091z"/><path class="cls-7" d="M.122.229h.314V.37H.192C.184.37.179.372.174.379A.375.375 0 0 1 .101.46C.098.462.096.464.092.464L.098.419A.256.256 0 0 0 .141.37H.104L.112.295.121.228z"/><path class="cls-5" d="M.122.229s.316-.008.317 0L.44.374C.278.388.203.32.102.462.077.482.098.425.095.419c0-.002.043-.048.044-.05.008.006-.036 0-.036.002A.934.934 0 0 1 .121.229h.001zm0 0c-.009.042-.01.1-.018.14.002 0 .04-.003.038.002A1.305 1.305 0 0 1 .1.419L.094.464C.088.46.097.459.099.458.191.334.219.363.432.37.432.373.43.217.436.232L.122.229z"/><g><path class="cls-7" d="M.556.23h.308S.873.233.876.226l.009.072.008.065v.009H.864s-.007 0-.003.005a.38.38 0 0 0 .038.042L.904.46C.901.467.898.462.896.46A.349.349 0 0 1 .824.379C.821.374.818.372.812.372H.585L.557.23z"/><path class="cls-5" d="M.556.23.864.227.873.225c.012-.011.02.137.024.137.009.032-.052 0-.026.019.03.032.035.031.038.078C.877.487.835.341.76.375.759.374.585.375.584.372L.556.23zm0 0s.032.146.029.141c.161.01.224-.051.314.09C.899.462.891.411.895.423L.863.387C.834.367.905.361.888.372V.364L.872.227C.89.227.859.232.863.233L.555.23z"/></g><g><path class="cls-1" d="M.105.371h.037A.205.205 0 0 1 .099.42L.105.371z"/><path class="cls-5" d="M.105.371C.178.358.123.396.101.422L.094.428.096.419.105.371zm0 0S.108.433.097.417C.11.403.128.372.142.373L.105.371z"/></g><g><path class="cls-1" d="M.899.418C.884.406.873.391.861.376.857.371.861.371.864.371h.029l.006.047z"/><path class="cls-5" d="M.899.418C.884.397.845.384.866.366l.027.002c.006-.001.005.048.006.05zm0 0S.884.361.893.374C.847.372.875.385.899.418z"/></g><g><path class="cls-6" d="m.556.23.028.142.022.109C.608.49.604.495.595.497.584.499.577.494.574.483L.551.372C.543.325.533.278.523.231A.433.433 0 0 0 .516.196c0-.006 0-.01.007-.011C.545.182.544.181.549.203l.006.028z"/><path class="cls-5" d="M.556.23c.015.125.093.287.016.26C.548.391.534.294.515.196.541.158.555.212.556.23zm0 0C.554.21.539.162.517.196l.063.29C.632.52.552.258.556.23z"/></g><g><path class="cls-7" d="M.524.23c.01.047.02.094.028.141H.468V.23h.056z"/><path class="cls-5" d="M.524.23C.548.386.6.376.463.376.474.224.437.223.524.23zm0 0S.462.233.469.23C.466.227.48.392.468.366.466.368.565.363.549.371L.524.23z"/></g><g><path class="cls-6" d="M.468.23v.257c0 .008-.002.01-.01.01C.444.497.437.49.437.476V.191c0-.006 0-.008.007-.008.016 0 .024.008.024.024v.024z"/><path class="cls-5" d="m.468.23.004.249C.41.577.439.302.435.282L.436.199c.012-.047.046.013.032.03zm0 0C.481.21.445.158.438.2l.004.249c0 .097.039-.003.024-.053L.468.23z"/></g><g><path class="cls-6" d="M.739.779S.734.777.733.774L.72.723c0-.005 0-.006.005-.007L.851.688c.008-.002.01 0 .011.008a.405.405 0 0 0 .012.047c0 .004 0 .007-.004.008L.739.78z"/><path class="cls-5" d="M.739.779C.731.779.721.728.719.724.757.699.806.698.849.684c.034.015.018.039.029.058C.844.774.785.766.74.779zm0 0C.777.77.842.759.871.744.864.728.862.692.851.693.808.703.757.707.722.723c.002.003.01.057.017.056z"/></g></svg>