<svg id="Capa_1" data-name="Capa 1" xmlns="http://www.w3.org/2000/svg" version="1.1" viewBox="0 0 2.82 1.01"><defs><style>.cls-1{fill:#4aaeda}.cls-1,.cls-4,.cls-5,.cls-6,.cls-7{stroke-width:0}.cls-4{fill:#92d7df}.cls-5{fill:#000}.cls-6{fill:#fefefe}.cls-7{fill:#348ed8}</style></defs><path class="cls-1" d="M1.47.94h-.06c-.03 0-.07 0-.1.01H1.3V.52c.02 0 .05 0 .07-.01h.02-.04c-.02 0-.04 0-.05-.01V.06h.08c.03 0 .06 0 .09.01.03.03.05.06.09.08v.28h-.11c-.02 0-.02 0-.02.02 0 0 0 .01.01.01h.12v.09s-.08.02-.12.02l-.02.02s0 .01.02.01c.04 0 .08-.02.12-.02v.25c-.03.02-.06.05-.09.08Z"/><path class="cls-4" d="M1.29.06v.43S1.23.48 1.2.47C1.14.46 1.08.45 1.01.44.99.44.96.44.94.43V.42C.94.36.96.31.97.25L1 .05V.03s0-.01.01 0c.05 0 .09.01.14.02.04 0 .08 0 .12.01h.02ZM1.29.53v.43c-.03 0-.06 0-.08.01-.03 0-.07 0-.1.01h-.08c-.02 0-.02 0-.02-.02L.98.75C.98.69.96.64.95.58V.57c.08-.02.17-.03.25-.05.03 0 .06-.01.09-.02Zm-.13.38s.03 0 .05-.01c.01 0 .01 0 0-.02 0-.04-.02-.09-.03-.13-.02 0-.04 0-.05.01l.03.14Z"/><path d="M1.71.1s.1.01.14.02c-.03.01-.04.03-.04.06v.65c0 .03.02.05.05.06h-.14V.55h.03c.02 0 .02 0 .02-.03h-.05V.46h.03c.03 0 .03 0 .03-.03h-.04V.09Z" style="fill:#34507b;stroke-width:0"/><path d="M1.86.89S1.81.86 1.81.83V.18c0-.03 0-.05.04-.06.03 0 .05.01.06.04v.68c0 .04-.02.05-.05.06Z" style="fill:#353f52;stroke-width:0"/><path class="cls-7" d="M1.71.1v.34h-.15V.16C1.53.14 1.5.11 1.47.08h.05l.05.05V.09H1.72ZM1.71.57v.34H1.56V.88c-.02.01-.03.03-.04.04h-.04c.02-.03.05-.06.09-.08V.59l.15-.03Z"/><path class="cls-1" d="M1.56.09v.04S1.52.1 1.51.08h.05ZM1.51.93l.04-.04v.03H1.5Z"/><path class="cls-6" d="M1.71.57 1.56.6c-.04 0-.08.02-.12.02-.01 0-.01 0-.02-.01l.02-.02s.08-.02.12-.02c.05 0 .1-.02.15-.03h.05c0 .02 0 .02-.02.03h-.03Z"/><path class="cls-7" d="m1.71.53-.15.03V.47h.15v.06Z"/><path class="cls-6" d="M1.71.47h-.27s-.01 0-.01-.01c0-.02 0-.02.02-.02h.3c0 .03 0 .03-.03.03h-.03ZM1.16.91 1.13.77c.02 0 .04 0 .05-.01 0 .04.02.09.03.13v.02c-.02 0-.03 0-.05.01Z"/><path class="cls-5" d="m1.47.94-.18.02s-.01-.43 0-.44c.03 0 .08-.03.09-.01L1.29.49c-.01 0 0-.43 0-.44.15.02.15-.01.25.09.06.04.02.23.03.3-.02.02-.14-.01-.13.02.01.03.1 0 .13.02v.09c-.02.02-.14.01-.14.04-.01.04.11-.02.13 0-.01.26.05.19-.1.34Zm0 0c.15-.16.07-.07.09-.34-.04 0-.15.05-.14 0 0-.04.04-.02.06-.03 0 0 .09-.02.07-.01V.47c.03.01-.07 0-.07 0-.02 0-.05.02-.07-.02.01-.04.05-.01.07-.02 0 0 .1-.01.07 0-.02-.27.06-.21-.1-.36.04.02-.16-.02-.16-.01v.43s.09.02.08.01c-.03 0-.08.02-.09.02v.43l.17-.02Z"/><path class="cls-5" d="M1.3.05s.02.44 0 .44L1.04.45C.91.47.95.33.97.26 1 .18.97.07 1.04.02l.26.04Zm0 0L1.04.02C.99.05 1 .18.98.25c0 .09-.07.19.06.17 0 0 .28.05.25.06V.05ZM1.29.53s.02.44 0 .44L1.03 1C.95.95.99.84.96.76.94.68.91.55 1.03.57l.26-.04Zm0 0-.26.05C.9.57.96.67.97.76c.02.07.02.2.06.23l.26-.03V.53Z"/><path class="cls-5" d="M1.16.91c.1-.01.03-.07.02-.16h-.04c-.02.01.01.11.02.15Zm0 0S1.09.77 1.14.75c.02 0 .03-.03.06 0 .01.13.06.15-.04.16ZM1.71.1s.15.01.14.02c-.08 0-.03.32-.04.39.01.06-.03.38.04.37.01 0 0 .01 0 .02 0 0-.14.02-.15.02-.02-.06 0-.12 0-.18V.57s.05 0 .05-.02c0-.03-.02 0-.04 0-.01 0 0-.06 0-.06.01-.02.06 0 .05-.02 0-.02-.03-.01-.05-.01V.12Zm0 0v.33c.02 0 .05-.01.05.02s-.04.02-.05.02v.05c.01 0 .06-.02.06.01 0 .04-.04.02-.05.03 0 .08.01.26 0 .33l.14-.02v.02C1.77.86 1.82.76 1.81.7V.29c.01-.06-.03-.17.05-.18L1.72.09Z"/><path class="cls-5" d="M1.86.89c-.08 0-.04-.29-.05-.38.01-.11-.05-.39.05-.4.11 0 .05.25.06.39-.02.12.04.4-.06.39Zm0 0c.09 0 .04-.26.05-.39-.01-.1.03-.4-.05-.37-.07.02-.02.29-.04.38.01.09-.04.38.04.38ZM1.71.1s.02.34 0 .34h-.16c-.01-.26.06-.21-.1-.37 0-.01.05 0 .05 0l.05.05c-.01.01 0-.04 0-.04L1.7.1Zm0 0S1.55.09 1.56.08v.04S1.5.07 1.51.08c0 0-.07 0-.04-.01.04.05.13.09.1.16 0 0 .01.24 0 .2h.15V.09ZM1.71.57v.35c-.05 0-.12.03-.17.02V.91c0-.01.02 0 0 0l-.03.03s-.05 0-.05.01c0-.08.11-.07.09-.16V.6L1.7.57Zm0 0s-.16.04-.15.03c0 .14.05.28-.1.33 0 0 .06-.01.04 0L1.54.9c0-.01.04 0 .03 0v.02c.04 0 .13-.03.15 0-.02-.11 0-.24 0-.35Z"/><path class="cls-5" d="M1.56.09v.04C1.54.12 1.51.1 1.5.07c0 0 .05.01.06.01Zm0 0h-.05V.08c.01 0 .06.04.04.05V.09ZM1.51.93s.03-.03.03-.04c0-.01.04-.02.02.03 0 .01-.05 0-.06 0Zm0 0s.07-.02.04 0V.9s.02 0 0 0c0 0-.03.02-.04.03ZM1.71.57c-.06.01-.21.05-.27.06-.11-.07.19-.08.21-.09.14-.04.13.03.06.03Zm0 0s.07-.03.04-.04l-.09.02s-.26.04-.22.06c.06 0 .21-.04.27-.05Z"/><path class="cls-5" d="M1.71.53s-.16.05-.16.03v-.1c.16.01.16-.03.15.07Zm0 0V.47h-.15c.02-.04 0 .08 0 .08-.04-.01.15-.03.14-.03Z"/><path class="cls-5" d="M1.71.47h-.27c-.06-.03.02-.07.03-.05h.27c.05.02 0 .05-.03.04Zm0 0s.07-.02.03-.03h-.27c-.11 0 0 .03.05.02h.18ZM1.16.91S1.11.78 1.13.75c.07-.03.07 0 .08.04.01.06.04.12-.05.12Zm0 0c.11-.01.03-.08.03-.16-.05 0-.07 0-.05.05 0 .03 0 .07.02.1Z"/></svg>