<svg id="Capa_1" data-name="Capa 1" xmlns="http://www.w3.org/2000/svg" version="1.1" viewBox="0 0 1 1"><defs><style>.cls-1,.cls-3{fill:#000;stroke-width:0}.cls-3{fill:#ffeb35}</style></defs><path d="M.289.01s0-.004.01.012c.02.031.07.093.188.093 0 0 .14-.005.201-.1C.692.008.698.02.701.013v.266L.499.35.287.26.289.01z" style="fill:#ffc335;stroke-width:0"/><path class="cls-1" d="M.289.01c.09.152.308.11.404 0C.7.009.713-.005.71.013L.712.28c0 .006 0 .01-.008.01L.5.36C.495.358.289.264.286.264.277.262.292.015.289.009zm0 0c0-.003.005.266 0 .247-.004 0 .232.091.208.086C.49.349.732.244.689.279L.692.013C.664.123.365.175.29.01z"/><path class="cls-3" d="M.289.01S.283.225.437.222l.066.1.06-.097S.723.25.697.03l.152.023s.15.011.12.188c0 0 .03.026 0 .067 0 0-.026.097-.12.138C.836.45.804.47.783.445L.759.782.791.98.212.98l.035-.21-.03-.333S.192.434.144.439.027.3.027.3 0 .265.035.233c0 0-.023-.166.133-.201L.287.01z"/><path class="cls-1" d="M.29.009c-.001.096.042.213.15.21l.068.1C.475.332.562.222.557.22L.56.217h.005c.11.015.14-.111.12-.2C.688.011.843.044.85.042c.095-.003.158.138.125.192C.996.257.99.29.973.31.961.375.833.503.786.445L.766.78c-.006 0 .051.23.026.207L.21.992C.2.992.195.996.2.98.25.767.221.64.204.44l.009.01C.122.476.049.38.02.302 0 .28.01.245.03.229-.003.095.158.008.29.01zM.287.01C.159.023.014.08.042.237c-.05.05.034.12.06.166.026.041.074.02.124.024v.01C.23.44.257.768.258.772.252.763.23 1.033.21.97l.581.001C.776 1.02.758.776.753.783L.78.444c0-.01.001-.007.007-.002C.854.48.944.372.963.304.98.284.98.257.963.242.984.159.933.065.846.062L.695.04.709.028C.74.116.65.268.57.229.563.23.5.355.497.325.5.327.421.213.436.226.322.23.284.097.287.01z"/><path class="cls-3" d="M.437.222.364.298l.139.024-.066-.1z"/><path class="cls-1" d="M.437.222.369.303c.002-.028.1.006.135.01L.496.327.436.222zm0 0L.519.33A.685.685 0 0 1 .363.305L.35.302l.087-.08z"/><path class="cls-3" d="m.563.225.07.066-.13.03.06-.096z"/><path class="cls-1" d="m.563.225.083.069-.012.004A.615.615 0 0 1 .486.33L.563.225zm0 0-.054.1L.501.315C.533.307.625.269.628.296L.563.226z"/><path class="cls-3" d="M.503.969V.322"/><path class="cls-1" d="M.503.969a5.275 5.275 0 0 1 0-.647c.013.215.013.431 0 .647 0 0 .013-.216 0 0z"/><g><path class="cls-3" d="M.795.4.874.359.959.241"/><path class="cls-1" d="M.795.4.87.351C.88.321.932.276.96.241.914.322.895.375.795.4z"/></g><g><path class="cls-3" d="M.207.384.132.343.05.225"/><path class="cls-1" d="M.207.384C.109.358.093.304.05.225c.025.035.078.08.086.11l.07.049z"/></g><g><path class="cls-3" d="M.242.273S.207.318.216.437"/><path class="cls-1" d="M.242.273C.226.327.226.381.216.437.199.383.2.317.242.273c0 0-.041.045 0 0z"/></g><g><path class="cls-3" d="M.75.26s.056.065.033.185"/><path class="cls-1" d="M.75.26C.8.308.808.386.783.446A.47.47 0 0 0 .75.26s.026.058 0 0z"/></g></svg>