<svg id="Capa_1" data-name="Capa 1" xmlns="http://www.w3.org/2000/svg" version="1.1" viewBox="0 0 1.1 1"><defs><style>.cls-4,.cls-5{stroke-width:0}.cls-4{fill:#f5b038}.cls-5{fill:#000}</style></defs><path d="M1.02.887a.359.359 0 0 1 0 .056c-.002.018-.013.03-.03.036H.447A.163.163 0 0 1 .4.96 1.793 1.793 0 0 0 .355.932C.343.925.332.931.331.945v.007C.333.964.328.972.318.98H.114C.106.973.098.966.097.955L.093.887H1.02z" style="stroke-width:0;fill:#a9a8a8"/><path class="cls-5" d="M1.02.887c-.003.031.012.081-.03.093C.92.971.408 1.018.364.947.326.915.353.96.318.988L.116.99H.109C.07.95.092.916.081.877h.012l.926.01zm0 0-.927.01C.114.865.098.972.12.97L.114.968c.002.001.216 0 .2.004C.323.94.331.9.372.934c.03.067.555.035.616.044.04-.01.028-.059.03-.09z"/><path class="cls-4" d="M.656.422C.61.411.56.428.537.462.525.481.521.502.518.522.515.543.514.56.507.578.506.57.48.627.475.632.449.655.415.62.416.597.418.559.413.409.416.37L.418.302.425.188l.002-.06C.428.115.418.062.421.048.425.025.422.043.503.035H.64c.018 0 .035.018.034.036C.674.103.672.136.67.168L.667.213.66.38C.658.394.659.408.656.422z"/><path class="cls-5" d="M.656.422C.474.378.554.648.44.641.363.58.436.174.41.054.417.004.514.034.64.028.721.02.65.335.656.422zm0 0C.646.367.703.034.639.042.381.055.436.004.437.155.443.208.36.815.51.576.487.513.563.386.656.422z"/><path class="cls-4" d="M.043.063C.046.058.048.05.052.047.058.04.065.035.075.035H.12L.108.043C.096.053.095.067.096.082.1.112.1.143.102.174l.006.099.004.082.002.033.007.106.004.06.006.099H.08A1.693 1.693 0 0 0 .076.589L.068.466.066.43.059.317.055.24.047.119C.046.107.047.094.043.083v-.02z"/><path class="cls-5" d="M.043.063C.053.03.1.028.122.037.083.07.107.133.107.183.1.215.16.68.13.663.123.66.065.67.07.655L.043.084v-.02zm0 0v.02L.09.65C.057.635.129.646.13.642.107.684.105.212.099.183.1.138.079.059.12.037.093.035.055.029.043.063z"/><path d="M.131.653A3.636 3.636 0 0 1 .125.554L.12.494.114.389c0-.011 0-.022-.002-.033L.108.273.102.174.096.082c0-.015 0-.028.012-.038C.112.04.117.038.12.035h.333c.024.01.031.027.03.041C.48.092.481.107.48.123.478.16.476.197.475.235L.47.305.465.422A.13.13 0 0 0 .417.42a.103.103 0 0 0-.073.045C.333.48.33.5.327.52.324.54.322.563.314.584a.113.113 0 0 1-.103.069H.13z" style="fill:#f8cb3e;stroke-width:0"/><path class="cls-5" d="M.131.653C.136.547.055.058.118.029.127.026.448.025.458.026c.07.001.01.263.012.404C.252.382.41.71.13.653h.001zm0 0C.413.7.237.389.466.417.439.439.502.044.453.046.456.046.108.043.125.042c-.05.042.013.51.006.61z"/><g><path d="M1.02.887H.826C.827.855.828.823.815.792a.106.106 0 0 0-.042-.05.229.229 0 0 0-.107-.028L.582.711A.128.128 0 0 1 .467.63a.077.077 0 0 0 .04-.054C.515.56.515.541.518.523.522.502.525.481.538.463.56.427.61.41.655.422l-.007.14a.132.132 0 0 0 .13.148C.81.712.842.713.874.716a.217.217 0 0 1 .081.02c.037.02.055.05.061.09.004.02.004.04.003.061z" style="fill:#fe822e;stroke-width:0"/><path class="cls-5" d="M1.02.887C1.015.885.824.894.824.887.82.782.794.739.685.725.62.713.466.728.463.623c0-.002.035-.048.035-.05C.496.5.551.377.658.413c.021.1-.055.28.116.293.12-.004.272.03.245.181zm0 0C1.04.736.893.71.772.715.623.724.625.488.653.431.511.4.548.57.471.64c.066.066.096.06.216.075.11.014.147.076.14.17l.192.003z"/></g><g><path class="cls-4" d="M.465.422A4.217 4.217 0 0 0 .46.516C.458.546.453.577.46.607c0 .008.002.017.007.024.007.021.021.039.04.053A.127.127 0 0 0 .58.71l.085.004a.229.229 0 0 1 .107.028c.02.012.033.029.042.05a.87.87 0 0 1 .016.187C.828.979.833.888.83.888H.154L.144.886.143.856.137.764.13.653h.08a.113.113 0 0 0 .103-.07C.322.564.324.542.327.52.33.5.333.48.344.465A.103.103 0 0 1 .417.42a.127.127 0 0 1 .048.002z"/><path class="cls-5" d="M.465.422C.439.684.48.708.733.72c.126.033.1.186.105.288C.793.885.878.893.727.897.604.9.27.896.144.894H.137V.887C.142.88.117.643.131.648.41.702.241.386.465.422zm0 0C.243.391.415.707.13.658.142.629.148.89.151.887L.146.88C.273.878.603.876.727.88.812.875.863.873.83.971.807.922.846.752.731.729.48.715.43.685.464.422z"/></g><g><path d="m.13.653.007.112.006.09.001.032h-.05L.08.681C.081.671.08.662.08.653H.13z" style="fill:#f1902f;stroke-width:0"/><path class="cls-5" d="m.13.653.023.234.001.009-.06.002C.068.92.083.658.077.653.077.649.13.653.13.653zm0 0c.002 0-.058.004-.048 0C.075.647.122.93.093.876l.051.002C.123.926.137.646.131.653z"/></g></svg>