<svg id="Capa_1" data-name="Capa 1" xmlns="http://www.w3.org/2000/svg" version="1.1" viewBox="0 0 1.2 1"><defs><style>.cls-1,.cls-4{fill:#000;stroke-width:0}.cls-4{fill:#545948}.cls-7{fill:#fff;opacity:.74;stroke:#fff;stroke-miterlimit:10;stroke-width:.02px}</style></defs><rect x=".148" y=".158" width=".143" height=".14" rx=".025" ry=".025" style="fill:#9b9a8d;stroke-width:0"/><path class="cls-1" d="M.267.298C.227.288.172.326.144.276.155.236.111.183.17.15c.041.012.097-.023.126.03-.012.039.02.103-.03.119 0 0 .05-.016 0 0zm0 0C.313.28.278.218.287.18.274.146.207.173.172.167.142.17.16.24.152.275.166.312.23.29.268.298c0 0-.037-.01 0 0z"/><path d="M.378.229.41.092s0-.064.078-.064l.38.002S.937.026.95.083L.988.23S.378.22.378.23z" style="fill:#747772;stroke-width:0"/><path class="cls-1" d="m.378.229.03-.137C.412-.025.673.04.75.022.95 0 .964.057.999.24.792.234.585.223.38.229zm0 0C.57.229.826.203.98.232.945.062.933.021.75.036.677.051.417-.018.412.092L.378.23z"/><rect class="cls-4" x=".018" y=".226" width="1.155" height=".671" rx=".055" ry=".055"/><path class="cls-1" d="m1.118.897-.89.005C-.03.928.012.856.01.639.024.467-.039.222.072.216l.89.005c.252-.026.215.05.213.262-.015.136.04.418-.057.413zm0 0c.09-.016.04-.13.053-.192-.004-.129.003-.317-.006-.443C1.14.186.182.255.072.236c-.1.118-.026.448-.045.623.028.074.98.018 1.09.038z"/><circle class="cls-4" cx=".678" cy=".567" r=".405"/><path class="cls-1" d="M1.084.567c.005.541-.81.536-.817 0-.005-.542.826-.541.817 0zm-.002 0C1.072.05.286.05.279.567c-.005.523.796.518.803 0z"/><circle cx=".678" cy=".567" r=".282" style="fill:#00add4;stroke-width:0"/><path class="cls-1" d="M.961.567c.006.38-.564.375-.571 0-.006-.381.58-.38.571 0zm-.002 0C.955.212.403.213.402.567c-.012.36.556.355.557 0z"/><g><circle cx=".155" cy=".414" r=".054" style="fill:#f44400;stroke-width:0"/><path class="cls-1" d="M.21.414c.01.08-.117.075-.114 0-.01-.082.13-.077.114 0 0 0 .016-.077 0 0zm-.002 0C.201.351.108.356.106.414c-.005.067.1.062.102 0 0 0-.002.062 0 0z"/></g><g><path class="cls-4" d="M.15.532.147.899"/><path class="cls-1" d="M.15.532C.16.654.16.777.147.9.137.777.137.654.15.532c0 0-.012.122 0 0z"/></g><path class="cls-7" d="M.84.444S.873.419.9.47s.04.16-.022.235c0 0-.069.101-.184.088 0 0-.06.007-.055-.029S.684.734.704.736.824.73.854.629C.878.557.845.503.845.503S.802.47.839.443zM.547.691S.587.69.583.738.547.764.547.764.52.766.52.727.529.694.547.69z"/></svg>