<svg id="Capa_1" data-name="Capa 1" xmlns="http://www.w3.org/2000/svg" version="1.1" viewBox="0 0 1 1"><defs><style>.cls-2,.cls-3,.cls-4{stroke-width:0}.cls-2{fill:#c08700}.cls-3{fill:#000}.cls-4{fill:#7f5200}</style></defs><path style="stroke-width:0;fill:#9e6c07" d="M.443.989.561.99.706.015.299.01l.144.978z"/><path class="cls-3" d="M.443.989C.442.989.566.989.56.99.568.998.685-.035.706.025.712.02.256.034.308.01l.135.979zm0 0C.45.974.27.01.296.002.298 0 .705.006.706.005a.01.01 0 0 1 .01.01L.563.99c0 .003-.12-.003-.12-.002z"/><path class="cls-4" d="M.285.134S.052.12.052.422v.455S.041.918.081.918h.134s.032.01.032-.053c0 0 .002.055.042.055h.157V.2L.286.134z"/><path class="cls-3" d="M.285.134C-.059.142.086.665.061.877.048.939.167.895.218.908.23.912.238.884.236.865c0-.014.022-.014.022 0C.244.957.453.88.438.92L.443.2C.451.203.284.134.285.134zm0 0C.287.136.45.195.448.2L.455.92C.457.936.336.928.33.93.296.942.23.92.236.866H.26C.257.888.256.931.212.929.182.919.025.963.044.875.072.674-.06.132.285.135z"/><path class="cls-2" d="M.085.99V.918h.13v.07S.085.981.085.99z"/><path class="cls-3" d="M.085.99.08.915.227.907l-.005.09C.177.993.13.982.085.99zm0 0C.112.984.217.972.208.988.212.984.192.89.215.93.218.927.07.927.088.919L.085.99z"/><path class="cls-2" d="M.287.99V.918h.156v.07S.286.981.286.99z"/><path class="cls-3" d="M.287.99.283.915l.172-.01-.004.092C.396.994.34.983.286.99zm0 0C.32.984.447.97.434.988.438.983.417.89.442.931.445.928.27.927.292.918L.286.99z"/><path class="cls-2" d="M.554.99V.918H.71v.07S.554.981.554.99z"/><path class="cls-3" d="M.554.99.55.915l.172-.01-.004.092C.662.994.608.983.553.99zm0 0C.586.984.714.97.701.988.705.983.684.89.71.931.712.928.537.927.56.918L.553.99zM.25.39c.012.165.012.33 0 .496a3.302 3.302 0 0 1 0-.496s-.013.165 0 0z"/><g><path class="cls-4" d="M.715.134S.942.12.942.422v.455s.01.041-.028.041H.783S.752.928.752.865C.752.865.75.92.71.92H.558V.2L.715.134z"/><path class="cls-3" d="M.715.134c.34.003.206.541.235.74C.97.963.815.92.786.929.74.931.742.888.74.865h.022C.77.918.706.943.672.93.666.928.547.936.55.92L.556.2c0-.004.157-.063.159-.065zm0 0S.554.203.56.2L.567.92C.55.88.757.956.74.865c0-.015.022-.014.022 0C.76.884.769.913.78.908.83.895.946.94.933.877c-.027-.21.12-.73-.218-.743z"/></g><g><path class="cls-2" d="M.91.99V.918H.783v.07S.91.981.91.99z"/><path class="cls-3" d="M.91.99C.912.992.902.904.91.922L.783.929C.807.89.785.985.79.99.781.971.884.982.91.99zm0 0C.867.983.82.994.776.996L.771.906l.143.01L.91.99z"/></g><path class="cls-3" d="M.75.39c.012.165.012.33 0 .496a3.356 3.356 0 0 1 0-.496s-.012.165 0 0z"/><g><path class="cls-2" d="M.443.229S.317.229.284.134L.301.02s.037.112.145.122L.443.229z"/><path class="cls-3" d="M.443.229C.298.22.26.16.288.02.29.014.295.008.301.01.414.221.468.05.442.228zm0 0C.444.23.439.128.446.145.399.161.246.031.312.022.281.148.285.205.442.23z"/></g><g><path class="cls-2" d="M.558.229s.134 0 .169-.095L.71.02S.67.133.554.142l.004.087z"/><path class="cls-3" d="M.558.229C.624.229.704.185.72.135L.7.022C.776.026.581.175.558.142v.087zm0 0C.56.227.547.137.554.139.638.136.671.051.714.008c.012 0 .018.117.02.124C.709.207.624.228.558.229z"/></g></svg>