<svg id="Capa_1_copy" data-name="Capa 1 copy" xmlns="http://www.w3.org/2000/svg" version="1.1" viewBox="0 0 1.2 1"><defs><style>.cls-4{stroke-width:0;fill:#000}</style></defs><path d="M.018.82C.07.775.133.768.199.776c.02.002.038.005.057.012A.013.013 0 0 0 .248.79a.377.377 0 0 1-.085.073C.124.888.084.892.045.864A.074.074 0 0 1 .018.821z" style="fill:#fddfd6;stroke-width:0"/><path class="cls-4" d="M.022.825C.088.77.175.769.254.793L.253.78C.228.796.209.824.186.841.135.88.051.903.024.819.02.812.01.815.012.822c.015.044.052.071.1.067A.147.147 0 0 0 .18.86C.208.841.23.808.259.792.264.789.262.782.258.78.173.756.083.76.014.816.008.821.016.83.022.825z"/><path d="M.84.099A.55.55 0 0 0 .713.078C.71.078.708.078.706.075A.07.07 0 0 1 .778.032.07.07 0 0 1 .84.099z" style="fill:#5282d1;stroke-width:0"/><path class="cls-4" d="M.843.09a.694.694 0 0 0-.1-.02C.734.07.717.073.71.068L.713.08a.061.061 0 0 1 .118.019c.001.011.02.011.018 0C.84.019.734-.007.698.07A.01.01 0 0 0 .7.084c.014.01.043.006.06.008.025.004.051.01.077.017C.849.11.854.093.843.09z"/><path d="M.84.099c.078.023.149.06.206.119a.428.428 0 0 1 .118.237.595.595 0 0 1-.004.204.107.107 0 0 1-.104.086H.97C.97.738.964.735.957.733a.884.884 0 0 1-.13-.055C.776.653.73.626.681.598A.713.713 0 0 0 .39.496a.476.476 0 0 0-.091.002C.275.5.253.506.229.51A.561.561 0 0 1 .283.313C.342.19.441.113.576.085a.513.513 0 0 1 .116-.01h.014C.707.078.71.078.713.078c.043.001.085.01.127.02z" style="fill:#5b9de7;stroke-width:0"/><path class="cls-4" d="M.839.105c.158.056.306.179.317.358.005.085-.084.26-.169.27C.86.75.976.73.96.728.817.712.676.575.543.526.484.504.426.5.367.489.35.485.31.499.297.492.233.455.263.364.287.316.396.102.621.056.84.105c.007.001.01-.01.003-.012C.52.02.267.176.224.51c0 .005.004.007.008.006C.502.465.676.63.91.723c.07.027.148.055.215 0C1.218.646 1.18.446 1.14.35 1.085.217.974.14.84.093.836.091.832.103.84.105z"/><g><path d="M.018.82A.068.068 0 0 1 .034.758L.212.545C.214.542.218.54.218.535c.005.006.01.006.017.004a.45.45 0 0 1 .301.02c.073.028.14.069.207.106.04.022.08.043.121.062l.077.031C.913.79.887.822.857.851a.546.546 0 0 1-.151.113c-.042.02-.085.03-.13.01C.55.965.53.949.509.933.46.895.413.857.359.828A.393.393 0 0 0 .257.786.27.27 0 0 0 .199.775C.133.767.071.775.018.82z" style="fill:#5081d0;stroke-width:0"/><path class="cls-4" d="M.024.82C.024.76.158.585.217.549.262.522.336.53.386.533a.746.746 0 0 1 .303.11C.725.66.883.71.901.748.969.888.573.958.528.939.45.905.393.83.312.798.21.757.108.753.015.815.008.82.015.83.02.826.169.727.332.812.458.9.518.943.56.993.64.99.764.984.874.844.945.763.948.759.947.754.943.753.803.697.679.606.538.553.42.51.33.552.22.53.217.53.215.53.213.533.153.622.011.706.012.821c0 .008.012.008.012 0z"/></g><g><path d="M.941.758.864.727A1.656 1.656 0 0 1 .743.666C.675.627.609.586.536.558a.45.45 0 0 0-.3-.02C.228.541.222.541.217.536.211.523.214.518.23.51.253.506.275.5.299.497a.476.476 0 0 1 .09-.002C.496.504.59.547.681.6.73.626.777.653.826.678c.042.021.086.04.13.055.008.002.013.005.015.012C.97.76.963.765.95.76L.94.758z" style="stroke-width:0;fill:#355bad"/><path class="cls-4" d="M.941.757C.815.707.703.632.58.577.485.534.407.535.31.524.263.52.217.498.344.495c.105-.003.2.033.291.08C.7.606.761.645.826.677a.907.907 0 0 0 .086.04c.015.006.025.02.03.04H.94C.954.763.946.762.965.76L.973.745C.92.7.839.683.778.65.708.614.64.571.565.54.477.503.305.455.215.52l.002.016C.259.544.296.525.336.523.445.52.546.56.641.61c.1.052.195.108.3.15V.757z"/></g></svg>