<svg id="Capa_1" data-name="Capa 1" xmlns="http://www.w3.org/2000/svg" version="1.1" viewBox="0 0 1 1"><defs><style>.cls-1{fill:#221f20}.cls-1,.cls-2,.cls-3{stroke-width:0}.cls-2{fill:#ffffb9}.cls-3{fill:#e1cc8f}</style></defs><path class="cls-2" d="M.328.088.194.134S.158.151.136.186.032.411.032.411l.15.11.025-.175-.01.641H.78L.775.351l.02.17.161-.104L.841.184S.808.143.764.124.657.081.657.081L.328.088z"/><path class="cls-1" d="M.328.089C.083.143.132.274.036.405L.19.513C.152.555.203.345.197.344l.021.002C.217.342.207 1.008.197.983.19.986.82.966.772.987.784.972.732.307.787.35l.02.17-.02-.01L.95.407C.954.477.832.171.834.19.734.058.472.09.328.09zm0-.003c.147-.002.41-.044.52.092.003 0 .117.232.12.233C.995.423.803.523.8.531.781.545.784.545.782.522L.763.352.787.351.79.987v.01H.78C.774.99.19 1 .193.986.206.983.168.303.218.347.218.354.19.54.19.54.186.539.036.422.028.417c.084-.192.071-.274.3-.33z"/><path class="cls-3" d="M.362.986H.274v-.88l.083-.02.005.9z"/><path class="cls-1" d="M.363.987.27.99C.254.693.277.397.267.1l.1-.025C.374.381.37.692.362.987zM.36.985C.36.691.32.337.36.095c0 0-.106.03-.078.011-.013.288.02.605-.007.876L.36.985z"/><path class="cls-3" d="M.615.986h.093v-.88L.62.086l-.005.9z"/><path class="cls-1" d="M.616.985.708.982C.68.712.714.393.7.106.73.126.616.092.617.096.657.335.615.691.616.985zM.614.987A16.367 16.367 0 0 1 .61.075C.618.08.72.093.715.106.701.398.735.705.708.99L.614.987z"/><path class="cls-3" d="M.65.986h.022v-.88l-.02-.02-.002.9z"/><path class="cls-1" d="M.65.986c.05.05.006-.882.019-.88C.675.116.649.09.649.09.667.066.645.99.65.986zm0 0C.656.98.635.058.654.084c.001.003.023.02.022.022-.014.012.029.939-.026.88z"/><path class="cls-3" d="M.328.986h-.02v-.88l.02-.02v.9z"/><path class="cls-1" d="M.329.986C.277 1.04.318.101.304.106c0-.002.02-.02.02-.022.019-.029 0 .9.005.902zm-.001 0C.333.985.312.07.33.09c0 0-.024.025-.019.016.012.004-.029.921.017.88z"/><path class="cls-3" d="m.364.023.253.006-.125.14L.364.023z"/><path class="cls-1" d="M.363.022c.068 0 .2-.02.256.01L.501.176l-.008.01C.44.136.403.07.363.023zm.003.002C.393.062.529.159.483.16l.13-.134C.557.053.454.026.367.024z"/><g><path class="cls-2" d="M.413.261.617.03l.04.053L.57.253.365.023.328.088.413.26z"/><path class="cls-1" d="M.413.26C.486.176.543.086.618.015l.006.008.04.059a1.893 1.893 0 0 0-.088.174C.571.268.572.268.564.258L.355.031.375.03.338.093C.33.05.414.268.413.26zm0 .003L.318.093.316.088.319.082l.043-.08.012.013.2.233L.564.25C.597.197.627.12.652.086L.609.034C.606.097.46.194.413.263z"/></g><g><path class="cls-2" d="M.495.989V.177"/><path class="cls-1" d="M.493.989C.486.72.471.44.496.177.51.446.51.725.493.989z"/></g><path class="cls-1" d="M.47.377C.454.406.458.395.436.377c.01-.022.028-.021.036 0zm0 0C.452.363.457.37.444.377c.008.014.01.012.026 0zM.47.54C.454.568.458.556.436.54.445.516.463.517.47.54zm0 0C.452.525.457.53.444.54c.008.013.01.011.026 0zM.47.731C.454.76.458.75.436.731.445.71.463.71.47.731zm0 0C.452.717.457.723.444.731c.008.013.01.012.026 0z"/></svg>