<svg id="Capa_1" data-name="Capa 1" xmlns="http://www.w3.org/2000/svg" version="1.1" viewBox="0 0 1 1"><defs><style>.cls-1,.cls-2{fill:#000;stroke-width:0}.cls-2{fill:#747772}</style></defs><path style="fill:#00599f;stroke-width:0" d="m.277.013.398.002.12.968H.648L.494.271l-.11.71H.222L.277.013z"/><path class="cls-1" d="M.276.012C.282.017.682.002.68.015L.8.983l.001.005H.648C.645.987.644.986.644.983.654.982.458.244.502.273.492.294.407.983.383.99.378.985.193 1.005.213.98L.276.011zm.002.002L.233.98C.183.957.387.977.383.971c-.03.05.112-.71.104-.7C.494.224.49.217.502.27l.15.712C.627.978.822.972.79.984L.67.016C.698.026.272.011.278.014z"/><path class="cls-1" d="M.447.02C.462.103.42.226.496.262L.485.271.5.013C.513.018.445.02.447.02zm0 0S.507.008.505.013L.504.272v.012C.394.254.458.101.447.02z"/><path class="cls-2" d="M.277.059h.398"/><path class="cls-1" d="M.277.059C.41.046.543.046.675.059a2.325 2.325 0 0 1-.398 0s.133.01 0 0z"/><path class="cls-1" d="M.263.18C.334.178.397.133.403.06.424.137.337.203.264.18c0 0 .073.023 0 0zM.694.18C.62.205.538.136.557.06c.007.07.065.118.135.122 0 0-.07-.004 0 0z"/><path d="M.492.036C.492.044.49.052.481.052S.46.045.46.036.47.02.479.02s.014.007.014.016z" style="fill:#fcff2a;stroke-width:0"/><path class="cls-1" d="M.493.036C.5.06.463.06.46.037.47.012.483.013.493.036zm-.001 0C.479.027.478.02.472.03c-.024.01.02.03.02.005z"/><path class="cls-2" d="M.567.014v.045"/><path class="cls-1" d="M.568.014C.57.028.576.047.566.059A.06.06 0 0 1 .568.014z"/><g><path class="cls-2" d="M.595.014.594.059"/><path class="cls-1" d="M.595.014C.597.028.603.047.593.059A.06.06 0 0 1 .595.014z"/></g><g><path class="cls-2" d="M.357.014.356.059"/><path class="cls-1" d="M.357.014C.36.028.365.047.356.059A.06.06 0 0 1 .356.014z"/></g><g><path class="cls-2" d="M.384.014.383.059"/><path class="cls-1" d="M.385.014C.387.028.392.047.383.059A.06.06 0 0 1 .384.014z"/></g></svg>