<svg version="1.0" xmlns="http://www.w3.org/2000/svg" viewBox="0 0 2.5 1" xml:space="preserve"><path fill="#EB1C24" d="M2.491.37c-.068.006-.096.03-.107.098-.016.088-.03.178-.067.262a.388.388 0 0 1-.335.241.51.51 0 0 1-.298-.048.522.522 0 0 1-.198-.192C1.447.666 1.412.598 1.374.532A.277.277 0 0 0 1.32.46c-.037-.035-.084-.035-.121 0a.341.341 0 0 0-.056.075c-.046.08-.086.166-.142.241a.463.463 0 0 1-.389.2.474.474 0 0 1-.253-.06.425.425 0 0 1-.172-.224C.159.618.148.54.134.463.124.407.1.381.045.372.032.37.028.366.028.353a3.456 3.456 0 0 0 0-.144c0-.015.006-.019.019-.02l.06-.007A.271.271 0 0 0 .206.148.898.898 0 0 1 .995.105a.278.278 0 0 1 .088.067.24.24 0 0 0 .353 0 .403.403 0 0 1 .241-.12.898.898 0 0 1 .628.09.343.343 0 0 0 .15.045l.036.005V.37z"/><path d="M2.492.372c-.082-.003-.104.069-.113.136-.034.623-.803.634-.987.096-.033-.057-.064-.122-.111-.149-.168.007-.209.337-.365.426-.21.164-.586.144-.714-.121C.121.638.173.412.026.386-.01.349.015.275.007.221-.009.216.03.153.05.167.415.056.552-.072.983.078c.129.072.204.187.339.136.371-.329.753-.183 1.169-.028l.005.001v.005l-.004.18zM2.489.368c-.001.005-.008-.199.001-.171-.463-.147-.743-.27-1.154.065-.157.064-.28-.093-.373-.141A.89.89 0 0 0 .208.17C.056.24.038.149.047.322.041.371.038.342.091.367.203.49.158.629.227.748c.108.249.48.286.676.117.159-.094.185-.458.39-.443.07.039.097.108.133.162.118.392.731.549.891.114.043-.09.03-.338.172-.33z"/><path fill="#C1262C" d="M2.352.411a.722.722 0 0 1-.073.324.339.339 0 0 1-.214.172.542.542 0 0 1-.155.021.433.433 0 0 1-.302-.126.693.693 0 0 1-.202-.401c-.011-.064.016-.122.057-.171a.389.389 0 0 1 .248-.125c.071-.011.142-.021.214-.018.1.004.198.015.289.066.075.042.12.103.133.188.003.02.004.042.005.07zm-.856.141a.535.535 0 0 0 .119.193.36.36 0 0 0 .203.124.433.433 0 0 0 .168.006.312.312 0 0 0 .263-.193.683.683 0 0 0 .049-.293.215.215 0 0 0-.13-.202.534.534 0 0 0-.255-.053.796.796 0 0 0-.147.009.44.44 0 0 0-.188.058c-.076.047-.125.114-.121.207.002.05.019.098.039.144zM.621.1c.097.006.194.009.287.043a.312.312 0 0 1 .177.152c.03.058.024.117.008.176a.713.713 0 0 1-.139.276.426.426 0 0 1-.263.16.46.46 0 0 1-.276-.034C.308.824.252.734.221.625A.817.817 0 0 1 .201.32.226.226 0 0 1 .325.164.534.534 0 0 1 .55.105C.574.103.598.1.621.1zM.543.874c.03.008.061.006.091.005A.363.363 0 0 0 .88.778.625.625 0 0 0 1.064.44c.008-.029.016-.06-.002-.09A.226.226 0 0 0 .927.191a.142.142 0 0 0-.041-.02.78.78 0 0 0-.225-.037C.624.133.586.129.548.139a.426.426 0 0 0-.189.047.222.222 0 0 0-.115.122C.225.356.229.407.231.457a.6.6 0 0 0 .033.189.314.314 0 0 0 .076.129.297.297 0 0 0 .203.099z"/><path fill="#2C302B" d="M1.063.35A.226.226 0 0 0 .928.191a.142.142 0 0 0-.041-.02.78.78 0 0 0-.225-.037C.624.133.586.129.548.139a.426.426 0 0 0-.189.047.222.222 0 0 0-.115.122C.225.356.229.407.231.457a.6.6 0 0 0 .033.189.314.314 0 0 0 .076.129.296.296 0 0 0 .203.1c.03.008.061.006.091.005A.369.369 0 0 0 .88.778.625.625 0 0 0 1.064.44c.008-.028.016-.06-.001-.09zM2.169.187a.522.522 0 0 0-.255-.052.796.796 0 0 0-.147.009.426.426 0 0 0-.189.057c-.076.047-.125.114-.121.207a.4.4 0 0 0 .039.144.535.535 0 0 0 .119.193.36.36 0 0 0 .203.124.433.433 0 0 0 .168.006.312.312 0 0 0 .263-.193.68.68 0 0 0 .049-.293.214.214 0 0 0-.129-.202z"/><path fill="#565955" d="M2.169.187 2.15.208l-.516.516c-.006.007-.012.015-.019.021a.535.535 0 0 1-.119-.193l.397-.395a.48.48 0 0 0 .021-.023c.088 0 .175.011.255.053zM1.818.869l.011-.013L2.285.4l.013-.011a.655.655 0 0 1-.049.293.312.312 0 0 1-.263.193.433.433 0 0 1-.168-.006zM.548.139C.586.129.625.133.663.135a.78.78 0 0 1 .225.037c.014.005.028.01.041.02a.195.195 0 0 0-.023.017C.725.392.543.573.361.755a.2.2 0 0 1-.022.019.322.322 0 0 1-.074-.128.61.61 0 0 1-.033-.189C.33.359.427.261.526.164L.548.139zM.543.874l.018-.02.483-.483.019-.021c.018.03.009.061.003.091a.626.626 0 0 1-.185.338.366.366 0 0 1-.247.101C.603.88.573.883.543.874z"/><path d="M1.063.35C1.018.073.241.068.258.374c-.06.719.821.588.805-.024zm0 0c.069.501-.708.811-.834.238C.163.31.257.152.547.127c.173 0 .464.003.516.223z"/><g><path d="M2.169.187c-.433-.149-.951.058-.536.543.46.442.898-.307.536-.543zm0 0c.214.102.149.426.038.588-.148.174-.467.162-.61-.014-.407-.523.097-.751.572-.574z"/></g></svg>