<?xml version="1.0" encoding="UTF-8"?>
<svg id="Layer_1" data-name="Layer 1" xmlns="http://www.w3.org/2000/svg" xmlns:xlink="http://www.w3.org/1999/xlink" version="1.1" viewBox="0 0 1.0393 1">
  <defs>
    <style>
      .cls-1 {
        stroke-width: .0053px;
      }

      .cls-1, .cls-2, .cls-3, .cls-4, .cls-5, .cls-6 {
        stroke-miterlimit: 10;
      }

      .cls-1, .cls-7, .cls-4, .cls-5, .cls-6 {
        fill: none;
      }

      .cls-1, .cls-3, .cls-4, .cls-5, .cls-6 {
        stroke: #f1d473;
      }

      .cls-8 {
        fill: #f6dc76;
      }

      .cls-8, .cls-9, .cls-10, .cls-7, .cls-11, .cls-12, .cls-13, .cls-14, .cls-15, .cls-16, .cls-17, .cls-18, .cls-19, .cls-20, .cls-21, .cls-22, .cls-23, .cls-24, .cls-25, .cls-26, .cls-27, .cls-28 {
        stroke-width: 0px;
      }

      .cls-9 {
        fill: #ccc13a;
      }

      .cls-10 {
        fill: #ddbe3c;
      }

      .cls-2 {
        stroke: #231f20;
        stroke-width: .0012px;
      }

      .cls-2, .cls-25 {
        fill: #fff;
      }

      .cls-29 {
        clip-path: url(#clippath);
      }

      .cls-11 {
        fill: #74b749;
      }

      .cls-12 {
        fill: #fce790;
      }

      .cls-13 {
        fill: #f4d65b;
      }

      .cls-14 {
        fill: #9b2c3a;
      }

      .cls-15 {
        fill: #992d3a;
      }

      .cls-30 {
        clip-path: url(#clippath-1);
      }

      .cls-31 {
        clip-path: url(#clippath-4);
      }

      .cls-32 {
        clip-path: url(#clippath-3);
      }

      .cls-33 {
        clip-path: url(#clippath-2);
      }

      .cls-34 {
        clip-path: url(#clippath-7);
      }

      .cls-35 {
        clip-path: url(#clippath-8);
      }

      .cls-36 {
        clip-path: url(#clippath-6);
      }

      .cls-37 {
        clip-path: url(#clippath-5);
      }

      .cls-38 {
        clip-path: url(#clippath-9);
      }

      .cls-3, .cls-20 {
        fill: #e2383e;
      }

      .cls-3, .cls-6 {
        stroke-width: .0047px;
      }

      .cls-16 {
        fill: #000;
      }

      .cls-39 {
        clip-path: url(#clippath-20);
      }

      .cls-40 {
        clip-path: url(#clippath-21);
      }

      .cls-41 {
        clip-path: url(#clippath-14);
      }

      .cls-42 {
        clip-path: url(#clippath-13);
      }

      .cls-43 {
        clip-path: url(#clippath-12);
      }

      .cls-44 {
        clip-path: url(#clippath-10);
      }

      .cls-45 {
        clip-path: url(#clippath-15);
      }

      .cls-46 {
        clip-path: url(#clippath-17);
      }

      .cls-47 {
        clip-path: url(#clippath-16);
      }

      .cls-48 {
        clip-path: url(#clippath-19);
      }

      .cls-49 {
        clip-path: url(#clippath-11);
      }

      .cls-50 {
        clip-path: url(#clippath-18);
      }

      .cls-4 {
        stroke-width: .0049px;
      }

      .cls-17 {
        fill: #0059c7;
      }

      .cls-18 {
        fill: #ed4146;
      }

      .cls-19 {
        fill: #771c23;
      }

      .cls-21 {
        fill: #01cdf1;
      }

      .cls-5 {
        stroke-width: .0046px;
      }

      .cls-22 {
        fill: #d1d0cf;
      }

      .cls-23 {
        fill: #d1b026;
      }

      .cls-24 {
        fill: #fffa94;
      }

      .cls-26 {
        fill: #231f20;
      }

      .cls-27 {
        fill: #f1d473;
      }

      .cls-28 {
        fill: #51161d;
      }
    </style>
    <clipPath id="clippath">
      <path class="cls-7" d="M.134.0165l.6476.029s.024-.0056.0523.0162.0663.0672.0734.1016c.0071.0344.1115.5654.1115.5654,0,0,.0183.099-.004.1348-.0234.0375-.0435.0597-.0774.0682-.028.007-.6264.0507-.6264.0507,0,0-.0613.0028-.1038-.0334,0,0-.0436-.0402-.0613-.1381S.0383.1728.0383.1566c0-.0057-.0121-.0377.0056-.0685.0177-.0308.0288-.0649.0901-.0716Z"/>
    </clipPath>
    <clipPath id="clippath-1">
      <path class="cls-7" d="M.0421.13c.0097,0,.0361-.0117.0527-.0249.027-.0216.0532-.0412.0826-.0406,0,0,.0477-.0063.0826.026.0104.0097.0232.0171.0349.0054.0066-.0066.0426-.0332.0745-.0306.0319.0026.055.0144.0831.0396s.0475.0103.0539.0055c.0145-.0108.0638-.0616.1227-.028.049.028.0531.0321.0547.0332.0092.0063.0301-.0534.0913-.0234.0272.0134.044.0367.0462.0362.0184-.0047.0484-.064.1184-.0524l.0223.1177L.0257.2334.0024.0986s.0082.0053.0165.0135c.0083.0082.0163.018.0232.018h0Z"/>
    </clipPath>
    <clipPath id="clippath-2">
      <path class="cls-7" d="M.1392.1386s.0096-.0075.0153-.0017.0123.018-.003.0272c0,0,.0173.0163.0206.018.0033.0016.0169.0099.0309-.0017s.0335-.0297.0519-.0368l-.0091-.0036s-.0096-.0048-.0163-.0037l-.0066.001s-.0189-.0275-.0388-.0153c-.0003.0003-.0129-.0228-.0279-.0177,0,0-.0106.0037-.009.016,0,0-.0176-.0054-.0236.0065,0,.0007-.0076.0146.0063.0217l.0093-.0099Z"/>
    </clipPath>
    <clipPath id="clippath-3">
      <path class="cls-7" d="M.8005.1691s-.0554-.0562-.1135-.0573c0,0-.0255-.0011-.0608.0256-.0353.0267-.0451.0306-.0451.0306l-.0723-.0345s-.0277-.0354-.0679-.0339c-.0304.0011-.0391.0228-.1.0734l.0152.0446s.1348.0284.1361.0318c.0013.0033.3311-.0184.3305-.0179s-.0223-.0623-.0223-.0623h.0001Z"/>
    </clipPath>
    <clipPath id="clippath-4">
      <path class="cls-7" d="M-.0506.1794c.0102,0,.0234-.0145.0408-.0284.0285-.0227.0416-.0369.0752-.0369.0128,0,.0632.0143.1.0484.011.0103.0138.004.0261-.0083.0069-.007.0449-.043.0786-.0402.0337.0028.0532.0092.0828.0357s.0977.0167.1054.0134c.0282-.0122.0582-.0595.1146-.0267.0201.0117.0614.0434.0717.049.0255.0139.0096.0051.0532.0506.0381.0397.05-.0328.1154-.083.016-.0123.0487-.0366.0949-.0043l.0299.1013L-.068.2884l-.0245-.1422s.0087.0056.0174.0142.0172.019.0245.019Z"/>
    </clipPath>
    <clipPath id="clippath-5">
      <path class="cls-7" d="M.086.2066s-.0139-.004-.0188.0034c-.0049.0074-.009.0212.0122.0249,0,0-.0155.0213-.019.024s-.0172.015-.0375.0086-.0495-.0173-.0739-.018l.0098-.0065s.01-.0077.0183-.0089l.0083-.0012s.014-.0325.0417-.0274c.0005.0002.0083-.026.0278-.0261,0,0,.0139,0,.0158.0123,0,0,.0194-.011.0303-.0016.0002.0005.0138.0114-.0007.0228,0,0-.0143-.0063-.0143-.0063Z"/>
    </clipPath>
    <clipPath id="clippath-6">
      <path class="cls-7" d="M.444.1675s.0096-.0075.0153-.0017.0123.018-.003.0272c0,0,.0173.0163.0206.018s.0169.0099.0309-.0017c.014-.0116.0335-.0297.0519-.0368l-.0091-.0036s-.0096-.0048-.0163-.0037l-.0066.001s-.0189-.0275-.0388-.0153c-.0003.0003-.0129-.0228-.0279-.0177,0,0-.0106.0037-.009.016,0,0-.0176-.0054-.0236.0065,0,.0007-.0076.0146.0063.0217,0,0,.0093-.0099.0093-.0099Z"/>
    </clipPath>
    <clipPath id="clippath-7">
      <path class="cls-7" d="M.919.1826s-.0254-.0161-.0631.0113c-.0411.03-.0388.0125-.0543,0-.0148-.0119-.0611-.0446-.1135.0009-.0092.008-.0124.0074-.0299-.0031-.0368-.0218-.0703-.0456-.1401.0056,0,0-.0347.0302-.0487.0102-.014-.02-.0554-.0465-.0975-.0442,0,0-.0277.0023-.0598.025s-.0266.0113-.041-.0023c-.0144-.0135-.0742-.0647-.1584.0045,0,0-.0332.0284-.062.0635l-.0033.0318s.0222.0885.0244.0919c.0022.0034.874-.0488.874-.0488l-.0266-.1463h-.0002Z"/>
    </clipPath>
    <clipPath id="clippath-8">
      <path class="cls-7" d="M.0484.2756s.0299-.0726.0964-.0601.1112.0591.1172.0533c.0992-.0967.1722-.0649.2198.031.0047.0095.0703.0386.1082-.0021.0282-.0303.0497-.0811.102-.0804.0465.0006.0853.0174.1144.039.0226.0168.0353-.0204.0723-.0242.0882-.0092.0945.1205.0847.1249l-.8998.0028s-.0152-.0842-.0152-.0842Z"/>
    </clipPath>
    <clipPath id="clippath-9">
      <path class="cls-7" d="M.4958.3238s.0426-.0625.0859-.0612c.028.0009.0801.0179.1311.0598l-.051.0477-.0575-.0149s-.1085-.0313-.1085-.0313Z"/>
    </clipPath>
    <clipPath id="clippath-10">
      <path class="cls-7" d="M.7041.3231s.0557-.0752.099-.0738c.0265.0008.0731.0279.118.0723.0066-.0089.0182-.0201.0233-.0239l.0124.0887-.1457.003-.1071-.0664h.0001Z"/>
    </clipPath>
    <clipPath id="clippath-11">
      <path class="cls-7" d="M.3545.3082s.0248-.0361.0528-.0345c.028.0016.0732.0218.1241.0636l-.051.0477-.0575-.0149-.0685-.0619h.0001Z"/>
    </clipPath>
    <clipPath id="clippath-12">
      <path class="cls-7" d="M.155.38s-.0105-.0075-.0167-.0017-.0134.018.0033.0272c0,0,.062.019.0649.0217-.0386.0009-.0921.0669-.1257.0439-.0157-.0108-.0319-.079-.0521-.0861l.01-.0036s.0105-.0048.0178-.0037l.0072.001s.0207-.0275.0424-.0153c.0004.0003.0141-.0228.0304-.0177,0,0,.0116.0037.0098.016,0,0,.0192-.0054.0257.0065,0,.0007.0083.0146-.0069.0217l-.0101-.0099Z"/>
    </clipPath>
    <clipPath id="clippath-13">
      <path class="cls-7" d="M.0702.5089s-.0081-.0495.0498-.0539c.028-.0021.1094.0224.1388.0885l-.0626.0422-.0575-.0149s-.0685-.0619-.0685-.0619Z"/>
    </clipPath>
    <clipPath id="clippath-14">
      <path class="cls-7" d="M.1932.4828s.0138.0023.0184.0093c.0046.007.0171.0291-.0006.0345,0,0-.0187.0412-.0221.0433-.0149.0091.0192.033.056.0176.0172-.0072.0467-.0705.0673-.0732l-.0087-.0056s-.009-.007-.0161-.0074l-.0071-.0005s-.0139-.0313-.0371-.0239c-.0004.0002-.0087-.0252-.0253-.0237,0,0-.0118.0012-.0126.0135,0,0-.0171-.0094-.0258.0009-.0001.0007-.0109.0125.0021.0227l.0117-.0075h-.0001Z"/>
    </clipPath>
    <clipPath id="clippath-15">
      <path class="cls-7" d="M.1055.6191l.0772-.0783s.034-.0311.0677-.032c.0262-.0007.0452-.0037.1107.0492l.1821.0082.1085-.0619s.0483-.0605.0939-.0664c.0699-.0089.1165.05.1165.05,0,0,.024-.0351.051-.0365.0394-.0022.0721.0291.0721.0291l.0066.0835-.5404.0471-.351.0558.0051-.0477h0Z"/>
    </clipPath>
    <clipPath id="clippath-16">
      <path class="cls-7" d="M.1523.5742s-.0151,0-.0213.0057-.0185.0278-.0019.0369c0,0,.0671-.005.0701-.0023.013.0121-.0921.0669-.1257.0439-.0157-.0108-.0319-.079-.0521-.0861l.01-.0036s.0105-.0048.0178-.0037l.0072.001s.0207-.0275.0424-.0153c.0004.0003.0028-.0154.0191-.0103,0,0,.0162-.0004.0144.0118,0,0,.0259-.0086.0324.0033,0,.0007.0083.0146-.0069.0217l-.0056-.003h.0001Z"/>
    </clipPath>
    <clipPath id="clippath-17">
      <path class="cls-7" d="M.1062.626c.0214-.0271.0475-.0492.0752-.0536,0,0,.0368-.0047.0876.0094.0136.0038.0349.0054.0592-.0108.0078-.0052.0476-.0358.0708-.0563.0274-.0242.0877-.0141.1586.0498.028.0253.0793.0411.166-.0162.0181-.012.0511-.0746.1036-.0487.0525.0259.0658.0543.0824.0368.0131-.0138.055-.0585.1438-.0022l-.0328.144-.8921.0931s-.0354-.1284-.0222-.145v-.0002Z"/>
    </clipPath>
    <clipPath id="clippath-18">
      <path class="cls-7" d="M.1057.6384s.0666.0009.1078.0467l-.0833.0601-.0245-.1068Z"/>
    </clipPath>
    <clipPath id="clippath-19">
      <path class="cls-7" d="M.7861.5586s.0072-.0093.014-.0048c.0068.0045.016.015.0039.0271,0,0,.0203.0123.0238.0133.0035.001.0184.0061.0287-.008s.0243-.0358.0399-.0466l-.0095-.0016s-.0102-.0026-.0163-.0003l-.006.0024s-.0246-.0229-.0404-.0069c-.0002.0004-.0178-.0195-.0306-.0114,0,0-.0091.0058-.0045.0174,0,0-.0179-.0017-.0206.0111.0002.0007-.0036.0158.0113.0199l.0063-.0115h0Z"/>
    </clipPath>
    <clipPath id="clippath-20">
      <path class="cls-7" d="M.4608.5908s.0604-.015.1062-.0459c.0458-.0309.0818-.0579.1169-.0379.0351.02.0568.0352.0586.041s.0144.0577.0144.0577l-.2913.008-.0049-.0229h0Z"/>
    </clipPath>
    <clipPath id="clippath-21">
      <path class="cls-7" d="M.299.6507s.0399-.0728.0935-.0838c0,0,.0351-.01.0838.0259,0,0,.0283.028.037.0229s.0409-.0409.0663-.0449.0663.015.0877.0369l.1871.013s.0107-.0919.1374-.0569l.0292.1217-.076-.003-.6499-.003.0039-.0289h0Z"/>
    </clipPath>
  </defs>
  <path class="cls-28" d="M.0678.2849l-.0429.0879s-.0149.0101-.0099.0575c.005.0474.0578.36.0578.36,0,0,0,.0389.0215.0558s.1122.0896.1172.0879S.0678.2849.0678.2849Z"/>
  <path class="cls-19" d="M.0438.0881s-.0245.0365-.015.0713.0916.5969.1209.7053c0,0,.0257.1461.1612.1176C.4464.9538.0419.0884.0438.0881Z"/>
  <path class="cls-7" d="M.134.0165l.6476.029s.024-.0056.0523.0162.0663.0672.0734.1016.1115.5654.1115.5654c0,0,.0183.099-.004.1348-.0234.0375-.0435.0597-.0774.0682-.028.007-.6264.0507-.6264.0507,0,0-.0613.0028-.1038-.0334,0,0-.0436-.0402-.0613-.1381S.0383.1728.0383.1566c0-.0057-.0121-.0377.0056-.0685S.0727.0232.134.0165Z"/>
  <g>
    <path class="cls-18" d="M.134.0165l.6476.029s.024-.0056.0523.0162.0663.0672.0734.1016.1115.5654.1115.5654c0,0,.0183.099-.004.1348-.0234.0375-.0435.0597-.0774.0682-.028.007-.6264.0507-.6264.0507,0,0-.0613.0028-.1038-.0334,0,0-.0436-.0402-.0613-.1381S.0383.1728.0383.1566c0-.0057-.0121-.0377.0056-.0685S.0727.0232.134.0165Z"/>
    <g class="cls-29">
      <g>
        <g>
          <g class="cls-30">
            <g>
              <polygon class="cls-20" points="-.0174 .0516 .0153 .2518 .9878 .2108 .9764 .0485 -.0174 .0516"/>
              <path class="cls-6" d="M.0065.1179s.0141.0258.0293.0279c.014.0019.0412-.002.0519-.0101s.0603-.0534.088-.0556c0,0,.0348-.0056.0648.0149.0359.0245.0387.0288.06.0126s.0543-.0387.0979-.0247c.0287.0092.054.0471.0772.0533s.0462-.0214.0656-.0313.0493-.0383.1049.0017c.0373.0269.0497-.0012.0587-.0088,0,0,.0407-.0367.0842.0045.0379.0359.0453.0377.0646.0234s.0509-.046.0993-.0361v.0144s-.0354-.0105-.0668.0135c-.0185.0141-.0379.0307-.0505.0316-.0107.0008-.0414-.0296-.0646-.044,0,0-.0308-.0194-.0619.0078-.02.0174-.0338.0264-.057.0111s-.0452-.0282-.0713-.0237-.0454.0314-.0638.0386c0,0-.0376.0207-.0647,0s-.0492-.0565-.0938-.0457-.0629.0422-.0774.0422c0,0-.0078.0013-.0337-.0182,0,0-.04-.0453-.0936-.011,0,0-.0538.0367-.0848.0454-.0246.0069-.0513.009-.0513.009.0002,0-.0085-.0036-.0192-.009l.0039.0189s.0407.0252.0697-.0036.0895-.0591.1215-.0579c.0232.0009.0514.0209.0798.0327.0368.0153.0503-.0135.0755-.0297,0,0,.0277-.0176.0674.0103s.042.0391.0797.0319c.0377-.0072.062-.027.0745-.0342s.0364-.0161.0701.0111c.0351.0284.053.0125.0799-.01.0244-.0204.058.0012.0831.0228s.0308.0216.0531.0117.0413-.0394.0887-.0411"/>
            </g>
          </g>
          <path class="cls-6" d="M.0421.13c.0097,0,.0361-.0117.0527-.0249.027-.0216.0532-.0412.0826-.0406,0,0,.0477-.0063.0826.026.0104.0097.0232.0171.0349.0054.0066-.0066.0426-.0332.0745-.0306s.055.0144.0831.0396c.0281.0252.0475.0103.0539.0055.0145-.0108.0638-.0616.1227-.028.049.028.0531.0321.0547.0332.0092.0063.0301-.0534.0913-.0234.0272.0134.044.0367.0462.0362.0184-.0047.0484-.064.1184-.0524l.0223.1177L.0257.2334.0024.0986s.0082.0053.0165.0135.0163.018.0232.018h0Z"/>
        </g>
        <g>
          <g>
            <g class="cls-33">
              <g>
                <rect class="cls-20" x=".1128" y=".088" width=".1525" height=".1165"/>
                <path class="cls-6" d="M.1642.127s.0139.0124.0098.0231-.0222.0186-.0222.0186l.0049.0033s.0347-.0018.0277-.0349l.0098.0024s.0087.0166-.0006.0254-.0339.0134-.0339.0134l.0153.0124s.0347-.0133.0342-.0352c0,0,0-.0148-.0087-.0183"/>
              </g>
            </g>
            <path class="cls-6" d="M.1392.1386s.0096-.0075.0153-.0017.0123.018-.003.0272c0,0,.0173.0163.0206.018s.0169.0099.0309-.0017.0335-.0297.0519-.0368l-.0091-.0036s-.0096-.0048-.0163-.0037l-.0066.001s-.0189-.0275-.0388-.0153c-.0003.0003-.0129-.0228-.0279-.0177,0,0-.0106.0037-.009.016,0,0-.0176-.0054-.0236.0065,0,.0007-.0076.0146.0063.0217,0,0,.0093-.0099.0093-.0099Z"/>
          </g>
          <path class="cls-27" d="M.2553.1461s-.0048-.019-.0313-.0124c0,0-.0162-.0259-.0404-.016,0,0-.0084-.0183-.0245-.0188,0,0-.0124-.0041-.0129.0125,0,0-.0157-.0085-.0234-.0018-.0189.0166.0027.0288.0027.0288,0,0,.0033.0033.0114-.0055,0,0,.001-.0092-.0066-.012,0,0-.0061.0012-.0072.0116,0,0-.0091-.0061.0006-.0172,0,0,.0162-.0077.026.0134,0,0,.0094.0075.0157.0014,0,0,.0019-.0047-.0013-.0082-.0019-.0021-.0093-.0051-.0133-.001,0,0-.003-.0058.0027-.0104.0084-.0069.0255.0067.0269.0155,0,0-.001.0163.0103.0187.0084.0018.0109-.0007.0126-.0037s-.0023-.0085-.0076-.0085-.0063.0034-.0063.0034c0,0-.0053-.0027-.003-.0082s.0176-.0054.0262.0068l.0056.0095s.0007.0024.003.0034.0023-.0058.0066-.0071.0182-.001.0202.0095c0,0,.0073-.0037.0073-.0037Z"/>
          <path class="cls-6" d="M.2032.141l-.0188-.0039-.0007-.0194s.0348.002.0392.0196c0,0-.0078.0146.0037.0229"/>
          <circle class="cls-27" cx=".0944" cy=".1203" r=".0071"/>
          <circle class="cls-27" cx=".2277" cy=".1207" r=".0055"/>
        </g>
        <g>
          <path class="cls-20" d="M.8005.1691s-.0554-.0562-.1135-.0573c0,0-.0255-.0011-.0608.0256s-.0451.0306-.0451.0306l-.0723-.0345s-.0277-.0354-.0679-.0339c-.0304.0011-.0391.0228-.1.0734l.0152.0445s.1348.0285.1361.0318c.0013.0033.3311-.0184.3305-.0179s-.0223-.0623-.0223-.0623h.0001Z"/>
          <g class="cls-32">
            <path class="cls-6" d="M.813.1897s-.0695-.0562-.0929-.0629c0,0-.0359-.0111-.0657.0095-.0298.0206-.05.0373-.05.0373l-.1054-.0362s-.0244-.0267-.0538-.0234-.0614.0467-.0782.0567l.0228.0039s.0315-.0473.0608-.0462.0484.0398.0484.0398l.1238.0097s.0462-.0423.0771-.0417.0913.0529.0913.0529l-.0315-.0122s-.0359-.0306-.0625-.0278c0,0-.0304.0017-.0652.0445"/>
          </g>
          <path class="cls-6" d="M.8005.1691s-.0554-.0562-.1135-.0573c0,0-.0255-.0011-.0608.0256s-.0451.0306-.0451.0306l-.0723-.0345s-.0277-.0354-.0679-.0339c-.0304.0011-.0391.0228-.1.0734l.0152.0445s.1348.0285.1361.0318c.0013.0033.3311-.0184.3305-.0179s-.0223-.0623-.0223-.0623h.0001Z"/>
        </g>
        <g>
          <g class="cls-31">
            <g>
              <polygon class="cls-20" points="-.114 .1002 -.0795 .3113 .9463 .2681 .9343 .0969 -.114 .1002"/>
              <path class="cls-4" d="M-.0882.1665s.0149.0272.031.0294c.0147.0021.0301-.0128.0413-.0213s.0262-.0432.0719-.0466c0,0,.0336-.0036.07.0244.0432.0333.047.0361.0595.0272.023-.0164.0594-.0697.1054-.0545s.0738.0568.0983.0634.0833-.0224.1038-.0328c.0205-.0104.0349-.0432.0935-.001.0394.0284.0812.0596.0906.0516,0,0,.0054-.064.0565-.0289s.059.0078.0785-.0085c.0225-.0188.0481-.0455.097-.0054l-.0005.0089s-.0407-.0354-.0739-.01c-.0195.0149-.0348.0389-.0522.0395-.0113.0004-.0357-.0358-.0602-.051,0,0-.0194.0207-.0522.0493-.021.0184-.0519-.0142-.0764-.0304s-.0345-.0256-.0621-.0208-.0505.0317-.086.0351c0,0-.0696.0073-.0982-.0145s-.0549-.0445-.0875-.0323c-.032.012-.0699.0628-.0873.0565,0,0-.0082.0013-.0355-.0192,0,0-.0587-.0567-.1152-.0206C.0219.154.0055.1756-.0221.2021c-.0196.0189-.0541.0095-.0541.0095,0,0-.0092-.0038-.0204-.0095l.0041.0199s.0429.0265.0735-.0038.0604-.0644.0942-.0631c.0245.0009.0588.0349.0888.0474.0388.0161.0583-.0278.0848-.0449,0,0,.0317-.0246.0735.0047s.066.0501.1058.0426.0629-.0177.0762-.0253c.0133-.0076.0362-.0335.0739-.0079s.0473.0357.0749.0168.0558-.0367.0823-.0139.0496.0423.0731.0319.0412-.0647.0906-.0274"/>
            </g>
          </g>
          <path class="cls-4" d="M-.0506.1794c.0102,0,.0234-.0145.0408-.0284.0285-.0227.0416-.0369.0752-.0369.0128,0,.0632.0143.1.0484.011.0102.0138.004.0261-.0083.0069-.007.0449-.043.0786-.0402.0337.0028.0532.0092.0828.0357.0296.0265.0977.0167.1054.0134.0282-.0122.0582-.0595.1146-.0267.0201.0117.0614.0434.0717.049.0255.0139.0096.0051.0532.0506.0381.0397.05-.0328.1154-.083.016-.0123.0487-.0366.0949-.0043l.0299.1013L-.068.2884l-.0245-.1422s.0087.0056.0174.0142.0172.019.0245.019Z"/>
        </g>
        <g>
          <g>
            <g class="cls-37">
              <g>
                <polygon class="cls-20" points="-.0442 .3111 .1385 .2607 .1017 .1496 -.0811 .1999 -.0442 .3111"/>
                <path class="cls-1" d="M.0524.2038s-.0127.0164-.0045.0252.0325.0104.0325.0104l-.0048.0048s-.0421.0097-.0443-.0241l-.011.0055s-.0051.0187.0087.0241c.0138.0054.0449.0016.0449.0016l-.0145.0169s-.0459-.0012-.0521-.0223c0-.0002-.0046-.0143.0047-.0205"/>
              </g>
            </g>
            <path class="cls-1" d="M.086.2066s-.0139-.004-.0188.0034-.009.0212.0122.0249c0,0-.0155.0213-.019.024s-.0172.015-.0375.0086-.0495-.0173-.0739-.018l.0098-.0065s.01-.0077.0183-.0089l.0083-.0012s.014-.0325.0417-.0274c.0005.0002.0083-.026.0278-.0261,0,0,.0139,0,.0158.0123,0,0,.0194-.011.0303-.0016.0002.0006.0138.0114-.0007.0228,0,0-.0143-.0063-.0143-.0063Z"/>
          </g>
          <path class="cls-27" d="M-.0508.2521s-.0002-.0198.0335-.0221c0,0,.0112-.0302.0434-.0287,0,0,.0043-.0202.0235-.0261,0,0,.0176-.0051.0235.0105,0,0,.0201-.0061.0292.0004.0157.0112.0053.0248.0053.0248,0,0-.0093.0123-.0218.0066,0,0-.0104-.008-.0023-.0132,0,0,.0099-.0062.0145.0035,0,0,.0112-.0086-.0039-.0159,0,0-.0139-.0015-.0239.0087,0,0-.0089.0103-.0184.0065,0,0-.0037-.0038-.001-.0082.0017-.0026.0095-.0079.0156-.0054,0,0,.0018-.0065-.0065-.0091-.0122-.0039-.0285.0148-.0273.0237,0,0,.0064.0152-.0064.0212-.0095.0044-.0133.003-.0163.0006s0-.0089.0065-.0106.0086.0012.0086.0012c0,0,.0055-.0043.001-.0088s-.0228.0006-.0293.0151l-.0038.0109s0,.0025-.0025.0042-.0046-.0047-.0102-.0046-.0222.0051-.0213.0158l-.0099-.0012.0002.0002Z"/>
          <path class="cls-1" d="M.01.23l.0214-.0099-.0052-.0188s-.0411.0134-.0408.0316c0,0,.0139.0114.0027.0231"/>
          <circle class="cls-27" cx=".0779" cy=".1709" r=".0059"/>
          <circle class="cls-27" cx="-.0258" cy=".2188" r=".0067"/>
        </g>
        <g>
          <g>
            <g class="cls-36">
              <g>
                <rect class="cls-20" x=".4176" y=".1168" width=".1525" height=".1165"/>
                <path class="cls-6" d="M.469.1559s.0139.0124.0098.0231-.0222.0186-.0222.0186l.0049.0033s.0347-.0018.0277-.0349l.0098.0024s.0087.0166-.0006.0254-.0339.0134-.0339.0134l.0153.0124s.0347-.0133.0342-.0352c0,0,0-.0148-.0087-.0183"/>
              </g>
            </g>
            <path class="cls-6" d="M.444.1675s.0096-.0075.0153-.0017.0123.018-.003.0272c0,0,.0173.0163.0206.018s.0169.0099.0309-.0017c.014-.0116.0335-.0297.0519-.0368l-.0091-.0036s-.0096-.0048-.0163-.0037l-.0066.001s-.0189-.0275-.0388-.0153c-.0003.0003-.0129-.0228-.0279-.0177,0,0-.0106.0037-.009.016,0,0-.0176-.0054-.0236.0065,0,.0007-.0076.0146.0063.0217,0,0,.0093-.0099.0093-.0099Z"/>
          </g>
          <path class="cls-27" d="M.5601.1749s-.0048-.019-.0313-.0124c0,0-.0162-.0259-.0404-.016,0,0-.0084-.0183-.0245-.0188,0,0-.0147-.0002-.0153.0163,0,0-.0169-.0005-.0222.0082-.0092.0149.0022.0253.0022.0253,0,0,.0102.0094.0183.0006,0,0,.0059-.0105-.0016-.0132,0,0-.0092-.0033-.0102.0072,0,0-.0107-.0053-.001-.0163,0,0,.0103-.0051.0204.002,0,0,.0094.0075.0157.0014,0,0,.0019-.0047-.0013-.0082-.0019-.0021-.0093-.0051-.0133-.001,0,0-.003-.0058.0027-.0104.0084-.0069.0255.0067.0269.0155,0,0-.001.0163.0103.0187.0084.0018.0109-.0007.0126-.0037s-.0023-.0085-.0076-.0085-.0063.0034-.0063.0034c0,0-.0053-.0027-.003-.0082s.0176-.0054.0262.0068l.0056.0095s.0007.0024.003.0034.0023-.0058.0066-.0071.0182-.001.0202.0095l.0073-.0037v-.0003Z"/>
          <path class="cls-6" d="M.508.1698l-.0188-.0039-.0007-.0194s.0348.002.0392.0196c0,0-.0078.0146.0037.0229"/>
          <circle class="cls-27" cx=".4106" cy=".1515" r=".0071"/>
          <circle class="cls-27" cx=".4154" cy=".1301" r=".0055"/>
          <circle class="cls-27" cx=".5325" cy=".1496" r=".0055"/>
        </g>
        <circle class="cls-8" cx=".6943" cy=".0882" r=".0058"/>
        <circle class="cls-8" cx=".1927" cy=".0952" r=".0058"/>
        <circle class="cls-8" cx=".2769" cy=".0766" r=".0076"/>
        <circle class="cls-8" cx=".2134" cy=".6592" r=".0076"/>
        <circle class="cls-8" cx=".6794" cy=".0972" r=".0056"/>
        <circle class="cls-8" cx=".1614" cy=".0857" r=".0056"/>
        <g>
          <path class="cls-20" d="M.919.1826s-.0254-.0161-.0631.0113c-.0411.03-.0388.0125-.0543,0-.0148-.0119-.0611-.0446-.1135.0009-.0092.008-.0124.0075-.0299-.003-.0368-.0218-.0703-.0456-.1401.0055,0,0-.0347.0302-.0487.0102s-.0554-.0465-.0975-.0442c0,0-.0277.0023-.0598.025s-.0266.0113-.041-.0023-.0742-.0647-.1584.0045c0,0-.0332.0284-.062.0635l-.0033.0318s.0222.0885.0244.0919.874-.0488.874-.0488l-.0266-.1463h-.0002Z"/>
          <g class="cls-34">
            <path class="cls-4" d="M.9268.1916s-.0399-.0125-.0698.0216c0,0-.0201.0229-.04.0144s-.0252-.0414-.0713-.0442c-.0021.0007-.0295-.0017-.0729.0435,0,0-.0401-.0484-.0849-.0449s-.0978.0536-.0978.0536l-.0152-.0021s-.0447-.0622-.0951-.0593c-.0365.0021-.0944.0522-.0944.0522,0,0-.0358-.0607-.0999-.0564,0,0-.0627.0155-.1027.0656l.0172.0078s.0524-.0593.0909-.0614.0613.0183.0944.0621c0,0,.0602-.0602.1038-.0555-.0018.0019.0292-.008.0836.0611,0,0-.0163.0219-.0156.0256.0023.0119.0079.0155.0087.0142.0014-.0021.0764-.0952.1226-.0963.0296-.0007.0441.0106.0772.0459.0021,0,.0214-.0042.0214-.0042,0,0,.0406-.0423.0606-.0395,0,0,.0172-.0021.0441.0282.0269.0303.0338.0261.0448.0183s.0469-.0452.0847-.0402l.0028.0092s-.0303-.0035-.0599.0303l-.1474.0198-.0668-.0226s-.0269-.0353-.0655-.0332c0,0-.0391.006-.1068.094l-.0248-.0488-.0331-.0332s-.0269-.0367-.0682-.0028l-.0531.0325-.0393-.0183s-.0517-.0727-.1123-.0049"/>
          </g>
          <path class="cls-6" d="M.919.1826s-.0254-.0161-.0631.0113c-.0411.03-.0388.0125-.0543,0-.0148-.0119-.0611-.0446-.1135.0009-.0092.008-.0124.0075-.0299-.003-.0368-.0218-.0703-.0456-.1401.0055,0,0-.0347.0302-.0487.0102s-.0554-.0465-.0975-.0442c0,0-.0277.0023-.0598.025s-.0266.0113-.041-.0023-.0742-.0647-.1584.0045c0,0-.0332.0284-.062.0635l-.0033.0318s.0222.0885.0244.0919.874-.0488.874-.0488l-.0266-.1463h-.0002Z"/>
        </g>
        <g>
          <path class="cls-20" d="M.0484.2756s.0299-.0726.0964-.0601.1112.0591.1172.0533c.0992-.0967.1722-.0649.2198.031.0047.0095.0703.0386.1082-.0021.0282-.0303.0497-.0811.102-.0804.0465.0006.0853.0174.1144.039.0226.0168.0353-.0204.0723-.0242.0882-.0092.0945.1205.0847.1249l-.8998.0028s-.0152-.0842-.0152-.0842Z"/>
          <g class="cls-35">
            <g>
              <path class="cls-6" d="M.0462.296c.0011-.0034.035-.059.0698-.059.0022,0,.0731-.0238.154.0681l-.0111.0091s-.0864-.0817-.1418-.0635c0,0-.051.017-.062.0737l.0388-.0329s.0354-.0828.1506.0329l-.01.0113c-.0012-.0071-.0825-.0993-.1307-.0352"/>
              <path class="cls-6" d="M.2682.292c.0011-.0034.0224-.0384.0586-.0557.0207-.0099.0556-.0432.1364.0487,0,0-.0129.011-.0158.0078-.0406-.0437-.0654-.0596-.1095-.0452,0,0-.053.0216-.0641.0783,0,0,.0236-.0569.0806-.06.0261-.0014.0635.0389.1013.0473l-.0482-.0395s-.0282-.0254-.0579-.0183"/>
            </g>
          </g>
          <path class="cls-4" d="M.0484.2756s.0299-.0726.0964-.0601.1112.0591.1172.0533c.0992-.0967.1722-.0649.2198.031.0047.0095.0703.0386.1082-.0021.0282-.0303.0497-.0811.102-.0804.0465.0006.0853.0174.1144.039.0226.0168.0353-.0204.0723-.0242.0882-.0092.0945.1205.0847.1249l-.8998.0028s-.0152-.0842-.0152-.0842Z"/>
        </g>
        <g>
          <path class="cls-25" d="M.5721.2454c-.0029,0-.0053.0011-.0067.0031l-.0055-.0239c-.0016-.0069-.0108-.0152-.0169-.0153l-.0252-.0005c-.0018,0-.0032.001-.0037.0026,0,.0002-.0002.0005-.0003.0008-.0003.0007-.0007.0016-.0009.0028-.0045-.0045-.0103-.0071-.0154-.0072l-.0129-.0003c-.0055-.0001-.0083.0033-.0087.0075-.0007-.0008-.0014-.0016-.0022-.0023-.0037-.0035-.0081-.0055-.012-.0056h-.0066c-.0002-.0007-.0004-.0012-.0006-.0017-.0009-.0025-.0019-.0053-.0038-.0079-.0027-.0037-.0064-.0057-.0104-.0058-.0018,0-.0045.0006-.0066.0024-.0027.0023-.0037.0059-.0028.01l.0014.006c-.004-.0029-.0083-.0043-.0116-.0044h-.005c-.0047-.0002-.0122.0038-.0161.0111v-.0002c-.0018-.0074-.008-.0127-.0152-.0129-.0036,0-.0061.001-.0076.0031-.0009.0012-.0012.0027-.0013.0041-.0024-.0044-.0071-.0075-.0123-.0076-.0032,0-.0057.0008-.0073.0024-.0031-.0024-.007-.0039-.0103-.0039-.0054-.0001-.0099.0023-.0126.0068-.0009.0015-.0016.0031-.0021.0049-.0013-.0016-.0028-.0031-.0045-.0044-.004-.0031-.0087-.0049-.0129-.005l-.0129-.0003c-.0044,0-.007.002-.0081.005l-.0003-.0014c-.002-.0088-.0111-.0165-.0172-.0167h-.005c-.0062-.0002-.0086.0046-.0095.0087-.0005.0023-.0007.0049-.0008.0075-.0013-.0026-.0028-.0052-.0045-.0076-.0058-.008-.0119-.0098-.016-.0099-.0047,0-.0085.0018-.0107.0055-.0017.0028-.0023.0065-.0018.0103-.0081-.0044-.0166-.0069-.0248-.007-.026-.0005-.042.0217-.0357.0495.0064.0278.0327.0509.0588.0514.012.0002.0223-.0044.0289-.0132.0062-.0081.0087-.019.0073-.0309.0033.0044.0069.0067.0107.0067.0058,0,.0079-.0046.0086-.0086.0011.0024.0025.0043.0049.0068.0013.0013.0029.0021.0044.0022l.0129.0003c.0016,0,.0029-.0007.0035-.002.0002-.0004.0003-.0009.0004-.0014.003.0025.0065.0046.0103.0057l.0119.0002c.005-.0013.0086-.0044.0105-.0089.0026.0045.0076.0077.0128.0079.0077.0002.0104-.0055.0091-.0112l-.0061-.0263s.0007-.0002.0011-.0003l.0043.0188c.0024.0105.0173.0207.0248.0209h.005c.0039.0002.0084-.002.0116-.0056.0021-.0024.0035-.0051.0041-.0081.0022.0027.0049.0052.008.0077.0072.0057.0149.0093.0203.0094h.005c.0088.0003.0228-.0076.0235-.0238.0002.0011.0005.0022.0008.0034,0,.0005.0002.0011.0004.0016.001.0047.0022.0105.0066.0145.0025.0022.0054.0033.0086.0034.0053,0,.0082-.0037.0089-.0078.0056.0056.0123.0088.0187.0089.0079.0002.0137-.0033.0164-.009.0024.0041.0073.0089.0131.009.006,0,.0094-.0039.0095-.0083.0024.0042.0071.0093.0131.0094.0031,0,.0058-.0011.0075-.0032.0009-.0011.0014-.0023.0017-.0037.0026.0026.006.0044.0094.0044.0059,0,.0095-.0048.0081-.0109-.0014-.0061-.0074-.0112-.0132-.0113l-.0003-.0004ZM.2969.2281l-.0013-.0056c.0011.0013.0023.0024.0036.0033-.0009.0007-.0017.0014-.0024.0023h.0001ZM.4315.2448c-.0027,0-.0087-.0037-.0098-.0086,0-.0004,0-.0007-.0002-.0011.0005.0007.0011.0013.0018.0019.0017.0016.0047.0034.0089.0035.0026,0,.0048-.0006.0065-.0019-.0004.0027-.0028.0062-.0072.0061H.4315ZM.4822.2307l-.0005-.0024s.0004.0004.0007.0006c.0003.0003.0007.0005.001.0008-.0004.0003-.0008.0007-.0012.001Z"/>
          <path class="cls-14" d="M.5733.2508c-.0031,0-.005.0025-.0043.0056.0007.0032.0039.0058.007.0059.0031,0,.005-.0025.0043-.0056-.0007-.0032-.0039-.0058-.007-.0059ZM.5758.2612c-.0025,0-.0051-.0022-.0057-.0047s.001-.0046.0035-.0045c.0025,0,.0051.0022.0056.0047s-.001.0046-.0035.0045h.0001Z"/>
          <path class="cls-15" d="M.4987.2132l-.0129-.0003c-.0059-.0001-.0048.0056-.0046.0065.0011.0048.0052.0073.0084.0074.0038,0,.0039-.0029.0071-.0029.0021,0,.0043.0016.0046.0031.0016.0069-.0217,0-.0172.0194.0009.0039.0095.017.0212.0172.0115.0002.0159-.0084.0136-.0183l-.0042-.0181c-.0021-.0092-.0104-.014-.0161-.0141h0ZM.5054.2469c-.0004.0006-.0009.0024-.0034.0023-.002,0-.0039-.0024-.0042-.0037,0-.0003.0012-.0036.0048-.0035.0008,0,.001.0001.0017,0l.0011.0048h0Z"/>
          <path class="cls-15" d="M.2057.2181c-.0162-.0003-.0262.0131-.0224.0301.0039.0169.0202.0309.0364.0312s.0263-.0131.0224-.03c-.0039-.0169-.0202-.0309-.0364-.0312H.2057ZM.218.2718c-.0118-.0002-.0237-.0107-.0267-.0234-.0015-.0067-.0003-.0127.003-.0168.004.0037.0108.0073.0144.0055,0,0-.0028-.0022-.0029-.0043,0-.001.009.0059.0148.0014,0,0-.0069-.0025-.0083-.0076.0101.0025.0192.0118.0217.0228.0029.0127-.0043.0228-.0161.0226v-.0002Z"/>
          <path class="cls-15" d="M.5442.2147l-.0252-.0005c-.0005.0015-.0015.003-.001.0054l.0087.0373c.0004.0016.0039.0067.0082.0068.0044,0,.0059-.0032.0055-.0053l-.0074-.0319.0089.0002.007.0301c.0003.0013.0037.0079.0086.008.004,0,.006-.0031.0053-.0059l-.008-.0343c-.001-.0041-.0073-.0097-.0106-.0098h0Z"/>
          <path class="cls-15" d="M.2871.2072c-.0013-.0058-.0077-.0111-.0109-.0112h-.005c-.0102-.0003-.0044.0238-.0076.0286-.0052-.0051-.01-.0297-.0233-.03-.0071-.0001-.0097.0061-.0084.012l.0038.0165c.0002.001,0,.0021.0008.0033.0032.0034.006.0073.0082.0114.0019.0036.0033.0073.0042.0112.0047.0205-.0073.0368-.0267.0364-.0195-.0004-.039-.0173-.0437-.0378-.0047-.0205.0073-.0368.0267-.0364.0068.0001.0135.0023.0197.0059.002.0011.0034.0019.0051.003l-.0021-.0089c-.0077-.0048-.0163-.0077-.0249-.0079-.0233-.0005-.0376.0193-.0319.0442.0057.0249.0292.0454.0525.0459.0223.0004.0358-.018.032-.0413,0,0-.005-.0194-.0063-.0317.008.0152.0135.0355.0211.0357.0091.0002.0029-.023.0061-.0359.0024.0078.0071.0277.0071.0277.001.0039.0017.0054.0048.0086l.0129.0003c-.0022-.0046-.005-.0096-.0056-.0123,0,0-.0086-.0373-.0086-.0373Z"/>
          <path class="cls-15" d="M.3856.2091c-.0069-.0001-.0049.0052-.0041.0089l.0053.0229c.0006.0027-.0013.0054-.0032.0053-.0027,0-.005-.0023-.0054-.0043l-.0064-.0277c-.0007-.0031-.0034-.0055-.0074-.0055-.0029,0-.007.0009-.0056.0071l.0067.0289c.0017.0073.0135.0153.0185.0154h.005c.0051.0002.0141-.0064.0118-.0165l-.0063-.0271c-.0009-.0038-.0038-.0073-.0089-.0074H.3856Z"/>
          <path class="cls-15" d="M.4629.2125l-.0101-.0002c-.0039-.0041-.0035-.0151-.0113-.0152-.002,0-.0068.0018-.0056.0071l.0077.0331c.0013.0057-.0029.0131-.0109.013-.0054,0-.0142-.0062-.0161-.0141-.0011-.0047.0005-.0082.0028-.0119h.0028c.0007.0031.0014.0109.0086.011.0062.0001.0076-.0058.0066-.0101-.0025-.011-.0124-.014-.0155-.0141h-.005c-.0045-.0002-.0177.0076-.0143.0224l.0013.0054c.0027.0117.0207.0244.0291.0246h.005c.0072.0002.0217-.0073.0193-.0247-.0002-.0013-.0021-.009-.0032-.0139l.0089.0002c.0003.0023.0023.0093.0054.0235.0014.0063.0023.0138.0094.014.0045,0,.0056-.0049.005-.0071l-.0073-.0313c-.0013-.0055-.0072-.0115-.0127-.0116h0Z"/>
          <path class="cls-15" d="M.3468.2072c-.0088-.0002-.0124.0088-.0111.0148l.0069.0301c.0009.0039.0048.0061.0081.0062.0043,0,.0061-.0026.0053-.0059l-.0069-.0301c.0025-.0022.0094-.0002.0076-.0082-.0008-.0034-.0058-.0067-.0099-.0068H.3468Z"/>
          <path class="cls-15" d="M.3147.2094l-.0129-.0003c-.0059-.0001-.0048.0056-.0046.0065.0011.0048.0052.0073.0084.0074.0037,0,.004-.0029.0071-.0028.0021,0,.0043.0016.0046.0031.0016.0069-.0217,0-.0172.0194.0009.0039.0095.017.0212.0172.0115.0002.0159-.0084.0136-.0183l-.0042-.0181c-.0021-.0092-.0104-.014-.016-.0141ZM.3213.2431c-.0004.0007-.0009.0024-.0034.0023-.002,0-.0039-.0024-.0042-.0037,0-.0003.0012-.0036.0048-.0035.0008,0,.001.0001.0017,0l.0011.0048H.3213Z"/>
          <polygon class="cls-15" points=".2061 .2414 .2038 .2445 .2 .2413 .2023 .2381 .2061 .2414 .2061 .2414"/>
          <polygon class="cls-15" points=".2232 .2417 .2209 .2449 .2171 .2416 .2194 .2385 .2232 .2417 .2232 .2417"/>
          <path class="cls-15" d="M.2018.2484s.0057.003.0138.0022c0,0,.0048-.0005.0068-.0033l.0011-.0012s.0012-.0004.0018.0006c.0007.001,0,.0018,0,.0018,0,0-.0037.0033-.0074.0033,0,0-.0067.0012-.0148-.0021l-.0016-.0006v-.0007h.0003Z"/>
          <polygon class="cls-15" points=".213 .2462 .2138 .2461 .2155 .2472 .2142 .2488 .2106 .2481 .2114 .2459 .213 .2462"/>
          <path class="cls-14" d="M.5766.2578s-.0005-.0005-.0007-.0007c-.0001,0-.0003-.0002-.0005-.0003.0005,0,.0008-.0002.001-.0005s.0002-.0006.0001-.0009c0-.0003-.0002-.0006-.0004-.0008-.0002-.0002-.0004-.0004-.0007-.0005s-.0006-.0002-.0011-.0002h-.0024l.0012.0052h.0007l-.0005-.0023h.0012s.0002,0,.0004,0c.0001,0,.0003.0002.0004.0004.0002.0002.0004.0004.0007.0007l.001.0011h.0009l-.0013-.0014h0ZM.5747.2562h-.0015l-.0004-.0018h.0017s.0007,0,.0009.0003.0004.0004.0004.0006v.0005s-.0002.0002-.0003.0003h-.0008Z"/>
        </g>
        <g>
          <path class="cls-20" d="M.4958.3238s.0426-.0625.0859-.0612c.028.0009.0801.0179.1311.0597l-.051.0477-.0575-.0149s-.1085-.0313-.1085-.0313Z"/>
          <g class="cls-38">
            <path class="cls-6" d="M.5096.3238s.0401-.05.0699-.0492c.027.0007.0699.0082.1245.0544l-.0066.0082s-.0551-.0462-.1049-.0507c-.0299-.0027-.0563.0219-.0721.0462l.0233-.0037s.0429-.0744.146.0214"/>
          </g>
          <path class="cls-6" d="M.4958.3238s.0426-.0625.0859-.0612c.028.0009.0801.0179.1311.0597l-.051.0477-.0575-.0149s-.1085-.0313-.1085-.0313Z"/>
        </g>
        <path class="cls-6" d="M.6283.2724s.02-.0358.0587-.0375c.0533-.0023.0945.0278.0952.0307s.035.0208.0529.0081.0406-.0473.102-.0085l.0014.0127s-.0531-.0367-.093.0049l.0193.0085s.0172-.0381.0751.0042"/>
        <g>
          <path class="cls-20" d="M.7041.3231s.0557-.0752.099-.0738c.0265.0008.0731.0279.118.0723.0066-.0089.0182-.0201.0233-.0239l.0124.0887-.1457.003-.1071-.0664h.0001Z"/>
          <g class="cls-44">
            <path class="cls-6" d="M.7179.3231s.0524-.0589.0765-.0597c.0109-.0003.0415-.0097.1158.0649l-.0117.003s-.0472-.0483-.0969-.0537c-.0138-.0015-.057.0301-.0728.0544"/>
          </g>
          <path class="cls-6" d="M.7041.3231s.0557-.0752.099-.0738c.0265.0008.0731.0279.118.0723.0066-.0089.0182-.0201.0233-.0239l.0124.0887-.1457.003-.1071-.0664h.0001Z"/>
        </g>
        <g>
          <path class="cls-20" d="M.3545.3082s.0248-.0361.0528-.0345.0732.0218.1241.0636l-.051.0477-.0575-.0149-.0685-.0619h.0001Z"/>
          <g class="cls-49">
            <path class="cls-6" d="M.3589.3193s.0233-.0351.0503-.0328.059.0112.1136.0574l-.0066.0082s-.099-.0977-.1413-.0328l.0117.0082s.0189-.058.122.0378"/>
          </g>
          <path class="cls-6" d="M.3545.3082s.0248-.0361.0528-.0345.0732.0218.1241.0636l-.051.0477-.0575-.0149-.0685-.0619h.0001Z"/>
        </g>
        <path class="cls-3" d="M.0394.2725s.0468-.008.0974.0339.0468.0329.0468.0329c0,0,.0175.008.0312-.009s.0555-.0698.1091-.0449.152.0888.152.0888c0,0,.0107.001.0234-.016s.0468-.0688.153.007c0,0,.0585-.0938.1598.007l.0214.014s.0278-.0968.1169-.0489l.0248.1417-.3237.0915-.5619.0646-.0503-.3626h.0001Z"/>
        <path class="cls-6" d="M.5339.5529s.046-.0013.0392-.0515l-.0141-.0063s.0165.0464-.0282.0489l-.008-.0056s.0362-.0025.0251-.042l-.0123.005s.0092.032-.0172.0339c0,0,.0159-.0188.0043-.0238l-.019.0151"/>
        <g>
          <g>
            <g class="cls-43">
              <g>
                <rect class="cls-20" x=".0173" y=".3294" width=".1665" height=".1165"/>
                <path class="cls-4" d="M.1277.3684s-.0151.0124-.0107.0231.0243.0186.0243.0186l-.0053.0033s-.0378-.0018-.0303-.0349l-.0073.0048s-.0072.0141.0029.0229c.0084.0073.075.0459.0935.0429.0013-.0002.0116-.0156.0146-.009.0037.0083-.0763-.0252-.077-.0379-.0004-.008.0906.013.0809.0319l-.0429.0439s-.0873-.051-.0867-.0728c0,0-.0017-.0224.0078-.0259"/>
              </g>
            </g>
            <path class="cls-4" d="M.155.38s-.0105-.0075-.0167-.0017-.0134.018.0033.0272c0,0,.062.019.0649.0217-.0386.0009-.0921.0669-.1257.0439-.0157-.0108-.0319-.079-.0521-.0861l.01-.0036s.0105-.0048.0178-.0037l.0072.001s.0207-.0275.0424-.0153c.0004.0003.0141-.0228.0304-.0177,0,0,.0116.0037.0098.016,0,0,.0192-.0054.0257.0065,0,.0007.0083.0146-.0069.0217l-.0101-.0099Z"/>
          </g>
          <path class="cls-27" d="M.0282.3875s.0053-.019.0341-.0124c0,0,.0177-.0259.0441-.016,0,0,.0091-.0183.0268-.0188,0,0,.0161-.0002.0167.0163,0,0,.0184-.0005.0243.0082.01.0149-.0024.0253-.0024.0253,0,0-.0112.0094-.02.0006,0,0-.0065-.0105.0018-.0132,0,0,.01-.0033.0112.0072,0,0,.0117-.0053.0011-.0163,0,0-.0112-.0051-.0223.002,0,0-.0103.0075-.0172.0014,0,0-.0021-.0047.0014-.0082.0021-.0021.0101-.0051.0145-.001,0,0,.0033-.0058-.0029-.0104-.0092-.0069-.0279.0067-.0293.0155,0,0,.0011.0163-.0112.0187-.0091.0018-.012-.0007-.0138-.0037s.0025-.0085.0083-.0085.0069.0034.0069.0034c0,0,.0058-.0027.0033-.0082s-.0192-.0054-.0286.0068l-.0062.0095s-.0007.0024-.0033.0034-.0025-.0058-.0072-.0071-.0199-.001-.0221.0095l-.008-.0037v-.0003Z"/>
          <path class="cls-4" d="M.085.3824l.0206-.0039.0008-.0194s-.038.002-.0428.0196c0,0,.0085.0146-.0041.0229"/>
          <circle class="cls-27" cx=".1914" cy=".364" r=".0074"/>
          <circle class="cls-27" cx=".1862" cy=".3426" r=".0057"/>
          <circle class="cls-27" cx=".0583" cy=".3621" r=".0057"/>
        </g>
        <g>
          <path class="cls-20" d="M.0702.5089s-.0081-.0495.0498-.0539c.028-.0021.1094.0224.1388.0885l-.0626.0422-.0575-.0149s-.0685-.0619-.0685-.0619Z"/>
          <g class="cls-42">
            <path class="cls-6" d="M.064.5009s.0331-.0311.06-.0289.063.0146.1176.0609l-.0049.0188c-.0036-.0159-.1191-.1164-.1569-.0345l.0104.0025s.0225-.0506.1011.0075c.0092.0068.0192.0151.03.0251l-.0116.0094s-.0509-.0508-.0901-.0458c0,0-.019.0019-.0263.0314"/>
          </g>
          <path class="cls-6" d="M.0702.5089s-.0081-.0495.0498-.0539c.028-.0021.1094.0224.1388.0885l-.0626.0422-.0575-.0149s-.0685-.0619-.0685-.0619Z"/>
        </g>
        <g>
          <g>
            <g class="cls-41">
              <g>
                <polygon class="cls-20" points=".3111 .5781 .1528 .543 .1768 .4292 .3351 .4643 .3111 .5781"/>
                <path class="cls-4" d="M.2389.5198"/>
                <path class="cls-4" d="M.2251.4802c-.0005-.0038.0103.0174.0054.0379-.0027.0112-.0129.0138-.0129.0138l.0283-.0147s.0058-.0315-.0251-.0414"/>
              </g>
            </g>
            <path class="cls-4" d="M.1932.4828s.0138.0023.0184.0093.0171.0291-.0006.0345c0,0-.0187.0412-.0221.0433-.0149.0091.0192.033.056.0176.0172-.0072.0467-.0705.0673-.0732l-.0087-.0056s-.009-.0069-.0161-.0074l-.0071-.0005s-.0139-.0313-.0371-.0239c-.0004.0003-.0087-.0252-.0253-.0237,0,0-.0118.0012-.0126.0135,0,0-.0171-.0094-.0258.0009-.0001.0007-.0109.0125.0021.0227l.0117-.0075h-.0001Z"/>
          </g>
          <path class="cls-27" d="M.3122.5169s-.0011-.0197-.0299-.0193c0,0-.0114-.0291-.0387-.0249,0,0-.0043-.0183-.021-.0226,0,0-.0158-.0051-.0198.0109,0,0-.0174-.0044-.0248.0029-.0126.0125-.0029.0252-.0029.0252,0,0,.0087.0115.0189.0048,0,0,.0083-.0089.0011-.0133,0,0-.0088-.0053-.0121.0047,0,0-.0101-.0077.0023-.0162,0,0,.0128.0014.0219.0107,0,0,.0082.0095.016.005,0,0,.0029-.0041.0003-.0083-.0016-.0025-.0086-.0071-.0136-.0041,0,0-.0018-.0057.005-.009.0101-.0049.0239.0078.0235.0168,0,0,.013-.0036.0166.0008.0023.0027.0116.0088-.0055.0251l.0244.0004s.0002.0025.0024.004.0275-.0022.0274.0085l.0084-.002h.0001Z"/>
          <path class="cls-4" d="M.2592.4999l-.0034-.0141-.0121-.0132s.0358.01.0366.0281c0,0-.0111.0125-.0008.0232"/>
          <circle class="cls-27" cx=".1619" cy=".4595" r=".0071"/>
          <circle class="cls-27" cx=".1712" cy=".4397" r=".0055"/>
          <circle class="cls-27" cx=".2888" cy=".4858" r=".0055"/>
        </g>
        <g>
          <path class="cls-20" d="M.1055.6191l.0772-.0783s.034-.0311.0677-.0321c.0262-.0007.0452-.0037.1107.0492l.1821.0082.1085-.0619s.0483-.0605.0939-.0664c.0699-.0089.1165.05.1165.05,0,0,.024-.0351.051-.0365.0394-.0022.0721.0291.0721.0291l.0066.0835-.5404.0471-.351.0559.0051-.0477h0Z"/>
          <g class="cls-45">
            <path class="cls-6" d="M.1419.5998s.042-.0435.0553-.0537c.0204-.0157.0444-.0246.059-.0231s.0386,0,.0888.0418l.1063.0462.2105-.0947s.0516-.0649.102-.0649c.0342,0,.067.0112.099.0522,0,0,.0306-.0398.0539-.0403.0401-.0007.0597.0216.0597.0216l.0007.0112s-.035-.0306-.0641-.0209c0,0-.024.0112-.051.0447l-.0095-.006s-.051-.053-.0896-.0515c0,0-.0438.0015-.0831.0574l.0066.0149s.0364-.0537.0692-.0574c0,0,.0299-.0119.0641.0261,0,0,.0432.0416.0532.0261.01-.0157.0359-.0376.051-.0425.0452-.0146.0969.0843.0736.0977-.0004.0003-.1385-.0386-.1512-.0369-.0816.0114-.3921.0555-.3921.0555l-.1194-.0306s-.0488-.044-.0787-.038-.0794.0477-.0794.0477l.035-.0052s.0269-.028.0488-.0276c.0371.0007.0619.0336.0736.0485"/>
          </g>
          <path class="cls-6" d="M.1055.6191l.0772-.0783s.034-.0311.0677-.0321c.0262-.0007.0452-.0037.1107.0492l.1821.0082.1085-.0619s.0483-.0605.0939-.0664c.0699-.0089.1165.05.1165.05,0,0,.024-.0351.051-.0365.0394-.0022.0721.0291.0721.0291l.0066.0835-.5404.0471-.351.0559.0051-.0477h0Z"/>
        </g>
        <g>
          <g>
            <g class="cls-47">
              <g>
                <rect class="cls-20" x=".0101" y=".5167" width=".1665" height=".1165"/>
                <path class="cls-4" d="M.1171.5661s-.0174.0173-.013.0279.018.0166.018.0166"/>
              </g>
            </g>
            <path class="cls-4" d="M.1523.5742s-.0151,0-.0213.0057-.0185.0278-.0019.0369c0,0,.0671-.005.0701-.0023.013.0121-.0921.0669-.1257.0439-.0157-.0108-.0319-.079-.0521-.0861l.01-.0036s.0105-.0048.0178-.0037l.0072.001s.0207-.0275.0424-.0153c.0004.0003.0028-.0154.0191-.0103,0,0,.0162-.0004.0144.0118,0,0,.0259-.0086.0324.0033,0,.0007.0083.0146-.0069.0217l-.0056-.003h.0001Z"/>
          </g>
          <path class="cls-27" d="M.021.5748s.0053-.019.0341-.0124c0,0,.0177-.0259.0441-.016,0,0-.0041-.0114.0136-.0119,0,0,.0155.0024.0196.013,0,0,.0224-.0112.0346.0046.0109.0142.0028.0225.0028.0225.0014-.0008-.0068.0094-.0196.0029,0,0-.0088-.0096-.0006-.0124,0,0,.0089-.0047.0101.0058,0,0,.0124-.0022-.0011-.0154,0,0-.0117-.0044-.0205-.0004-.0053.0024-.004.0136-.0115.0153,0,0-.0075.0002-.0144-.0059,0,0-.0049-.0068.0058-.0118.0027-.0012.0037-.0011.0081.0029,0,0,.0004-.003-.0058-.0077-.0092-.0069-.016-.0021-.0174.0068,0,0,.0011.0163-.0112.0187-.0091.0018-.012-.0007-.0138-.0037s.0025-.0085.0083-.0085.0069.0034.0069.0034c0,0,.0058-.0027.0033-.0082s-.0192-.0054-.0286.0068l-.0062.0095s-.0007.0024-.0033.0034-.0025-.0058-.0072-.0071-.0199-.001-.0221.0095c0,0-.008-.0037-.008-.0037Z"/>
          <path class="cls-4" d="M.0778.5697l.0206-.0039.0008-.0194s-.038.002-.0428.0196c0,0,.0085.0146-.0041.0229"/>
          <circle class="cls-27" cx=".1411" cy=".5285" r=".0054"/>
          <circle class="cls-27" cx=".0511" cy=".5495" r=".0057"/>
        </g>
        <g>
          <path class="cls-20" d="M.1062.626c.0214-.0271.0475-.0492.0752-.0537,0,0,.0368-.0047.0876.0094.0136.0038.0349.0054.0592-.0108.0078-.0052.0476-.0358.0708-.0563.0274-.0242.0877-.0141.1586.0498.028.0253.0793.0411.166-.0162.0181-.012.0511-.0746.1036-.0487.0525.0259.0658.0543.0824.0368.0131-.0138.055-.0585.1438-.0022l-.0328.144-.8921.0931s-.0354-.1284-.0222-.145v-.0002Z"/>
          <g class="cls-46">
            <path class="cls-6" d="M.1147.6498s.0294-.0493.0645-.0585c.005-.0013.0283-.011.0962.0162,0,0,.0338-.0043.0835-.0401,0,0,.055-.052.0824-.0487,0,0,.0275-.0097.0962.0465,0,0,.167.013.2051-.0173s.0455-.039.0666-.0379c0,0,.0328-.0043.0698.0411,0,0,.0137.0249.0497-.0119s.0782-.0108.0782-.0108l-.0148.0076s-.0359-.0141-.0602.0227l-.0402.0152-.2685.026-.0994-.0292s-.0405-.0303-.0507-.0346c-.0127-.0054-.0412-.0206-.0983.039,0,0-.0412.0379-.0877.0433s-.0676-.0216-.1057-.0108c0,0-.0349.013-.0465.0487l-.0201.0119c.0032.0011.0402-.0097.0402-.0097-.0009.0017.0085-.0319.037-.0368.0261-.0045.0602.013.0856.0162s.1004-.0346.1332-.0714.0698-.0119.0698-.0119c.0042.0032.0687.0465.0972.0574l-.3055.0487s-.0698-.0487-.1036-.0043"/>
          </g>
          <path class="cls-6" d="M.1062.626c.0214-.0271.0475-.0492.0752-.0537,0,0,.0368-.0047.0876.0094.0136.0038.0349.0054.0592-.0108.0078-.0052.0476-.0358.0708-.0563.0274-.0242.0877-.0141.1586.0498.028.0253.0793.0411.166-.0162.0181-.012.0511-.0746.1036-.0487.0525.0259.0658.0543.0824.0368.0131-.0138.055-.0585.1438-.0022l-.0328.144-.8921.0931s-.0354-.1284-.0222-.145v-.0002Z"/>
        </g>
        <g>
          <path class="cls-20" d="M.1057.6384s.0666.0009.1078.0467l-.0833.0601-.0245-.1068Z"/>
          <g class="cls-50">
            <path class="cls-6" d="M.1041.6544s.0592-.0131.1025.0454l-.0123.0076s-.0195-.0454-.0843-.0404l.0071.0131s.0503-.0045.0651.0379l-.0153.0116s-.0182-.0364-.0542-.0338l.0153.0182s.0251,0,.0291.0237"/>
          </g>
          <path class="cls-6" d="M.1057.6384s.0666.0009.1078.0467l-.0833.0601-.0245-.1068Z"/>
        </g>
        <g>
          <g>
            <g class="cls-48">
              <g>
                <polygon class="cls-20" points=".9212 .5967 .7773 .6282 .7487 .5148 .8925 .4833 .9212 .5967"/>
                <path class="cls-5" d="M.8068.5421s.0161.0092.0149.0204-.0164.0226-.0164.0226l.0054.0022s.0322-.0089.0176-.0397l.0098.0003s.0122.0143.0057.0249-.0287.02-.0287.02l.0175.0089s.0295-.0201.0236-.0413c0,0-.0036-.0144-.0127-.0161"/>
              </g>
            </g>
            <path class="cls-5" d="M.7861.5586s.0072-.0093.014-.0048.016.015.0039.0271c0,0,.0203.0123.0238.0133s.0184.0061.0287-.008.0243-.0358.0399-.0466l-.0095-.0016s-.0102-.0026-.0163-.0003l-.006.0024s-.0246-.0229-.0404-.0069c-.0002.0004-.0178-.0195-.0306-.0114,0,0-.0091.0058-.0045.0174,0,0-.0179-.0017-.0206.0111.0002.0007-.0036.0158.0113.0199l.0063-.0115h0Z"/>
          </g>
          <path class="cls-27" d="M.8974.5419s-.0092-.0175-.0325-.0056c0,0-.0216-.0219-.0421-.0072,0,0-.0124-.016-.0278-.0132,0,0-.0139.0028-.0104.019,0,0-.0161.003-.019.0125-.005.0164.0083.0241.0083.0241,0,0,.012.007.0174-.0032,0,0,.003-.0114-.0048-.0126,0,0-.0095-.0013-.0079.0091,0,0-.0114-.0029-.005-.0157,0,0,.0084-.0071.0198-.0023,0,0,.0107.0054.0152-.0019,0,0,.0006-.0049-.0033-.0077-.0023-.0016-.01-.003-.0128.0017,0,0-.0042-.005,0-.0107.0062-.0085.0257.0013.0292.0096,0,0,.0031.0161.0143.0161.0083,0,.0102-.0029.011-.0062s-.0043-.0078-.0093-.0067-.0051.0046-.0051.0046c0,0-.0057-.0015-.0048-.0073s.0152-.0089.0264.0012l.0077.0081s.0012.0022.0037.0027.0008-.0061.0045-.0083.017-.0048.0214.0051l.006-.0051h0Z"/>
          <path class="cls-5" d="M.847.5477h-.0187l-.0055-.0187s.0334-.0052.0418.011c0,0-.0038.0158.0092.0215"/>
          <circle class="cls-27" cx=".7431" cy=".5263" r=".0067"/>
          <circle class="cls-27" cx=".7572" cy=".4117" r=".0067"/>
          <circle class="cls-27" cx=".6401" cy=".5708" r=".0067"/>
          <circle class="cls-27" cx=".7588" cy=".5355" r=".0052"/>
          <circle class="cls-27" cx=".7423" cy=".4237" r=".0052"/>
          <circle class="cls-27" cx=".8652" cy=".5229" r=".0052"/>
        </g>
        <path class="cls-6" d="M.6723.4146s.0447-.0822.1119-.0203c-.001,0,.0179.0333.0546.0239.0312-.008.0468-.0878.1169-.0439l.007.0371.0093.0301s-.018-.0054-.0331.0115l-.0158-.0015s.0165-.0254.0518-.0277l-.009-.0108s-.0195-.01-.0616.0385l-.0248.0054c.0046.0008.0421-.0562.0864-.0585"/>
        <path class="cls-6" d="M.0389.2955c.0039.001.0438-.0249.0848.015s.0614.0469.0614.0469c0,0,.0248.0111.0494-.0216.015-.0199.0324-.0472.0626-.0422s.0789.0359.0789.0359l.0974.0589s.0154.0007.0351-.0229c.0224-.0269.038-.0289.0507-.0289.0167,0,.0419.002.0867.0389,0,0,.0127.019.0195.005s.038-.0459.0663-.0429c0,0,.0331.004.0663.0429,0,0,.0351.0269.0429.009s.0536-.0718.1072-.0379l.0049.014s-.0341-.022-.0594-.01c0,0-.0283.014-.0487.0479,0,0-.0341.008-.0448-.008s-.0458-.0609-.1062-.0269l-.0312.0319s-.0536-.0549-.0916-.0499c0,0-.0302.004-.0546.0279l-.039.022-.039-.016s-.1271-.0866-.1507-.0805-.0355.0303-.0414.0431-.0229.0371-.0632.0234c-.0213-.0073-.0741-.0519-.0741-.0519,0,0-.0244-.0229-.0672-.012l.0078.011s.0312-.009.076.0299c0,0,.0455.0409.0809.0409.0185,0,.0342.0017.044-.0134.009-.0138.0281-.0559.0456-.0539s.0439.0104.0868.0443l.0994.0529"/>
        <path class="cls-6" d="M.906.4269c-.0669-.0146-.1119.0154-.1119.0154l-.0195-.0054c.0661-.05.1428-.0177.1428-.0177l.0128-.01s-.0233-.0169-.0962-.0131c-.0495.0026-.0796.0392-.0796.0392l-.0188.0046s-.0398-.0516-.1195-.0085l.0098.0123s.0436-.0262.0947.0008c-.0015.0015-.0218.0146-.0218.0146,0,0-.0248-.0285-.0789-.0023"/>
        <g>
          <path class="cls-20" d="M.4608.5908s.0604-.015.1062-.0459.0818-.0579.1169-.0379.0568.0352.0586.041.0144.0577.0144.0577l-.2913.008-.0049-.0229h0Z"/>
          <g class="cls-39">
            <path class="cls-6" d="M.452.6128s.077-.018.1228-.0599.0789-.0479.1052-.0329.0731.0449.0731.0449l.0039.014-.0497-.0289s-.0292-.0349-.0653-.0229c0,0-.0283.009-.0526.0359s-.1091.0619-.114.0629.0633-.006.0633-.006c0,0,.0643-.0459.076-.0579s.0351-.0349.0721-.011.076.0449.076.0449"/>
          </g>
          <path class="cls-6" d="M.4608.5908s.0604-.015.1062-.0459.0818-.0579.1169-.0379.0568.0352.0586.041.0144.0577.0144.0577l-.2913.008-.0049-.0229h0Z"/>
        </g>
        <g>
          <path class="cls-20" d="M.299.6507s.0399-.0728.0935-.0838c0,0,.0351-.01.0838.0259,0,0,.0283.0279.037.0229s.0409-.0409.0663-.0449.0663.015.0877.0369l.1871.013s.0107-.0918.1374-.0569l.0292.1217-.076-.003-.6499-.003.0039-.0289h0Z"/>
          <g class="cls-40">
            <path class="cls-6" d="M.3058.6896s.0322-.0968.1013-.1058c0,0,.0419-.001.0857.0469.0039.002.0175.016.0302-.003s.0497-.0469.075-.0429c0,0,.0526.01.0692.0549l.2105-.008s.0312-.0868.1169-.0529l.0029.02s-.0731-.0469-.0945.0379l.0185.01s-.0039-.0798.0809-.0349l-.0185.0349.0058.014.0214-.0239.0019.0319-.5301-.019s-.0312-.0599-.0848-.0519c0,0-.0526.014-.0536.0649l.0341-.0299s.0166-.0399.0575-.011"/>
          </g>
          <path class="cls-6" d="M.299.6507s.0399-.0728.0935-.0838c0,0,.0351-.01.0838.0259,0,0,.0283.0279.037.0229s.0409-.0409.0663-.0449.0663.015.0877.0369l.1871.013s.0107-.0918.1374-.0569l.0292.1217-.076-.003-.6499-.003.0039-.0289h0Z"/>
        </g>
        <path class="cls-16" d="M.1215.7431s.0979-.1199.4568-.1448c.2736-.019.4371.0617.4371.0617l.0441.1876-.08.1128-.7501.0416-.0916-.0712-.0162-.1876h0Z"/>
        <g>
          <polygon class="cls-2" points=".6364 .2333 .6613 .1944 .7041 .1938 .7456 .2369 .7539 .2868 .7296 .3257 .6863 .3269 .6453 .2837 .6364 .2333"/>
          <polygon class="cls-26" points=".6441 .2345 .6661 .2017 .7047 .2017 .7391 .2375 .7474 .2843 .7278 .3172 .6867 .3172 .6517 .2803 .6441 .2345"/>
        </g>
        <g>
          <polygon class="cls-2" points=".745 .2339 .7699 .195 .8127 .1944 .8542 .2375 .8625 .2874 .8382 .3263 .7949 .3275 .7539 .2843 .745 .2339"/>
          <polygon class="cls-26" points=".7527 .2351 .7744 .2023 .8126 .2023 .8466 .2381 .8548 .2849 .8355 .3178 .7948 .3178 .7602 .2809 .7527 .2351"/>
        </g>
        <g>
          <polygon class="cls-2" points=".7705 .3664 .7955 .3275 .8382 .3269 .8756 .3676 .891 .4558 .7872 .4582 .7705 .3664"/>
          <polygon class="cls-26" points=".7783 .3671 .7992 .3348 .836 .3348 .8689 .3701 .8768 .4162 .8581 .4485 .8189 .4485 .7855 .4122 .7783 .3671"/>
        </g>
        <path class="cls-21" d="M.6573.493l-.0452-.0926s-.0881-.0047-.1229.0166-.0614.0273-.0812.0142-.0951-.0309-.1298-.0012-.0351.039-.0336.0463c.0046.0226.0258.0359.1136.0439.0904.0083.1925-.0142.218-.0214"/>
        <polygon class="cls-2" points=".7889 .4734 .894 .4716 .891 .4558 .7872 .4582 .7889 .4734"/>
        <polygon class="cls-2" points=".7296 .3257 .7705 .3664 .7955 .3275 .7539 .2843 .7296 .3257"/>
        <path class="cls-17" d="M.5588.5041c.0556-.0235.0918-.0155.0918-.0155.0054.0025.0211.0179-.0236.0161s-.058.0155-.058.0155l-.0103-.0161h0Z"/>
        <g>
          <g>
            <polygon class="cls-27" points=".2024 .4262 .2007 .4564 .2227 .4548 .2234 .4244 .2605 .3689 .2348 .3715 .2155 .4017 .2036 .3767 .1797 .382 .2024 .4262"/>
            <path class="cls-16" d="M.2605.369l-.0371.0555-.0008.0304-.0219.0016.0017-.0303s-.021-.0436-.0227-.0442c-.0017-.0005.0238-.0052.0238-.0052l.0119.025.0193-.0302.0257-.0026M.2605.3619h-.0007l-.0257.0026c-.0021.0002-.0041.0014-.0052.0032l-.0125.0195-.0065-.0135c-.0012-.0025-.0037-.004-.0064-.004-.0004,0-.0009,0-.0013,0-.0276.0051-.0293.0054-.0297.0117-.0002.0032.0019.0063.005.0073-.0011.0007.0095.0217.0185.0405l-.0024.0268c-.0001.0021.0007.004.0021.0054.0013.0013.0031.0021.0049.0021h.0005l.0219-.0016c.0036-.0002.0064-.0032.0065-.0068l.0008-.0304.0359-.0518c.0015-.0023.0016-.0052.0002-.0075-.0013-.0021-.0036-.0035-.006-.0035h.0001Z"/>
          </g>
          <g>
            <path class="cls-27" d="M.2473.4476l.0091-.0639s.0023-.0157.0153-.0174l.0409-.0041s.0151-.0028.0134.0164l-.0105.0601-.0197.0008.0019-.0163-.0279.0025-.002.0208-.0204.0011h0Z"/>
            <path class="cls-16" d="M.3145.3621c.004,0,.0128.0016.0115.0165l-.0106.0601-.0197.0009.0019-.0164-.0279.0025-.002.0208-.0204.001.0091-.0638s.0023-.0157.0153-.0175l.0409-.0041s.0008,0,.0019,0M.3145.355s-.0028.0002-.0032.0002l-.0403.004c-.0147.002-.0205.0157-.0216.0234l-.0091.0639c-.0003.0021.0004.0042.0018.0057.0013.0015.0032.0023.0052.0023h.0004l.0205-.001c.0035-.0002.0063-.0029.0067-.0064l.0014-.015.0134-.0012-.0009.0078c-.0002.002.0004.0041.0018.0056.0013.0014.0032.0023.0052.0023h.0003l.0197-.0008c.0033-.0002.0061-.0026.0067-.0059l.0105-.0601c.0008-.0086-.0009-.0148-.0048-.0192-.0033-.0037-.0082-.0057-.0136-.0057h0Z"/>
          </g>
          <g>
            <polygon class="cls-27" points=".3387 .3595 .3252 .4365 .3452 .4346 .353 .3999 .3655 .4329 .3876 .4315 .3711 .3842 .4009 .3567 .3784 .3573 .3565 .377 .359 .3579 .3387 .3595"/>
            <path class="cls-16" d="M.4009.3567l-.0298.0274.0165.0474-.0222.0014-.0124-.033-.0078.0346-.02.002.0135-.077.0203-.0016-.0024.0191.0219-.0197.0225-.0005M.4009.3497h-.0002l-.0225.0005-.0125.0102.0002-.0016c.0003-.0021-.0004-.0043-.0019-.0058-.0013-.0014-.0032-.0022-.0051-.0022h-.0006l-.0203.0016c-.0032.0002-.0058.0026-.0064.0058l-.0135.077c-.0004.0022.0003.0044.0018.006.0013.0014.0032.0023.0052.0023h.0007l.02-.002c.003-.0003.0055-.0025.0062-.0055l.0027-.0117.0041.011c.001.0027.0037.0046.0066.0046h.0004l.0222-.0015c.0022,0,.0042-.0013.0054-.0031s.0015-.0042.0008-.0062l-.015-.043.0263-.0243c.0022-.002.0029-.0051.0018-.0078s-.0037-.0045-.0065-.0045h0v.0002Z"/>
          </g>
          <polygon class="cls-16" points=".273 .408 .3011 .406 .3038 .3822 .2757 .3844 .273 .408"/>
          <g>
            <polygon class="cls-27" points=".3895 .431 .4039 .3567 .4239 .3562 .4082 .4307 .3895 .431"/>
            <path class="cls-16" d="M.4239.3562l-.0157.0745-.0187.0003.0143-.0742.02-.0005M.4239.3491h-.0002l-.02.0005c-.0033,0-.0061.0025-.0067.0057l-.0143.0742c-.0004.0021.0002.0043.0015.0059s.0033.0026.0054.0026h0l.0187-.0003c.0033,0,.0061-.0024.0068-.0056l.0157-.0745c.0004-.0021,0-.0043-.0015-.006-.0013-.0016-.0033-.0026-.0054-.0026h0Z"/>
          </g>
          <g>
            <polygon class="cls-27" points=".4312 .4315 .498 .3568 .4707 .432 .4312 .4315"/>
            <path class="cls-16" d="M.4563.3553c.0114,0,.0275,0,.0327.0006.0084.0009.0076.0078.0076.0078l-.0003.015-.0205.0005.0002-.0063-.0257.0003c-.0027.0016-.0032.0103-.0032.0103l.0295.0013c.0046.0003.017-.0005.0119.0222-.0047.0207-.0152.0216-.017.0216h-.0003s-.0308,0-.04-.0002c-.0092-.0003-.01-.0097-.01-.0097,0,0,.0005-.0122.0008-.013,0-.0002.0012-.0003.0028-.0003.0055,0,.0169.0009.0169.0009v.0038l.0257.0005.0019-.011s-.0102.0007-.0205.0007c-.0042,0-.0084,0-.012-.0004-.0122-.0011-.0119-.013-.0073-.0269.0046-.0139.0146-.0175.0146-.0175h.0122M.4563.3483h-.0122c-.0037.0009-.0158.0057-.0213.0223-.0042.0125-.0043.0217-.0006.028-.003.0008-.0064.0026-.007.0049-.0003.0008-.0005.0015-.0011.0147.0006.0072.0055.0167.0168.0171.0093.0002.0403.0002.0403.0002H.4712c.0033,0,.0183-.0014.0242-.0271.0023-.01.0018-.0175-.0015-.0227h.0026c.0038-.0002.0068-.0032.0069-.007l.0003-.015s.0004-.0051-.003-.0095c-.0017-.0021-.005-.0048-.0109-.0054-.0054-.0005-.0218-.0006-.0335-.0006h0Z"/>
          </g>
          <g>
            <path class="cls-27" d="M.5435.4325h0ZM.5278.432h0ZM.5273.432h0Z"/>
            <path class="cls-16" d="M.5221.3567h.0013l.0398.0016s.0138.0017.0087.02c-.0057.02-.0103.036-.0103.036,0,0-.0049.0146-.0178.0146s-.0362-.0008-.0362-.0008c0,0-.0157,0-.0124-.0172s.0116-.0424.0116-.0432c0-.0007.0045-.0111.0155-.0111M.5221.3496c-.0148,0-.0225.0135-.0225.0182-.0039.0118-.0091.0291-.0115.0419-.0018.0095.001.0153.0037.0185.0057.0069.0147.0071.0157.0071-.0002,0,.0232.0008.0362.0008.0143,0,.0221-.0123.0246-.0195l.0104-.0363c.0024-.0085.0018-.0154-.0018-.0209-.0045-.0068-.012-.0079-.0128-.0081l-.0403-.0017h-.0017Z"/>
          </g>
          <polygon class="cls-16" points=".5153 .4107 .5429 .4115 .5521 .376 .5247 .3754 .5153 .4107"/>
          <g>
            <path class="cls-27" d="M.6167.4374h0Z"/>
            <path class="cls-16" d="M.5877.3614l.0469.0047s.0135.0029.0113.014c-.0026.013-.0063.0152-.0109.0182,0,0,.0084.0058.0017.0214-.0066.0152-.0132.0141-.0183.0145h-.001c-.0085,0-.0515-.0038-.0515-.0038l.0218-.069M.5877.3543c-.003,0-.0058.002-.0067.0049l-.0218.069c-.0007.0021-.0003.0043.0008.006.0012.0018.0031.0029.0053.0031,0,0,.0435.0039.0521.0039.0102-.0005.0186-.0024.0257-.0188.0045-.0104.0036-.0179.0015-.0228.0036-.0035.0063-.0085.0082-.0183.0026-.0131-.0086-.0205-.0168-.0222l-.0476-.0048h-.0007Z"/>
          </g>
          <g>
            <path class="cls-27" d="M.6364.4362l.0185-.0534s.0048-.0133.0192-.011.034.0049.034.0049c0,0,.0181.0019.0107.0208s-.0177.0485-.0177.0485l-.0192-.0023.0052-.0163-.0259-.0038-.0055.0151-.0192-.0027v.0002Z"/>
            <path class="cls-16" d="M.6709.3716c.001,0,.0021,0,.0032.0002.0144.0023.034.0049.034.0049,0,0,.0181.0019.0107.0208-.0074.0189-.0178.0485-.0178.0485l-.0192-.0023.0052-.0163-.0259-.0038-.0055.0151-.0192-.0026.0185-.0534s.0041-.0112.016-.0112M.6709.3646c-.0133,0-.0205.01-.0226.0159l-.0185.0535c-.0007.002-.0004.0042.0007.006s.003.0031.0051.0033l.0192.0027h.001c.0029,0,.0056-.0018.0066-.0046l.0036-.0098.012.0018-.0027.0084c-.0006.002-.0003.0042.0008.006s.003.0029.0051.0032l.0192.0023h.0008c.003,0,.0056-.0019.0066-.0048,0,0,.0103-.0294.0177-.0482.0032-.0081.003-.0151-.0004-.0207-.0051-.0083-.015-.0096-.0161-.0097h0s-.0194-.0026-.0337-.0049l-.0043-.0004h-.0001Z"/>
          </g>
          <polygon class="cls-16" points=".6674 .4086 .6929 .4116 .6996 .3927 .6729 .3902 .6674 .4086"/>
          <path class="cls-16" d="M.6009.3795l-.0022.011.0207.0019s.0022-.0011.0037-.0057c.0018-.0057-.0033-.0057-.0033-.0057l-.0189-.0015Z"/>
          <path class="cls-16" d="M.5957.4044l-.0033.0102.0207.0008s.0037.0008.0048-.0042c.0013-.0058-.0041-.0061-.0041-.0061l-.0181-.0008h0Z"/>
        </g>
        <g>
          <g>
            <polygon class="cls-27" points=".2024 .4214 .2007 .4516 .2227 .45 .2234 .4196 .2605 .3642 .2348 .3667 .2155 .397 .2036 .372 .1797 .3772 .2024 .4214"/>
            <path class="cls-16" d="M.2605.3642l-.0371.0554-.0008.0305-.0219.0015.0017-.0302s-.021-.0436-.0227-.0442c-.0017-.0005.0238-.0052.0238-.0052l.0119.025.0193-.0302.0257-.0026M.2605.3571h-.0007l-.0257.0026c-.0021.0002-.0041.0014-.0052.0032l-.0125.0195-.0065-.0135c-.0012-.0025-.0037-.004-.0064-.004-.0004,0-.0009,0-.0013,0-.0276.0051-.0293.0054-.0297.0117-.0002.0032.0019.0063.005.0073-.0011.0007.0095.0217.0185.0405l-.0024.0267c-.0001.0021.0007.004.0021.0054.0013.0013.0031.0021.005.0021h.0005l.0219-.0015c.0036-.0002.0065-.0032.0066-.0068l.0008-.0305.0359-.0517c.0015-.0023.0016-.0052.0002-.0075-.0013-.0021-.0036-.0035-.006-.0035h0Z"/>
          </g>
          <g>
            <path class="cls-27" d="M.2473.4428l.0091-.0639s.0023-.0157.0153-.0174l.0409-.0041s.0151-.0028.0134.0164l-.0105.0601-.0197.0008.0019-.0163-.0279.0025-.002.0208-.0204.0011h0Z"/>
            <path class="cls-16" d="M.3145.3573c.004,0,.0128.0016.0115.0165l-.0106.0601-.0197.0009.0019-.0164-.0279.0025-.002.0208-.0204.0011.0091-.0638s.0023-.0157.0153-.0175l.0409-.0041s.0008,0,.0019,0M.3145.3502s-.0028.0002-.0032.0002l-.0403.004c-.0147.0019-.0205.0156-.0216.0234l-.0091.0639c-.0003.0021.0004.0042.0018.0057.0013.0015.0032.0023.0052.0023h.0004l.0205-.0011c.0035-.0002.0063-.0029.0067-.0064l.0014-.0149.0134-.0012-.0009.0078c-.0002.002.0004.0041.0018.0056.0013.0014.0032.0023.0052.0023h.0003l.0197-.0008c.0033-.0002.0061-.0026.0067-.0059l.0105-.0601c.0008-.0086-.0009-.0148-.0048-.0192-.0033-.0037-.0082-.0057-.0136-.0057h0Z"/>
          </g>
          <g>
            <polygon class="cls-27" points=".3387 .3547 .3252 .4317 .3452 .4298 .353 .3952 .3655 .4281 .3876 .4268 .3711 .3794 .4009 .352 .3784 .3525 .3565 .3722 .359 .3531 .3387 .3547"/>
            <path class="cls-16" d="M.4009.352l-.0298.0274.0165.0474-.0222.0014-.0124-.033-.0078.0346-.02.002.0135-.077.0203-.0016-.0024.0191.0219-.0197.0225-.0005M.4009.3449h-.0002l-.0225.0005-.0125.0102.0002-.0016c.0003-.0021-.0004-.0043-.0019-.0058-.0013-.0014-.0032-.0022-.0051-.0022h-.0006l-.0203.0016c-.0032.0002-.0058.0026-.0064.0058l-.0135.077c-.0004.0022.0003.0044.0018.006.0013.0014.0032.0023.0052.0023h.0007l.02-.002c.003-.0003.0055-.0025.0062-.0055l.0027-.0117.0041.011c.001.0027.0037.0046.0066.0046h.0004l.0222-.0015c.0022,0,.0042-.0013.0054-.0031s.0015-.0042.0008-.0062l-.015-.043.0263-.0243c.0022-.002.0029-.0051.0018-.0078s-.0037-.0045-.0065-.0045h0v.0002Z"/>
          </g>
          <polygon class="cls-16" points=".273 .4032 .3011 .4013 .3038 .3775 .2757 .3797 .273 .4032"/>
          <g>
            <polygon class="cls-27" points=".3895 .4262 .4039 .352 .4239 .3514 .4082 .4259 .3895 .4262"/>
            <path class="cls-16" d="M.4239.3514l-.0157.0745-.0187.0003.0143-.0742.02-.0005M.4239.3444h-.0002l-.02.0005c-.0033,0-.0061.0025-.0067.0057l-.0143.0742c-.0004.0021.0002.0043.0015.0059s.0033.0026.0054.0026h0l.0187-.0003c.0033,0,.0061-.0024.0068-.0056l.0157-.0745c.0004-.0021,0-.0043-.0015-.006-.0013-.0016-.0033-.0026-.0054-.0026h0Z"/>
          </g>
          <g>
            <polygon class="cls-27" points=".4312 .4266 .498 .3519 .4707 .4271 .4312 .4266"/>
            <path class="cls-16" d="M.4563.3505c.0114,0,.0275,0,.0327.0006.0084.0009.0076.0078.0076.0078l-.0003.015-.0205.0005.0002-.0063-.0257.0003c-.0027.0016-.0032.0102-.0032.0102l.0295.0014c.0046.0003.017-.0005.0119.0222-.0047.0207-.0152.0216-.017.0216h-.0003s-.0308,0-.04-.0002c-.0092-.0003-.01-.0097-.01-.0097,0,0,.0005-.0122.0008-.0131,0-.0002.001-.0002.0026-.0002.0053,0,.0172.0009.0172.0009v.0038l.0257.0005.0019-.011s-.0102.0007-.0205.0007c-.0042,0-.0084,0-.012-.0004-.0122-.0011-.0119-.013-.0073-.0269.0046-.0139.0146-.0175.0146-.0175h.0122M.4563.3435h-.0122c-.0037.0009-.0158.0057-.0213.0223-.0041.0125-.0043.0215-.0006.0279-.0028.0007-.0061.0024-.0069.0046-.0004.0012-.0006.002-.0012.0151.0006.0072.0055.0167.0168.0171.0093.0002.0403.0002.0403.0002H.4712c.0033,0,.0183-.0014.0242-.0271.0023-.01.0018-.0175-.0015-.0227h.0026c.0038-.0002.0068-.0032.0069-.007l.0003-.015s.0004-.0051-.003-.0095c-.0017-.0021-.005-.0048-.0109-.0054-.0054-.0005-.0218-.0006-.0335-.0006h0Z"/>
          </g>
          <g>
            <path class="cls-27" d="M.5435.4276h0ZM.5278.4271h0ZM.5273.4271h0Z"/>
            <path class="cls-16" d="M.5221.3519h.0013l.0398.0016s.0138.0017.0087.02c-.0057.02-.0103.036-.0103.036,0,0-.0049.0146-.0178.0146s-.0362-.0008-.0362-.0008c0,0-.0157,0-.0124-.0172s.0116-.0424.0116-.0432c0-.0007.0045-.0111.0155-.0111M.5221.3448c-.0148,0-.0225.0135-.0225.0182-.0039.0118-.0091.0291-.0115.0419-.0018.0095.001.0153.0037.0185.0057.0069.0147.0071.0157.0071-.0002,0,.0232.0008.0362.0008.0143,0,.0221-.0123.0246-.0195l.0104-.0363c.0024-.0085.0018-.0154-.0018-.0209-.0045-.0068-.012-.0079-.0128-.0081l-.0403-.0017h-.0017Z"/>
          </g>
          <polygon class="cls-16" points=".5153 .4059 .5429 .4068 .5521 .3712 .5247 .3707 .5153 .4059"/>
          <g>
            <path class="cls-27" d="M.6172.433h0Z"/>
            <path class="cls-16" d="M.5877.3566l.0469.0047s.0135.0029.0113.014c-.0026.013-.0063.0152-.0109.0182,0,0,.0084.0058.0017.0214-.0066.0152-.0132.0141-.0183.0145h-.001c-.0085,0-.0515-.0038-.0515-.0038l.0218-.069M.5877.3495c-.003,0-.0058.002-.0067.0049l-.0218.069c-.0007.0021-.0003.0043.0008.006.0012.0018.0031.0029.0053.0031,0,0,.0435.0039.0521.0039.0102-.0005.0186-.0024.0257-.0188.0045-.0104.0036-.0179.0015-.0228.0036-.0035.0063-.0085.0082-.0183.0026-.0131-.0086-.0205-.0168-.0222l-.0476-.0048h-.0007Z"/>
          </g>
          <g>
            <path class="cls-27" d="M.6364.4315l.0185-.0534s.0048-.0133.0192-.011.034.0049.034.0049c0,0,.0181.0019.0107.0208s-.0177.0485-.0177.0485l-.0192-.0023.0052-.0163-.0259-.0038-.0055.0151-.0192-.0027v.0002Z"/>
            <path class="cls-16" d="M.6709.3669c.001,0,.0021,0,.0032.0002.0144.0023.034.0049.034.0049,0,0,.0181.0019.0107.0208-.0074.0189-.0178.0485-.0178.0485l-.0192-.0023.0052-.0163-.0259-.0038-.0055.0151-.0192-.0026.0185-.0534s.0041-.0112.016-.0112M.6709.3598c-.0133,0-.0205.01-.0226.0159l-.0185.0535c-.0007.002-.0004.0042.0007.006s.003.0031.0051.0033l.0192.0027h.001c.0029,0,.0056-.0018.0066-.0046l.0036-.0098.012.0018-.0027.0084c-.0006.002-.0003.0042.0008.006s.003.0029.0051.0032l.0192.0023h.0008c.003,0,.0056-.0019.0066-.0048,0,0,.0103-.0294.0177-.0482.0032-.0081.003-.0151-.0004-.0207-.0051-.0083-.015-.0096-.0161-.0097h0s-.0194-.0026-.0337-.0049l-.0043-.0004h-.0001Z"/>
          </g>
          <polygon class="cls-16" points=".6674 .4038 .6929 .4069 .6996 .3879 .6729 .3854 .6674 .4038"/>
          <path class="cls-16" d="M.6009.3747l-.0022.011.0207.0019s.0022-.0011.0037-.0057c.0018-.0057-.0033-.0057-.0033-.0057l-.0189-.0015Z"/>
          <path class="cls-16" d="M.5957.3997l-.0033.0102.0207.0008s.0037.0008.0048-.0042c.0013-.0058-.0041-.0061-.0041-.0061l-.0181-.0008h0Z"/>
        </g>
        <g>
          <polygon class="cls-27" points=".2024 .4214 .2007 .4516 .2227 .45 .2234 .4196 .2605 .3642 .2348 .3667 .2155 .397 .2036 .372 .1797 .3772 .2024 .4214"/>
          <path class="cls-27" d="M.2473.4428l.0091-.0639s.0023-.0157.0153-.0174l.0409-.0041s.0151-.0028.0134.0164l-.0105.0601-.0197.0008.0019-.0163-.0279.0025-.002.0208-.0204.0011h0Z"/>
          <polygon class="cls-27" points=".3387 .3547 .3252 .4317 .3452 .4298 .353 .3952 .3655 .4281 .3876 .4268 .3711 .3794 .4009 .352 .3784 .3525 .3565 .3722 .359 .3531 .3387 .3547"/>
          <polygon class="cls-16" points=".273 .4032 .3011 .4013 .3038 .3775 .2757 .3797 .273 .4032"/>
          <polygon class="cls-27" points=".3895 .4262 .4039 .352 .4239 .3514 .4082 .4259 .3895 .4262"/>
          <path class="cls-27" d="M.4759.3743h.0188l.0019-.0154s.0008-.0069-.0076-.0078-.0449-.0006-.0449-.0006c0,0-.01.0036-.0146.0174s-.0049.0258.0073.0269.0321.0011.0321.0011l-.0015.0086-.0256.0006v-.0039s-.0195-.0014-.0197-.0006-.0008.013-.0008.013c0,0,.0008.0094.01.0097s.04.0003.04.0003c0,0,.0122.0011.0173-.0216s-.0082-.0226-.0128-.0229l-.0276-.001s.0012-.0089.0022-.0099l.0257-.0003-.0002.0063h0Z"/>
          <path class="cls-27" d="M.5234.352l.0398.0017s.0138.0017.0087.0199c-.0057.0199-.0103.036-.0103.036,0,0-.0049.0147-.0178.0147s-.0362-.0008-.0362-.0008c0,0-.0157,0-.0124-.0172s.0116-.0424.0116-.0432.0049-.0119.0168-.0111h-.0002Z"/>
          <polygon class="cls-16" points=".5153 .4059 .5429 .4068 .5521 .3712 .5247 .3707 .5153 .4059"/>
          <path class="cls-27" d="M.5659.4256l.0218-.069.0469.0047s.0135.0029.0113.014c-.0026.013-.0063.0152-.0109.0182,0,0,.0084.0058.0017.0214-.0066.0152-.0132.0141-.0183.0145s-.0525-.0038-.0525-.0038Z"/>
          <path class="cls-27" d="M.6364.4315l.0185-.0534s.0048-.0133.0192-.011.034.0049.034.0049c0,0,.0181.0019.0107.0208s-.0177.0485-.0177.0485l-.0192-.0023.0052-.0163-.0259-.0038-.0055.0151-.0192-.0027v.0002Z"/>
          <polygon class="cls-16" points=".6674 .4038 .6929 .4069 .6996 .3879 .6729 .3854 .6674 .4038"/>
          <path class="cls-16" d="M.6009.3747l-.0022.011.0207.0019s.0022-.0011.0037-.0057c.0018-.0057-.0033-.0057-.0033-.0057l-.0189-.0015Z"/>
          <path class="cls-16" d="M.5957.3997l-.0033.0102.0207.0008s.0037.0008.0048-.0042c.0013-.0058-.0041-.0061-.0041-.0061l-.0181-.0008h0Z"/>
        </g>
        <path class="cls-12" d="M.185.7886s-.0176-.0192.0098-.0264c0,0,.015-.0054.0283.0063,0,0-.0106-.0272.0363-.038,0,0,.0743-.019.0831-.0326s.0088-.0244.0212-.0281.0265-.0063.0451-.0036c0,0,.0062-.0235.0336-.0172,0,0,.015-.0235.0354-.0109,0,0,.0071-.0118.0283.0045,0,0,.0062-.0308.0451-.0199,0,0,.0141.0018.0177.0163,0,0,.0203-.0018.0239-.0081s.0132-.0166.03-.0157c0,0,.0259.0138.0421.0059.0392-.0191.15.0062.1586.0198.0115.0181.0495-.0226.0592.0045,0,0,.0044.0127.0044.0172,0,0,.0124-.0091.0309.0036,0,0,.0071-.0072.0239-.0009,0,0,.0115.0036.0097.0217,0,0,.0292-.01.0301.0199,0,0,.0141-.0235.0416.0036l.015.1648-.0769.0833s-.5933.0181-.6146.01-.0309-.0308-.0433-.0244-.0371.0136-.0442.0018-.0389-.0172-.023-.0462c0,0-.0469.0154-.0309-.0208,0,0-.0265-.0172-.008-.0326,0,0-.0221-.01-.0186-.0272,0,0-.0081-.0189.0061-.0306h.0001Z"/>
        <path class="cls-13" d="M.2594.946s-.0016-.0117.0028-.0184.0175-.0142.0205-.0202.0067-.0193.0315-.0201c0,0,.0103-.0427.0464-.0184,0,0-.0121-.0153-.0019-.0311s.0197-.0389.0365-.0232c0,0-.0044-.0389.0351-.0277l.0373.0165s.0095.0037.0132,0l.0124.0112.0226-.0037.0183.0202.0168-.0367.0248-.0015.0205.0209.0088.0067s.0022-.0367.0475-.0292c-.0015.0015.0226-.0022.0226-.0022,0,0,.0139-.0157.0161-.0165s.0139-.0165.0278-.0157c0,0,.1885.0516.1914.0509s.0263-.0045.0307.006.0073.018.0073.018l-.0146.0224s.0197.0082.0212.0247c0,0,.0241-.0067.0343.0209s-.1096.0741-.1096.0741l-.4559.0007s-.0709.0105-.0862-.0097-.0226-.0232-.0416-.015-.0333.0077-.0364-.004h-.0002Z"/>
        <path class="cls-22" d="M.9738.4515s-.0301.0249-.0475.0427c-.0174.0178-.0441.0451-.0696.0546s-.0672.0297-.0672.0297l.0545.0807s.051-.0214.0649-.07.0406-.0914.0684-.1164l-.0035-.0214h0Z"/>
        <path class="cls-24" d="M.8277.5941s-.0133-.0544-.054-.0451-.0389.0304-.0389.0304c0,0-.043-.0057-.0355.0172,0,0-.0299.0057-.015.044s.0318.0843.0243.0977.0337.0919.0337.0919c0,0,.0472.0237.0486.1171.0003.0218.13-.0082.13-.0082,0,0,.0015-.0443.0015-.0711s-.023-.0627-.0249-.0991-.0168-.044-.028-.0689-.0368-.0779-.0418-.106h0Z"/>
        <path class="cls-10" d="M.2346.788s-.0121.0035-.0181-.0088-.0164-.0088-.0216-.0035.0069.0221.0069.0221c0,0-.0199,0-.0173.015,0,0,.0043.0168.0112.0203,0,0,.0052-.0159.0233-.0168,0,0,.0086.0115.0147.0088,0,0-.0209.0076-.0261.0164s-.0087.0171-.0007.026c.0054.006.0181.0027.0181.0027,0,0-.0173.008-.0121.0186s.0233.0018.0233.0018c0,0-.0095-.0116.0079-.0135.0112-.0012.0204.0006.0297.0057,0,0-.0167-.0171-.008-.0222s.0198.0095.0198.0095c0,0-.0111-.0082-.0149-.0044s.0099.0203.0149.0158-.0006-.0133.0105-.0197.0124-.0051.0142-.0006-.0006.0184-.0136.0228-.018.0158-.018.0279c0,0,.0093-.0165.021-.0222s.0142-.0025.0142-.0025c0,0,.0043-.0152.0149-.0216s.0204-.0038.0316.0032c0,0-.0004-.0153-.017-.028-.0133-.0102-.0196-.0055-.0338.0036-.0143-.0109-.024.0155-.024.0155,0,0-.0074-.0171-.0198-.0146,0,0-.0161-.007-.0248-.0038s-.0037.0108-.0037.0108c0,0,.0118.0044.0186,0,0,0-.0062.0082.0019.0171,0,0-.0124-.0101-.0248-.0101s-.0215-.0011-.021-.0101c.0006-.012.0229-.0152.0254-.0158s.0149-.0006.0149-.0006l.0161.0013s.0043-.0177.0136-.0235-.0149.0127-.0254.0089-.0087-.0158-.0087-.0158c0,0-.0136.0197-.021.007s.0078-.0225.0078-.0225v-.0002Z"/>
        <path class="cls-12" d="M.194.8194s.0087-.0108.021-.0108c0,0-.0229-.0095-.021.0108Z"/>
        <path class="cls-10" d="M.267.8891s-.0258.0108-.0266-.0019c-.0006-.0101.0266.0019.0266.0019Z"/>
        <path class="cls-10" d="M.3797.8308s.013-.0063.0229.0076c0,0-.0019-.0342.0167-.0387,0,0,.018-.0013.0118.0342,0,0-.0014.0032-.0049.0075.0045-.0349-.006-.032-.0078-.0303s-.0142.0139-.0031.04c-.0033.0022-.0072.0043-.0119.006-.0078-.0224-.0166-.0207-.0209-.0184-.0057.0031-.01.0143-.0022.0229-.0026.0001-.0052.0002-.008,0,0,0-.0111-.0184.0074-.0311v.0003Z"/>
        <path class="cls-23" d="M.3729.8714s.0241.0038.0477-.0095.0198-.0152.0198-.0152c0,0,.021-.0082.0402.0177,0,0,.0025-.0184.0149-.0133s.0161.0222.0136.0292-.0124.0051-.0173-.0108c0,0,0,.0475-.0322.0254,0,0,.0173-.0044.005-.0266,0,0-.0062-.012-.0204-.0076,0,0-.008.0038-.0006.0209,0,0-.0124-.019-.034-.0095,0,0-.0124.0032-.0149.0279,0,0-.0012-.0235-.0217-.0285h0Z"/>
        <path class="cls-10" d="M.3877.8612s-.0096-.013-.0026-.0161.01.0143.01.0143c0,0-.0074.0018-.0074.0018Z"/>
        <path class="cls-10" d="M.4194.8473s-.0072-.0173.0004-.0268c0,0,.0055-.0026-.0004.0268Z"/>
        <path class="cls-12" d="M.3168.8493s.0053.0043.0012.0146c0,0,.0119-.014.0267-.0103,0,0-.0095-.0176-.0279-.0043Z"/>
        <path class="cls-10" d="M.3393.7885s.0037.0121.0202.0067c.0166-.0055.0273-.017.0303-.0292s-.0119-.0201-.0291-.0152-.0226.0103-.019.0176.019.0067.0279-.003c0,0,.0096.0048-.0059.0152-.0172.0116-.0243.0079-.0243.0079h0Z"/>
        <path class="cls-10" d="M.3328.7775s-.0125-.0182.0119-.0341c0,0-.0125-.0122-.0202-.0049s0,.0201-.0042.0261-.0113.0103-.0267.0055-.0255-.0122-.0422.0012c0,0-.0059.0055-.003.014,0,0-.0196.0116-.0143.0176s.0166-.0122.0166-.0122l.0042.0067s-.0048.0109.0024.0134.0178-.003.0232-.0073.0113-.014.0243-.014.0238-.0109.0279-.0122v.0002Z"/>
        <path class="cls-12" d="M.2877.7812s-.0202-.0128-.0279-.0043.0012.0158.0036.0176.0113.0055.0243-.0134H.2877Z"/>
        <path class="cls-10" d="M.3476.738c.0006-.0201.0202-.0395.0392-.0225s.0303.0128.0439.0043.0273-.0079.0422-.0024.0333.0036.035-.0109-.0238-.0134-.0238-.0134c.0077-.0049.0095-.0164.0048-.0225s-.0148-.0036-.0297.0049-.0285.0122-.0481.0036-.0428-.0018-.0523.0067-.0113.0179-.0137.0237c-.0059.0146-.0291.0182-.0398.0237s-.0374.0073-.0552.0116-.0172.0134-.019.0237.0048.0103.0048.0103c0,0,.0006-.0146.0119-.0201s.0232-.0061.0362-.0006.0285-.0043.0285-.0043c0,0-.0022-.0142.0089-.0213.0172-.0109.0261.0055.0261.0055h0Z"/>
        <path class="cls-23" d="M.3239.8906s.0036-.0176.0178-.0176.0315.0061.0428.0298.0095.0195.0131.0152.0024-.0249.0101-.0298.0196-.0103.0333.0109c0,0,.0392.0322.0582-.0024.0024.0006.0137.0122.0184.0036s.0083-.0225.0024-.0395c0,0,.0184-.0043.0232.0152s-.0077.0383-.0202.0432-.0243-.0079-.0243-.0079c0,0-.0077.0243-.0238.0219s-.0267-.0176-.0344-.0261-.0243-.017-.0303.0061c0,0,.0024.0292-.0184.0243s-.0214-.028-.0344-.0365-.0196-.0006-.0232.0109c0,0-.0036-.0128.0018-.0189s.0238-.0091.0356.0085c0,0-.0143-.0341-.0475-.0109h-.0002Z"/>
        <path class="cls-23" d="M.4225.9758c.0018-.0012.0083-.0255.0321-.0164s.0172.0189.0172.0189l.0077-.0024s-.0042-.0146.0024-.0231.0178-.0201.0315-.0152.0368.0189.0439.031l-.0238.0012s-.0083-.0182-.0249-.0225-.0178.0286-.0178.0286l.0831-.0049s-.0071-.0158-.0012-.0231.0291.0036.0362.0152l.0226.0018s-.0184-.0158-.022-.0249c0,0,.0232.0103.0422-.0036s.0131-.0347.0131-.0347c0,0,.0131.0286.0422.0146s.0333-.0365.0333-.0365c0,0-.0012.0207.0119.0316,0,0-.0196.0146-.0238.0456l-.0137-.0012s.0042-.0225-.019-.0207-.0321.0255-.0321.0255l-.0172.0006s.0107-.0158.0232-.0237c0,0-.0238.0213-.0439.014l.0154.0146.0368-.0024s.0012-.0164.0101-.0189.022-.0036.019.014l.0344.0006s-.0018-.0292.0273-.0486c0,0-.0226-.0292-.0059-.0493l.0083-.0036s.0137.0225.0172.0426.0027.047.0027.047l-.014.012.0071-.0371s-.0119-.003-.0178.003-.016.0292-.0154.0377-.3206.0213-.3206.0213l-.0077-.0085h0Z"/>
        <path class="cls-23" d="M.559.9508s.0012-.014.0125-.017.0273.0073.0273.0073c0,0-.0178-.0085-.016-.0334s.0089-.028.0089-.028c0,0-.0148.0201-.038.014,0,0,.0036.0225-.0238.0371,0,0,.0113-.0018.0291.0201h0Z"/>
        <path class="cls-23" d="M.5483.8542s.0065.0055.0083.0219c0,0,.022.0024.0238-.0128,0,0,.016.0189.0386.0055s.0214-.0547.0653-.0353c0,0,.0095.0432.0475.0334,0,0-.0291-.0024-.0327-.0383s.019-.045.0214-.045-.0042-.0103-.0042-.0103c0,0-.0261.0055-.0273.0371,0,0-.003.0097-.016.0067s-.0333-.0128-.0463-.0061-.0089.0176-.016.0274-.0321-.0012-.0356-.0049.0101.0304.0433.0158c0,0-.0083.031-.0534-.0055,0,0-.0036.0128-.0166.0103h-.0001Z"/>
        <path class="cls-10" d="M.4759.8383c.0018-.0012.0107-.0207.0036-.0377,0,0,.0154.014.0279.0006s-.0012-.0158.0059-.0189.016.0043.0196.0207l.0036.0164s.0036-.0365.022-.0401.0368.0225.0368.0225c0,0-.0042-.028.0261-.0231s.041.0146.0707-.0067c0,0-.0107.0164-.0119.0255s-.0053.0073-.0119.0024-.0428-.0195-.057-.0109-.0077.0268-.0077.0268c0,0,.0036-.0231.0226-.0219,0,0-.0178.0079-.0232.0316,0,0-.0095.0103-.0178,0s-.0071-.0304-.0226-.0286-.0095.0316-.016.0432-.0208.0043-.0261.0061c0,0-.0036-.0286-.0148-.0304s-.0226.0176-.0238.0243l-.0059-.0018h-.0001Z"/>
        <path class="cls-23" d="M.7571.8448c-.0012-.0037-.0298-.0207-.0334-.0488,0,0-.0256.019-.0107.0403.0179.0256.0441.0085.0441.0085Z"/>
        <path class="cls-10" d="M.6419.7706s.0429.0126.0559-.0319c0,0-.0156.0106-.0195.0106,0,0,.0097-.0053.011-.0213s.0013-.0486-.0182-.0472-.0331.0186-.0331.0186c0,0-.0052.0113-.0117.012,0,0,.0032-.0126.0013-.0226s-.0201-.0233-.0377-.008c0,0-.0234-.0086-.026.018,0,0-.0149-.0106-.0266-.0027,0,0-.0136-.0346-.0357-.014,0,0,.024.0007.0195.0206,0,0-.0032.0213-.0208.0279l.0032.0053s.0149-.008.0195-.0007c0,0,.0227-.0259.05-.0126,0,0,.0071-.0372.0312-.0326,0,0,.0234.0007.0123.0412,0,0,.0143.002.0201-.0033s.0032-.0113.0091-.0193.0198-.0175.0286-.0047c.0045.0067.0117.0432-.0325.0665v.0002Z"/>
        <path class="cls-10" d="M.4198.6661s.0078-.014.0227-.006c0,0,.0175-.0259.0351-.0093,0,0,.0149-.0146.0299.0073,0,0,.0084-.0379.037-.0253,0,0,.0273.0233.0019.0452,0,0-.0247-.0226-.0474-.0126,0,0-.0097-.0173-.0266-.0086s-.0364.0246-.0526.0093Z"/>
        <path class="cls-10" d="M.5354.7812s-.0188-.0246-.0331-.014c0,0-.0058.0086-.0006.0186,0,0-.0162.014-.0318-.0027s-.013-.0253-.0078-.0286.0175-.0013.0273.0126c0,0,.0013-.0306.0364-.01,0,0,.0032-.0219.0227-.0239s.0234.012.0435.0146.0578-.008.0669-.0253c0,0,.0078.0173-.0214.0333s-.0448.01-.0448.01c0,0-.0104.0013-.0039.0126,0,0-.0338-.0333-.0533.0027h-.0001Z"/>
        <circle class="cls-11" cx=".4185" cy=".6824" r=".0202"/>
        <circle class="cls-11" cx=".6444" cy=".8523" r=".0219"/>
        <circle class="cls-11" cx=".4042" cy=".9287" r=".0219"/>
        <circle class="cls-11" cx=".2973" cy=".8015" r=".0219"/>
        <path class="cls-10" d="M.3308.7947s-.0297.0101-.0409.0247-.0087.0203-.0019.0241c0,0,.0073-.0197.0216-.0094,0,0,.0131-.0128.028-.0077,0,.0013.0124.0025.0223.0209,0,0,.0012-.0158.013-.0273s.0248.0006.0248.0006c0,0-.0043-.0323.0198-.0336s.0243.0168.0266.0254l-.0019.0197s.0167-.0019.0248.0044c0,0,.0062-.0152.0012-.0336,0,0-.018-.0063-.0192-.0241,0,0-.0173-.0165-.0396-.0089,0,0-.0093.0032-.0136.0095,0,0-.0279.0342-.0508.0285,0,0-.0118-.0038-.0142-.0133h0Z"/>
        <path class="cls-10" d="M.4477.7626s-.0039-.0313.0351-.0186c0,0-.0097-.0219-.037-.0166s-.0364.0233-.0552.0067-.0331.008-.0331.008c0,0,.0325-.0133.0468.018,0,0,.0195-.014.0435.0027v-.0002Z"/>
        <path class="cls-12" d="M.4575.6974s-.0234.0033-.0318.0113-.0227.002-.0299-.0047-.0182-.01-.0279-.0053c0,0,.0091-.0166.0305-.006s.0468-.0013.0468-.0013c0,0,.0156-.0093.0175-.004s.0026.0086-.0052.01Z"/>
        <path class="cls-10" d="M.562.6761s.0117-.0146.026-.01c0,0,.024-.0259.0494.01,0,0,.0299-.0333.05-.008,0,0,.0013-.0193-.0039-.0352,0,0-.0117.0126-.0292.0106s-.0149-.0053-.0188-.01-.0247-.0106-.0338.0073c0,0-.0104.0166-.0325.012,0,0,.0045.0086-.0071.0233h-.0001Z"/>
        <path class="cls-9" d="M.7909.9474s-.0009-.0538.0036-.0751-.0052-.0725-.0286-.1018c-.0006.0027.0279.0858.0156.1137,0,.0033.0094.0631.0094.0631h0Z"/>
        <path class="cls-9" d="M.7725.8411s-.0123-.0572-.0195-.0712-.0149-.0406-.0149-.0406c0,0,.0234.008.0403.0399s.0266.0479.0312.0845c-.0019.0013-.011.0279-.0039.0466s.0026.0459.0026.0459c0,0,.0182.0013.0182-.0007s-.0006-.0446-.0026-.0738-.0113-.076-.0331-.1091c-.0175-.0266-.039-.0492-.0474-.0532,0,0-.0273-.0446-.0318-.0951,0,0-.0201-.006-.0156.0153s.0214.0459.0266.0658.0104.0599.0123.0765.0091.0565.0377.0692h0Z"/>
        <path class="cls-9" d="M.7127.7533c-.0009.0025-.0045-.0466-.024-.0791,0,0,.0182-.0047.024.0219s.0052.0426,0,.0572Z"/>
        <path class="cls-9" d="M.842.9441s-.0032-.0632-.0091-.0885c0,0,.0286.0486.0331.0851l-.024.0033h0Z"/>
        <path class="cls-9" d="M.8809.9422c0-.002-.0201-.0758-.0422-.1057s-.0091-.0645-.0078-.0891.0052-.0293-.0091-.0392-.0312.0086-.0338.0226c0,0-.0182-.0239-.0351-.0372,0-.0027-.0247-.0519-.0273-.0698s-.0013-.02-.0013-.0273-.0084-.002-.0136,0c0,0,.0013-.0106.0169-.008s.0195.0166.0208.0286.013.0539.026.0672c0,0,.0058-.0166.0143-.0193,0,0-.0299-.0645-.0292-.0825s.0182-.0352.0182-.0352c.0019-.0007.0129-.004.0159-.0003,0,0-.0269.0183-.0191.0442s.024.0705.024.0705l.0091-.0033s-.0186-.0628-.0181-.0796.007-.0155.0103-.0135.0026.0146.0065.0293.0136.0652.0195.0692.0195-.0053.0325.0392c0,0,.0136.0366.0273.0579s.0461.0619.0396.1743c.0006.002-.0117.004-.0117.004,0,0,.0045-.0632-.013-.1151s-.0364-.0592-.0448-.0991-.0331-.0492-.0539-.0446c0,0-.0169.0067-.024.0173l.0052.01s.0292-.0326.0539-.0067c.0019.0033.0201.0193.0123.0559.0006.006.0006.0226.0221.0505s.0351.0991.0338.135l-.0071-.0007s-.0058-.0645-.0175-.0898-.0286-.0426-.0357-.0605-.0084.0093.0006.0306.0422.0905.0448.1217l-.0091-.0013-.0002-.0002Z"/>
        <path class="cls-10" d="M.4919.8402s.0077-.0024.016.0085c0,0,.0036-.014-.003-.0207s-.0131.0122-.0131.0122h.0001Z"/>
        <path class="cls-23" d="M.6439.8937s-.0083-.0128-.0172-.0146c0,0-.0333-.0073-.0338.0249-.0005.028.0196.031.0321.0274s.0178-.0097.0196-.0152l-.0089-.0067c.0011.0007-.0128.0198-.0243.0116-.009-.0065-.0101-.0182-.0042-.0261s.022-.0103.0315.0043l.0148.0146s-.003-.0359.0148-.0426c-.0024.0012.0012.031.0202.0316,0,0,.0249.0012.0433-.0237,0,0-.0131.0055-.0279-.0006-.0158-.0065-.0243-.0292-.0243-.0292,0,0,.0018.0371.0243.0389,0,0-.0143.0091-.0226-.0018s-.0125-.0383-.0125-.0383c0,0-.0267-.0061-.0249.0456h0Z"/>
        <path class="cls-9" d="M.8173.7958s-.0032-.0532,0-.0645-.0052-.0106-.0117-.0047-.0052.0233.0117.0692Z"/>
        <path class="cls-10" d="M.9679.7739s-.0195-.0333-.0435-.0286-.0266.014-.0266.014c0,0-.0169-.02-.0175-.0273s.0067-.0368.0132-.0341.0127.0068.0108.0155-.0026.0219.0013.0246.0101-.0093.0136-.018c.0026-.0062.0105.003.0078.0086-.002.0043.0021.0094.0021.0094,0,0,.009.0052.0129-.0027s.0071-.0053.0071-.0053c0,0-.0019.0073.0013.016.0012.0032.0123.0206.0175.0279Z"/>
        <circle class="cls-11" cx=".932" cy=".7499" r=".0219"/>
        <path class="cls-23" d="M.2708.8967s.0025.007.0019.0171-.0037.0146.005.0158.0099-.0127.0136-.0171.0056-.0146.0136-.0165.013.0057.0136.012,0,.0108.005.0146.0142.0101.0198.0209.0248.0063.0248.0063c-.0074.0013-.0118-.0063-.0167-.0133s-.0167-.0133-.0167-.0133c.0149-.0038.0254.0044.0328.0139s.021.0139.0297.0146.0204-.0057.0217-.0152.0056-.0165.0056-.0165c.0043-.0019.008-.0013.0223.0139.0117.0124.0353.0095.0353.0095-.0062.0032-.0161.0108-.0161.0108,0,0-.0056-.0082-.0229-.0095s-.0285.0152-.0285.0152c-.0087-.0038-.034.0006-.0439.0025s-.026-.0051-.0433-.019-.021-.0133-.0285-.0114-.0167.012-.0223.0127-.008-.0063-.008-.0063c0,0-.0058-.0153-.0197-.0164,0,0-.0094-.0076-.002-.0178s.0241-.0076.0241-.0076h-.0002Z"/>
        <path class="cls-23" d="M.8946.7745s.0364-.0359.0578-.006.0214.0605-.0006.0825c0,0-.0136.0093-.0208.0106,0,0,.0201.0047.0162.0313,0,0,.0227-.01.026.0266,0,0,.0071-.0013.0071-.0067s.0019-.0326-.0273-.0346c0,0,.0013-.0073-.0052-.0133,0,0,.0149-.0027.0175-.012,0,0,.0019.0206.0188.016.0169-.0046.0201-.0033.0136-.0153s-.0091-.0259-.0013-.0273c.0078-.0014.0104.008.0123.0193.0019-.002.011-.008.0104-.0219s.0097-.0239.0123-.0239-.0032.0599-.011.0712-.0091.0053-.0091.0053c0,0-.0117-.0086-.0253,0,0,0,.0071.0153.0045.0359,0,0-.0383.0259-.0559.0239,0,0,.0013-.016.013-.0206s.0058.018.0058.018l.0104-.0073s-.0026-.0426-.0338-.008c0,0,.0149-.0246-.0045-.0466l-.0039-.0213s.0175-.008.0136-.0299-.0227-.0053-.0227-.0053l-.0045-.018s.013-.014.026-.006.0175.0173.0149.0326c0,0,.02-.0216-.0123-.0492-.0156-.0133-.0331.0067-.0357.0086"/>
        <path class="cls-10" d="M1.0329.7885s-.0221.0013-.0214.0299c0,0-.011-.0093-.0227.002,0,0-.013.0093-.0032.0319,0,0-.0091.014-.0149-.0073,0,0,.0136-.014.0123-.0419,0,0,.0344-.0027.0487-.0239l-.0026-.0067s-.0221.0253-.05.0133c0,0-.0013-.0093.0078-.0086s.026.006.0442-.0133l-.0026-.006s-.0091.0186-.0422.012-.0279-.0525-.0279-.0525c0,0-.0045-.008-.0084-.0033s-.0123.0126-.0123.0126c0,0,.0078-.02-.0058-.0253s-.0201.018-.0201.018c0,0,.0104-.0233-.0104-.0326s-.0247.0219-.0247.0219c0,0,.0013-.0253-.0104-.0313,0,0-.0019-.0027-.0084-.002l-.0071-.0193s.0247-.0053.0286.0186c0,0,.0279-.0219.0422.0133,0,0,.0201-.0206.026.0106,0,0,.0084-.008.0195.0013s.0028.0204.0052.0306c.0026.0113.011.0346.0383.0299,0,0,.0156-.0047.0234-.018,0,0-.0318.02-.0442.0047s-.0013-.0319.0052-.0352c.0065-.0033.0286.0013.0286.0013l.0013.0086s-.0234-.0053-.0266.0047.0013.0206.0071.0186-.0058-.01.0032-.0146.0169,0,.0169,0c0,0,.0071.0173.0078.0579h-.0004Z"/>
      </g>
    </g>
  </g>
</svg>