<svg version="1.0" xmlns="http://www.w3.org/2000/svg" viewBox="0 0 1 1" xml:space="preserve"><path fill="#846133" d="M.276.229s-.093.029-.12.16c-.008.04-.022.1.002.143L.119.604S.026.513.105.317C.169.159.27.171.27.171"/><path fill="#231F20" d="M.273.219a.204.204 0 0 0-.111.114.365.365 0 0 0-.027.126C.134.48.149.514.147.53.145.543.13.557.126.57.118.591.105.587.125.596.119.593.11.576.108.571A.297.297 0 0 1 .089.404C.104.324.163.171.27.18.283.181.283.161.27.16.086.144.002.496.112.61.116.615.125.614.128.608.138.589.156.568.161.547.167.521.161.513.157.482.147.396.189.269.279.238.29.234.285.215.273.219z"/><path fill="#846133" d="M.713.229s.096.029.124.16c.008.04.023.1-.002.143l.039.072S.969.513.888.317C.823.159.718.171.718.171"/><path fill="#231F20" d="M.71.238c.086.029.125.138.128.221.001.03-.014.055-.01.081.003.021.027.05.037.069.003.006.011.006.016.002C.996.495.903.146.718.161c-.013.001-.013.021 0 .02.109-.009.171.14.187.224A.268.268 0 0 1 .88.579C.878.584.872.594.867.596.886.588.874.585.862.563.842.524.859.502.858.459A.332.332 0 0 0 .822.317.203.203 0 0 0 .716.219C.703.215.698.234.71.238z"/><path fill="#B27B2B" d="M.115.92S.112.978.172.978h.645S.873.973.873.912V.627S.882.317.492.317c0 0-.38.003-.38.336L.115.92z"/><path fill="#231F20" d="M.105.92c.004.126.348.068.42.068.12 0 .341.062.358-.098C.898.759.906.564.825.448.714.292.476.276.31.345.064.448.102.698.105.92c0 .013.02.013.02 0C.122.68.093.419.382.343.593.288.841.38.862.618c.006.072 0 .148 0 .22 0 .102-.03.13-.125.13-.068 0-.61.045-.613-.048 0-.013-.02-.013-.019 0z"/><path fill="#DC981D" d="M.733.132S.735.096.697.096H.285S.249.099.249.137v.149S.27.507.492.507c0 0 .242-.002.242-.209L.733.132z"/><path fill="#231F20" d="M.743.132C.741.049.527.086.481.086.413.086.256.047.239.14.195.368.368.59.608.493.766.428.744.273.743.132c0-.013-.02-.013-.02 0C.724.281.74.441.561.487.425.522.286.446.261.302A.45.45 0 0 1 .258.175c.009-.071.027-.07.09-.07.04 0 .372-.026.374.026.001.014.021.014.021.001z"/><path fill="#EEAE1E" d="M.405.2S.406.186.39.186H.36S.346.182.346.204v.369c0 .041.007.065.03.065s.03-.022.03-.067L.405.2z"/><path fill="#231F20" d="M.414.197C.41.175.37.166.352.176.329.19.336.22.336.243v.204c0 .048-.012.12.004.166.01.029.037.049.063.021.02-.022.012-.071.012-.1L.414.199c0-.013-.02-.013-.02 0l.001.194c0 .023.021.2-.003.217C.351.64.356.503.356.498V.355c0-.041-.002-.082 0-.123 0-.005-.003-.022 0-.027C.36.198.391.184.395.202.398.215.417.21.414.197z"/><path fill="#EEAE1E" d="M.642.2S.643.186.627.186h-.03S.583.182.583.204v.369c0 .041.007.065.03.065s.03-.022.03-.067L.642.2z"/><path fill="#231F20" d="M.651.197C.647.175.607.166.589.176.566.19.573.22.573.243v.204c0 .048-.012.12.004.166.01.029.037.049.063.021.02-.022.012-.071.012-.1L.651.199c0-.013-.02-.013-.02 0l.001.194c0 .023.021.2-.003.217C.588.64.593.503.593.498V.355c0-.041-.002-.082 0-.123C.593.227.59.21.593.205.597.198.628.184.632.202.635.215.654.21.651.197z"/><path fill="#DC981D" d="M.462.717S.463.701.446.701h-.18S.25.702.25.719V.81S.244.909.331.909h.051C.433.906.463.885.463.815L.462.717z"/><path fill="#231F20" d="M.472.717C.471.672.364.691.339.691.296.691.241.675.24.732.238.776.232.836.255.877c.03.052.124.056.174.032C.492.877.472.774.472.717c0-.013-.02-.013-.02 0 .001.054.02.16-.046.179C.377.904.319.906.293.89.267.873.261.841.26.813V.752C.26.725.256.713.283.71.299.709.452.704.452.716c0 .014.02.014.02.001z"/><g><path fill="#DC981D" d="M.736.717S.737.701.72.701H.54S.524.702.524.719V.81S.518.909.605.909h.054C.71.906.737.885.737.815L.736.717z"/><path fill="#231F20" d="M.746.717C.745.672.638.691.613.691.57.691.515.675.514.732.512.776.506.836.529.877c.03.052.126.057.176.032C.766.877.746.773.746.717c0-.013-.02-.013-.02 0 .001.052.02.16-.044.179C.653.904.593.906.566.89.541.873.535.841.534.813V.752C.534.725.53.713.557.71.573.709.726.704.726.716c0 .014.02.014.02.001z"/></g><g><path fill="#FCB912" d="M.349.727c.011 0 .02.009.02.02S.36.771.349.771.329.758.329.747s.009-.02.02-.02z"/><path fill="#231F20" d="M.349.737c.013.001.012.024 0 .024S.334.738.349.737c.013-.001.013-.021 0-.02C.332.718.318.731.319.748c.001.016.014.033.03.033S.377.765.378.75C.379.732.365.719.348.717.336.716.336.736.349.737z"/></g><g><circle fill="#FCB912" cx=".635" cy=".758" r=".02"/><path fill="#231F20" d="M.635.748c.013.001.013.02 0 .02s-.012-.019 0-.02c.013-.001.013-.021 0-.02-.016.001-.03.013-.03.03 0 .016.014.03.03.03a.03.03 0 0 0 .03-.029C.666.741.652.729.635.728.623.727.623.747.635.748z"/></g><g><path fill="#231F20" d="m.317.487.117.007-.01-.007v.089L.432.572l-.12.004a.075.075 0 0 0 .012.007l.003-.1c0-.007-.02-.009-.02-.002l-.003.1c0 .005.009.006.012.006l.12-.004C.438.583.444.582.444.579V.49C.444.486.438.484.435.484L.318.477C.306.476.305.487.317.487z"/></g><g><path fill="#231F20" d="m.374.55.002.025c.001.013.021.013.02 0L.394.55C.393.537.373.537.374.55z"/></g><g><path fill="#231F20" d="m.551.49.117.006L.656.489l.015.085.007-.008-.13.011.012.009L.558.484C.558.475.539.47.539.48L.54.583c0 .006.007.01.012.009l.13-.011C.687.581.69.578.689.573L.674.488C.674.483.667.481.663.481L.546.475C.533.474.541.489.551.49z"/></g><g><path fill="#231F20" d="m.605.55.002.025c.001.013.021.013.02 0A.21.21 0 0 1 .625.55C.624.537.604.537.605.55z"/></g><g><path fill="#231F20" d="M.411.084c.012-.088.163-.09.178-.003.002.009.014.015.012.002-.018-.1-.186-.121-.2-.01-.002.006.009.022.01.011z"/></g></svg>