<svg version="1.0" xmlns="http://www.w3.org/2000/svg" viewBox="0 0 1.95 1" xml:space="preserve"><path fill="#609540" d="M1.093.953s.06-.013.08-.061c0 0 .025-.066-.037-.102A1.074 1.074 0 0 1 .905.576S.86.54.834.569C.806.598.653.736.626.737l.467.216z"/><path fill="#231F20" d="M1.107.961c.07-.018.113-.087.064-.15-.032-.04-.094-.069-.132-.104C.996.669.961.62.919.583.804.48.715.7.611.729.606.73.623.74.624.74l.467.217c.018.008.021.001.003-.007L.841.833.68.758C.67.753.643.747.637.738.627.724.63.749.638.738.629.751.678.726.67.73.718.711.768.653.805.619.879.55.902.594.961.652c.047.047.099.086.15.128.071.058.062.141-.033.165 0 .001.02.018.029.016z"/><path fill="#82AC41" d="M.582.342s.104.132.251.227L.798.604S.607.48.53.35L.582.342z"/><path fill="#231F20" d="M.568.338c.036.045.076.086.118.124.034.031.071.06.108.088.016.01.02.008.013.023C.803.581.789.59.783.597l.024.008A1.272 1.272 0 0 1 .664.494.708.708 0 0 1 .563.383C.546.359.544.364.565.355.573.351.587.352.596.35c0 0-.019-.017-.029-.016a.81.81 0 0 1-.052.008L.514.344a.907.907 0 0 0 .275.259c.004.002.02.012.025.008L.848.577C.85.575.842.571.842.57A1.088 1.088 0 0 1 .596.347C.592.341.564.332.568.338z"/><path fill="#609540" d="M.025.441C.05.303.111.219.111.219S.157.168.206.216c0 0 .175.099.116.349C.323.565 0 .579.025.441z"/><path fill="#231F20" d="M.04.448A.616.616 0 0 1 .102.267C.113.247.123.223.145.213.208.185.27.281.293.331c.024.054.03.115.024.173-.006.047 0 .054-.044.054C.199.557.028.555.04.448.041.44.01.431.01.434c-.016.138.24.143.325.14L.338.573C.367.433.334.303.217.218.08.119.029.336.01.434.008.441.04.451.04.448z"/><g><path fill="#ABD037" d="M.07.412S.9.906 1.098.928c0 0 .065-.015.053-.003s.015.095-.105.058C.894.937.263.68.263.68L.074.602S-.02.55.013.468.07.412.07.412z"/><path fill="#231F20" d="M.061.412c.16.095.323.187.487.275.175.094.365.157.54.245 0 0 .044.004.041 0C1.167.975.973.951.944.943.81.906.679.842.55.791A23.349 23.349 0 0 1 .27.678L.186.644C.164.635.128.627.109.612.083.592.01.386.064.414.075.419.096.422.075.411c-.09-.046-.09.114-.044.165C.089.64.204.66.279.69c.19.077.38.154.572.227.09.034.279.153.316.016.001-.003-.008-.008-.01-.009-.029-.015-.043.002-.073-.007A2.446 2.446 0 0 1 .625.719 11.205 11.205 0 0 1 .079.413C.073.409.042.401.061.412z"/></g><g><path fill="#ABD037" d="M.235.322.552.279S.579.268.59.295s.013.06.013.06S.596.376.576.38L.243.416S.216.415.21.395C.203.375.205.347.205.347S.201.325.235.322z"/><path fill="#231F20" d="M.249.33.453.302C.481.298.526.283.555.288.557.288.569.284.571.285.601.303.588.36.563.372.546.38.515.378.498.38L.364.394C.33.398.28.413.246.407.234.404.234.412.225.401.2.375.225.336.249.33.25.33.229.312.22.314.176.327.179.381.212.408.23.423.25.423.272.423.333.422.395.41.456.403.494.399.554.404.59.388.633.369.62.306.588.281.568.266.548.27.526.272.424.283.322.3.22.314c0 0 .02.017.029.016z"/></g><g><path fill="#609540" d="M1.872.432s.05-.034.05-.087c0 0-.002-.071-.073-.08a1.076 1.076 0 0 1-.295-.11s-.055-.016-.069.021c-.014.037-.103.222-.128.233l.515.023z"/><path fill="#231F20" d="M1.887.439C2.091.283 1.674.21 1.615.183 1.571.163 1.521.12 1.475.16c-.064.058-.061.185-.134.242-.003.003.025.015.028.015l.515.023c.006 0-.018-.016-.025-.016L1.344.401l.028.015c.048-.038.076-.119.101-.173.035-.073.055-.092.13-.057.062.03.128.054.194.073.093.026.153.094.059.166 0 0 .024.02.031.014z"/><path fill="#82AC41" d="M1.167.061s.146.082.318.115l-.019.045S1.242.179 1.121.088l.046-.027z"/><path fill="#231F20" d="M1.161.062c.104.057.218.098.334.121L1.47.169l-.017.044c-.017.006-.065-.015-.081-.02a.99.99 0 0 1-.21-.083c-.025-.008-.03-.015-.014-.021.003-.007.026-.016.034-.02.003-.002-.022-.02-.029-.016L1.107.08a.928.928 0 0 0 .369.148h.006L1.5.183c.002-.006-.022-.014-.025-.015a1.05 1.05 0 0 1-.302-.109c-.011-.005-.032-.008-.012.003z"/><path fill="#609540" d="M.689.364C.659.227.684.126.684.126S.708.06.771.087c0 0 .199.025.24.279.001 0-.292.135-.322-.002z"/><path fill="#231F20" d="M.704.37a.654.654 0 0 1-.01-.207C.698.141.7.123.716.107.766.056.873.13.907.165a.345.345 0 0 1 .079.147C.999.361.997.36.955.376.893.399.731.463.704.37.702.362.673.355.674.358c.039.14.269.054.352.016l.001-.002a.348.348 0 0 0-.251-.29C.618.038.656.266.674.357c.001.008.031.016.03.013z"/><g><path fill="#ABD037" d="M.72.32s.955.142 1.147.087c0 0 .054-.038.048-.023-.006.015.05.082-.075.094C1.681.492 1 .494 1 .494H.796S.689.482.689.393.72.32.72.32z"/><path fill="#231F20" d="M.732.328c.184.027.369.051.554.07.133.014.266.027.4.029.054.001.146-.023.196-.012a.06.06 0 0 0 .02-.022c.016.052-.01.078-.077.077-.047.02-.132.007-.184.008-.141.004-.282.006-.424.007l-.23.001c-.039 0-.086.007-.124 0H.794C.691.415.67.363.732.328.738.329.714.313.707.312.611.304.715.465.757.487c.074.038.181.015.26.014.2 0 .399-.002.599-.007.099-.001.333.038.314-.104-.001-.007-.022-.013-.028-.014-.054-.005-.136.035-.2.035-.137.002-.277-.013-.414-.026C1.094.365.9.341.707.312.701.311.725.327.732.328z"/></g><g><path fill="#ABD037" d="m.838.174.277-.16s.021-.021.041 0c.021.021.034.05.034.05s.002.023-.014.034l-.295.16S.856.267.842.251A.165.165 0 0 1 .82.209S.808.19.838.174z"/><path fill="#231F20" d="m.852.182.182-.105c.026-.015.06-.044.089-.051.006-.002.014-.012.019-.011.037.005.036.06.018.078-.018.018-.055.03-.077.042L.957.201C.935.213.897.245.871.247.832.252.826.202.852.182.854.181.829.161.822.167.787.195.812.242.849.261.873.273.89.267.913.257.966.233 1.018.2 1.069.172c.034-.018.094-.038.121-.066.033-.034-.003-.079-.037-.098-.027-.016-.041-.009-.067.006L.823.166C.82.168.845.186.852.182z"/></g></g></svg>