<svg version="1.0" xmlns="http://www.w3.org/2000/svg" viewBox="0 0 1.8 1" xml:space="preserve"><path fill="#2A211E" d="M.886.87s.402.238.906.025L1.372.74.886.87z"/><path fill="#3F3937" d="M.039.881.58.598V.352S.591.021.914.021s.334.303.334.303v.275l.543.297S1.372.709.919.899c-.46.192-.88-.018-.88-.018z"/><path fill="#635653" d="M.583.448h.671v.147H.583z"/><g opacity=".85"><path d="M.238.781.262.769.249.774.238.781zM.284.757.289.755.292.753zM.326.734.304.746.326.734zM.292.751v.001L.304.745.292.751zM.292.751.284.754.292.751zM.298.737S.302.738.31.733L.363.702.394.688C.413.677.461.647.432.663L.32.724.226.778.199.792.236.774.298.737zM.061.872.073.865l.058-.03-.01.003C.11.844.109.846.12.841L.053.874S.054.875.061.872zM.04.881A.245.245 0 0 1 .053.874H.052L.04.881z"/><path d="M.413.686.572.603A.306.306 0 0 1 .583.596L.584.582V.548H.583L.581.555.582.546.583.532V.508v.024l.001.014V.55.435v.002V.39L.582.361l.001-.01L.582.335.579.357c-.002.01.003.022 0 .033C.582.378.577.367.578.357L.581.335A.234.234 0 0 1 .588.29L.582.336l.001.016-.001.01.002.029C.584.363.583.334.588.305.607.11.799-.008.991.033a.266.266 0 0 1 .216.183c.038.126.021.246.034.386l.173.106.254.149c.088.046.046.006.046.006-.048-.04-.092-.059-.197-.127.072.047-.057-.025-.122-.072L1.27.585 1.257.326a.416.416 0 0 0-.025-.118C1.154-.031.824-.062.654.11a.32.32 0 0 0-.075.157.373.373 0 0 0-.012.111l.004.131L.567.381c0-.033.004.024.005.046L.571.46l.003.061C.575.53.572.534.572.534L.576.59.569.594.533.613.511.624.496.632.504.631.48.643.504.631.496.632.385.695h.001L.453.662C.443.667.444.666.455.66L.464.657l-.058.03-.012.007C.388.697.386.696.386.696L.373.703l.04-.017zM.583.533v.012-.048.036z"/></g><g opacity=".85"><path d="M.628.453h.007L.631.452zM.641.453h.002zM.653.452H.647h.006zM.643.452v.001L.647.452zM.643.452.641.451l.002.001zM.646.441c.001 0 .001.003.003.002L.664.441C.667.44.671.444.673.443.679.442.693.438.684.438L.652.44.626.444H.618l.01.001C.633.446.639.442.646.441zM.578.451.582.45c.005.002.011.001.016 0L.596.449C.593.449.592.45.595.451.588.449.582.449.576.449c0 .001 0 .002.002.002zM.572.449h.004-.004zM.678.45h.045L.726.449.729.45h.008V.449L.735.448l.002.001L.74.45h.006-.011.017C.755.45.759.449.761.451h.015A.019.019 0 0 0 .784.449L.786.45.791.449.785.447C.783.446.78.45.777.447.78.45.783.445.785.447L.79.449C.793.448.798.449.801.45A.02.02 0 0 1 .79.449L.786.45.784.449a.019.019 0 0 0-.007.002.17.17 0 0 1 .022.001C.846.454.89.453.938.454l.077.004c.05.003.095-.001.145.006.019.002.055.001.074.001.025-.005.012-.017.011-.018-.015-.01-.027-.005-.059-.011.021.003-.016.007-.036 0-.029-.011-.07-.002-.106-.005h-.029C.959.427.908.432.85.431.835.431.821.434.808.435.798.436.788.434.781.434a.325.325 0 0 0-.033.002L.78.434c.008 0-.006.004-.011.005C.766.441.762.437.76.438A.077.077 0 0 0 .745.44C.742.441.742.438.741.438.733.439.728.443.723.442L.713.441H.707L.703.442l.002.003L.698.444l.007.001L.703.442.671.447c.006 0 .012 0 .019.002C.687.447.687.446.69.446l.002.001C.686.448.681.449.676.447L.672.448C.67.448.67.447.67.446H.666A.079.079 0 0 0 .678.45zM.742.449H.739h.012-.009z"/></g><g opacity=".85"><path d="m.631.605.006.001L.634.605zM.644.606h.001L.646.605zM.655.605H.649h.006zM.646.604v.001h.003zM.646.604.644.603l.002.001zM.649.594C.65.594.65.597.652.596L.667.594C.67.593.674.596.676.596.682.595.696.591.687.591L.655.593.628.597H.62l.01.001C.636.598.641.595.649.594zM.581.604.585.603c.005.002.011.001.016 0L.599.602C.596.602.595.603.598.604A.043.043 0 0 0 .579.602l.002.002zM.575.602h.004-.004zM.68.602h.045L.728.601l.003.001h.008V.601L.738.6.74.601l.003.001h.006-.011.017c.003 0 .007-.001.009.001h.015L.786.601l.002.001h.005L.788.6C.786.599.783.603.78.6.783.603.786.598.788.6l.005.002c.003-.001.008 0 .011.001A.02.02 0 0 1 .793.602L.789.603.787.602A.019.019 0 0 0 .78.604a.17.17 0 0 1 .022.001c.047.002.091.001.139.002.026 0 .051.002.076.003.05.003.095-.001.145.006.019.002.055.001.074.001.025-.005.012-.017.011-.018-.015-.01-.027-.004-.058-.011.021.003-.016.007-.036 0-.029-.011-.07-.002-.106-.005h-.029C.962.58.91.585.852.584.837.584.823.587.81.588.8.589.79.587.783.587.77.587.76.589.75.59L.782.588C.79.588.776.592.771.593.768.593.764.59.762.591a.077.077 0 0 0-.015.002C.744.593.745.591.743.591.736.592.73.595.725.595L.715.594H.709L.705.595l.002.003L.7.597l.007.001L.705.595.673.6C.679.6.685.6.692.602.689.6.689.599.693.599L.695.6C.689.601.684.602.679.6L.675.601C.673.601.673.6.673.599H.669A.236.236 0 0 0 .68.602zM.744.602H.741h.012-.009z"/></g><g opacity=".85"><path d="M1.629.832 1.613.826l.008.004zM1.597.822 1.594.821h-.003zM1.567.816l.015.003-.015-.003zM1.591.822V.821L1.582.819zM1.591.822l.005.002-.005-.002zM1.581.83S1.579.827 1.573.826A1.566 1.566 0 0 1 1.534.82L1.512.816c-.014-.002-.05-.002-.029 0l.081.011a.414.414 0 0 1 .068.015l.018.006-.024-.009C1.615.835 1.6.833 1.581.83zM1.746.889 1.738.885a.148.148 0 0 0-.037-.021l.005.004c.007.004.008.004.002-.001l.041.027-.003-.005z"/><path d="M1.502.808a.771.771 0 0 0-.116-.006h-.009L1.368.801l-.016.001h-.006v.001l.006.001h-.015l-.016.001.016-.001.009-.001h.003l-.038.001-.007.001-.023.002h-.008.001-.003L1.244.81l-.018.004H1.22l-.01.003h.014c.006 0 .014-.005.021-.003-.008-.002-.015.004-.022.003h-.014L1.18.821c.011-.004.021-.004.03-.004l.01-.003h.006L1.244.81l-.056.008C1.066.833.96.881.842.922a.96.96 0 0 1-.194.037A1.108 1.108 0 0 1 .276.938 2.04 2.04 0 0 1 .093.89C.033.872.061.897.061.897c.034.024.065.029.143.055C.151.935.245.956.296.97a.943.943 0 0 0 .278.022L.65.986C.797.978.926.912 1.064.867l.104-.029.07-.011.083-.011-.081.01c-.021.004.015-.006.029-.008h.022L1.33.813c.006-.001.009.001.009.001.019-.002.034-.006.047-.005l.025.001h.027L1.433.807l.017.002-.017-.002.005.003a.567.567 0 0 1 .082.003L1.472.806c.007.001.006.002-.002.002L1.464.806c.014 0 .029.001.042.005h.009l.005.003.009.001a2.144 2.144 0 0 1-.027-.007z"/><path d="m1.337.803.008-.001-.032.002.024-.001z"/></g></svg>