<svg id="Capa_1" data-name="Capa 1" xmlns="http://www.w3.org/2000/svg" version="1.1" viewBox="0 0 1 1"><defs><style>.cls-1{stroke:#000;stroke-miterlimit:10;stroke-width:.0119px}.cls-1,.cls-2{fill:#bbdb37}.cls-3{fill:#000}.cls-2,.cls-3{stroke-width:0}</style></defs><path class="cls-1" d="M.056.98S.003.627.135.229c0 0 .068-.177.208-.185l.174.074.126-.081S.801.03.896.363c0 0 .077.438.04.62L.868.988C.83.992.82.977.82.977S.83.606.754.45c0 0 .032.4-.047.509 0 0-.075.016-.221.014S.282.96.282.96.22.864.21.455c0 0-.053.335-.032.533 0 0-.028.002-.069.002S.056.98.056.98z"/><path class="cls-1" d="M.375.018.343.045S.39.129.501.129c0 0 .11.01.142-.092L.617.018S.583.081.512.084.375.018.375.018z"/><path class="cls-2" d="m.05.914.118.009"/><path class="cls-3" d="M.05.914c.04-.003.079 0 .118.01-.04.003-.08 0-.118-.01 0 0 .039.01 0 0z"/><path class="cls-2" d="M.074.911.078.99"/><path class="cls-3" d="M.074.911C.082.937.083.963.078.99A.157.157 0 0 1 .074.91s-.005.026 0 0z"/><path class="cls-2" d="M.106.913.103.97"/><path class="cls-3" d="M.106.913A.086.086 0 0 1 .103.97.086.086 0 0 1 .106.913s-.008.019 0 0z"/><path class="cls-2" d="M.136.916.14.995"/><path class="cls-3" d="M.137.916C.141.942.15.971.14.995A.148.148 0 0 1 .137.916z"/><path class="cls-2" d="M.852.907.845.972"/><path class="cls-3" d="M.853.907c0 .021.004.048-.01.065a.102.102 0 0 1 .01-.064z"/><path class="cls-2" d="m.305.907.011.049"/><path class="cls-3" d="M.306.907c.006.015.017.033.01.049a.061.061 0 0 1-.01-.049z"/><path class="cls-2" d="m.339.907.007.048"/><path class="cls-3" d="M.34.907C.344.922.353.94.346.955A.074.074 0 0 1 .34.907z"/><path class="cls-2" d="m.386.897.01.075"/><path class="cls-3" d="M.386.897c.006.024.015.051.01.075a.174.174 0 0 1-.01-.075z"/><path class="cls-2" d="m.389.035-.03.022"/><path class="cls-3" d="M.389.035C.381.044.372.058.359.057a.044.044 0 0 1 .03-.022z"/><path class="cls-2" d="M.412.045.384.089"/><path class="cls-3" d="M.413.045C.406.061.399.081.383.09a.085.085 0 0 1 .03-.043z"/><path class="cls-2" d="M.428.061.409.113"/><path class="cls-3" d="M.428.06C.424.08.423.1.408.114.41.094.418.075.428.061z"/><path class="cls-2" d="M.467.075.464.123"/><path class="cls-3" d="M.468.075C.469.091.473.11.463.123A.07.07 0 0 1 .468.075z"/><path class="cls-2" d="M.354.26.35.289"/><path class="cls-3" d="M.354.26C.356.27.36.282.35.29.345.279.348.267.354.26z"/><path class="cls-2" d="M.369.424.368.453"/><path class="cls-3" d="M.37.424c0 .01.004.021-.003.029A.036.036 0 0 1 .37.422z"/><path class="cls-2" d="M.387.402.386.431"/><path class="cls-3" d="M.388.402c0 .01.004.021-.003.029A.036.036 0 0 1 .388.402z"/><path class="cls-2" d="M.644.32.643.349"/><path class="cls-3" d="M.644.32C.646.33.65.341.642.35A.036.036 0 0 1 .644.32z"/><path class="cls-2" d="m.677.159.008.025"/><path class="cls-3" d="M.678.159c.004.007.01.017.006.025A.03.03 0 0 1 .678.16z"/><path class="cls-2" d="M.537.516.535.545"/><path class="cls-3" d="M.537.516c.001.01.005.021-.002.029a.036.036 0 0 1 .002-.03z"/><g><path class="cls-2" d="M.417.691.415.72"/><path class="cls-3" d="M.417.69C.418.7.421.713.415.72A.036.036 0 0 1 .417.69z"/></g><g><path class="cls-2" d="M.634.724.632.753"/><path class="cls-3" d="M.634.724C.635.734.64.745.632.753A.036.036 0 0 1 .634.724z"/></g><g><path class="cls-2" d="M.145.331.136.357"/><path class="cls-3" d="M.145.331c0 .009 0 .02-.009.025a.031.031 0 0 1 .01-.025z"/></g><g><path class="cls-2" d="M.135.559.134.588"/><path class="cls-3" d="M.136.56c0 .009.004.02-.003.028A.036.036 0 0 1 .136.559z"/></g><g><path class="cls-2" d="m.811.315.007.033"/><path class="cls-3" d="M.811.315c.004.01.01.022.006.033A.049.049 0 0 1 .812.315z"/></g><g><path class="cls-2" d="M.888.644.887.672"/><path class="cls-3" d="M.889.644c0 .009.004.02-.002.028A.036.036 0 0 1 .889.644z"/></g><g><path class="cls-2" d="m.52.085.007.043"/><path class="cls-3" d="M.52.085c.005.013.013.03.006.043A.059.059 0 0 1 .52.084z"/></g><g><path class="cls-2" d="m.551.076.007.043"/><path class="cls-3" d="M.551.076C.556.09.564.106.557.12A.059.059 0 0 1 .551.076z"/></g><g><path class="cls-2" d="M.593.051.62.085"/><path class="cls-3" d="M.593.05c.01.01.026.02.027.035A.058.058 0 0 1 .593.05z"/></g><g><path class="cls-2" d="m.43.906.005.061"/><path class="cls-3" d="M.43.906c.004.02.012.042.005.06a.11.11 0 0 1-.004-.06z"/></g><g><path class="cls-2" d="M.487.909.486.972"/><path class="cls-3" d="M.487.909C.49.929.495.953.486.972A.122.122 0 0 1 .488.909z"/></g><g><path class="cls-2" d="M.561.896.554.97"/><path class="cls-3" d="M.562.896c0 .025.003.052-.009.074A.167.167 0 0 1 .562.896z"/></g><g><path class="cls-2" d="M.595.907.588.969"/><path class="cls-3" d="M.596.907C.596.927.6.953.587.97A.102.102 0 0 1 .596.908z"/></g><g><path class="cls-2" d="M.661.895.648.966"/><path class="cls-3" d="M.662.895C.659.92.66.947.647.966a.153.153 0 0 1 .015-.07z"/></g><g><path class="cls-2" d="M.885.907.878.975"/><path class="cls-3" d="M.885.907c0 .023.006.05-.007.068A.112.112 0 0 1 .885.907z"/></g><g><path class="cls-2" d="M.915.906.909.981"/><path class="cls-3" d="M.915.906C.916.93.921.959.908.98A.137.137 0 0 1 .915.906z"/></g><g><path class="cls-2" d="m.256.89.239.017.236-.02"/><path class="cls-3" d="M.256.89c.16.013.315.008.475-.004A1.355 1.355 0 0 1 .256.89z"/></g><g><path class="cls-2" d="M.814.914.946.907"/><path class="cls-3" d="M.814.914A.44.44 0 0 1 .946.907a.444.444 0 0 1-.132.007s.045.005 0 0z"/></g></svg>