<svg data-name="Capa 1" xmlns="http://www.w3.org/2000/svg" viewBox="0 0 1 1"><path d="m.509.44.03.5S.542.98.485.983c0 0-.045.002-.052-.045L.457.444S.377.401.387.354L.38.072s0-.023.017-.022c.01 0 .016.004.017.018L.413.261s.004.01.016.013.012-.02.012-.02L.438.05s0-.028.016-.028c.015.001.015.029.015.029v.207s.004.01.019.013c0 0 .014-.008.016-.022S.499.045.499.045.501.02.512.021s.014.002.017.025l.003.209S.53.272.549.272.563.247.563.247L.561.071S.557.05.577.048c.012 0 .013.018.012.036v.268S.579.427.509.44z" style="fill:#a3a3a3;stroke-width:0"/><path d="m.51.44.036.489c.015.076-.117.086-.122.01L.45.444C.357.426.384.269.38.183L.377.098C.36.076.402.012.42.068V.26C.449.291.424.063.43.034c.017-.052.067.01.05.026v.194c.008.002.014.007.002.008C.521.23.448.016.516.01c.049-.017.01.304.036.238V.072C.552.02.61.043.596.084.58.161.64.431.51.44zM.508.438C.637.426.568.16.581.084.589.054.568.046.57.071l.004.175C.593.289.503.292.52.248.517.238.523-.006.51.046.504.079.545.359.458.258.453.228.47.018.45.038.436.183.48.304.407.265.404.26.41.072.409.068.363-.012.397.335.391.353.385.396.436.418.463.445l-.02.492C.44.989.543.987.53.93L.508.439z" style="stroke-width:0;fill:#000"/></svg>