<svg version="1.0" xmlns="http://www.w3.org/2000/svg" xmlns:xlink="http://www.w3.org/1999/xlink" viewBox="0 0 1.9 1" xml:space="preserve"><path fill="#6E7373" d="M.024.77s.048.251.22.21L1.55.663s.146-.044.062-.167L1.499.383.024.77z"/><path fill="#575959" d="M.169.574S.307.544.739.11c0 0 .064-.084.205-.008 0 0 .158.115.349-.077 0 0 .149.094.227.382l-.327.08s-.077.015-.085.074c0 0-.052.085-.128.104l-.785.19S.055.893.025.77.169.574.169.574z"/><defs><path id="a" d="M.169.574S.307.544.739.11c0 0 .064-.084.205-.008 0 0 .158.115.349-.077 0 0 .149.094.227.382l-.327.08s-.077.015-.085.074c0 0-.052.085-.128.104l-.785.19S.055.893.025.77.169.574.169.574z"/></defs><clipPath id="b"><use xlink:href="#a" overflow="visible"/></clipPath><path clip-path="url(#b)" fill="#3C3E3E" d="M1.506.212s-.079.149-.319.074l-.313.29S.808.619.865.743L1.617.4 1.43-.084.786-.07.328.424s.087.232.36.032l.434-.423.287-.093.097.272z"/><path fill="#FFF" d="M.503.438.497.443C.483.456.461.454.448.439L.411.397a.036.036 0 0 1 .003-.05L.42.342a.035.035 0 0 1 .05.004l.037.043C.52.403.518.425.503.438zM.634.331.628.336A.035.035 0 0 1 .579.333L.542.29A.036.036 0 0 1 .545.24L.551.235a.035.035 0 0 1 .05.004l.037.043a.035.035 0 0 1-.004.049z"/><path fill="#070000" d="M1.497.553A.039.039 0 0 1 1.468.6l-.201.049A.039.039 0 0 1 1.22.62a.038.038 0 0 1 .028-.047L1.45.524a.039.039 0 0 1 .047.029z"/><path fill="#FFF" d="M.75.223.744.229A.035.035 0 0 1 .695.225L.658.182A.035.035 0 0 1 .661.133L.667.128a.035.035 0 0 1 .05.004l.037.043A.034.034 0 0 1 .75.223z"/><g fill="#020000" opacity=".85"><path d="M1.548.43 1.53.413l.008.009.01.008zM1.507.406l-.004.001-.004.002zM1.466.418l.021-.006-.021.006z"/><path d="M1.499.41V.409l-.012.003.012-.002zM1.499.41l.008-.001-.008.001zM1.491.422S1.487.42 1.479.423L1.425.44l-.03.006c-.019.005-.068.022-.039.014l.112-.031c.038-.014.054-.021.079.013l.02.02-.025-.027C1.525.421 1.521.407 1.491.422zM1.637.582l.001-.013c.003-.02-.006-.04-.017-.057l.003.009c.005.01.007.011.003.002.009.022.014.045.006.067l.004-.008zM1.627.601l.006-.012-.006.012z"/><path d="m1.378.443-.158.04s-.006.003-.012.003l-.012.002-.022.005-.008.003v.001l.008-.002-.008.003a.152.152 0 0 1-.012.004l-.018.012.018-.012.012-.006.004-.001a.11.11 0 0 0-.045.028l-.006.009-.014.03-.003.009V.57l-.001.003a.133.133 0 0 1-.023.03l-.019.018-.008.004-.012.009.018-.009.023-.019-.023.02-.018.009a.159.159 0 0 1-.037.018l.037-.018.011-.009.008-.004.019-.018a.263.263 0 0 1-.064.042C.852.698.695.729.523.774L.251.839C.17.863.059.872.039.787.003.7.072.631.154.598.216.569.326.49.383.454.457.4.406.418.406.418.353.44.32.469.222.525.286.484.182.567.109.59c-.13.009-.158.315.04.293C.184.883.22.874.257.865L.842.717.99.674a.353.353 0 0 0 .09-.051c.043-.032.038-.083.063-.099-.027.019-.019.063-.061.096-.025.021.017-.015.025-.037L1.12.554a.081.081 0 0 1 .03-.039c.006-.005.01-.004.01-.004a.184.184 0 0 1 .06-.02l.036-.008.022-.005.014-.004-.006-.002.024-.005-.024.005.007.001.112-.033h-.001l-.066.015c.01-.002.009-.001-.002.002l-.009.001.058-.014.011-.004h.008l.013-.004-.039.007z"/><path d="m1.154.502.01-.005a.105.105 0 0 0-.037.025l.027-.02z"/></g><g fill="#020000" opacity=".85"><path d="M1.51.316 1.507.305l.001.006zM1.504.295V.293L1.503.292zM1.498.276l.003.01-.003-.01zM1.501.29l.004-.001v.003h-.004zM1.502.292v.004-.004zM1.491.29V.284a2.401 2.401 0 0 1-.01-.023L1.478.248C1.474.24 1.46.221 1.466.233l.02.047.016.042.002.012-.002-.017C1.501.309 1.495.301 1.491.29zM1.52.398 1.519.392a.082.082 0 0 0-.002-.027L1.516.37c.001.005.002.001.002.001l.001.031.001-.004z"/><path d="M1.481.239 1.447.173 1.443.169 1.441.163 1.435.155 1.433.152h-.001l.001.004-.001-.004-.003-.005-.006-.008.006.008.004.005.001.001-.013-.02L1.417.13a.087.087 0 0 1-.009-.012L1.406.115v.001L1.405.114 1.394.1 1.385.092 1.383.088 1.377.084l.004.008s.008.005.009.01c-.001-.005-.009-.01-.009-.01L1.377.084 1.365.07c.006.004.01.009.013.014l.006.004.002.004.008.008L1.37.074c-.029-.025-.053-.06-.093-.065a.572.572 0 0 1-.092.072.252.252 0 0 1-.114.042.172.172 0 0 1-.138-.042.355.355 0 0 0-.088-.022C.811.052.743.076.722.107c-.024.04.003.026.003.026C.747.12.756.098.805.091.771.096.828.076.86.089l.057.018a.21.21 0 0 0 .157.043c.092.002.189-.11.219-.114l.055.04.03.032.035.039L1.38.108c-.01-.01.009.004.015.011l.007.011.017.019.002.005c.007.01.016.016.019.023l.007.015.005.008.004.006.001-.004.004.01-.004-.01-.001.004.026.045-.011-.029s.001.004-.002 0V.217c.005.008.01.016.011.024l.003.005-.001.005.002.005-.003-.017z"/><path d="m1.429.147.003.004-.011-.016s.004.008.008.012z"/></g><g fill="#020000" opacity=".85"><path d="M.988.151.982.157.986.155zM.976.163.975.164.974.165zM.965.175.971.169.965.175zM.971.166.973.165l.002.002-.002.001zM.975.166.978.165.975.166zM.979.176.975.178.962.194l-.01.007C.948.207.937.223.945.215L.974.183.997.154l.007-.007-.01.009-.015.02zM1.036.104l-.003.004-.015.015.003-.001V.12A.767.767 0 0 0 1.04.103l-.004.001zM.944.201.902.243.899.247.895.25.889.256.887.258l.001.001.003-.001-.003.001-.004.003-.005.006.006-.006.003-.004.001-.001L.874.27.872.273.863.282.86.284h.001L.86.285l-.01.01-.006.008-.003.001-.003.005.007-.004.008-.008-.008.008-.007.004-.012.01C.829.314.838.309.838.309L.841.304.844.303.85.295l-.021.02-.133.131a.341.341 0 0 1-.082.058C.558.534.495.549.438.521A.277.277 0 0 1 .361.473C.336.455.338.476.338.476.345.498.36.507.395.533.371.515.416.539.441.552.479.575.544.564.59.546.603.543.614.535.627.528.698.492.74.432.796.378L.832.335.858.309.887.276.859.308C.851.316.861.3.866.294L.875.287.888.271.892.269l.014-.02.01-.009.006-.006L.927.23H.923L.93.224.923.23h.004L.954.196.935.213v.002L.931.216.947.201.95.197.953.196.956.192.944.201z"/><path d="M.884.262.887.259.875.27z"/></g><g fill="#020000" opacity=".85"><path d="M.842.646.845.638.843.642zM.847.631.848.629V.628zM.852.617.849.624.852.617zM.846.627V.625L.85.626v.002zM.847.627.845.63.847.627z"/><path d="M.839.62.842.617.85.598.858.59C.862.584.872.567.865.575a.188.188 0 0 0-.024.036.116.116 0 0 0-.007.037l-.001.01.003-.013C.838.639.835.63.839.62zM.849.708.846.704.841.684.84.687l.002.001c0 .009.003.016.006.023L.849.708z"/><path d="M.868.589A.151.151 0 0 1 .911.552L.914.549.918.547.924.541.926.539V.538L.923.539.926.538.93.536.935.53.929.535.926.539.925.54.939.527.942.524.951.516.953.514H.952L.953.513l.01-.009L.97.497.973.496.976.491.969.494.961.502.969.494.976.491.988.482C.984.487.976.491.976.491L.973.496.97.497.964.505.985.486l.132-.123.07-.062A.36.36 0 0 0 1.465.26c.027-.022.003-.023.003-.023-.022.002-.032.015-.071.025.026-.007-.016.015-.043.014-.037 0-.087.015-.13.005L1.18.271l-.162.155-.036.041L.956.49.927.521l.029-.03C.964.483.953.499.949.504l-.01.007-.013.015-.005.002C.914.535.913.543.907.545L.895.551.889.556.885.56l.004.001-.008.005.007-.005L.885.56.859.594.876.577V.575L.879.574.864.589.862.593.859.594.856.598.868.589z"/><path d="M.929.535.927.538l.011-.01z"/></g><g fill="#020000" opacity=".85"><path d="m.416.41.002.002V.41zM.42.415l.001.001zM.424.419.422.417l.002.002zM.42.416.42.415h.001L.42.418zM.422.415V.414v.001zM.43.41v.002l.006.005.001.004.007.001-.011-.01L.422.403.42.4l.002.005zM.402.389.404.39l.005.007V.395H.408L.403.387z"/><path d="m.434.427.015.017h.002l.001.002.002.002.001.001.001-.001V.446v.002L.457.45.46.452.456.449H.453L.46.453l.001.001.004.003h.001l.006.001.004-.002.002.001L.48.455.477.453H.473h.004L.48.455.486.454.48.455.478.457.477.456.473.458.485.456C.506.447.53.426.521.397A.117.117 0 0 0 .502.36C.489.342.482.317.44.306.416.306.404.335.403.343c0 .015.015.011.015.011C.43.351.426.341.438.336.43.34.439.324.445.334c.002.01.02.015.028.031l.009.014C.497.4.507.413.492.426L.48.44.473.441H.465l.008.001L.47.446.468.444.462.443V.441L.454.438.452.434.45.432.448.431.446.433.445.43l.001.003L.448.43.434.422.439.43.44.429v.002L.435.425.433.424.434.422.433.421l.001.006z"/><path d="M.456.449H.455L.46.453z"/></g><g fill="#020000" opacity=".85"><path d="M.667.088.662.089h.003zM.658.091H.657L.656.092zM.651.096.655.093.651.096zM.655.092l.002.002H.656zM.657.093h.002-.002zM.66.103.658.102.653.11.649.113.652.12C.653.114.654.11.658.106c0 0 .007-.008.013-.01L.676.095H.669L.66.103zM.703.088.7.089.689.087.69.089.691.087.704.09z"/><path d="M.642.113A.081.081 0 0 0 .64.144l.001.002v.003l.001.004.001.001h.001L.645.152.644.154v.002L.645.16.644.157.643.155V.154l.002.01.001.002.002.006.001.002v.001l.004.007.004.003v.002H.66V.183L.656.178.66.182v.004l.004.007L.66.187.657.186V.184L.653.181l.009.012c.019.019.034.069.08.05C.757.234.777.219.776.194A.082.082 0 0 0 .751.146C.742.133.733.116.716.101.698.075.645.112.652.128.65.148.666.141.666.141.678.136.678.12.691.121.681.119.698.111.705.127c.004.013.012.02.024.036.009.008.013.012.016.019l.003.014C.74.211.72.248.699.207L.678.188A.113.113 0 0 1 .667.172C.66.165.661.165.656.157c.004.009.003.008.01.015C.67.177.658.169.658.169V.164L.653.156.654.153.648.143.649.136V.132L.648.13.645.131.646.127.645.131.648.13a.034.034 0 0 1 0-.02L.643.121l.002.001-.003.001.003-.011V.109h.003L.649.107.642.113z"/><path d="M.644.157.643.155l.002.008z"/></g><g><g fill="#020000" opacity=".85"><path d="M.527.261v.004L.528.263zM.528.269V.27zM.53.276.529.272.53.276zM.528.27H.53L.528.272zM.529.27.53.269.529.27zM.54.27.538.272l.004.007v.005l.006.004L.541.273.536.259V.255L.535.261.54.27zM.533.232v.002L.53.243.531.242.53.241l.005-.01z"/><path d="M.537.289.55.312l.002.001v.002l.002.003.001.001.001-.001V.316v.002L.557.32l.002.003L.557.32.555.319H.554L.56.325l.001.001.004.004.001.001v.001l.005.005.004.001V.34h.003L.577.336.573.333l.004.003.001.004.005.005L.578.34H.575V.338L.571.336l.01.008C.602.363.642.36.657.329.666.313.662.293.654.279.635.251.62.23.574.225.552.226.536.256.534.266c0 .018.015.012.015.012C.562.274.558.263.572.256.562.261.574.243.584.251c.008.01.028.013.04.03l.008.011c.012.019.001.042-.02.042L.593.333.582.324.568.314l.013.01H.574L.572.32.565.315V.312L.556.307.554.302.553.299.551.298.549.3.548.296.549.3.551.298.539.284l.003.01h.002L.543.296.539.287.538.286.54.284.538.282.537.289z"/><path d="M.557.32.556.319.56.325z"/></g></g><g><g fill="#020000" opacity=".85"><path d="m1.167.126.026-.011L1.18.12l-.013.006zM1.216.102 1.22.099l.004-.003zM1.255.071l-.019.016.019-.016zM1.223.095s.004-.002 0 .001l.012-.009-.012.008zM1.223.095l-.008.004.008-.004z"/><path d="M1.227.08s.005 0 .012-.007a.45.45 0 0 0 .046-.049l.006-.009.025.025c.018.014.06.056.037.03a2.357 2.357 0 0 1-.062-.058.258.258 0 0 1-.044.05.279.279 0 0 1-.092.059c-.01.004-.02.005-.029.008a.213.213 0 0 0 .04-.01.264.264 0 0 0 .061-.039zM.964.115.978.12c.02.009.042.016.065.017l-.01-.003A.452.452 0 0 1 .957.109l.007.006zM.943.103l.014.006A.548.548 0 0 1 .943.103z"/><path d="M1.324.057a.726.726 0 0 1 .128.17l.011.023.004.008h.001L1.466.25l.003.009a.2.2 0 0 0 .005.013l.009.022c-.008-.018-.005-.01-.009-.023L1.468.258 1.465.255l.022.055.004.012A.259.259 0 0 1 1.5.357l.002.01V.365v.004c.004.015.001.029.007.045l.026.018.007.007a.187.187 0 0 0 .014.009L1.54.432c-.007-.007-.02-.011-.028-.02.008.009.021.013.028.02l.016.016c.011.009.027.019.035.031L1.556.448 1.542.439 1.535.432a1.051 1.051 0 0 0-.026-.018L1.58.47c.03.027.053.067.051.105v.001c-.065.123-.261.096-.398.15l-.31.07-.586.133C.257.955.114.988.086.891.04.805.051.854.051.86c.014.049.046.146.187.121C.152 1 .3.959.382.947.502.93.666.882.811.85L.928.822c.225-.053.429-.096.667-.167.028-.014.06-.043.055-.082v.003a.13.13 0 0 0-.033-.09C1.592.452 1.553.43 1.53.409L1.522.404a.375.375 0 0 0-.001 0l.005.004c.02.014.002.002-.007-.003a.9.9 0 0 0-.005-.03L1.509.34a.38.38 0 0 0-.023-.061C1.482.27 1.483.266 1.483.266A1.95 1.95 0 0 1 1.446.2L1.424.163 1.409.142 1.398.129 1.4.137 1.384.114l.017.023-.003-.008a.765.765 0 0 0-.094-.095v.001c.02.018.037.035.054.057-.007-.01-.005-.009.004 0L1.368.1 1.321.051 1.31.042C1.305.037 1.305.034 1.305.034L1.292.023l.032.034z"/><path d="M1.474.272 1.469.261l.018.046a.195.195 0 0 0-.013-.035z"/></g></g><g><path fill="#6E7373" d="M.265.727S.253.983.429.983h1.344s.152-.008.099-.148L1.789.698.265.727z"/><path fill="#575959" d="M.451.57s.141.004.663-.316c0 0 .082-.067.201.041 0 0 .127.149.357.007 0 0 .123.127.13.424h-.335s-.078-.004-.101.052c0 0-.071.071-.149.071H.409S.265.853.265.727.451.57.451.57z"/><defs><path id="c" d="M.451.57s.141.004.663-.316c0 0 .082-.067.201.041 0 0 .127.149.357.007 0 0 .123.127.13.424h-.335s-.078-.004-.101.052c0 0-.071.071-.149.071H.409S.265.853.265.727.451.57.451.57z"/></defs><clipPath id="d"><use xlink:href="#c" overflow="visible"/></clipPath><path clip-path="url(#d)" fill="#3C3E3E" d="M1.836.533S1.724.66 1.508.529l-.372.209s-.074.026-.048.16L1.9.742 1.832.228 1.203.09.641.462s.03.246.342.115l.521-.309.302-.022.03.287z"/><path fill="#FFF" d="M.809.517.802.521C.784.529.763.523.754.506L.728.456A.036.036 0 0 1 .743.408L.75.404a.035.035 0 0 1 .047.015l.026.05a.035.035 0 0 1-.014.048zM.961.444.954.448A.036.036 0 0 1 .906.432L.88.382A.035.035 0 0 1 .896.335L.903.331A.035.035 0 0 1 .95.346l.026.05a.036.036 0 0 1-.015.048z"/><path fill="#070000" d="M1.747.862a.039.039 0 0 1-.039.039h-.207a.039.039 0 0 1 0-.078h.207c.022 0 .039.018.039.039z"/><path fill="#FFF" d="M1.099.367 1.092.37a.035.035 0 0 1-.048-.015l-.026-.05a.035.035 0 0 1 .016-.047l.007-.004a.035.035 0 0 1 .047.015l.026.05a.036.036 0 0 1-.015.048z"/><g fill="#020000" opacity=".85"><path d="M1.825.756 1.812.735a.192.192 0 0 0 .013.021zM1.792.723H1.783zM1.749.724h.022-.022zM1.783.724V.723l-.012.001h.012zM1.783.724l.008.001-.008-.001zM1.772.735S1.769.732 1.76.733l-.056.003-.031-.002c-.02.001-.071.006-.041.005l.117-.003c.04-.005.058-.008.074.032l.014.023-.019-.032C1.806.741 1.804.726 1.772.735zM1.876.924 1.88.912a.086.086 0 0 0-.003-.059l.001.009c.003.011.004.012.002.002a.094.094 0 0 1-.009.066s.002 0 .005-.006zM1.862.94A.32.32 0 0 1 1.87.93l-.008.01z"/><path d="M1.658.728 1.495.73h-.012L1.47.729h-.023L1.439.73v.001h.008-.008l-.013.002-.021.007.021-.008.013-.002.004-.001a.11.11 0 0 0-.05.017l-.009.008-.02.026-.005.007.001-.001-.003.003a.1.1 0 0 1-.03.024l-.022.013-.008.002-.014.006a.219.219 0 0 1 .02-.004L1.33.816 1.303.83l-.019.004a.192.192 0 0 1-.04.009l.04-.009.013-.006.009-.002.022-.013a.254.254 0 0 1-.073.026C1.086.852.926.845.749.848L.469.847C.385.851.274.834.275.747.261.654.343.603.431.591.498.577.623.527.688.505.773.47.719.475.719.475.663.484.624.504.516.535.588.51.467.566.391.572.261.55.162.842.359.867a.432.432 0 0 0 .109.007l.603-.006.155-.007a.366.366 0 0 0 .1-.029c.049-.02.057-.071.084-.081-.031.012-.034.057-.082.08-.029.014.02-.011.033-.03l.02-.025a.08.08 0 0 1 .038-.032c.007-.003.011-.001.011-.001a.178.178 0 0 1 .063-.005l.037.001h.023l.015-.001-.007-.003.025.001-.025-.001.007.003a8.08 8.08 0 0 0 .117-.006h-.001L1.616.731c.01 0 .009.001-.003.002L1.604.731h.059L1.676.73c.006 0 .007.002.007.002h.013C1.68.729 1.658.728 1.658.728z"/><path d="m1.426.733.01-.003a.119.119 0 0 0-.041.015l.031-.012z"/></g><g fill="#020000" opacity=".85"><path d="M1.816.636 1.815.624V.63zM1.815.614V.61zM1.813.594l.001.01-.001-.01zM1.813.61V.607h.004V.61zM1.813.61v.004V.61zM1.803.606 1.805.6 1.8.576V.562c-.002-.009-.01-.03-.007-.017l.008.05a.742.742 0 0 1 .005.044l-.001.012.002-.017c.002-.007-.003-.016-.004-.028zM1.806.718V.712A.084.084 0 0 0 1.81.685l-.002.004c0 .005.002.001.002.001l-.006.03.002-.002z"/><path d="M1.805.554 1.788.482 1.785.477 1.784.471 1.78.461 1.779.458h-.001v.004-.004L1.777.453 1.773.444l.004.009.003.005v.001L1.772.437 1.769.433 1.763.419 1.762.415v.001-.002L1.753.398l-.007-.01V.384L1.741.379l.002.009S1.75.394 1.75.4c0-.005-.007-.012-.007-.012L1.741.379 1.732.362a.04.04 0 0 1 .009.017l.004.005.001.004.007.01-.017-.031c-.022-.031-.037-.07-.075-.085a.535.535 0 0 1-.106.049.269.269 0 0 1-.121.014.176.176 0 0 1-.124-.074.337.337 0 0 0-.08-.041c-.032-.015-.104-.008-.131.017-.033.033-.004.026-.004.026.025-.007.039-.026.088-.022-.034-.003.026-.01.054.01l.051.031a.212.212 0 0 0 .143.08c.089.023.209-.063.24-.06l.044.051.022.038.025.046-.024-.044c-.007-.012.008.006.012.014l.005.013.012.022v.006c.005.01.012.018.013.026L1.784.5l.003.01.002.006.002-.004.002.011-.002-.011-.002.004.015.05L1.8.535s0 .004-.002-.001L1.799.53c.003.009.006.017.005.026l.002.006-.002.004.001.006V.554z"/><path d="m1.777.452.002.005-.007-.019s.002.009.005.014z"/></g><g fill="#020000" opacity=".85"><path d="m1.347.352-.008.005.005-.002zM1.332.361l-.001.001-.001.001zM1.319.37l.007-.004-.007.004zM1.327.363 1.33.362l.001.002-.001.001zM1.33.364l.003-.001-.003.001zM1.332.375h-.004a.495.495 0 0 0-.017.013l-.01.005c-.006.005-.02.018-.01.012.008-.007.024-.017.035-.025l.029-.022.009-.005-.013.006a.713.713 0 0 0-.019.016zM1.405.318l-.004.003c-.007.002-.013.007-.019.012l.004-.001V.33l.022-.012h-.003zM1.292.39l-.051.032-.003.003-.004.002-.008.004-.002.002.001.001.003-.001-.004.001-.004.002-.007.004.007-.004.004-.003.001-.001-.017.01-.003.002-.01.006-.003.002h.001-.001l-.013.007-.008.007h-.003L1.164.47l.007-.002.009-.006-.009.007-.007.001-.014.007c.005-.004.014-.007.014-.007l.004-.004.004-.001.007-.007-.025.016-.16.096A.353.353 0 0 1 .9.607C.839.623.775.623.725.582A.299.299 0 0 1 .661.518C.641.494.639.515.639.515.641.538.653.55.681.584.662.561.7.594.721.613c.031.031.096.036.146.029.013 0 .026-.005.04-.009.078-.018.133-.066.2-.105l.046-.034.032-.019L1.22.45l-.036.024c-.009.006.005-.007.011-.012l.011-.004.016-.013.005-.001.019-.016.012-.006.007-.004.004-.004-.004-.001.008-.004-.008.004.004.001.034-.027-.022.012v.002l-.004.001a.052.052 0 0 1 .019-.011L1.3.388h.003l.004-.003-.015.005z"/><path d="m1.22.436.003-.003-.014.008z"/></g><g fill="#020000" opacity=".85"><path d="m1.089.799.004-.007-.003.003zM1.097.785l.001-.001V.783zM1.105.773l-.004.006.004-.006zM1.097.781 1.098.78l.003.002-.002.001zM1.098.782l-.003.002.003-.002z"/><path d="m1.092.773.004-.002.013-.017.01-.006c.005-.005.019-.019.01-.013a.154.154 0 0 0-.032.03.12.12 0 0 0-.017.034l-.004.01.006-.012c.004-.006.004-.015.01-.024zM1.08.861 1.079.856V.835l-.002.004.002.001c-.002.008-.001.016 0 .024L1.08.861z"/><path d="M1.127.75a.19.19 0 0 1 .051-.026l.004-.002.004-.002.007-.004.002-.002V.713l-.003.001.003-.001.004-.001.007-.004a.123.123 0 0 1-.007.004l-.003.003h-.001l.016-.009.003-.002.01-.005.003-.002h-.001.001L1.24.69l.007-.006h.003L1.255.68l-.007.001-.01.006.009-.006.008-.001.014-.006c-.005.004-.014.006-.014.006l-.004.004h-.003L1.24.69l.025-.013.157-.088.083-.044a.363.363 0 0 0 .28.026c.031-.015.008-.021.008-.021-.022-.004-.035.006-.075.006.027-.001-.019.011-.045.004-.036-.009-.088-.005-.128-.026l-.041-.02-.192.112-.045.031-.031.017L1.2.698l.035-.022c.009-.006-.005.006-.01.011L1.214.69l-.016.012h-.005c-.008.006-.011.014-.017.014L1.163.72a.072.072 0 0 0-.008.003L1.15.726l.004.002-.009.003.008-.003L1.15.726l-.033.026.021-.012V.738h.003l-.017.011-.003.003h-.003l-.004.004.013-.006zM1.2.712l-.004.002.014-.007z"/></g><g fill="#020000" opacity=".85"><path d="m.73.469.001.003L.732.47zM.733.475v.001zM.736.48.734.477.736.48zM.733.476h.002L.733.478zM.734.476V.475v.001zM.744.473.743.475l.005.006v.004l.007.003L.747.475.738.464.736.461l.001.005zM.722.446l.001.001.003.008.001-.002H.725L.723.444z"/><path d="m.743.49.011.02.002.001v.002l.002.003.001.001L.76.516V.514v.004L.762.52.76.517.758.516H.757l.005.006.001.001.003.003.001.001.005.003.004-.001.003.001.002-.001L.779.526H.775h.004l.003.002h.006-.006L.779.53.778.528.774.529.786.53C.808.526.837.512.835.481a.103.103 0 0 0-.01-.04C.817.42.816.394.777.374.753.369.735.394.732.401.729.416.745.415.745.415.758.415.756.404.769.403.76.405.773.391.776.402c0 .01.016.02.02.037l.006.015C.811.477.818.493.801.502L.786.513H.779L.771.511l.008.003-.005.003L.773.514.768.512V.51L.761.506.759.501.758.498.756.497.754.499.753.496l.001.003.002-.002L.745.485l.003.009H.75L.749.496.745.488.744.487.745.485.744.484.743.49z"/><path d="M.76.517.759.516l.004.005z"/></g><g fill="#020000" opacity=".85"><path d="M1.05.215h-.005l.003.001zM1.04.216h-.001v.001zM1.032.22l.004-.002-.004.002zM1.037.216l.001.002zM1.039.218l.002.001-.002-.001zM1.04.228 1.038.227l-.006.006-.005.002v.008c.003-.006.005-.01.01-.013 0 0 .009-.006.014-.007h.005-.006l-.01.005zM1.085.224h-.003L1.071.22l.001.002.001-.002.012.006z"/><path d="M1.02.234a.065.065 0 0 0-.009.03l.001.002-.001.003v.006h.001l.001-.002-.001.002-.001.002v.004-.007V.295l.003.007.004.004-.001.002.002.002.001-.004-.002-.005.002.005-.001.004.002.008L1.019.31 1.017.308l.001-.002-.004-.004a.338.338 0 0 1 .005.014c.014.023.017.076.066.067.017-.005.04-.015.045-.039a.076.076 0 0 0-.012-.052C1.112.277 1.107.258 1.094.239 1.083.21 1.022.233 1.026.25c-.007.02.01.017.01.017.013-.002.017-.018.029-.013-.009-.004.009-.008.012.01.001.013.007.023.014.041a.06.06 0 0 1 .011.023l.001.014c-.011.01-.039.041-.05-.003L1.037.315A.132.132 0 0 1 1.03.297C1.025.289 1.026.289 1.023.28c.002.01.001.009.006.017.003.005-.007-.005-.007-.005l.001-.004-.003-.01.002-.002-.003-.011.002-.006.001-.004V.252h-.003L1.02.248l-.002.004h.003c0-.006.001-.014.005-.02l-.008.01.001.001-.002.001.005-.01.001-.003h.003L1.027.23 1.02.234zM1.011.277V.275v.008z"/></g><g><g fill="#020000" opacity=".85"><path d="M.873.351.872.355.874.353zM.872.359V.36zM.872.366V.362v.004zM.872.361V.36h.002v.001zM.873.36.874.359.873.36zM.883.362.881.364l.002.008v.005l.005.005L.884.366.882.351.883.347.881.352l.002.01zM.886.324.885.326.88.334.882.333.881.332.888.324z"/><path d="m.876.38.007.025.002.001v.002l.002.003.001.001h.001V.41v.004L.89.418.888.415.887.414H.886L.89.421l.001.001.002.005.001.001v.001l.003.005.004.002v.002l.003.001V.435L.901.432l.003.004V.44l.004.006L.904.439.902.438V.436L.898.434l.008.01c.017.023.056.03.078.003C.996.433.997.413.993.397.98.367.971.342.927.327.905.323.883.348.879.358.874.374.891.373.891.373.904.372.903.36.918.357.907.36.923.345.93.355c.005.011.024.019.032.038l.005.013C.974.428.958.447.938.442L.92.436.912.425.901.412a.313.313 0 0 0 .011.013L.904.423.903.418.897.412.898.41.891.403.89.397.889.394.888.392.885.394V.39v.004L.888.392.88.376v.011h.002L.88.388.879.379.878.377.88.376V.374L.876.38z"/><path d="M.888.415.887.414.89.42z"/></g></g><g><g fill="#020000" opacity=".85"><path d="m1.527.37.028-.005-.014.002-.014.003zM1.58.358l.005-.002.004-.001zM1.625.338l-.023.011.023-.011zM1.589.353s.004-.001 0 .001l.014-.006-.014.005zM1.589.353 1.58.355l.009-.002z"/><path d="M1.596.339s.005.001.013-.004a.317.317 0 0 0 .056-.037l.009-.007.017.031c.015.018.046.068.029.038a6.08 6.08 0 0 0-.046-.071.259.259 0 0 1-.054.038.267.267 0 0 1-.104.035c-.011.002-.02 0-.03.001l.041-.001a.241.241 0 0 0 .069-.023zM1.333.311l.012.009a.197.197 0 0 0 .059.032L1.395.347a.426.426 0 0 1-.062-.036zM1.315.296l.012.009V.304L1.315.296z"/><path d="M1.696.34c.034.055.06.111.077.168l.005.013.002.014.006.025.002.009h.001L1.788.561l.001.009a.422.422 0 0 1 .002.014l.003.024-.003-.024L1.788.57 1.787.565l.008.059.001.012c.001.014.002.028 0 .037l-.001.011V.682v.004c0 .015-.006.029-.003.045l.02.023.005.009.012.012-.012-.019C1.812.747 1.8.74 1.795.729c.005.011.017.018.022.027l.012.019c.009.011.022.025.027.038L1.829.775 1.817.763 1.812.754l-.02-.023.056.071c.022.033.036.077.024.113v.001c-.093.105-.276.032-.422.053L1.132.964.531.955C.447.961.3.96.296.859.272.765.271.815.27.821c.002.051.01.153.153.162C.334.98.489.975.571.984c.12.011.291.003.439.006l.121.001c.231.001.439.008.688-.006.03-.007.068-.027.073-.066l-.001.004A.14.14 0 0 0 1.88.827c-.017-.04-.05-.07-.067-.096L1.807.724a.383.383 0 0 0-.001 0l.004.005c.015.018 0 .002-.007-.005l.002-.03.003-.036a.348.348 0 0 0-.007-.064c-.002-.01 0-.014 0-.014A1.404 1.404 0 0 0 1.78.507l-.012-.04-.01-.024-.007-.016v.008L1.74.409l.011.026V.427a.866.866 0 0 0-.069-.114v.001a.377.377 0 0 1 .039.067c-.005-.01-.004-.01.003.002l.003.01-.033-.059-.008-.012-.004-.008-.009-.015.023.041z"/><path d="M1.791.584 1.788.572l.006.049a.18.18 0 0 0-.003-.037z"/></g></g></g></svg>