<svg version="1.0" xmlns="http://www.w3.org/2000/svg" viewBox="0 0 1 1" xml:space="preserve"><path fill="#2C2616" d="M.088.977s.093.04.172-.004C.338.93.387.979.424.983S.535.981.575.943C.576.944.286.768.088.977z"/><path fill="#443C36" d="M.359.359.27.113h.057S.32.01.408.01c.021 0 .072.017.08.071 0 0 .005.025.022.025.013 0 .018-.011.019-.025A.083.083 0 0 1 .617.007c.045.004.074.054.074.105h.042L.655.359v.042L.93.983S.818.942.746.975C.676 1.007.608.977.563.957.476.918.3.829.093.979L.36.4.359.359z"/><path fill="#9B7005" d="M.353.359h.296v.039H.353z"/><path fill="#FFB81A" d="M.462.359h.079v.039H.462z"/><g fill="#110F0E" opacity=".85"><path d="M.484.091c.005.011.02.022.032.014A.019.019 0 0 1 .497.104.032.032 0 0 1 .484.091zM.529.074.53.068.531.063zM.561.024a.066.066 0 0 0-.022.022.091.091 0 0 1 .022-.022zM.531.062s.002-.005 0 0v.001L.539.046.531.062zM.531.062.527.073.531.062z"/><path d="M.533.045.545.031A.088.088 0 0 1 .623.005C.636.006.654.02.662.03c.025.022.034.101.027.055C.681.015.611-.021.558.018a.09.09 0 0 0-.037.061v.002C.528.11.484.107.486.078A.149.149 0 0 0 .473.039c.009.015.01.035.016.051.005.018.038.017.033-.009V.079A.076.076 0 0 1 .533.045zM.321.081.323.062A.08.08 0 0 1 .379.003L.367.007a.086.086 0 0 0-.003.002C.331.023.318.059.32.091l.001-.01zM.319.092H.32l.002.019H.321z"/><path d="M.671.051c.01.02.014.041.015.061h.042L.687.239.682.256a.569.569 0 0 0-.006.017l-.01.032-.004.011c-.002.006 0 .001 0 .001L.666.306.663.317a.569.569 0 0 0-.006.017L.649.359.648.365.649.359.657.334.663.316.665.311.648.359.645.385.642.398H.58h.003H.548L.546.373.544.353H.542a.255.255 0 0 1-.001.018L.539.384S.542.4.534.401C.543.4.539.384.542.377L.543.353l.001.02-.001-.02-.001.024C.539.384.543.4.534.401L.474.399l.06.002C.542.401.539.384.539.384L.541.371.542.353h.002l.002.02-.002-.02H.541L.537.4.493.399.46.398.462.354H.458v.045L.352.396l-.213.46-.06.133a.41.41 0 0 1 .27-.085c.137-.016.231.123.37.086C.775.957.84.961.901.981.955.961.869.874.86.822L.693.467C.634.348.657.413.659.419l.127.284C.74.6.826.777.868.875l.039.091A.3.3 0 0 0 .778.952C.68 1.01.593.972.505.922a.453.453 0 0 0-.393.027L.347.433.359.406l.109.002L.467.353H.452L.451.388.45.407.545.41C.542.38.564.361.536.358L.54.407.65.406.654.367.65.405.54.406.536.362.535.354h.014C.548.362.548.361.548.354H.535l.007.05.027-.001.045.001H.65C.65.392.652.375.654.36L.657.35.663.334.691.242.708.191.718.16.724.139.72.147.732.11.72.147.725.138l.009-.03L.69.109C.687.082.677.04.649.02L.65.021c.026.022.035.057.037.09 0-.016-.003-.009.004 0l.012.001H.687A.19.19 0 0 0 .669.044L.657.029.65.021.633.011c.016.003.038.04.038.04z"/><path d="M.656.335.661.32.649.359.646.382.649.359.656.335z"/></g><g fill="#110F0E" opacity=".85"><path d="M.521.972.517.973h.002zM.513.975H.512L.511.976zM.505.978.509.977.505.978zM.51.975l.001.002zM.511.976h.002-.002zM.511.982H.508l-.01.004H.492S.478.991.484.99L.507.984.525.976.53.974.523.976.511.982zM.554.957.552.959l-.01.005h.002V.963A.073.073 0 0 0 .556.957H.554zM.488.984.456.988H.454L.451.987H.444v.001l.002.001L.445.988.443.987H.439h.008L.437.986H.435L.427.985H.424L.417.983H.412L.411.982H.408l.003.002.006.001L.411.984.408.982.4.979l.008.003h.003l.002.001h.005L.403.979C.376.963.343.947.307.956L.253.97a.23.23 0 0 1-.101.007L.101.97C.084.969.091.978.091.978.101.986.11.984.132.99.117.987.143.988.158.993.179 1 .21.994.236.99L.257.984C.295.973.33.958.366.973l.028.013.02.006C.408.99.423.991.423.991l.006.002H.44l.002.001.013-.002h.012L.47.991.469.989h.005-.005l.002.002.023-.006-.013.002v.001L.478.987.49.985.492.984l.002.001.003-.001H.488zM.443.987h.002-.009z"/></g><g fill="#110F0E" opacity=".85"><path d="m.7.197-.003.01.002-.005zM.694.217.693.219V.22zM.688.235.691.226.688.235z"/><path d="M.69.222.692.219l.002.002-.001.003zM.693.221.695.218.693.221zM.697.227.694.232.688.256.682.269C.68.277.675.3.679.287a.788.788 0 0 0 .015-.05L.706.194.71.183.704.198.697.227zM.727.12.725.125.717.151.719.147c.002-.005 0-.001 0-.001l.01-.029L.727.12zM.677.274.654.343.652.349.65.353.642.355H.638v.001l.004.001L.638.356H.622.64.593h.001H.574L.563.355H.559L.552.356l.009.001h.014-.014L.552.356.533.355l.019.001.007-.001.004.001.012-.001H.348l.003.041C.364.382.353.363.355.346L.331.276.276.119S.303.125.332.116C.331.073.352.028.382.022.417.014.397.01.397.01.372.006.343.015.323.065.336.034.318.082.317.106L.309.105A1.52 1.52 0 0 0 .252.102l.049.133.016.045.024.07.004.048.02-.002L.362.367.457.366.526.363h.045L.624.361.572.362C.558.362.581.36.59.359L.604.36.629.359.634.36l.02-.001.004-.014L.663.33.666.32.668.314.666.316.67.306l-.004.01.003-.002.014-.05-.01.029s.002-.004 0 .001L.67.297.679.272.68.267.682.264.684.258a1.586 1.586 0 0 1-.007.016zM.632.355h.005-.02.015z"/></g><g fill="#110F0E" opacity=".85"><path d="M.721.9.719.896.72.898zM.716.892V.891H.715zM.712.885l.002.004L.712.885zM.714.89h.002L.714.891zM.715.891v.002-.002zM.709.892V.89L.702.881.7.875S.691.864.694.869l.013.019.012.015.003.004L.718.902.709.892zM.741.928.74.927.733.917v.002h.001L.742.93.741.928zM.701.871.685.844.684.842.683.839.681.835.68.834H.679v.002-.004L.677.828l.002.004.001.002v.001L.676.826.675.824.672.818V.815L.668.809.665.805V.803L.663.801l.001.004.003.005L.664.805.663.801.66.793l.003.008.002.002v.002l.003.004L.662.795.627.704A1.197 1.197 0 0 0 .612.652C.604.618.595.587.591.552L.583.501C.578.484.573.495.573.495c-.004.011 0 .019.001.042 0-.015.006.01.005.025-.001.021.009.049.015.073l.005.02c.009.039.024.072.039.111a1.733 1.733 0 0 0 .033.065L.66.811C.658.806.666.817.666.817l.002.006.006.009v.002l.008.01.003.007.002.004.002.002L.69.855l.002.004L.689.856.688.858l.014.018L.696.864H.695V.862l.006.01.002.002v.002l.001.002L.701.871zM.679.832.68.834.676.826l.003.006z"/></g><g fill="#110F0E" opacity=".85"><path d="M.29.85.292.846.291.847zM.295.842V.841zM.298.835.296.839.298.835zM.294.84h.003L.296.841zM.295.84.294.841.295.84zM.292.836.294.835.298.826.302.821.304.813l-.01.019-.009.017-.002.004.004-.006.005-.011zM.271.878.272.876.278.867H.276v.001l-.008.01h.003zM.306.82.32.793.321.79.322.788.324.784.325.783H.324L.323.784.324.783.325.781.327.777.325.781v.003L.329.775.33.773.333.768.334.766V.765L.337.76.338.755.339.754V.751L.337.754.335.759.337.754.34.751.344.744.34.751v.003L.338.755.337.76.343.747.381.659l.02-.048.035-.093L.451.47C.454.453.444.46.444.46.437.47.437.478.428.497.434.484.428.508.42.52.409.537.404.565.395.588L.388.607.347.711.338.738.33.754l-.008.02.008-.02C.332.75.329.763.329.763L.326.768l-.004.01L.32.779.317.791.313.797.311.8.31.803h.002L.309.806.312.802H.31l-.008.02.007-.011V.81H.31L.304.82.303.822.302.823.301.825.306.82z"/><path d="M.325.781v.002L.329.776.325.781z"/></g><g fill="#110F0E" opacity=".85"><path d="M.422.277v.001h.001zM.423.279zM.423.28zM.423.279zM.429.279H.428l.001.002v.001l.003.001L.429.28.427.277.426.276v.001zM.421.271h.001v.002h.001-.001V.271zM.426.283l.002.006h.001V.29H.43v.001V.29v.006H.429.43L.431.295V.294v.001L.43.297v.002-.002H.429.43L.429.296.43.299l.004.017.001.01c0 .007.004.012.003.02l.003.01.008-.003C.453.349.45.349.452.343L.45.338C.454.332.448.324.448.324V.321C.448.314.443.309.442.302L.438.298.437.294.435.291l.002.004L.434.293.435.292.433.291.434.29.431.288V.286H.429V.285v.001H.43L.427.282v.002h.001-.001V.282L.426.283.427.282.426.283zM.428.291v.001z"/></g><g fill="#110F0E" opacity=".85"><path d="M.516.234v.001h.001zM.516.236v.001zM.516.239V.238v.001zM.517.237zM.522.237.521.238l.001.003-.001.001.002.002L.522.238.521.233V.232L.52.234zM.517.224l.001.001-.001.003h.001-.001L.518.224zM.518.243V.253H.517v.001h.002-.001v.002-.002.008l.001.001H.518l.001.001L.52.263V.261v.002L.517.265v.002L.518.265.517.264h.001L.517.262v.004L.514.293.512.308C.51.317.512.326.508.335v.013C.51.353.517.351.517.351.522.348.519.346.523.34c0 0-.003-.003 0-.007C.529.328.524.32.526.313V.275L.524.268.525.263.524.256l.001.006L.522.26.523.258.522.256.523.255.521.252.522.25V.248H.52V.247v.001h.002L.52.242.519.245H.52.519V.242L.518.243.52.242V.241L.518.243z"/><path d="M.518.255H.517v.002z"/></g><g fill="#110F0E" opacity=".85"><path d="M.598.286.597.287h.001zM.597.288zM.596.289zM.597.289zM.601.292H.6L.599.294H.598l.001.003.002-.004.001-.004V.288L.601.289zM.602.281l.001.001-.002.002h.001L.601.283.604.282zM.595.293.591.298v.001H.59h.001-.002V.3.298L.588.301.587.302.586.304v.001H.585v.001h.001L.587.305v.001H.584L.586.305V.304h.001V.303L.584.306.572.322l-.007.01C.561.338.562.349.569.358L.58.364.584.356C.584.35.579.348.579.348L.577.346c.002-.005 0-.008 0-.008L.578.335l.01-.018L.59.312.593.309.595.305.592.309.591.306h.001V.304h.001V.301L.596.3.597.299V.298H.595h.001-.001l.001.001.001-.005-.002.001.001.001H.595L.597.294V.293h.001-.003zM.59.3.589.301z"/></g></svg>