<?xml version="1.0" encoding="UTF-8"?>
<svg id="Capa_1" data-name="Capa 1" xmlns="http://www.w3.org/2000/svg" version="1.1" viewBox="0 0 1 1">
  <defs>
    <style>
      .cls-1 {
        fill: none;
        stroke-width: .02px;
      }

      .cls-1, .cls-2 {
        stroke: #000;
        stroke-miterlimit: 10;
      }

      .cls-2 {
        fill: #e92e00;
        stroke-width: .01px;
      }
    </style>
  </defs>
  <path class="cls-2" d="M.937.582c-.006-.004-.012,0-.017.002-.033.019-.065.037-.098.056-.006.003-.012.007-.011.015.001.008.008.009.014.011.011.003.022.005.033.009-.003.004-.006.008-.009.011-.019.023-.044.039-.07.052-.071.036-.148.053-.226.066-.004,0-.006,0-.007-.005-.003-.011-.006-.023-.008-.035-.009-.061-.012-.123-.013-.185-.003-.112-.002-.224,0-.337,0-.006.002-.008.008-.009.043-.004.085-.008.128-.012.007,0,.01-.003.009-.01,0-.005,0-.011,0-.016,0-.007-.002-.009-.009-.009-.035,0-.071,0-.106,0-.009,0-.02.004-.026-.002-.005-.005,0-.017-.002-.025,0-.007.002-.01.008-.013.027-.016.04-.041.036-.072-.003-.031-.022-.052-.052-.063-.003-.001-.007,0-.01-.003h-.025s-.006.002-.01.004c-.028.01-.045.03-.05.059-.004.028.005.053.028.069.014.009.017.019.015.034,0,.001,0,.003,0,.004.001.007-.002.009-.009.009-.037,0-.074,0-.111,0-.021,0-.021,0-.022.022,0,.01.002.013.012.014.041.003.083.008.124.012.006,0,.009.002.009.009.002.155.006.31-.006.465-.002.03-.005.059-.013.088-.002.007-.003.009-.012.008-.05-.008-.099-.019-.146-.034-.039-.013-.077-.028-.111-.052-.017-.012-.033-.025-.045-.044.012-.003.024-.006.035-.009.006-.001.01-.004.011-.01.001-.007-.003-.011-.008-.014-.034-.019-.068-.039-.102-.058-.012-.007-.02-.002-.019.012.003.04.006.079.009.119,0,.006.002.01.008.012.006.002.01,0,.014-.006.005-.006.01-.011.014-.017.004-.005.006-.006.009,0,.008.016.018.029.03.042.036.039.08.066.127.089.048.024.097.048.141.078.035.023.066.05.087.087.005.001.005-.003.007-.005.019-.029.044-.053.072-.073.042-.029.087-.052.133-.074.042-.02.083-.043.119-.073.025-.021.047-.045.062-.075.007.009.014.017.02.025.003.004.007.006.013.005.006-.002.008-.006.009-.012.003-.04.006-.079.01-.119,0-.006,0-.012-.005-.016ZM.5.115c-.017,0-.032-.014-.032-.031,0-.017.013-.031.03-.031.018,0,.031.013.032.031,0,.017-.013.031-.03.031Z"/>
  <path class="cls-1" d="M.937.582c-.006-.004-.012,0-.017.002-.033.019-.065.037-.098.056-.006.003-.012.007-.011.015.001.008.008.009.014.011.011.003.022.005.033.009-.003.004-.006.008-.009.011-.019.023-.044.039-.07.052-.071.036-.148.053-.226.066-.004,0-.006,0-.007-.005-.003-.011-.006-.023-.008-.035-.009-.061-.012-.123-.013-.185-.003-.112-.002-.224,0-.337,0-.006.002-.008.008-.009.043-.004.085-.008.128-.012.007,0,.01-.003.009-.01,0-.005,0-.011,0-.016,0-.007-.002-.009-.009-.009-.035,0-.071,0-.106,0-.009,0-.02.004-.026-.002-.005-.005,0-.017-.002-.025,0-.007.002-.01.008-.013.027-.016.04-.041.036-.072-.003-.031-.022-.052-.052-.063-.003-.001-.007,0-.01-.003h-.025s-.006.002-.01.004c-.028.01-.045.03-.05.059-.004.028.005.053.028.069.014.009.017.019.015.034,0,.001,0,.003,0,.004.001.007-.002.009-.009.009-.037,0-.074,0-.111,0-.021,0-.021,0-.022.022,0,.01.002.013.012.014.041.003.083.008.124.012.006,0,.009.002.009.009.002.155.006.31-.006.465-.002.03-.005.059-.013.088-.002.007-.003.009-.012.008-.05-.008-.099-.019-.146-.034-.039-.013-.077-.028-.111-.052-.017-.012-.033-.025-.045-.044.012-.003.024-.006.035-.009.006-.001.01-.004.011-.01.001-.007-.003-.011-.008-.014-.034-.019-.068-.039-.102-.058-.012-.007-.02-.002-.019.012.003.04.006.079.009.119,0,.006.002.01.008.012.006.002.01,0,.014-.006.005-.006.01-.011.014-.017.004-.005.006-.006.009,0,.008.016.018.029.03.042.036.039.08.066.127.089.048.024.097.048.141.078.035.023.066.05.087.087.005.001.005-.003.007-.005.019-.029.044-.053.072-.073.042-.029.087-.052.133-.074.042-.02.083-.043.119-.073.025-.021.047-.045.062-.075.007.009.014.017.02.025.003.004.007.006.013.005.006-.002.008-.006.009-.012.003-.04.006-.079.01-.119,0-.006,0-.012-.005-.016ZM.5.115c-.017,0-.032-.014-.032-.031,0-.017.013-.031.03-.031.018,0,.031.013.032.031,0,.017-.013.031-.03.031Z"/>
</svg>