<?xml version="1.0" encoding="UTF-8"?>
<svg id="Capa_1" data-name="Capa 1" xmlns="http://www.w3.org/2000/svg" version="1.1" viewBox="0 0 1 1">
  <defs>
    <style>
      .cls-1 {
        fill: #d54122;
      }

      .cls-1, .cls-2, .cls-3 {
        stroke: #000;
        stroke-miterlimit: 10;
        stroke-width: .01px;
      }

      .cls-2 {
        fill: #000;
      }

      .cls-3 {
        fill: #fff;
      }
    </style>
  </defs>
  <path class="cls-1" d="M.779.362s0,.003,0,.005c0,.196,0,.393,0,.589,0,.01-.001.011-.01.013-.02.006-.042.008-.063.01-.069.005-.137.006-.206.005-.037,0-.075-.003-.112-.006-.019-.001-.037-.003-.055-.009-.009-.003-.009-.006-.009-.012,0-.196,0-.392,0-.589,0-.008,0-.007-.007-.007-.004,0-.008,0-.012,0,0,0,0-.001.001-.001.006-.001.012,0,.017,0,.002,0,.004,0,.006,0,.147,0,.293,0,.44,0,.003,0,.006,0,.009,0,0,0,0,0,0,.002Z"/>
  <path class="cls-1" d="M.779.362s0,0,0,0c-.002-.002-.001-.004-.001-.007,0-.006,0-.013,0-.019,0-.003-.001-.005-.005-.005-.002,0-.004,0-.006,0-.143,0-.287,0-.43,0-.004,0-.008,0-.012,0,0,0-.001,0-.002,0,0,0,0,0,0-.002,0-.01,0-.02.002-.03.006-.033.024-.057.054-.072.006-.003.011-.005.017-.007.006,0,.011-.003.016-.005.002-.001.003-.002.005-.002.006-.001.011-.003.016-.005.008-.004.017-.007.026-.01.007-.003.014-.005.021-.008.011-.004.018-.012.02-.023.002-.005.004-.005.008-.002.008.007.017.012.028.015.019.004.036.001.052-.01.002-.002.005-.004.007-.006.004-.003.006-.002.006.003,0,.001,0,.002,0,.003.004.013.014.019.026.023.029.011.059.021.088.032.023.009.04.025.052.046.007.013.01.027.011.042,0,.015.001.03,0,.045,0,.001,0,.003,0,.003Z"/>
  <path class="cls-1" d="M.323.329s0,0,0,0c-.002.002-.005.001-.007.001-.015,0-.031-.002-.046,0-.002,0-.004,0-.006,0-.002,0-.003.001-.003.003,0,.007,0,.015,0,.022,0,.004.003.003.005.003.011,0,.021,0,.032,0,.002,0,.005,0,.007.002,0,0,0,0,0,0,0,0,0,0,0,0-.002.005,0,.011,0,.016,0,.014.002.027.002.041,0,.076,0,.153,0,.229,0,.007,0,.008-.008.008-.012,0-.023,0-.035,0-.007,0-.007,0-.007-.007,0-.066,0-.131,0-.197,0-.02-.001-.04-.002-.061,0-.011-.002-.023-.003-.034-.001-.013-.004-.026-.006-.04-.002-.013-.005-.026-.007-.039-.003-.015-.007-.031-.01-.046-.002-.011-.005-.021-.006-.032-.002-.011,0-.022.002-.033.003-.016.009-.031.018-.044.004-.006.008-.012.013-.016.011-.011.023-.02.036-.027.008-.004.017-.007.026-.009.014-.004.029-.003.044-.003.034,0,.068,0,.102,0,.007,0,.007,0,.007.007,0,.012,0,.023,0,.035,0,.007-.001.008-.008.008-.038,0-.076,0-.113,0-.018,0-.035.005-.049.017-.005.005-.01.009-.013.015-.012.019-.016.039-.01.06.007.028.014.057.019.086.002.009.003.018.004.027,0,.004.002.005.006.005.004,0,.008,0,.012,0,.002,0,.004,0,.005.002Z"/>
  <path class="cls-1" d="M.602.17c-.002-.008-.002-.008-.009-.003-.016.013-.034.017-.054.014-.012-.002-.023-.008-.031-.016-.003-.003-.005-.003-.006.001-.003-.011-.012-.02-.014-.031,0-.002,0-.003,0-.005,0-.003,0-.007,0-.01-.002-.008,0-.016.003-.024.003-.009.007-.017.014-.023.002-.002.005-.004.008-.005.011-.009.024-.014.039-.014.008,0,.017-.002.025-.004.004,0,.008-.002.012-.002.008-.001.017-.003.025-.005.012-.002.023-.004.035-.007.009-.002.017-.003.026-.005.008-.001.016-.003.025-.005.005-.001.009-.002.014-.003.005,0,.01-.002.015-.003.004-.001.008-.001.012-.002.007-.002.014-.003.021-.004.005-.001.007,0,.007.006,0,.015-.011.03-.027.033-.004,0-.008.002-.012.001,0-.003.003-.002.005-.003.009-.002.017-.004.024-.011.005-.006.007-.012.008-.02,0-.003,0-.004-.004-.004-.02.004-.04.007-.061.011-.022.004-.044.008-.067.012-.022.004-.044.008-.066.012,0,0,0,0,0,0,.009.001.017.005.024.011.003.002.006.005.009.008.003.003.006.004.01.003.019-.004.037-.007.056-.01.003,0,.007-.003.011,0,0,.001,0,.002-.002.002-.008.001-.017.002-.025.004-.008.002-.016.003-.025.005-.005.001-.01.002-.015.003-.001,0-.004,0-.004.001,0,.002,0,.004.003.005.005.002.011.004.016.006.006.002.012.004.019.006,0,0,0,0,.001.001-.002.002-.004,0-.006,0-.008-.003-.017-.006-.026-.009.003.008.005.015.006.022,0,.001,0,.002,0,.004,0,.004,0,.007.004.009,0,0,0,0,0,.002-.002,0-.004,0-.006-.001-.001.013-.006.023-.013.034-.002.003,0,.008,0,.012Z"/>
  <path class="cls-2" d="M.676.064c-.008.001-.016.003-.024.004-.012.002-.024.004-.036.007-.01.003-.016,0-.023-.007-.008-.008-.018-.012-.03-.015.004-.004.01-.003.014-.004.015-.003.03-.006.046-.008.015-.003.031-.006.046-.009.011-.002.023-.004.034-.006.016-.003.032-.006.047-.009.003,0,.007,0,.01-.002.003-.001.003.001.003.003.002.013-.008.028-.02.032-.006.002-.012.003-.017.004-.017.003-.034.006-.051.01Z"/>
  <path class="cls-1" d="M.307.833c-.014,0-.029,0-.043,0-.003,0-.004,0-.004-.004,0-.037,0-.073,0-.11.002-.002.004-.002.006-.002.012,0,.024,0,.036,0,.006,0,.007,0,.007.007,0,.034,0,.069,0,.103,0,.002.001.004-.001.006Z"/>
  <path class="cls-2" d="M.622.125s-.006-.005-.006-.01c0-.009-.002-.018-.006-.025,0,0,0-.002,0-.002,0-.001.002,0,.003,0,.01.003.019.007.029.01,0,0,.001,0,.002,0,.036.012.072.024.108.037.015.005.024.018.024.033,0,.003-.001.006-.002.008-.002.001-.004,0-.005,0-.018-.006-.036-.012-.054-.018-.014-.005-.028-.009-.041-.014-.012-.004-.024-.009-.037-.012-.005-.002-.01-.003-.015-.005h0Z"/>
  <path class="cls-2" d="M.307.833s.001-.004.001-.005c0-.034,0-.069,0-.103,0-.004-.001-.005-.005-.005-.014,0-.029,0-.043,0,0,0,0-.002,0-.002-.001-.09,0-.18-.001-.271,0-.018,0-.036-.002-.054,0-.014-.002-.028-.004-.041-.001-.01-.002-.02-.005-.03-.001-.004-.001-.009-.002-.014-.001-.009-.004-.018-.006-.027-.001-.007-.003-.014-.004-.022,0-.006-.003-.011-.004-.017-.002-.008-.004-.016-.006-.024-.002-.01-.004-.019-.003-.029,0-.011.002-.021.005-.031.003-.012.009-.023.015-.033.003-.005.007-.009.01-.013,0-.001.002-.003.004-.003-.003.005-.008.01-.011.015-.018.026-.024.055-.02.086.002.014.006.029.01.043.003.013.006.027.009.04.004.018.007.036.009.055.003.02.004.041.005.061.002.045,0,.09.001.135,0,.036,0,.072,0,.107,0,.004.001.005.005.005.013,0,.025,0,.038,0,.004,0,.005-.001.005-.006,0-.067,0-.135,0-.202,0-.027,0-.054-.004-.081,0-.001-.001-.003.001-.003.001.016.002.032.004.048,0,.001,0,.003,0,.004,0,.079,0,.158,0,.237,0,.021-.001.043,0,.064.001.038,0,.076,0,.114,0,.002.001.004-.002.005Z"/>
  <path class="cls-2" d="M.511.067c-.012.009-.019.021-.022.035-.001.006-.004.013,0,.02,0,.002,0,.005,0,.008-.003-.001-.003-.004-.003-.007,0-.004-.002-.005-.006-.005-.002,0-.004,0-.006,0-.005.003-.011.002-.017.002-.038,0-.076,0-.114,0-.012,0-.023.004-.033.01-.002.001-.004.003-.006.004-.002,0-.003.002-.005,0,.007-.007.016-.011.025-.014.008-.003.016-.004.025-.004.038,0,.077,0,.115,0,.005,0,.006-.001.006-.006,0-.013,0-.025,0-.038,0-.003-.001-.004-.004-.004-.043,0-.085,0-.128,0-.015,0-.029.005-.043.011,0,0-.001,0-.002,0,.002-.004.007-.004.01-.005.008-.003.017-.005.026-.007.015-.003.03-.001.046-.001.027,0,.054,0,.081,0,.015,0,.03.002.044.001.004,0,.008,0,.011-.001Z"/>
  <path class="cls-1" d="M.622.125c.009.001.017.005.025.008.02.006.039.013.058.02.022.007.043.015.065.022.001,0,.002,0,.004,0-.004.003-.007,0-.01-.001-.013-.004-.026-.008-.039-.013-.012-.004-.024-.008-.036-.012-.012-.004-.024-.008-.036-.012-.01-.003-.02-.007-.03-.01,0,0,0,0-.001-.001Z"/>
  <path class="cls-3" d="M.389.556c0-.048,0-.095,0-.143,0-.007.001-.013.008-.017.004-.002.008-.003.013-.003.068,0,.135,0,.203,0,.027,0,.055,0,.082,0,.007,0,.014.002.017.009.002.004.002.008.002.012,0,.042,0,.085,0,.127,0,.052,0,.105,0,.157,0,.007,0,.014-.008.018-.003.002-.007.003-.011.003-.096,0-.192,0-.287,0-.01,0-.019-.006-.019-.019,0-.048,0-.096,0-.144Z"/>
  <path class="cls-2" d="M.323.33s.005-.001.007-.001c.148,0,.295,0,.443,0,.004,0,.006.001.006.006,0,.009,0,.018,0,.027-.003,0-.005,0-.008,0-.146,0-.293,0-.439,0-.003,0-.006,0-.009,0-.001-.002-.001-.003-.001-.005,0-.007,0-.013,0-.02,0-.002,0-.004.002-.006Z"/>
  <path class="cls-2" d="M.323.33c0,.009,0,.017,0,.026,0,.002,0,.003,0,.005-.006,0-.012,0-.018,0-.014,0-.027,0-.041,0-.004,0-.005,0-.005-.005,0-.008,0-.015,0-.023,0-.003.001-.005.004-.005.012,0,.025,0,.037,0,.007,0,.015,0,.023,0,0,0,0,0,0,0Z"/>
  <path class="cls-1" d="M.417.214c.005-.003.01-.005.016-.006-.005.003-.01.005-.016.006Z"/>
  <path class="cls-1" d="M.396.221c.005-.003.01-.005.016-.006-.005.003-.01.005-.016.006Z"/>
  <path class="cls-3" d="M.575.076c.016.009.024.022.025.04.002.034-.033.059-.065.047-.024-.009-.038-.034-.03-.06.004-.012.011-.022.023-.027.002,0,.002.002.003.003.007.011.013.023.02.034,0,0,0,.001,0,.002.007-.012.014-.024.021-.036,0-.001.001-.003.003-.004Z"/>
  <path class="cls-1" d="M.575.076c-.008.013-.016.027-.024.042-.008-.014-.016-.028-.024-.041.011-.009.035-.009.048,0Z"/>
</svg>