<?xml version="1.0" encoding="UTF-8"?>
<svg id="Capa_1" data-name="Capa 1" xmlns="http://www.w3.org/2000/svg" version="1.1" viewBox="0 0 1 1">
  <defs>
    <style>
      .cls-1 {
        fill: #e92e00;
      }

      .cls-1, .cls-2, .cls-3 {
        stroke: #000;
        stroke-miterlimit: 10;
        stroke-width: .01px;
      }

      .cls-2 {
        fill: #000;
      }

      .cls-3 {
        fill: #fff;
      }
    </style>
  </defs>
  <path class="cls-1" d="M.006.702c.004-.008.004-.018.006-.026.023-.081.075-.131.158-.146.023-.004.042-.016.06-.03.019-.016.035-.035.049-.055.032-.05.069-.096.111-.138.021-.021.052-.018.068.005,0,.001.001.003.002.004-.02-.003-.035.005-.047.02-.006.007-.013.014-.019.021-.03.031-.056.066-.079.102-.013.02-.028.039-.046.056-.022.021-.047.034-.077.04-.046.009-.086.031-.114.069-.035.047-.048.099-.04.157.006.045.023.085.051.121.005.006.011.011.013.02-.041-.033-.069-.075-.084-.125-.004-.013-.007-.027-.01-.041,0-.018,0-.036,0-.054Z"/>
  <path class="cls-1" d="M.1.921c-.002-.008-.008-.014-.013-.02-.028-.036-.045-.076-.051-.121-.007-.058.006-.11.04-.157.029-.039.068-.061.114-.069.03-.006.055-.019.077-.04.018-.017.032-.036.046-.056.024-.036.05-.07.079-.102.007-.007.013-.014.019-.021.013-.015.028-.022.047-.02.008.017.006.032-.006.046-.018.022-.032.046-.037.074-.002.01-.002.02,0,.03.002.011.007.014.018.012,0,0,0,0,0,.001-.002.002-.004.005-.006.007-.009.007-.018.014-.025.023-.003.002-.005.003-.008.005-.015-.006-.023-.018-.025-.033,0-.005-.003-.01-.004-.016-.004-.01-.011-.018-.023-.019-.012,0-.017.009-.022.017-.008.014-.011.029-.015.044-.015.055-.042.102-.095.13-.007.004-.014.008-.019.014-.023.023-.027.05-.019.079-.002-.002-.005-.004-.007-.006-.012-.011-.022-.01-.033.001-.012.012-.013.023-.002.034.026.027.053.053.079.079.01.01.02.01.032.001.001,0,.003-.002.004-.003h0s.001.004.003.005h0s.001.003.002.004c.015.021.025.044.028.071.001.013.008.015.02.007.046-.023.074-.06.085-.109.006-.025.014-.048.028-.07.015-.023.037-.036.062-.047.028-.012.053-.028.077-.046.007-.006.015-.013.011-.024-.002-.007-.012-.01-.025-.008-.012.002-.024.002-.036-.001-.022-.006-.042-.016-.053-.038.002-.002.003-.004.005-.006.003-.002.006-.004.007-.008.008-.008.015-.016.023-.024.003-.002.005-.004.007-.007.002-.002.003-.005.007-.004-.008.035-.004.044.03.056.022.008.043.009.065-.001.016-.008.032-.003.041.01.009.013.007.029-.006.042-.031.031-.068.053-.107.073-.016.008-.033.014-.046.025-.025.021-.039.049-.045.08-.016.081-.074.141-.154.155-.063.011-.12-.006-.172-.044,0-.001-.001-.002-.003-.002,0,0,0,0,0,0,0-.001,0-.002-.002-.002,0,0,0,0,0,0,0-.003-.001-.003-.003-.003h0Z"/>
  <path class="cls-1" d="M.845.109c.011-.004.021-.008.032-.013.006.015.011.029.017.044.004.01.012.015.021.012.009-.003.012-.012.008-.023-.005-.015-.011-.03-.016-.045.016-.007.032-.013.051-.011.025.003.04.025.034.049-.004.018-.016.03-.029.042-.005.004-.01.003-.014-.001-.007-.008-.014-.005-.02,0-.011.009-.019.021-.025.034-.021.051-.072.056-.107.044-.009-.003-.014,0-.019.006-.005.007-.011.011-.02.009-.014-.014-.027-.028-.041-.041-.003-.007,0-.012.005-.017.007-.006.011-.012.009-.023-.003-.019-.002-.02.016-.027.004-.001.007-.003.011-.004.006.014.011.028.017.043.001.004.003.007.006.009.005.003.011.005.017,0,.006-.004.009-.01.006-.017-.005-.016-.011-.031-.017-.047.009-.005.02-.009.03-.012.005.014.011.028.016.042.002.005.005.011.011.012.006.001.011.001.015-.003.005-.005.005-.011.003-.018-.005-.015-.011-.031-.016-.046Z"/>
  <path class="cls-1" d="M.906.084c.005.015.011.03.016.045.004.011.001.02-.008.023-.008.003-.016-.002-.021-.012-.006-.015-.011-.029-.017-.044-.002-.008-.005-.014-.012-.018-.01-.006-.012-.02-.006-.03.006-.011.019-.016.029-.011.012.005.019.016.015.027-.002.007-.001.014.002.02Z"/>
  <path class="cls-1" d="M.787.134c.006.016.011.031.017.047.002.007,0,.013-.006.017-.006.004-.012.002-.017,0-.004-.002-.005-.006-.006-.009-.006-.014-.011-.028-.017-.043-.001-.008-.004-.015-.012-.019-.01-.006-.012-.02-.007-.03.006-.011.018-.016.029-.012.011.004.019.016.016.027-.003.009,0,.015.003.023Z"/>
  <path class="cls-1" d="M.845.109c.005.015.011.031.016.046.002.006.002.012-.003.018-.004.004-.01.005-.015.003-.006-.002-.009-.007-.011-.012-.005-.014-.011-.028-.016-.042-.002-.008-.005-.015-.013-.02-.01-.006-.012-.02-.006-.03.006-.011.018-.015.029-.011.012.005.019.017.016.028-.003.008,0,.014.003.021Z"/>
  <path class="cls-1" d="M.501.532s-.005.003-.007.004c-.019-.019-.038-.039-.057-.058,0-.001,0-.002,0-.003.008-.007.016-.014.024-.02.001.004.005.006.007.009.016.016.032.032.048.049-.005.005-.009.011-.014.016-.002,0-.003.002-.002.004h0Z"/>
  <path class="cls-1" d="M.468.449c.008-.008.016-.016.025-.023.003.003.006.005.008.008.015.015.029.031.046.045-.006.01-.015.018-.023.026-.019-.018-.037-.037-.056-.055Z"/>
  <path class="cls-1" d="M.5.42c.007-.01.016-.017.025-.025.017.018.034.035.052.052-.007.009-.015.018-.024.025-.017-.019-.035-.036-.053-.053Z"/>
  <path class="cls-1" d="M.607.415c-.006.01-.015.018-.023.026-.017-.018-.034-.035-.051-.053.008-.008.015-.016.025-.022.016.017.032.034.049.049Z"/>
  <path class="cls-1" d="M.564.359c.008-.008.016-.016.025-.023.002.003.005.005.007.008.014.014.027.028.041.042-.007.008-.014.015-.022.023-.004,0-.006-.004-.008-.006-.015-.014-.029-.029-.043-.043Z"/>
  <path class="cls-1" d="M.667.351c-.007.01-.015.018-.024.025-.015-.017-.031-.032-.048-.047.008-.009.016-.017.026-.024.014.017.03.031.046.046Z"/>
  <path class="cls-1" d="M.628.299c.008-.008.016-.016.025-.023.016.014.028.03.045.043-.005.011-.015.017-.022.026-.016-.015-.032-.03-.048-.046Z"/>
  <path class="cls-1" d="M.728.288c-.007.009-.015.018-.024.025-.001-.003-.004-.005-.007-.008-.012-.012-.024-.024-.036-.037.008-.008.016-.016.025-.023.014.015.028.029.042.043Z"/>
  <path class="cls-1" d="M.716.216c.015.013.028.027.041.041-.007.008-.015.016-.022.024-.015-.014-.029-.028-.043-.043l.024-.022Z"/>
  <path class="cls-1" d="M.468.449c.019.018.037.037.056.055,0,.004-.004.006-.007.008-.016-.016-.032-.032-.048-.049-.003-.003-.006-.005-.007-.009.001-.003.004-.005.006-.006Z"/>
  <path class="cls-1" d="M.564.359c.014.014.029.029.043.043.002.002.004.006.008.006-.002.003-.004.006-.008.007-.018-.015-.033-.032-.049-.049,0-.003.004-.005.006-.007Z"/>
  <path class="cls-1" d="M.596.329c.017.015.033.031.048.047,0,.004-.004.006-.006.008-.014-.014-.027-.028-.041-.042-.002-.002-.005-.005-.007-.008.002-.003.004-.005.007-.006Z"/>
  <path class="cls-1" d="M.533.388c.017.018.034.035.051.053,0,.004-.003.006-.007.007-.018-.017-.035-.034-.052-.052.002-.002.005-.005.007-.007Z"/>
  <path class="cls-1" d="M.5.42c.018.017.036.034.053.053,0,.004-.002.006-.006.006-.016-.014-.03-.03-.046-.045-.003-.003-.006-.005-.008-.008.002-.003.004-.005.007-.006Z"/>
  <path class="cls-1" d="M.628.299c.016.015.032.03.048.046-.002.003-.004.006-.008.007-.016-.015-.032-.03-.046-.046.001-.003.004-.005.006-.006Z"/>
  <path class="cls-1" d="M.692.238c.013.015.028.029.043.043-.002.003-.004.005-.008.007-.015-.014-.029-.028-.042-.043.002-.002.005-.005.007-.007Z"/>
  <path class="cls-1" d="M.66.268c.012.012.024.024.036.037.002.002.006.004.007.008,0,.004-.002.005-.006.006-.016-.013-.029-.029-.045-.043.003-.002.005-.005.008-.007Z"/>
  <path class="cls-1" d="M.501.532s0-.003.002-.004c0,.001,0,.003-.002.004Z"/>
  <path class="cls-1" d="M.1.921s.004,0,.003.003c0,0-.002-.002-.003-.003Z"/>
  <polygon class="cls-1" points=".438 .476 .437 .479 .436 .478 .435 .477 .438 .476"/>
  <path class="cls-1" d="M.104.924s.002,0,.002.002c0,0-.001-.001-.002-.002Z"/>
  <path class="cls-1" d="M.106.925s.002,0,.003.002c0,0-.002-.001-.003-.002Z"/>
  <path class="cls-3" d="M.368.465c.001.005.003.01.004.016.002.016.01.027.025.033,0,0,0,.001,0,.002-.007.006-.014.013-.021.019-.005.005-.006.011,0,.016.015.015.031.031.046.046.005.005.011.005.017,0,.005-.005.009-.009.014-.014.01.022.03.032.053.038.012.003.024.003.036.001.012-.002.023,0,.025.008.004.011-.004.018-.011.024-.024.018-.05.034-.077.046-.024.011-.046.024-.062.047-.014.021-.023.045-.028.07-.011.049-.039.086-.085.109,0-.002-.002-.004-.003-.006-.005-.021-.015-.04-.028-.058-.005-.007-.009-.016-.019-.019,0,0,0,0,0,0,0-.002,0-.004-.003-.004,0,0,0,0,0,0,.011-.019.01-.023-.006-.039-.015-.016-.031-.031-.046-.047,0-.002,0-.004-.001-.007-.004-.019-.004-.037.005-.054.025.025.05.05.075.074.008.007.015.008.022.001.007-.006.007-.014,0-.021-.026-.026-.052-.052-.078-.078.008-.008.02-.012.03-.019.005-.004.008-.004.013.001.02.021.042.042.062.063.008.008.015.008.022.002.007-.006.007-.014,0-.022-.002-.002-.004-.004-.006-.006-.019-.019-.039-.039-.058-.058-.003-.003-.006-.005-.002-.009.01-.01.018-.023.025-.036,0,.008.005.013.009.017.017.017.034.034.051.051.003.003.006.005.009.007.006.004.013.002.017-.003.005-.005.006-.011.003-.017-.002-.004-.005-.007-.008-.01-.015-.015-.03-.03-.045-.045-.008-.008-.016-.018-.032-.012.009-.02.015-.039.02-.058.003-.012.007-.023.013-.033.005-.008.011-.015.022-.015ZM.353.82c0-.014-.013-.026-.027-.026-.014,0-.026.013-.025.027,0,.014.012.025.026.025.015,0,.026-.012.026-.026ZM.341.883c0-.008-.006-.015-.014-.015-.008,0-.015.006-.015.014,0,.008.006.015.014.015.008,0,.015-.006.015-.014Z"/>
  <path class="cls-3" d="M.368.465c-.011,0-.017.007-.022.015-.006.01-.01.021-.013.033-.004.019-.01.038-.02.058.016-.006.023.004.032.012.015.015.03.03.045.045.003.003.006.006.008.01.003.006.002.012-.003.017-.005.005-.011.007-.017.003-.003-.002-.006-.004-.009-.007-.017-.017-.034-.034-.051-.051-.004-.004-.009-.009-.009-.017-.008.014-.015.026-.025.036-.004.004-.001.007.002.009.019.019.039.039.058.058.002.002.004.004.006.006.006.008.006.016,0,.022-.007.006-.014.005-.022-.002-.021-.021-.042-.041-.062-.063-.005-.005-.008-.005-.013-.001-.009.008-.022.011-.03.019.026.026.053.052.078.078.007.007.006.015,0,.021-.007.006-.014.006-.022-.001-.025-.025-.05-.049-.075-.074-.009.017-.009.035-.005.054,0,.002,0,.004.001.007-.008-.007-.015-.013-.021-.021-.008-.03-.004-.057.019-.079.006-.006.012-.01.019-.014.052-.028.079-.075.095-.13.004-.015.007-.03.015-.044.005-.009.01-.018.022-.017.012,0,.018.009.023.019Z"/>
  <path class="cls-2" d="M.176.731c.006.008.013.015.021.021.015.016.031.031.046.047.016.016.016.02.006.039-.001,0-.003.002-.004.003-.012.009-.021.009-.032-.001-.027-.026-.053-.053-.079-.079-.011-.011-.01-.022.002-.034.012-.012.022-.012.033-.001.002.002.005.004.007.006Z"/>
  <path class="cls-1" d="M.452.582s-.01.009-.014.014c-.005.006-.011.006-.017,0-.016-.015-.031-.03-.046-.046-.005-.005-.005-.011,0-.016.007-.007.014-.013.021-.019.02.02.04.04.061.06-.002.002-.003.004-.005.006Z"/>
  <path class="cls-1" d="M.487.544c-.008.008-.015.016-.023.024-.02-.02-.04-.039-.06-.059.007-.009.016-.016.025-.023.019.019.038.039.058.058Z"/>
  <path class="cls-1" d="M.253.842c.01.003.014.012.019.019.013.017.023.036.028.058,0,.002.002.004.003.006-.013.008-.019.006-.02-.007-.002-.027-.013-.05-.028-.071,0-.001-.001-.003-.002-.004Z"/>
  <path class="cls-1" d="M.405.509c.02.02.04.039.06.059-.001.003-.004.006-.007.008-.02-.02-.04-.04-.061-.06,0,0,0-.001,0-.002.003-.002.005-.003.008-.005Z"/>
  <path class="cls-1" d="M.487.544c-.019-.019-.038-.039-.058-.058.002-.002.004-.005.006-.007,0,0,0,0,.001,0,.019.019.038.039.057.058-.002.003-.004.006-.007.007Z"/>
  <path class="cls-1" d="M.249.838s.004.002.003.004c-.002,0-.003-.002-.003-.004Z"/>
  <path class="cls-1" d="M.353.82c0,.015-.011.026-.026.026-.014,0-.026-.011-.026-.025,0-.014.011-.027.025-.027.014,0,.026.012.027.026Z"/>
  <path class="cls-1" d="M.341.883c0,.008-.007.015-.015.014-.008,0-.014-.007-.014-.015,0-.008.007-.014.015-.014.008,0,.014.007.014.015Z"/>
</svg>