<?xml version="1.0" encoding="UTF-8"?>
<svg id="Layer_1" data-name="Layer 1" xmlns="http://www.w3.org/2000/svg" version="1.1" viewBox="0 0 1 1">
  <defs>
    <style>
      .cls-1 {
        stroke-width: .0057px;
      }

      .cls-1, .cls-2, .cls-3, .cls-4, .cls-5, .cls-6, .cls-7, .cls-8, .cls-9, .cls-10 {
        fill: #e92e00;
      }

      .cls-1, .cls-3, .cls-4, .cls-5, .cls-6, .cls-7, .cls-8, .cls-9, .cls-10 {
        stroke: #000;
        stroke-linecap: round;
        stroke-miterlimit: 10;
      }

      .cls-2, .cls-11, .cls-12 {
        stroke-width: 0px;
      }

      .cls-3 {
        stroke-width: .0068px;
      }

      .cls-4 {
        stroke-width: .0036px;
      }

      .cls-5 {
        stroke-width: .0042px;
      }

      .cls-6 {
        stroke-width: .0083px;
      }

      .cls-11 {
        fill: #000;
      }

      .cls-7 {
        stroke-width: .0046px;
      }

      .cls-8 {
        stroke-width: .0039px;
      }

      .cls-12 {
        fill: #b52408;
      }

      .cls-13 {
        display: none;
      }

      .cls-10 {
        stroke-width: .007px;
      }
    </style>
  </defs>
  <g class="cls-13">
    <path class="cls-10" d="M.3688.1526c-.0023.0076-.0094.0164-.0243.0191s-.028-.0014-.0295-.0093.0174-.04.0296-.0488c.0087-.0063.0064.0082.0102.01.0043.0021-.0079-.0063-.0025-.0109.0066-.0056.0338-.018.0164.0399h.0001Z"/>
    <path class="cls-10" d="M.3956.1694c.0014.0079-.0094.0164-.0243.0191s-.028-.0014-.0295-.0093c-.001-.0053-.001-.0269.0146-.0253.008.0008.0108-.0036.0148-.0065.0174-.0126-.0075-.0141.0078-.0161.0197-.0025.0159.0342.0166.0381Z"/>
    <path class="cls-1" d="M.353.1696c-.0002.008-.0277.0391-.0393.0236-.0073-.0097-.0145-.0223-.0137-.0303s.0101-.0292.0199-.0348c.0006.008.0026.0138.0091.016.0108.0036.0167.0016.0196.0017.0031.0073.0047.0157.0045.0237h0Z"/>
    <path class="cls-10" d="M.4097.1975c-.0066.0045.0048.0233-.0375.021-.0264-.0015-.0233-.0239-.0226-.0318s.0454-.0385.0605-.0299c.0374.0212.0195.0273-.0004.0407Z"/>
    <path class="cls-10" d="M.3598.2004c-.0008.0079-.0044.0173-.0323.0128-.0149-.0024-.0282-.0192-.0275-.0272s-.0239-.0316-.0097-.0368c.0404-.0147.0702.0432.0695.0511H.3598Z"/>
    <path class="cls-8" d="M.4183.1548c.0073.0012.0165.0085.004.0212-.0067.0068-.0253.0037-.0282.0011s-.022.0032-.0186-.0053c.0045-.0115.0129-.0144.0208-.0141.0088.0004.0199-.0033.0221-.0029h-.0001Z"/>
    <path class="cls-4" d="M.2877.1467c-.0033.0003-.0069.002-.0081.0052s0,.008.0062.0143c.0067.0068.0235.0051.0259.0029s.0204.0045.0166-.0037c-.0051-.011-.013-.0143-.0202-.0145-.008-.0002-.0185-.0044-.0205-.0042h.0001Z"/>
    <path class="cls-10" d="M.3254.2165s-.0044.0173.0217.0225l-.0204.3438.0105.001.0193-.3421s.0177,0,.0208-.0228c0,0,.0096-.007.0207.0056,0,0,.0018-.0112-.0055-.0153-.0044-.0025-.012-.0023-.0253.0043,0,0,.0173-.0118.0148-.0154-.0115-.0002-.0249.001-.0298.0065-.0087-.0058-.0205-.0136-.0234-.0153s.0041.0031.0148.021c-.0061-.0088-.0128-.0122-.0192-.0126-.0067-.0004-.0129.0026-.0175.0063,0,0,.0173.0044.0183.0124h.0002Z"/>
    <path class="cls-10" d="M.4145.2602s-.0386-.0276-.0652.0174c0,0,.0282.0361.0652-.0174Z"/>
  </g>
  <g class="cls-13">
    <path class="cls-10" d="M.5098.2421c-.0056.0057-.0159.0102-.0304.0058s-.0242-.0142-.0219-.0218.0338-.0275.0488-.0297c.0106-.0016.002.0102.0045.0136.0029.0039-.0041-.0092.0028-.0108.0084-.0019.0383-.0004-.0038.0429Z"/>
    <path class="cls-10" d="M.5258.2693c-.0023.0076-.0159.0102-.0304.0058s-.0242-.0142-.0219-.0218c.0016-.0051.0115-.0244.0246-.0158.0067.0044.0112.0018.0162.001.0213-.0032-.0002-.016.0143-.0107.0187.0069-.0017.0376-.0028.0415Z"/>
    <path class="cls-1" d="M.488.2498c-.0039.007-.0426.022-.0458.0029-.002-.012-.0026-.0265.0018-.0332s.0224-.0212.0336-.0217c-.0032.0074-.0041.0134.0007.0183.0079.0082.0141.0091.0166.0106-.0006.0079-.0031.0161-.0069.0231Z"/>
    <path class="cls-10" d="M.5254.3007c-.0079.0009-.0065.0229-.043.0013-.0228-.0135-.0097-.0319-.0054-.0386s.058-.0132.0675.0014c.0234.0361.0048.0332-.0192.036h.0001Z"/>
    <path class="cls-10" d="M.4798.2803c-.0044.0067-.0118.0134-.0345-.0035-.0121-.009-.0162-.0301-.0118-.0368s-.0067-.0391.0083-.0371c.0426.0056.0424.0707.0381.0774h-.0001Z"/>
    <path class="cls-8" d="M.5527.2668c.006.0044.0108.0151-.0062.0207-.0091.003-.0241-.0084-.0255-.012s-.021-.0073-.0141-.0133c.0093-.0081.0181-.0069.0249-.0029.0076.0044.0191.0062.0209.0076h0Z"/>
    <path class="cls-4" d="M.4405.1994c-.0031-.0013-.0071-.0014-.0096.0009-.0026.0023-.0037.007-.0011.0156.0028.0091.0185.0154.0217.0145s.0161.0134.0165.0043c.0006-.0121-.0049-.0187-.0112-.0222-.0071-.0039-.0144-.0124-.0162-.0132h0Z"/>
    <path class="cls-10" d="M.4418.2788s-.0118.0134.0089.03l-.1765.2957.0089.0058.1748-.2947s.0158.0081.029-.0106c0,0,.0117-.0018.0158.0145,0,0,.0068-.0092.0022-.0162-.0028-.0042-.0096-.0076-.0245-.0078,0,0,.0208-.0025.0202-.0068-.0101-.0055-.0225-.0106-.0295-.0079-.0051-.0092-.0119-.0215-.0137-.0244-.0018-.0028.0023.0046.0035.0254-.0013-.0106-.0057-.0168-.0112-.02-.0058-.0034-.0127-.0036-.0184-.0024,0,0,.0134.0118.0105.0195h0Z"/>
    <path class="cls-10" d="M.5008.3586s-.0215-.0422-.0659-.0146c0,0,.0084.045.0659.0146Z"/>
  </g>
  <g class="cls-13">
    <path class="cls-10" d="M.3746.2243c-.0015.0078-.0078.0173-.0223.0214s-.028.0013-.0302-.0064.0134-.0415.0247-.0515c.0081-.0071.0072.0075.0111.009.0045.0017-.0085-.0055-.0035-.0106.006-.0062.0319-.0212.0202.0381Z"/>
    <path class="cls-10" d="M.4028.2385c.0022.0077-.0078.0173-.0223.0214s-.028.0013-.0302-.0064c-.0015-.0051-.0036-.0267.012-.0266.008,0,.0104-.0046.0141-.0079.0161-.0142-.0089-.0133.0062-.0168.0194-.0044.0191.0325.0202.0363Z"/>
    <path class="cls-1" d="M.3606.2427c.0006.0079-.0238.0417-.0368.0274-.0082-.009-.0166-.0208-.0166-.0288s.0072-.03.0164-.0365c.0014.0079.0039.0135.0106.015.0111.0026.0168,0,.0197-.0002.0038.007.0062.0152.0067.0231Z"/>
    <path class="cls-10" d="M.4197.265c-.0062.0051.0071.0228-.0353.0245-.0265.0011-.0256-.0215-.0256-.0295s.0414-.0427.0573-.0356c.0393.0175.0221.0252.0035.0406h0Z"/>
    <path class="cls-10" d="M.3703.2727c0,.008-.0026.0176-.0309.0159-.0151-.0009-.03-.0164-.03-.0244s-.0269-.0291-.0133-.0356c.0388-.0185.0741.0361.0741.0441h.0001Z"/>
    <path class="cls-8" d="M.424.2217c.0074.0005.0173.0068.006.0207-.006.0074-.0248.0061-.028.0038s-.0216.0053-.0191-.0035c.0034-.0119.0114-.0156.0193-.016.0088-.0004.0195-.0052.0217-.0051h0Z"/>
    <path class="cls-4" d="M.2932.2263c-.0033.0006-.0067.0027-.0076.006s.0007.0079.0076.0137c.0073.0061.0239.0028.0261.0004s.0208.0025.0162-.0053c-.0061-.0105-.0143-.013-.0215-.0125-.008.0006-.0188-.0026-.0208-.0022h0Z"/>
    <path class="cls-10" d="M.3376.2921s-.0026.0176.0238.0203l.0132.3441h.0106l-.0141-.3424s.0176-.0018.0185-.0247c0,0,.0088-.0079.0212.0035,0,0,.0007-.0114-.007-.0147-.0046-.002-.0122-.0012-.0248.0068,0,0,.0161-.0134.0132-.0168-.0115.0009-.0247.0034-.029.0094-.0093-.0049-.0217-.0115-.0248-.0129-.003-.0014.0044.0026.0168.0194-.0069-.0082-.0139-.0109-.0203-.0107-.0067.0003-.0126.0039-.0168.008,0,0,.0176.0026.0194.0106h0Z"/>
    <path class="cls-10" d="M.4306.327s-.0411-.0237-.0632.0237c0,0,.0316.0332.0632-.0237Z"/>
  </g>
  <g class="cls-13">
    <path class="cls-6" d="M.4139.2845c-.0026.0085-.0112.0184-.0299.0219s-.0357-.0005-.0379-.009.0202-.0445.0353-.0547c.0108-.0073.0086.0087.0135.0106.0056.0021-.0103-.0066-.0037-.0118.0081-.0064.0422-.0211.0227.043Z"/>
    <path class="cls-6" d="M.4487.3018c.0022.0085-.0112.0184-.0299.0219s-.0357-.0005-.0379-.009c-.0015-.0057-.0026-.0295.0173-.0283.0102.0006.0135-.0044.0185-.0077.0216-.0145-.0102-.0152.0091-.0179.025-.0035.0218.0368.0228.0411h.0001Z"/>
    <path class="cls-3" d="M.3947.3036c0,.0087-.0334.044-.0488.0275-.0097-.0103-.0195-.0238-.0188-.0326s.0115-.0324.0236-.0389c.0011.0088.0039.015.0123.0171.0139.0036.0213.001.025.0011.0043.0079.0067.017.0068.0257h-.0001Z"/>
    <path class="cls-6" d="M.468.3319c-.0082.0052.0072.0254-.0467.0245-.0337-.0006-.0308-.0252-.0302-.0339s.0559-.0439.0755-.0352c.0485.0217.0261.0291.0013.0446h0Z"/>
    <path class="cls-6" d="M.4047.3371c-.0006.0087-.0047.0191-.0404.0153-.019-.002-.0368-.0199-.0361-.0286s-.0319-.0337-.0141-.0399c.0507-.0177.0913.0445.0907.0532h-.0001Z"/>
    <path class="cls-7" d="M.4769.2848c.0094.001.0214.0086.0061.0231-.0082.0077-.0319.0051-.0358.0023s-.0278.0044-.0239-.0051c.0052-.0128.0157-.0163.0257-.0162.0112,0,.0251-.0044.0279-.0041Z"/>
    <path class="cls-5" d="M.3105.2812c-.0042.0005-.0087.0025-.0101.006-.0014.0036.0003.0087.0086.0154.0088.0072.0301.0047.0331.0021s.0262.0041.021-.0048c-.007-.0119-.0172-.0152-.0263-.0151-.0102,0-.0237-.0041-.0262-.0038v.0002Z"/>
    <path class="cls-6" d="M.3617.3562s-.0047.0191.0287.0238l-.0099.3773.0134.0007.0086-.3754s.0225-.0008.0254-.0258c0,0,.0118-.0081.0266.0053,0,0,.0018-.0124-.0077-.0166-.0057-.0025-.0154-.0021-.032.0058,0,0,.0215-.0136.0181-.0175-.0146.0002-.0316.002-.0376.0083-.0114-.006-.0267-.014-.0305-.0158-.0037-.0017.0054.0032.0198.0224-.0081-.0094-.0168-.0129-.0249-.013-.0085,0-.0163.0034-.0219.0076,0,0,.0222.0041.0238.0129h.0001Z"/>
    <path class="cls-6" d="M.477.4005s-.0503-.0287-.082.0217c0,0,.0375.0384.082-.0217Z"/>
  </g>
  <g class="cls-13">
    <path class="cls-10" d="M.2464.2751c.0019.0078.0002.0189-.0112.0288s-.0249.0129-.0301.0069-.0052-.0433.0008-.0571c.0043-.0098.0097.0038.0139.0035.0048-.0004-.01-.0015-.0076-.0081.0029-.0082.0201-.0327.0343.0261h-.0001Z"/>
    <path class="cls-10" d="M.2779.2761c.0052.006.0002.0189-.0112.0288s-.0249.0129-.0301.0069c-.0035-.004-.0145-.0227-.0003-.0292.0073-.0033.0075-.0085.0095-.0131.0086-.0197-.0137-.0084-.0014-.0178.0158-.0121.031.0215.0336.0245h0Z"/>
    <path class="cls-1" d="M.2413.2977c.0038.007-.0041.0478-.0219.0403-.0112-.0047-.0238-.0119-.0271-.0192s-.0061-.0303-.0005-.04c.0046.0066.0092.0106.0159.0092.0112-.0023.0152-.0071.0178-.0084.0064.0047.012.0112.0158.0182h0Z"/>
    <path class="cls-10" d="M.3043.2931c-.0035.0072.016.0177-.0218.0371-.0236.0121-.0322-.0088-.0356-.016s.0197-.0561.0371-.0564c.043-.0006.0306.0136.0202.0354h.0001Z"/>
    <path class="cls-10" d="M.2627.3209c.0034.0073.005.0171-.0214.0274-.0141.0055-.0341-.0023-.0374-.0095s-.0366-.0152-.027-.0268c.0275-.0331.0824.0017.0858.009H.2627Z"/>
    <path class="cls-8" d="M.2901.252c.0069-.0027.0185-.0011.0142.0163-.0023.0093-.0199.016-.0238.0152s-.0173.0139-.0188.0048c-.0019-.0122.0038-.019.0108-.0226.0078-.0041.0155-.0129.0176-.0137Z"/>
    <path class="cls-4" d="M.1733.3111c-.0027.0019-.005.0052-.0044.0086s.004.0069.0126.0092c.0092.0025.0228-.0075.0238-.0106s.0199-.0065.0125-.0116c-.01-.0069-.0185-.0058-.0248-.0023-.007.0039-.0182.0056-.0198.0067h0Z"/>
    <path class="cls-10" d="M.2412.3522s.005.0171.0301.0084l.0927.2188.0096-.0044-.0928-.2168s.0153-.009.0065-.0302c0,0,.0047-.0109.0207-.0057,0,0-.0041-.0106-.0125-.0104-.005,0-.0116.0041-.0197.0166,0,0,.009-.0189.005-.0208-.01.0056-.021.0134-.0224.0207-.0105-.0006-.0245-.0013-.0279-.0013-.0033,0,.0051.0006.0234.0106-.0097-.0045-.0172-.0041-.0229-.0012-.006.0031-.0098.0088-.0118.0143,0,0,.0171-.005.0221.0015h-.0001Z"/>
    <path class="cls-10" d="M.3402.3448s-.0472-.0043-.0474.048c0,0,.0426.0169.0474-.048Z"/>
  </g>
  <g>
    <path class="cls-2" d="M.6043.9407c0,.0262-.0419.0474-.0935.0474s-.0935-.0212-.0935-.0474c0-.0051.0008-.0224.0008-.027,0-.0115.0065-.0204.0928-.0204.0765,0,.0902.0017.0925.0178.0009.0061.001.0224.001.0297h0Z"/>
    <path class="cls-11" d="M.6049.9407c-.0204.0767-.193.0687-.1908-.0153.0057-.0561.0728-.0291.1051-.0373.0318-.0019.1054-.0021.0857.0526h0ZM.6038.9407c.013-.057-.0492-.0398-.0847-.0422-.0324.005-.0992-.0126-.0978.027.0015.0825.1526.0752.1825.0153,0,0-.0299.0599,0,0h0Z"/>
  </g>
  <g>
    <path class="cls-2" d="M.6043.9099c0,.0262-.0319.0575-.0963.054-.0652-.0036-.0908-.0278-.0908-.054s.0419-.0474.0935-.0474.0935.0212.0935.0474h0Z"/>
    <path class="cls-11" d="M.6049.9099c-.0202.0824-.1576.0746-.1902.0058.0215-.0819.1631-.0765.1902-.0058,0,0-.0271-.0707,0,0ZM.6038.9099c-.0326-.0611-.1624-.0577-.1832.005.0273.0637.16.0645.1832-.005,0,0-.0232.0695,0,0Z"/>
  </g>
  <g>
    <path class="cls-2" d="M.4937.456s-.2029.0113-.186.1615.1428.3043.1428.3043c0,0,.0639.0338.1127.0038,0,0,.1315-.186.1315-.3249s-.201-.1446-.201-.1446H.4937Z"/>
    <path class="cls-11" d="M.4937.4567c-.3597.0067-.0795.5685.0665.4642.1067-.1455.2333-.4589-.0665-.4642h0ZM.4936.4552c.0972-.0055.2389.0619.2048.1866-.0337.1132-.0914.3651-.2495.2832-.1259-.1488-.2626-.462.0447-.4698H.4936Z"/>
  </g>
  <g>
    <path class="cls-2" d="M.3459.0685l-.0945.3813s-.0133.0945.2537.0945.2571-.1082.2571-.1082l-.1078-.3676s-.3085,0-.3085,0Z"/>
    <path class="cls-11" d="M.3464.069s-.0902.3833-.0896.3816c.0463.1296.46.1298.5001-.013.0033.0038-.1203-.3884-.1025-.3633l-.3079-.0053s0,0,0,0ZM.3455.0679c.0073.0019.306-.0067.3132-.0054.0028.0035.1064.3678.1088.3718-.0217.1552-.4969.153-.5215.0148-.0008-.0005.0999-.3807.0994-.3813h.0001Z"/>
  </g>
  <g>
    <ellipse class="cls-2" cx=".5051" cy=".0685" rx=".1592" ry=".0464"/>
    <path class="cls-11" d="M.665.0685c-.0736.0764-.2464.0708-.3232,0C.4093-.0091.5974-.0056.665.0685h0ZM.6637.0685C.5945.0083.4195.0128.35.0685c.0607.063.2499.0578.3137,0h0Z"/>
  </g>
  <g>
    <ellipse class="cls-12" cx=".5051" cy=".0685" rx=".1592" ry=".0464"/>
    <path class="cls-11" d="M.665.0685c-.0736.0764-.2464.0708-.3232,0C.4093-.0091.5974-.0056.665.0685h0ZM.6637.0685C.5945.0083.4195.0128.35.0685c.0607.063.2499.0578.3137,0h0Z"/>
  </g>
  <path class="cls-11" d="M.555.112c-.0225.0193-.0523.0073-.0775.0037-.0727-.0048.0634-.0878.0775-.0037h0ZM.5544.1118c-.0118-.0459-.0866-.0363-.0952-.0014.0309.0026.0675.0149.0952.0014h0Z"/>
  <path class="cls-2" d="M.5544.1118c-.0118-.0459-.0866-.0363-.0952-.0014.0309.0026.0675.0149.0952.0014h0Z"/>
  <path class="cls-9" d="M.4255.9294"/>
</svg>