<?xml version="1.0" encoding="UTF-8"?>
<svg id="Layer_1" data-name="Layer 1" xmlns="http://www.w3.org/2000/svg" version="1.1" viewBox="0 0 1.45 1">
  <defs>
    <style>
      .cls-1 {
        fill: #e92e00;
      }

      .cls-1, .cls-2 {
        stroke-width: 0px;
      }

      .cls-2 {
        fill: #000;
      }
    </style>
  </defs>
  <g>
    <path class="cls-1" d="M.2806.181c.0079-.0416.0962-.0114.0901.0221-.004.0218-.1864.7505-.1975.7672-.0099.0148-.0112.0206-.0217.0187-.0106-.0019-.0212-.0099-.0177-.0256.0037-.0212.1428-.761.1468-.7824Z"/>
    <path class="cls-2" d="M.2806.181c.0147-.039.0759-.0238.0953.0108-.0071.078-.0611.248-.0777.3264-.0176.0284-.1046.4855-.1465.4743-.0499-.0085.0062-.1247.0034-.1578.0264-.1382.0982-.5109.1255-.6538H.2806ZM.2806.181c-.0369.2016-.1038.5659-.1401.764-.0219.0518.0393.0484.0368.0003l.11-.4298c.0159-.0705.0652-.2526.0763-.3199-.0085-.0242-.0661-.0518-.0831-.0146H.2806Z"/>
  </g>
  <g>
    <path class="cls-1" d="M.4187.0958c.0057-.0294.0947-.0032.0904.0205-.0028.0154-.1478.5261-.1517.5398-.0018.0061-.0083.0153-.0188.0134-.0106-.0019-.0211-.0128-.0195-.0262.0026-.015.0968-.5323.0997-.5474Z"/>
    <path class="cls-2" d="M.4187.0958c.04-.0466.1282.0174.0819.0712-.0279.0979-.1041.3633-.1331.4646-.0037.0549-.076.071-.0376-.0612.0187-.1002.0695-.371.0888-.4747H.4187ZM.4187.0958c-.0252.146-.074.41-.0967.5538.041.098.11-.3229.1249-.3297.0066-.0807.1229-.2664-.0282-.2241H.4187Z"/>
  </g>
  <g>
    <path class="cls-1" d="M1.1101.181c-.0079-.0416-.0962-.0114-.0901.0221.004.0218.182.7561.1863.7758.0026.0123.0166.0142.0271.0123.0106-.0019.0237-.0052.0175-.0254-.0037-.0212-.1368-.7633-.1408-.7847Z"/>
    <path class="cls-2" d="M1.1101.181c-.0184-.0399-.0897-.0047-.0826.0238l.0283.1202c.0409.1733.101.4285.1417.6011-.0068.0432.0424.092.0501.0401,0,0-.1375-.7852-.1375-.7852h0ZM1.1101.181l.1441.784c.0111.0268-.03.0393-.0466.0236-.055-.1954-.1134-.4631-.1643-.6612,0,0-.0293-.1201-.0293-.1201.0021-.0512.0812-.0667.0962-.0263h0Z"/>
  </g>
  <g>
    <path class="cls-1" d="M.9732.0979c-.0057-.0294-.0947-.0032-.0904.0205.0028.0154.1429.5304.1484.5435.0044.0105.0149.0114.0222.0096.0105-.0025.0149-.0071.0137-.0228-.0026-.015-.091-.5357-.0939-.5508Z"/>
    <path class="cls-2" d="M.9732.0979c-.0194-.0245-.0589-.0047-.0787.0092-.0108.0417.0524.204.06.2563.0311.075.0707.375.1099.2856,0,.0003-.0911-.5512-.0911-.5512h0ZM.9732.0979s.0967.5506.0967.5507c-.0036.0547-.0595.011-.0508-.019-.0351-.126-.0872-.3133-.1224-.4398-.0009-.0304-.0325-.0564-.0083-.0904.0252-.0139.0664-.029.0848-.0017h0Z"/>
  </g>
  <g>
    <path class="cls-1" d="M1.4337.2546c-.0086.0423-.1718.1626-.2521.1786-.1108.022-.2947.0407-.4445.0407-.1006,0-.2022-.0184-.2888-.0296-.148-.0192-.2692-.0531-.3427-.0953-.0492-.0283-.077-.0604-.077-.0944,0-.0221-.025-.0423-.0032-.0623C.1164.1089.4182.0474.7312.0474c.316,0,.6108.0553.6991.14.0041.0215.0079.0454.0034.0672Z"/>
    <path class="cls-2" d="M1.4344.2548c-.1546.226-.4563.2178-.6997.2249-.2391-.0448-.5445-.0031-.7102-.216C-.0265.124.2178.1089.3086.0786c.2607-.0406,1.0498-.1128,1.1258.1762h0ZM1.4329.2545C1.3669-.0181.5627.0554.3115.0929.2271.1214-.0193.1357.034.2625c.1518.2047.4652.1681.7008.2052.2435-.0143.5397.0082.6981-.2132h0Z"/>
  </g>
  <g>
    <path class="cls-1" d="M1.4337.2143c0,.0429-.0629.0539-.12.1158-.0279.0303-.3152.0814-.5863.0827C.3402.4147.0287.2765.0287.2143.0287.1409.1581.0765.3533.0397.4624.0191.5921.0072.7312.0072c.1519,0,.2926.0142.4075.0384.1786.0376.295.0992.295.1688Z"/>
    <path class="cls-2" d="M1.4337.2143c-.149.2193-.4659.1803-.702.2025-.2422-.0146-.5392-.0123-.7097-.2145C.1926-.0199.4968.0391.7364.0036c.2342.0434.5547-.0148.6973.2107h0ZM1.4337.2143C1.2897-.0089.9698.0524.7364.0117.5006.0449.1883.0047.0377.2051c.2612.2541,1.1396.3124,1.3959.0092h0Z"/>
  </g>
</svg>