<?xml version="1.0" encoding="UTF-8"?>
<svg id="Layer_1" data-name="Layer 1" xmlns="http://www.w3.org/2000/svg" version="1.1" viewBox="0 0 1 1">
  <defs>
    <style>
      .cls-1, .cls-2 {
        stroke-width: 0px;
      }

      .cls-1, .cls-3 {
        fill: #e92e00;
      }

      .cls-2 {
        fill: #000;
      }

      .cls-3 {
        stroke: #000;
        stroke-linecap: round;
        stroke-miterlimit: 10;
        stroke-width: .024px;
      }
    </style>
  </defs>
  <g>
    <path class="cls-2" d="M.2997.21s-.0053.567,0,.567.3513.0071.3513.0071l-.0018-.1177-.2318.0036-.0036-.1337.1658-.0036-.0018-.1016-.1694.0071.0018-.1159.2282.0036.0018-.1106-.3406-.0053Z"/>
    <path class="cls-2" d="M.3005.2109c-.0004.0682.0103.5026.006.5561,0,0,.1148.0039.1148.0039-.0045.0022.2543.0014.2242.0133.0014.001-.0046-.1318.0036-.1141-.0076,0-.2306.0068-.2381.0068.0043-.0063-.0168-.1602.0027-.1488-.004.0062.2051-.0206.1555.0048,0,0-.0023-.1014-.0023-.1014.054.0237-.1625.0117-.1579.0182-.0125.0014-.013.0013-.0119-.0116.0005-.0101.0013-.1197.0017-.1274,0,0,.0117.0002.0117.0002l.228.0045c-.025.0458-.001-.1008-.0066-.0999,0,0,.0081.0084.0081.0084l-.3395-.0128H.3005ZM.2989.2091c.0117.0013.3378-.0031.3497-.0022,0,.0125.0006.1177.0007.1298,0,0-.011-.0001-.011-.0001.0061-.0062-.2752.0121-.2164-.014,0,0-.0021.1157-.0021.1157-.0556-.0255.1618-.0112.1575-.0182,0,0,.0114-.0004.0114-.0004.0003.003.0011.1067.0013.1128.0009.0102.0006.0118-.0103.0107.0044-.0057-.1991.0137-.1577-.0069,0,0,.0019.1336.0019.1336-.0328-.0156.2307-.0026.2287-.0069.0001.0033.0036.1175.0037.1211,0,0,.0002.0056.0002.0056-.0088.0025-.2272-.0032-.2353-.0015-.1304.0037-.1418.008-.1333-.119,0,0,.0109-.4601.0109-.4601H.2989Z"/>
  </g>
  <polygon class="cls-3" points=".1856 .7539 .7027 .1547 .7829 .2261 .2587 .8145 .1856 .7539"/>
  <g>
    <path class="cls-1" d="M.4863.018C.2198.018.0037.2341.0037.5006s.2161.4826.4826.4826.4826-.2161.4826-.4826S.7528.018.4863.018ZM.4887.8912c-.1961.0056-.3816-.2385-.3816-.3798S.2462.0941.4834.1119c.2686.0202.3923.26.3923.4012s-.1391.3709-.3869.378Z"/>
    <g>
      <path class="cls-2" d="M.4863.0192c-.6168.0084-.6234.9632,0,.9567.616-.0088.6166-.9443,0-.9567H.4863ZM.4863.0168c.6453-.0107.6459.9804,0,.9735-.6385-.0084-.6451-.9802,0-.9735H.4863Z"/>
      <path class="cls-2" d="M.4887.8924C-.0118.8618-.0116.1207.4924.1057c.5053.0334.5111.7741-.0037.7867H.4887ZM.4887.89c.4872-.0361.4784-.7235.0024-.7696-.4851-.0074-.4708.7322-.0024.7696H.4887Z"/>
    </g>
  </g>
</svg>