<?xml version="1.0" encoding="UTF-8"?>
<svg id="Layer_1" data-name="Layer 1" xmlns="http://www.w3.org/2000/svg" version="1.1" viewBox="0 0 1 1">
  <defs>
    <style>
      .cls-1, .cls-2, .cls-3, .cls-4, .cls-5, .cls-6, .cls-7, .cls-8, .cls-9, .cls-10, .cls-11 {
        fill: #e92e00;
      }

      .cls-1, .cls-12 {
        stroke-width: 0px;
      }

      .cls-2 {
        stroke-width: .0057px;
      }

      .cls-2, .cls-3, .cls-4, .cls-5, .cls-6, .cls-7, .cls-8, .cls-9, .cls-10, .cls-11 {
        stroke: #000;
        stroke-linecap: round;
        stroke-miterlimit: 10;
      }

      .cls-3 {
        stroke-width: .0089px;
      }

      .cls-4 {
        stroke-width: .0046px;
      }

      .cls-5 {
        stroke-width: .0036px;
      }

      .cls-6 {
        stroke-width: .0042px;
      }

      .cls-7 {
        stroke-width: .0083px;
      }

      .cls-12 {
        fill: #000;
      }

      .cls-8 {
        stroke-width: .0039px;
      }

      .cls-9 {
        stroke-width: .0068px;
      }

      .cls-10 {
        stroke-width: .0105px;
      }

      .cls-13 {
        display: none;
      }

      .cls-11 {
        stroke-width: .007px;
      }
    </style>
  </defs>
  <g>
    <path class="cls-12" d="M.2786.3282s.1731-.1841.4417.0101c0,0-.1428.2513-.1612.2589-.0649.0266-.2169-.0303-.2805-.269Z"/>
    <path class="cls-12" d="M.2782.3281c.1184-.1249.3276-.0916.4445.0117,0,0-.0917.159-.0917.159-.0992.2506-.3331-.0073-.3528-.1707H.2782ZM.2791.3283c.0276.156.2478.4088.345.1662,0,0,.0937-.1575.0937-.1575-.1137-.0889-.3169-.1262-.4388-.0087H.2791Z"/>
  </g>
  <g>
    <path class="cls-3" d="M.2919.1681s.0022.0227.0354.0177l.1229.4229.0129-.0033-.1235-.4204s.021-.0078.015-.0365c0,0,.0083-.0126.0269-.0023,0,0-.0027-.0143-.0131-.0161-.0062-.0011-.0153.0024-.0282.0162,0,0,.0155-.0217.011-.025-.0137.0047-.0291.012-.0325.0208-.0128-.0032-.0301-.0074-.0343-.0082-.0041-.0008.0062.0019.0265.0188-.0109-.008-.0204-.0092-.0281-.0068-.0081.0025-.0142.0088-.018.0152,0,0,.0224-.0023.027.007Z"/>
    <g>
      <path class="cls-1" d="M.3714.0688s.0492.0113.0296.0383-.0468.0322-.0468.0322c0,0,.073.0181.0508.0383s-.0651.0302-.0703-.0265c0,0-.0202.0662-.0539.0449-.0105-.0066-.0164-.0153-.0176-.024-.0027-.0195.0179-.0394.0633-.038,0,0-.067.0265-.0834.0058-.0142-.0179-.0131-.0327-.0012-.0419.0061-.0047.0151-.008.0263-.0094.0332-.0042.0561.0291.0561.0291,0,0-.0409-.023-.0421-.0428-.0004-.0066.0037-.0129.0151-.0178.017-.0073.0292-.0057.0372.0007.0135.0109.0149.0356.007.0541,0,0,.005-.0435.0299-.0429Z"/>
      <path class="cls-12" d="M.3715.0683c.0691.0037.0061.0812-.0164.0682.0159.0014.088.0246.0415.0526-.0254.0292-.0837-.0193-.0591-.0371-.037.1218-.1371-.0279-.011-.0213.0127.0021.0115.002.0011.0062-.1698.0706-.0783-.1434.0073-.0104-.1396-.0502.042-.133.0085-.0142-.0087-.0105.0094-.045.0282-.044H.3715ZM.3713.0693c-.0241-.0011-.0212.0359-.0315.0415.0302-.0884-.1131-.0473-.0132.0023-.0064.0155-.0574-.0549-.0893.0021.004.0568.0732.0078.089.0219-.117-.0096-.0257.128.0056.0132.015.0199.0199.0571.0602.0314.0389-.018-.028-.0363-.0473-.0421.0336-.0089.0923-.0564.0265-.0703H.3713Z"/>
    </g>
    <g>
      <path class="cls-1" d="M.3401.2349s-.0309-.0519-.0841-.0124c0,0,.0147.0567.0841.0124Z"/>
      <path class="cls-12" d="M.3397.2347c-.0195-.0244-.0574-.0342-.0821-.0104.0125.0245.051.0296.0821.0104H.3397ZM.3405.235c-.0198.0262-.0853.0316-.086-.0146.0251-.0219.0724-.0215.086.0146H.3405Z"/>
    </g>
    <g>
      <path class="cls-1" d="M.3432.1105c.0092-.0018.0249.0037.0155.0246-.005.0111-.0177.0159-.0335.0206-.0047.0014-.0258.0056-.0255-.0061.0004-.0158.0091-.023.0186-.026.0106-.0033.0221-.0126.0249-.0131Z"/>
      <path class="cls-12" d="M.3431.11c.057.0021-.0153.0677-.0464.0452-.0081-.0345.0309-.0392.0464-.0452H.3431ZM.3433.111c-.0179.0154-.0419.0215-.039.0402.0145.0177.0836-.0333.039-.0402H.3433Z"/>
    </g>
  </g>
  <g>
    <path class="cls-3" d="M.6289.1256s-.0109.02.0191.035l-.1365.4186.0125.0048.1347-.4169s.0216.0058.0328-.0213c0,0,.0139-.0056.0234.0137,0,0,.0058-.0133-.0017-.0208-.0045-.0045-.0139-.0069-.0322-.003,0,0,.0249-.0089.023-.0142-.0139-.0041-.0306-.007-.0384-.0018-.0087-.0101-.0205-.0236-.0235-.0267-.0029-.003.004.0052.0112.0308-.0045-.0129-.0116-.0194-.0192-.0219-.008-.0027-.0166-.001-.0233.0021,0,0,.0196.0111.0182.0214Z"/>
    <g>
      <path class="cls-1" d="M.7499.0902s.034.0379.0028.0486-.0565-.0007-.0565-.0007c0,0,.0124.0143.0212.0291s.0138.03-.001.0318c-.0187.0023-.0419-.0035-.0495-.0206-.0044-.0099-.0035-.0237.0067-.0419,0,0-.0254.0202-.0464.0207-.0095.0002-.0182-.0036-.0231-.0151-.0049-.0115-.0049-.0221-.0009-.03.0064-.0128.0231-.0186.0458-.0101.0084.0031.0176.0082.0274.0156,0,0-.0699-.0171-.0717-.0436-.0016-.0229.0076-.0345.0225-.0351.0077-.0003.0169.0022.0269.0076.0296.0158.0298.0564.0298.0564,0,0-.0207-.0426-.0105-.0596.0034-.0057.0102-.0084.0224-.0058.0181.0039.0272.0123.0301.0222.005.0168-.0078.0379-.0247.0485,0,0,.0286-.0328.0486-.0179Z"/>
      <path class="cls-12" d="M.7499.0902c.0484.0428-.0268.0634-.0527.0472.0106.0137.0568.0658.0068.064-.0397.01-.0504-.0587-.0286-.0626-.106.0744-.1124-.1218.0364-.0071-.226-.0354-.0391-.1831-.0262-.0213-.0723-.1134.1042-.0715.0161-.0019.0072-.013.0319-.0294.0482-.0183h0ZM.7499.0902c-.0186-.0124-.0368.0094-.0488.0173.08-.0568-.0727-.1106-.0149-.0059-.0361-.1203-.1484-.0166-.0086.0111-.0021.0032-.0033.0125-.0085.0064-.0837-.0627-.0813.0767.0026.015,0,0,.0079-.0048.0079-.0048l-.0032.0087c-.0359.0776.0994.0843.0191.001.0323.0035.1001,0,.0546-.0488h0Z"/>
    </g>
    <g>
      <path class="cls-1" d="M.631.2084s.0038-.0606-.0621-.059c0,0-.0198.0551.0621.059Z"/>
      <path class="cls-12" d="M.6307.2081c-.0025-.0311-.0276-.0613-.0616-.0562-.0033.0271.025.054.0616.0562h0ZM.6313.2087c-.0315.0099-.0878-.0237-.0623-.0619.0333-.0033.0714.0245.0623.0619h0Z"/>
    </g>
    <g>
      <path class="cls-1" d="M.7034.108c.0085.0039.0184.0175-.001.0292-.0104.0062-.0235.0027-.0391-.0025-.0047-.0016-.0243-.0104-.0175-.0198.0092-.0127.0204-.0136.0298-.0105.0106.0035.0252.0025.0278.0037Z"/>
      <path class="cls-12" d="M.7036.1076c.0458.0346-.0509.0467-.0635.0102.0129-.0331.0476-.0142.0635-.0102h0ZM.7032.1085c-.0234.0022-.0465-.0068-.0545.0103.0018.0231.0874.0212.0545-.0103h0Z"/>
    </g>
  </g>
  <g>
    <path class="cls-3" d="M.6553.2495s-.0109.02.0191.035l-.1365.4186.0125.0048.1347-.4169s.0216.0058.0328-.0213c0,0,.0139-.0056.0234.0137,0,0,.0058-.0133-.0017-.0208-.0045-.0045-.0139-.0069-.0322-.003,0,0,.0249-.0089.023-.0142-.0139-.0041-.0306-.007-.0384-.0018-.0087-.0101-.0205-.0236-.0235-.0267-.0029-.003.004.0052.0112.0308-.0045-.0129-.0116-.0194-.0192-.0219-.008-.0027-.0166-.001-.0233.0021,0,0,.0196.0111.0182.0214Z"/>
    <g>
      <path class="cls-1" d="M.7763.214s.034.0379.0028.0486-.0565-.0007-.0565-.0007c0,0,.0124.0143.0212.0291s.0138.03-.001.0318c-.0187.0023-.0419-.0035-.0495-.0206-.0044-.0099-.0035-.0237.0067-.0419,0,0-.0254.0202-.0464.0207-.0095.0002-.0182-.0036-.0231-.0151-.0049-.0115-.0049-.0221-.0009-.03.0064-.0128.0231-.0186.0458-.0101.0084.0031.0176.0082.0274.0156,0,0-.0699-.0171-.0717-.0436-.0016-.0229.0076-.0345.0225-.0351.0077-.0003.0169.0022.0269.0076.0296.0158.0298.0564.0298.0564,0,0-.0207-.0426-.0105-.0596.0034-.0057.0102-.0084.0224-.0058.0181.0039.0272.0123.0301.0222.005.0168-.0078.0379-.0247.0485,0,0,.0286-.0328.0486-.0179Z"/>
      <path class="cls-12" d="M.7763.214c.0484.0428-.0268.0634-.0527.0472.0106.0137.0568.0658.0068.064-.0397.01-.0504-.0587-.0286-.0626-.106.0744-.1124-.1218.0364-.0071-.226-.0354-.0391-.1831-.0262-.0213-.0723-.1134.1042-.0715.0161-.0019.0072-.013.0319-.0294.0482-.0183h0ZM.7763.214c-.0186-.0124-.0368.0094-.0488.0173.08-.0568-.0727-.1106-.0149-.0059-.0361-.1203-.1484-.0166-.0086.0111-.0021.0032-.0033.0125-.0085.0064-.0837-.0627-.0813.0767.0026.015,0,0,.0079-.0048.0079-.0048l-.0032.0087c-.0359.0776.0994.0843.0191.001.0323.0035.1001,0,.0546-.0488h0Z"/>
    </g>
    <g>
      <path class="cls-1" d="M.6574.3322s.0038-.0606-.0621-.059c0,0-.0198.0551.0621.059Z"/>
      <path class="cls-12" d="M.6571.3319c-.0025-.0311-.0276-.0613-.0616-.0562-.0033.0271.025.054.0616.0562h0ZM.6577.3325c-.0315.0099-.0878-.0237-.0623-.0619.0333-.0033.0714.0245.0623.0619h0Z"/>
    </g>
    <g>
      <path class="cls-1" d="M.7297.2318c.0085.0039.0184.0175-.001.0292-.0104.0062-.0235.0027-.0391-.0025-.0047-.0016-.0243-.0104-.0175-.0198.0092-.0127.0204-.0136.0298-.0105.0106.0035.0252.0025.0278.0037Z"/>
      <path class="cls-12" d="M.73.2314c.0458.0346-.0509.0467-.0635.0102.0129-.0331.0476-.0142.0635-.0102h0ZM.7295.2323c-.0234.0022-.0465-.0068-.0545.0103.0018.0231.0874.0212.0545-.0103h0Z"/>
    </g>
  </g>
  <g>
    <path class="cls-3" d="M.4342.1086s-.0061.022.0265.0296l-.0382.4393.0132.0017.0368-.4372s.0223.0006.0271-.0284c0,0,.0123-.0087.0259.0079,0,0,.0027-.0143-.0064-.0198-.0054-.0033-.0151-.0034-.0321.0046,0,0,.0222-.0144.0192-.0192-.0145-.0007-.0314.0003-.0378.0073-.0108-.0077-.0253-.0181-.0289-.0204-.0036-.0023.0051.0041.0179.0274-.0073-.0115-.0157-.0161-.0237-.0168-.0084-.0007-.0164.0029-.0222.0075,0,0,.0216.0062.0226.0166Z"/>
    <g>
      <path class="cls-1" d="M.544.0458s.0417.0289.0137.0466-.0551.0126-.0551.0126c0,0,.0614.0441.0334.0545s-.0715.0038-.0558-.0509c0,0-.013.0165-.0286.0258-.0127.0076-.0271.0104-.0378-.0041-.0074-.01-.0097-.0203-.0077-.0289.0033-.0138.018-.0233.0417-.0206.009.001.0194.0038.0309.0089,0,0-.0719-.0003-.0797-.0257-.0067-.022-.0004-.0354.014-.0395.0074-.0021.0169-.0018.0279.0011.0324.0084.0417.048.0417.048,0,0-.0298-.0367-.0237-.0555.002-.0063.008-.0106.0205-.0109.0185-.0005.0292.0056.0343.0145.0086.0152.001.0387-.013.053,0,0,.0204-.0386.0433-.0287Z"/>
      <path class="cls-12" d="M.5442.0454c.0631.0287-.0237.0782-.0398.0572.014.0074.0734.0552.0196.0644-.0343.0172-.0705-.048-.0416-.0566-.0822.0995-.1139-.076-.0024-.0238,0,0,.008.0061.008.0061h-.0093c-.1891-.0006-.0122-.1637.0113-.0014-.1118-.1141.0865-.1102.0124-.0154-.005-.0127.0251-.0387.042-.0305h0ZM.5438.0463c-.022-.0102-.0327.0261-.0444.0268.0606-.0685-.0893-.0883-.013-.0027-.0112.0133-.0321-.0724-.0839-.0314-.017.0544.0656.0346.0748.0536-.108-.0485-.0746.1146.01.0064-.0185.0292-.0016.0705.0353.0596.0424-.0026-.0134-.0442-.029-.0569.0348.0044.1062-.0183.0501-.0554h0Z"/>
    </g>
    <g>
      <path class="cls-1" d="M.455.1886s-.01-.0598-.0738-.0429c0,0-.0068.0582.0738.0429Z"/>
      <path class="cls-12" d="M.4546.1884c-.0094-.0298-.0408-.0532-.0727-.0402.0029.0272.0366.0467.0727.0402H.4546ZM.4554.1889c-.0283.017-.0908-.0026-.0747-.0456.0316-.011.0751.0072.0747.0456H.4554Z"/>
    </g>
    <g>
      <path class="cls-1" d="M.5027.074c.0092.0018.0218.0128.0056.0287-.0087.0085-.0222.0081-.0386.0067-.0049-.0004-.026-.0044-.0215-.0152.0061-.0146.0167-.018.0266-.0172.0111.0009.0251-.0035.0279-.0029Z"/>
      <path class="cls-12" d="M.5028.0736c.0524.0231-.0389.0573-.0595.0247.0049-.0351.043-.025.0595-.0247h0ZM.5026.0745c-.0223.0076-.0468.0043-.0508.0228.007.0221.0899.0002.0508-.0228h0Z"/>
    </g>
  </g>
  <g>
    <path class="cls-3" d="M.5239.2198s-.0061.022.0265.0296l-.0382.4393.0132.0017.0368-.4372s.0223.0006.0271-.0284c0,0,.0123-.0087.0259.0079,0,0,.0027-.0143-.0064-.0198-.0054-.0033-.0151-.0034-.0321.0046,0,0,.0222-.0144.0192-.0192-.0145-.0007-.0314.0003-.0378.0073-.0108-.0077-.0253-.0181-.0289-.0204-.0036-.0023.0051.0041.0179.0274-.0073-.0115-.0157-.0161-.0237-.0168-.0084-.0007-.0164.0029-.0222.0075,0,0,.0216.0062.0226.0166Z"/>
    <g>
      <path class="cls-1" d="M.6337.157s.0417.0289.0137.0466-.0551.0126-.0551.0126c0,0,.0614.0441.0334.0545s-.0715.0038-.0558-.0509c0,0-.013.0165-.0286.0258-.0127.0076-.0271.0104-.0378-.0041-.0074-.01-.0097-.0203-.0077-.0289.0033-.0138.018-.0233.0417-.0206.009.001.0194.0038.0309.0089,0,0-.0719-.0003-.0797-.0257-.0067-.022-.0004-.0354.014-.0395.0074-.0021.0169-.0018.0279.0011.0324.0084.0417.048.0417.048,0,0-.0298-.0367-.0237-.0555.002-.0063.008-.0106.0205-.0109.0185-.0005.0292.0056.0343.0145.0086.0152.001.0387-.013.053,0,0,.0204-.0386.0433-.0287Z"/>
      <path class="cls-12" d="M.634.1566c.0631.0287-.0237.0782-.0398.0572.014.0074.0734.0552.0196.0644-.0343.0172-.0705-.048-.0416-.0566-.0822.0995-.1139-.076-.0024-.0238,0,0,.008.0061.008.0061h-.0093c-.1891-.0006-.0122-.1637.0113-.0014-.1118-.1141.0865-.1102.0124-.0154-.005-.0127.0251-.0387.042-.0305h0ZM.6335.1575c-.022-.0102-.0327.0261-.0444.0268.0606-.0685-.0893-.0883-.013-.0027-.0112.0133-.0321-.0724-.0839-.0314-.017.0544.0656.0346.0748.0536-.108-.0485-.0746.1146.01.0064-.0185.0292-.0016.0705.0353.0596.0424-.0026-.0134-.0442-.029-.0569.0348.0044.1062-.0183.0501-.0554h0Z"/>
    </g>
    <g>
      <path class="cls-1" d="M.5447.2998s-.01-.0598-.0738-.0429c0,0-.0068.0582.0738.0429Z"/>
      <path class="cls-12" d="M.5443.2996c-.0094-.0298-.0408-.0532-.0727-.0402.0029.0272.0366.0467.0727.0402h0ZM.5451.3001c-.0283.017-.0908-.0026-.0747-.0456.0316-.011.0751.0072.0747.0456h0Z"/>
    </g>
    <g>
      <path class="cls-1" d="M.5941.1815c.0092.0018.0218.0128.0056.0287-.0087.0085-.0222.0081-.0386.0067-.0049-.0004-.026-.0044-.0215-.0152.0061-.0146.0167-.018.0266-.0172.0111.0009.0251-.0035.0279-.0029Z"/>
      <path class="cls-12" d="M.5942.181c.0524.0231-.0389.0573-.0595.0247.0049-.0351.043-.025.0595-.0247h0ZM.594.182c-.0223.0076-.0468.0043-.0508.0228.007.0221.0899.0002.0508-.0228h0Z"/>
    </g>
  </g>
  <g>
    <path class="cls-3" d="M.5405.3247s-.0061.022.0265.0296l-.0382.4393.0132.0017.0368-.4372s.0223.0006.0271-.0284c0,0,.0123-.0087.0259.0079,0,0,.0027-.0143-.0064-.0198-.0054-.0033-.0151-.0034-.0321.0046,0,0,.0222-.0144.0192-.0192-.0145-.0007-.0314.0003-.0378.0073-.0108-.0077-.0253-.0181-.0289-.0204-.0036-.0023.0051.0041.0179.0274-.0073-.0115-.0157-.0161-.0237-.0168-.0084-.0007-.0164.0029-.0222.0075,0,0,.0216.0062.0226.0166Z"/>
    <g>
      <path class="cls-1" d="M.6503.2619s.0417.0289.0137.0466-.0551.0126-.0551.0126c0,0,.0614.0441.0334.0545s-.0715.0038-.0558-.0509c0,0-.013.0165-.0286.0258-.0127.0076-.0271.0104-.0378-.0041-.0074-.01-.0097-.0203-.0077-.0289.0033-.0138.018-.0233.0417-.0206.009.001.0194.0038.0309.0089,0,0-.0719-.0003-.0797-.0257-.0067-.022-.0004-.0354.014-.0395.0074-.0021.0169-.0018.0279.0011.0324.0084.0417.048.0417.048,0,0-.0298-.0367-.0237-.0555.002-.0063.008-.0106.0205-.0109.0185-.0005.0292.0056.0343.0145.0086.0152.001.0387-.013.053,0,0,.0204-.0386.0433-.0287Z"/>
      <path class="cls-12" d="M.6505.2615c.0631.0287-.0237.0782-.0398.0572.014.0074.0734.0552.0196.0644-.0343.0172-.0705-.048-.0416-.0566-.0822.0995-.1139-.076-.0024-.0238,0,0,.008.0061.008.0061h-.0093c-.1891-.0006-.0122-.1637.0113-.0014-.1118-.1141.0865-.1102.0124-.0154-.005-.0127.0251-.0387.042-.0305h0ZM.65.2624c-.022-.0102-.0327.0261-.0444.0268.0606-.0685-.0893-.0883-.013-.0027-.0112.0133-.0321-.0724-.0839-.0314-.017.0544.0656.0346.0748.0536-.108-.0485-.0746.1146.01.0064-.0185.0292-.0016.0705.0353.0596.0424-.0026-.0134-.0442-.029-.0569.0348.0044.1062-.0183.0501-.0554h0Z"/>
    </g>
    <g>
      <path class="cls-1" d="M.5613.4047s-.01-.0598-.0738-.0429c0,0-.0068.0582.0738.0429Z"/>
      <path class="cls-12" d="M.5609.4044c-.0094-.0298-.0408-.0532-.0727-.0402.0029.0272.0366.0467.0727.0402h0ZM.5616.405c-.0283.017-.0908-.0026-.0747-.0456.0316-.011.0751.0072.0747.0456h0Z"/>
    </g>
    <g>
      <path class="cls-1" d="M.609.2901c.0092.0018.0218.0128.0056.0287-.0087.0085-.0222.0081-.0386.0067-.0049-.0004-.026-.0044-.0215-.0152.0061-.0146.0167-.018.0266-.0172.0111.0009.0251-.0035.0279-.0029Z"/>
      <path class="cls-12" d="M.6091.2896c.0524.0231-.0389.0573-.0595.0247.0049-.0351.043-.025.0595-.0247h0ZM.6089.2906c-.0223.0076-.0468.0043-.0508.0228.007.0221.0899.0002.0508-.0228h0Z"/>
    </g>
  </g>
  <g>
    <path class="cls-10" d="M.3722.2591s-.0029.0259.0379.0282l.0424.5018.0163-.0006-.0437-.4992s.027-.0037.0269-.0372c0,0,.0131-.0121.0328.0039,0,0,.0003-.0166-.0117-.0211-.0072-.0027-.0189-.0009-.0377.0114,0,0,.0239-.0206.0193-.0253-.0176.002-.0377.0064-.044.0155-.0145-.0066-.0341-.0155-.039-.0174-.0047-.0019.007.0036.027.0273-.0111-.0115-.0221-.0151-.0319-.0143-.0103.0008-.0192.0064-.0253.0127,0,0,.0273.0028.0305.0143Z"/>
    <g>
      <path class="cls-1" d="M.4918.1671s.014.0061.0242.0154.0167.0217.0016.0344c-.0301.0254-.0639.0248-.0639.0248,0,0,.0828.0377.0513.0549-.0168.0091-.0399.0137-.0566.0062-.0147-.0066-.0245-.0224-.0209-.0527,0,0-.0187.0319-.0417.0423-.0109.005-.0227.0051-.034-.0051-.0109-.0099-.0158-.021-.0151-.0311.0016-.0224.0312-.0397.0851-.0273,0,0-.0867.0136-.1011-.0134-.0125-.0234-.0076-.0397.0089-.0471.0085-.0038.02-.0053.0338-.0042.0407.0032.0599.0459.0599.0459,0,0-.0432-.0355-.0397-.0579.0012-.0075.0076-.0135.0225-.0163.0221-.0041.0363.0006.0443.0097.0135.0154.009.0433-.005.0621,0,0,.0168-.0474.0463-.0407Z"/>
      <path class="cls-12" d="M.492.1667c.0778.0376.0093.0609-.0381.0781.0064-.0122.0339.0134.0469.0201.0228.0058.0162.0462-.0091.0375-.0358.022-.0917-.0257-.0617-.0506-.0991.1223-.147-.0761.0128-.0217-.2442.0517-.0878-.1832-.0082-.0034-.153-.1059.0824-.1355.0126-.0177-.006-.0152.0235-.0482.0448-.0423H.492ZM.4917.1676c-.0273-.0073-.0349.0336-.0477.039.0599-.0926-.1261-.0797-.0175-.0002-.0093.014-.0534-.0769-.1076-.0194-.0077.0638.0818.0279.1023.0452-.1343-.0344-.0757.1335.0112.0104-.016.043.0196.0676.0569.0515.0502-.0027-.0229-.0451-.0434-.0525.0421-.0153.1238-.0343.0457-.0741H.4917Z"/>
    </g>
    <g>
      <path class="cls-1" d="M.4133.3451s-.0241-.0654-.0975-.034c0,0,.0036.0669.0975.034Z"/>
      <path class="cls-12" d="M.4129.3449c-.0168-.0375-.0696-.0452-.094-.0338.0073.0427.057.043.094.0338H.4129ZM.4138.3454c-.0298.0235-.1078.0174-.0991-.037.0349-.0176.09-.0085.0991.037H.4138Z"/>
    </g>
    <g>
      <path class="cls-1" d="M.4478.2069c.0114.0002.0289.0101.0125.0312-.0087.0112-.0251.0135-.0452.0151-.006.0005-.0323.0001-.029-.013.0044-.0176.0165-.0235.0286-.0246.0135-.0012.0296-.0088.033-.0087Z"/>
      <path class="cls-12" d="M.4478.2064c.0681.0162-.0362.0698-.0656.0397-.0002-.0416.0456-.0354.0656-.0397H.4478ZM.4477.2074c-.0242.0123-.0563.0126-.0575.0358.0143.0237.1101-.0171.0575-.0358H.4477Z"/>
    </g>
  </g>
  <g class="cls-13">
    <path class="cls-11" d="M.3688.1526c-.0023.0076-.0094.0164-.0243.0191s-.028-.0014-.0295-.0093.0174-.04.0296-.0488c.0087-.0063.0064.0082.0102.01.0043.0021-.0079-.0063-.0025-.0109.0066-.0056.0338-.018.0164.0399Z"/>
    <path class="cls-11" d="M.3956.1694c.0014.0079-.0094.0164-.0243.0191s-.028-.0014-.0295-.0093c-.001-.0053-.001-.0269.0146-.0253.008.0008.0108-.0036.0148-.0065.0174-.0126-.0075-.0141.0078-.0161.0197-.0025.0159.0342.0166.0381Z"/>
    <path class="cls-2" d="M.353.1696c-.0002.008-.0277.0391-.0393.0236-.0073-.0097-.0145-.0223-.0137-.0303s.0101-.0292.0199-.0348c.0006.008.0026.0138.0091.016.0108.0036.0167.0016.0196.0017.0031.0073.0047.0157.0045.0237Z"/>
    <path class="cls-11" d="M.4097.1975c-.0066.0045.0048.0233-.0375.021-.0264-.0015-.0233-.0239-.0226-.0318s.0454-.0385.0605-.0299c.0374.0212.0195.0273-.0004.0407Z"/>
    <path class="cls-11" d="M.3598.2004c-.0008.0079-.0044.0173-.0323.0128-.0149-.0024-.0282-.0192-.0275-.0272s-.0239-.0316-.0097-.0368c.0404-.0147.0702.0432.0695.0511Z"/>
    <path class="cls-8" d="M.4183.1548c.0073.0012.0165.0085.004.0212-.0067.0068-.0253.0037-.0282.0011s-.022.0032-.0186-.0053c.0045-.0115.0129-.0144.0208-.0141.0088.0004.0199-.0033.0221-.0029Z"/>
    <path class="cls-5" d="M.2877.1467c-.0033.0003-.0069.002-.0081.0052-.0012.0032,0,.008.0062.0143.0067.0068.0235.0051.0259.0029s.0204.0045.0166-.0037c-.0051-.011-.013-.0143-.0202-.0145-.008-.0002-.0185-.0044-.0205-.0042Z"/>
    <path class="cls-11" d="M.3254.2165s-.0044.0173.0217.0225l-.0204.3438.0105.001.0193-.3421s.0177,0,.0208-.0228c0,0,.0096-.007.0207.0056,0,0,.0018-.0112-.0055-.0153-.0044-.0025-.012-.0023-.0253.0043,0,0,.0173-.0118.0148-.0154-.0115-.0002-.0249.001-.0298.0065-.0087-.0058-.0205-.0136-.0234-.0153-.0029-.0017.0041.0031.0148.021-.0061-.0088-.0128-.0122-.0192-.0126-.0067-.0004-.0129.0026-.0175.0063,0,0,.0173.0044.0183.0124Z"/>
    <path class="cls-11" d="M.4145.2602s-.0386-.0276-.0652.0174c0,0,.0282.0361.0652-.0174Z"/>
  </g>
  <g class="cls-13">
    <path class="cls-11" d="M.5098.2421c-.0056.0057-.0159.0102-.0304.0058s-.0242-.0142-.0219-.0218.0338-.0275.0488-.0297c.0106-.0016.002.0102.0045.0136.0029.0039-.0041-.0092.0028-.0108.0084-.0019.0383-.0004-.0038.0429Z"/>
    <path class="cls-11" d="M.5258.2693c-.0023.0076-.0159.0102-.0304.0058s-.0242-.0142-.0219-.0218c.0016-.0051.0115-.0244.0246-.0158.0067.0044.0112.0018.0162.001.0213-.0032-.0002-.016.0143-.0107.0187.0069-.0017.0376-.0028.0415Z"/>
    <path class="cls-2" d="M.488.2498c-.0039.007-.0426.022-.0458.0029-.002-.012-.0026-.0265.0018-.0332s.0224-.0212.0336-.0217c-.0032.0074-.0041.0134.0007.0183.0079.0082.0141.0091.0166.0106-.0006.0079-.0031.0161-.0069.0231Z"/>
    <path class="cls-11" d="M.5254.3007c-.0079.0009-.0065.0229-.043.0013-.0228-.0135-.0097-.0319-.0054-.0386s.058-.0132.0675.0014c.0234.0361.0048.0332-.0192.036Z"/>
    <path class="cls-11" d="M.4798.2803c-.0044.0067-.0118.0134-.0345-.0035-.0121-.009-.0162-.0301-.0118-.0368s-.0067-.0391.0083-.0371c.0426.0056.0424.0707.0381.0774Z"/>
    <path class="cls-8" d="M.5527.2668c.006.0044.0108.0151-.0062.0207-.0091.003-.0241-.0084-.0255-.012s-.021-.0073-.0141-.0133c.0093-.0081.0181-.0069.0249-.0029.0076.0044.0191.0062.0209.0076Z"/>
    <path class="cls-5" d="M.4405.1994c-.0031-.0013-.0071-.0014-.0096.0009-.0026.0023-.0037.007-.0011.0156.0028.0091.0185.0154.0217.0145s.0161.0134.0165.0043c.0006-.0121-.0049-.0187-.0112-.0222-.0071-.0039-.0144-.0124-.0162-.0132Z"/>
    <path class="cls-11" d="M.4418.2788s-.0118.0134.0089.03l-.1765.2957.0089.0058.1748-.2947s.0158.0081.029-.0106c0,0,.0117-.0018.0158.0145,0,0,.0068-.0092.0022-.0162-.0028-.0042-.0096-.0076-.0245-.0078,0,0,.0208-.0025.0202-.0068-.0101-.0055-.0225-.0106-.0295-.0079-.0051-.0092-.0119-.0215-.0137-.0244-.0018-.0028.0023.0046.0035.0254-.0013-.0106-.0057-.0168-.0112-.02-.0058-.0034-.0127-.0036-.0184-.0024,0,0,.0134.0118.0105.0195Z"/>
    <path class="cls-11" d="M.5008.3586s-.0215-.0422-.0659-.0146c0,0,.0084.045.0659.0146Z"/>
  </g>
  <g class="cls-13">
    <path class="cls-11" d="M.3746.2243c-.0015.0078-.0078.0173-.0223.0214s-.028.0013-.0302-.0064.0134-.0415.0247-.0515c.0081-.0071.0072.0075.0111.009.0045.0017-.0085-.0055-.0035-.0106.006-.0062.0319-.0212.0202.0381Z"/>
    <path class="cls-11" d="M.4028.2385c.0022.0077-.0078.0173-.0223.0214s-.028.0013-.0302-.0064c-.0015-.0051-.0036-.0267.012-.0266.008,0,.0104-.0046.0141-.0079.0161-.0142-.0089-.0133.0062-.0168.0194-.0044.0191.0325.0202.0363Z"/>
    <path class="cls-2" d="M.3606.2427c.0006.0079-.0238.0417-.0368.0274-.0082-.009-.0166-.0208-.0166-.0288s.0072-.03.0164-.0365c.0014.0079.0039.0135.0106.015.0111.0026.0168,0,.0197-.0002.0038.007.0062.0152.0067.0231Z"/>
    <path class="cls-11" d="M.4197.265c-.0062.0051.0071.0228-.0353.0245-.0265.0011-.0256-.0215-.0256-.0295s.0414-.0427.0573-.0356c.0393.0175.0221.0252.0035.0406Z"/>
    <path class="cls-11" d="M.3703.2727c0,.008-.0026.0176-.0309.0159-.0151-.0009-.03-.0164-.03-.0244s-.0269-.0291-.0133-.0356c.0388-.0185.0741.0361.0741.0441Z"/>
    <path class="cls-8" d="M.424.2217c.0074.0005.0173.0068.006.0207-.006.0074-.0248.0061-.028.0038s-.0216.0053-.0191-.0035c.0034-.0119.0114-.0156.0193-.016.0088-.0004.0195-.0052.0217-.0051Z"/>
    <path class="cls-5" d="M.2932.2263c-.0033.0006-.0067.0027-.0076.006-.0009.0033.0007.0079.0076.0137.0073.0061.0239.0028.0261.0004s.0208.0025.0162-.0053c-.0061-.0105-.0143-.013-.0215-.0125-.008.0006-.0188-.0026-.0208-.0022Z"/>
    <path class="cls-11" d="M.3376.2921s-.0026.0176.0238.0203l.0132.3441h.0106l-.0141-.3424s.0176-.0018.0185-.0247c0,0,.0088-.0079.0212.0035,0,0,.0007-.0114-.007-.0147-.0046-.002-.0122-.0012-.0248.0068,0,0,.0161-.0134.0132-.0168-.0115.0009-.0247.0034-.029.0094-.0093-.0049-.0217-.0115-.0248-.0129-.003-.0014.0044.0026.0168.0194-.0069-.0082-.0139-.0109-.0203-.0107-.0067.0003-.0126.0039-.0168.008,0,0,.0176.0026.0194.0106Z"/>
    <path class="cls-11" d="M.4306.327s-.0411-.0237-.0632.0237c0,0,.0316.0332.0632-.0237Z"/>
  </g>
  <g class="cls-13">
    <path class="cls-7" d="M.4139.2845c-.0026.0085-.0112.0184-.0299.0219s-.0357-.0005-.0379-.009.0202-.0445.0353-.0547c.0108-.0073.0086.0087.0135.0106.0056.0021-.0103-.0066-.0037-.0118.0081-.0064.0422-.0211.0227.043Z"/>
    <path class="cls-7" d="M.4487.3018c.0022.0085-.0112.0184-.0299.0219s-.0357-.0005-.0379-.009c-.0015-.0057-.0026-.0295.0173-.0283.0102.0006.0135-.0044.0185-.0077.0216-.0145-.0102-.0152.0091-.0179.025-.0035.0218.0368.0228.0411Z"/>
    <path class="cls-9" d="M.3947.3036c0,.0087-.0334.044-.0488.0275-.0097-.0103-.0195-.0238-.0188-.0326s.0115-.0324.0236-.0389c.0011.0088.0039.015.0123.0171.0139.0036.0213.001.025.0011.0043.0079.0067.017.0068.0257Z"/>
    <path class="cls-7" d="M.468.3319c-.0082.0052.0072.0254-.0467.0245-.0337-.0006-.0308-.0252-.0302-.0339s.0559-.0439.0755-.0352c.0485.0217.0261.0291.0013.0446Z"/>
    <path class="cls-7" d="M.4047.3371c-.0006.0087-.0047.0191-.0404.0153-.019-.002-.0368-.0199-.0361-.0286s-.0319-.0337-.0141-.0399c.0507-.0177.0913.0445.0907.0532Z"/>
    <path class="cls-4" d="M.4769.2848c.0094.001.0214.0086.0061.0231-.0082.0077-.0319.0051-.0358.0023s-.0278.0044-.0239-.0051c.0052-.0128.0157-.0163.0257-.0162.0112.0001.0251-.0044.0279-.0041Z"/>
    <path class="cls-6" d="M.3105.2812c-.0042.0005-.0087.0025-.0101.006-.0014.0036.0003.0087.0086.0154.0088.0072.0301.0047.0331.0021s.0262.0041.021-.0048c-.007-.0119-.0172-.0152-.0263-.0151-.0102.0001-.0237-.0041-.0262-.0038Z"/>
    <path class="cls-7" d="M.3617.3562s-.0047.0191.0287.0238l-.0099.3773.0134.0007.0086-.3754s.0225-.0008.0254-.0258c0,0,.0118-.0081.0266.0053,0,0,.0018-.0124-.0077-.0166-.0057-.0025-.0154-.0021-.032.0058,0,0,.0215-.0136.0181-.0175-.0146.0002-.0316.002-.0376.0083-.0114-.006-.0267-.014-.0305-.0158-.0037-.0017.0054.0032.0198.0224-.0081-.0094-.0168-.0129-.0249-.013-.0085-.0001-.0163.0034-.0219.0076,0,0,.0222.0041.0238.0129Z"/>
    <path class="cls-7" d="M.477.4005s-.0503-.0287-.082.0217c0,0,.0375.0384.082-.0217Z"/>
  </g>
  <g class="cls-13">
    <path class="cls-11" d="M.2464.2751c.0019.0078.0002.0189-.0112.0288s-.0249.0129-.0301.0069-.0052-.0433.0008-.0571c.0043-.0098.0097.0038.0139.0035.0048-.0004-.01-.0015-.0076-.0081.0029-.0082.0201-.0327.0343.0261Z"/>
    <path class="cls-11" d="M.2779.2761c.0052.006.0002.0189-.0112.0288s-.0249.0129-.0301.0069c-.0035-.004-.0145-.0227-.0003-.0292.0073-.0033.0075-.0085.0095-.0131.0086-.0197-.0137-.0084-.0014-.0178.0158-.0121.031.0215.0336.0245Z"/>
    <path class="cls-2" d="M.2413.2977c.0038.007-.0041.0478-.0219.0403-.0112-.0047-.0238-.0119-.0271-.0192s-.0061-.0303-.0005-.04c.0046.0066.0092.0106.0159.0092.0112-.0023.0152-.0071.0178-.0084.0064.0047.012.0112.0158.0182Z"/>
    <path class="cls-11" d="M.3043.2931c-.0035.0072.016.0177-.0218.0371-.0236.0121-.0322-.0088-.0356-.016s.0197-.0561.0371-.0564c.043-.0006.0306.0136.0202.0354Z"/>
    <path class="cls-11" d="M.2627.3209c.0034.0073.005.0171-.0214.0274-.0141.0055-.0341-.0023-.0374-.0095s-.0366-.0152-.027-.0268c.0275-.0331.0824.0017.0858.009Z"/>
    <path class="cls-8" d="M.2901.252c.0069-.0027.0185-.0011.0142.0163-.0023.0093-.0199.016-.0238.0152s-.0173.0139-.0188.0048c-.0019-.0122.0038-.019.0108-.0226.0078-.0041.0155-.0129.0176-.0137Z"/>
    <path class="cls-5" d="M.1733.3111c-.0027.0019-.005.0052-.0044.0086.0006.0034.004.0069.0126.0092.0092.0025.0228-.0075.0238-.0106s.0199-.0065.0125-.0116c-.01-.0069-.0185-.0058-.0248-.0023-.007.0039-.0182.0056-.0198.0067Z"/>
    <path class="cls-11" d="M.2412.3522s.005.0171.0301.0084l.0927.2188.0096-.0044-.0928-.2168s.0153-.009.0065-.0302c0,0,.0047-.0109.0207-.0057,0,0-.0041-.0106-.0125-.0104-.005,0-.0116.0041-.0197.0166,0,0,.009-.0189.005-.0208-.01.0056-.021.0134-.0224.0207-.0105-.0006-.0245-.0013-.0279-.0013-.0033,0,.0051.0006.0234.0106-.0097-.0045-.0172-.0041-.0229-.0012-.006.0031-.0098.0088-.0118.0143,0,0,.0171-.005.0221.0015Z"/>
    <path class="cls-11" d="M.3402.3448s-.0472-.0043-.0474.048c0,0,.0426.0169.0474-.048Z"/>
  </g>
  <g>
    <path class="cls-1" d="M.2786.3282s.1273.1274.3422.0849l-.0736.4773-.0716-.002s-.0539-.1159-.1066-.2567c-.0372-.0995-.0739-.2114-.0903-.3036Z"/>
    <path class="cls-12" d="M.2783.3275c.0938.0931.2495.0856.3482.0866-.0019.009-.0724.4741-.0741.4825-.0165-.0005-.0609-.0005-.0769-.0013-.0945-.1682-.1484-.3803-.1972-.5678H.2783ZM.279.3288c.051.1895.1388.3931.1969.5527.0043.0025.0856-.0027.0654.0079,0,0,.0739-.4771.0739-.4771-.0777.0482-.26-.0077-.3362-.0835H.279Z"/>
  </g>
  <g>
    <path class="cls-1" d="M.7183.3383s-.1234.176-.1631.1416l-.0796.4086.0816-.002s.2009-.3256.1612-.5481Z"/>
    <path class="cls-12" d="M.7182.339c-.0475.0547-.0832.1564-.1666.1452-.0077.1127-.0466.2889-.076.3984.012-.0015.0706-.0023.0813-.0032.0678-.1439.1832-.3522.1613-.5405h0ZM.7185.3376c.0275.1964-.0592.3977-.1612.5557-.016.0008-.0723.0006-.0888.0009.0395-.1364.0449-.2956.0905-.4186.0596-.0044.113-.0849.1595-.138h0Z"/>
  </g>
  <g>
    <polygon class="cls-1" points=".4776 .8824 .4517 .9875 .597 .9815 .5592 .8803 .4776 .8824"/>
    <path class="cls-12" d="M.4781.8829c-.0107.0271-.0064.1062-.0265.099.0439.0059.1505-.0116.1375-.0021,0,0-.037-.0968-.037-.0968.0315.0121-.0769-.0029-.074-.0001H.4781ZM.4771.8818c.1219-.0146.0755-.0223.126.0973,0,0,.003.0093.003.0093-.0538-.0017-.1077-.0021-.1612.0058.0053-.04.0223-.0767.0321-.1123H.4771Z"/>
  </g>
</svg>