<?xml version="1.0" encoding="UTF-8"?>
<svg id="Capa_1" data-name="Capa 1" xmlns="http://www.w3.org/2000/svg" version="1.1" viewBox="0 0 1 1">
  <defs>
    <style>
      .cls-1 {
        fill: #d54122;
      }

      .cls-1, .cls-2 {
        stroke: #000;
        stroke-miterlimit: 10;
        stroke-width: .01px;
      }

      .cls-2 {
        fill: #000;
      }
    </style>
  </defs>
  <path class="cls-1" d="M.896.535c-.049-.049-.097-.097-.146-.146-.003-.003-.005-.006-.008-.009-.021-.019-.041-.04-.061-.061-.018-.018-.036-.036-.054-.053-.003-.003-.006-.005-.009-.008,0,.005-.005.007-.008.01-.058.059-.117.117-.175.175-.003.003-.005.006-.008.009-.019.019-.038.037-.056.056-.043.043-.087.086-.13.13-.003.003-.006.005-.009.008.002.003.005.006.008.008.047.047.094.094.142.142.003.003.005.005.007.008.006.005.012.01.017.016.033.033.065.065.098.098.003.003.005.005.007.008.004.003.008.007.013.01.017.013.036.018.057.018.028,0,.05-.014.07-.034.038-.038.076-.076.114-.114.003-.003.006-.005.008-.009.01-.01.02-.019.03-.029.032-.032.064-.064.096-.096.023-.023.034-.051.028-.084-.004-.021-.015-.038-.03-.053Z"/>
  <path class="cls-2" d="M.742.38c-.021-.019-.041-.04-.061-.061,0-.007-.001-.015-.003-.022-.028-.146-.166-.244-.313-.22-.118.019-.213.113-.228.238-.009.073.01.14.054.199-.005.005-.01.011-.015.016-.013.011-.02.023-.018.04-.037-.039-.061-.086-.074-.137-.024-.095-.011-.185.043-.267C.183.082.26.032.359.017c.097-.015.186.01.262.072.067.054.106.124.119.209.004.027.006.055.002.083Z"/>
  <path class="cls-1" d="M.159.57c-.002-.017.005-.03.018-.04.006-.005.01-.011.015-.016.003-.002.005-.004.008-.007.102-.102.205-.204.307-.306.002-.002.005-.005.007-.007.013-.011.029-.012.041,0,.022.021.043.043.064.064,0,.005-.005.007-.008.01-.058.059-.117.117-.175.175-.003.003-.005.006-.008.009-.019.019-.038.037-.056.056-.043.043-.087.087-.13.13-.003.003-.006.005-.009.008-.025-.025-.052-.048-.073-.076Z"/>
  <path class="cls-1" d="M.389.804c.006.005.011.01.017.016.033.032.065.065.098.098.003.003.005.006.007.008-.083,0-.165,0-.248,0-.022,0-.045,0-.067,0,0-.04,0-.081,0-.121.064,0,.128,0,.193,0Z"/>
  <path class="cls-1" d="M.196.805c0,.04,0,.081,0,.121-.025.018-.049.037-.074.055-.009.007-.019.008-.029.003-.011-.005-.017-.014-.018-.026,0-.009,0-.018,0-.026,0-.021,0-.042,0-.063,0-.021,0-.042,0-.063,0-.008,0-.016,0-.024-.001-.018.006-.031.023-.038.011-.002.021.002.03.009.023.018.046.035.069.052Z"/>
</svg>