<?xml version="1.0" encoding="UTF-8"?>
<svg id="Layer_1" data-name="Layer 1" xmlns="http://www.w3.org/2000/svg" version="1.1" viewBox="0 0 1 1">
  <defs>
    <style>
      .cls-1, .cls-2 {
        fill: #e92e00;
      }

      .cls-1, .cls-3 {
        stroke-width: 0px;
      }

      .cls-2 {
        stroke: #000;
        stroke-miterlimit: 10;
        stroke-width: .01px;
      }

      .cls-3 {
        fill: #000;
      }
    </style>
  </defs>
  <g>
    <path class="cls-1" d="M.3871.9942l-.0295-.0173.0017-.0693-.137-.0626v.0575l-.0254-.0152s-.0085-.6934-.0085-.6883.1795.0547.1795.0547l.0184-.004s-.0035.7381.0008.7445Z"/>
    <path class="cls-3" d="M.3871.9942s-.0298-.0169-.0297-.0174c0,0,.0013-.0691.0013-.0691.0014.0014-.1371-.0618-.1369-.0614.0042-.007.0009.057.002.0562-.0018.0054-.0282-.0147-.0287-.0152-.0021-.1446-.0091-.5169-.0113-.6567.0333-.0674.1448.0353.2015.0155.0133-.0094-.0026.7453.0017.7482H.3871ZM.3871.9942c-.0094.0007.0147-.8-.0182-.7367-.0537-.0008-.1861-.0875-.175-.0272.0008.1382.0039.5137.0048.6568-.006-.004.0323.0157.022.0152.0013-.0008-.0024-.0602.0022-.0585.0006.0003.1369.0628.1369.0638,0,0-.002.0691-.002.0691,0,0,.0294.0174.0294.0174H.3871Z"/>
  </g>
  <g>
    <g>
      <path class="cls-1" d="M.3892.9871c-.004.0014.0005-.7731.0005-.7731L.9394.0649l-.0115.7311-.0265.0091.0009-.0597-.4902.165v.0703s-.0191.0051-.0228.0064h0Z"/>
      <path class="cls-3" d="M.3847.9895c-.001-.258-.0223-.5299.0004-.781L.9347.0614c.0131-.0079-.0073.7294-.0031.7332v.0089c-.0105.0036-.0329.0112-.0433.0149-.0013-.0023.0017-.0639.0009-.0686l.0082.0061c.001-.0036-.499.1663-.4879.1553-.0045.0629.0128.0733-.025.0783h.0001ZM.3847.9877c-.0002.0007.0271-.0099.0216-.0051l-.0009-.0698c-.0001-.0067.4904-.1719.4923-.1748.0071-.0027.0098-.0054.0084.0063-.0042.0033.0079.0802-.009.0535l.0264-.009-.0083.0116c.0022.003.0088-.753.0194-.7293L.3852.2219c.0159-.0437-.0051.7753-.0005.7657h0Z"/>
    </g>
    <g>
      <polygon class="cls-1" points=".3668 .2534 .9527 .0886 .9532 .0571 .3695 .2152 .3668 .2534"/>
      <path class="cls-3" d="M.3659.2536c-.0027.005.6075-.184.5821-.1639.0008-.0022-.0049-.0438.005-.0272-.192.0555-.3981.1173-.5816.1522,0,.0136-.007.0278-.0055.0389h0ZM.3677.2531c.0045-.0152-.0052-.028.0018-.0402.1965-.0622.3929-.1152.5892-.1628-.0001.0071-.0014.0349-.0016.0421-.0032.001-.5856.1597-.5894.1609h0Z"/>
    </g>
    <path class="cls-3" d="M.4121.2636l.4931-.1433c.0104.1757-.0018.4137-.0088.5982-.0126.0024-.482.1658-.4944.1686-.0025-.0085.0118-.614.0101-.6235h0ZM.4104.2648c0,.1905.0276.4421.0002.6007l.4859-.1581c-.0015-.1549-.0068-.4205.0084-.5723l-.4945.1297h0Z"/>
    <path class="cls-3" d="M.6557.1833c.0081.203.0065.4088-.0048.6178-.0081-.2028-.0065-.409.0048-.6178,0,0-.0113.2088,0,0Z"/>
    <path class="cls-3" d="M.9075.6266c-.0857.0293-.1716.0739-.2571.0835.0803-.0476.1769-.0624.2571-.0835h0Z"/>
    <path class="cls-3" d="M.8965.5425c-.0808.0295-.1683.0697-.2455.0758.0809-.037.1681-.0621.2455-.0758h0Z"/>
    <path class="cls-3" d="M.6518.5225c.082-.0266.1643-.0684.2461-.0756-.0767.0449-.1697.0572-.2461.0756h0Z"/>
    <path class="cls-3" d="M.8994.3469c-.0812.0281-.1692.0668-.2468.0715.0813-.0356.169-.0592.2468-.0715h0Z"/>
    <g>
      <path class="cls-1" d="M.6119.5049c.0094-.0028.0169.0031.0168.0133s-.0077.0208-.0171.0236-.0169-.0031-.0168-.0133.0077-.0208.0171-.0236Z"/>
      <path class="cls-3" d="M.6288.5182c.0041.0197-.0341.0435-.0413.0148.0024-.036.0465-.0389.0413-.0148,0,0,.0051-.0241,0,0ZM.6288.5182c-.0047-.0211-.0321.0003-.0263.0087-.0044.0121.0221.0137.0263-.0087,0,0-.0042.0224,0,0Z"/>
    </g>
  </g>
  <path class="cls-2" d="M.3698.2139s-.2055-.0659-.2068-.0607c-.0017.0068.0068.0389.0068.0389l.1981.0615.0019-.0397Z"/>
  <path class="cls-2" d="M.3698.2139s-.2055-.0659-.2068-.0607c-.0017.0068.597-.1285.597-.1285l.2012.0287L.3698.2139Z"/>
  <polygon class="cls-2" points=".2222 .9024 .2527 .8974 .2476 .8585 .2222 .8449 .2222 .9024"/>
  <polygon class="cls-2" points=".8699 .8077 .9021 .8128 .8936 .7519 .8716 .7604 .8699 .8077"/>
</svg>