<?xml version="1.0" encoding="UTF-8"?>
<svg id="Capa_1" data-name="Capa 1" xmlns="http://www.w3.org/2000/svg" version="1.1" viewBox="0 0 1 1">
  <defs>
    <style>
      .cls-1 {
        fill: #686868;
      }

      .cls-1, .cls-2, .cls-3, .cls-4 {
        stroke-width: 0px;
      }

      .cls-5 {
        fill: none;
        stroke: #000;
        stroke-miterlimit: 10;
        stroke-width: .01px;
      }

      .cls-2 {
        fill: #999;
      }

      .cls-3 {
        fill: #848484;
      }

      .cls-4 {
        fill: #fefefe;
      }
    </style>
  </defs>
  <g>
    <path class="cls-2" d="M.263.073c.054-.012.108-.024.162-.036.003,0,.006,0,.009,0,.044,0,.088,0,.131,0,.02,0,.039.007.058.011.038.008.076.016.113.025.003.003.002.008.002.012-.002.014-.004.028-.006.042-.001.008-.006.014-.012.02-.01.011-.021.021-.032.032-.007.007-.006.008.003.011.007.002.014.003.02.004.006.002.009.005.008.011-.007.043-.009.087-.028.128-.018.04-.043.075-.07.109-.023.028-.048.055-.075.081-.009.008-.013.018-.013.03,0,.12,0,.239,0,.359,0,.002,0,.003,0,.005,0,.01,0,.011.011.011.063,0,.126,0,.189,0,.004,0,.009,0,.013-.002.009-.003.013-.007.014-.017,0-.003,0-.005,0-.008,0-.067,0-.135,0-.202,0-.014,0-.014-.014-.014-.024,0-.049,0-.073,0-.005,0-.011,0-.016-.003-.006-.003-.01-.009-.009-.016.001-.007.006-.012.013-.013.004,0,.007,0,.011,0,.023,0,.047,0,.07,0q.017,0,.017-.018c0-.057,0-.115,0-.172,0-.034.003-.068.005-.101,0-.014.001-.028.002-.041.002-.043.005-.086.006-.129.001-.033.003-.065.005-.098,0-.003,0-.006.003-.009.012.001.024.004.036.008.003.003.003.007.003.011-.003.047-.005.093-.007.14-.002.049-.005.098-.008.146-.002.046-.006.092-.006.139,0,.01.003.016.013.021.035.015.07.031.105.046.004.002.009.002.009.008-.01.028-.021.056-.031.084-.032.085-.064.17-.096.254-.008.021-.01.022-.032.022-.179,0-.358,0-.537,0-.024,0-.026-.001-.034-.023-.042-.11-.084-.22-.125-.331,0-.002-.001-.005-.002-.007,0-.004.003-.005.006-.006.037-.017.075-.033.112-.05.004-.002.009-.005.014,0,.002.004.001.009.001.014,0,.026,0,.052,0,.078,0,.013,0,.013.013.013.036,0,.071,0,.107,0,.004,0,.009,0,.013,0,.007.002.011.006.012.013.001.007-.002.012-.008.016-.005.003-.011.003-.017.003-.036,0-.071,0-.107,0-.013,0-.014,0-.014.014,0,.072,0,.143,0,.215,0,.014,0,.014.014.014.088,0,.177,0,.265,0,.013,0,.014,0,.014-.014,0-.11,0-.221,0-.331,0-.01-.003-.016-.01-.023-.037-.039-.076-.076-.11-.118-.033-.04-.062-.082-.078-.132-.009-.027-.011-.055-.016-.082-.001-.006-.002-.012-.003-.018-.001-.011,0-.013.01-.015.007-.002.013-.003.02-.004.006-.001.007-.004.002-.008-.009-.009-.018-.018-.027-.027-.012-.011-.02-.024-.02-.041,0-.01-.003-.019-.004-.029,0-.004,0-.008.002-.011Z"/>
    <path class="cls-3" d="M.263.073c.003.019.004.038.008.057.001.006.007.011.012.016.012.012.023.024.035.035.006.006.003.008-.003.009-.009.002-.019.004-.028.006-.005,0-.006.003-.005.007.006.031.008.062.016.092.009.038.028.071.05.102.032.045.07.085.108.124.013.013.026.027.039.041.003.003.004.006.004.011,0,.116,0,.232,0,.348,0,.006-.002.008-.008.008-.094,0-.189,0-.283,0-.006,0-.008-.002-.008-.008,0-.077,0-.155,0-.232,0-.007.003-.008.009-.008.04,0,.08,0,.12,0,.008,0,.015-.002.017-.011.002-.009-.004-.015-.015-.015-.04,0-.08,0-.119,0q-.012,0-.012-.012c0-.032,0-.065,0-.097-.003-.004-.003-.008-.003-.012.001-.042-.002-.083-.004-.125-.003-.053-.006-.106-.009-.159-.002-.03-.003-.061-.005-.091,0-.017,0-.035-.003-.053,0-.005-.001-.01.003-.014.023-.005.046-.01.068-.015.005-.001.01-.002.015-.003Z"/>
    <path class="cls-3" d="M.784.084c-.002.044-.003.087-.006.131-.001.023-.002.046-.004.069-.002.037-.003.074-.006.11-.003.037-.003.074-.003.111,0,.046,0,.091,0,.137q0,.012-.013.012c-.028,0-.056,0-.084,0-.011,0-.016.004-.016.012,0,.008.006.014.016.014.029,0,.058,0,.087,0,.007,0,.009.002.009.009,0,.073,0,.146,0,.218,0,.011-.005.017-.015.019-.004,0-.008.002-.012.002-.065,0-.131,0-.196,0-.007,0-.01-.002-.01-.01,0-.126,0-.252,0-.378,0-.007.003-.012.007-.017.019-.02.039-.039.057-.06.033-.038.064-.077.087-.122.015-.031.023-.063.027-.097.002-.014.004-.028.007-.042.001-.007,0-.008-.006-.009-.009-.002-.019-.005-.028-.006-.007-.001-.006-.004-.002-.007.011-.011.022-.022.033-.033.009-.008.016-.017.017-.03,0-.015.004-.031.006-.046.016.004.031.007.047.011Z"/>
    <path class="cls-3" d="M.929.602c-.017-.01-.036-.016-.054-.024-.023-.011-.046-.02-.07-.031-.005-.002-.007-.005-.007-.011,0-.034,0-.067.002-.1.001-.023.003-.047.004-.07.002-.037.004-.074.006-.11.001-.024.003-.049.004-.073.001-.03.004-.06.005-.091.04.009.068.042.073.082.005.035.01.07.016.105.007.044.014.089.02.133.006.037.011.074.017.111.004.021-.002.041-.01.06-.003.006-.005.013-.008.019Z"/>
    <path class="cls-3" d="M.18.092c.002.041.003.081.006.122.001.023.003.047.004.07.002.037.004.074.006.11.001.024.002.048.004.072.002.027,0,.053.001.08-.012.002-.022.008-.033.013-.032.014-.065.029-.097.043-.009-.023-.021-.046-.018-.073.002-.022.007-.043.01-.065.007-.044.013-.087.02-.131.006-.042.013-.085.02-.127.002-.014.004-.028.007-.042.009-.039.033-.064.071-.074Z"/>
    <path class="cls-1" d="M.566.092c-.003.021-.005.043-.008.064-.004.029-.008.057-.012.086-.004.029-.008.059-.012.088-.003.024-.007.048-.01.072-.004.029-.008.059-.012.088-.003.021-.006.043-.009.067-.005-.012-.005-.022-.006-.032-.006-.039-.011-.078-.017-.117-.005-.038-.01-.076-.015-.114-.005-.038-.011-.076-.016-.114-.004-.029-.008-.059-.011-.088.003-.003.008-.003.012-.003.036,0,.071,0,.107,0,.004,0,.009,0,.012.003Z"/>
    <path class="cls-1" d="M.566.092c-.044,0-.088,0-.131,0-.003-.016-.005-.031-.008-.047,0-.006.003-.006.007-.006.011,0,.023,0,.034,0,.032,0,.064,0,.097,0,.007,0,.01.002.008.01-.003.014-.005.029-.007.043Z"/>
    <path class="cls-4" d="M.414.744c0-.012.011-.023.023-.023.011,0,.021.011.021.023,0,.013-.01.022-.022.022-.011,0-.021-.011-.021-.022Z"/>
    <path class="cls-4" d="M.436.617c.013,0,.021.009.021.021,0,.013-.01.023-.022.022-.012,0-.022-.01-.022-.022,0-.013.009-.021.022-.021Z"/>
  </g>
  <g>
    <path class="cls-5" d="M.263.072c.054-.012.108-.024.162-.036.003,0,.006,0,.009,0,.044,0,.088,0,.131,0,.02,0,.039.007.058.011.038.008.076.016.113.025.003.003.002.008.002.012-.002.014-.004.028-.006.042-.001.008-.006.014-.012.02-.01.011-.021.021-.032.032-.007.007-.006.008.003.011.007.002.014.003.02.004.006.002.009.005.008.011-.007.043-.009.087-.028.128-.018.04-.043.075-.07.109-.023.028-.048.055-.075.081-.009.008-.013.018-.013.03,0,.12,0,.239,0,.359,0,.002,0,.003,0,.005,0,.01,0,.011.011.011.063,0,.126,0,.189,0,.004,0,.009,0,.013-.002.009-.003.013-.007.014-.017,0-.003,0-.005,0-.008,0-.067,0-.135,0-.202,0-.014,0-.014-.014-.014-.024,0-.049,0-.073,0-.005,0-.011,0-.016-.003-.006-.003-.01-.009-.009-.016.001-.007.006-.012.013-.013.004,0,.007,0,.011,0,.023,0,.047,0,.07,0q.017,0,.017-.018c0-.057,0-.115,0-.172,0-.034.003-.068.005-.101,0-.014.001-.028.002-.041.002-.043.005-.086.006-.129.001-.033.003-.065.005-.098,0-.003,0-.006.003-.009.012.001.024.004.036.008.003.003.003.007.003.011-.003.047-.005.093-.007.14-.002.049-.005.098-.008.146-.002.046-.006.092-.006.139,0,.01.003.016.013.021.035.015.07.031.105.046.004.002.009.002.009.008-.01.028-.021.056-.031.084-.032.085-.064.17-.096.254-.008.021-.01.022-.032.022-.179,0-.358,0-.537,0-.024,0-.026-.001-.034-.023-.042-.11-.084-.22-.125-.331,0-.002-.001-.005-.002-.007,0-.004.003-.005.006-.006.037-.017.075-.033.112-.05.004-.002.009-.005.014,0,.002.004.001.009.001.014,0,.026,0,.052,0,.078,0,.013,0,.013.013.013.036,0,.071,0,.107,0,.004,0,.009,0,.013,0,.007.002.011.006.012.013.001.007-.002.012-.008.016-.005.003-.011.003-.017.003-.036,0-.071,0-.107,0-.013,0-.014,0-.014.014,0,.072,0,.143,0,.215,0,.014,0,.014.014.014.088,0,.177,0,.265,0,.013,0,.014,0,.014-.014,0-.11,0-.221,0-.331,0-.01-.003-.016-.01-.023-.037-.039-.076-.076-.11-.118-.033-.04-.062-.082-.078-.132-.009-.027-.011-.055-.016-.082-.001-.006-.002-.012-.003-.018-.001-.011,0-.013.01-.015.007-.002.013-.003.02-.004.006-.001.007-.004.002-.008-.009-.009-.018-.018-.027-.027-.012-.011-.02-.024-.02-.041,0-.01-.003-.019-.004-.029,0-.004,0-.008.002-.011Z"/>
    <path class="cls-5" d="M.263.072c.003.019.004.038.008.057.001.006.007.011.012.016.012.012.023.024.035.035.006.006.003.008-.003.009-.009.002-.019.004-.028.006-.005,0-.006.003-.005.007.006.031.008.062.016.092.009.038.028.071.05.102.032.045.07.085.108.124.013.013.026.027.039.041.003.003.004.006.004.011,0,.116,0,.232,0,.348,0,.006-.002.008-.008.008-.094,0-.189,0-.283,0-.006,0-.008-.002-.008-.008,0-.077,0-.155,0-.232,0-.007.003-.008.009-.008.04,0,.08,0,.12,0,.008,0,.015-.002.017-.011.002-.009-.004-.015-.015-.015-.04,0-.08,0-.119,0q-.012,0-.012-.012c0-.032,0-.065,0-.097-.003-.004-.003-.008-.003-.012.001-.042-.002-.083-.004-.125-.003-.053-.006-.106-.009-.159-.002-.03-.003-.061-.005-.091,0-.017,0-.035-.003-.053,0-.005-.001-.01.003-.014.023-.005.046-.01.068-.015.005-.001.01-.002.015-.003Z"/>
    <path class="cls-5" d="M.784.083c-.002.044-.003.087-.006.131-.001.023-.002.046-.004.069-.002.037-.003.074-.006.11-.003.037-.003.074-.003.111,0,.046,0,.091,0,.137q0,.012-.013.012c-.028,0-.056,0-.084,0-.011,0-.016.004-.016.012,0,.008.006.014.016.014.029,0,.058,0,.087,0,.007,0,.009.002.009.009,0,.073,0,.146,0,.218,0,.011-.005.017-.015.019-.004,0-.008.002-.012.002-.065,0-.131,0-.196,0-.007,0-.01-.002-.01-.01,0-.126,0-.252,0-.378,0-.007.003-.012.007-.017.019-.02.039-.039.057-.06.033-.038.064-.077.087-.122.015-.031.023-.063.027-.097.002-.014.004-.028.007-.042.001-.007,0-.008-.006-.009-.009-.002-.019-.005-.028-.006-.007-.001-.006-.004-.002-.007.011-.011.022-.022.033-.033.009-.008.016-.017.017-.03,0-.015.004-.031.006-.046.016.004.031.007.047.011Z"/>
    <path class="cls-5" d="M.929.601c-.017-.01-.036-.016-.054-.024-.023-.011-.046-.02-.07-.031-.005-.002-.007-.005-.007-.011,0-.034,0-.067.002-.1.001-.023.003-.047.004-.07.002-.037.004-.074.006-.11.001-.024.003-.049.004-.073.001-.03.004-.06.005-.091.04.009.068.042.073.082.005.035.01.07.016.105.007.044.014.089.02.133.006.037.011.074.017.111.004.021-.002.041-.01.06-.003.006-.005.013-.008.019Z"/>
    <path class="cls-5" d="M.18.09c.002.041.003.081.006.122.001.023.003.047.004.07.002.037.004.074.006.11.001.024.002.048.004.072.002.027,0,.053.001.08-.012.002-.022.008-.033.013-.032.014-.065.029-.097.043-.009-.023-.021-.046-.018-.073.002-.022.007-.043.01-.065.007-.044.013-.087.02-.131.006-.042.013-.085.02-.127.002-.014.004-.028.007-.042.009-.039.033-.064.071-.074Z"/>
    <path class="cls-5" d="M.566.09c-.003.021-.005.043-.008.064-.004.029-.008.057-.012.086-.004.029-.008.059-.012.088-.003.024-.007.048-.01.072-.004.029-.008.059-.012.088-.003.021-.006.043-.009.067-.005-.012-.005-.022-.006-.032-.006-.039-.011-.078-.017-.117-.005-.038-.01-.076-.015-.114-.005-.038-.011-.076-.016-.114-.004-.029-.008-.059-.011-.088.003-.003.008-.003.012-.003.036,0,.071,0,.107,0,.004,0,.009,0,.012.003Z"/>
    <path class="cls-5" d="M.566.09c-.044,0-.088,0-.131,0-.003-.016-.005-.031-.008-.047,0-.006.003-.006.007-.006.011,0,.023,0,.034,0,.032,0,.064,0,.097,0,.007,0,.01.002.008.01-.003.014-.005.029-.007.043Z"/>
    <path class="cls-5" d="M.414.742c0-.012.011-.023.023-.023.011,0,.021.011.021.023,0,.013-.01.022-.022.022-.011,0-.021-.011-.021-.022Z"/>
    <path class="cls-5" d="M.436.615c.013,0,.021.009.021.021,0,.013-.01.023-.022.022-.012,0-.022-.01-.022-.022,0-.013.009-.021.022-.021Z"/>
  </g>
</svg>