<?xml version="1.0" encoding="UTF-8"?>
<svg id="Capa_1" data-name="Capa 1" xmlns="http://www.w3.org/2000/svg" version="1.1" viewBox="0 0 1 1">
  <defs>
    <style>
      .cls-1 {
        fill: #241330;
      }

      .cls-1, .cls-2 {
        stroke-width: 0px;
      }

      .cls-3 {
        fill: none;
        stroke: #000;
        stroke-miterlimit: 10;
        stroke-width: .01px;
      }

      .cls-2 {
        fill: #2a1a38;
      }
    </style>
  </defs>
  <g>
    <path class="cls-2" d="M.409.341c0,.013,0,.025,0,.038,0,.016-.007.023-.022.023-.007,0-.008.003-.008.009,0,.024,0,.049,0,.073,0,.003,0,.006-.002.009-.009.004-.017.004-.026,0-.003-.003-.002-.006-.002-.009,0-.025,0-.05,0-.074,0-.006-.002-.008-.008-.008-.017,0-.023-.007-.023-.024,0-.01,0-.02,0-.031,0-.005-.002-.006-.006-.006-.012,0-.024,0-.037,0,.007-.045.021-.087.043-.126.018-.034.041-.063.071-.087.043-.033.091-.048.145-.043.077.007.13.051.169.114.027.044.043.091.052.142-.021,0-.041,0-.062,0-.004-.003-.004-.008-.005-.012-.01-.042-.025-.081-.051-.116-.024-.033-.055-.057-.097-.063-.054-.008-.099.008-.135.049-.029.033-.045.071-.058.112-.002.007-.004.013-.005.02-.001.006,0,.008.007.008.017,0,.034,0,.05,0,.004,0,.008,0,.01.003Z"/>
    <path class="cls-2" d="M.213.341c.001.031-.001.062-.002.093,0,.031-.003.061-.007.092-.006.053-.014.105-.027.157-.013.052-.029.102-.053.15-.012.023-.025.046-.044.064-.001.001-.003.002-.004.003-.009-.018-.01-.037-.012-.056-.006-.052.004-.103.013-.153.009-.051.018-.102.026-.154.009-.051.018-.102.026-.154.002-.012.004-.024.006-.036,0-.004.002-.007.007-.007.023,0,.047,0,.07,0Z"/>
    <path class="cls-2" d="M.924.9c-.018-.015-.029-.035-.041-.054-.03-.052-.048-.109-.062-.167-.009-.038-.016-.076-.021-.115-.004-.03-.007-.06-.009-.09-.001-.025-.002-.049-.004-.074-.001-.02,0-.039-.001-.059.023,0,.047,0,.07,0,.004,0,.006.002.007.006.01.06.021.121.031.181.01.058.02.115.03.173.007.04.015.081.013.122-.002.025-.003.049-.012.073,0,.002-.001.003-.002.005Z"/>
    <path class="cls-1" d="M.377.493c-.009,0-.017,0-.026,0,0,0-.002,0-.002.001.001,0,.004-.001.004-.003,0-.026,0-.051,0-.077,0-.012,0-.013-.013-.015-.013-.002-.018-.007-.018-.021,0-.01,0-.02,0-.03,0-.007-.003-.01-.01-.011-.005,0-.01,0-.015,0-.007,0-.014-.002-.02.003h-.063s-.002.006-.002.009c0,.017,0,.035-.001.052-.001.049-.005.098-.01.146-.009.079-.025.156-.053.23-.016.042-.036.082-.066.116-.002.002-.003.004-.003.006.004.011.011.016.023.016.267,0,.534,0,.801,0,.012,0,.019-.005.023-.016,0-.003-.002-.005-.004-.007-.018-.02-.032-.043-.044-.067-.026-.052-.042-.106-.055-.162-.015-.067-.023-.135-.027-.203-.002-.037-.004-.073-.004-.11,0-.004,0-.007-.002-.01-.011,0-.022,0-.033,0-.002-.002-.005-.003-.009-.003-.018,0-.035,0-.053,0-.003,0-.006,0-.009,0-.087,0-.174,0-.261,0-.004,0-.009,0-.013.002-.003.003-.003.007-.003.011,0,.009,0,.018,0,.026,0,.014-.005.019-.019.022-.011.002-.012.003-.012.014,0,.026,0,.052,0,.078,0,.005.005.006.008.007"/>
  </g>
  <g>
    <path class="cls-3" d="M.409.341c0,.013,0,.025,0,.038,0,.016-.007.023-.022.023-.007,0-.008.003-.008.009,0,.024,0,.049,0,.073,0,.003,0,.006-.002.009-.009.004-.017.004-.026,0-.003-.003-.002-.006-.002-.009,0-.025,0-.05,0-.074,0-.006-.002-.008-.008-.008-.017,0-.023-.007-.023-.024,0-.01,0-.02,0-.031,0-.005-.002-.006-.006-.006-.012,0-.024,0-.037,0,.007-.045.021-.087.043-.126.018-.034.041-.063.071-.087.043-.033.091-.048.145-.043.077.007.13.051.169.114.027.044.043.091.052.142-.021,0-.041,0-.062,0-.004-.003-.004-.008-.005-.012-.01-.042-.025-.081-.051-.116-.024-.033-.055-.057-.097-.063-.054-.008-.099.008-.135.049-.029.033-.045.071-.058.112-.002.007-.004.013-.005.02-.001.006,0,.008.007.008.017,0,.034,0,.05,0,.004,0,.008,0,.01.003Z"/>
    <path class="cls-3" d="M.213.341c.001.031-.001.062-.002.093,0,.031-.003.061-.007.092-.006.053-.014.105-.027.157-.013.052-.029.102-.053.15-.012.023-.025.046-.044.064-.001.001-.003.002-.004.003-.009-.018-.01-.037-.012-.056-.006-.052.004-.103.013-.153.009-.051.018-.102.026-.154.009-.051.018-.102.026-.154.002-.012.004-.024.006-.036,0-.004.002-.007.007-.007.023,0,.047,0,.07,0Z"/>
    <path class="cls-3" d="M.924.9c-.018-.015-.029-.035-.041-.054-.03-.052-.048-.109-.062-.167-.009-.038-.016-.076-.021-.115-.004-.03-.007-.06-.009-.09-.001-.025-.002-.049-.004-.074-.001-.02,0-.039-.001-.059.023,0,.047,0,.07,0,.004,0,.006.002.007.006.01.06.021.121.031.181.01.058.02.115.03.173.007.04.015.081.013.122-.002.025-.003.049-.012.073,0,.002-.001.003-.002.005Z"/>
    <path class="cls-3" d="M.377.493c-.009,0-.017,0-.026,0,0,0-.002,0-.002.001.001,0,.004-.001.004-.003,0-.026,0-.051,0-.077,0-.012,0-.013-.013-.015-.013-.002-.018-.007-.018-.021,0-.01,0-.02,0-.03,0-.007-.003-.01-.01-.011-.005,0-.01,0-.015,0-.007,0-.014-.002-.02.003h-.063s-.002.006-.002.009c0,.017,0,.035-.001.052-.001.049-.005.098-.01.146-.009.079-.025.156-.053.23-.016.042-.036.082-.066.116-.002.002-.003.004-.003.006.004.011.011.016.023.016.267,0,.534,0,.801,0,.012,0,.019-.005.023-.016,0-.003-.002-.005-.004-.007-.018-.02-.032-.043-.044-.067-.026-.052-.042-.106-.055-.162-.015-.067-.023-.135-.027-.203-.002-.037-.004-.073-.004-.11,0-.004,0-.007-.002-.01-.011,0-.022,0-.033,0-.002-.002-.005-.003-.009-.003-.018,0-.035,0-.053,0-.003,0-.006,0-.009,0-.087,0-.174,0-.261,0-.004,0-.009,0-.013.002-.003.003-.003.007-.003.011,0,.009,0,.018,0,.026,0,.014-.005.019-.019.022-.011.002-.012.003-.012.014,0,.026,0,.052,0,.078,0,.005.005.006.008.007"/>
  </g>
</svg>