<?xml version="1.0" encoding="UTF-8"?>
<svg id="Capa_1" data-name="Capa 1" xmlns="http://www.w3.org/2000/svg" version="1.1" viewBox="0 0 1 1">
  <defs>
    <style>
      .cls-1 {
        fill: #a9e3f8;
      }

      .cls-1, .cls-2, .cls-3, .cls-4, .cls-5, .cls-6 {
        stroke-width: 0px;
      }

      .cls-2 {
        fill: #5a5a5a;
      }

      .cls-7 {
        fill: none;
        stroke: #000;
        stroke-miterlimit: 10;
        stroke-width: .01px;
      }

      .cls-3 {
        fill: #9b9b9b;
      }

      .cls-4 {
        fill: #f6f6f6;
      }

      .cls-5 {
        fill: #444;
      }

      .cls-6 {
        fill: #828282;
      }
    </style>
  </defs>
  <g>
    <path class="cls-2" d="M.874.872c-.006,0-.011,0-.017,0-.254,0-.509,0-.763,0-.035,0-.054-.019-.054-.054,0-.02,0-.04,0-.059.018,0,.036,0,.054,0,.017.003.035.004.051-.002.022-.008.031-.024.031-.051,0-.094,0-.188,0-.282,0-.007,0-.014-.003-.02-.004-.015-.016-.03-.038-.033-.014-.001-.028-.003-.042,0h-.054c0-.023,0-.046,0-.068,0-.024.022-.044.046-.045.009,0,.018,0,.027,0,.027,0,.054,0,.082,0,.015,0,.03,0,.045,0,.019,0,.037,0,.056,0,.017,0,.034,0,.052,0,.002,0,.004,0,.005,0,.086,0,.172,0,.258,0,.015,0,.03,0,.045,0,.07,0,.14,0,.21,0,.003,0,.006,0,.009,0,0,.003.002.003.004.004.018.009.028.023.028.044,0,.168,0,.335,0,.503,0,.003,0,.007,0,.01.002.019-.005.033-.02.044-.004.003-.01.004-.013.009ZM.68.743c.01.006.021.013.031.019.019.012.042.008.054-.01.012-.018.007-.042-.012-.055-.009-.006-.019-.013-.028-.019,0-.001,0-.003.001-.004.02-.044.028-.091.022-.14-.004-.031-.013-.06-.027-.087-.017-.031-.039-.058-.067-.079-.062-.048-.132-.063-.208-.047-.056.012-.103.041-.139.086-.049.06-.066.13-.052.206.013.07.051.125.111.163.05.032.106.045.165.038.045-.005.085-.022.121-.05.009-.007.017-.017.028-.022ZM.267.305c-.017,0-.029.012-.029.029,0,.016.014.03.029.03.015,0,.03-.015.03-.03,0-.017-.013-.029-.03-.029Z"/>
    <path class="cls-3" d="M.04.372c.018,0,.036,0,.054,0,.002.002.005.002.007.004.018.008.027.023.027.042,0,.099,0,.198,0,.296,0,.014-.006.026-.016.036-.005.005-.012.006-.018.01-.018,0-.036,0-.054,0,0-.002,0-.005,0-.007,0-.124,0-.249,0-.373,0-.002,0-.005,0-.007Z"/>
    <path class="cls-5" d="M.874.872c.003-.005.009-.005.013-.009.015-.011.022-.026.02-.044,0-.003,0-.007,0-.01,0-.168,0-.335,0-.503,0-.021-.01-.035-.028-.044-.002,0-.004-.001-.004-.004.012,0,.024,0,.036,0,.03,0,.05.02.05.05,0,.141,0,.281,0,.422,0,.03-.001.06,0,.09.001.028-.022.054-.052.052-.011,0-.023,0-.034,0Z"/>
    <path class="cls-3" d="M.609.259c-.086,0-.172,0-.258,0-.002,0-.004,0-.005,0,.005-.03.012-.06.018-.091.003-.014.007-.026.02-.034.006-.004.013-.007.02-.007.052,0,.104,0,.156,0,.015.008.027.019.03.036.003.018.008.037.011.055.002.013.007.026.007.039ZM.501.169c-.017,0-.035,0-.052,0-.009,0-.013.004-.014.013,0,.009,0,.017,0,.026,0,.009.004.013.013.013.034,0,.068,0,.102,0,.009,0,.013-.004.014-.014,0-.008,0-.016,0-.024,0-.01-.004-.014-.014-.014-.016,0-.033,0-.049,0Z"/>
    <path class="cls-6" d="M.609.259c0-.014-.005-.026-.007-.039-.003-.018-.008-.037-.011-.055-.003-.018-.014-.029-.03-.036.01,0,.02,0,.03,0,.024,0,.039.013.044.037.006.032.013.063.02.095-.015,0-.03,0-.045,0Z"/>
    <path class="cls-3" d="M.195.258c-.027,0-.054,0-.082,0,0-.013,0-.026,0-.039,0-.009.004-.013.013-.013.018,0,.037,0,.055,0,.01,0,.013.004.013.014,0,.013,0,.025,0,.038Z"/>
    <path class="cls-6" d="M.295.259c-.019,0-.037,0-.056,0,0-.007,0-.014,0-.022,0-.008.004-.013.012-.013.01,0,.02,0,.031,0,.008,0,.012.005.012.013,0,.007,0,.015,0,.022Z"/>
    <path class="cls-5" d="M.68.743c-.011.005-.018.015-.028.022-.036.027-.077.044-.121.05-.059.007-.115-.006-.165-.038-.06-.039-.098-.094-.111-.163-.014-.076.003-.146.052-.206.036-.045.083-.074.139-.086.076-.016.146,0,.208.047.028.022.05.048.067.079.015.027.024.056.027.087.006.049-.002.095-.022.14,0,.001,0,.003-.001.004,0,0-.002.002-.002.003-.011.021-.024.04-.04.057-.001.002-.003.003-.002.005ZM.5.745c.099,0,.18-.08.18-.178,0-.099-.08-.18-.179-.18-.099,0-.18.08-.18.179,0,.102.083.181.179.18Z"/>
    <path class="cls-6" d="M.094.759c.005-.004.013-.005.018-.01.011-.01.016-.022.016-.036,0-.099,0-.198,0-.296,0-.019-.009-.034-.027-.042-.002-.001-.005-.001-.007-.004.014-.003.028-.002.042,0,.022.002.035.018.038.033.002.007.003.014.003.02,0,.094,0,.188,0,.282,0,.027-.01.043-.031.051-.017.006-.034.005-.051.002Z"/>
    <path class="cls-4" d="M.68.743s.001-.004.002-.005c.016-.017.029-.036.04-.057,0,0,.002-.002.002-.003.009.006.019.013.028.019.019.013.025.036.012.055-.012.018-.035.022-.054.01-.01-.006-.021-.013-.031-.019Z"/>
    <path class="cls-6" d="M.267.305c.017,0,.029.013.03.029,0,.015-.015.03-.03.03-.016,0-.029-.014-.029-.03,0-.017.012-.029.029-.029Z"/>
    <path class="cls-1" d="M.501.169c.016,0,.033,0,.049,0,.01,0,.014.004.014.014,0,.008,0,.016,0,.024,0,.01-.004.014-.014.014-.034,0-.068,0-.102,0-.009,0-.013-.004-.013-.013,0-.009,0-.017,0-.026,0-.009.004-.013.014-.013.017,0,.035,0,.052,0Z"/>
    <path class="cls-1" d="M.5.745c-.096,0-.179-.078-.179-.18,0-.099.081-.179.18-.179.099,0,.179.081.179.18,0,.099-.081.179-.18.178Z"/>
  </g>
  <g>
    <path class="cls-7" d="M.874.872c-.006,0-.011,0-.017,0-.254,0-.509,0-.763,0-.035,0-.054-.019-.054-.054,0-.02,0-.04,0-.059.018,0,.036,0,.054,0,.017.003.035.004.051-.002.022-.008.031-.024.031-.051,0-.094,0-.188,0-.282,0-.007,0-.014-.003-.02-.004-.015-.016-.03-.038-.033-.014-.001-.028-.003-.042,0h-.054c0-.023,0-.046,0-.068,0-.024.022-.044.046-.045.009,0,.018,0,.027,0,.027,0,.054,0,.082,0,.015,0,.03,0,.045,0,.019,0,.037,0,.056,0,.017,0,.034,0,.052,0,.002,0,.004,0,.005,0,.086,0,.172,0,.258,0,.015,0,.03,0,.045,0,.07,0,.14,0,.21,0,.003,0,.006,0,.009,0,0,.003.002.003.004.004.018.009.028.023.028.044,0,.168,0,.335,0,.503,0,.003,0,.007,0,.01.002.019-.005.033-.02.044-.004.003-.01.004-.013.009ZM.68.743c.01.006.021.013.031.019.019.012.042.008.054-.01.012-.018.007-.042-.012-.055-.009-.006-.019-.013-.028-.019,0-.001,0-.003.001-.004.02-.044.028-.091.022-.14-.004-.031-.013-.06-.027-.087-.017-.031-.039-.058-.067-.079-.062-.048-.132-.063-.208-.047-.056.012-.103.041-.139.086-.049.06-.066.13-.052.206.013.07.051.125.111.163.05.032.106.045.165.038.045-.005.085-.022.121-.05.009-.007.017-.017.028-.022ZM.267.305c-.017,0-.029.012-.029.029,0,.016.014.03.029.03.015,0,.03-.015.03-.03,0-.017-.013-.029-.03-.029Z"/>
    <path class="cls-7" d="M.04.372c.018,0,.036,0,.054,0,.002.002.005.002.007.004.018.008.027.023.027.042,0,.099,0,.198,0,.296,0,.014-.006.026-.016.036-.005.005-.012.006-.018.01-.018,0-.036,0-.054,0,0-.002,0-.005,0-.007,0-.124,0-.249,0-.373,0-.002,0-.005,0-.007Z"/>
    <path class="cls-7" d="M.874.872c.003-.005.009-.005.013-.009.015-.011.022-.026.02-.044,0-.003,0-.007,0-.01,0-.168,0-.335,0-.503,0-.021-.01-.035-.028-.044-.002,0-.004-.001-.004-.004.012,0,.024,0,.036,0,.03,0,.05.02.05.05,0,.141,0,.281,0,.422,0,.03-.001.06,0,.09.001.028-.022.054-.052.052-.011,0-.023,0-.034,0Z"/>
    <path class="cls-7" d="M.609.259c-.086,0-.172,0-.258,0-.002,0-.004,0-.005,0,.005-.03.012-.06.018-.091.003-.014.007-.026.02-.034.006-.004.013-.007.02-.007.052,0,.104,0,.156,0,.015.008.027.019.03.036.003.018.008.037.011.055.002.013.007.026.007.039ZM.501.169c-.017,0-.035,0-.052,0-.009,0-.013.004-.014.013,0,.009,0,.017,0,.026,0,.009.004.013.013.013.034,0,.068,0,.102,0,.009,0,.013-.004.014-.014,0-.008,0-.016,0-.024,0-.01-.004-.014-.014-.014-.016,0-.033,0-.049,0Z"/>
    <path class="cls-7" d="M.609.259c0-.014-.005-.026-.007-.039-.003-.018-.008-.037-.011-.055-.003-.018-.014-.029-.03-.036.01,0,.02,0,.03,0,.024,0,.039.013.044.037.006.032.013.063.02.095-.015,0-.03,0-.045,0Z"/>
    <path class="cls-7" d="M.195.258c-.027,0-.054,0-.082,0,0-.013,0-.026,0-.039,0-.009.004-.013.013-.013.018,0,.037,0,.055,0,.01,0,.013.004.013.014,0,.013,0,.025,0,.038Z"/>
    <path class="cls-7" d="M.295.259c-.019,0-.037,0-.056,0,0-.007,0-.014,0-.022,0-.008.004-.013.012-.013.01,0,.02,0,.031,0,.008,0,.012.005.012.013,0,.007,0,.015,0,.022Z"/>
    <path class="cls-7" d="M.68.743c-.011.005-.018.015-.028.022-.036.027-.077.044-.121.05-.059.007-.115-.006-.165-.038-.06-.039-.098-.094-.111-.163-.014-.076.003-.146.052-.206.036-.045.083-.074.139-.086.076-.016.146,0,.208.047.028.022.05.048.067.079.015.027.024.056.027.087.006.049-.002.095-.022.14,0,.001,0,.003-.001.004,0,0-.002.002-.002.003-.011.021-.024.04-.04.057-.001.002-.003.003-.002.005ZM.5.745c.099,0,.18-.08.18-.178,0-.099-.08-.18-.179-.18-.099,0-.18.08-.18.179,0,.102.083.181.179.18Z"/>
    <path class="cls-7" d="M.094.759c.005-.004.013-.005.018-.01.011-.01.016-.022.016-.036,0-.099,0-.198,0-.296,0-.019-.009-.034-.027-.042-.002-.001-.005-.001-.007-.004.014-.003.028-.002.042,0,.022.002.035.018.038.033.002.007.003.014.003.02,0,.094,0,.188,0,.282,0,.027-.01.043-.031.051-.017.006-.034.005-.051.002Z"/>
    <path class="cls-7" d="M.68.743s.001-.004.002-.005c.016-.017.029-.036.04-.057,0,0,.002-.002.002-.003.009.006.019.013.028.019.019.013.025.036.012.055-.012.018-.035.022-.054.01-.01-.006-.021-.013-.031-.019Z"/>
    <path class="cls-7" d="M.267.305c.017,0,.029.013.03.029,0,.015-.015.03-.03.03-.016,0-.029-.014-.029-.03,0-.017.012-.029.029-.029Z"/>
    <path class="cls-7" d="M.501.169c.016,0,.033,0,.049,0,.01,0,.014.004.014.014,0,.008,0,.016,0,.024,0,.01-.004.014-.014.014-.034,0-.068,0-.102,0-.009,0-.013-.004-.013-.013,0-.009,0-.017,0-.026,0-.009.004-.013.014-.013.017,0,.035,0,.052,0Z"/>
    <path class="cls-7" d="M.5.745c-.096,0-.179-.078-.179-.18,0-.099.081-.179.18-.179.099,0,.179.081.179.18,0,.099-.081.179-.18.178Z"/>
  </g>
</svg>