<?xml version="1.0" encoding="UTF-8"?>
<svg id="Capa_1" data-name="Capa 1" xmlns="http://www.w3.org/2000/svg" version="1.1" viewBox="0 0 1 1">
  <defs>
    <style>
      .cls-1 {
        fill: #fdfdfd;
      }

      .cls-1, .cls-2, .cls-3, .cls-4 {
        stroke-width: 0px;
      }

      .cls-5 {
        fill: none;
        stroke: #000;
        stroke-miterlimit: 10;
        stroke-width: .01px;
      }

      .cls-2 {
        fill: #f0efee;
      }

      .cls-3 {
        fill: #c0c0bf;
      }

      .cls-4 {
        fill: #f6f6f6;
      }
    </style>
  </defs>
  <g>
    <path class="cls-1" d="M.767.989H.231s-.001-.001-.002-.002c-.025-.01-.034-.023-.034-.05,0-.079,0-.159,0-.238,0-.031,0-.061,0-.092,0-.06,0-.119,0-.179,0-.012-.006-.019-.015-.019-.009,0-.015.007-.015.019,0,.06,0,.119,0,.179-.031,0-.061,0-.092,0,0-.12,0-.24,0-.361,0-.028.01-.052.03-.072.023-.023.046-.046.069-.069.015-.015.033-.027.054-.029.037-.005.073-.002.11-.001-.006.021-.006.021.011.035.028.022.056.045.084.067.005.004.007.009.007.015,0,.071,0,.142,0,.213,0,.015.005.02.02.02.027,0,.054,0,.081,0,.016,0,.021-.004.021-.021,0-.071,0-.142,0-.212,0-.007.002-.011.007-.015.031-.024.061-.049.092-.073.007-.006.009-.012.006-.021-.001-.002-.002-.005-.002-.007.03,0,.061,0,.091,0,.028,0,.051.01.071.029.023.023.047.047.07.07.021.021.031.045.031.075,0,.12,0,.239,0,.359-.031,0-.061,0-.092,0,0-.06,0-.12,0-.18,0-.011-.006-.018-.015-.018-.009,0-.015.007-.015.018,0,.06,0,.12,0,.18,0,.031,0,.061,0,.092,0,.08,0,.16,0,.241,0,.005,0,.009-.001.014-.005.018-.018.028-.035.035Z"/>
    <path class="cls-2" d="M.636.027c.007.013.014.027.021.04.002.003.004.006.005.009,0,.002.001.005.002.007.004.009.002.015-.006.021-.031.024-.061.049-.092.073-.005.004-.007.009-.007.015,0,.071,0,.142,0,.212,0,.016-.005.021-.021.021-.027,0-.054,0-.081,0-.015,0-.02-.005-.02-.02,0-.071,0-.142,0-.213,0-.007-.002-.011-.007-.015-.028-.022-.056-.045-.084-.067-.017-.014-.018-.014-.011-.035.009-.012.014-.027.021-.04.002-.003.003-.006.005-.009,0,.007.003.012.009.017.039.029.077.058.116.087.01.008.015.008.025,0,.039-.029.077-.058.116-.087.006-.004.009-.009.009-.017Z"/>
    <path class="cls-2" d="M.194.699c-.039,0-.078,0-.118,0-.014,0-.019-.005-.019-.019,0-.018,0-.036,0-.054,0-.011.003-.015.015-.018.031,0,.061,0,.092,0,.01,0,.02,0,.03,0,0,.031,0,.061,0,.092Z"/>
    <path class="cls-2" d="M.926.607c.012.003.015.007.015.018,0,.019,0,.037,0,.056,0,.012-.005.017-.017.017-.04,0-.08,0-.12,0,0-.031,0-.061,0-.092.01,0,.02,0,.03,0,.031,0,.061,0,.092,0Z"/>
    <path class="cls-4" d="M.194.607c-.01,0-.02,0-.03,0,0-.06,0-.119,0-.179,0-.012.006-.019.015-.019.009,0,.015.007.015.019,0,.06,0,.119,0,.179Z"/>
    <path class="cls-4" d="M.834.608c-.01,0-.02,0-.03,0,0-.06,0-.12,0-.18,0-.011.006-.018.015-.018.009,0,.015.007.015.018,0,.06,0,.12,0,.18Z"/>
    <path class="cls-3" d="M.636.027c0,.007-.003.012-.009.017-.039.029-.077.058-.116.087-.01.008-.015.008-.025,0-.039-.029-.077-.058-.116-.087-.006-.004-.009-.009-.009-.017.002-.009.008-.013.018-.013.079,0,.159,0,.238,0,.01,0,.016.004.018.013Z"/>
  </g>
  <g>
    <path class="cls-5" d="M.82.41c-.009,0-.015.007-.015.018,0,.06,0,.12,0,.18,0,.031,0,.061,0,.092,0,.08,0,.16,0,.241,0,.005,0,.009-.001.014-.005.018-.018.028-.035.035H.232s-.001-.001-.002-.002c-.025-.01-.034-.023-.034-.05,0-.079,0-.159,0-.238,0-.031,0-.061,0-.092,0-.06,0-.119,0-.179,0-.012-.006-.019-.015-.019"/>
    <path class="cls-5" d="M.195.609c-.031,0-.091-.001-.122-.001,0-.12,0-.24,0-.361,0-.028.01-.052.03-.072.023-.023.046-.046.069-.069.015-.015.033-.027.054-.029.037-.005.073-.002.11-.001-.006.021-.006.021.011.035.028.022.056.045.084.067.005.004.007.009.007.015,0,.071,0,.142,0,.213,0,.015.005.02.02.02.027,0,.054,0,.081,0,.016,0,.021-.004.021-.021,0-.071,0-.142,0-.212,0-.007.002-.011.007-.015.031-.024.061-.049.092-.073.007-.006.009-.012.006-.021-.001-.002-.002-.005-.002-.007.03,0,.061,0,.091,0,.028,0,.051.01.071.029.023.023.047.047.07.07.021.021.031.045.031.075,0,.12,0,.239,0,.359-.031,0-.087,0-.118,0"/>
    <path class="cls-5" d="M.637.027c.007.013.014.027.021.04.002.003.004.006.005.009,0,.002.001.005.002.007.004.009.002.015-.006.021-.031.024-.061.049-.092.073-.005.004-.007.009-.007.015,0,.071,0,.142,0,.212,0,.016-.005.021-.021.021-.027,0-.054,0-.081,0-.015,0-.02-.005-.02-.02,0-.071,0-.142,0-.213,0-.007-.002-.011-.007-.015-.028-.022-.056-.045-.084-.067-.017-.014-.018-.014-.011-.035.009-.012.014-.027.021-.04.002-.003.003-.006.005-.009,0,.007.003.012.009.017.039.029.077.058.116.087.01.008.015.008.025,0,.039-.029.077-.058.116-.087.006-.004.009-.009.009-.017Z"/>
    <path class="cls-5" d="M.195.699c-.039,0-.078,0-.118,0-.014,0-.019-.005-.019-.019,0-.018,0-.036,0-.054,0-.011.003-.015.015-.018.031,0,.061,0,.092,0,.01,0,.02,0,.03,0,0,.031,0,.061,0,.092Z"/>
    <path class="cls-5" d="M.927.607c.012.003.015.007.015.018,0,.019,0,.037,0,.056,0,.012-.005.017-.017.017-.04,0-.08,0-.12,0,0-.031,0-.061,0-.092.01,0,.02,0,.03,0,.031,0,.061,0,.092,0Z"/>
    <path class="cls-5" d="M.637.027c0,.007-.003.012-.009.017-.039.029-.077.058-.116.087-.01.008-.015.008-.025,0-.039-.029-.077-.058-.116-.087-.006-.004-.009-.009-.009-.017.002-.009.008-.013.018-.013.079,0,.159,0,.238,0,.01,0,.016.004.018.013Z"/>
  </g>
  <line class="cls-5" x1=".5" y1=".13" x2=".5" y2=".981"/>
</svg>