<?xml version="1.0" encoding="UTF-8"?>
<svg id="Capa_1" data-name="Capa 1" xmlns="http://www.w3.org/2000/svg" version="1.1" viewBox="0 0 1 1">
  <defs>
    <style>
      .cls-1 {
        fill: #eaeaea;
      }

      .cls-1, .cls-2, .cls-3, .cls-4, .cls-5 {
        stroke-width: 0px;
      }

      .cls-2 {
        fill: #cbcbcb;
      }

      .cls-6 {
        fill: none;
        stroke: #000;
        stroke-miterlimit: 10;
        stroke-width: .01px;
      }

      .cls-3 {
        fill: #57bba0;
      }

      .cls-4 {
        fill: #f6f6f6;
      }

      .cls-5 {
        fill: #5d97c9;
      }
    </style>
  </defs>
  <g>
    <path class="cls-5" d="M.869.184c.01-.008.021-.013.035-.009.022.007.031.032.018.051-.003.004-.007.008-.01.012-.079.079-.157.158-.236.237-.006.006-.012.01-.019.014-.031.017-.062.034-.092.051-.005.003-.008.006-.012.01-.14.14-.279.279-.418.419-.007.007-.014.013-.024.015-.014.002-.025-.003-.033-.014-.008-.012-.008-.025,0-.037.002-.004.006-.008.01-.011.139-.14.279-.279.418-.419.005-.005.011-.009.018-.013.026-.015.052-.029.079-.043.013-.007.024-.015.033-.025.015-.016.03-.031.045-.046.037-.033.07-.07.105-.105.028-.028.057-.056.084-.085Z"/>
    <path class="cls-3" d="M.62.241c-.036.015-.07-.003-.075-.041-.002-.017.005-.031.017-.043.017-.017.032-.035.05-.05.025-.021.032-.047.022-.077,0-.002,0-.005-.002-.007-.002-.007.002-.007.007-.006.011.002.023.004.034.007.046.013.07.06.053.105,0,.003-.003.005-.002.008,0,0,0,0,0,0,0,0-.002.001-.003.002-.002.003-.004.006-.006.009-.008.008-.016.017-.024.025-.008.007-.016.015-.023.023-.008.008-.016.015-.023.023-.008.007-.015.016-.025.022Z"/>
    <path class="cls-2" d="M.715.148s.004-.006.006-.009c0,0,.002-.001.003-.002,0,0,0,0,0,0,.008,0,.01-.01.017-.013.023.023.045.046.068.069.003.003.006.003.009,0,.01-.01.019-.02.029-.03.01.004.016.013.023.021-.027.03-.056.057-.084.085-.035.035-.069.071-.105.105-.008-.007-.017-.013-.022-.023.01-.01.02-.02.03-.029.003-.003.004-.005,0-.009-.023-.023-.046-.045-.069-.068,0-.001,0-.003,0-.004.01-.006.017-.014.025-.022.017.02.037.038.056.057.016.017.016.016.033,0,.006-.006.005-.009,0-.015-.022-.022-.045-.043-.065-.066.007-.008.015-.016.023-.023.003.003.006.005.009.008.019.019.039.039.058.058.002.002.004.004.007.005.002,0,.022-.021.022-.023,0-.002-.001-.003-.003-.004-.023-.023-.046-.045-.069-.068Z"/>
    <path class="cls-1" d="M.846.162c-.01.01-.019.02-.029.03-.003.003-.005.004-.009,0-.023-.023-.045-.046-.068-.069.01-.01.02-.021.03-.031.003-.003.006-.004.009,0,.022.022.044.044.065.066,0,0,0,.003.001.004Z"/>
    <path class="cls-1" d="M.62.245c.023.023.046.045.069.068.003.003.002.006,0,.009-.01.01-.02.019-.03.029-.004,0-.006-.003-.009-.005-.019-.019-.039-.039-.058-.058-.006-.005-.006-.009,0-.015.01-.009.019-.018.029-.028Z"/>
    <path class="cls-1" d="M.715.148c.023.023.046.045.069.068.001.001.002.003.003.004,0,.003-.019.024-.022.023-.002,0-.005-.003-.007-.005-.019-.019-.039-.039-.058-.058-.003-.003-.006-.005-.009-.008.008-.008.016-.017.024-.025Z"/>
    <path class="cls-1" d="M.668.196c.021.023.043.044.065.066.006.006.006.009,0,.015-.017.016-.016.016-.033,0-.019-.019-.038-.037-.056-.057.008-.008.016-.015.023-.023Z"/>
    <path class="cls-4" d="M.723.137s-.002.001-.003.002c0,0,.002-.001.003-.002Z"/>
  </g>
  <g>
    <path class="cls-6" d="M.869.184c.01-.008.021-.013.035-.009.022.007.031.032.018.051-.003.004-.007.008-.01.012-.079.079-.157.158-.236.237-.006.006-.012.01-.019.014-.031.017-.062.034-.092.051-.005.003-.008.006-.012.01-.14.14-.279.279-.418.419-.007.007-.014.013-.024.015-.014.002-.025-.003-.033-.014-.008-.012-.008-.025,0-.037.002-.004.006-.008.01-.011.139-.14.279-.279.418-.419.005-.005.011-.009.018-.013.026-.015.052-.029.079-.043.013-.007.024-.015.033-.025.015-.016.03-.031.045-.046.037-.033.07-.07.105-.105.028-.028.057-.056.084-.085Z"/>
    <path class="cls-6" d="M.62.241c-.036.015-.07-.003-.075-.041-.002-.017.005-.031.017-.043.017-.017.032-.035.05-.05.025-.021.032-.047.022-.077,0-.002,0-.005-.002-.007-.002-.007.002-.007.007-.006.011.002.023.004.034.007.046.013.07.06.053.105,0,.003-.003.005-.002.008,0,0,0,0,0,0,0,0-.002.001-.003.002-.002.003-.004.006-.006.009-.008.008-.016.017-.024.025-.008.007-.016.015-.023.023-.008.008-.016.015-.023.023-.008.007-.015.016-.025.022Z"/>
    <path class="cls-6" d="M.715.148s.004-.006.006-.009c0,0,.002-.001.003-.002,0,0,0,0,0,0,.008,0,.01-.01.017-.013.023.023.045.046.068.069.003.003.006.003.009,0,.01-.01.019-.02.029-.03.01.004.016.013.023.021-.027.03-.056.057-.084.085-.035.035-.069.071-.105.105-.008-.007-.017-.013-.022-.023.01-.01.02-.02.03-.029.003-.003.004-.005,0-.009-.023-.023-.046-.045-.069-.068,0-.001,0-.003,0-.004.01-.006.017-.014.025-.022.017.02.037.038.056.057.016.017.016.016.033,0,.006-.006.005-.009,0-.015-.022-.022-.045-.043-.065-.066.007-.008.015-.016.023-.023.003.003.006.005.009.008.019.019.039.039.058.058.002.002.004.004.007.005.002,0,.022-.021.022-.023,0-.002-.001-.003-.003-.004-.023-.023-.046-.045-.069-.068Z"/>
    <path class="cls-6" d="M.846.162c-.01.01-.019.02-.029.03-.003.003-.005.004-.009,0-.023-.023-.045-.046-.068-.069.01-.01.02-.021.03-.031.003-.003.006-.004.009,0,.022.022.044.044.065.066,0,0,0,.003.001.004Z"/>
    <path class="cls-6" d="M.62.245c.023.023.046.045.069.068.003.003.002.006,0,.009-.01.01-.02.019-.03.029-.004,0-.006-.003-.009-.005-.019-.019-.039-.039-.058-.058-.006-.005-.006-.009,0-.015.01-.009.019-.018.029-.028Z"/>
    <path class="cls-6" d="M.715.148c.023.023.046.045.069.068.001.001.002.003.003.004,0,.003-.019.024-.022.023-.002,0-.005-.003-.007-.005-.019-.019-.039-.039-.058-.058-.003-.003-.006-.005-.009-.008.008-.008.016-.017.024-.025Z"/>
    <path class="cls-6" d="M.668.196c.021.023.043.044.065.066.006.006.006.009,0,.015-.017.016-.016.016-.033,0-.019-.019-.038-.037-.056-.057.008-.008.016-.015.023-.023Z"/>
    <path class="cls-6" d="M.723.137s-.002.001-.003.002c0,0,.002-.001.003-.002Z"/>
  </g>
</svg>