<?xml version="1.0" encoding="UTF-8"?>
<svg id="Capa_1" data-name="Capa 1" xmlns="http://www.w3.org/2000/svg" version="1.1" viewBox="0 0 1 1">
  <defs>
    <style>
      .cls-1 {
        fill: #eac95f;
      }

      .cls-1, .cls-2, .cls-3, .cls-4, .cls-5 {
        stroke-width: 0px;
      }

      .cls-2 {
        fill: #121619;
      }

      .cls-3 {
        fill: #d1986f;
      }

      .cls-4 {
        fill: #6171a2;
      }

      .cls-6 {
        fill: none;
        stroke: #000;
        stroke-miterlimit: 10;
        stroke-width: .01px;
      }

      .cls-5 {
        fill: #ca775a;
      }
    </style>
  </defs>
  <g>
    <path class="cls-4" d="M.038.338c-.007-.045.016-.07.055-.084.037-.013.075-.017.113-.021.074-.008.149-.009.224-.011.089-.003.178-.001.268-.001.044,0,.088.003.132.009.026.004.053.007.077.016.039.015.055.035.05.083-.002.029-.022.044-.044.057-.029.017-.062.024-.094.032-.029.005-.058.01-.088.009-.007-.001-.011-.006-.016-.012-.036-.041-.082-.056-.135-.051-.012.001-.024,0-.036,0-.044,0-.088,0-.132,0-.031,0-.059.007-.087.02-.019.009-.035.022-.048.038-.003.004-.006.009-.012.01-.054,0-.107-.009-.159-.026-.017-.005-.032-.014-.045-.025-.014-.012-.022-.027-.023-.045Z"/>
    <path class="cls-3" d="M.038.338c.014.048.052.064.095.075.029.007.058.012.087.016.016.002.032,0,.047.003,0,.011-.006.02-.01.03-.006.017-.009.033-.009.051,0,.035,0,.07,0,.104,0,.035.006.068.027.096.003.003.008.008.002.013-.05-.002-.099-.006-.147-.02-.023-.007-.044-.017-.063-.031-.016-.011-.024-.028-.027-.048,0-.001,0-.002,0-.004,0-.093-.002-.186-.003-.279,0-.003,0-.006,0-.009Z"/>
    <path class="cls-1" d="M.277.727c0-.011-.01-.018-.015-.027-.013-.021-.017-.043-.017-.066-.001-.041,0-.083,0-.124,0-.028.009-.053.022-.077.015-.02.032-.038.055-.048.003.002.003.005.003.008-.003.031.014.05.038.065.004.002.009.002.01.008-.001.003-.004.005-.006.006-.02.012-.027.032-.025.054.003.032.001.065.002.097,0,.01,0,.019.004.028.008.019.022.032.043.033.035.001.07.001.105,0,.037-.002.075-.003.112,0,.006.003.005.009.005.014,0,.031.016.05.043.062.004.002.01.002.011.008-.016.007-.033.01-.051.011-.076.004-.151,0-.227.003-.041.001-.072-.016-.099-.042-.004-.004-.007-.008-.012-.01Z"/>
    <path class="cls-3" d="M.731.425c.03-.002.06-.006.09-.01.032.004.052.022.064.051.003.007.004.014.004.022,0,.05,0,.1,0,.15,0,.029-.011.052-.038.065-.021.007-.042.009-.064.012-.019.003-.039.004-.059.006-.007-.005,0-.01.001-.014.006-.012.012-.023.017-.035.004-.012.006-.025.007-.038-.002-.023.007-.035.031-.038.013-.001.02-.015.02-.031,0-.013-.009-.027-.022-.031-.005-.002-.011-.003-.017-.003-.009,0-.013-.005-.013-.014,0-.006,0-.012-.001-.018-.002-.022-.008-.044-.019-.063-.002-.003-.004-.007-.002-.012Z"/>
    <path class="cls-5" d="M.851.704s.003-.005.005-.006c.02-.013.029-.032.029-.056,0-.051,0-.101,0-.152,0-.03-.025-.064-.055-.071-.004,0-.007-.002-.01-.005.03-.008.06-.014.088-.029.024-.013.041-.03.049-.056,0,.003,0,.007.001.01,0,.082.002.165.003.247,0,.011.003.023,0,.034-.004.015-.01.028-.021.039-.025.024-.056.037-.09.044Z"/>
    <path class="cls-1" d="M.757.637c0,.025-.009.048-.021.069-.003.005-.006.01-.007.016-.009.008-.018.016-.027.023-.011.009-.022.015-.035.02-.012-.005-.024-.01-.035-.018-.021-.017-.024-.039-.022-.064.002-.003.006-.003.009-.004.028-.008.04-.024.04-.054,0-.008-.003-.017.006-.022.028-.003.056-.001.083,0,.007,0,.011.004.01.011,0,.007.001.015-.001.022Z"/>
    <path class="cls-1" d="M.731.425c.008.018.018.036.021.056,0,.006,0,.012.001.018.002.006,0,.012,0,.019,0,.017,0,.018-.017.018-.021,0-.042,0-.062,0-.005,0-.009,0-.013-.002-.006-.005-.004-.011-.005-.017,0-.034-.022-.055-.056-.055-.039,0-.077-.002-.116,0-.034.002-.069,0-.103.003-.004,0-.008,0-.011-.002-.031-.006-.055-.041-.05-.071,0-.002,0-.005,0-.007.023-.013.048-.02.074-.021.054-.001.109,0,.163,0,.02,0,.04-.004.061-.001.041.005.074.023.1.054.003.004.007.007.011.01Z"/>
    <path class="cls-2" d="M.135.556c0-.006,0-.012,0-.019,0-.008.006-.011.012-.011.006,0,.012.004.012.01.001.012,0,.025.002.037,0,.008-.004.014-.014.014-.009,0-.012-.006-.013-.014,0-.006,0-.012,0-.017Z"/>
    <path class="cls-3" d="M.372.462c.01-.003.021-.003.032-.003.066,0,.132-.003.197-.003.029,0,.063.023.06.061,0,.005,0,.01,0,.015-.004.004-.01.003-.015.003-.013,0-.026,0-.039,0-.015.001-.028.006-.033.022-.008.027.014.05.045.047.01-.001.019-.002.028-.002.004,0,.009,0,.013.003,0,.008,0,.016,0,.024,0,.031-.021.052-.052.054-.035,0-.071-.002-.106,0-.035.002-.07.001-.104.002-.034,0-.059-.024-.059-.058,0-.027,0-.055,0-.082,0-.012-.004-.024-.002-.036.003-.023.015-.038.035-.048Z"/>
    <path class="cls-1" d="M.662.607c-.02-.003-.039.004-.059,0-.02-.004-.034-.02-.033-.038.002-.023.016-.036.039-.037.018,0,.036,0,.053,0,.027,0,.054,0,.08,0,.009,0,.013-.002.012-.012,0-.007,0-.014,0-.021.004.006.002.013.002.019,0,.008.002.011.01.011.01,0,.019.002.027.008.013.011.019.024.015.041-.004.017-.015.026-.032.026-.015,0-.02.007-.018.022,0,.003.001.008-.002.011q0-.03-.031-.03c-.021,0-.043,0-.064,0Z"/>
    <path class="cls-2" d="M.465.571c0,.006,0,.012,0,.019,0,.008-.005.012-.013.012-.007,0-.012-.005-.012-.013,0-.012,0-.023,0-.035,0-.008.004-.012.012-.012.008,0,.012.004.013.012,0,.006,0,.012,0,.017h0Z"/>
  </g>
  <g>
    <path class="cls-6" d="M.038.338c-.007-.045.016-.07.055-.084.037-.013.075-.017.113-.021.074-.008.149-.009.224-.011.089-.003.178-.001.268-.001.044,0,.088.003.132.009.026.004.053.007.077.016.039.015.055.035.05.083-.002.029-.022.044-.044.057-.029.017-.062.024-.094.032-.029.005-.058.01-.088.009-.007-.001-.011-.006-.016-.012-.036-.041-.082-.056-.135-.051-.012.001-.024,0-.036,0-.044,0-.088,0-.132,0-.031,0-.059.007-.087.02-.019.009-.035.022-.048.038-.003.004-.006.009-.012.01-.054,0-.107-.009-.159-.026-.017-.005-.032-.014-.045-.025-.014-.012-.022-.027-.023-.045Z"/>
    <path class="cls-6" d="M.038.338c.014.048.052.064.095.075.029.007.058.012.087.016.016.002.032,0,.047.003,0,.011-.006.02-.01.03-.006.017-.009.033-.009.051,0,.035,0,.07,0,.104,0,.035.006.068.027.096.003.003.008.008.002.013-.05-.002-.099-.006-.147-.02-.023-.007-.044-.017-.063-.031-.016-.011-.024-.028-.027-.048,0-.001,0-.002,0-.004,0-.093-.002-.186-.003-.279,0-.003,0-.006,0-.009Z"/>
    <path class="cls-6" d="M.277.727c0-.011-.01-.018-.015-.027-.013-.021-.017-.043-.017-.066-.001-.041,0-.083,0-.124,0-.028.009-.053.022-.077.015-.02.032-.038.055-.048.003.002.003.005.003.008-.003.031.014.05.038.065.004.002.009.002.01.008-.001.003-.004.005-.006.006-.02.012-.027.032-.025.054.003.032.001.065.002.097,0,.01,0,.019.004.028.008.019.022.032.043.033.035.001.07.001.105,0,.037-.002.075-.003.112,0,.006.003.005.009.005.014,0,.031.016.05.043.062.004.002.01.002.011.008-.016.007-.033.01-.051.011-.076.004-.151,0-.227.003-.041.001-.072-.016-.099-.042-.004-.004-.007-.008-.012-.01Z"/>
    <path class="cls-6" d="M.731.425c.03-.002.06-.006.09-.01.032.004.052.022.064.051.003.007.004.014.004.022,0,.05,0,.1,0,.15,0,.029-.011.052-.038.065-.021.007-.042.009-.064.012-.019.003-.039.004-.059.006-.007-.005,0-.01.001-.014.006-.012.012-.023.017-.035.004-.012.006-.025.007-.038-.002-.023.007-.035.031-.038.013-.001.02-.015.02-.031,0-.013-.009-.027-.022-.031-.005-.002-.011-.003-.017-.003-.009,0-.013-.005-.013-.014,0-.006,0-.012-.001-.018-.002-.022-.008-.044-.019-.063-.002-.003-.004-.007-.002-.012Z"/>
    <path class="cls-6" d="M.851.704s.003-.005.005-.006c.02-.013.029-.032.029-.056,0-.051,0-.101,0-.152,0-.03-.025-.064-.055-.071-.004,0-.007-.002-.01-.005.03-.008.06-.014.088-.029.024-.013.041-.03.049-.056,0,.003,0,.007.001.01,0,.082.002.165.003.247,0,.011.003.023,0,.034-.004.015-.01.028-.021.039-.025.024-.056.037-.09.044Z"/>
    <path class="cls-6" d="M.757.637c0,.025-.009.048-.021.069-.003.005-.006.01-.007.016-.009.008-.018.016-.027.023-.011.009-.022.015-.035.02-.012-.005-.024-.01-.035-.018-.021-.017-.024-.039-.022-.064.002-.003.006-.003.009-.004.028-.008.04-.024.04-.054,0-.008-.003-.017.006-.022.028-.003.056-.001.083,0,.007,0,.011.004.01.011,0,.007.001.015-.001.022Z"/>
    <path class="cls-6" d="M.731.425c.008.018.018.036.021.056,0,.006,0,.012.001.018.002.006,0,.012,0,.019,0,.017,0,.018-.017.018-.021,0-.042,0-.062,0-.005,0-.009,0-.013-.002-.006-.005-.004-.011-.005-.017,0-.034-.022-.055-.056-.055-.039,0-.077-.002-.116,0-.034.002-.069,0-.103.003-.004,0-.008,0-.011-.002-.031-.006-.055-.041-.05-.071,0-.002,0-.005,0-.007.023-.013.048-.02.074-.021.054-.001.109,0,.163,0,.02,0,.04-.004.061-.001.041.005.074.023.1.054.003.004.007.007.011.01Z"/>
    <path class="cls-6" d="M.135.556c0-.006,0-.012,0-.019,0-.008.006-.011.012-.011.006,0,.012.004.012.01.001.012,0,.025.002.037,0,.008-.004.014-.014.014-.009,0-.012-.006-.013-.014,0-.006,0-.012,0-.017Z"/>
    <path class="cls-6" d="M.372.462c.01-.003.021-.003.032-.003.066,0,.132-.003.197-.003.029,0,.063.023.06.061,0,.005,0,.01,0,.015-.004.004-.01.003-.015.003-.013,0-.026,0-.039,0-.015.001-.028.006-.033.022-.008.027.014.05.045.047.01-.001.019-.002.028-.002.004,0,.009,0,.013.003,0,.008,0,.016,0,.024,0,.031-.021.052-.052.054-.035,0-.071-.002-.106,0-.035.002-.07.001-.104.002-.034,0-.059-.024-.059-.058,0-.027,0-.055,0-.082,0-.012-.004-.024-.002-.036.003-.023.015-.038.035-.048Z"/>
    <path class="cls-6" d="M.662.607c-.02-.003-.039.004-.059,0-.02-.004-.034-.02-.033-.038.002-.023.016-.036.039-.037.018,0,.036,0,.053,0,.027,0,.054,0,.08,0,.009,0,.013-.002.012-.012,0-.007,0-.014,0-.021.004.006.002.013.002.019,0,.008.002.011.01.011.01,0,.019.002.027.008.013.011.019.024.015.041-.004.017-.015.026-.032.026-.015,0-.02.007-.018.022,0,.003.001.008-.002.011q0-.03-.031-.03c-.021,0-.043,0-.064,0Z"/>
    <path class="cls-6" d="M.465.571c0,.006,0,.012,0,.019,0,.008-.005.012-.013.012-.007,0-.012-.005-.012-.013,0-.012,0-.023,0-.035,0-.008.004-.012.012-.012.008,0,.012.004.013.012,0,.006,0,.012,0,.017h0Z"/>
  </g>
</svg>