<?xml version="1.0" encoding="UTF-8"?>
<svg id="Capa_1" data-name="Capa 1" xmlns="http://www.w3.org/2000/svg" version="1.1" viewBox="0 0 1 1">
  <defs>
    <style>
      .cls-1 {
        fill: #e83931;
      }

      .cls-1, .cls-2, .cls-3, .cls-4 {
        stroke-width: 0px;
      }

      .cls-5 {
        fill: none;
        stroke: #000;
        stroke-miterlimit: 10;
        stroke-width: .01px;
      }

      .cls-2 {
        fill: #484f5c;
      }

      .cls-3 {
        fill: #a30e07;
      }

      .cls-4 {
        fill: #303e4e;
      }
    </style>
  </defs>
  <g>
    <path class="cls-2" d="M.797.692c-.066.086-.15.143-.258.162-.039.007-.078.008-.117,0-.022-.005-.042-.014-.06-.026-.028-.018-.055-.039-.087-.05-.065-.023-.132-.033-.201-.02-.012.002-.023.006-.034.012-.009.005-.016.003-.021-.004-.004-.007-.003-.014.004-.02.022-.02.046-.036.069-.053.041-.029.082-.057.124-.086.005-.006.012-.006.018-.006.044-.005.088-.002.132.006.048.008.095.02.142.032.058.014.117.028.176.038.009.002.019.003.028.004.021.001.043.005.064.005.007,0,.015-.001.019.006Z"/>
    <path class="cls-1" d="M.797.692c-.008-.004-.017-.003-.026-.004-.02,0-.039-.002-.058-.006.017-.055.03-.112.036-.169.008-.065.01-.129-.007-.193-.013-.049-.036-.091-.08-.12-.003-.002-.007-.004-.007-.01.001-.001.003-.002.005-.002.013.003.027.003.039.011.025.009.051.017.075.029.062.03.117.07.155.129.034.052.05.109.054.169.003.039.002.077-.004.116,0,.004-.001.008-.002.012-.008.034-.027.047-.062.043-.036-.004-.071-.008-.107-.009-.004,0-.008-.001-.011.002Z"/>
    <path class="cls-3" d="M.367.61c-.021-.002-.042-.005-.063-.007-.03-.002-.059,0-.088.005.003-.041.012-.081.023-.121.014-.05.033-.098.062-.141.037-.056.089-.091.15-.116.044-.018.089-.029.136-.035.004,0,.008-.001.012-.002.01-.006.02-.005.031-.004.002,0,.005,0,.005.003,0,.003-.003.004-.005.004-.012.004-.024.007-.036.012-.051.021-.09.056-.122.1-.038.052-.062.111-.079.174-.011.04-.018.08-.023.121,0,.003,0,.005-.003.007Z"/>
    <path class="cls-4" d="M.631.191c-.011,0-.022.001-.033.002.003-.044.04-.065.078-.045.017.009.024.023.022.043,0,.003,0,.006,0,.01-.015-.003-.029-.006-.044-.009-.006.003-.011,0-.017,0-.002,0-.004-.002-.006,0Z"/>
    <path class="cls-3" d="M.631.191c.008-.004.016-.001.023,0,.006.008.015.011.022.017.036.029.055.067.067.11.014.05.015.1.012.151-.004.068-.018.135-.036.2-.001.005,0,.011-.007.013-.03-.002-.06-.009-.09-.015-.068-.013-.135-.032-.202-.047-.018-.004-.035-.007-.053-.011.002-.04.01-.079.02-.118.012-.047.028-.092.051-.135.033-.062.077-.113.141-.145.017-.008.035-.015.053-.019,0,0,.001,0,.002,0,0,0-.001,0-.002-.001Z"/>
  </g>
  <g>
    <path class="cls-5" d="M.797.692c-.066.086-.15.143-.258.162-.039.007-.078.008-.117,0-.022-.005-.042-.014-.06-.026-.028-.018-.055-.039-.087-.05-.065-.023-.132-.033-.201-.02-.012.002-.023.006-.034.012-.009.005-.016.003-.021-.004-.004-.007-.003-.014.004-.02.022-.02.046-.036.069-.053.041-.029.082-.057.124-.086.005-.006.012-.006.018-.006.044-.005.088-.002.132.006.048.008.095.02.142.032.058.014.117.028.176.038.009.002.019.003.028.004.021.001.043.005.064.005.007,0,.015-.001.019.006Z"/>
    <path class="cls-5" d="M.797.692c-.008-.004-.017-.003-.026-.004-.02,0-.039-.002-.058-.006.017-.055.03-.112.036-.169.008-.065.01-.129-.007-.193-.013-.049-.036-.091-.08-.12-.003-.002-.007-.004-.007-.01.001-.001.003-.002.005-.002.013.003.027.003.039.011.025.009.051.017.075.029.062.03.117.07.155.129.034.052.05.109.054.169.003.039.002.077-.004.116,0,.004-.001.008-.002.012-.008.034-.027.047-.062.043-.036-.004-.071-.008-.107-.009-.004,0-.008-.001-.011.002Z"/>
    <path class="cls-5" d="M.367.61c-.021-.002-.042-.005-.063-.007-.03-.002-.059,0-.088.005.003-.041.012-.081.023-.121.014-.05.033-.098.062-.141.037-.056.089-.091.15-.116.044-.018.089-.029.136-.035.004,0,.008-.001.012-.002.01-.006.02-.005.031-.004.002,0,.005,0,.005.003,0,.003-.003.004-.005.004-.012.004-.024.007-.036.012-.051.021-.09.056-.122.1-.038.052-.062.111-.079.174-.011.04-.018.08-.023.121,0,.003,0,.005-.003.007Z"/>
    <path class="cls-5" d="M.631.191c-.011,0-.022.001-.033.002.003-.044.04-.065.078-.045.017.009.024.023.022.043,0,.003,0,.006,0,.01-.015-.003-.029-.006-.044-.009-.006.003-.011,0-.017,0-.002,0-.004-.002-.006,0Z"/>
    <path class="cls-5" d="M.631.191c.008-.004.016-.001.023,0,.006.008.015.011.022.017.036.029.055.067.067.11.014.05.015.1.012.151-.004.068-.018.135-.036.2-.001.005,0,.011-.007.013-.03-.002-.06-.009-.09-.015-.068-.013-.135-.032-.202-.047-.018-.004-.035-.007-.053-.011.002-.04.01-.079.02-.118.012-.047.028-.092.051-.135.033-.062.077-.113.141-.145.017-.008.035-.015.053-.019,0,0,.001,0,.002,0,0,0-.001,0-.002-.001Z"/>
  </g>
</svg>