<?xml version="1.0" encoding="UTF-8"?>
<svg id="Layer_1" data-name="Layer 1" xmlns="http://www.w3.org/2000/svg" xmlns:xlink="http://www.w3.org/1999/xlink" version="1.1" viewBox="0 0 1.5 1">
  <defs>
    <style>
      .cls-1 {
        fill: #382628;
      }

      .cls-1, .cls-2, .cls-3, .cls-4, .cls-5, .cls-6, .cls-7, .cls-8, .cls-9, .cls-10, .cls-11, .cls-12, .cls-13, .cls-14, .cls-15, .cls-16, .cls-17, .cls-18, .cls-19, .cls-20 {
        stroke-width: 0px;
      }

      .cls-21 {
        clip-path: url(#clippath);
      }

      .cls-2 {
        fill: none;
      }

      .cls-3 {
        fill: #ec1e24;
      }

      .cls-4 {
        fill: url(#linear-gradient);
      }

      .cls-5 {
        fill: #e01f26;
      }

      .cls-22 {
        stroke-width: .0014px;
      }

      .cls-22, .cls-23 {
        stroke: #000;
        stroke-miterlimit: 10;
      }

      .cls-22, .cls-16 {
        fill: #fff;
      }

      .cls-23 {
        stroke-width: .0011px;
      }

      .cls-23, .cls-7 {
        fill: #000;
      }

      .cls-24 {
        clip-path: url(#clippath-1);
      }

      .cls-6 {
        fill: #659740;
      }

      .cls-8 {
        fill: #f1ae4b;
      }

      .cls-9 {
        fill: #802b31;
      }

      .cls-10 {
        fill: #fad940;
      }

      .cls-11 {
        fill: #e6d4c7;
      }

      .cls-12 {
        fill: #dbdbda;
      }

      .cls-13 {
        fill: url(#linear-gradient-2);
      }

      .cls-14 {
        fill: #fcf7f2;
      }

      .cls-15 {
        fill: #f7deca;
      }

      .cls-17 {
        fill: #f7ec48;
      }

      .cls-18 {
        fill: #170a0d;
      }

      .cls-19 {
        fill: #231f20;
      }

      .cls-20 {
        fill: #ef4f41;
      }
    </style>
    <clipPath id="clippath">
      <path class="cls-2" d="M.0144.1141s.0801.1625.0978.2946l.0584.4369s.0635.1194.5638.1194c0,0,.5257.0102.5588-.1219l.0864-.4648s.05-.2184.091-.2641H.0144Z"/>
    </clipPath>
    <linearGradient id="linear-gradient" x1="12.1507" y1="-25.0478" x2="12.3062" y2="-24.7281" gradientTransform="translate(-8.1407 26.98) rotate(-8.357)" gradientUnits="userSpaceOnUse">
      <stop offset="0" stop-color="#4e2822"/>
      <stop offset=".068" stop-color="#78632c"/>
      <stop offset=".2174" stop-color="#d1a642"/>
      <stop offset=".3405" stop-color="#d1a642"/>
      <stop offset=".4881" stop-color="#795c28"/>
      <stop offset=".6429" stop-color="#d1a642"/>
      <stop offset=".8272" stop-color="#fbf5b5"/>
      <stop offset=".9928" stop-color="#8b702e"/>
    </linearGradient>
    <linearGradient id="linear-gradient-2" x1=".269" y1=".4736" x2=".3592" y2=".6059" gradientTransform="matrix(1,0,0,1,0,0)" xlink:href="#linear-gradient"/>
    <clipPath id="clippath-1">
      <ellipse class="cls-2" cx=".7454" cy=".1255" rx=".7281" ry=".1031"/>
    </clipPath>
  </defs>
  <path class="cls-18" d="M.0144.1141s.0801.1625.0978.2946l.0584.4369s.0635.1194.5638.1194c0,0,.5257.0102.5588-.1219l.0864-.4648s.05-.2184.091-.2641H.0144Z"/>
  <g class="cls-21">
    <ellipse class="cls-9" cx=".7314" cy=".6885" rx=".497" ry=".437"/>
    <ellipse class="cls-5" cx=".7314" cy=".6885" rx=".4073" ry=".3788"/>
  </g>
  <path class="cls-6" d="M1.1059.8388c.0202.0167.0884,0,.0884,0-.0021-.0271-.0459-.0327-.0459-.0327.0077-.0118.0021-.0285.0021-.0285l-.0093.0062c.0088-.0242-.0165-.0473-.0165-.0473-.0143.0176-.0088.0517-.0088.0517"/>
  <path class="cls-11" d="M.9938.8234s-.0121-.0286.0176-.0616.0374-.0297.0539-.0286.0407.0011.0462.0308c0,0,.0275.0242.0066.066l-.1243-.0066Z"/>
  <g>
    <path class="cls-20" d="M.8381.7386s.0375-.0602.107-.0388.0803.1271.0803.1271h-.0936l-.0936-.0883Z"/>
    <path class="cls-6" d="M.9502.7491s.0426,0,.0608-.0245c0,0-.0163.039-.049.0472,0,0,.0327.0345.0372.0408,0,0-.0463-.0263-.0526-.0345,0,0-.0272.0454-.0399.0472,0,0,.0245-.0426.0227-.0608,0,0-.0388-.0236-.0726-.0209,0,0,.0472-.0163.0753.0091l-.01-.0263s.0064-.0109.0154-.0064.0127.029.0127.029Z"/>
  </g>
  <g>
    <path class="cls-6" d="M.2846.7453s-.0176-.0231-.0264-.0275c0,0-.0088.0385.0154.0739,0,0-.0143.0009-.0187.0163,0,0,.011.0143.0539.0165l-.0242-.0792Z"/>
    <path class="cls-20" d="M.455.7453s-.0596-.0943-.1272-.0664c-.1048.0433-.0224.1543-.0224.1543l.1287.0099.0209-.0979Z"/>
    <path class="cls-6" d="M.3228.7282s-.0428,0-.0611-.0245c0,0,.0164.039.0492.0472,0,0-.0328.0345-.0374.0408,0,0,.0465-.0263.0529-.0345,0,0,.0273.0454.0401.0472,0,0-.0246-.0426-.0228-.0608,0,0,.039-.0236.0729-.0209,0,0-.0474-.0163-.0757.0091l.01-.0263s-.0064-.0109-.0155-.0064-.0128.029-.0128.029Z"/>
    <path class="cls-11" d="M.5869.7827s.0201-.0474-.0316-.0695c-.0274-.0262-.0622-.0182-.0845-.0128s-.0551.0116-.0564.046c0,0-.0324.0339.0047.0751l.1677-.0389Z"/>
  </g>
  <path class="cls-15" d="M.3484.8388s-.0451-.0319-.0858-.0143c0,0-.0154.0418.0308.0627s.0825.0275.0825.0275l-.0275-.0759Z"/>
  <g>
    <g>
      <path class="cls-3" d="M1.1579.6647l-.0151.0019c.0108-.0133.0173-.031.0173-.0504,0-.0415-.0301-.0752-.0672-.0752s-.0672.0337-.0672.0752c0,.0256.0114.0482.0289.0618l-.0298.0038c-.0019.0002-.0033.0018-.0033.0037v.0393c0,.0022.002.004.0042.0037l.1344-.0157c.0019-.0002.0034-.0019.0033-.0038l-.0013-.0408c0-.0022-.002-.0039-.0042-.0036Z"/>
      <path class="cls-19" d="M1.0929.5411c.0371,0,.0672.0337.0672.0752,0,.0194-.0065.037-.0173.0504l.015-.0019s.0003,0,.0005,0c.002,0,.0037.0016.0037.0036l.0013.0408c0,.0019-.0014.0036-.0033.0038l-.1343.0157s-.0003,0-.0004,0c-.002,0-.0037-.0016-.0037-.0037v-.0393c0-.0019.0014-.0035.0033-.0037l.0298-.0038c-.0174-.0136-.0289-.0362-.0289-.0618,0-.0415.0301-.0752.0672-.0752M1.0929.5353c-.0403,0-.0731.0364-.0731.081,0,.0218.0079.0424.0217.0576l-.0174.0022-.0051.0006-.0033.0089v.0393c0,.0053.0043.0096.0096.0096l.1355-.0158c.0049-.0005.0086-.0048.0085-.0098l-.0013-.0407c-.0001-.0052-.0044-.0093-.0096-.0093l-.0035.0004c.0072-.0128.0111-.0277.0111-.043,0-.0447-.0328-.081-.0731-.081h0Z"/>
    </g>
    <g>
      <path class="cls-3" d="M1.1579.6647l-.0151.0019c.0108-.0133.0173-.031.0173-.0504,0-.0415-.0301-.0752-.0672-.0752s-.0672.0337-.0672.0752c0,.0256.0114.0482.0289.0618l-.0298.0038c-.0019.0002-.0033.0018-.0033.0037v.0393c0,.0022.002.004.0042.0037l.1344-.0157c.0019-.0002.0034-.0019.0033-.0038l-.0013-.0408c0-.0022-.002-.0039-.0042-.0036Z"/>
      <path class="cls-16" d="M1.0929.5411c.0371,0,.0672.0337.0672.0752,0,.0194-.0065.037-.0173.0504l.015-.0019s.0003,0,.0005,0c.002,0,.0037.0016.0037.0036l.0013.0408c0,.0019-.0014.0036-.0033.0038l-.1343.0157s-.0003,0-.0004,0c-.002,0-.0037-.0016-.0037-.0037v-.0393c0-.0019.0014-.0035.0033-.0037l.0298-.0038c-.0174-.0136-.0289-.0362-.0289-.0618,0-.0415.0301-.0752.0672-.0752M1.0929.5382c-.0387,0-.0702.035-.0702.0781,0,.0231.0092.0449.0249.0597l-.0232.003-.0026.0003-.0033.0063v.0393c0,.0037.003.0067.0067.0067l.1351-.0158c.0034-.0004.006-.0034.0059-.0068l-.0013-.0408c-.0001-.0036-.003-.0065-.0067-.0065l-.0092.0012c.009-.0134.0139-.0297.0139-.0466,0-.0431-.0315-.0781-.0702-.0781h0Z"/>
    </g>
    <path class="cls-16" d="M1.1439.6431l-.1007.0103c-.0053.0007-.01-.0034-.01-.0087v-.0505c0-.0044.0033-.0082.0077-.0087l.1007-.0103c.0053-.0007.01.0034.01.0087v.0505c0,.0044-.0033.0082-.0077.0087Z"/>
  </g>
  <g>
    <path class="cls-4" d="M.4477.6168c.0135.0495-.0062.098-.0441.1083s-.0794-.0215-.0929-.071c-.0014-.0053-.0025-.0105-.0032-.0157-.0011-.0083-.0007-.0242-.0007-.0242,0,0,.0617-.0707.0685-.0699.0313.0033.0613.032.0723.0726Z"/>
    <path class="cls-13" d="M.3068.6142s.0619-.0021.0685-.0699l-.0685.0699Z"/>
  </g>
  <ellipse class="cls-12" cx=".7484" cy=".8728" rx=".4138" ry=".1078"/>
  <ellipse class="cls-14" cx=".7429" cy=".8574" rx=".4138" ry=".0979"/>
  <g id="YQYiUM">
    <g>
      <g>
        <path class="cls-16" d="M.8341.5319c-.005.0068-.0104.0135-.0151.0205.0047-.007.0101-.0137.0151-.0205h0Z"/>
        <polygon class="cls-16" points=".6751 .5893 .6738 .5894 .6738 .5894 .6751 .5893"/>
        <path class="cls-7" d="M.7785.5893c-.0005.0007-.0011.0014-.0015.0021.0005-.0007.001-.0014.0015-.0021Z"/>
        <path class="cls-7" d="M.7763.5925c-.0005.0007-.0009.0013-.0013.0019.0004-.0006.0008-.0012.0013-.0019Z"/>
        <path class="cls-7" d="M.7802.5871c-.0006.0008-.0012.0015-.0017.0023.0005-.0007.0011-.0015.0017-.0023Z"/>
        <path class="cls-7" d="M.6734.5878s.0002.0008.0003.0011c0-.0004-.0002-.0008-.0003-.0011Z"/>
        <path class="cls-7" d="M.7802.5871c.015-.0196.0454-.0515.0539-.0551h0c-.0084.0036-.0388.0355-.0539.0551Z"/>
        <polygon class="cls-7" points=".6738 .5894 .6737 .5889 .6738 .5894 .6738 .5894"/>
      </g>
      <path class="cls-16" d="M1.0189.5382c-.001-.0006-.0028-.0008-.0037-.0003-.0014.0008-.0024.0022-.0035.0035-.0117.0129-.0232.026-.0352.0386-.0038.004-.0089.007-.0134.0104-.0006-.0005-.0013-.0009-.0019-.0014.0016-.0029.0033-.0057.0047-.0087.0029-.0062.0064-.0122.0081-.0186.0021-.0077-.0039-.0141-.012-.0149-.0124.0167-.0269.0309-.0446.043-.0002-.0032,0-.0063.0018-.0085.0076-.0095.015-.0192.0237-.0278.0095-.0094.0196-.0186.0344-.0215.0008-.0001.0017-.0027.0013-.0038-.0034-.011-.0117-.0186-.026-.012-.0035.0016-.007.0034-.0101.0054-.0149.0097-.0274.0215-.0371.0354-.008.0114-.0184.0208-.0296.0294-.0027.0021-.006.0036-.009.0053-.0006-.0004-.0012-.0009-.0018-.0013.0024-.0041.0045-.0083.0072-.0122.0094-.0135.0189-.027.0285-.0404.0043-.006.0039-.0121.0008-.0182-.0035-.0071-.0078-.0083-.0147-.0037-.0047.0032-.0092.0067-.0136.0102-.0042.0033-.0084.0068-.0139.0114.0034-.0084.002-.0148-.0028-.0205-.0039-.0046-.0076-.0052-.0126-.0017-.0053.0037-.0105.0075-.0153.0118-.0066.0059-.0127.0122-.019.0184-.0005-.0004-.0009-.0009-.0014-.0013.0067-.0176.0027-.0318-.0089-.0329-.0021.0053-.0031.0113-.0066.0157-.0117.0151-.0239.0298-.0367.0442-.0056.0063-.0129.0114-.0197.0168-.0014.0011-.0049.0016-.0063.0008-.0014-.0008-.0019-.0036-.0017-.0055.0002-.0022.0014-.0044.0026-.0064.0038-.006.0078-.0119.0116-.0179.0042-.0066.0089-.013.0125-.0199.0041-.0078.0011-.019-.0056-.0233-.0049-.0032-.0078-.0022-.0093.0031-.0007.0024-.0015.0048-.0027.007-.0088.0167-.0224.0304-.0362.0437-.007.0067-.0149.0126-.0226.0187-.0008.0006-.0022.0007-.0035.0008-.0004,0-.0009,0-.0013.0002h0s0-.0004-.0001-.0006c0-.0004-.0002-.0008-.0003-.0011-.0003-.0009-.0005-.0019-.0002-.0027.0017-.0045.0032-.0092.0058-.0133.014-.0224.0293-.0442.0421-.0671.0066-.0117.0145-.0156.0281-.0132.004.0007.0058.0013.0067.0054.001.0042.0041.0082.0072.0116.0022.0024.0052.0016.0074-.0012.0048-.0062.0099-.0123.0148-.0184.0023-.0028.0029-.0057.0003-.0088-.0077-.0089-.0198-.009-.0273,0-.0003.0004-.0008.0007-.0009.0007-.0068-.0005-.0132-.0009-.0198-.0014.0018-.0045.0038-.0083.005-.0124.0026-.0086-.0035-.0194-.0124-.0224-.0028-.001-.0047-.0012-.0062.0023-.0043.0102-.0091.0203-.0141.0303-.0009.0017-.0038.0037-.0057.0037-.0081,0-.0162-.0008-.0245-.0013.0019-.0043.0037-.0079.005-.0116.003-.0088-.0027-.0199-.0118-.0231-.0025-.0009-.0048-.0021-.0065.0017-.0045.0105-.0095.0209-.0145.0312-.0006.0012-.0024.0027-.0037.0029-.0076.0007-.0152.0009-.0232.0013,0-.0079.0006-.0152-.0001-.0223-.0016-.0158-.0135-.027-.0309-.0279-.0084-.0004-.0174.0011-.0255.0034-.0162.0046-.0288.0144-.0399.0256-.0103-.0075-.0206-.0073-.032.0004-.0115.0078-.0205.0177-.0282.0285-.0167.0234-.026.0484-.0199.0766.0045.0209.0192.0348.0413.0381.0177.0026.0337-.0022.0483-.0107.0358-.0208.0598-.0504.0771-.0848.0025-.005.003-.0121.0072-.0147.0042-.0026.0118-.001.0179-.0011.0005,0,.0011.0002.0023.0004-.0014.0024-.0026.0045-.0039.0066-.0097.0158-.0199.0314-.0291.0475-.0055.0095-.0105.0195-.014.0297-.0024.0072-.0008.0152.007.02.0077.0048.0153.0022.0217-.0027.0083-.0065.0161-.0135.0241-.0204.0024-.0021.0045-.0044.0068-.0067-.0002.0032-.0013.0059-.002.0086-.0022.0077.0012.0176.0071.0213.006.0037.0137.003.0222-.0031.0066-.0047.0126-.0102.0188-.0154.003-.0026.0056-.0054.0076-.0073.0014.0068.0018.0137.0044.0199.0033.0077.0121.01.0202.0061.0046-.0022.009-.0052.0129-.0083.0046-.0037.0086-.0079.0138-.0128-.0017.0125.004.0221.0123.0228.0006-.0013.0015-.0028.0026-.0047.0004-.0006.0008-.0012.0013-.0019.0002-.0003.0005-.0007.0007-.001.0005-.0007.001-.0014.0015-.0021.0005-.0007.0011-.0015.0017-.0023.015-.0196.0454-.0515.0539-.0552h0s0,0,0,0c-.005.0068-.0104.0135-.0151.0205-.0007.001-.0013.002-.002.003-.0043.0069-.0081.0142-.0107.0217-.0026.0076.0032.0183.0098.0217.0051-.0087.0095-.0179.0157-.026.0062-.0083.0136-.016.0214-.0232.0075-.0069.0162-.0127.0243-.019-.0076.0124-.0156.0239-.0232.0357-.0049.0076-.0052.0159-.0021.0242.0031.0083.0098.0109.0186.0071.0037-.0016.0072-.0037.0104-.0061.0048-.0035.0093-.0074.0141-.0113.0013.0087.0055.0155.0145.0184.0082.0027.0124-.004.0174-.0078.0051-.0038.0095-.0083.0144-.0127.0001.0008.0003.0013.0002.0018-.0022.0083.0028.0137.0096.0178.0067.004.0123-.0001.0177-.0034.0006-.0004.0012-.0009.0018-.0013.0188-.0144.0332-.0322.0475-.0501.0005-.0006.0009-.0013.001-.0019,0-.001.0001-.0025-.0005-.0028ZM.5339.5846c-.0086.0053-.0179.0087-.0284.0097-.0123.0012-.0202-.0022-.0254-.0123-.0076-.015-.0082-.0306-.0017-.046.0088-.0208.0253-.0364.0446-.0514.0072.0308.0228.0512.0636.0415-.014.0234-.0292.044-.0527.0584ZM.6055.4795c-.0051-.0025-.0099-.0048-.0149-.0073-.0023.0075.0012.0124.0134.0189-.0028.0067-.0057.0136-.0086.0204-.0003.0006-.0008.0013-.0014.0016-.01.0047-.0204.0083-.0317.0051-.0103-.0029-.0143-.0109-.0169-.0196-.0052-.0176.0131-.0345.0303-.0388.0028-.0007.0058-.0011.0087-.0015.0163-.0019.0239.0053.021.0211ZM.6177.5905l-.0027-.0011c.0008-.0032.0009-.0068.0025-.0096.0068-.0123.0138-.0247.0213-.0367.0101-.0162.0209-.0321.0313-.0482.0014-.0022.0026-.0031.0059-.0027.0077.0009.0156.0009.024.0014-.0209.0375-.0445.0721-.0822.097Z"/>
    </g>
  </g>
  <g>
    <path class="cls-16" d="M.6798.4097c-.0084.0019-.0089.0014-.0094-.0093-.0002-.0034-.0006-.0068-.002-.0104-.0007.0036-.001.0074-.0024.0106-.0014.0035-.0039.0064-.0059.0096-.0019-.0031-.0041-.0059-.0054-.0092-.0014-.0034-.0018-.0074-.0038-.0109,0,.0051,0,.0102,0,.0152-.0002.0146-.0084.0268-.0206.0309-.0122.0042-.0257-.0012-.0328-.0132-.0068-.0114-.0061-.027.0017-.038.0079-.0111.0219-.0152.0338-.0098.0047.0021.0048.0024.0045.0093-.0072-.004-.0142-.0071-.0223-.0041-.013.0049-.02.0196-.0154.0333.0049.0148.0193.0215.0323.0151.0124-.0061.0169-.0213.0116-.0353-.0022-.0058-.0026-.0128-.0023-.0192.0001-.0028.0039-.0072.0064-.0076.0025-.0004.0064.0026.0081.0054.0022.0037.0027.0085.0045.0149.0016-.0057.0027-.0095.0036-.0133.0013-.0049.0039-.0079.0085-.0072.0049.0007.0071.0045.0071.0099,0,.0111,0,.0221,0,.0334Z"/>
    <path class="cls-16" d="M.7669.3852c-.0003.0039-.0021.0088-.0006.0114.0016.0029.0062.0052.0094.0051.0045-.0002.0069-.0045.0069-.01,0-.0067-.0005-.0134.0002-.02.0003-.0027.003-.005.0046-.0075.0017.002.0045.0038.0049.0061.0007.0041.0025.0044.0054.0045.0075.0003.0096.0028.0097.0113.0001.0059.0005.0119-.0002.0178-.0003.0027-.003.005-.0046.0075-.0015-.0025-.0041-.0048-.0044-.0074-.0007-.006-.0002-.0122-.0002-.0183-.0059-.0024-.0054.0017-.0055.0055-.0002.011-.0057.0186-.0151.0212-.0118.0033-.0237-.0086-.0224-.0221.001-.0098.0097-.0174.0182-.0155.0018.0004.0044.0013.005.0028.0013.0031.0022.0069.0019.0102-.0002.0018-.0036.0047-.0051.0043-.0023-.0005-.0043-.0034-.0064-.0053l-.0018-.0016Z"/>
    <path class="cls-16" d="M.7276.3816c-.0027.001-.0047.0018-.007.0027,0,.0065.0004.0129-.0002.0193-.0002.0024-.0025.006-.0043.0064-.0039.001-.005-.0026-.005-.0066,0-.0064-.0002-.0129,0-.0193.0004-.0094.0074-.0136.0148-.0093.0009.0005.0024.0004.0034,0,.0055-.0027.0081-.0009.0082.0061,0,.0049-.0002.0099.0001.0148,0,.0015.0016.0029.0025.0043.001-.0014.0027-.0027.0027-.0042.0003-.0054-.0002-.0109.0004-.0163.0002-.0022.0027-.004.0041-.006.0019.0019.0051.0037.0054.0058.0007.0066.0006.0134.0001.02-.0006.0074-.0064.012-.0137.0115-.0066-.0004-.0113-.0057-.0116-.0133-.0002-.0051,0-.0103,0-.0161Z"/>
    <path class="cls-16" d="M1.0267.3978c.0004.0033.0008.0065.0011.0097l-.0009.0002c-.0002-.0006-.0004-.0018-.0006-.0018-.008.0008-.0163-.0068-.0242.0011-.0013.0013-.0046.0024-.0052.0016-.0037-.0044-.0078-.0013-.0115-.0011-.0078.0003-.0156.0017-.0234.0029-.0054.0008-.0109.0013-.016.0033-.0102.004-.02.0013-.0301,0-.0067-.0009-.0137-.0001-.0205-.0003-.003,0-.0061-.0007-.0103-.0012.0016-.0014.0022-.0023.0028-.0024.0048-.0007.0096-.0015.0144-.0017.0082-.0003.0163,0,.0245-.0002.0083-.0001.0166.0003.0247-.0007.0118-.0015.0235-.0042.0352-.0063.0057-.001.0114-.0025.0172-.003.0072-.0005.0145-.0001.0226-.0001Z"/>
    <path class="cls-16" d="M.5696.3993c-.0095.004-.0188.0095-.0287.0116-.0091.0019-.0189.0002-.0284,0-.0013,0-.0026-.0003-.0038-.0002-.0102.0012-.0206.0044-.0305.003-.01-.0014-.0198.0001-.0296-.0006-.0038-.0003-.0075-.0019-.0125-.0032-.0004-.0021-.001-.0055-.0016-.0089l.0012-.0003c.0002.0008.0005.0024.0006.0024.008-.0009.0159.0076.024.0002.001-.0009.0038-.0009.0049,0,.005.0037.0101.0029.0154.0014.0014-.0004.0032-.0006.0045,0,.0125.0053.0247.0017.0369-.0014.0017-.0004.0036-.0005.0052,0,.012.0035.0233.001.0344-.0043.0023-.0011.0049-.0014.0074-.0021.0002.0008.0004.0015.0006.0023Z"/>
    <path class="cls-16" d="M.6026.404c.0003-.0121.0096-.022.0202-.0215.0111.0005.0194.0107.019.0236-.0003.0124-.009.0214-.0202.0211-.0114-.0003-.0194-.01-.019-.0232ZM.6304.3957h-.0194c-.0047.0074-.0044.0151.0017.0213.0054.0056.0136.0057.019.0002.0057-.0058.0067-.0147.0022-.0213-.0017-.0025-.0043-.0042-.0065-.0063-.0003.0004-.0005.0008-.0008.0012.0009.0012.0019.0025.0038.005Z"/>
    <path class="cls-16" d="M.8465.386c0,.0064.0003.0128-.0002.0192-.0002.0022-.0025.0042-.0039.0063-.0018-.002-.005-.0039-.0051-.006-.0006-.0083-.0004-.0168,0-.0252,0-.0017.0018-.0046.0029-.0047.0054-.0005.0111-.0011.0162.0003.0024.0006.0051.0053.0055.0085.0008.0068.0006.0138,0,.0207-.0002.0024-.0029.0045-.0044.0068-.0018-.0021-.0047-.0039-.0051-.0063-.0008-.0053,0-.0109-.0005-.0162-.0002-.0018-.0022-.0035-.0033-.0052-.0007.0006-.0014.0012-.0022.0018Z"/>
    <path class="cls-16" d="M.6971.3835c-.0017.0005-.0036.0018-.0051.0014-.0023-.0007-.0044-.0026-.0065-.004.0017-.002.0031-.0049.0051-.0057.0028-.001.0061-.0008.009,0,.0023.0006.005.0021.0065.0042.0034.0047.0028.0246-.0015.028-.0034.0027-.0088.005-.0122.0037-.0038-.0014-.0076-.0067-.0089-.0112-.0017-.0056.0022-.0095.0071-.0113.0023-.0008.0047-.0015.0071-.0022-.0002-.0009-.0004-.0019-.0005-.0028Z"/>
    <path class="cls-16" d="M.8235.3837c-.0015.0003-.0031.001-.0046.0009-.002,0-.0044-.0001-.0059-.0013-.0009-.0007-.0015-.0044-.0008-.0051.0015-.0017.0038-.0028.0059-.0033.0025-.0005.0054-.0007.0078.0001.0025.0009.0066.003.0067.0048.0004.0087.0009.0178-.0009.026-.0013.0059-.008.0078-.0127.0053-.0038-.002-.0074-.0068-.0089-.0113-.0018-.0052.0014-.0094.0062-.0112.0026-.0009.0052-.0017.0078-.0026-.0001-.0008-.0003-.0017-.0004-.0025Z"/>
    <polygon class="cls-16" points=".8741 .4093 .8688 .4131 .865 .4084 .869 .405 .8741 .4093"/>
  </g>
  <path class="cls-10" d="M1.0675.9015c.0049-.0156.0418-.0297.0385-.0506s-.0132-.0374-.0264-.0341-.0319.0055-.0396-.0077-.0143-.0011-.0198.0066-.0077,0-.0132-.0099-.0088-.0088-.0187-.0044-.0253.0066-.0352-.0121-.0363-.022-.0528-.0165-.022-.0197-.0352-.0363c-.0044-.0055-.0077-.0165-.0231-.011s-.0319.0121-.0495-.0055-.0209.0033-.0209.0033c-.0011-.0385-.0275-.033-.0363-.0319s-.0154.0319-.0231.0231-.0121-.0154-.0286-.0088-.0066.022-.011.033-.0066.0143-.0176.0066-.0242.0011-.0396.0088-.0088.0264-.0253.022-.0528-.0022-.0572.0055-.011.0176-.0297.0099-.0121.0033-.022.0099-.0154.0022-.0341.0011-.0187.0099-.0281.0191-.0093.0215-.0181.0259-.0143-.0022-.0286.0055,0,.0319,0,.0319c0,0,.0209.0286.0495.0385s.1966.033.3134.033c.1737,0,.2408-.0198.3002-.0286,0,0,.0253-.0055.0319-.0264Z"/>
  <path class="cls-17" d="M.4341.8674c.0042-.0066.0242.0011.0297-.0077s.0132-.0143.0231-.0132.022.0066.0341.0165.0198.0088.0308.0033.0418-.0242.0462-.0308.0253-.0011.0297.0066.0242.0077.0253-.0077.0099-.022.0143-.0242.0242-.0044.0363.0121.0099-.0066.0132-.0099.0044-.0044.0088-.0044.0264-.0022.0484.0253.0154-.011.0297-.0044.0264.0121.0352.0198.0341.0165.0451.0088.0396-.0044.0396.0132.0077.0209.0165.0154.022-.0022.022.0066v.0088h.0154c.0099-.0044.033-.0198.0429-.0044s.033,0,.0396-.0055.0176-.0253.0242-.0198.0011.0176-.0088.0253-.0088.0198-.0187.0242-.166.0407-.331.0352-.3079-.0286-.3222-.0407-.0286-.0319-.0143-.0385l.0143-.0066s.0231.0088.0308-.0033Z"/>
  <path class="cls-8" d="M.3891.8773s-.0206-.0112-.0035-.0194.0259.0007.0304-.0081.0059-.0259.0141-.0259.0126-.0111.0163-.0133.0096.0007.0156.0015.0119.0156.0074.0178c-.0089-.0104-.0219-.0244-.0289.0015-.0074.0274-.0185.04-.0207.0415s-.0089.0022-.0089.0022c0,0,.0004-.022-.0216.0024Z"/>
  <path class="cls-8" d="M.4581.8468s-.0133,0-.0119-.0111.0141-.0081.0163-.0037l.0022.0044s.0148.0037.017-.0052-.0052-.0185-.0052-.0185c0,0,.0111-.0037.0141-.0096s.0104-.0059.017-.0015.0222.0193.0222.0274c0,0-.0178-.0222-.0296-.0178s-.0074.017-.0074.017c0,0,.0074-.0111.0148-.0067s.0096.0252-.0022.0311c0,0,.0022-.0252-.0096-.017,0,0-.0281.0148-.0378.0111Z"/>
  <path class="cls-8" d="M.521.863s.0082-.014.0038-.0244c0,0,.0104.0059.0111.0141,0,0,.02-.0163-.0096-.0496,0,0,.0104-.0059.0133-.0126s.0407-.0037.0526-.0022c0,0,.0156-.0022.0207-.0133,0,0,.02.0037.0148.0281,0,0,.0104-.0207-.0015-.0407,0,0,.0022-.0148.0222-.0089s.0244.0052.0281-.0015c0,0,.0059.0222-.0126.02s-.0237-.0059-.0237-.0059c0,0,.0044.0156.0252.0163,0,0-.0141.0089-.0252-.0007,0,0,.0074.04-.0104.0452,0,0-.0141.003-.0141-.0237s-.0104-.0074-.0104-.0074c0,0-.0148.0341-.0289.0193s-.0156-.0207-.0296-.0185c0,0-.0089.0052-.003.0156s.0037-.0052.0096-.0052.0089.0052.003.0111-.0059.0185-.0059.0207.0089,0,.0126-.0096.0259-.0052.0104.0059-.023.0126-.0237.023-.0067.0133-.0067.0133c0,0-.0209-.0054-.0223-.0082Z"/>
  <path class="cls-8" d="M.5699.8557s.0378-.0326.0393-.0437c0,0,.0059.0141.0044.0222,0,0-.0333.0074-.0437.0215Z"/>
  <path class="cls-8" d="M.6559.8194s-.0148-.0178-.0037-.0215.0185-.0015.0222-.0081.0244-.0274.0111-.0481c0,0-.0074-.0244.0059-.0281s.0067.0148.02.0193.0215.0119.0244.0207.0044.0296.0244.0252.0311-.0185.0474-.0037-.0096.0237.0289.0311.0444-.0037.0504.0126.003.0274.003.0274c0,0-.0252.0089-.0311.0007s.0133-.0067.0178-.0089-.0096-.0267-.0237-.0185-.0067.017-.0119.017-.0074.0044-.0089-.0089-.0111-.0185-.0207-.0156-.0185.0119-.0237.0185-.0222-.0111-.0222-.0185.0141.0052.0185.0052.0081-.0059.0119-.0126.0096-.0244-.0052-.0281-.0104.0119-.0333.0133-.0259-.0156-.0296-.023-.0148-.02-.0215-.0207c0,0,.0193.0274.0215.0511,0,0-.0141-.0341-.0267-.0378,0,0-.0022.0259-.0156.0348s-.0259.0111-.0259.0111c0,0,.0407-.0007.0437-.0178s.0135.0249.0135.0249c0,0-.0127-.0041-.0135-.0101s-.0126.0067-.023.0074-.0193,0-.0244.0096Z"/>
  <path class="cls-8" d="M.7373.8098l-.0007-.0133s.04.0037.0474-.0089.0081.0126-.0007.0185c0,0-.0348-.0096-.0459.0037Z"/>
  <path class="cls-8" d="M.7233.7246s.0126,0,.02.0244.0222.0207.0311.0156.0341-.0074.043.0015.0481.0215.057.0089c0,0-.0119-.0452-.0281-.0393s-.0511.0052-.0644-.0081c0,0-.0178.0252-.02.0133s.0052-.0459-.0222-.0422c0,0-.0022.0244-.0163.0259Z"/>
  <path class="cls-8" d="M.8366.7964s.0526-.0148.063.0222c0,0,.0052.0193.0044.0237s.0133-.0126.02.0074-.0015.0267.0119.0237.0267-.0207.0319-.0037.0289.02.0356.0052.0111-.0281,0-.0281-.0156.0215-.0222.0156-.0222-.0126-.0356-.0052-.0089-.0333-.0267-.0252-.0037-.0718-.0822-.0356Z"/>
  <path class="cls-8" d="M.9114.7898s.0096.0193.0081.0281.0119-.0081.02.0133.0215.017.0311.0133.0252,0,.0259-.0111.0081-.0289-.0059-.0222-.0244.0096-.0259.0074-.0267-.0215-.0289-.0281.0104.0481.0407.0407c0,0-.0119.0222-.0281.0007s-.0252-.0415-.037-.0422Z"/>
  <path class="cls-8" d="M1.0099.8386s.017.0185.0067.0407c0,0,.0141.0141.0326.003s.023-.0296.0341-.0252c0,0,.0089-.0237,0-.0296,0,0-.0163.0059-.0281-.0007,0,0,.0059.0185.0185.017,0,0-.0193.0207-.0252.0274s-.0207.0015-.0207.0015c0,0,.0274-.0089.0281-.0252,0,0-.0163-.0126-.0222-.0304l-.0082.0098s.0171.0176.0112.0265c0,0-.0156-.0252-.0267-.0252v.0104Z"/>
  <path class="cls-8" d="M.422.9235s-.0203-.0078-.008-.0215.0082-.0096.0315-.0178.0315-.0192.041-.0178.0465.0369.0684.0178.0438-.0424.0711-.0205.041,0,.0438-.0096.0315-.0233.041-.0068.015.0369.0027.0451-.0438-.0068-.0657.0096c0,0,.0178-.0342.0451-.0246,0,0,.0014-.0342-.0109-.0205s-.0137.0328-.0616.0274-.0465.0041-.0588.0123-.041-.0068-.067-.0082-.0588.015-.0588.015c0,0,.0766-.0096.0999.0068s.0328-.0082.0575-.0068.0315.0438.0315.0438l-.0274.0014s.0096-.0315-.0137-.0287-.0342.0219-.0602.0123-.0771-.0295-.1015-.0086Z"/>
  <path class="cls-8" d="M.6165.8992s.0246.0328.0274.0547h.0383s-.0055-.0301.0205-.0219.0162.0205.0402.0232.0268-.0369.0473-.041.0383.0123.0588.0164.041.0068.0451-.0123c0,0-.0274.0096-.0506-.0055s-.0657-.0369-.0889-.0082-.0356-.0068-.0547-.0014-.0342.0246-.0328.0369c0,0-.0315-.0479-.0506-.041Z"/>
  <path class="cls-8" d="M.6931.9553s-.005-.0305.0324.0011l-.0324-.0011Z"/>
  <path class="cls-8" d="M.7738.9553s.0096-.0055.0164-.0205.0315,0,.0492.0068.0533.0096.0643-.0014.0123-.0301.0246-.0356.0027-.0027.0246.0068.0219-.0027.041-.0068.0301.0082.0342.0137l.0041.0055-.0246.0109s.0027-.026-.0178-.0178-.0301.0219-.0479.0068-.026.0246-.026.0246l-.0903.0055s-.0192-.0192-.0301.0027l-.0219-.0014Z"/>
  <path class="cls-8" d="M.6658.8349s.0041-.0246.0246-.0068c0,0-.0274.0164-.0342.0301l.0096-.0233Z"/>
  <path class="cls-8" d="M.7273.8295s.0205.0424.0068.067c0,0,.0233-.0041.0301-.0164s.0629.0027.0739.0178c0,0,.0096-.0383-.0068-.0287,0,0-.0287-.0397-.0233-.0178s-.0178.0109-.0287.0068-.0309.0146-.0309.0146c0,0,.0008-.0338-.0211-.0434Z"/>
  <path class="cls-8" d="M.8518.8691s.0027.0192-.0027.0301.0479.0109.0575.0041.0109-.041-.0041-.0342-.0287.0055-.0328.0041.0109.015.0301.0068c0,0,.0041.015-.0109.015s-.0205.0041-.0369-.026Z"/>
  <g class="cls-24">
    <ellipse class="cls-1" cx=".7426" cy=".1141" rx=".7281" ry=".1031"/>
    <g>
      <ellipse class="cls-9" cx=".7397" cy=".1227" rx=".5656" ry=".0748"/>
      <ellipse class="cls-5" cx=".7397" cy=".1227" rx=".4826" ry=".0599"/>
      <path class="cls-6" d="M1.1295.1704c.0216.0055.0946,0,.0946,0-.0022-.0089-.0492-.0107-.0492-.0107.0082-.0039.0022-.0093.0022-.0093l-.0099.002c.0094-.0079-.0177-.0154-.0177-.0154-.0153.0057-.0094.0169-.0094.0169"/>
      <path class="cls-11" d="M1.0095.1654s-.0129-.0093.0188-.0201.04-.0097.0577-.0093.0436.0004.0494.01c0,0,.0294.0079.0071.0215l-.133-.0021Z"/>
      <g>
        <path class="cls-20" d="M.8428.1377s.0401-.0197.1146-.0127.0859.0415.0859.0415h-.1002s-.1002-.0288-.1002-.0288Z"/>
        <path class="cls-6" d="M.9628.1411s.0457,0,.0651-.008c0,0-.0175.0127-.0525.0154,0,0,.035.0113.0398.0133,0,0-.0495-.0086-.0563-.0113,0,0-.0291.0148-.0427.0154,0,0,.0262-.0139.0243-.0199,0,0-.0416-.0077-.0777-.0068,0,0,.0505-.0053.0806.003l-.0107-.0086s.0068-.0036.0165-.0021.0136.0095.0136.0095Z"/>
      </g>
      <g>
        <path class="cls-6" d="M.2503.1399s-.0188-.0075-.0283-.009c0,0-.0094.0126.0164.0241,0,0-.0153.0003-.02.0053,0,0,.0118.0047.0577.0054l-.0259-.0259Z"/>
        <path class="cls-20" d="M.4327.1399s-.0638-.0308-.1362-.0217c-.1122.0141-.0239.0504-.0239.0504l.1377.0032.0224-.032Z"/>
        <path class="cls-6" d="M.2911.1344s-.0459,0-.0654-.008c0,0,.0176.0127.0527.0154,0,0-.0351.0113-.04.0133,0,0,.0498-.0086.0566-.0113,0,0,.0293.0148.0429.0154,0,0-.0264-.0139-.0244-.0199,0,0,.0418-.0077.0781-.0068,0,0-.0507-.0053-.081.003l.0107-.0086s-.0068-.0036-.0166-.0021-.0137.0095-.0137.0095Z"/>
        <path class="cls-11" d="M.5739.1521s.0215-.0155-.0338-.0227c-.0293-.0086-.0666-.0059-.0904-.0042s-.059.0038-.0604.015c0,0-.0347.0111.0051.0245l.1795-.0127Z"/>
      </g>
      <path class="cls-15" d="M.3463.1705s-.0451-.0104-.0858-.0047c0,0-.0154.0136.0308.0205s.0825.009.0825.009l-.0275-.0248Z"/>
      <ellipse class="cls-12" cx=".7468" cy=".1815" rx=".443" ry=".0352"/>
      <ellipse class="cls-14" cx=".7409" cy=".1765" rx=".443" ry=".032"/>
      <path class="cls-10" d="M1.0884.1908c.0053-.0051.0447-.0097.0412-.0165s-.0141-.0122-.0283-.0111-.0341.0018-.0424-.0025-.0153-.0004-.0212.0022-.0082,0-.0141-.0032-.0094-.0029-.02-.0014-.0271.0022-.0377-.0039-.0388-.0072-.0565-.0054-.0235-.0064-.0377-.0118c-.0047-.0018-.0082-.0054-.0247-.0036s-.0341.004-.053-.0018-.0224.0011-.0224.0011c-.0012-.0126-.0294-.0108-.0388-.0104s-.0165.0104-.0247.0075-.0129-.005-.0306-.0029-.0071.0072-.0118.0108-.0071.0047-.0188.0022-.0259.0004-.0424.0029-.0094.0086-.0271.0072-.0565-.0007-.0612.0018-.0118.0057-.0318.0032-.0129.0011-.0235.0032-.0165.0007-.0365.0004-.02.0032-.0301.0063-.01.007-.0194.0085-.0153-.0007-.0306.0018,0,.0104,0,.0104c0,0,.0224.0093.053.0126s.2105.0108.3355.0107c.186,0,.2578-.0065.3214-.0094,0,0,.0271-.0018.0341-.0086Z"/>
      <path class="cls-17" d="M.4104.1798c.0045-.0021.0259.0004.0318-.0025s.0141-.0047.0247-.0043.0235.0022.0365.0054.0212.0029.033.0011.0447-.0079.0494-.0101.0271-.0004.0318.0022.0259.0025.0271-.0025.0106-.0072.0153-.0079.0259-.0014.0388.0039.0106-.0022.0141-.0032.0047-.0014.0094-.0014.0283-.0007.0518.0083.0165-.0036.0318-.0014.0283.0039.0377.0065.0365.0054.0483.0029.0424-.0014.0424.0043.0082.0068.0177.005.0235-.0007.0235.0022v.0029h.0165c.0106-.0014.0353-.0065.0459-.0014s.0353,0,.0424-.0018.0188-.0083.0259-.0065.0012.0057-.0094.0083-.0094.0065-.02.0079-.1777.0133-.3543.0115-.3296-.0093-.3449-.0132-.0306-.0104-.0153-.0126l.0153-.0022s.0247.0029.033-.0011Z"/>
      <path class="cls-8" d="M.387.183s-.0206-.0037-.0035-.0063.0259.0002.0304-.0027.0059-.0085.0141-.0085.0126-.0036.0163-.0044.0096.0002.0156.0005.0119.0051.0074.0058c-.0089-.0034-.0219-.008-.0289.0005-.0074.009-.0185.0131-.0207.0135s-.0089.0007-.0089.0007c0,0,.0004-.0072-.0216.0008Z"/>
      <path class="cls-8" d="M.436.1731s-.0143,0-.0127-.0036.0151-.0027.0174-.0012l.0024.0015s.0159.0012.0182-.0017-.0056-.006-.0056-.006c0,0,.0119-.0012.0151-.0031s.0111-.0019.0182-.0005.0238.0063.0238.0089c0,0-.019-.0073-.0317-.0058s-.0079.0056-.0079.0056c0,0,.0079-.0036.0159-.0022s.0103.0082-.0024.0102c0,0,.0024-.0082-.0103-.0056,0,0-.0301.0048-.0404.0036Z"/>
      <path class="cls-8" d="M.5033.1783s.0088-.0046.004-.008c0,0,.0111.0019.0119.0046,0,0,.0214-.0053-.0103-.0162,0,0,.0111-.0019.0143-.0041s.0436-.0012.0563-.0007c0,0,.0167-.0007.0222-.0044,0,0,.0214.0012.0159.0092,0,0,.0111-.0068-.0016-.0133,0,0,.0024-.0048.0238-.0029s.0262.0017.0301-.0005c0,0,.0063.0073-.0135.0065s-.0254-.0019-.0254-.0019c0,0,.0048.0051.027.0053,0,0-.0151.0029-.027-.0002,0,0,.0079.0131-.0111.0148,0,0-.0151.001-.0151-.0077s-.0111-.0024-.0111-.0024c0,0-.0159.0111-.0309.0063s-.0167-.0068-.0317-.006c0,0-.0095.0017-.0032.0051s.004-.0017.0103-.0017.0095.0017.0032.0036-.0063.006-.0063.0068.0095,0,.0135-.0031.0278-.0017.0111.0019-.0246.0041-.0254.0075-.0071.0044-.0071.0044c0,0-.0223-.0017-.0239-.0027Z"/>
      <path class="cls-8" d="M.5557.1759s.0404-.0106.042-.0143c0,0,.0063.0046.0048.0073,0,0-.0357.0024-.0468.007Z"/>
      <path class="cls-8" d="M.6477.1641s-.0159-.0058-.004-.007.0198-.0005.0238-.0027.0262-.009.0119-.0157c0,0-.0079-.008.0063-.0092s.0071.0048.0214.0063.023.0039.0262.0068.0048.0097.0262.0082.0333-.0061.0507-.0012-.0103.0077.0309.0102.0476-.0012.0539.0041.0032.0089.0032.0089c0,0-.027.0029-.0333.0002s.0143-.0022.019-.0029-.0103-.0087-.0254-.006-.0071.0056-.0127.0056-.0079.0015-.0095-.0029-.0119-.006-.0222-.0051-.0198.0039-.0254.0061-.0238-.0036-.0238-.006.0151.0017.0198.0017.0087-.0019.0127-.0041.0103-.008-.0056-.0092-.0111.0039-.0357.0044-.0278-.0051-.0317-.0075-.0159-.0065-.023-.0068c0,0,.0206.0089.023.0167,0,0-.0151-.0111-.0285-.0123,0,0-.0024.0085-.0167.0114s-.0278.0036-.0278.0036c0,0,.0436-.0002.0468-.0058s.0144.0081.0144.0081c0,0-.0136-.0014-.0144-.0033s-.0135.0022-.0246.0024-.0206,0-.0262.0031Z"/>
      <path class="cls-8" d="M.7349.1609l-.0008-.0044s.0428.0012.0507-.0029.0087.0041-.0008.006c0,0-.0373-.0031-.0492.0012Z"/>
      <path class="cls-8" d="M.7199.1331s.0135,0,.0214.008.0238.0068.0333.0051.0365-.0024.046.0005.0515.007.0611.0029c0,0-.0127-.0148-.0301-.0128s-.0547.0017-.069-.0027c0,0-.019.0082-.0214.0044s.0055-.015-.0238-.0138c0,0-.0024.008-.0174.0085Z"/>
      <path class="cls-8" d="M.8412.1566s.0563-.0048.0674.0072c0,0,.0056.0063.0048.0077s.0143-.0041.0214.0024-.0016.0087.0127.0077.0285-.0068.0341-.0012.0309.0065.0381.0017.0119-.0092,0-.0092-.0167.007-.0238.0051-.0238-.0041-.0381-.0017-.0095-.0109-.0285-.0082-.004-.0235-.088-.0116Z"/>
      <path class="cls-8" d="M.9213.1544s.0103.0063.0087.0092.0127-.0027.0214.0044.023.0056.0333.0044.027,0,.0278-.0036.0087-.0094-.0063-.0073-.0262.0031-.0278.0024-.0285-.007-.0309-.0092.0111.0157.0436.0133c0,0-.0127.0073-.0301.0002s-.027-.0135-.0396-.0138Z"/>
      <path class="cls-8" d="M1.0268.1703s.0182.006.0071.0133c0,0,.0151.0046.0349.001s.0246-.0097.0365-.0082c0,0,.0095-.0077,0-.0097,0,0-.0174.0019-.0301-.0002,0,0,.0063.006.0198.0056,0,0-.0206.0068-.027.009s-.0222.0005-.0222.0005c0,0,.0293-.0029.0301-.0082,0,0-.0174-.0041-.0238-.0099l-.0088.0032s.0183.0058.012.0087c0,0-.0167-.0082-.0285-.0082v.0034Z"/>
      <path class="cls-8" d="M.3974.1981s-.0217-.0026-.0085-.007.0088-.0031.0337-.0058.0337-.0063.0439-.0058.0498.0121.0732.0058.0469-.0139.0761-.0067.0439,0,.0469-.0031.0337-.0076.0439-.0022.0161.0121.0029.0147-.0469-.0022-.0703.0031c0,0,.019-.0112.0483-.008,0,0,.0015-.0112-.0117-.0067s-.0146.0107-.0659.0089-.0498.0013-.063.004-.0439-.0022-.0718-.0027-.063.0049-.063.0049c0,0,.082-.0031.1069.0022s.0351-.0027.0615-.0022.0337.0143.0337.0143l-.0293.0004s.0102-.0103-.0146-.0094-.0366.0072-.0644.004-.0825-.0096-.1086-.0028Z"/>
      <path class="cls-8" d="M.6056.1902s.0264.0107.0293.0179h.041s-.0059-.0098.022-.0072.0173.0067.0431.0076.0287-.0121.0506-.0134.041.004.063.0054.0439.0022.0483-.004c0,0-.0293.0031-.0542-.0018s-.0703-.0121-.0952-.0027-.0381-.0022-.0586-.0004-.0366.008-.0351.0121c0,0-.0337-.0156-.0542-.0134Z"/>
      <path class="cls-8" d="M.6876.2085s-.0053-.01.0347.0004l-.0347-.0004Z"/>
      <path class="cls-8" d="M.774.2085s.0103-.0018.0176-.0067.0337,0,.0527.0022.0571.0031.0688-.0005.0132-.0098.0264-.0116.0029-.0009.0264.0022.0234-.0009.0439-.0022.0322.0027.0366.0045l.0044.0018-.0264.0036s.0029-.0085-.019-.0058-.0322.0072-.0513.0022-.0278.008-.0278.008l-.0966.0018s-.0205-.0063-.0322.0009l-.0234-.0004Z"/>
      <path class="cls-8" d="M.6583.1692s.0044-.008.0264-.0022c0,0-.0293.0054-.0366.0098l.0102-.0076Z"/>
      <path class="cls-8" d="M.7242.1674s.022.0138.0073.0219c0,0,.0249-.0013.0322-.0054s.0674.0009.0791.0058c0,0,.0102-.0125-.0073-.0094,0,0-.0308-.013-.0249-.0058s-.019.0036-.0308.0022-.033.0048-.033.0048c0,0,.0008-.011-.0226-.0142Z"/>
      <path class="cls-8" d="M.8575.1803s.0029.0063-.0029.0098.0513.0036.0615.0013.0117-.0134-.0044-.0112-.0308.0018-.0351.0013.0117.0049.0322.0022c0,0,.0044.0049-.0117.0049s-.022.0013-.0395-.0085Z"/>
    </g>
    <g>
      <polyline class="cls-22" points=".5048 .0446 .5046 .0571 .5904 .0669 .9164 .0701 1.0023 .062 1.0024 .0495"/>
      <polygon class="cls-22" points=".6688 .0328 .5475 .0316 .4616 .0397 .4615 .0522 .5472 .062 .6685 .0632 .7545 .0551 .7546 .0426 .6688 .0328"/>
      <polygon class="cls-22" points=".9609 .0357 .8395 .0345 .7536 .0425 .7535 .0551 .8392 .0648 .9606 .066 1.0465 .058 1.0466 .0454 .9609 .0357"/>
      <polygon class="cls-23" points=".6592 .0351 .557 .0341 .4847 .0409 .4846 .0515 .5568 .0597 .659 .0607 .7313 .0539 .7314 .0433 .6592 .0351"/>
      <polygon class="cls-23" points=".9508 .038 .8486 .037 .7763 .0438 .7762 .0543 .8484 .0625 .9506 .0635 1.0229 .0568 1.023 .0462 .9508 .038"/>
    </g>
    <g id="YQYiUM-2" data-name="YQYiUM">
      <g>
        <g>
          <path class="cls-16" d="M.8379.1105c-.0055.0012-.0114.0023-.0165.0035.0051-.0012.011-.0023.0166-.0035h0Z"/>
          <polygon class="cls-16" points=".664 .1203 .6626 .1203 .6626 .1203 .664 .1203"/>
          <path class="cls-7" d="M.7772.1203c-.0006.0001-.0012.0002-.0017.0004.0005-.0001.0011-.0002.0017-.0004Z"/>
          <path class="cls-7" d="M.7747.1209s-.001.0002-.0014.0003c.0004-.0001.0009-.0002.0014-.0003Z"/>
          <path class="cls-7" d="M.779.1199c-.0006.0001-.0013.0003-.0019.0004.0006-.0001.0012-.0003.0019-.0004Z"/>
          <path class="cls-7" d="M.6622.1201s.0002.0001.0003.0002c0,0-.0002-.0001-.0003-.0002Z"/>
          <path class="cls-7" d="M.779.1199c.0164-.0034.0496-.0088.0589-.0095h0c-.0092.0006-.0425.0061-.0589.0095Z"/>
          <polygon class="cls-7" points=".6626 .1203 .6625 .1203 .6626 .1203 .6626 .1203"/>
        </g>
        <path class="cls-16" d="M1.04.1115c-.0011,0-.0031-.0001-.0041,0-.0016.0001-.0026.0004-.0038.0006-.0128.0022-.0254.0045-.0385.0066-.0041.0007-.0097.0012-.0147.0018-.0007,0-.0014-.0002-.0021-.0002.0017-.0005.0037-.001.0052-.0015.0032-.0011.007-.0021.0089-.0032.0023-.0013-.0043-.0024-.0131-.0026-.0135.0029-.0295.0053-.0487.0074-.0002-.0006,0-.0011.0019-.0015.0083-.0016.0164-.0033.0259-.0048.0104-.0016.0215-.0032.0377-.0037.0008,0,.0018-.0005.0015-.0006-.0037-.0019-.0128-.0032-.0284-.0021-.0038.0003-.0076.0006-.0111.0009-.0162.0017-.03.0037-.0406.0061-.0088.002-.0201.0036-.0324.0051-.003.0004-.0066.0006-.0099.0009-.0007,0-.0013-.0002-.002-.0002.0026-.0007.0049-.0014.0078-.0021.0103-.0023.0207-.0046.0312-.0069.0047-.001.0042-.0021.0009-.0031-.0038-.0012-.0086-.0014-.0161-.0006-.0052.0005-.01.0012-.0149.0018-.0046.0006-.0091.0012-.0152.002.0038-.0015.0022-.0025-.003-.0035-.0042-.0008-.0083-.0009-.0138-.0003-.0058.0006-.0115.0013-.0167.002-.0072.001-.0139.0021-.0207.0032-.0005,0-.001-.0001-.0016-.0002.0073-.003.003-.0055-.0097-.0057-.0023.0009-.0034.0019-.0072.0027-.0128.0026-.0262.0051-.0401.0076-.0061.0011-.0141.002-.0216.0029-.0016.0002-.0053.0003-.0068.0001-.0015-.0001-.0021-.0006-.0019-.0009.0003-.0004.0015-.0008.0028-.0011.0041-.001.0085-.002.0127-.0031.0046-.0011.0097-.0022.0137-.0034.0045-.0013.0012-.0033-.0061-.004-.0054-.0005-.0086-.0004-.0102.0005-.0008.0004-.0017.0008-.003.0012-.0097.0029-.0244.0052-.0396.0075-.0076.0012-.0163.0022-.0247.0032-.0009.0001-.0024.0001-.0038.0001-.0005,0-.001,0-.0014,0h0s0,0-.0001,0c0,0-.0002-.0001-.0003-.0002-.0003-.0002-.0005-.0003-.0002-.0005.0018-.0008.0035-.0016.0063-.0023.0153-.0038.0321-.0076.046-.0115.0072-.002.0159-.0027.0307-.0023.0044.0001.0063.0002.0074.0009.0011.0007.0045.0014.0079.002.0024.0004.0057.0003.0081-.0002.0053-.0011.0108-.0021.0162-.0032.0025-.0005.0032-.001.0003-.0015-.0084-.0015-.0216-.0015-.0298,0-.0004,0-.0009.0001-.001.0001-.0074,0-.0144-.0002-.0216-.0002.002-.0008.0041-.0014.0055-.0021.0028-.0015-.0039-.0033-.0135-.0039-.0031-.0002-.0052-.0002-.0068.0004-.0047.0018-.01.0035-.0155.0052-.0009.0003-.0041.0006-.0062.0006-.0089,0-.0177-.0001-.0268-.0002.0021-.0007.0041-.0014.0055-.002.0033-.0015-.003-.0034-.0129-.004-.0027-.0002-.0053-.0004-.0071.0003-.0049.0018-.0104.0036-.0159.0054-.0007.0002-.0026.0005-.0041.0005-.0083.0001-.0166.0002-.0254.0002,0-.0014.0007-.0026-.0001-.0038-.0017-.0027-.0148-.0046-.0338-.0048-.0092,0-.019.0002-.0279.0006-.0177.0008-.0315.0025-.0437.0044-.0112-.0013-.0225-.0013-.035,0-.0126.0013-.0224.003-.0308.0049-.0182.004-.0284.0083-.0218.0132.0049.0036.021.006.0451.0065.0193.0004.0369-.0004.0528-.0018.0392-.0036.0654-.0087.0844-.0146.0027-.0009.0033-.0021.0078-.0025.0046-.0005.0129-.0002.0195-.0002.0006,0,.0012,0,.0025,0-.0015.0004-.0029.0008-.0043.0011-.0107.0027-.0217.0054-.0318.0082-.006.0016-.0115.0033-.0153.0051-.0026.0012-.0009.0026.0076.0034.0084.0008.0168.0004.0237-.0005.0091-.0011.0177-.0023.0264-.0035.0026-.0004.005-.0008.0074-.0011-.0002.0006-.0014.001-.0022.0015-.0024.0013.0013.003.0078.0037.0066.0006.015.0005.0243-.0005.0072-.0008.0138-.0017.0205-.0026.0033-.0004.0062-.0009.0083-.0013.0015.0012.002.0024.0049.0034.0036.0013.0132.0017.0221.001.0051-.0004.0098-.0009.0141-.0014.005-.0006.0094-.0014.0151-.0022-.0018.0021.0044.0038.0134.0039.0006-.0002.0016-.0005.0029-.0008.0004-.0001.0009-.0002.0014-.0003.0002,0,.0005-.0001.0008-.0002.0005-.0001.0011-.0002.0017-.0004s.0012-.0003.0019-.0004c.0164-.0034.0497-.0089.0589-.0095h0s0,0,0,0c-.0055.0012-.0114.0023-.0166.0035-.0007.0002-.0015.0003-.0021.0005-.0047.0012-.0089.0024-.0117.0037-.0029.0013.0035.0031.0107.0037.0056-.0015.0104-.0031.0171-.0045.0068-.0014.0149-.0028.0234-.004.0082-.0012.0177-.0022.0266-.0033-.0083.0021-.0171.0041-.0254.0061-.0054.0013-.0057.0027-.0023.0042.0034.0014.0107.0019.0203.0012.004-.0003.0079-.0006.0113-.001.0053-.0006.0101-.0013.0154-.0019.0015.0015.006.0027.0159.0032.009.0005.0135-.0007.019-.0013.0056-.0007.0104-.0014.0158-.0022.0001.0001.0004.0002.0002.0003-.0024.0014.003.0024.0105.0031.0074.0007.0135,0,.0194-.0006.0007,0,.0014-.0002.002-.0002.0206-.0025.0363-.0055.0519-.0086.0005,0,.001-.0002.0011-.0003,0-.0002.0001-.0004-.0005-.0005ZM.5096.1195c-.0094.0009-.0196.0015-.0311.0017-.0134.0002-.0221-.0004-.0278-.0021-.0084-.0026-.0089-.0053-.0019-.0079.0096-.0036.0276-.0063.0487-.0088.0079.0053.0249.0088.0696.0071-.0153.004-.0319.0075-.0576.01ZM.5879.1015c-.0056-.0004-.0108-.0008-.0162-.0012-.0025.0013.0013.0021.0147.0033-.0031.0012-.0062.0023-.0094.0035-.0003.0001-.0009.0002-.0016.0003-.0109.0008-.0223.0014-.0346.0009-.0113-.0005-.0156-.0019-.0184-.0034-.0057-.003.0144-.0059.0331-.0067.0031-.0001.0063-.0002.0095-.0003.0178-.0003.0261.0009.023.0036ZM.6012.1205l-.0029-.0002c.0009-.0006.0009-.0012.0027-.0017.0075-.0021.0151-.0042.0233-.0063.0111-.0028.0228-.0055.0342-.0083.0016-.0004.0028-.0005.0064-.0005.0084.0002.017.0002.0262.0002-.0229.0064-.0487.0124-.0899.0167Z"/>
      </g>
    </g>
    <g>
      <path class="cls-16" d="M.6692.0895c-.0092.0003-.0097.0002-.0103-.0016-.0002-.0006-.0006-.0012-.0021-.0018-.0008.0006-.0011.0013-.0026.0018-.0016.0006-.0043.0011-.0065.0017-.002-.0005-.0045-.001-.0059-.0016-.0015-.0006-.002-.0013-.0041-.0019,0,.0009,0,.0017,0,.0026-.0002.0025-.0091.0046-.0225.0053-.0134.0007-.0281-.0002-.0359-.0023-.0074-.002-.0067-.0046.0018-.0065.0086-.0019.024-.0026.0369-.0017.0051.0004.0053.0004.005.0016-.0078-.0007-.0156-.0012-.0244-.0007-.0142.0008-.0219.0034-.0169.0057.0054.0025.0211.0037.0353.0026.0135-.0011.0185-.0037.0127-.0061-.0024-.001-.0028-.0022-.0025-.0033.0002-.0005.0043-.0012.007-.0013.0027,0,.007.0004.0088.0009.0024.0006.003.0015.005.0026.0017-.001.0029-.0016.004-.0023.0014-.0008.0042-.0014.0093-.0012.0054.0001.0077.0008.0078.0017.0001.0019,0,.0038,0,.0057Z"/>
      <path class="cls-16" d="M.7645.0853c-.0004.0007-.0023.0015-.0007.002.0018.0005.0068.0009.0103.0009.0049,0,.0076-.0008.0075-.0017,0-.0011-.0005-.0023.0002-.0034.0003-.0005.0033-.0009.005-.0013.0019.0003.0049.0007.0054.0011.0007.0007.0028.0008.0059.0008.0082,0,.0105.0005.0106.0019.0001.001.0005.0021-.0002.0031-.0004.0005-.0033.0009-.005.0013-.0017-.0004-.0045-.0008-.0048-.0013-.0007-.001-.0002-.0021-.0002-.0031-.0065-.0004-.006.0003-.006.0009-.0002.0019-.0062.0032-.0165.0036-.0129.0006-.026-.0015-.0245-.0038.001-.0017.0106-.003.0199-.0027.002,0,.0048.0002.0055.0005.0014.0005.0024.0012.002.0018-.0002.0003-.004.0008-.0056.0007-.0026,0-.0047-.0006-.007-.0009l-.0019-.0003Z"/>
      <path class="cls-16" d="M.7214.0846l-.0076.0005c0,.0011.0004.0022-.0002.0033-.0002.0004-.0027.001-.0047.0011-.0042.0002-.0055-.0004-.0054-.0011,0-.0011-.0002-.0022,0-.0033.0005-.0016.0081-.0023.0162-.0016.001,0,.0026,0,.0037,0,.006-.0005.0088-.0002.0089.0011,0,.0008-.0002.0017.0002.0025.0001.0003.0017.0005.0027.0007.001-.0002.0029-.0005.003-.0007.0004-.0009-.0003-.0019.0004-.0028.0003-.0004.0029-.0007.0045-.001.002.0003.0056.0006.0059.001.0008.0011.0007.0023.0001.0034-.0006.0013-.007.0021-.015.002-.0072,0-.0124-.001-.0126-.0023-.0002-.0009,0-.0018,0-.0028Z"/>
      <path class="cls-16" d="M1.0485.0874c.0004.0006.0008.0011.0012.0017h-.001s-.0005-.0003-.0006-.0003c-.0088.0001-.0178-.0012-.0265.0002-.0014.0002-.0051.0004-.0057.0003-.004-.0008-.0085-.0002-.0126-.0002-.0085,0-.0171.0003-.0255.0005-.0059.0001-.0119.0002-.0175.0006-.0111.0007-.0219.0002-.0329,0-.0074-.0002-.0149,0-.0224,0-.0033,0-.0067-.0001-.0113-.0002.0018-.0002.0024-.0004.0031-.0004.0052-.0001.0105-.0003.0157-.0003.0089,0,.0179,0,.0268,0,.009,0,.0181,0,.0271-.0001.0129-.0003.0257-.0007.0385-.0011.0063-.0002.0125-.0004.0188-.0005.0079,0,.0158,0,.0247,0Z"/>
      <path class="cls-16" d="M.5486.0877c-.0104.0007-.0206.0016-.0314.002-.01.0003-.0207,0-.031,0-.0014,0-.0028,0-.0042,0-.0111.0002-.0225.0008-.0333.0005-.011-.0002-.0216,0-.0324-.0001-.0041,0-.0082-.0003-.0137-.0006-.0004-.0004-.0011-.0009-.0017-.0015h.0013s.0005.0004.0007.0004c.0087-.0002.0173.0013.0262,0,.0011-.0002.0041-.0002.0054,0,.0055.0006.011.0005.0168.0002.0016,0,.0035-.0001.0049,0,.0137.0009.027.0003.0403-.0002.0018,0,.0039,0,.0057,0,.0131.0006.0255.0002.0376-.0007.0025-.0002.0054-.0002.0081-.0004l.0006.0004Z"/>
      <path class="cls-16" d="M.5848.0885c.0004-.0021.0106-.0038.0221-.0037.0122,0,.0212.0018.0208.004-.0003.0021-.0098.0037-.0221.0036-.0125,0-.0212-.0017-.0208-.004ZM.6151.0871h-.0212c-.0051.0013-.0048.0026.0018.0037.0059.001.0149.001.0208,0,.0062-.001.0074-.0025.0024-.0037-.0019-.0004-.0047-.0007-.0071-.0011l-.0008.0002c.001.0002.002.0004.0041.0009Z"/>
      <path class="cls-16" d="M.8514.0854c0,.0011.0004.0022-.0002.0033-.0002.0004-.0028.0007-.0043.0011-.002-.0003-.0054-.0007-.0056-.001-.0007-.0014-.0004-.0029-.0001-.0043,0-.0003.002-.0008.0032-.0008.0059,0,.0121-.0002.0178,0,.0026.0001.0056.0009.006.0015.0009.0012.0007.0024,0,.0036-.0002.0004-.0031.0008-.0048.0012-.0019-.0004-.0052-.0007-.0056-.0011-.0009-.0009,0-.0019-.0005-.0028-.0002-.0003-.0024-.0006-.0036-.0009l-.0024.0003Z"/>
      <path class="cls-16" d="M.6881.085c-.0019,0-.004.0003-.0056.0002-.0025-.0001-.0048-.0005-.0071-.0007.0018-.0003.0033-.0008.0055-.001.003-.0002.0067-.0001.0099,0,.0026,0,.0054.0004.0071.0007.0037.0008.003.0042-.0016.0048-.0037.0005-.0097.0009-.0134.0006-.0041-.0002-.0083-.0011-.0098-.0019-.0019-.001.0025-.0016.0078-.0019.0026-.0001.0052-.0003.0078-.0004-.0002-.0002-.0004-.0003-.0006-.0005Z"/>
      <path class="cls-16" d="M.8263.085c-.0017,0-.0034.0002-.005.0002-.0022,0-.0048,0-.0065-.0002-.001-.0001-.0016-.0008-.0009-.0009.0016-.0003.0041-.0005.0064-.0006.0028,0,.0059-.0001.0085,0,.0028.0002.0072.0005.0073.0008.0005.0015.001.003-.001.0045-.0014.001-.0088.0013-.0139.0009-.0041-.0003-.0081-.0012-.0098-.0019-.002-.0009.0015-.0016.0068-.0019.0028-.0002.0057-.0003.0086-.0004-.0001-.0001-.0003-.0003-.0004-.0004Z"/>
      <polygon class="cls-16" points=".8817 .0894 .8759 .0901 .8717 .0893 .8761 .0887 .8817 .0894"/>
    </g>
  </g>
</svg>