<?xml version="1.0" encoding="UTF-8"?>
<svg id="Layer_1" data-name="Layer 1" xmlns="http://www.w3.org/2000/svg" xmlns:xlink="http://www.w3.org/1999/xlink" version="1.1" viewBox="0 0 1.25 1">
  <defs>
    <style>
      .cls-1 {
        fill: #282828;
      }

      .cls-1, .cls-2, .cls-3, .cls-4, .cls-5, .cls-6, .cls-7, .cls-8, .cls-9, .cls-10, .cls-11, .cls-12, .cls-13, .cls-14, .cls-15, .cls-16, .cls-17, .cls-18, .cls-19 {
        stroke-width: 0px;
      }

      .cls-2 {
        fill: #dbdcdb;
      }

      .cls-3 {
        fill: #f4da5f;
      }

      .cls-4 {
        fill: #4c4b4b;
      }

      .cls-20 {
        clip-path: url(#clippath);
      }

      .cls-5 {
        fill: none;
      }

      .cls-21 {
        stroke-width: .0026px;
      }

      .cls-21, .cls-22 {
        stroke: #000;
        stroke-miterlimit: 10;
      }

      .cls-21, .cls-18 {
        fill: #fff;
      }

      .cls-6 {
        fill: #dd6e34;
      }

      .cls-7 {
        fill: #e2ae4c;
      }

      .cls-8 {
        fill: #e7cb7f;
      }

      .cls-9 {
        fill: #181818;
      }

      .cls-10 {
        fill: #7a4628;
      }

      .cls-11 {
        fill: #e7b15d;
      }

      .cls-22 {
        stroke-width: .0022px;
      }

      .cls-22, .cls-12 {
        fill: #000;
      }

      .cls-13 {
        fill: #ff8e30;
      }

      .cls-14 {
        fill: #ffc952;
      }

      .cls-15 {
        fill: #e3a357;
      }

      .cls-16 {
        fill: #f4ec68;
      }

      .cls-17 {
        fill: #a06300;
      }

      .cls-19 {
        fill: #fcf8f2;
      }
    </style>
    <clipPath id="clippath">
      <path class="cls-5" d="M.0177.0196l.0823.0043s-.0321.0635.5037.0654c.3162.0011.5355-.0122.5689-.0719l.065.0043.0022.9513s-.0715.0043-.078.0065-.117-.0845-.5352-.0693C.6266.9102.1152.9102.1152.973l-.091.0043L.0177.0196Z"/>
    </clipPath>
  </defs>
  <path class="cls-9" d="M.0177.0196l.0823.0043s-.0321.0635.5037.0654c.3162.0011.5355-.0122.5689-.0719l.065.0043.0022.9513s-.0715.0043-.078.0065-.117-.0845-.5352-.0693C.6266.9102.1152.9102.1152.973l-.091.0043L.0177.0196Z"/>
  <g class="cls-20">
    <path class="cls-4" d="M.1323-.0162l-.0323.0402s.0671.1463.5222.1305c.4734-.0165.567-.0703.5504-.137S.1323-.0162.1323-.0162Z"/>
    <ellipse class="cls-17" cx=".6173" cy=".5213" rx=".3697" ry=".3084"/>
    <ellipse class="cls-13" cx=".6173" cy=".5433" rx=".2908" ry=".2715"/>
    <path class="cls-10" d="M.274.3902s-.117.0038-.1509.0453c0,0,.1283-.0189.3735.0226,0,0-.056-.0457-.0938-.0582-.0833-.0278-.1288-.0097-.1288-.0097Z"/>
    <path class="cls-8" d="M.1533.643s-.0302-.1358-.0302-.2075c0,0,.2301-.0415.3735.0226l.0261.143-.3694.0419Z"/>
    <polygon class="cls-7" points=".9644 .3374 .9003 .3676 1.021 .6478 1.0851 .6619 .9644 .3374"/>
    <polygon class="cls-6" points=".8006 .6993 .9003 .3676 1.021 .6478 .8006 .6993"/>
    <path class="cls-14" d="M.6445.5699l.0558-.1344.3396.117s-.0046.0689-.0306.1156-.3647-.0981-.3647-.0981Z"/>
    <path class="cls-15" d="M.6445.5699l.052-.1193.3169.1094s-.0046.0689-.0306.1156-.3383-.1056-.3383-.1056Z"/>
    <g>
      <path class="cls-2" d="M1.146.7039c0,.0582-.1494.1152-.3473.1507-.0073.0013-.0352.0245-.1706.0245-.151,0-.1322-.0177-.1909-.0285-.1954-.0359-.2999-.0912-.2999-.1466,0-.0737.2258-.1334.5044-.1334s.5044.0597.5044.1334Z"/>
      <ellipse class="cls-19" cx=".6349" cy=".6889" rx=".5044" ry=".1252"/>
      <path class="cls-3" d="M1.0305.7394c.006-.0193.0509-.0367.0469-.0626s-.0161-.0463-.0322-.0422-.0389.0068-.0482-.0095-.0174-.0014-.0241.0082-.0094,0-.0161-.0122-.0107-.0109-.0228-.0054-.0308.0082-.0429-.015-.0442-.0272-.0643-.0204-.0268-.0244-.0429-.0449c-.0054-.0068-.0094-.0204-.0281-.0136s-.0389.015-.0603-.0068-.0255.0041-.0255.0041c-.0013-.0476-.0335-.0408-.0442-.0395s-.0188.0395-.0281.0286-.0147-.0191-.0348-.0109-.008.0272-.0134.0408-.008.0177-.0214.0082-.0295.0014-.0482.0109-.0107.0327-.0308.0272-.0643-.0027-.0697.0068-.0134.0218-.0362.0122-.0147.0041-.0268.0122-.0188.0027-.0415.0014-.0228.0122-.0342.0237-.0113.0267-.0221.0321-.0174-.0027-.0348.0068,0,.0395,0,.0395c0,0,.0255.0354.0603.0476s.2397.0408.382.0408c.2118,0,.2935-.0245.3659-.0354,0,0,.0308-.0068.0389-.0327Z"/>
      <path class="cls-16" d="M.2585.6972c.0051-.0081.0295.0014.0362-.0095s.0161-.0177.0281-.0163.0268.0082.0415.0204.0241.0109.0375.0041.0509-.0299.0563-.0381.0308-.0014.0362.0082.0295.0095.0308-.0095.0121-.0272.0174-.0299.0295-.0054.0442.015.0121-.0082.0161-.0122.0054-.0054.0107-.0054.0322-.0027.059.0313.0188-.0136.0362-.0054.0322.015.0429.0245.0415.0204.0549.0109.0482-.0054.0482.0163.0094.0259.0201.0191.0268-.0027.0268.0082v.0109h.0188c.0121-.0054.0402-.0245.0523-.0054s.0402,0,.0482-.0068.0214-.0313.0295-.0245.0013.0218-.0107.0313-.0107.0245-.0228.0299-.2024.0504-.4034.0435-.3753-.0354-.3927-.0504-.0348-.0395-.0174-.0476l.0174-.0082s.0281.0109.0375-.0041Z"/>
      <path class="cls-11" d="M.2036.7094s-.0251-.0139-.0043-.024.0316.0009.037-.0101.0072-.0321.0172-.0321.0153-.0138.0199-.0165.0117.0009.019.0018.0144.0193.009.022c-.0108-.0128-.0267-.0302-.0352.0018-.009.0339-.0226.0495-.0253.0513s-.0108.0028-.0108.0028c0,0,.0005-.0272-.0264.0029Z"/>
      <path class="cls-11" d="M.2877.6717s-.0163,0-.0144-.0138.0172-.0101.0199-.0046l.0027.0055s.0181.0046.0208-.0064-.0063-.0229-.0063-.0229c0,0,.0135-.0046.0172-.0119s.0126-.0073.0208-.0018.0271.0238.0271.0339c0,0-.0217-.0275-.0361-.022s-.009.0211-.009.0211c0,0,.009-.0138.0181-.0083s.0117.0312-.0027.0385c0,0,.0027-.0312-.0117-.0211,0,0-.0343.0183-.046.0138Z"/>
      <path class="cls-11" d="M.3644.6917s.01-.0173.0046-.0301c0,0,.0126.0073.0135.0174,0,0,.0244-.0202-.0117-.0614,0,0,.0126-.0073.0163-.0156s.0497-.0046.0641-.0028c0,0,.019-.0028.0253-.0165,0,0,.0244.0046.0181.0348,0,0,.0126-.0257-.0018-.0504,0,0,.0027-.0183.0271-.011s.0298.0064.0343-.0018c0,0,.0072.0275-.0153.0248s-.0289-.0073-.0289-.0073c0,0,.0054.0193.0307.0202,0,0-.0172.011-.0307-.0009,0,0,.009.0495-.0126.0559,0,0-.0172.0037-.0172-.0293s-.0126-.0092-.0126-.0092c0,0-.0181.0422-.0352.0238s-.019-.0257-.0361-.0229c0,0-.0108.0064-.0036.0193s.0045-.0064.0117-.0064.0108.0064.0036.0138-.0072.0229-.0072.0257.0108,0,.0153-.0119.0316-.0064.0126.0073-.028.0156-.0289.0284-.0081.0165-.0081.0165c0,0-.0254-.0066-.0272-.0102Z"/>
      <path class="cls-11" d="M.424.6827s.046-.0403.0478-.0541c0,0,.0072.0174.0054.0275,0,0-.0406.0092-.0533.0266Z"/>
      <path class="cls-11" d="M.5288.6378s-.0181-.022-.0045-.0266.0226-.0018.0271-.0101.0298-.0339.0135-.0596c0,0-.009-.0303.0072-.0348s.0081.0183.0244.0238.0262.0147.0298.0257.0054.0367.0298.0312.0379-.0229.0578-.0046-.0117.0293.0352.0385.0542-.0046.0614.0156.0036.0339.0036.0339c0,0-.0307.011-.0379.0009s.0163-.0083.0217-.011-.0117-.033-.0289-.0229-.0081.0211-.0144.0211-.009.0055-.0108-.011-.0135-.0229-.0253-.0193-.0226.0147-.0289.0229-.0271-.0138-.0271-.0229.0172.0064.0226.0064.0099-.0073.0144-.0156.0117-.0303-.0063-.0348-.0126.0147-.0406.0165-.0316-.0193-.0361-.0284-.0181-.0248-.0262-.0257c0,0,.0235.0339.0262.0633,0,0-.0172-.0422-.0325-.0468,0,0-.0027.0321-.019.0431s-.0316.0138-.0316.0138c0,0,.0497-.0009.0533-.022s.0164.0308.0164.0308c0,0-.0155-.0051-.0164-.0125s-.0153.0083-.028.0092-.0235,0-.0298.0119Z"/>
      <path class="cls-11" d="M.6281.6258l-.0009-.0165s.0488.0046.0578-.011.0099.0156-.0009.0229c0,0-.0424-.0119-.056.0046Z"/>
      <path class="cls-11" d="M.6109.5204s.0153,0,.0244.0303.0271.0257.0379.0193.0415-.0092.0524.0018.0587.0266.0695.011c0,0-.0144-.0559-.0343-.0486s-.0623.0064-.0785-.0101c0,0-.0217.0312-.0244.0165s.0063-.0568-.0271-.0523c0,0-.0027.0303-.0199.0321Z"/>
      <path class="cls-11" d="M.7491.6093s.0641-.0183.0767.0275c0,0,.0063.0238.0054.0293s.0163-.0156.0244.0092-.0018.033.0144.0293.0325-.0257.0388-.0046.0352.0248.0433.0064.0135-.0348,0-.0348-.019.0266-.0271.0193-.0271-.0156-.0433-.0064-.0108-.0413-.0325-.0312-.0045-.0889-.1002-.044Z"/>
      <path class="cls-11" d="M.8402.6011s.0117.0238.0099.0348.0144-.0101.0244.0165.0262.0211.0379.0165.0307,0,.0316-.0138.0099-.0358-.0072-.0275-.0298.0119-.0316.0092-.0325-.0266-.0352-.0348.0126.0596.0497.0504c0,0-.0144.0275-.0343.0009s-.0307-.0513-.0451-.0523Z"/>
      <path class="cls-11" d="M.9603.6616s.0208.0229.0081.0504c0,0,.0172.0174.0397.0037s.028-.0367.0415-.0312c0,0,.0108-.0293,0-.0367,0,0-.0199.0073-.0343-.0009,0,0,.0072.0229.0226.0211,0,0-.0235.0257-.0307.0339s-.0253.0018-.0253.0018c0,0,.0334-.011.0343-.0312,0,0-.0199-.0156-.0271-.0376l-.01.0121s.0209.0218.0136.0328c0,0-.019-.0312-.0325-.0312v.0128Z"/>
      <path class="cls-11" d="M.2438.7666s-.0247-.0097-.0097-.0266.01-.0119.0383-.022.0383-.0237.05-.022.0567.0457.0834.022.0534-.0525.0867-.0254.05,0,.0534-.0119.0383-.0288.05-.0085.0183.0457.0033.0559-.0534-.0085-.08.0119c0,0,.0217-.0423.055-.0305,0,0,.0017-.0423-.0133-.0254s-.0167.0406-.075.0339-.0567.0051-.0717.0152-.05-.0085-.0817-.0102-.0717.0186-.0717.0186c0,0,.0934-.0119.1217.0085s.04-.0102.07-.0085.0383.0542.0383.0542l-.0333.0017s.0117-.0389-.0167-.0356-.0417.0271-.0734.0152-.094-.0365-.1237-.0106Z"/>
      <path class="cls-11" d="M.4808.7366s.03.0406.0333.0677h.0467s-.0067-.0372.025-.0271.0197.0253.049.0288.0327-.0457.0577-.0508.0467.0152.0717.0203.05.0085.055-.0152c0,0-.0333.0119-.0617-.0068s-.08-.0457-.1084-.0102-.0433-.0085-.0667-.0017-.0417.0305-.04.0457c0,0-.0383-.0593-.0617-.0508Z"/>
      <path class="cls-11" d="M.5742.806s-.006-.0378.0395.0014l-.0395-.0014Z"/>
      <path class="cls-11" d="M.6725.806s.0117-.0068.02-.0254.0383,0,.06.0085.065.0119.0784-.0017.015-.0372.03-.044.0033-.0034.03.0085.0267-.0034.05-.0085.0367.0102.0417.0169l.005.0068-.03.0135s.0033-.0322-.0217-.022-.0367.0271-.0584.0085-.0317.0305-.0317.0305l-.11.0068s-.0233-.0237-.0367.0034l-.0267-.0017Z"/>
      <path class="cls-11" d="M.5408.657s.005-.0305.03-.0085c0,0-.0333.0203-.0417.0372l.0117-.0288Z"/>
      <path class="cls-11" d="M.6159.6502s.025.0525.0083.083c0,0,.0283-.0051.0367-.0203s.0767.0034.09.022c0,0,.0117-.0474-.0083-.0356,0,0-.035-.0491-.0283-.022s-.0217.0135-.035.0085-.0376.0181-.0376.0181c0,0,.0009-.0418-.0257-.0537Z"/>
      <path class="cls-11" d="M.7676.6993s.0033.0237-.0033.0372.0584.0135.07.0051.0133-.0508-.005-.0423-.035.0068-.04.0051.0133.0186.0367.0085c0,0,.005.0186-.0133.0186s-.025.0051-.045-.0322Z"/>
    </g>
    <g id="YQYiUM">
      <g>
        <g>
          <path class="cls-18" d="M.7187.3272c-.0043.0058-.0089.0115-.0129.0175.004-.006.0086-.0116.0129-.0175h0Z"/>
          <polygon class="cls-18" points=".5831 .3761 .582 .3763 .582 .3763 .5831 .3761"/>
          <path class="cls-12" d="M.6713.3762c-.0005.0006-.0009.0012-.0013.0018.0004-.0006.0009-.0012.0013-.0018Z"/>
          <path class="cls-12" d="M.6694.3789c-.0004.0006-.0008.0011-.0011.0016.0003-.0005.0007-.0011.0011-.0016Z"/>
          <path class="cls-12" d="M.6727.3743c-.0005.0007-.001.0013-.0014.0019.0005-.0006.0009-.0013.0014-.0019Z"/>
          <path class="cls-12" d="M.5816.3748s.0002.0006.0003.001c0-.0003-.0002-.0006-.0003-.001Z"/>
          <path class="cls-12" d="M.6727.3743c.0128-.0167.0387-.0439.0459-.047h0c-.0072.0031-.0331.0303-.046.047Z"/>
          <polygon class="cls-12" points=".582 .3763 .5819 .3758 .582 .3763 .582 .3763"/>
        </g>
        <path class="cls-18" d="M.8764.3326c-.0008-.0005-.0024-.0007-.0032-.0003-.0012.0007-.0021.0019-.003.003-.01.011-.0198.0221-.0301.033-.0032.0034-.0076.006-.0114.0089-.0005-.0004-.0011-.0008-.0016-.0012.0014-.0025.0029-.0049.004-.0074.0025-.0053.0054-.0104.007-.0159.0018-.0066-.0034-.012-.0103-.0127-.0105.0142-.023.0264-.038.0367-.0002-.0028,0-.0054.0015-.0072.0065-.0081.0128-.0163.0202-.0237.0081-.008.0168-.0159.0294-.0184.0006-.0001.0014-.0023.0011-.0032-.0029-.0094-.01-.0158-.0222-.0102-.003.0014-.006.0029-.0087.0046-.0127.0083-.0234.0184-.0317.0302-.0068.0098-.0157.0177-.0253.0251-.0023.0018-.0051.003-.0077.0045-.0005-.0004-.001-.0008-.0016-.0011.002-.0035.0038-.0071.0061-.0104.008-.0115.0161-.023.0243-.0345.0037-.0051.0033-.0103.0007-.0155-.003-.0061-.0067-.0071-.0125-.0031-.004.0027-.0078.0058-.0116.0087-.0036.0029-.0071.0058-.0119.0097.0029-.0072.0017-.0126-.0024-.0175-.0033-.0039-.0065-.0044-.0108-.0015-.0045.0031-.009.0064-.013.01-.0056.005-.0108.0104-.0162.0157-.0004-.0004-.0008-.0007-.0012-.0011.0057-.0151.0023-.0272-.0076-.0281-.0018.0046-.0027.0096-.0056.0134-.01.0129-.0204.0255-.0313.0377-.0048.0054-.011.0098-.0168.0143-.0012.0009-.0041.0014-.0053.0007-.0012-.0007-.0016-.0031-.0015-.0047.0002-.0019.0012-.0038.0022-.0055.0032-.0051.0066-.0102.0099-.0153.0036-.0056.0076-.0111.0107-.0169.0035-.0067.0009-.0162-.0048-.0199-.0042-.0027-.0067-.0018-.008.0026-.0006.002-.0013.0041-.0023.006-.0075.0143-.0191.0259-.0309.0373-.006.0057-.0127.0108-.0193.016-.0007.0005-.0019.0006-.003.0007-.0004,0-.0007,0-.0011.0001h0s0-.0003,0-.0005c0-.0003-.0002-.0006-.0003-.001-.0002-.0008-.0004-.0016-.0002-.0023.0014-.0039.0027-.0078.0049-.0114.012-.0191.025-.0377.0359-.0572.0056-.01.0124-.0133.0239-.0113.0035.0006.0049.0011.0058.0046.0009.0036.0035.007.0061.0099.0018.0021.0044.0014.0063-.001.0041-.0053.0085-.0105.0127-.0157.0019-.0024.0025-.0049.0002-.0075-.0065-.0076-.0169-.0076-.0233,0-.0003.0003-.0007.0006-.0008.0006-.0058-.0004-.0112-.0008-.0169-.0012.0016-.0038.0032-.0071.0043-.0106.0022-.0073-.003-.0166-.0106-.0191-.0024-.0008-.004-.001-.0053.002-.0036.0087-.0078.0173-.0121.0258-.0007.0015-.0032.0031-.0049.0031-.0069,0-.0138-.0007-.0209-.0011.0016-.0037.0032-.0067.0043-.0099.0026-.0075-.0023-.017-.01-.0197-.0021-.0008-.0041-.0018-.0055.0015-.0038.009-.0081.0178-.0124.0266-.0005.0011-.002.0023-.0032.0024-.0065.0006-.013.0008-.0198.0011,0-.0068.0005-.013-.0001-.0191-.0014-.0135-.0115-.0231-.0263-.0238-.0072-.0003-.0148.0009-.0217.0029-.0138.0039-.0245.0123-.0341.0219-.0088-.0064-.0176-.0062-.0273.0003-.0099.0066-.0175.0151-.0241.0243-.0142.02-.0222.0413-.017.0653.0038.0178.0164.0297.0352.0325.0151.0022.0288-.0019.0412-.0091.0306-.0178.051-.043.0658-.0724.0021-.0042.0026-.0103.0061-.0125.0036-.0023.01-.0008.0153-.001.0005,0,.0009.0002.002.0003-.0012.002-.0023.0038-.0034.0056-.0083.0135-.017.0268-.0248.0405-.0047.0081-.009.0166-.0119.0253-.0021.0061-.0007.013.0059.0171.0066.0041.0131.0019.0185-.0023.0071-.0055.0138-.0115.0206-.0174.0021-.0018.0039-.0038.0058-.0057-.0001.0028-.0011.005-.0017.0073-.0019.0066.001.015.0061.0182.0052.0032.0117.0025.019-.0027.0056-.004.0108-.0087.016-.0131.0026-.0022.0048-.0046.0065-.0063.0012.0058.0015.0117.0038.017.0028.0065.0103.0085.0172.0052.004-.0019.0077-.0044.011-.0071.0039-.0031.0074-.0068.0118-.0109-.0014.0106.0034.0189.0105.0194.0005-.0011.0012-.0024.0023-.004.0003-.0005.0007-.0011.0011-.0016.0002-.0003.0004-.0006.0006-.0009.0004-.0006.0009-.0012.0013-.0018.0005-.0006.0009-.0013.0014-.0019.0128-.0167.0388-.044.046-.0471h0s0,0,0,0c-.0043.0058-.0089.0115-.0129.0175-.0006.0009-.0011.0017-.0017.0026-.0037.0059-.0069.0121-.0091.0185-.0022.0065.0027.0156.0083.0185.0044-.0074.0081-.0153.0134-.0222.0053-.0071.0116-.0137.0183-.0198.0064-.0059.0138-.0108.0207-.0162-.0064.0106-.0133.0204-.0198.0305-.0042.0065-.0044.0136-.0018.0206.0026.0071.0083.0093.0158.006.0031-.0014.0061-.0032.0088-.0052.0041-.003.0079-.0063.012-.0097.0011.0074.0047.0132.0124.0157.007.0023.0105-.0034.0148-.0067.0043-.0033.0081-.0071.0123-.0108,0,.0007.0003.0011.0002.0015-.0019.0071.0024.0117.0082.0152.0057.0034.0105,0,.0151-.0029.0006-.0003.0011-.0007.0016-.0011.0161-.0123.0283-.0275.0405-.0427.0004-.0005.0008-.0011.0008-.0016,0-.0008.0001-.0021-.0004-.0024ZM.4626.3722c-.0073.0045-.0153.0075-.0242.0083-.0105.001-.0173-.0019-.0217-.0105-.0065-.0128-.007-.0261-.0014-.0392.0075-.0177.0216-.0311.038-.0438.0062.0263.0195.0437.0543.0354-.0119.02-.0249.0375-.045.0498ZM.5237.2825c-.0043-.0021-.0085-.0041-.0127-.0062-.0019.0064.001.0106.0114.0162-.0024.0057-.0048.0116-.0073.0174-.0002.0005-.0007.0011-.0012.0014-.0085.004-.0174.0071-.027.0043-.0088-.0025-.0122-.0093-.0144-.0168-.0044-.015.0112-.0294.0258-.0331.0024-.0006.0049-.0009.0074-.0012.0139-.0017.0204.0045.0179.018ZM.5341.3772l-.0023-.0009c.0007-.0028.0007-.0058.0021-.0082.0058-.0105.0118-.021.0182-.0313.0087-.0138.0178-.0274.0267-.0411.0012-.0019.0022-.0026.005-.0023.0066.0008.0133.0008.0205.0012-.0178.032-.038.0615-.0701.0827Z"/>
      </g>
    </g>
    <g>
      <path class="cls-18" d="M.5871.203c-.0072.0016-.0076.0012-.008-.0079-.0001-.0029-.0005-.0058-.0017-.0089-.0006.003-.0009.0063-.002.0091-.0012.003-.0033.0055-.005.0082-.0016-.0026-.0035-.005-.0046-.0079-.0012-.0029-.0016-.0063-.0032-.0093,0,.0043,0,.0087,0,.013-.0002.0124-.0071.0228-.0175.0264-.0104.0036-.0219-.001-.028-.0113-.0058-.0097-.0052-.023.0014-.0324.0067-.0095.0187-.013.0288-.0084.004.0018.0041.002.0039.008-.0061-.0034-.0121-.0061-.0191-.0035-.0111.0042-.0171.0167-.0132.0285.0042.0126.0165.0183.0275.0129.0106-.0052.0144-.0182.0099-.0302-.0019-.0049-.0022-.011-.0019-.0164.0001-.0024.0033-.0061.0055-.0065.0021-.0003.0055.0022.0069.0046.0018.0031.0023.0073.0039.0127.0013-.0049.0023-.0081.0031-.0114.0011-.0042.0033-.0067.0073-.0061.0042.0006.006.0039.0061.0084,0,.0094,0,.0189,0,.0285Z"/>
      <path class="cls-18" d="M.6614.1821c-.0003.0033-.0018.0075-.0005.0098.0014.0025.0053.0045.0081.0044.0038-.0001.0059-.0038.0058-.0085,0-.0057-.0004-.0114.0002-.0171.0002-.0023.0026-.0043.0039-.0064.0015.0017.0039.0033.0042.0052.0006.0035.0022.0037.0046.0038.0064.0003.0082.0024.0083.0096,0,.0051.0004.0102-.0002.0152-.0003.0023-.0025.0043-.0039.0064-.0013-.0021-.0035-.0041-.0037-.0063-.0006-.0052-.0002-.0104-.0002-.0156-.0051-.0021-.0046.0014-.0047.0047-.0002.0094-.0048.0159-.0128.0181-.01.0028-.0202-.0073-.0191-.0189.0008-.0084.0083-.0148.0155-.0132.0016.0003.0038.0011.0043.0024.0011.0027.0019.0059.0016.0087-.0002.0015-.0031.004-.0044.0037-.002-.0005-.0036-.0029-.0054-.0045l-.0015-.0014Z"/>
      <path class="cls-18" d="M.6278.179c-.0023.0009-.004.0016-.0059.0023,0,.0055.0003.011-.0002.0164-.0002.002-.0021.0051-.0037.0055-.0033.0008-.0043-.0022-.0042-.0056,0-.0055-.0002-.011,0-.0165.0004-.0081.0063-.0116.0126-.0079.0008.0004.0021.0004.0029,0,.0047-.0023.0069-.0008.007.0052,0,.0042-.0001.0085.0001.0126,0,.0013.0014.0025.0021.0037.0008-.0012.0023-.0023.0023-.0036.0003-.0046-.0002-.0093.0003-.0139.0002-.0019.0023-.0034.0035-.0052.0016.0016.0044.0031.0046.005.0006.0056.0005.0114.0001.017-.0005.0063-.0055.0102-.0117.0099-.0056-.0003-.0097-.0048-.0099-.0113-.0001-.0044,0-.0088,0-.0137Z"/>
      <path class="cls-18" d="M.493.1941c-.0081.0034-.0161.0081-.0245.0099-.0078.0016-.0161.0002-.0242,0-.0011,0-.0022-.0003-.0033-.0001-.0087.001-.0176.0038-.026.0026-.0086-.0012-.0169.0001-.0252-.0005-.0032-.0002-.0064-.0016-.0107-.0028-.0003-.0018-.0008-.0047-.0014-.0076l.001-.0003c.0002.0007.0004.0021.0005.002.0068-.0008.0135.0065.0205.0002.0009-.0008.0032-.0008.0042,0,.0043.0032.0086.0025.0131.0012.0012-.0003.0027-.0005.0039,0,.0107.0045.021.0015.0315-.0012.0014-.0004.003-.0004.0044,0,.0102.003.0199.0009.0294-.0037.002-.0009.0042-.0012.0063-.0018.0002.0007.0003.0013.0005.002Z"/>
      <path class="cls-18" d="M.5212.1982c.0003-.0103.0082-.0187.0173-.0183.0095.0005.0165.0092.0162.0201-.0003.0105-.0076.0182-.0173.018-.0097-.0002-.0165-.0085-.0162-.0198ZM.5449.191h-.0165c-.004.0064-.0037.0129.0014.0182.0046.0048.0116.0049.0162.0001.0048-.0049.0057-.0125.0018-.0182-.0015-.0021-.0037-.0036-.0055-.0054-.0002.0003-.0004.0007-.0007.001.0008.001.0016.0021.0032.0042Z"/>
      <path class="cls-18" d="M.7292.1827c0,.0055.0003.0109-.0002.0164-.0002.0019-.0022.0036-.0033.0054-.0015-.0017-.0042-.0033-.0044-.0051-.0005-.0071-.0003-.0143,0-.0215,0-.0014.0015-.0039.0025-.004.0046-.0004.0094-.0009.0139.0002.002.0005.0044.0046.0047.0073.0007.0058.0006.0118,0,.0177-.0002.0021-.0024.0039-.0037.0058-.0015-.0018-.004-.0034-.0043-.0054-.0007-.0045,0-.0093-.0004-.0139-.0001-.0016-.0018-.0029-.0028-.0044-.0006.0005-.0012.001-.0019.0015Z"/>
      <path class="cls-18" d="M.6018.1806c-.0015.0004-.0031.0015-.0044.0012-.002-.0006-.0037-.0022-.0056-.0034.0014-.0017.0026-.0042.0043-.0048.0024-.0008.0052-.0006.0077,0,.002.0005.0042.0018.0055.0036.0029.004.0023.021-.0012.0239-.0029.0023-.0075.0043-.0104.0032-.0032-.0012-.0064-.0057-.0076-.0095-.0014-.0048.0019-.0081.0061-.0096.002-.0007.004-.0013.0061-.0019-.0002-.0008-.0003-.0016-.0005-.0024Z"/>
      <path class="cls-18" d="M.7097.1808c-.0013.0003-.0026.0008-.0039.0008-.0017,0-.0037-.0001-.0051-.0011-.0008-.0006-.0013-.0037-.0007-.0044.0013-.0014.0032-.0024.005-.0028.0022-.0004.0046-.0006.0067.0001.0022.0007.0056.0026.0057.0041.0004.0074.0008.0151-.0008.0222-.0011.005-.0069.0067-.0109.0045-.0032-.0017-.0063-.0058-.0076-.0096-.0015-.0044.0012-.008.0053-.0095.0022-.0008.0045-.0015.0067-.0022-.0001-.0007-.0002-.0014-.0003-.0021Z"/>
      <polygon class="cls-18" points=".7529 .2027 .7483 .2059 .745 .2019 .7485 .199 .7529 .2027"/>
    </g>
    <polygon class="cls-1" points="1.1671 -.0273 1.1618 .9795 1.2992 .9801 1.2772 -.0328 1.1671 -.0273"/>
    <polygon class="cls-1" points="-.0219 .0113 -.0272 1.0181 .1102 1.0186 .0882 -.0052 -.0219 .0113"/>
  </g>
  <path class="cls-8" d="M.5227.6011"/>
  <g>
    <polyline class="cls-21" points=".8249 .1741 .8249 .2496 .8777 .303 1.0783 .303 1.1311 .2496 1.1311 .1741"/>
    <polygon class="cls-21" points=".9258 .0938 .8511 .0938 .7983 .1472 .7983 .2227 .8511 .2761 .9258 .2761 .9786 .2227 .9786 .1472 .9258 .0938"/>
    <polygon class="cls-21" points="1.1055 .0938 1.0308 .0938 .978 .1472 .978 .2227 1.0308 .2761 1.1055 .2761 1.1583 .2227 1.1583 .1472 1.1055 .0938"/>
    <polygon class="cls-22" points=".9199 .1082 .857 .1082 .8125 .1532 .8125 .2168 .857 .2617 .9199 .2617 .9643 .2168 .9643 .1532 .9199 .1082"/>
    <polygon class="cls-22" points="1.0993 .1082 1.0364 .1082 .992 .1532 .992 .2168 1.0364 .2617 1.0993 .2617 1.1438 .2168 1.1438 .1532 1.0993 .1082"/>
  </g>
</svg>