<?xml version="1.0" encoding="UTF-8"?>
<svg id="Capa_1" data-name="Capa 1" xmlns="http://www.w3.org/2000/svg" version="1.1" viewBox="0 0 1 1">
  <defs>
    <style>
      .cls-1 {
        fill: #f4e14d;
      }

      .cls-1, .cls-2 {
        stroke-width: 0px;
      }

      .cls-3 {
        fill: none;
        stroke: #000;
        stroke-miterlimit: 10;
        stroke-width: .01px;
      }

      .cls-2 {
        fill: #f6f6f6;
      }
    </style>
  </defs>
  <g>
    <path class="cls-1" d="M.167.845c0-.016.004-.032.012-.046.088-.153.176-.305.264-.458.053-.092.106-.184.159-.277.015-.026.036-.04.066-.038.011,0,.02.004.029.009.066.038.131.076.197.114.037.021.047.06.026.097-.005.008-.007.02-.015.022-.008.002-.016-.007-.024-.012-.066-.038-.132-.076-.197-.114-.006-.003-.009-.004-.012.003-.005.01-.01.02-.017.029-.004.006-.003.009.003.012.043.024.085.049.128.073.022.012.043.025.065.037.007.004.011.01.01.018-.001.007-.006.011-.013.014-.006.002-.011-.001-.016-.004-.033-.019-.065-.038-.098-.057-.031-.018-.061-.035-.091-.053-.006-.004-.009-.003-.012.003-.012.021-.013.021.009.033.059.034.117.068.176.102.004.002.008.005.011.01.004.007.002.014-.003.019-.007.007-.014.006-.022.002-.026-.015-.051-.03-.077-.045-.038-.022-.075-.043-.113-.066-.007-.004-.01-.004-.014.004-.011.02-.011.02.008.031.058.034.116.067.174.101.015.009.019.018.013.028-.006.01-.015.01-.03.001-.062-.036-.124-.072-.186-.108-.006-.003-.009-.003-.012.003-.013.021-.013.021.008.033.059.034.118.068.177.102.007.004.013.01.012.019,0,.007-.006.012-.012.014-.006.002-.011-.001-.016-.004-.043-.024-.085-.049-.127-.074-.021-.012-.041-.024-.062-.036-.005-.003-.008-.004-.012.003-.012.021-.013.021.009.033.058.034.116.067.174.101.001,0,.003.002.004.003.01.007.013.015.008.024-.005.009-.015.011-.025.005-.024-.014-.047-.027-.071-.041-.04-.023-.08-.046-.12-.07-.005-.003-.008-.003-.011.003-.005.01-.01.019-.016.028-.004.006-.003.01.004.014.033.019.065.038.098.056.038.022.076.044.114.066.008.004.009.008.004.016-.004.006-.008.013-.012.02-.02.032-.058.042-.09.023-.044-.025-.088-.051-.132-.076-.009-.005-.013-.005-.018.004-.015.028-.031.055-.047.082-.015.026-.017.052-.009.081.01.037.021.073.029.11.011.05-.031.102-.081.107-.023.002-.044-.003-.063-.014-.02-.012-.041-.024-.061-.035-.032-.019-.048-.047-.049-.083ZM.291.87c.019,0,.034-.014.034-.032,0-.018-.015-.034-.032-.034-.018,0-.034.016-.034.034,0,.018.015.032.032.032Z"/>
    <path class="cls-2" d="M.291.87c-.018,0-.032-.015-.032-.032,0-.018.016-.034.034-.034.017,0,.033.016.032.034,0,.018-.015.032-.034.032Z"/>
  </g>
  <g>
    <path class="cls-3" d="M.167.845c0-.016.004-.032.012-.046.088-.153.176-.305.264-.458.053-.092.106-.184.159-.277.015-.026.036-.04.066-.038.011,0,.02.004.029.009.066.038.131.076.197.114.037.021.047.06.026.097-.005.008-.007.02-.015.022-.008.002-.016-.007-.024-.012-.066-.038-.132-.076-.197-.114-.006-.003-.009-.004-.012.003-.005.01-.01.02-.017.029-.004.006-.003.009.003.012.043.024.085.049.128.073.022.012.043.025.065.037.007.004.011.01.01.018-.001.007-.006.011-.013.014-.006.002-.011-.001-.016-.004-.033-.019-.065-.038-.098-.057-.031-.018-.061-.035-.091-.053-.006-.004-.009-.003-.012.003-.012.021-.013.021.009.033.059.034.117.068.176.102.004.002.008.005.011.01.004.007.002.014-.003.019-.007.007-.014.006-.022.002-.026-.015-.051-.03-.077-.045-.038-.022-.075-.043-.113-.066-.007-.004-.01-.004-.014.004-.011.02-.011.02.008.031.058.034.116.067.174.101.015.009.019.018.013.028-.006.01-.015.01-.03.001-.062-.036-.124-.072-.186-.108-.006-.003-.009-.003-.012.003-.013.021-.013.021.008.033.059.034.118.068.177.102.007.004.013.01.012.019,0,.007-.006.012-.012.014-.006.002-.011-.001-.016-.004-.043-.024-.085-.049-.127-.074-.021-.012-.041-.024-.062-.036-.005-.003-.008-.004-.012.003-.012.021-.013.021.009.033.058.034.116.067.174.101.001,0,.003.002.004.003.01.007.013.015.008.024-.005.009-.015.011-.025.005-.024-.014-.047-.027-.071-.041-.04-.023-.08-.046-.12-.07-.005-.003-.008-.003-.011.003-.005.01-.01.019-.016.028-.004.006-.003.01.004.014.033.019.065.038.098.056.038.022.076.044.114.066.008.004.009.008.004.016-.004.006-.008.013-.012.02-.02.032-.058.042-.09.023-.044-.025-.088-.051-.132-.076-.009-.005-.013-.005-.018.004-.015.028-.031.055-.047.082-.015.026-.017.052-.009.081.01.037.021.073.029.11.011.05-.031.102-.081.107-.023.002-.044-.003-.063-.014-.02-.012-.041-.024-.061-.035-.032-.019-.048-.047-.049-.083ZM.291.87c.019,0,.034-.014.034-.032,0-.018-.015-.034-.032-.034-.018,0-.034.016-.034.034,0,.018.015.032.032.032Z"/>
    <path class="cls-3" d="M.291.87c-.018,0-.032-.015-.032-.032,0-.018.016-.034.034-.034.017,0,.033.016.032.034,0,.018-.015.032-.034.032Z"/>
  </g>
</svg>