<?xml version="1.0" encoding="UTF-8"?>
<svg id="Capa_1" data-name="Capa 1" xmlns="http://www.w3.org/2000/svg" version="1.1" viewBox="0 0 1 1">
  <defs>
    <style>
      .cls-1 {
        fill: #ffd400;
      }

      .cls-1, .cls-2, .cls-3, .cls-4 {
        stroke-width: 0px;
      }

      .cls-5 {
        fill: none;
        stroke: #000;
        stroke-miterlimit: 10;
        stroke-width: .01px;
      }

      .cls-2 {
        fill: #000;
      }

      .cls-3 {
        fill: #f9e8a5;
      }

      .cls-4 {
        fill: #a8a8a8;
      }
    </style>
  </defs>
  <g>
    <path class="cls-2" d="M.493.959c-.073,0-.147,0-.22,0-.007,0-.012-.002-.017-.007-.043-.043-.086-.086-.128-.129-.004-.004-.006-.01-.006-.015,0-.128,0-.256,0-.384,0-.005.003-.011.006-.014.043-.044.086-.087.13-.13.003-.003.009-.006.014-.006.148,0,.297,0,.445,0,.005,0,.01.002.014.006.044.043.087.087.131.131.003.003.006.009.006.014,0,.129,0,.258,0,.386,0,.005-.003.01-.006.013-.043.044-.086.087-.13.13-.004.004-.01.006-.015.006-.074,0-.148,0-.221,0ZM.493.898c.065,0,.129,0,.194,0,.008,0,.014-.002.019-.008.03-.031.061-.061.091-.092.004-.004.007-.012.007-.018,0-.11,0-.22,0-.33,0-.006-.003-.013-.007-.017-.031-.032-.062-.063-.093-.093-.004-.004-.011-.007-.016-.007-.131,0-.261,0-.392,0-.006,0-.013.003-.017.007-.031.03-.062.061-.093.093-.004.004-.007.011-.007.017,0,.11,0,.221,0,.331,0,.006.003.013.007.017.03.031.061.061.092.092.006.006.011.008.019.008.065,0,.13,0,.195,0Z"/>
    <path class="cls-3" d="M.422.17V.051h.14v.119h-.14Z"/>
    <path class="cls-1" d="M.624.251h-.262c0-.019,0-.037,0-.055,0-.002.003-.004.005-.005.002,0,.004,0,.006,0,.08,0,.161,0,.241,0,.009,0,.011.002.011.011,0,.016,0,.033,0,.049Z"/>
    <path class="cls-4" d="M.724.09c.035,0,.07,0,.105,0,.003,0,.007,0,.009,0,.003.003.007.007.007.01,0,.003-.005.007-.008.009-.002.001-.006,0-.009,0-.069,0-.138,0-.206,0-.001,0-.003,0-.004,0-.007,0-.014-.002-.013-.01,0-.009.007-.01.014-.01.035,0,.071,0,.106,0Z"/>
    <path class="cls-4" d="M.633.072s-.008-.006-.009-.01c-.002-.006.002-.011.009-.011.03-.004.059-.008.089-.011.023-.003.046-.006.069-.009.007,0,.013,0,.014.009,0,.008-.005.011-.012.012-.052.006-.103.013-.155.019,0,0-.002,0-.003,0,0,0-.001.001-.002.002Z"/>
    <path class="cls-4" d="M.637.131c.035.004.069.009.104.013.017.002.034.005.052.007.007,0,.013.003.012.011,0,.008-.007.01-.015.009-.039-.005-.078-.01-.117-.015-.013-.002-.025-.003-.038-.005-.007,0-.012-.004-.012-.012,0-.008.006-.009.013-.009Z"/>
    <path class="cls-1" d="M.493.898c-.065,0-.13,0-.195,0-.008,0-.014-.002-.019-.008-.03-.031-.061-.061-.092-.092-.004-.004-.007-.011-.007-.017,0-.11,0-.221,0-.331,0-.006.003-.013.007-.017.03-.031.061-.062.093-.093.004-.004.011-.007.017-.007.131,0,.261,0,.392,0,.005,0,.012.003.016.007.031.031.063.062.093.093.004.004.007.011.007.017,0,.11,0,.22,0,.33,0,.006-.003.014-.007.018-.03.031-.061.061-.091.092-.006.006-.011.008-.019.008-.065,0-.129,0-.194,0ZM.493.353c-.063,0-.126,0-.189,0-.005,0-.011.003-.015.006-.028.027-.055.054-.082.082-.004.004-.006.01-.006.015,0,.106,0,.212,0,.317,0,.005.002.011.006.014.027.028.055.056.083.084.003.003.009.006.014.006.126,0,.252,0,.378,0,.005,0,.011-.003.014-.006.028-.027.056-.055.083-.083.003-.004.006-.009.006-.014,0-.106,0-.212,0-.318,0-.005-.003-.011-.006-.014-.027-.028-.055-.055-.082-.083-.005-.005-.01-.007-.016-.007-.062,0-.125,0-.187,0Z"/>
    <path class="cls-3" d="M.493.353c.062,0,.125,0,.187,0,.007,0,.012.002.016.007.027.028.055.055.082.083.003.004.006.009.006.014,0,.106,0,.212,0,.318,0,.005-.003.011-.006.014-.027.028-.055.056-.083.083-.003.003-.01.006-.014.006-.126,0-.252,0-.378,0-.005,0-.01-.002-.014-.006-.028-.028-.056-.055-.083-.084-.003-.003-.006-.01-.006-.014,0-.106,0-.212,0-.317,0-.005.003-.011.006-.015.027-.028.054-.055.082-.082.004-.004.01-.006.015-.006.063,0,.126,0,.189,0ZM.493.434c-.007,0-.01.004-.01.015-.003.085-.07.153-.153.157-.008,0-.018-.001-.017.01,0,.012.01.01.018.01.047.003.086.022.116.058.024.029.036.062.037.099,0,.01.005.015.012.013.007-.002.007-.007.008-.013.003-.076.054-.138.127-.154.011-.002.022-.003.033-.004.006,0,.011-.003.011-.01,0-.007-.005-.01-.011-.01-.002,0-.004,0-.006,0-.045-.002-.082-.02-.112-.053-.027-.03-.04-.065-.042-.105,0-.007-.002-.012-.01-.013Z"/>
    <path class="cls-2" d="M.493.434c.008.001.01.006.01.013.001.04.015.075.042.105.03.033.068.051.112.053.002,0,.004,0,.006,0,.006,0,.011.003.011.01,0,.007-.005.01-.011.01-.011.001-.022.001-.033.004-.073.016-.124.078-.127.154,0,.006,0,.011-.008.013-.008.002-.012-.003-.012-.013-.001-.037-.013-.071-.037-.099-.03-.036-.069-.055-.116-.058-.008,0-.018.001-.018-.01,0-.012.01-.01.017-.01.083-.003.15-.072.153-.157,0-.01.004-.015.01-.015ZM.382.615c.054.021.09.057.111.111.021-.054.058-.09.111-.111-.054-.021-.09-.057-.111-.111-.021.054-.058.09-.111.111Z"/>
    <path class="cls-1" d="M.382.615c.053-.021.09-.057.111-.111.021.054.058.09.111.111-.053.021-.09.057-.111.111-.021-.054-.057-.09-.111-.111Z"/>
  </g>
  <g>
    <path class="cls-5" d="M.493.959c-.073,0-.147,0-.22,0-.007,0-.012-.002-.017-.007-.043-.043-.086-.086-.128-.129-.004-.004-.006-.01-.006-.015,0-.128,0-.256,0-.384,0-.005.003-.011.006-.014.043-.044.086-.087.13-.13.003-.003.009-.006.014-.006.148,0,.297,0,.445,0,.005,0,.01.002.014.006.044.043.087.087.131.131.003.003.006.009.006.014,0,.129,0,.258,0,.386,0,.005-.003.01-.006.013-.043.044-.086.087-.13.13-.004.004-.01.006-.015.006-.074,0-.148,0-.221,0ZM.493.898c.065,0,.129,0,.194,0,.008,0,.014-.002.019-.008.03-.031.061-.061.091-.092.004-.004.007-.012.007-.018,0-.11,0-.22,0-.33,0-.006-.003-.013-.007-.017-.031-.032-.062-.063-.093-.093-.004-.004-.011-.007-.016-.007-.131,0-.261,0-.392,0-.006,0-.013.003-.017.007-.031.03-.062.061-.093.093-.004.004-.007.011-.007.017,0,.11,0,.221,0,.331,0,.006.003.013.007.017.03.031.061.061.092.092.006.006.011.008.019.008.065,0,.13,0,.195,0Z"/>
    <path class="cls-5" d="M.422.17V.051h.14v.119h-.14Z"/>
    <path class="cls-5" d="M.624.251h-.262c0-.019,0-.037,0-.055,0-.002.003-.004.005-.005.002,0,.004,0,.006,0,.08,0,.161,0,.241,0,.009,0,.011.002.011.011,0,.016,0,.033,0,.049Z"/>
    <path class="cls-5" d="M.724.09c.035,0,.07,0,.105,0,.003,0,.007,0,.009,0,.003.003.007.007.007.01,0,.003-.005.007-.008.009-.002.001-.006,0-.009,0-.069,0-.138,0-.206,0-.001,0-.003,0-.004,0-.007,0-.014-.002-.013-.01,0-.009.007-.01.014-.01.035,0,.071,0,.106,0Z"/>
    <path class="cls-5" d="M.633.072s-.008-.006-.009-.01c-.002-.006.002-.011.009-.011.03-.004.059-.008.089-.011.023-.003.046-.006.069-.009.007,0,.013,0,.014.009,0,.008-.005.011-.012.012-.052.006-.103.013-.155.019,0,0-.002,0-.003,0,0,0-.001.001-.002.002Z"/>
    <path class="cls-5" d="M.637.131c.035.004.069.009.104.013.017.002.034.005.052.007.007,0,.013.003.012.011,0,.008-.007.01-.015.009-.039-.005-.078-.01-.117-.015-.013-.002-.025-.003-.038-.005-.007,0-.012-.004-.012-.012,0-.008.006-.009.013-.009Z"/>
    <path class="cls-5" d="M.493.898c-.065,0-.13,0-.195,0-.008,0-.014-.002-.019-.008-.03-.031-.061-.061-.092-.092-.004-.004-.007-.011-.007-.017,0-.11,0-.221,0-.331,0-.006.003-.013.007-.017.03-.031.061-.062.093-.093.004-.004.011-.007.017-.007.131,0,.261,0,.392,0,.005,0,.012.003.016.007.031.031.063.062.093.093.004.004.007.011.007.017,0,.11,0,.22,0,.33,0,.006-.003.014-.007.018-.03.031-.061.061-.091.092-.006.006-.011.008-.019.008-.065,0-.129,0-.194,0ZM.493.353c-.063,0-.126,0-.189,0-.005,0-.011.003-.015.006-.028.027-.055.054-.082.082-.004.004-.006.01-.006.015,0,.106,0,.212,0,.317,0,.005.002.011.006.014.027.028.055.056.083.084.003.003.009.006.014.006.126,0,.252,0,.378,0,.005,0,.011-.003.014-.006.028-.027.056-.055.083-.083.003-.004.006-.009.006-.014,0-.106,0-.212,0-.318,0-.005-.003-.011-.006-.014-.027-.028-.055-.055-.082-.083-.005-.005-.01-.007-.016-.007-.062,0-.125,0-.187,0Z"/>
    <path class="cls-5" d="M.493.353c.062,0,.125,0,.187,0,.007,0,.012.002.016.007.027.028.055.055.082.083.003.004.006.009.006.014,0,.106,0,.212,0,.318,0,.005-.003.011-.006.014-.027.028-.055.056-.083.083-.003.003-.01.006-.014.006-.126,0-.252,0-.378,0-.005,0-.01-.002-.014-.006-.028-.028-.056-.055-.083-.084-.003-.003-.006-.01-.006-.014,0-.106,0-.212,0-.317,0-.005.003-.011.006-.015.027-.028.054-.055.082-.082.004-.004.01-.006.015-.006.063,0,.126,0,.189,0ZM.493.434c-.007,0-.01.004-.01.015-.003.085-.07.153-.153.157-.008,0-.018-.001-.017.01,0,.012.01.01.018.01.047.003.086.022.116.058.024.029.036.062.037.099,0,.01.005.015.012.013.007-.002.007-.007.008-.013.003-.076.054-.138.127-.154.011-.002.022-.003.033-.004.006,0,.011-.003.011-.01,0-.007-.005-.01-.011-.01-.002,0-.004,0-.006,0-.045-.002-.082-.02-.112-.053-.027-.03-.04-.065-.042-.105,0-.007-.002-.012-.01-.013Z"/>
    <path class="cls-5" d="M.493.434c.008.001.01.006.01.013.001.04.015.075.042.105.03.033.068.051.112.053.002,0,.004,0,.006,0,.006,0,.011.003.011.01,0,.007-.005.01-.011.01-.011.001-.022.001-.033.004-.073.016-.124.078-.127.154,0,.006,0,.011-.008.013-.008.002-.012-.003-.012-.013-.001-.037-.013-.071-.037-.099-.03-.036-.069-.055-.116-.058-.008,0-.018.001-.018-.01,0-.012.01-.01.017-.01.083-.003.15-.072.153-.157,0-.01.004-.015.01-.015ZM.382.615c.054.021.09.057.111.111.021-.054.058-.09.111-.111-.054-.021-.09-.057-.111-.111-.021.054-.058.09-.111.111Z"/>
    <path class="cls-5" d="M.382.615c.053-.021.09-.057.111-.111.021.054.058.09.111.111-.053.021-.09.057-.111.111-.021-.054-.057-.09-.111-.111Z"/>
  </g>
</svg>