<?xml version="1.0" encoding="UTF-8"?>
<svg id="Capa_1" data-name="Capa 1" xmlns="http://www.w3.org/2000/svg" version="1.1" viewBox="0 0 1 1">
  <defs>
    <style>
      .cls-1 {
        fill: #eee;
      }

      .cls-1, .cls-2, .cls-3 {
        stroke-width: 0px;
      }

      .cls-4 {
        fill: none;
        stroke: #000;
        stroke-miterlimit: 10;
        stroke-width: .01px;
      }

      .cls-2 {
        fill: #000;
      }

      .cls-3 {
        fill: #a8a8a8;
      }
    </style>
  </defs>
  <circle class="cls-3" cx=".466" cy=".511" r=".264"/>
  <g>
    <path class="cls-3" d="M.46.193c.048,0,.096,0,.144,0,.016,0,.018-.002.018-.019,0-.013,0-.026,0-.039,0-.006.002-.007.007-.007.025,0,.025,0,.025.024,0,.02-.001.04.001.059.004.027.016.05.035.07.044.048.073.103.082.168.015.1-.012.188-.079.263-.026.029-.04.062-.039.101,0,.016,0,.032,0,.048,0,.006-.001.008-.008.008-.024,0-.024,0-.024-.024,0-.009,0-.019,0-.028,0-.009-.004-.013-.013-.013-.003,0-.006,0-.009,0-.094,0-.189,0-.283,0-.018,0-.02.002-.02.02,0,.012,0,.024,0,.036,0,.006-.001.008-.007.008-.025,0-.024,0-.025-.024,0-.019.001-.039-.001-.058-.004-.026-.014-.049-.032-.068-.042-.045-.071-.097-.083-.157-.019-.103.005-.195.074-.274.029-.032.044-.067.042-.11,0-.014,0-.029,0-.043,0-.005.002-.006.007-.007.026-.001.026-.001.026.024,0,.009,0,.017,0,.026,0,.012.003.015.015.015.045,0,.091,0,.136,0,.004,0,.008,0,.012,0ZM.46.253c-.136,0-.246.109-.246.245,0,.136.109.247.246.247.136,0,.245-.109.246-.245,0-.136-.109-.247-.245-.247Z"/>
    <path class="cls-2" d="M.46.171c-.044,0-.088,0-.132,0-.007,0-.009-.002-.009-.009,0-.048,0-.095,0-.143,0-.007.002-.009.008-.009.088,0,.176,0,.265,0,.007,0,.009.002.009.009,0,.048,0,.095,0,.143,0,.007-.002.009-.009.009-.044,0-.088,0-.131,0Z"/>
    <path class="cls-2" d="M.46.827c.044,0,.088,0,.131,0,.007,0,.009.002.009.009,0,.047,0,.095,0,.142,0,.007-.001.01-.009.01-.088,0-.176,0-.265,0-.007,0-.009-.002-.009-.009,0-.048,0-.095,0-.143,0-.007.002-.009.009-.009.044,0,.088,0,.132,0Z"/>
    <path class="cls-3" d="M.841.499c0,.023-.017.044-.038.05-.005.001-.009.002-.008-.006.004-.029.004-.059,0-.088-.001-.008.002-.008.008-.006.022.006.038.027.038.05Z"/>
    <path class="cls-1" d="M.683.481c.002.006-.002.007-.008.007-.005,0-.011,0-.016,0-.007,0-.011.004-.011.011,0,.007.004.01.011.01.005,0,.01,0,.014,0,.008,0,.011.002.01.01-.005.047-.022.088-.052.125-.005.005-.007.005-.012,0-.003-.003-.006-.006-.009-.009-.005-.005-.011-.009-.017-.003-.006.006-.004.012.002.017.003.003.006.007.01.009.006.004.004.007,0,.011-.037.03-.079.048-.126.052-.006,0-.008-.001-.008-.007,0-.006,0-.012,0-.017,0-.007-.004-.011-.011-.011-.006,0-.01.004-.01.011,0,.006,0,.012,0,.017,0,.005-.001.007-.007.007-.048-.004-.09-.022-.127-.052-.005-.004-.006-.007,0-.012.004-.003.008-.007.011-.012.004-.005.005-.011,0-.015-.005-.004-.01-.004-.015,0-.003.003-.007.006-.009.009-.005.007-.009.007-.015,0-.029-.037-.047-.078-.051-.125,0-.006.001-.008.007-.008.006,0,.012,0,.017,0,.006,0,.01-.004.01-.01,0-.006-.004-.01-.01-.011-.006,0-.013,0-.019,0-.005,0-.006-.001-.006-.006.004-.049.022-.092.054-.13.003-.003.005-.004.008,0,.004.005.008.009.013.013.005.005.01.005.015,0,.005-.005.004-.01,0-.015-.001-.001-.003-.003-.004-.004q-.013-.014.002-.025c.034-.026.073-.041.116-.045.007,0,.01,0,.009.008,0,.005,0,.011,0,.016,0,.006.004.01.01.01.006,0,.011-.003.011-.009,0-.006,0-.013,0-.019,0-.005.001-.007.006-.006.049.004.092.022.13.054.004.003.004.005,0,.008-.005.004-.009.008-.013.013-.005.005-.005.01,0,.015.005.005.01.004.015,0,.001-.001.002-.002.003-.003q.014-.014.026.002c.026.035.041.074.045.118ZM.47.423c0-.012,0-.023,0-.035,0-.008-.002-.015-.011-.015-.009,0-.011.007-.011.015,0,.022,0,.045,0,.067,0,.007-.002.011-.008.014-.014.008-.02.025-.015.04.005.015.02.027.035.023.014-.003.02.003.028.011.007.008.014.015.022.022.009.009.018.019.028.028.005.005.01.005.015,0,.005-.005.004-.01,0-.015-.002-.002-.004-.004-.005-.005-.018-.018-.035-.035-.053-.053-.003-.003-.005-.006-.004-.012.005-.017-.001-.032-.017-.041-.004-.002-.005-.005-.005-.009,0-.012,0-.024,0-.036Z"/>
    <path class="cls-3" d="M.473.499c0,.007-.007.013-.014.013-.007,0-.014-.007-.013-.014,0-.008.005-.012.013-.012.007,0,.013.006.013.013Z"/>
  </g>
  <g>
    <path class="cls-4" d="M.468.193c.048,0,.096,0,.144,0,.016,0,.018-.002.018-.019,0-.013,0-.026,0-.039,0-.006.002-.007.007-.007.025,0,.025,0,.025.024,0,.02-.001.04.001.059.004.027.016.05.035.07.044.048.073.103.082.168.015.1-.012.188-.079.263-.026.029-.04.062-.039.101,0,.016,0,.032,0,.048,0,.006-.001.008-.008.008-.024,0-.024,0-.024-.024,0-.009,0-.019,0-.028,0-.009-.004-.013-.013-.013-.003,0-.006,0-.009,0-.094,0-.189,0-.283,0-.018,0-.02.002-.02.02,0,.012,0,.024,0,.036,0,.006-.001.008-.007.008-.025,0-.024,0-.025-.024,0-.019.001-.039-.001-.058-.004-.026-.014-.049-.032-.068-.042-.045-.071-.097-.083-.157-.019-.103.005-.195.074-.274.029-.032.044-.067.042-.11,0-.014,0-.029,0-.043,0-.005.002-.006.007-.007.026-.001.026-.001.026.024,0,.009,0,.017,0,.026,0,.012.003.015.015.015.045,0,.091,0,.136,0,.004,0,.008,0,.012,0ZM.468.253c-.136,0-.246.109-.246.245,0,.136.109.247.246.247.136,0,.245-.109.246-.245,0-.136-.109-.247-.245-.247Z"/>
    <path class="cls-4" d="M.468.171c-.044,0-.088,0-.132,0-.007,0-.009-.002-.009-.009,0-.048,0-.095,0-.143,0-.007.002-.009.008-.009.088,0,.176,0,.265,0,.007,0,.009.002.009.009,0,.048,0,.095,0,.143,0,.007-.002.009-.009.009-.044,0-.088,0-.131,0Z"/>
    <path class="cls-4" d="M.469.827c.044,0,.088,0,.131,0,.007,0,.009.002.009.009,0,.047,0,.095,0,.142,0,.007-.001.01-.009.01-.088,0-.176,0-.265,0-.007,0-.009-.002-.009-.009,0-.048,0-.095,0-.143,0-.007.002-.009.009-.009.044,0,.088,0,.132,0Z"/>
    <path class="cls-4" d="M.849.499c0,.023-.017.044-.038.05-.005.001-.009.002-.008-.006.004-.029.004-.059,0-.088-.001-.008.002-.008.008-.006.022.006.038.027.038.05Z"/>
    <path class="cls-4" d="M.692.481c.002.006-.002.007-.008.007-.005,0-.011,0-.016,0-.007,0-.011.004-.011.011,0,.007.004.01.011.01.005,0,.01,0,.014,0,.008,0,.011.002.01.01-.005.047-.022.088-.052.125-.005.005-.007.005-.012,0-.003-.003-.006-.006-.009-.009-.005-.005-.011-.009-.017-.003-.006.006-.004.012.002.017.003.003.006.007.01.009.006.004.004.007,0,.011-.037.03-.079.048-.126.052-.006,0-.008-.001-.008-.007,0-.006,0-.012,0-.017,0-.007-.004-.011-.011-.011-.006,0-.01.004-.01.011,0,.006,0,.012,0,.017,0,.005-.001.007-.007.007-.048-.004-.09-.022-.127-.052-.005-.004-.006-.007,0-.012.004-.003.008-.007.011-.012.004-.005.005-.011,0-.015-.005-.004-.01-.004-.015,0-.003.003-.007.006-.009.009-.005.007-.009.007-.015,0-.029-.037-.047-.078-.051-.125,0-.006.001-.008.007-.008.006,0,.012,0,.017,0,.006,0,.01-.004.01-.01,0-.006-.004-.01-.01-.011-.006,0-.013,0-.019,0-.005,0-.006-.001-.006-.006.004-.049.022-.092.054-.13.003-.003.005-.004.008,0,.004.005.008.009.013.013.005.005.01.005.015,0,.005-.005.004-.01,0-.015-.001-.001-.003-.003-.004-.004q-.013-.014.002-.025c.034-.026.073-.041.116-.045.007,0,.01,0,.009.008,0,.005,0,.011,0,.016,0,.006.004.01.01.01.006,0,.011-.003.011-.009,0-.006,0-.013,0-.019,0-.005.001-.007.006-.006.049.004.092.022.13.054.004.003.004.005,0,.008-.005.004-.009.008-.013.013-.005.005-.005.01,0,.015.005.005.01.004.015,0,.001-.001.002-.002.003-.003q.014-.014.026.002c.026.035.041.074.045.118ZM.479.423c0-.012,0-.023,0-.035,0-.008-.002-.015-.011-.015-.009,0-.011.007-.011.015,0,.022,0,.045,0,.067,0,.007-.002.011-.008.014-.014.008-.02.025-.015.04.005.015.02.027.035.023.014-.003.02.003.028.011.007.008.014.015.022.022.009.009.018.019.028.028.005.005.01.005.015,0,.005-.005.004-.01,0-.015-.002-.002-.004-.004-.005-.005-.018-.018-.035-.035-.053-.053-.003-.003-.005-.006-.004-.012.005-.017-.001-.032-.017-.041-.004-.002-.005-.005-.005-.009,0-.012,0-.024,0-.036Z"/>
    <path class="cls-4" d="M.481.499c0,.007-.007.013-.014.013-.007,0-.014-.007-.013-.014,0-.008.005-.012.013-.012.007,0,.013.006.013.013Z"/>
  </g>
</svg>