<?xml version="1.0" encoding="UTF-8"?>
<svg id="Capa_1" data-name="Capa 1" xmlns="http://www.w3.org/2000/svg" version="1.1" viewBox="0 0 1 1">
  <defs>
    <style>
      .cls-1 {
        fill: #cde2e9;
      }

      .cls-1, .cls-2, .cls-3, .cls-4, .cls-5 {
        stroke-width: 0px;
      }

      .cls-6 {
        fill: none;
        stroke: #000;
        stroke-miterlimit: 10;
        stroke-width: .01px;
      }

      .cls-2 {
        fill: #077d99;
      }

      .cls-3 {
        fill: #0c95bf;
      }

      .cls-4 {
        fill: #032933;
      }

      .cls-5 {
        fill: #025563;
      }
    </style>
  </defs>
  <g>
    <path class="cls-3" d="M.866.237c.036.042.066.088.087.139.021.049.033.101.038.154,0,.002,0,.004.002.005v.075c-.004.013-.004.026-.006.04-.015.097-.055.182-.118.256-.005.006-.011.008-.018.006-.007-.002-.009-.008-.011-.014-.017-.074-.062-.121-.136-.14-.007-.002-.014-.002-.021-.003-.005,0-.011,0-.015-.006.032-.033.062-.067.089-.103.051-.07.094-.144.116-.228.016-.061.021-.123-.012-.181.001,0,.002,0,.003,0Z"/>
    <path class="cls-2" d="M.482.538c-.005-.031-.019-.058-.04-.082-.032-.036-.072-.056-.119-.061-.004,0-.008,0-.01-.005.002-.003.004-.006.007-.008.033-.031.068-.061.105-.088.077-.055.159-.101.254-.117.028-.005.056-.006.085-.001.019.003.037.01.055.018.001,0,.003.001.004.002.006.008.017.011.022.021-.002.002-.004.005-.006.007-.083.083-.166.166-.248.249-.033.033-.065.065-.098.098-.004-.002-.005-.006-.005-.01,0-.007-.001-.015-.004-.021Z"/>
    <path class="cls-5" d="M.491.569c.033-.033.065-.065.098-.098.083-.083.166-.166.248-.249.002-.002.004-.005.006-.007.007.006.014.013.019.022.033.058.028.12.012.181-.022.084-.065.159-.116.228-.027.037-.057.071-.089.103-.005-.003-.005-.008-.005-.013-.006-.077-.064-.142-.14-.158-.006,0-.011-.001-.017-.003-.006-.002-.013.001-.016-.006Z"/>
    <path class="cls-3" d="M.818.193c-.018-.007-.036-.014-.055-.018-.028-.005-.057-.004-.085.001-.095.017-.177.062-.254.117-.037.027-.072.057-.105.088-.003.002-.005.005-.007.008-.006-.002-.005-.007-.006-.011-.005-.043-.021-.081-.052-.112-.025-.025-.054-.041-.088-.048-.002,0-.004-.001-.006-.001-.007-.001-.011-.005-.013-.012-.002-.006.001-.011.006-.015.031-.027.065-.05.102-.069.076-.039.157-.058.241-.055.119.003.225.043.317.12.002.002.004.003.004.006Z"/>
    <path class="cls-4" d="M.28.823c-.034.034-.066.07-.103.101-.059.05-.153.015-.167-.061-.006-.035.003-.066.027-.092.012-.012.03-.013.041-.003.012.01.013.028.003.042-.005.006-.01.012-.013.02-.006.02.002.041.02.052.018.011.04.008.055-.008.031-.031.063-.062.094-.094.014.014.027.029.041.043Z"/>
    <path class="cls-1" d="M.28.823c-.014-.014-.027-.029-.041-.043.016-.016.032-.033.049-.049.062-.062.123-.124.185-.185.003-.003.006-.005.008-.008.003.007.003.014.004.021,0,.004,0,.008.005.01.003.008.011.005.016.006.005.002.011.002.017.003-.005.005-.01.011-.015.016-.073.073-.146.147-.22.22-.003.003-.006.005-.008.008Z"/>
    <path class="cls-1" d="M.863.237c-.005-.009-.012-.015-.019-.022-.005-.009-.016-.013-.022-.021.022-.022.045-.043.066-.066.014-.015.033-.014.045-.003.012.012.011.032-.002.045-.021.022-.043.044-.065.066-.001,0-.002,0-.003,0Z"/>
  </g>
  <g>
    <path class="cls-6" d="M.865.23c.036.042.066.088.087.139.021.049.033.101.038.154,0,.002,0,.004.002.005v.075c-.004.013-.004.026-.006.04-.015.097-.055.182-.118.256-.005.006-.011.008-.018.006-.007-.002-.009-.008-.011-.014-.017-.074-.062-.121-.136-.14-.007-.002-.014-.002-.021-.003-.005,0-.011,0-.015-.006.032-.033.062-.067.089-.103.051-.07.094-.144.116-.228.016-.061.021-.123-.012-.181.001,0,.002,0,.003,0Z"/>
    <path class="cls-6" d="M.481.531c-.005-.031-.019-.058-.04-.082-.032-.036-.072-.056-.119-.061-.004,0-.008,0-.01-.005.002-.003.004-.006.007-.008.033-.031.068-.061.105-.088.077-.055.159-.101.254-.117.028-.005.056-.006.085-.001.019.003.037.01.055.018.001,0,.003.001.004.002.006.008.017.011.022.021-.002.002-.004.005-.006.007-.083.083-.166.166-.248.249-.033.033-.065.065-.098.098-.004-.002-.005-.006-.005-.01,0-.007-.001-.015-.004-.021Z"/>
    <path class="cls-6" d="M.49.562c.033-.033.065-.065.098-.098.083-.083.166-.166.248-.249.002-.002.004-.005.006-.007.007.006.014.013.019.022.033.058.028.12.012.181-.022.084-.065.159-.116.228-.027.037-.057.071-.089.103-.005-.003-.005-.008-.005-.013-.006-.077-.064-.142-.14-.158-.006,0-.011-.001-.017-.003-.006-.002-.013.001-.016-.006Z"/>
    <path class="cls-6" d="M.817.186c-.018-.007-.036-.014-.055-.018-.028-.005-.057-.004-.085.001-.095.017-.177.062-.254.117-.037.027-.072.057-.105.088-.003.002-.005.005-.007.008-.006-.002-.005-.007-.006-.011-.005-.043-.021-.081-.052-.112-.025-.025-.054-.041-.088-.048-.002,0-.004-.001-.006-.001-.007-.001-.011-.005-.013-.012-.002-.006.001-.011.006-.015.031-.027.065-.05.102-.069.076-.039.157-.058.241-.055.119.003.225.043.317.12.002.002.004.003.004.006Z"/>
    <path class="cls-6" d="M.279.816c-.034.034-.066.07-.103.101-.059.05-.153.015-.167-.061-.006-.035.003-.066.027-.092.012-.012.03-.013.041-.003.012.01.013.028.003.042-.005.006-.01.012-.013.02-.006.02.002.041.02.052.018.011.04.008.055-.008.031-.031.063-.062.094-.094.014.014.027.029.041.043Z"/>
    <path class="cls-6" d="M.279.816c-.014-.014-.027-.029-.041-.043.016-.016.032-.033.049-.049.062-.062.123-.124.185-.185.003-.003.006-.005.008-.008.003.007.003.014.004.021,0,.004,0,.008.005.01.003.008.011.005.016.006.005.002.011.002.017.003-.005.005-.01.011-.015.016-.073.073-.146.147-.22.22-.003.003-.006.005-.008.008Z"/>
    <path class="cls-6" d="M.862.23c-.005-.009-.012-.015-.019-.022-.005-.009-.016-.013-.022-.021.022-.022.045-.043.066-.066.014-.015.033-.014.045-.003.012.012.011.032-.002.045-.021.022-.043.044-.065.066-.001,0-.002,0-.003,0Z"/>
  </g>
</svg>