<?xml version="1.0" encoding="UTF-8"?>
<svg id="Capa_1" data-name="Capa 1" xmlns="http://www.w3.org/2000/svg" version="1.1" viewBox="0 0 1 1">
  <defs>
    <style>
      .cls-1 {
        fill: #2f718e;
      }

      .cls-1, .cls-2, .cls-3, .cls-4 {
        stroke-width: 0px;
      }

      .cls-5 {
        fill: none;
        stroke: #000;
        stroke-miterlimit: 10;
        stroke-width: .01px;
      }

      .cls-2 {
        fill: #50b0d3;
      }

      .cls-3 {
        fill: #6fc6e0;
      }

      .cls-4 {
        fill: #4294c1;
      }
    </style>
  </defs>
  <g>
    <path class="cls-3" d="M.701.153c.095.003.17.079.176.169.004.066.01.132.016.197.004.046.003.093-.003.139-.005.037-.007.075-.011.113-.001.014-.003.028-.004.042-.025-.009-.044-.025-.054-.049-.014-.031-.023-.065-.032-.098-.011-.043-.02-.086-.025-.13-.003-.028-.007-.056-.008-.084,0-.021-.003-.042-.005-.063-.009.039-.014.079-.015.12-.001.045-.002.089.003.134.004.033.009.066.014.1,0,.006,0,.008-.006.009-.037.003-.075.008-.113.008,0-.023,0-.046,0-.069,0-.005-.001-.009-.004-.013-.014-.018-.027-.036-.04-.054-.004-.005-.008-.007-.014-.007-.049,0-.098,0-.148,0-.007,0-.011.002-.015.007-.014.018-.028.037-.042.055-.022-.029-.028-.063-.024-.098.002-.021.005-.041.004-.062-.003-.042-.004-.085-.007-.127-.001-.023,0-.046-.003-.069-.002-.016,0-.033-.002-.048-.006-.029.018-.054.038-.059.017-.004.033.003.05.004.006,0,.008.003.008.009,0,.015,0,.03,0,.045,0,.02,0,.041,0,.061,0,.007.003.013.009.016.005.002.01.005.013-.002.015.008.027.001.027-.016,0-.037,0-.074,0-.111q.016-.003.016.014c0,.048,0,.095,0,.143,0,.003,0,.006,0,.009.002.011.014.016.022.01.015.008.027.001.027-.016,0-.056,0-.112,0-.168.031-.006.061-.016.089-.029.016-.007.032-.012.047-.021.005-.003.014-.001.015-.01Z"/>
    <path class="cls-2" d="M.633.759c.038,0,.075-.005.113-.008.006,0,.007-.003.006-.009-.005-.033-.01-.066-.014-.1-.005-.045-.005-.089-.003-.134.001-.04.006-.08.015-.12.002.021.004.042.005.063.001.028.005.056.008.084.005.044.014.087.025.13.009.033.018.067.032.098.011.024.029.04.054.049-.002.025-.005.049-.007.074,0,.006-.001.012-.002.018,0,.007-.004.011-.011.008-.004-.001-.009-.002-.013-.001-.031-.004-.062-.008-.093-.012-.017-.002-.017-.002-.019-.02,0-.012-.003-.024-.004-.036,0-.004-.002-.005-.006-.003-.035.013-.072.018-.108.023-.036.006-.073.007-.11.007-.039,0-.079-.002-.118-.008-.028-.004-.055-.009-.083-.016-.009-.002-.017-.006-.026-.009-.001-.001-.002-.003-.003-.004-.018-.013-.028-.031-.028-.054,0-.024.006-.048.009-.072.007-.043.011-.086.013-.13.002-.044-.001-.089-.006-.133-.002-.018-.004-.037-.009-.056-.004.038-.005.075-.009.112-.004.039-.01.077-.018.116-.009.043-.022.086-.036.128-.011.032-.03.054-.062.066-.004-.042-.008-.083-.013-.125-.003-.031-.006-.062-.01-.092-.002-.019.001-.037.002-.056.002-.032.005-.064.008-.096.004-.048.005-.097.013-.145.012-.073.077-.135.151-.145.008-.001.015-.002.023-.002.002.003.003.007.007.008.044.01.088.018.133.021.009,0,.011.003.011.011,0,.045,0,.091,0,.136,0,.007,0,.014.006.019-.004.007-.009.004-.013.002-.007-.003-.009-.008-.009-.016,0-.02,0-.041,0-.061,0-.015,0-.03,0-.045,0-.006-.001-.009-.008-.009-.017-.001-.032-.008-.05-.004-.021.005-.044.03-.038.059.003.016,0,.032.002.048.002.023.001.046.003.069.003.042.004.085.007.127.001.021-.002.041-.004.062-.004.035.002.069.024.098-.001.002-.002.005-.002.008,0,.03,0,.059,0,.089,0,.006.003.007.008.009.033.008.066.012.1.014.045.002.089-.002.133-.01.023-.004.023-.004.024-.028,0,0,0,0,0-.001Z"/>
    <path class="cls-4" d="M.127.813c.032-.012.051-.034.062-.066.014-.042.027-.084.036-.128.008-.038.014-.077.018-.116.004-.037.005-.074.009-.112.005.019.007.038.009.056.005.044.008.088.006.133-.002.043-.006.087-.013.13-.004.024-.009.048-.009.072,0,.023.01.04.028.054.001,0,.002.002.003.004-.001.014-.003.028-.004.042-.002.017-.001.017-.018.019-.031.004-.062.008-.093.012-.003,0-.006,0-.009,0-.014.002-.014.002-.016-.012-.002-.025-.005-.051-.008-.076,0-.004,0-.008,0-.012Z"/>
    <path class="cls-1" d="M.16.912c.031-.004.062-.008.093-.012,0,.019,0,.037,0,.056,0,.006-.002.009-.008.01-.022.004-.044.009-.066.014-.008.002-.01-.002-.01-.008-.003-.02-.006-.039-.008-.059Z"/>
    <path class="cls-1" d="M.749.9c.031.004.062.008.093.012-.003.019-.006.038-.008.058,0,.008-.003.012-.012.009-.004-.002-.009-.002-.014-.004.005-.028-.008-.044-.026-.049-.011-.003-.022-.004-.033-.006v-.02Z"/>
    <path class="cls-1" d="M.749.92c.011.002.022.003.033.006.018.005.031.021.026.049-.018-.003-.035-.006-.052-.01-.005,0-.007-.003-.007-.009,0-.012,0-.024,0-.036Z"/>
    <path class="cls-1" d="M.633.759s0,0,0,.001c-.001.023-.001.023-.024.028-.044.008-.088.013-.133.01-.034-.002-.067-.006-.1-.014-.005-.001-.008-.003-.008-.009,0-.03,0-.059,0-.089,0-.003,0-.005.002-.008.014-.018.028-.036.042-.055.004-.005.008-.007.015-.007.049,0,.098,0,.148,0,.006,0,.01.002.014.007.013.018.027.036.04.054.003.004.004.008.004.013,0,.023,0,.046,0,.069Z"/>
    <path class="cls-2" d="M.517.184c0,.065,0,.129,0,.194,0,.007,0,.014.006.02-.008.007-.02.002-.022-.01,0-.003,0-.006,0-.009,0-.048,0-.095,0-.143q0-.017-.016-.014c0-.009,0-.018,0-.027,0-.009.002-.012.011-.011.002,0,.004,0,.006,0,.005,0,.011,0,.016,0Z"/>
    <path class="cls-2" d="M.551.213c0-.01,0-.021,0-.031.043-.002.085-.009.127-.017.003,0,.006,0,.009-.001-.015.009-.031.014-.047.021-.029.013-.059.023-.089.029Z"/>
    <path class="cls-1" d="M.665.059s-.005-.003-.007-.004c-.043-.021-.089-.032-.137-.035-.059-.004-.116.007-.17.031-.021.009-.034.026-.043.046-.008.018-.009.036-.006.055.002.003.003.007.007.008.044.01.088.018.133.021.009,0,.011.003.01.011,0,.045,0,.091,0,.136,0,.007,0,.014.006.019.015.008.027.001.027-.016,0-.037,0-.074,0-.111,0-.009,0-.018,0-.027,0-.009.002-.012.011-.011.002,0,.004,0,.006,0,.005,0,.011,0,.016,0,0,.065,0,.129,0,.194,0,.007,0,.014.006.02.016.008.027.001.027-.016,0-.056,0-.112,0-.168,0-.01,0-.021,0-.031.043-.002.085-.009.127-.017.003,0,.006,0,.009-.001.005-.003.014-.001.015-.01,0-.01.002-.02,0-.031-.005-.026-.015-.048-.037-.063Z"/>
  </g>
  <g>
    <path class="cls-5" d="M.701.153c.095.003.17.079.176.169.004.066.01.132.016.197.004.046.003.093-.003.139-.005.037-.007.075-.011.113-.001.014-.003.028-.004.042"/>
    <path class="cls-5" d="M.75.389c.002.021.004.042.005.063.001.028.005.056.008.084.005.044.014.087.025.13.009.033.018.067.032.098.011.024.029.04.054.049-.002.025-.005.049-.007.074,0,.006-.001.012-.002.018,0,.007-.004.011-.011.008-.004-.001-.009-.002-.013-.001-.031-.004-.062-.008-.093-.012-.017-.002-.017-.002-.019-.02,0-.012-.003-.024-.004-.036,0-.004-.002-.005-.006-.003-.035.013-.072.018-.108.023-.036.006-.073.007-.11.007-.039,0-.079-.002-.118-.008-.028-.004-.055-.009-.083-.016-.009-.002-.017-.006-.026-.009-.001-.001-.002-.003-.003-.004-.018-.013-.028-.031-.028-.054,0-.024.006-.048.009-.072.007-.043.011-.086.013-.13.002-.044-.001-.089-.006-.133-.002-.018-.004-.037-.009-.056-.004.038-.005.075-.009.112-.004.039-.01.077-.018.116-.009.043-.022.086-.036.128-.011.032-.03.054-.062.066-.004-.042-.008-.083-.013-.125-.003-.031-.006-.062-.01-.092-.002-.019.001-.037.002-.056.002-.032.005-.064.008-.096.004-.048.005-.097.013-.145.012-.073.077-.135.151-.145.008-.001.015-.002.023-.002.002.003.003.007.007.008.044.01.088.018.133.021.009,0,.011.003.011.011,0,.045,0,.091,0,.136"/>
    <path class="cls-5" d="M.127.813c.032-.012.051-.034.062-.066.014-.042.027-.084.036-.128.008-.038.014-.077.018-.116.004-.037.005-.074.009-.112.005.019.007.038.009.056.005.044.008.088.006.133-.002.043-.006.087-.013.13-.004.024-.009.048-.009.072,0,.023.01.04.028.054.001,0,.002.002.003.004-.001.014-.003.028-.004.042-.002.017-.001.017-.018.019-.031.004-.062.008-.093.012-.003,0-.006,0-.009,0-.014.002-.014.002-.016-.012-.002-.025-.005-.051-.008-.076,0-.004,0-.008,0-.012Z"/>
    <path class="cls-5" d="M.665.059s-.005-.003-.007-.004c-.043-.021-.089-.032-.137-.035-.059-.004-.116.007-.17.031-.021.009-.034.026-.043.046-.008.018-.009.036-.007.055.002.003.003.007.007.008.044.01.088.018.133.021.009,0,.011.003.011.011,0,.045,0,.091,0,.136,0,.007,0,.014.006.019.015.008.027.001.027-.016,0-.037,0-.074,0-.111,0-.009,0-.018,0-.027,0-.009.002-.012.011-.011.002,0,.004,0,.006,0,.005,0,.011,0,.016,0l.034-.002c.043-.002.085-.009.127-.017.003,0,.006,0,.009-.001.005-.003.014-.001.015-.01,0-.01.002-.02,0-.031-.005-.026-.015-.048-.037-.063Z"/>
    <path class="cls-5" d="M.16.912c.031-.004.062-.008.093-.012,0,.019,0,.037,0,.056,0,.006-.002.009-.008.01-.022.004-.044.009-.066.014-.008.002-.01-.002-.01-.008-.003-.02-.006-.039-.008-.059Z"/>
    <path class="cls-5" d="M.749.9c.031.004.062.008.093.012-.003.019-.006.038-.008.058,0,.008-.003.012-.012.009-.004-.002-.009-.002-.014-.004.005-.028-.008-.044-.026-.049-.011-.003-.022-.004-.033-.006v-.02Z"/>
    <path class="cls-5" d="M.749.92c.011.002.022.003.033.006.018.005.031.021.026.049-.018-.003-.035-.006-.052-.01-.005,0-.007-.003-.007-.009,0-.012,0-.024,0-.036Z"/>
    <path class="cls-5" d="M.633.759s0,0,0,.001c-.001.023-.001.023-.024.028-.044.008-.088.013-.133.01-.034-.002-.067-.006-.1-.014-.005-.001-.008-.003-.008-.009,0-.03,0-.059,0-.089,0-.003,0-.005.002-.008.014-.018.028-.036.042-.055.004-.005.008-.007.015-.007.049,0,.098,0,.148,0,.006,0,.01.002.014.007.013.018.027.036.04.054.003.004.004.008.004.013,0,.023,0,.046,0,.069Z"/>
    <path class="cls-5" d="M.517.184c.011,0,.022-.001.034-.002,0,.01,0,.021,0,.031,0,.056,0,.112,0,.168,0,.017-.011.024-.027.016-.006-.006-.006-.012-.006-.02,0-.065,0-.129,0-.194Z"/>
    <path class="cls-5" d="M.517.184c0,.065,0,.129,0,.194,0,.007,0,.014.006.02-.008.007-.02.002-.022-.01,0-.003,0-.006,0-.009,0-.048,0-.095,0-.143q0-.017-.016-.014c0-.009,0-.018,0-.027,0-.009.002-.012.011-.011.002,0,.004,0,.006,0,.005,0,.011,0,.016,0Z"/>
    <path class="cls-5" d="M.551.213c0-.01,0-.021,0-.031.043-.002.085-.009.127-.017.003,0,.006,0,.009-.001-.015.009-.031.014-.047.021-.029.013-.059.023-.089.029Z"/>
    <path class="cls-5" d="M.869.813c-.032-.012-.051-.034-.062-.066-.014-.042-.027-.084-.036-.128-.008-.038-.014-.077-.018-.116-.004-.037-.005-.074-.009-.112-.005.019-.007.038-.009.056-.005.044-.008.088-.006.133.002.043.006.087.013.13.004.024.009.048.009.072,0,.023-.01.04-.028.054"/>
  </g>
</svg>