<?xml version="1.0" encoding="UTF-8"?>
<svg id="Capa_1" data-name="Capa 1" xmlns="http://www.w3.org/2000/svg" version="1.1" viewBox="0 0 2.8 1">
  <defs>
    <style>
      .cls-1 {
        fill: #ebbd83;
      }

      .cls-1, .cls-2, .cls-3, .cls-4, .cls-5, .cls-6 {
        stroke-width: 0px;
      }

      .cls-2 {
        fill: #f7cc8f;
      }

      .cls-3 {
        fill: #000;
      }

      .cls-4 {
        fill: #b6b1b7;
      }

      .cls-5 {
        fill: #c8c5c9;
      }

      .cls-6 {
        fill: #f9e48f;
      }
    </style>
  </defs>
  <g>
    <path class="cls-2" d="M1.353.522v-.003l-.004.003s0-.003,0-.003h0v-.007c.006-.012,0-.095.003-.095-.008,0-.711.016-.72.016-.105.028-.268-.012-.402-.012.005,0,.009.002.014.003-.006-.002-.013,0-.02-.002.002,0,.004,0,.006,0-.019-.004-.037-.007-.056-.004-.005,0-.009-.002-.014-.001-.008.001-.013.009-.021.012-.013.005-.026.007-.038.014.005-.002.013,0,.018-.003-.012.006-.023.01-.033.019,0,0,0-.001,0-.002-.001,0-.002.002-.003.003-.009.008-.017.014-.025.024-.021.026-.034.057-.033.094,0-.003.002-.003.003-.005,0,.003-.003.005-.003.008,0,0,0,0,0,0,0-.001,0-.002,0-.003,0,.002-.002.002-.002.004,0,0-.002,0-.003.002-.02.132.158.221.263.152.109-.049.237-.026.353-.045,0,0,.716-.048.716-.051l-.006-.115M.055.56s.003-.003.005-.004c.013-.013.027-.024.042-.032,0,0,0,0,0,0-.017.009-.033.022-.048.036ZM.52.535s.003,0,.004,0c0,0-.002,0-.003,0,0,0-.001,0-.002,0ZM1.094.525c-.008,0-.017,0-.025,0,.009,0,.016,0,.025,0ZM.042.569s.003-.002.004-.003c.002-.002.004-.003.006-.005-.003.003-.007.005-.01.008ZM.354.705c.019-.001.037-.002.056-.003-.033.003-.066.008-.098.018.014-.006.027-.015.042-.015ZM1.284.524c-.036,0-.071-.001-.107,0,0,0,0,0,.001,0,.046.001.082.001.106,0ZM.459.44c-.04.002-.08.004-.12.003-.018,0-.034-.006-.051-.011.045.005.107.007.171.008ZM.031.602c.004.042.025.076.057.104-.032-.026-.053-.06-.057-.104ZM.112.727c.037.021.076.022.117.013-.04.008-.082.006-.117-.013Z"/>
    <path class="cls-6" d="M.087.457c.005-.004.009-.011.015-.014-.006.003-.009.01-.015.014Z"/>
  </g>
  <path class="cls-3" d="M1.477.423c-.313-.006-.899.041-1.204.01-.336-.121-.321.441.011.296.222-.063.826-.063,1.069-.092.084-.008.31-.022.397-.026.102-.013.142.098.208.144.239.052.525-.052.776-.071.056.008.043-.08-.006-.062-.218.027-.431.077-.652.085-.058-.056.025-.102.071-.087.166-.013.43-.033.596-.051.056-.031-.016-.08-.062-.056-.149.012-.449.037-.598.05-.04-.022-.053-.119.009-.12.167-.007.432-.004.6-.004.06.024.095-.066.025-.064l-.365.002c-.055-.016-.371.051-.298-.075.218-.007.44.021.659.026.061.009.054-.073-.004-.064-.252.006-.546-.079-.781,0-.067.184-.311.179-.45.162h0v-.003ZM1.477.423c.14.017.382.023.449-.162.161-.072.347-.009.519-.016l.263.015c.06-.011.068.08.004.07-.216-.007-.446-.028-.656-.027-.05.075.065.073.112.069.117,0,.427,0,.547-.003.081,0,.035.104-.025.076-.166,0-.431-.002-.598.005-.058-.003-.04.09-.009.107.148-.014.447-.039.594-.051.12-.024.151.099-.084.088-.1.008-.351.03-.447.037-.052-.012-.108.027-.066.069.166-.007.344-.044.516-.067l.13-.019c.061-.024.072.091.008.079-.256.019-.533.123-.78.069-.069-.049-.109-.158-.204-.144-.422.041-1.052.038-1.466.116-.333.146-.355-.424-.011-.302.301.031.892-.014,1.203-.008h.001Z"/>
  <g>
    <polygon class="cls-1" points="1.353 .639 1.353 .641 1.354 .639 1.353 .639"/>
    <path class="cls-3" d="M1.353.639c.012.007-.014-.004-.003,0h.003ZM1.353.639l.004.003c.011.004-.015-.004-.004-.003h0Z"/>
  </g>
  <g>
    <path class="cls-5" d="M2.737.614c-.06.008-.12.016-.179.026-.068.012-.137.021-.205.031l-.234.033c-.019.003-.034.002-.045-.012-.011-.015-.006-.033,0-.05.007-.018.022-.016.037-.017.061-.004.121-.008.181-.014.084-.008.169-.015.253-.021.052-.003.104-.016.157-.013.012,0,.027-.003.04-.005.024-.004.037-.025.027-.045-.011-.022-.03-.027-.052-.024-.043.005-.085.008-.128.011-.059.005-.119.008-.178.014-.082.008-.164.018-.246.021-.017,0-.033.002-.049.007-.029.01-.052-.008-.054-.038,0-.009,0-.017-.003-.026-.006-.03,0-.041.03-.049.035-.01.07-.005.105-.005h.526c.025,0,.049-.018.045-.036-.005-.022-.019-.036-.044-.034h-.021c-.096.002-.192.002-.288.002-.06,0-.121.006-.181,0-.045-.004-.09.007-.136,0-.047-.007-.06-.03-.035-.072h.002c.045-.01.09,0,.135,0,.095.002.189.012.284.015.048,0,.097.005.145.008.034.003.067.013.102.004.021-.006.037-.014.036-.034-.002-.021-.022-.03-.043-.033-.054-.01-.109-.008-.163-.01-.094-.003-.187-.013-.281-.015-.045,0-.09-.003-.134-.006-.04-.002-.079-.011-.119-.004-.07.012-.123.044-.155.11-.021.041-.052.075-.1.083-.039.007-.078.007-.117.007h-.175c.002.031.004.062.006.093h.004c0,.037-.003.074.006.11.045.002.09-.004.134-.008.04-.003.08,0,.12-.006.051-.008.09.009.123.049.025.03.043.067.08.088.052.029.104.033.163.025.089-.012.178-.025.267-.038.022-.003.045-.002.067-.006.098-.02.198-.031.297-.046.021-.003.039-.011.036-.037-.003-.023-.017-.037-.043-.033Z"/>
    <path class="cls-3" d="M2.737.614c-.126.018-.446.067-.567.084-.117.04-.132-.063-.064-.073.126-.011.45-.036.572-.047.103.009.13-.071.037-.072-.127.01-.449.038-.571.05-.071.046-.127-.078-.063-.113.128-.013.255-.005.383-.008.063-.005.228.01.283-.008.108-.095-.356-.04-.383-.052-.08-.014-.383.05-.309-.079.218-.014.443.021.662.024.059.006.049-.068-.006-.059-.25.006-.546-.079-.778,0-.074.187-.289.171-.456.166.003-.014.011.102.006.089.012-.01.009.111.012.111.107.004.246-.045.352.01.07.099.177.176.304.132l.357-.047c.06-.015.212-.022.264-.047.021-.023-.003-.069-.035-.059h0v-.002ZM2.737.614c.033-.01.057.035.036.059-.051.025-.205.034-.264.048-.124.004-.417.088-.534.041-.17-.192-.245-.148-.481-.134-.005.002-.009-.119-.006-.11-.014.009-.009-.093-.012-.095.17-.005.377.026.455-.168.238-.081.529.004.783-.002.061-.016.073.086.007.075-.216-.006-.445-.029-.655-.026h-.002c.006-.007-.006.013-.005.013-.023.069.084.047.13.05.113,0,.418,0,.534,0,.085.012.058.098-.066.078-.184.003-.39-.008-.572.006-.093.158.157.083.25.084l.381-.031c.101.003.067.09-.037.08-.12.01-.447.036-.571.045-.035-.006-.047.048-.028.069.157.016.489-.067.659-.081h-.002Z"/>
  </g>
  <g>
    <path class="cls-4" d="M1.483.516h.001c-.002-.031-.004-.062-.006-.093-.044,0-.087.002-.13.002v.097h0c.003.039.009.078.006.117.028-.005.056-.005.084-.005.017,0,.035.004.051-.006-.009-.037-.006-.075-.006-.112Z"/>
    <path class="cls-3" d="M1.483.516c.001-.029-.007-.066-.005-.092.002-.002-.144.009-.127,0-.003.003.009.111-.003.102.007-.03.013.134.005.109.162-.019.134.033.129-.119h.001ZM1.483.516l.008.112c-.044.008-.102.019-.14.011-.006-.072-.007-.146-.006-.213,0-.009.13,0,.133-.004.005.03.004.065.005.094h0Z"/>
  </g>
</svg>