<?xml version="1.0" encoding="UTF-8"?>
<svg id="Capa_1" data-name="Capa 1" xmlns="http://www.w3.org/2000/svg" version="1.1" viewBox="0 0 1 1">
  <defs>
    <style>
      .cls-1 {
        fill: none;
        stroke: #000;
        stroke-miterlimit: 10;
        stroke-width: .01px;
      }

      .cls-2 {
        fill: #e00b0b;
        stroke-width: 0px;
      }
    </style>
  </defs>
  <path class="cls-2" d="M.666.506c-.008-.013-.015-.026-.019-.041-.01-.036-.009-.071-.003-.107.004-.023.009-.045.01-.068,0-.01-.002-.012-.012-.01-.022.003-.045.003-.067-.005.006,0,.011,0,.017,0,.031-.002.058-.012.08-.035.031-.032.034-.072.029-.113-.002-.019-.006-.038-.014-.059-.008.027-.028.038-.051.047-.016.006-.03.015-.042.028-.023.022-.044.046-.069.067-.022.001-.002,0-.054,0-.025-.02-.047-.045-.07-.067-.011-.011-.022-.02-.037-.025-.024-.009-.047-.019-.056-.048-.013.031-.019.084-.013.115.006.032.022.057.051.074.023.013.047.018.073.018-.021.008-.042.01-.064.007-.008-.001-.013,0-.011.01.002.011.002.022.004.032.008.04.014.081.008.122,0,.005-.001.009-.002.014h-.002s-.017.047-.028.06c-.003.004-.013.043-.024.094-.008.034-.024.065-.025.1-.004.083.007.164.026.244.002.008.006.01.014.01.059,0,.118,0,.178,0,.003,0,.006.001.008,0,0,0,0,0,0,0h.044s.002.001.003.001c.045,0,.089,0,.134,0,.008,0,.011-.002.013-.01.022-.097.034-.195.022-.294-.007-.057-.022-.111-.053-.16Z"/>
  <path class="cls-1" d="M.666.506c-.008-.013-.015-.026-.019-.041-.01-.036-.009-.071-.003-.107.004-.023.009-.045.01-.068,0-.01-.002-.012-.012-.01-.022.003-.045.003-.067-.005.006,0,.011,0,.017,0,.031-.002.058-.012.08-.035.031-.032.034-.072.029-.113-.002-.019-.006-.038-.014-.059-.008.027-.028.038-.051.047-.016.006-.03.015-.042.028-.023.022-.044.046-.069.067-.023.019-.032.019-.054,0-.025-.02-.047-.045-.07-.067-.011-.011-.022-.02-.037-.025-.024-.009-.047-.019-.056-.048-.013.031-.019.084-.013.115.006.032.022.057.051.074.023.013.047.018.073.018-.021.008-.042.01-.064.007-.008-.001-.013,0-.011.01.002.011.002.022.004.032.008.04.014.081.008.122,0,.005-.001.009-.002.014h-.002s-.077.182-.077.255c0,.083.007.164.026.244.002.008.006.01.014.01.059,0,.118,0,.178,0,.003,0,.006.001.008,0,0,0,0,0,0,0h.044s.002.001.003.001c.045,0,.089,0,.134,0,.008,0,.011-.002.013-.01.022-.097.034-.195.022-.294-.007-.057-.022-.111-.053-.16Z"/>
  <polyline class="cls-1" points=".318 .069 .5 .014 .689 .068"/>
</svg>