<?xml version="1.0" encoding="UTF-8"?>
<svg id="Capa_1" data-name="Capa 1" xmlns="http://www.w3.org/2000/svg" version="1.1" viewBox="0 0 1 1">
  <defs>
    <style>
      .cls-1 {
        fill: #121619;
      }

      .cls-1, .cls-2, .cls-3 {
        stroke-width: 0px;
      }

      .cls-4 {
        fill: none;
        stroke: #000;
        stroke-miterlimit: 10;
        stroke-width: .01px;
      }

      .cls-2 {
        fill: #34393f;
      }

      .cls-3 {
        fill: #4a4b4e;
      }
    </style>
  </defs>
  <g>
    <path class="cls-1" d="M.977.605c0,.036,0,.072,0,.108,0,.006-.003.007-.008.007-.037,0-.074,0-.11,0-.051,0-.103,0-.154,0-.007,0-.009-.002-.009-.009,0-.011,0-.022,0-.034,0-.006-.002-.007-.007-.006-.078.016-.156.031-.234.047-.004,0-.007.001-.011.001-.142,0-.284,0-.426,0v-.066c.141,0,.282,0,.423,0,.004,0,.008.001.012-.002.003,0,.006,0,.008,0,.034-.007.067-.013.101-.02.02-.004.041-.009.061-.013.012-.002.024-.004.036-.007.007,0,.014-.002.021-.004.011-.002.023-.005.034-.003.003.003.007.001.011.001.084,0,.168,0,.253,0Z"/>
    <path class="cls-2" d="M.624.621c-.02.004-.041.009-.061.013-.033.007-.067.013-.101.02-.003,0-.006,0-.008,0-.145,0-.29,0-.435,0v-.058c.011-.037.04-.05.075-.057.075-.015.15-.033.225-.05,0,.011-.005.021-.004.031.003.024.014.044.022.066.001.004.003.005.008.004.026-.006.052-.011.077-.017.024-.005.048-.012.072-.013.033-.002.064.007.092.025.014.009.029.019.037.034Z"/>
    <path class="cls-2" d="M.681.609c-.007.002-.013.005-.021.004,0-.001,0-.003-.001-.003-.022-.031-.051-.054-.087-.068-.033-.013-.066-.016-.1-.01-.035.006-.069.014-.104.021-.004,0-.008.001-.009-.003-.004-.01-.009-.02-.009-.031,0-.023.013-.042.039-.053.001.002.003.004.004.006.014.021.014.02.034.006.004-.003.005-.005.003-.01-.004-.008-.01-.014-.013-.022.011-.002.018-.012.028-.015.003.004.005.008.008.012.011.017.007.015.023.005.003-.002.006-.004.009-.005.004-.002.005-.005.002-.009-.005-.007-.011-.014-.014-.023.011-.002.018-.011.028-.015.001.002.003.004.004.005q.014.021.034.008s.001,0,.002-.001c.004-.002.005-.005.002-.009-.005-.007-.009-.014-.013-.021l.026-.017c.006.005.009.012.013.019.003.006.006.009.012.003.004-.004.009-.006.014-.009.005-.003.006-.006.003-.011-.004-.007-.008-.014-.012-.021.02-.011.038-.025.059-.036.014.012.028.025.042.037.063.054.153.057.219.007.007-.005.009-.004.012.003.008.019.018.037.024.056-.002.003-.005.003-.007.004-.036.009-.07.022-.103.04-.053.028-.098.066-.131.117-.008.013-.018.026-.019.042Z"/>
    <path class="cls-2" d="M.954.439c.007.027.014.054.018.082.004.028.007.056.006.085-.087,0-.175,0-.262,0,0-.003.002-.006.004-.008.017-.028.037-.053.062-.074.025-.021.051-.038.08-.052.029-.014.06-.024.091-.033Z"/>
    <path class="cls-1" d="M.389.465c-.026.011-.04.03-.039.053,0,.011.005.021.009.031.002.004.005.004.009.003.035-.007.069-.015.104-.021.034-.006.068-.003.1.01.036.014.064.037.087.068,0,0,0,.002.001.003-.012.004-.024.005-.036.007-.009-.015-.023-.025-.037-.034-.028-.018-.059-.027-.092-.025-.024.002-.048.008-.072.013-.026.006-.052.011-.077.017-.005.001-.006,0-.008-.004-.008-.022-.019-.042-.022-.066-.001-.011.003-.021.004-.031.01-.024.028-.041.051-.053.008.008.013.018.018.028Z"/>
    <path class="cls-1" d="M.954.439c-.031.009-.062.018-.091.033-.029.014-.056.031-.08.052-.025.021-.046.046-.062.074-.002.003-.004.005-.004.008,0,0-.001,0-.002,0-.012-.001-.023.002-.034.003.001-.016.011-.029.019-.042.033-.051.078-.089.131-.117.033-.018.067-.031.103-.04.003,0,.006,0,.007-.004.005.001.011,0,.015.004.009.007.008.019-.003.028Z"/>
    <path class="cls-3" d="M.585.34c.004.007.008.014.012.021.003.005.003.008-.003.011-.005.003-.01.005-.014.009-.006.005-.009.002-.012-.003-.004-.007-.007-.014-.013-.019-.004-.01-.009-.019-.017-.026-.002-.01-.01-.017-.015-.026-.002-.004-.003-.006.002-.009.008-.004.015-.013.022-.012.007,0,.009.013.014.019.002.003.003.005.005.008.006.009.012.018.018.027Z"/>
    <path class="cls-3" d="M.473.409c.003.009.009.016.014.023.003.005.002.007-.002.009-.003.002-.006.003-.009.005-.016.01-.012.011-.023-.005-.003-.004-.005-.008-.008-.012-.005-.01-.011-.019-.018-.028-.003-.009-.01-.016-.015-.025-.002-.004-.003-.006.002-.009.006-.003.012-.007.018-.011.004-.003.006-.002.009.002.005.008.01.016.016.024.005.009.01.019.017.026Z"/>
    <path class="cls-3" d="M.389.465c-.005-.01-.01-.02-.018-.028-.003-.01-.01-.017-.015-.026-.002-.004-.002-.006.002-.008.006-.003.012-.007.018-.011.004-.003.006-.002.009.002.005.008.01.016.016.024.005.01.01.018.017.026.003.008.009.015.013.022.002.004.002.007-.003.01-.021.015-.02.015-.034-.006-.001-.002-.003-.004-.004-.006Z"/>
    <path class="cls-3" d="M.529.375c.004.007.008.014.013.021.003.004.002.007-.002.009,0,0-.001,0-.002.001q-.02.013-.034-.008s-.002-.004-.004-.005c-.006-.01-.011-.02-.018-.028-.005-.008-.01-.017-.015-.025-.002-.003-.002-.006.002-.007,0,0,0,0,0,0,.007-.005.015-.013.022-.012.007,0,.01.013.015.02.002.002.004.005.006.007.004.01.011.019.017.028Z"/>
    <path class="cls-1" d="M.585.34c-.006-.009-.012-.018-.018-.027.017-.008.032-.019.048-.029.005-.003.008-.003.011.002.006.007.012.013.018.019-.02.011-.039.025-.059.036Z"/>
    <path class="cls-1" d="M.417.445c-.007-.008-.012-.017-.017-.026.009-.006.018-.011.027-.017.007.009.013.018.018.028-.01.003-.017.013-.028.015Z"/>
    <path class="cls-1" d="M.483.366c.007.009.012.019.018.028-.01.004-.017.013-.028.015-.007-.008-.012-.017-.017-.026.009-.006.018-.011.027-.017Z"/>
    <path class="cls-1" d="M.529.375c-.006-.009-.013-.018-.017-.028.009-.005.018-.011.026-.016.008.007.013.017.017.026-.009.006-.018.011-.026.017Z"/>
  </g>
  <g>
    <path class="cls-4" d="M.979.605c0,.036,0,.072,0,.108,0,.006-.003.007-.008.007-.037,0-.074,0-.11,0-.051,0-.103,0-.154,0-.007,0-.009-.002-.009-.009,0-.011,0-.022,0-.034,0-.006-.002-.007-.007-.006-.078.016-.156.031-.234.047-.004,0-.007.001-.011.001-.142,0-.284,0-.426,0v-.066c.141,0,.282,0,.423,0,.004,0,.008.001.012-.002.003,0,.006,0,.008,0,.034-.007.067-.013.101-.02.02-.004.041-.009.061-.013.012-.002.024-.004.036-.007.007,0,.014-.002.021-.004.011-.002.023-.005.034-.003.003.003.007.001.011.001.084,0,.168,0,.253,0Z"/>
    <path class="cls-4" d="M.626.621c-.02.004-.041.009-.061.013-.033.007-.067.013-.101.02-.003,0-.006,0-.008,0-.145,0-.29,0-.435,0v-.058c.011-.037.04-.05.075-.057.075-.015.15-.033.225-.05,0,.011-.005.021-.004.031.003.024.014.044.022.066.001.004.003.005.008.004.026-.006.052-.011.077-.017.024-.005.048-.012.072-.013.033-.002.064.007.092.025.014.009.029.019.037.034Z"/>
    <path class="cls-4" d="M.682.609c-.007.002-.013.005-.021.004,0-.001,0-.003-.001-.003-.022-.031-.051-.054-.087-.068-.033-.013-.066-.016-.1-.01-.035.006-.069.014-.104.021-.004,0-.008.001-.009-.003-.004-.01-.009-.02-.009-.031,0-.023.013-.042.039-.053.001.002.003.004.004.006.014.021.014.02.034.006.004-.003.005-.005.003-.01-.004-.008-.01-.014-.013-.022.011-.002.018-.012.028-.015.003.004.005.008.008.012.011.017.007.015.023.005.003-.002.006-.004.009-.005.004-.002.005-.005.002-.009-.005-.007-.011-.014-.014-.023.011-.002.018-.011.028-.015.001.002.003.004.004.005q.014.021.034.008s.001,0,.002-.001c.004-.002.005-.005.002-.009-.005-.007-.009-.014-.013-.021l.026-.017c.006.005.009.012.013.019.003.006.006.009.012.003.004-.004.009-.006.014-.009.005-.003.006-.006.003-.011-.004-.007-.008-.014-.012-.021.02-.011.038-.025.059-.036.014.012.028.025.042.037.063.054.153.057.219.007.007-.005.009-.004.012.003.008.019.018.037.024.056-.002.003-.005.003-.007.004-.036.009-.07.022-.103.04-.053.028-.098.066-.131.117-.008.013-.018.026-.019.042Z"/>
    <path class="cls-4" d="M.955.439c.007.027.014.054.018.082.004.028.007.056.006.085-.087,0-.175,0-.262,0,0-.003.002-.006.004-.008.017-.028.037-.053.062-.074.025-.021.051-.038.08-.052.029-.014.06-.024.091-.033Z"/>
    <path class="cls-4" d="M.39.465c-.026.011-.04.03-.039.053,0,.011.005.021.009.031.002.004.005.004.009.003.035-.007.069-.015.104-.021.034-.006.068-.003.1.01.036.014.064.037.087.068,0,0,0,.002.001.003-.012.004-.024.005-.036.007-.009-.015-.023-.025-.037-.034-.028-.018-.059-.027-.092-.025-.024.002-.048.008-.072.013-.026.006-.052.011-.077.017-.005.001-.006,0-.008-.004-.008-.022-.019-.042-.022-.066-.001-.011.003-.021.004-.031.01-.024.028-.041.051-.053.008.008.013.018.018.028Z"/>
    <path class="cls-4" d="M.955.439c-.031.009-.062.018-.091.033-.029.014-.056.031-.08.052-.025.021-.046.046-.062.074-.002.003-.004.005-.004.008,0,0-.001,0-.002,0-.012-.001-.023.002-.034.003.001-.016.011-.029.019-.042.033-.051.078-.089.131-.117.033-.018.067-.031.103-.04.003,0,.006,0,.007-.004.005.001.011,0,.015.004.009.007.008.019-.003.028Z"/>
    <path class="cls-4" d="M.587.34c.004.007.008.014.012.021.003.005.003.008-.003.011-.005.003-.01.005-.014.009-.006.005-.009.002-.012-.003-.004-.007-.007-.014-.013-.019-.004-.01-.009-.019-.017-.026-.002-.01-.01-.017-.015-.026-.002-.004-.003-.006.002-.009.008-.004.015-.013.022-.012.007,0,.009.013.014.019.002.003.003.005.005.008.006.009.012.018.018.027Z"/>
    <path class="cls-4" d="M.474.409c.003.009.009.016.014.023.003.005.002.007-.002.009-.003.002-.006.003-.009.005-.016.01-.012.011-.023-.005-.003-.004-.005-.008-.008-.012-.005-.01-.011-.019-.018-.028-.003-.009-.01-.016-.015-.025-.002-.004-.003-.006.002-.009.006-.003.012-.007.018-.011.004-.003.006-.002.009.002.005.008.01.016.016.024.005.009.01.019.017.026Z"/>
    <path class="cls-4" d="M.39.465c-.005-.01-.01-.02-.018-.028-.003-.01-.01-.017-.015-.026-.002-.004-.002-.006.002-.008.006-.003.012-.007.018-.011.004-.003.006-.002.009.002.005.008.01.016.016.024.005.01.01.018.017.026.003.008.009.015.013.022.002.004.002.007-.003.01-.021.015-.02.015-.034-.006-.001-.002-.003-.004-.004-.006Z"/>
    <path class="cls-4" d="M.531.375c.004.007.008.014.013.021.003.004.002.007-.002.009,0,0-.001,0-.002.001q-.02.013-.034-.008s-.002-.004-.004-.005c-.006-.01-.011-.02-.018-.028-.005-.008-.01-.017-.015-.025-.002-.003-.002-.006.002-.007,0,0,0,0,0,0,.007-.005.015-.013.022-.012.007,0,.01.013.015.02.002.002.004.005.006.007.004.01.011.019.017.028Z"/>
    <path class="cls-4" d="M.587.34c-.006-.009-.012-.018-.018-.027.017-.008.032-.019.048-.029.005-.003.008-.003.011.002.006.007.012.013.018.019-.02.011-.039.025-.059.036Z"/>
    <path class="cls-4" d="M.418.445c-.007-.008-.012-.017-.017-.026.009-.006.018-.011.027-.017.007.009.013.018.018.028-.01.003-.017.013-.028.015Z"/>
    <path class="cls-4" d="M.484.366c.007.009.012.019.018.028-.01.004-.017.013-.028.015-.007-.008-.012-.017-.017-.026.009-.006.018-.011.027-.017Z"/>
    <path class="cls-4" d="M.531.375c-.006-.009-.013-.018-.017-.028.009-.005.018-.011.026-.016.008.007.013.017.017.026-.009.006-.018.011-.026.017Z"/>
  </g>
</svg>