<?xml version="1.0" encoding="UTF-8"?>
<svg id="Layer_1" data-name="Layer 1" xmlns="http://www.w3.org/2000/svg" version="1.1" viewBox="0 0 1 1">
  <defs>
    <style>
      .cls-1, .cls-2 {
        fill: #e92e00;
      }

      .cls-1, .cls-3 {
        stroke-width: 0px;
      }

      .cls-4 {
        fill: #851600;
        stroke-width: .0102px;
      }

      .cls-4, .cls-2 {
        stroke: #000;
        stroke-linecap: round;
        stroke-miterlimit: 10;
      }

      .cls-2 {
        stroke-width: .0144px;
      }

      .cls-3 {
        fill: #000;
      }
    </style>
  </defs>
  <path class="cls-2" d="M.4175.6743c0,.0074-.0445.2495-.0445.2495,0,0-.0148.0642.1334.0642s.1284-.0741.1284-.0741l-.0469-.2346-.1704-.0049Z"/>
  <polygon class="cls-2" points=".4096 .373 .412 .4619 .6022 .4619 .6022 .3656 .4096 .373"/>
  <path class="cls-2" d="M.2787.0717l.0198.2964s.0025.0482.0482.0482h.3075s.0469.0185.0568-.0506.0222-.2915.0222-.2915c0,0-.4644-.0025-.4545-.0025Z"/>
  <g>
    <path class="cls-1" d="M.7665.5508c0,.0919-.0748.2334-.2606.2334-.1847,0-.2606-.1415-.2606-.2334s.2192-.0995.2606-.0995c.1439,0,.2606.0378.2606.0995Z"/>
    <path class="cls-3" d="M.7665.5508c.0063.2605-.4096.3328-.5109.0908-.1334-.2486.4507-.2495.5109-.0908h0ZM.7665.5508c-.0494-.149-.6244-.1376-.4921.0825.0824.2256.4888.1783.4921-.0825h0Z"/>
  </g>
  <g>
    <ellipse class="cls-1" cx=".5059" cy=".5369" rx=".2606" ry=".0856"/>
    <path class="cls-3" d="M.7665.5369c-.0745.1209-.454.1317-.5308,0,.0764-.1317.4561-.1211.5308,0h0ZM.7665.5369c-.0864-.1194-.4273-.1079-.5115,0,.084.108.425.1194.5115,0h0Z"/>
  </g>
  <ellipse class="cls-4" cx=".5059" cy=".541" rx=".1977" ry=".0543"/>
  <path class="cls-2" d="M.258.0914h.4915s.0222-.0741-.0346-.0741h-.4199s-.037-.0049-.037.0741Z"/>
  <path class="cls-3" d="M.3061.1294s.0512-.0221.0679-.0185c.0252.0053.0159.0229.0026.0291-.0107.005-.0207-.009-.0207-.009l-.0445.0099-.0055-.0114Z"/>
</svg>