<?xml version="1.0" encoding="UTF-8"?>
<svg id="Capa_1" data-name="Capa 1" xmlns="http://www.w3.org/2000/svg" version="1.1" viewBox="0 0 1 1">
  <defs>
    <style>
      .cls-1 {
        fill: #e92e00;
        stroke: #000;
        stroke-miterlimit: 10;
        stroke-width: .01px;
      }
    </style>
  </defs>
  <path class="cls-1" d="M.568.68c0-.031,0-.061,0-.092,0-.01.004-.014.013-.016.014-.003.026-.009.038-.018.009-.006.016-.014.021-.022.013-.022.011-.048-.006-.062-.018-.014-.045-.012-.063.005-.018.017-.026.039-.03.063-.001.008-.004.011-.012.011-.019,0-.038,0-.056,0-.007,0-.011-.002-.012-.01-.002-.016-.007-.032-.016-.046-.006-.009-.012-.018-.022-.024-.018-.011-.042-.011-.057.002-.014.012-.018.035-.008.054.012.025.034.038.06.045.013.003.015.009.016.021.001.058.004.116.006.175,0,.01-.001.015-.013.014-.029,0-.029,0-.033-.029-.005-.037-.019-.071-.041-.101-.014-.02-.03-.04-.045-.06-.06-.081-.083-.221-.001-.323.067-.083.154-.115.257-.088.101.027.162.097.18.199.014.083-.006.158-.059.224-.03.037-.059.075-.071.123-.004.015-.006.029-.007.044,0,.006-.002.009-.009.009-.035.002-.035.002-.034-.033,0-.023,0-.046,0-.069h.006Z"/>
  <path class="cls-1" d="M.501.813c.033,0,.067,0,.1,0,.009,0,.012.002.012.011,0,.022,0,.043,0,.065,0,.011-.003.015-.014.015-.066,0-.131,0-.197,0-.01,0-.014-.004-.014-.014,0-.022,0-.043,0-.065,0-.01.002-.013.012-.013.034,0,.068,0,.101,0Z"/>
  <path class="cls-1" d="M.531.679c0,.03,0,.06,0,.09,0,.011-.004.014-.014.013-.012,0-.024,0-.037,0-.007,0-.01-.001-.011-.009-.002-.061-.004-.122-.006-.183,0-.008.002-.01.01-.009.018,0,.036,0,.054,0,.009,0,.011.003.011.011,0,.029,0,.058,0,.087-.002,0-.004,0-.006,0Z"/>
  <path class="cls-1" d="M.564.934c-.006.024-.025.039-.047.039-.01,0-.02,0-.03,0-.024.002-.038-.012-.049-.031-.003-.004-.005-.009.004-.009.041,0,.081,0,.122,0Z"/>
  <path class="cls-1" d="M.13.416c.007,0,.013,0,.02,0,.011,0,.018.006.018.018,0,.011-.007.017-.017.017-.014,0-.028,0-.042,0-.01,0-.016-.008-.016-.018,0-.01.007-.015.016-.017.007,0,.014,0,.021,0h0Z"/>
  <path class="cls-1" d="M.869.451c-.007,0-.013,0-.02,0-.01-.001-.017-.007-.016-.018,0-.011.007-.017.017-.017.014,0,.027,0,.041,0,.01,0,.017.007.017.017,0,.011-.007.017-.017.018-.007,0-.014,0-.021,0h0Z"/>
  <path class="cls-1" d="M.195.276c-.016-.008-.034-.015-.048-.03-.005-.005-.003-.013.002-.018.005-.006.012-.009.019-.006.014.007.027.015.04.023.006.004.008.011.005.019-.003.008-.008.011-.018.012Z"/>
  <path class="cls-1" d="M.806.591c.015.007.033.015.046.028.006.006.004.013,0,.019-.005.006-.012.01-.02.006-.013-.007-.026-.014-.039-.022-.007-.004-.009-.012-.005-.02.003-.007.009-.01.019-.011Z"/>
  <path class="cls-1" d="M.855.239s-.002.01-.006.012c-.013.008-.026.016-.04.023-.009.004-.017,0-.021-.008-.004-.008-.003-.016.005-.021.013-.008.026-.016.039-.022.011-.005.024.004.023.016Z"/>
  <path class="cls-1" d="M.194.591c.01.001.016.005.019.012.003.008.001.015-.005.019-.013.008-.027.016-.04.023-.007.004-.014,0-.019-.006-.005-.006-.006-.013-.002-.018.013-.016.032-.021.047-.03Z"/>
  <path class="cls-1" d="M.306.079c.006,0,.011.003.015.009.006.011.013.022.019.033.005.01.004.019-.006.024-.009.005-.018.003-.023-.006-.007-.011-.014-.023-.02-.035-.006-.012.002-.025.016-.025Z"/>
  <path class="cls-1" d="M.674.147c-.012,0-.02-.012-.015-.023.007-.014.015-.027.023-.04.005-.008.014-.008.021-.004.008.004.011.012.008.019-.006.015-.015.029-.024.042-.003.004-.008.005-.013.005Z"/>
  <path class="cls-1" d="M.517.063c0,.007,0,.014,0,.021,0,.011-.007.016-.017.016-.01,0-.016-.006-.017-.015,0-.014,0-.029,0-.043,0-.01.007-.015.017-.015.01,0,.017.006.017.016,0,.007,0,.014,0,.021Z"/>
  <path class="cls-1" d="M.429.543c-.018-.005-.032-.012-.041-.025-.005-.007-.01-.016-.001-.023.008-.006.017-.002.024.005.01.011.015.025.018.043Z"/>
  <path class="cls-1" d="M.571.543c.003-.017.008-.031.018-.042.007-.008.016-.012.025-.005.008.007.003.016-.002.023-.009.014-.023.02-.04.025Z"/>
</svg>