<?xml version="1.0" encoding="UTF-8"?>
<svg id="Layer_1" data-name="Layer 1" xmlns="http://www.w3.org/2000/svg" version="1.1" viewBox="0 0 1 1">
  <defs>
    <style>
      .cls-1 {
        fill: #e92e00;
      }

      .cls-1, .cls-2 {
        stroke-width: 0px;
      }

      .cls-2 {
        fill: #000;
      }
    </style>
  </defs>
  <g>
    <path class="cls-1" d="M.6704.5484s-.0284-.0114-.0284-.1003.0352-.1068.0352-.1068l.0857-.0113s.0535.0091.0535.1051-.0465.0971-.0465.0971l-.0995.0162Z"/>
    <path class="cls-2" d="M.6704.5484c-.0418-.0563-.0485-.1552.0062-.2123.0027,0,.085-.0136.0876-.0129.0985.0686.0847.2314-.0938.2252h0ZM.6704.5484c.2025-.003.1551-.1799.0914-.2115.0091-.0004-.0853.0096-.0838.0096-.0381.0433-.0496.1453-.0076.202h0Z"/>
  </g>
  <g>
    <path class="cls-1" d="M.3109.9254V.2331s.0108-.186.186-.186c0,0,.2053-.0011.2053.1752v.688s-.0323.0645-.2172.0645-.1742-.0495-.1742-.0495Z"/>
    <path class="cls-2" d="M.3109.9254c.0053-.1755-.0197-.5733.0019-.7416C.3474-.0048.6484-.0118.7064.1671c.0178.1696-.0036.5679.0002.7431-.0817.0862-.3192.0979-.3957.0151H.3109ZM.3109.9254c.0853.0844.3025.0576.387-.0151,0,0-.005-.4937-.005-.4937.0047-.1569.0184-.3623-.193-.3595-.197-.008-.1912.2272-.184.3749l-.0049.4934H.3109Z"/>
  </g>
  <g>
    <path class="cls-1" d="M.2798.8577s.0332.0613.2224.0613.2236-.0753.2236-.0753v.0624s-.0194.0774-.2236.0774-.215-.0688-.215-.0688l-.0074-.057Z"/>
    <path class="cls-2" d="M.2798.8577c.1193.0884.3721.0868.4559-.0456.0333.1851-.1356.1769-.2568.177-.0851-.0033-.2137-.0205-.1991-.1315H.2798ZM.2798.8577c-.0038.1777.3674.1405.4344.0455-.0008.0133.0012-.0618.0011-.0594.035.0981-.3753.1093-.4354.0138H.2798Z"/>
  </g>
  <g>
    <path class="cls-1" d="M.3152.833l-.0024-.031s-.0352.0295-.033.0568c.001.0115.0166.0522.223.0715,0,0,.2266-.0097.2273-.1017.0002-.0201-.0265-.0471-.0265-.0471l-.0058.0364s-.0516.0602-.1892.0624-.1935-.0473-.1935-.0473Z"/>
    <path class="cls-2" d="M.3141.8335c.003.0001-.0083-.0381-.0002-.0301-.0577.0384-.0201.0929.0382.0941-.0003-.0002.1545.0253.1505.0248.0708.0036.2843-.0324.1941-.1339,0,0,.0167-.0053.0167-.0053-.0256.1464-.3098.1255-.3993.0503H.3141ZM.3163.8324c.108.056.3717.0624.3803-.0676.2328.2009-.5753.2343-.3851.0359.0052-.0023.0039.0302.0048.0318H.3163Z"/>
  </g>
  <g>
    <path class="cls-1" d="M.2798.2488s.0332.0613.2224.0613.2236-.0753.2236-.0753v.0624s-.0194.0774-.2236.0774-.215-.0688-.215-.0688l-.0074-.057Z"/>
    <path class="cls-2" d="M.2798.2488c.1193.0884.3721.0868.4559-.0456.0333.1851-.1356.1769-.2568.177-.0851-.0033-.2137-.0205-.1991-.1315H.2798ZM.2798.2488c-.0038.1777.3674.1405.4344.0455-.0008.0133.0012-.0618.0011-.0594.035.0981-.3753.1093-.4354.0138H.2798Z"/>
  </g>
  <g>
    <path class="cls-1" d="M.423.0372s.0056.0295.067.0295.0761-.0261.0761-.0261l-.0011.0431s-.0063.0267-.0726.0267-.0671-.0232-.0671-.0232l-.0023-.05Z"/>
    <path class="cls-2" d="M.423.0372c.0334.0456.1144.0325.1467-.0045,0,.0054-.0006.0458-.0009.0521-.0456.053-.1713.0373-.1458-.0476H.423ZM.423.0372c-.0234.0852.0997.0899.1383.0456-.0003.0036.0016-.043.0015-.0422-.0068.0355-.1183.0417-.1398-.0034H.423Z"/>
  </g>
  <g>
    <path class="cls-1" d="M.3136.2289l-.0024-.031s-.0352.0295-.033.0568c.001.0115.0166.0493.223.0687,0,0,.2217.0113.2273-.0988.001-.0201-.0265-.0471-.0265-.0471l-.0058.0364s-.0516.0602-.1892.0624-.1935-.0473-.1935-.0473Z"/>
    <path class="cls-2" d="M.3125.2295c.0029,0-.0083-.0381-.0002-.0301-.1153.1066.1448.1011.1976.1166.0849.0185.2693-.0382.1853-.1314l.0166-.0054c-.0256.1464-.3098.1255-.3993.0503H.3125ZM.3147.2284c.1079.056.3716.0624.3803-.0676.2347.2099-.5681.2286-.3851.0358.0052-.0023.0039.0302.0048.0318H.3147Z"/>
  </g>
  <path class="cls-2" d="M.3708.4292c.0051.1394.0215.288-.0024.4227-.0148-.1395-.0118-.2878.0024-.4227H.3708Z"/>
  <path class="cls-2" d="M.4367.4463c.0051.1394.0215.288-.0024.4227-.0148-.1395-.0118-.2878.0024-.4227H.4367Z"/>
  <path class="cls-2" d="M.5322.4508c.0051.1394.0215.288-.0024.4227-.0148-.1395-.0118-.2878.0024-.4227h0Z"/>
  <path class="cls-2" d="M.6288.4292c.0051.1394.0215.288-.0024.4227-.0148-.1395-.0118-.2878.0024-.4227h0Z"/>
  <g>
    <path class="cls-1" d="M.5673.044c0,.0116-.0476.0261-.0818.0261s-.0591-.0162-.0591-.0278.0419-.0233.0761-.0233.0648.0134.0648.025Z"/>
    <path class="cls-2" d="M.5686.044c-.0347.0435-.1083.0509-.1484.0005.0383-.054.1177-.0484.1484-.0005C.5686.044.538-.0039.5686.044ZM.5661.044c-.0362-.0255-.1034-.0102-.1331-.0013.0244.0334.0957.0166.1331.0013C.5661.044.5287.0593.5661.044Z"/>
  </g>
  <g>
    <path class="cls-1" d="M.2804.5775s.0592-.0081.0592-.097-.0524-.1101-.0524-.1101l.0864.0016s.0535.0091.0535.1051-.0465.0971-.0465.0971l-.1002.0033Z"/>
    <path class="cls-2" d="M.2804.5775c.0913-.0364.0651-.1849-.0146-.2129.0147,0,.0927.0008.1091.0011.0654.0281.0595.1047.0508.157-.0098.0755-.0978.0482-.1453.0548H.2804ZM.2804.5775c.0522-.0074.1327.0147.1394-.0561.017-.1143-.0215-.1562-.1326-.1454.0662-.0069.0832.1865-.0068.2015H.2804Z"/>
  </g>
  <g>
    <path class="cls-1" d="M.2941.3688c.0233,0,.0524.0689.0524.1183s-.0325.0855-.0558.0855-.0763-.0113-.0791-.0986c-.0032-.1019.0592-.1052.0825-.1052Z"/>
    <path class="cls-2" d="M.2941.3688c.0734.0369.0894.2315-.0306.2093-.092-.0433-.0734-.2176.0306-.2093H.2941ZM.2941.3688c-.1049-.002-.0965.169-.0245.1905.0886.02.0928-.1457.0245-.1905,0,0,.0684.0448,0,0Z"/>
  </g>
  <g>
    <path class="cls-1" d="M.7111.3672s-.0962.018-.0962.1069.0894.1002.0894.1002l-.0864-.0016s-.0535-.0091-.0535-.1051.0465-.0971.0465-.0971l.1002-.0033Z"/>
    <path class="cls-2" d="M.7111.3672c-.1174.011-.1233.1963-.0062.2013l-.0009.0116c-.1261.0164-.1589-.049-.1382-.1581.0098-.0755.0978-.0482.1453-.0548h0ZM.7111.3672c-.0522.0074-.1327-.0147-.1394.0561-.0169.1143.0212.1565.1326.1451-.1013.0453-.1341-.2005.0068-.2013h0Z"/>
  </g>
  <g>
    <path class="cls-1" d="M.6974.5759c-.0232-.0021-.0874-.0225-.0894-.1084-.0016-.0712.0695-.0954.0928-.0954s.0686.0346.0686.0841-.0174.1246-.0721.1197Z"/>
    <path class="cls-2" d="M.6973.5774c-.1262-.0018-.1302-.1868-.0118-.2117.1336-.0121.125.2145.0118.2117h0ZM.6975.5744c.0823-.0277.076-.1896-.0084-.1923-.1053.0129-.0838.1739.0084.1923,0,0-.0922-.0184,0,0Z"/>
  </g>
  <g>
    <path class="cls-1" d="M.7152.5338c-.0102,0-.0384-.0132-.0393-.0637-.0007-.0418.0305-.056.0408-.056s.0305.0279.0305.057-.0217.0627-.032.0627Z"/>
    <path class="cls-2" d="M.7152.5349c-.0617-.008-.0604-.1024-.008-.1247.0717.0066.0586.1089.008.1247,0,0,.0506-.0159,0,0ZM.7152.5328c.0321-.032.0263-.0993-.0041-.1116-.0443.0155-.0327.0934.0041.1116,0,0-.0368-.0182,0,0Z"/>
  </g>
  <g>
    <path class="cls-1" d="M.2558.5371c-.006,0-.0227-.0132-.0232-.0637-.0004-.0418.018-.056.0241-.056s.018.0279.018.057-.0129.0627-.0189.0627Z"/>
    <path class="cls-2" d="M.2558.5379c-.0415-.0262-.0364-.089-.0048-.1235.0492.0268.0351.0934.0048.1235,0,0,.0303-.0301,0,0ZM.2558.5363c.017-.0347.0125-.0916-.0006-.1138-.0281.0245-.0197.0862.0006.1138,0,0-.0203-.0276,0,0Z"/>
  </g>
</svg>