<?xml version="1.0" encoding="UTF-8"?>
<svg id="Capa_1" data-name="Capa 1" xmlns="http://www.w3.org/2000/svg" version="1.1" viewBox="0 0 1 1">
  <defs>
    <style>
      .cls-1 {
        fill: #d54122;
      }

      .cls-1, .cls-2 {
        stroke: #000;
        stroke-miterlimit: 10;
        stroke-width: .01px;
      }

      .cls-2 {
        fill: #000;
      }
    </style>
  </defs>
  <path class="cls-1" d="M.611.196s0,.007.001.01c.002.009.004.017.005.026.002.008.004.016.005.024,0,.005.002.009.003.014,0,.005.002.01.003.015,0,.004.002.008.003.012.002.009.004.018.006.027.002.008.003.016.005.025.002.008.004.017.005.025.003.014.006.028.009.042.002.011.005.021.007.032.002.008.003.016.005.024.002.008.003.016.005.023,0,.004.002.008.002.012.002.009.004.019.006.028.002.011.004.021.006.032.002.007.003.015.005.022.001.003,0,.007.002.011,0,0,0,.002,0,.003-.002-.001-.004-.001-.007-.001-.029,0-.059,0-.088,0-.006,0-.011-.002-.016-.005-.013-.009-.023-.022-.03-.037,0-.001-.001-.002-.002-.003-.003-.006-.005-.012-.006-.018-.003-.015-.005-.03-.005-.045,0-.016.002-.032.005-.047.002-.012.006-.023.009-.034.008-.027-.006-.055-.033-.063-.031-.01-.06.012-.064.04-.001.01,0,.019.003.027.004.013.007.026.01.039.003.017.004.034.003.051-.001.022-.006.044-.017.063-.005.008-.01.015-.017.02-.004.003-.008.006-.013.009-.002.001-.005.002-.007.002-.03,0-.061,0-.091,0-.002,0-.005,0-.007.001-.002-.003,0-.006.001-.009.001-.011.004-.021.006-.032.002-.01.004-.021.007-.031.002-.008.003-.017.005-.025.002-.008.003-.015.005-.023.001-.005.002-.009.003-.014,0-.004.002-.009.002-.013.001-.006.002-.012.004-.017.002-.007.003-.014.005-.021.002-.008.003-.016.005-.024.002-.008.004-.016.005-.025.001-.008.004-.017.005-.025.001-.007.003-.014.004-.021.001-.006.003-.012.004-.018.001-.008.004-.016.005-.024.003-.014.005-.028.009-.042.002-.008.003-.016.005-.024.001-.006.004-.012.003-.018.001-.001.003,0,.004-.001.015,0,.029,0,.044,0,.002,0,.004,0,.005.001,0,.002,0,.004,0,.006-.004.02.003.037.019.05.005.004.011.007.018.009.006.002.012.002.017.001.012-.001.023-.006.031-.015.007-.007.011-.016.013-.026.001-.006.002-.013,0-.019,0-.002,0-.004,0-.006.002-.001.003,0,.005,0,.014,0,.029,0,.043,0,.002,0,.003,0,.005.001Z"/>
  <path class="cls-1" d="M.657.99c-.005.003-.011.004-.017.004-.088,0-.176,0-.263,0-.013,0-.025-.004-.033-.016-.006-.009-.007-.019-.004-.03.004-.011.009-.022.014-.033.003-.007.005-.014.009-.021.005-.01.009-.02.013-.03.004-.01.008-.02.013-.03.003-.008.007-.015.01-.023,0,0,0,0,.001,0,0,.002,0,.003,0,.004-.012.026-.023.053-.034.079-.007.017-.015.034-.022.051-.008.019.003.039.023.044.002,0,.004,0,.006,0,.091,0,.181,0,.272,0,.003,0,.006,0,.009-.001.001,0,.002,0,.004,0,0,0,0,0,0,.001Z"/>
  <path class="cls-1" d="M.409.196s-.002,0-.004,0c-.002,0-.004-.001-.005-.002-.006-.003-.009-.011-.006-.017.001-.004.002-.008.003-.011.001-.006.003-.012.005-.017,0-.004.002-.008.003-.012.001-.006.003-.011.005-.017.001-.004.003-.009.003-.013.001-.006.003-.011.005-.017,0-.003.002-.006.002-.009.001-.005.003-.009.004-.014.001-.006.003-.011.004-.016.002-.007.004-.013.005-.02,0-.004.002-.007.003-.011,0-.004.007-.011.011-.012.005-.001.01-.002.016-.002.032,0,.065,0,.097,0,.009,0,.015.003.019.011.001.002.002.005.002.008.002.008.004.017.007.025.002.006.003.012.005.018.002.006.003.012.005.018.002.006.004.012.005.018.002.006.003.012.005.018.002.006.003.011.005.017.001.004.002.008.003.012.002.006.004.012.005.018.001.006.004.011.001.017-.002.003-.004.006-.008.007-.001,0-.002,0-.003.001-.016,0-.032,0-.049,0-.001,0-.003,0-.004,0-.002,0-.002,0-.001-.002.002-.001.004,0,.005,0,.014,0,.028,0,.043,0,.002,0,.004,0,.007,0,.006-.001.01-.006.009-.013,0-.007-.003-.014-.005-.02-.002-.009-.005-.017-.007-.026-.003-.009-.005-.018-.007-.027-.002-.008-.004-.016-.007-.024-.002-.009-.005-.017-.007-.026-.002-.008-.005-.017-.007-.025,0-.003-.002-.007-.003-.01-.002-.007-.007-.011-.015-.011-.015,0-.03,0-.046,0-.02,0-.041,0-.061,0-.011,0-.015.004-.018.014-.004.013-.007.026-.011.04-.004.015-.008.03-.012.046-.003.012-.006.024-.01.035-.003.01-.006.02-.008.03,0,0,0,.002,0,.003-.001.008,0,.011.007.015.002.001.005,0,.006.003Z"/>
  <path class="cls-1" d="M.552.557s.004.007.006.01c.008.013.017.025.031.032.003.001.005.002.008.002.031,0,.061,0,.092,0,.002,0,.004,0,.005.002-.008.013-.017.025-.025.038-.015.022-.029.044-.044.066-.01.015-.02.03-.03.045-.001.002-.001.003,0,.005.004.009.008.018.011.027.004.01.009.02.013.029.003.007.006.014.009.021.003.005.005.011.007.017.004.008.007.016.011.025.003.007.006.014.009.022.002.005.004.009.006.014,0,0,0,.001,0,.002-.002,0-.003-.002-.003-.003-.006-.014-.012-.028-.018-.042-.004-.009-.008-.018-.011-.027-.004-.01-.009-.02-.013-.03-.007-.017-.015-.034-.022-.051,0-.001-.001-.003-.001-.005,0-.002,0-.004.002-.006.019-.028.038-.057.057-.085.013-.019.025-.038.038-.057,0-.001.002-.002.002-.003,0-.001-.003,0-.004,0-.03,0-.059,0-.089,0-.003,0-.006,0-.008-.001,0,0-.001-.001-.002-.002-.012-.006-.021-.016-.028-.027-.003-.004-.005-.008-.007-.013,0-.001-.001-.002,0-.004Z"/>
  <path class="cls-1" d="M.4.812s0,0,0,0c0-.004.003-.008.005-.012.002-.006.005-.012.007-.017.004-.008.007-.016.011-.025.001-.002.001-.004,0-.006-.005-.007-.009-.014-.014-.021-.008-.012-.016-.025-.024-.037-.01-.015-.02-.029-.029-.044-.008-.012-.016-.024-.024-.035-.002-.004-.005-.008-.007-.011,0-.003.003-.002.005-.002.022,0,.044,0,.066,0,.006,0,.012,0,.018,0,.011.001.019-.003.027-.009,0,0,.001-.001.002-.001,0,.002-.002.003-.003.004-.003.003-.007.005-.011.007-.003.001-.005.001-.008.001-.03,0-.059,0-.089,0-.001,0-.003,0-.004,0,0,.001.001.003.002.004.008.012.016.024.024.036.011.016.021.032.032.048.013.02.026.039.039.059,0,.001.001.002.001.003-.001.006-.005.012-.007.018-.004.011-.009.022-.014.033,0,.002-.001.005-.004.006Z"/>
  <path class="cls-1" d="M.661.913s0-.001,0-.002c.005.011.01.022.014.033.007.018.001.035-.016.045,0,0-.002,0-.003,0,0,0,0,0,0,0,0-.002.003-.003.005-.004.011-.007.017-.022.013-.034-.003-.011-.009-.022-.013-.033,0-.002-.002-.003,0-.005Z"/>
  <path class="cls-2" d="M.428.602s0-.002.002-.002c.004-.002.008-.005.011-.009.01-.008.017-.019.022-.031.004-.01.007-.02.009-.03.003-.016.003-.032.002-.048,0-.009-.002-.018-.003-.028-.001-.008-.003-.015-.005-.022-.003-.011-.008-.021-.008-.033,0-.021.01-.037.029-.047.022-.011.051-.003.064.018.009.014.011.029.006.044-.003.011-.007.022-.009.033-.003.017-.005.034-.005.052,0,.014.002.027.004.041.001.006.004.012.006.018.001.005.004.01.007.015.006.01.014.018.024.025.002.001.003.002.005.003.001,0,.002.001,0,.002-.002.002-.005.001-.007.001-.042,0-.085,0-.127,0-.007,0-.015,0-.022,0-.002,0-.004,0-.005-.001Z"/>
  <path class="cls-1" d="M.557.194s0,.002.001.002c0,.001,0,.003,0,.004.003.008.002.016,0,.024-.003.01-.008.018-.016.025-.006.005-.013.009-.021.011-.006.002-.013.001-.019.001-.007,0-.014-.003-.02-.007-.007-.004-.013-.01-.017-.017-.005-.009-.008-.02-.008-.031,0-.004.002-.007.002-.011,0-.001,0-.003.002-.003,0,0,.001,0,.001,0,0,.004-.002.009-.002.013,0,.014.003.026.012.036.007.008.016.014.027.015.011.002.021.001.031-.004.014-.007.022-.017.026-.032.002-.008.002-.016,0-.024,0-.003-.002-.004-.005-.004-.011,0-.021,0-.032,0-.001,0-.003,0-.004,0-.001,0,0-.001,0-.002,0,0,.002,0,.002,0,.012,0,.024,0,.036,0,.001,0,.003,0,.004.001Z"/>
  <path class="cls-1" d="M.46.194s0,.002-.001.003c0-.002-.003-.001-.004-.001-.015,0-.03,0-.045,0-.002-.002-.004,0-.006-.002.001-.001.003-.001.005-.001.015,0,.031,0,.046,0,.002,0,.004,0,.005.002Z"/>
  <path class="cls-1" d="M.661.913s.003.009.005.013c.003.009.008.017.01.026.003.01-.003.026-.013.033-.002.002-.005.003-.007.004-.019.004-.039.002-.059.002-.074,0-.149,0-.223,0-.011,0-.021-.004-.028-.013-.006-.007-.008-.016-.007-.025,0-.006.004-.012.006-.017.004-.009.008-.018.012-.027.004-.01.009-.02.013-.029.002-.006.004-.011.007-.017.003-.008.007-.016.011-.025.004-.008.007-.017.011-.025,0,0,0-.001,0-.002.003-.005.005-.011.008-.017.004-.009.008-.018.011-.027.002-.004.003-.009.005-.013.002-.001.003-.001.005-.001.053,0,.106,0,.159,0,.002,0,.005,0,.006.002,0,.005.003.008.005.013.003.008.006.015.01.023.004.01.008.02.013.029.005.01.009.02.013.031.004.01.009.02.013.03.003.007.006.014.009.021.002.004.003.009.006.012Z"/>
  <path class="cls-1" d="M.46.194s-.003,0-.004,0c-.018,0-.035,0-.053,0-.007-.003-.009-.007-.008-.015,0-.005.003-.01.004-.015.001-.006.003-.011.005-.017.002-.006.003-.012.005-.018.001-.004.002-.007.003-.011.001-.006.003-.012.005-.017,0-.004.002-.008.003-.012.001-.006.003-.012.005-.017.001-.003.002-.007.003-.01.003-.011.006-.022.009-.033.001-.005.002-.009.005-.013.003-.003.007-.005.011-.005.038,0,.075,0,.113,0,.008,0,.013.006.015.013.002.006.003.012.005.019.001.004.002.008.003.012,0,.003.002.005.002.008.002.008.005.016.007.024.001.007.003.013.005.019.002.006.003.012.005.018.001.003.002.006.002.009.002.007.004.013.005.02.002.009.006.018.007.028.001.007-.003.015-.014.015-.015,0-.031,0-.046,0-.002,0-.003,0-.005,0-.014,0-.028,0-.043,0-.001.001-.003.001-.005.001-.014,0-.029,0-.043,0-.002,0-.003,0-.005-.001,0,0,0,0-.001,0Z"/>
  <path class="cls-1" d="M.593.756s-.004,0-.005,0c-.055,0-.11,0-.164,0,0-.004-.004-.006-.005-.009-.007-.011-.014-.021-.021-.032-.005-.008-.011-.016-.016-.024-.008-.012-.016-.024-.024-.036-.005-.008-.011-.016-.016-.024-.006-.008-.011-.017-.017-.025-.001-.002,0-.002.001-.003,0,0,.002,0,.003,0,.026,0,.052,0,.078,0,.007,0,.014,0,.02,0,.054,0,.108,0,.162,0,.01.001.02,0,.029,0,.024,0,.047,0,.071,0,.001,0,.002,0,.003,0,0,.001,0,.002-.001.003-.01.015-.02.029-.029.044-.007.011-.015.022-.022.033-.011.017-.023.034-.034.051-.004.006-.007.011-.011.017-.001.001,0,.003-.001.005Z"/>
  <path class="cls-2" d="M.461.194c.018,0,.035,0,.053,0,.001.001.003,0,.004,0,.011,0,.022,0,.033,0,.004,0,.006.002.006.006.001.007.001.015,0,.022-.001.006-.003.011-.007.016-.004.007-.009.012-.016.016-.007.004-.014.007-.023.007-.01,0-.02-.001-.028-.006-.009-.005-.015-.012-.02-.021-.006-.011-.006-.022-.004-.034,0-.002.001-.004.002-.006Z"/>
</svg>