<?xml version="1.0" encoding="UTF-8"?>
<svg id="Layer_1" data-name="Layer 1" xmlns="http://www.w3.org/2000/svg" version="1.1" viewBox="0 0 1 1">
  <defs>
    <style>
      .cls-1 {
        fill: #e92e00;
      }

      .cls-1, .cls-2, .cls-3 {
        stroke-width: 0px;
      }

      .cls-2 {
        fill: #000;
      }

      .cls-3 {
        fill: #aa1c00;
      }
    </style>
  </defs>
  <g>
    <path class="cls-1" d="M.5067.0162C.2392.0162.0223.2323.0223.4988s.2169.4826.4844.4826.4844-.2161.4844-.4826S.7744.0162.5067.0162ZM.5067.7546c-.1418,0-.2568-.1146-.2568-.2559s.1149-.2558.2568-.2558.2568.1146.2568.2558-.1149.2559-.2568.2559Z"/>
    <g>
      <path class="cls-2" d="M.5067.0174C-.1124.0259-.119.9806.5067.9741,1.1251.9654,1.1256.03.5067.0174h0ZM.5067.015c.6478-.0109.6482.9803,0,.9735C-.1342.9801-.1408.0083.5067.015h0Z"/>
      <path class="cls-2" d="M.5067.7558c-.3499.0071-.3433-.5123,0-.5201.3506-.0072.3501.5316,0,.5201h0ZM.5067.7534c.3194-.0069.3183-.5004,0-.5033-.3254-.0117-.32.5006,0,.5033h0Z"/>
    </g>
  </g>
  <g>
    <path class="cls-3" d="M.5013.0162C.3079.0162.1512.2323.1512.4988s.1568.4826.3501.4826.3501-.2161.3501-.4826S.6947.0162.5013.0162ZM.5013.7546c-.1025,0-.1856-.1146-.1856-.2559s.0831-.2558.1856-.2558.1856.1146.1856.2558-.0831.2559-.1856.2559Z"/>
    <g>
      <path class="cls-2" d="M.5013.0174C.0538.0259.0491.9806.5013.9741.9481.9654.9485.03.5013.0174h0ZM.5013.015c.4682-.0109.4685.9803,0,.9735C.0381.9801.0333.0083.5013.015h0Z"/>
      <path class="cls-2" d="M.5013.7558c-.2529.0071-.2481-.5123,0-.5201.2534-.0072.253.5316,0,.5201h0ZM.5013.7534c.2308-.0069.23-.5004,0-.5033-.2352-.0117-.2313.5006,0,.5033h0Z"/>
    </g>
  </g>
  <g>
    <path class="cls-1" d="M.4435.0162C.2109.0162.0223.2323.0223.4988s.1886.4826.4211.4826.4211-.2161.4211-.4826S.6761.0162.4435.0162ZM.4435.7546c-.1233,0-.2232-.1146-.2232-.2559s.0999-.2558.2232-.2558.2232.1146.2232.2558-.0999.2559-.2232.2559Z"/>
    <g>
      <path class="cls-2" d="M.4435.0174C-.0948.0259-.1005.9806.4435.9741c.2351-.0038.3847-.1846.4143-.3882C.8957.324.7462.0245.4435.0174H.4435ZM.4435.015c.5632-.0109.5635.9803,0,.9735C-.1137.9801-.1195.0083.4435.015H.4435Z"/>
      <path class="cls-2" d="M.4435.7558c-.3042.0071-.2984-.5123,0-.5201.3048-.0072.3044.5316,0,.5201H.4435ZM.4435.7534c.2777-.0069.2767-.5004,0-.5033-.2829-.0117-.2782.5006,0,.5033H.4435Z"/>
    </g>
  </g>
  <path class="cls-2" d="M.4435.2032c-.3285-.0015-.3313.5979,0,.5875.3275.0014.3281-.5865,0-.5875H.4435ZM.4435.2017c.3458-.0067.3461.602,0,.5978C.1013.7944.0978.1976.4435.2017H.4435Z"/>
  <path class="cls-2" d="M.4435.1091C.0078.1159.003.8889.4435.8837c.4352-.007.4355-.7643,0-.7746H.4435ZM.4435.1072c.456-.0088.4562.7937,0,.7882C-.0076.8886-.0122.1019.4435.1072H.4435Z"/>
  <path class="cls-1" d="M.3367.1226"/>
  <path class="cls-1" d="M.2715.0525"/>
  <g>
    <path class="cls-1" d="M.5031.0195s.0178.0952.0232.099"/>
    <path class="cls-2" d="M.5041.0193c.0153.0334.026.0533.0216.1002-.0144-.0165-.0287-.0733-.0216-.1002h0Z"/>
  </g>
  <g>
    <path class="cls-1" d="M.5533.0322s.0076.0969.0125.1015"/>
    <path class="cls-2" d="M.5544.0321c.0116.0353.0202.0565.0108.1025-.0125-.0183-.0207-.0767-.0108-.1025h0Z"/>
  </g>
  <g>
    <path class="cls-1" d="M.6092.0556s-.0045.0972,0,.1025"/>
    <path class="cls-2" d="M.6102.0556c.0072.0368.013.0592-.0019.1032-.0101-.0202-.0111-.0793.0019-.1032h0Z"/>
  </g>
  <g>
    <path class="cls-1" d="M.6609.0872s-.016.0956-.0124.1015"/>
    <path class="cls-2" d="M.662.0875c.0027.0376.0058.0607-.0142.102-.0076-.0216-.0015-.0803.0142-.102h0Z"/>
  </g>
  <g>
    <path class="cls-1" d="M.7188.1382s-.0304.0909-.0277.0974"/>
    <path class="cls-2" d="M.7198.1387c-.0031.0376-.0036.0609-.0296.0975-.0042-.0228.0108-.0793.0296-.0975h0Z"/>
  </g>
  <g>
    <path class="cls-1" d="M.7548.1803s-.0398.086-.0379.0929"/>
    <path class="cls-2" d="M.7558.1809c-.0071.0368-.01.06-.0398.0927-.0017-.0232.0192-.0773.0398-.0927h0Z"/>
  </g>
  <g>
    <path class="cls-1" d="M.7906.2348s-.05.0787-.0489.0858"/>
    <path class="cls-2" d="M.7914.2355c-.0115.0353-.0174.0578-.0508.0853.0011-.0232.0285-.0734.0508-.0853h0Z"/>
  </g>
  <g>
    <path class="cls-1" d="M.8189.2937s-.0589.0701-.0587.0773"/>
    <path class="cls-2" d="M.8196.2946c-.0156.0332-.0241.0545-.0605.0765.0038-.0228.0371-.0682.0605-.0765h0Z"/>
  </g>
  <g>
    <path class="cls-1" d="M.8433.3645s-.0675.0589-.0683.0661"/>
    <path class="cls-2" d="M.8439.3654c-.0199.03-.0311.0496-.07.0651.0069-.0219.0457-.0609.07-.0651h0Z"/>
  </g>
  <g>
    <path class="cls-1" d="M.8546.422s-.0734.0491-.0749.0561"/>
    <path class="cls-2" d="M.8551.423c-.023.027-.0361.0449-.0764.0548.0092-.0207.0518-.0541.0764-.0548h0Z"/>
  </g>
  <g>
    <path class="cls-1" d="M.8599.4899s-.0786.0367-.081.0435"/>
    <path class="cls-2" d="M.8603.491c-.026.0231-.0413.0386-.0824.0419.0116-.0191.0579-.0452.0824-.0419h0Z"/>
  </g>
  <g>
    <path class="cls-1" d="M.8569.557s-.0823.024-.0854.0303"/>
    <path class="cls-2" d="M.8572.5582c-.0285.0188-.0456.0318-.0866.0286.0138-.0171.0628-.0356.0866-.0286h0Z"/>
  </g>
  <g>
    <path class="cls-1" d="M.8438.635s-.0846.0094-.0885.0151"/>
    <path class="cls-2" d="M.844.6362c-.0307.0136-.0491.0235-.0894.0131.0159-.0145.0668-.0242.0894-.0131h0Z"/>
  </g>
  <g>
    <path class="cls-1" d="M.8271.6908s-.0849-.0025-.0894.0026"/>
    <path class="cls-2" d="M.8271.692c-.0319.0092-.0513.0164-.0901.0005.0174-.0121.0689-.0147.0901-.0005h0Z"/>
  </g>
  <g>
    <path class="cls-1" d="M.8005.7517s-.0838-.0162-.0888-.0119"/>
    <path class="cls-2" d="M.8003.7529c-.0327.0039-.0528.008-.0893-.014.0187-.0092.07-.0035.0893.014h0Z"/>
  </g>
  <g>
    <path class="cls-1" d="M.767.807s-.081-.0292-.0866-.0257"/>
    <path class="cls-2" d="M.7667.8081c-.0329-.0013-.0532-.0004-.0867-.0279.0195-.0062.0697.0076.0867.0279h0Z"/>
  </g>
  <g>
    <path class="cls-1" d="M.7226.8636s-.0762-.043-.0821-.0406"/>
    <path class="cls-2" d="M.7222.8647c-.0324-.007-.0526-.0097-.082-.0428.0202-.0027.068.0197.082.0428h0Z"/>
  </g>
  <g>
    <path class="cls-1" d="M.6828.9009s-.071-.0534-.0772-.0517"/>
    <path class="cls-2" d="M.6822.9019c-.0313-.0115-.0512-.017-.0769-.0539.0202.0001.0654.0291.0769.0539h0Z"/>
  </g>
  <g>
    <path class="cls-1" d="M.6321.9366s-.0638-.0643-.0701-.0637"/>
    <path class="cls-2" d="M.6314.9375c-.0297-.0164-.0486-.0251-.0695-.0658.0201.0034.0612.0393.0695.0658h0Z"/>
  </g>
  <g>
    <path class="cls-1" d="M.5784.9634s-.0555-.0737-.0618-.0741"/>
    <path class="cls-2" d="M.5776.9642c-.0274-.0209-.0451-.0325-.0609-.0761.0195.0065.0558.0486.0609.0761h0Z"/>
  </g>
  <g>
    <path class="cls-1" d="M.5075.9838s-.0433-.0837-.0495-.0854"/>
    <path class="cls-2" d="M.5066.9844c-.0237-.0261-.0394-.0411-.0483-.0871.0182.0103.0476.059.0483.0871h0Z"/>
  </g>
  <g>
    <path class="cls-1" d="M.4564.9901s-.0341-.0891-.0401-.0916"/>
    <path class="cls-2" d="M.4554.9905c-.0208-.0292-.0348-.0463-.0387-.0933.0169.0128.0409.0652.0387.0933H.4554Z"/>
  </g>
  <g>
    <path class="cls-1" d="M.397.9883s-.0228-.0938-.0284-.0972"/>
    <path class="cls-2" d="M.3959.9886c-.017-.0323-.0287-.0514-.0269-.0986.0152.0154.0325.0712.0269.0986h0Z"/>
  </g>
  <g>
    <path class="cls-1" d="M.3391.9772s-.0113-.0964-.0165-.1007"/>
    <path class="cls-2" d="M.3381.9773c-.013-.0347-.0223-.0554-.0148-.1019.0133.0177.0236.0756.0148.1019H.3381Z"/>
  </g>
  <g>
    <path class="cls-1" d="M.2755.9552s.0017-.0973-.0029-.1024"/>
    <path class="cls-2" d="M.2744.9552c-.0082-.0365-.0147-.0587-.001-.1033.0107.0198.0134.0788.001.1033H.2744Z"/>
  </g>
  <g>
    <path class="cls-1" d="M.2291.9297s.012-.0964.008-.1021"/>
    <path class="cls-2" d="M.2281.9295c-.0043-.0374-.0083-.0603.0099-.1026.0086.0211.0048.0801-.0099.1026H.2281Z"/>
  </g>
  <g>
    <path class="cls-1" d="M.1794.8923s.0237-.0935.0205-.0997"/>
    <path class="cls-2" d="M.1784.892c.0003-.0377-.0008-.061.0224-.1.0058.0223-.0051.0801-.0224.1H.1784Z"/>
  </g>
  <g>
    <path class="cls-1" d="M.1353.8479s.0346-.0889.0323-.0956"/>
    <path class="cls-2" d="M.1343.8474c.0049-.0373.0065-.0606.0342-.0955.0031.023-.0146.0785-.0342.0955H.1343Z"/>
  </g>
  <g>
    <path class="cls-1" d="M.088.7761s.049-.0795.0478-.0866"/>
    <path class="cls-2" d="M.0872.7754c.0111-.0355.0166-.058.0497-.0861-.0008.0232-.0277.0739-.0497.0861H.0872Z"/>
  </g>
  <g>
    <path class="cls-1" d="M.0621.7251s.0571-.072.0567-.0793"/>
    <path class="cls-2" d="M.0613.7243c.0147-.0337.0227-.0553.0585-.0786-.0033.0229-.0353.0694-.0585.0786H.0613Z"/>
  </g>
  <g>
    <path class="cls-1" d="M.0393.6622s.0654-.0621.0659-.0693"/>
    <path class="cls-2" d="M.0386.6613c.0188-.031.0292-.0511.0675-.0683-.0061.0222-.0435.0631-.0675.0683H.0386Z"/>
  </g>
  <g>
    <path class="cls-1" d="M.0245.5971s.0722-.0512.0736-.0583"/>
    <path class="cls-2" d="M.024.5961c.0223-.0277.0351-.046.0751-.0571-.0086.021-.0506.0556-.0751.0571h0Z"/>
  </g>
  <g>
    <path class="cls-1" d="M.0161.5216s.0782-.038.0805-.0448"/>
    <path class="cls-2" d="M.0157.5205c.0257-.0235.0408-.0393.0819-.0433-.0113.0192-.0574.0461-.0819.0433h0Z"/>
  </g>
  <g>
    <path class="cls-1" d="M.0175.4627s.0817-.0268.0846-.0332"/>
    <path class="cls-2" d="M.0173.4615c.028-.0197.0447-.0333.0858-.0315-.0134.0175-.0619.0378-.0858.0315h0Z"/>
  </g>
  <g>
    <path class="cls-1" d="M.027.3954s.0841-.0133.0879-.0192"/>
    <path class="cls-2" d="M.0268.3942c.0302-.015.0483-.0258.0888-.0173-.0154.0152-.0659.0274-.0888.0173h0Z"/>
  </g>
  <g>
    <path class="cls-1" d="M.0443.3312s.0849,0,.0894-.0052"/>
    <path class="cls-2" d="M.0443.33c.0318-.0101.0509-.0179.0901-.0032-.017.0127-.0685.0168-.0901.0032H.0443Z"/>
  </g>
  <g>
    <path class="cls-1" d="M.0771.2564s.0836.0171.0887.0128"/>
    <path class="cls-2" d="M.0773.2552c.0328-.0036.0529-.0074.0892.0149-.0188.009-.0701.0027-.0892-.0149H.0773Z"/>
  </g>
  <g>
    <path class="cls-1" d="M.1065.2079s.0812.0286.0867.0251"/>
    <path class="cls-2" d="M.1067.2068c.0329.001.0532,0,.0869.0273-.0195.0063-.0698-.0071-.0869-.0273h0Z"/>
  </g>
  <g>
    <path class="cls-1" d="M.1463.1575s.0769.0414.0827.0389"/>
    <path class="cls-2" d="M.1469.1564c.0325.0063.0527.0086.0827.0411-.0202.0031-.0682-.0183-.0827-.0411h0Z"/>
  </g>
  <g>
    <path class="cls-1" d="M.1915.1145s.0711.0531.0773.0515"/>
    <path class="cls-2" d="M.1921.1135c.0314.0114.0512.0168.077.0537-.0202,0-.0654-.0288-.077-.0537h0Z"/>
  </g>
  <g>
    <path class="cls-1" d="M.2476.0737s.0633.0649.0695.0644"/>
    <path class="cls-2" d="M.2483.0728c.0295.0167.0484.0256.0689.0665-.0201-.0036-.0608-.04-.0689-.0665H.2483Z"/>
  </g>
  <g>
    <path class="cls-1" d="M.2948.0501s.0558.0733.0622.0737"/>
    <path class="cls-2" d="M.2956.0493c.0275.0207.0453.0322.0613.0756-.0195-.0064-.0561-.0482-.0613-.0756h0Z"/>
  </g>
  <g>
    <path class="cls-1" d="M.3519.0313s.0462.0816.0525.083"/>
    <path class="cls-2" d="M.3528.0307c.0247.025.0409.0392.0514.0848-.0185-.0095-.0497-.0567-.0514-.0848H.3528Z"/>
  </g>
  <g>
    <path class="cls-1" d="M.41.0221s.0361.0881.0421.0904"/>
    <path class="cls-2" d="M.411.0216c.0215.0286.0358.0452.0408.0921-.0172-.0123-.0424-.064-.0408-.0921h0Z"/>
  </g>
</svg>