<?xml version="1.0" encoding="UTF-8"?>
<svg id="Capa_1" data-name="Capa 1" xmlns="http://www.w3.org/2000/svg" version="1.1" viewBox="0 0 1 1">
  <defs>
    <style>
      .cls-1 {
        fill: #e92e00;
        stroke: #000;
        stroke-miterlimit: 10;
        stroke-width: .01px;
      }
    </style>
  </defs>
  <g>
    <path class="cls-1" d="M.339.942c-.005-.084-.01-.168-.015-.252,0-.006-.002-.007-.008-.006-.02.001-.04.003-.061.004-.027.001-.043-.013-.044-.039,0-.011-.003-.015-.015-.013-.026.003-.051.003-.077.005-.019.001-.028-.007-.029-.026-.004-.074-.008-.148-.012-.222,0-.018.007-.027.025-.028.027-.002.055-.004.082-.005.007,0,.009-.002.008-.009-.002-.014-.002-.028.009-.04.006-.006.014-.011.023-.011.092-.005.184-.011.275-.016,0,.001,0,.003,0,.004.008.127.015.253.023.38,0,.001,0,.003,0,.004-.014.004-.029.003-.044.004-.007,0-.015,0-.022,0,.004.081.009.161.013.24.001.026-.007.035-.033.036-.016,0-.031.002-.047.003-.014,0-.028.002-.042,0l-.013-.012Z"/>
    <path class="cls-1" d="M.527.67s0-.003,0-.004c-.008-.127-.015-.253-.023-.38,0-.001,0-.003,0-.004.031-.021.062-.043.093-.064.073-.049.145-.099.218-.148.013-.009.027-.013.042-.005.013.008.021.019.022.036.005.095.01.189.016.284.01.14.017.28.025.42.001.025-.01.04-.034.046-.011.002-.02-.002-.029-.006-.107-.056-.215-.112-.322-.168-.003-.002-.006-.004-.009-.006Z"/>
  </g>
  <line class="cls-1" x1=".323" y1=".686" x2=".463" y2=".672"/>
  <line class="cls-1" x1=".187" y1=".358" x2=".198" y2=".634"/>
</svg>