<?xml version="1.0" encoding="UTF-8"?>
<svg id="Capa_1" data-name="Capa 1" xmlns="http://www.w3.org/2000/svg" version="1.1" viewBox="0 0 1 1">
  <defs>
    <style>
      .cls-1 {
        fill: #e92e00;
      }

      .cls-1, .cls-2 {
        stroke: #000;
        stroke-miterlimit: 10;
        stroke-width: .01px;
      }

      .cls-2 {
        fill: #000;
      }
    </style>
  </defs>
  <path class="cls-1" d="M.953.476c-.052.046-.111.074-.181.077-.18.005-.36.01-.54.015-.069.002-.13-.023-.183-.067-.007-.006-.012-.015-.018-.023,0-.001,0-.004-.002-.005-.009-.008-.004-.015,0-.023.009-.02.018-.04.035-.054.012-.01.026-.014.041-.011.021.004.042.009.063.015.031.01.062.016.095.015.157-.004.313-.009.47-.013.034,0,.066-.009.098-.021.019-.007.038-.013.058-.018.023-.006.042.002.056.021.011.015.02.033.029.049.002.004.004.007-.002.011-.002.001-.002.005-.003.007-.005.009-.01.017-.015.026Z"/>
  <path class="cls-1" d="M.018.498c.022.026.05.044.079.059.042.021.086.032.133.031.182-.005.363-.009.545-.015.066-.002.124-.027.174-.069.011-.01.021-.022.031-.033.009.024-.002.063-.021.081-.057.052-.123.079-.201.081-.172.004-.344.009-.516.014-.075.002-.141-.022-.199-.07-.02-.017-.032-.054-.025-.077Z"/>
  <path class="cls-2" d="M.248.696c.023-.024.061-.025.085-.002.024.023.025.062.002.086-.023.024-.061.025-.085.002-.024-.023-.025-.062-.002-.086Z"/>
  <path class="cls-2" d="M.677.685c.023-.024.06-.025.085-.003.025.023.026.061.003.085-.023.024-.061.025-.085.002-.024-.023-.025-.061-.002-.085Z"/>
</svg>