<?xml version="1.0" encoding="UTF-8"?>
<svg id="Layer_1" data-name="Layer 1" xmlns="http://www.w3.org/2000/svg" version="1.1" viewBox="0 0 1 1">
  <defs>
    <style>
      .cls-1, .cls-2 {
        fill: #e92e00;
      }

      .cls-1, .cls-3 {
        stroke-width: 0px;
      }

      .cls-2, .cls-4 {
        stroke: #000;
        stroke-linecap: round;
        stroke-miterlimit: 10;
        stroke-width: .0208px;
      }

      .cls-3, .cls-4 {
        fill: #000;
      }
    </style>
  </defs>
  <g>
    <path class="cls-1" d="M.9362.8578c0,.0725-.1785.1313-.3987.1313s-.3984-.0773-.3984-.1117c0-.0056-.0072-.1141-.0037-.215.0051-.1491.097-.3305.4023-.3177.3655.0167.3981.2202.3985.3671.0002.0497,0,.1369,0,.146Z"/>
    <path class="cls-3" d="M.9372.8578c-.1209.1684-.3771.1464-.5639.1219-.0814-.0326-.2391-.0199-.2416-.1448.0017-.0999-.0208-.2051.0227-.3035.0885-.2116.3555-.2229.5416-.1735.238.0434.2651.3122.2413.4999,0,0,.0238-.1876,0,0ZM.9351.8578C1.0374.2764.3249.221.1717.5388c-.0421.0907-.0235.1961-.0266.2962-.0091.1036.1483.114.2299.1353.1856.0105.4359.0417.5602-.1125h0Z"/>
  </g>
  <path class="cls-2" d="M.0954.5498l.1274.0907s.0382-.0105.0622-.0386c.0144-.0169.0237-.04.0165-.0711l-.1293-.0959-.0768.1149Z"/>
  <g>
    <path class="cls-1" d="M.5231.4754c-.147-.0041-.1979-.0522-.1979-.0857,0-.0187.0979-.0357.1979-.0357s.2277.0187.226.0425c-.0041.0561-.126.0817-.226.0789Z"/>
    <path class="cls-3" d="M.5231.4765c-.2957-.0066-.2326-.1488.027-.1295.3087-.0109.2153.1578-.027.1295h0ZM.5231.4743c.0739-.0032.1616-.0152.209-.0628-.036-.0671-.3144-.0658-.3991-.0217.0226.0602.1186.0786.19.0845h0Z"/>
  </g>
  <g>
    <path class="cls-3" d="M.1701.5174c-.0202.0362-.0601.0507-.078.0419s-.0619-.0491-.0289-.0996c.0344-.0527.0891-.0386.107-.0298s.0202.0513,0,.0875Z"/>
    <path class="cls-3" d="M.171.5179c-.0364.101-.1616.0287-.1124-.0635.0569-.093.1849-.0212.1124.0635H.171ZM.1692.5169c.0465-.0819-.056-.115-.0993-.0548-.0549.0694.0617.1314.0993.0548,0,0-.0376.0766,0,0Z"/>
  </g>
  <path class="cls-2" d="M.4867.2745l-.0033.1082s.0136.0062.0501.0119c.0219.0034.0282.0021.0509-.0203l.0027-.1085-.1003.0088Z"/>
  <g>
    <path class="cls-3" d="M.5268.3204c-.0414.0018-.0736-.0196-.0755-.0395s.0083-.0834.0686-.0818c.0629.0017.0796.0556.0815.0754s-.0331.0441-.0746.0459Z"/>
    <path class="cls-3" d="M.5268.3214c-.1089.026-.1038-.1232-.0049-.1291.109-.0002.115.1462.0049.1291h0ZM.5268.3193c.0942-.0033.0685-.1082-.0054-.1132-.0846-.009-.0814.1243.0054.1132,0,0-.0868.0112,0,0Z"/>
  </g>
  <path class="cls-4" d="M.3481.476c.0018.0085-.0781-.1876-.0037-.2788.0319-.0391.091-.0756.1813-.0746.1085.0012.1969.0489.2301.1002.0588.0911.0219.1778.0219.1778,0,0,.0129.0104.0264.0203.0305.0224.0448.0325.0448.0325,0,0,.0585-.1475-.0285-.2766S.551.0411.5346.0411s-.2391.0004-.296.1723c-.0326.0985.008.2503.008.2503,0,0,.0183.0081.0427.0203s.0587-.008.0587-.008Z"/>
</svg>