<?xml version="1.0" encoding="UTF-8"?>
<svg id="Layer_1" data-name="Layer 1" xmlns="http://www.w3.org/2000/svg" xmlns:xlink="http://www.w3.org/1999/xlink" version="1.1" viewBox="0 0 1 1">
  <defs>
    <style>
      .cls-1 {
        fill: #ffc52e;
      }

      .cls-1, .cls-2, .cls-3, .cls-4, .cls-5, .cls-6, .cls-7, .cls-8, .cls-9, .cls-10, .cls-11, .cls-12, .cls-13, .cls-14, .cls-15, .cls-16, .cls-17, .cls-18, .cls-19, .cls-20, .cls-21, .cls-22 {
        stroke-width: 0px;
      }

      .cls-2 {
        fill: #282828;
      }

      .cls-23 {
        stroke-width: .0012px;
      }

      .cls-23, .cls-17 {
        fill: #000;
      }

      .cls-23, .cls-24 {
        stroke: #000;
        stroke-miterlimit: 10;
      }

      .cls-3 {
        fill: #4c4b4b;
      }

      .cls-4 {
        fill: #ec661b;
      }

      .cls-25 {
        clip-path: url(#clippath);
      }

      .cls-5 {
        fill: none;
      }

      .cls-6 {
        fill: #f5eb4a;
      }

      .cls-7 {
        fill: #dadbda;
      }

      .cls-8 {
        fill: #ebaa31;
      }

      .cls-9 {
        fill: #a95f00;
      }

      .cls-10 {
        fill: url(#linear-gradient);
      }

      .cls-11 {
        fill: #814320;
      }

      .cls-12 {
        fill: #f0ad4b;
      }

      .cls-13 {
        fill: #181818;
      }

      .cls-14 {
        fill: #ff8500;
      }

      .cls-15 {
        fill: #ffffe0;
      }

      .cls-16 {
        fill: #ed9f46;
      }

      .cls-18 {
        fill: #f8d841;
      }

      .cls-19 {
        fill: #fcf7f0;
      }

      .cls-20 {
        fill: url(#linear-gradient-2);
      }

      .cls-24 {
        stroke-width: .0014px;
      }

      .cls-24, .cls-21 {
        fill: #fff;
      }

      .cls-22 {
        fill: #ecc973;
      }
    </style>
    <linearGradient id="linear-gradient" x1=".2373" y1="487.4037" x2=".7025" y2="488.0294" gradientTransform="translate(0 -487.2609)" gradientUnits="userSpaceOnUse">
      <stop offset=".0228" stop-color="#d3b86f"/>
      <stop offset=".1422" stop-color="#fffff3"/>
      <stop offset=".2412" stop-color="#fffff3"/>
      <stop offset=".3838" stop-color="#d3b86f"/>
      <stop offset=".56" stop-color="#d3b86f"/>
      <stop offset=".7329" stop-color="#ffffe2"/>
      <stop offset=".8908" stop-color="#d3b86f"/>
      <stop offset="1" stop-color="#998351"/>
    </linearGradient>
    <linearGradient id="linear-gradient-2" x1=".2532" y1="487.377" x2=".7524" y2="488.144" gradientTransform="translate(0 -487.2609)" gradientUnits="userSpaceOnUse">
      <stop offset=".0072" stop-color="#877139"/>
      <stop offset=".1728" stop-color="#ffb"/>
      <stop offset=".3571" stop-color="#c9a753"/>
      <stop offset=".5119" stop-color="#745c31"/>
      <stop offset=".6595" stop-color="#c9a753"/>
      <stop offset=".7826" stop-color="#c9a753"/>
      <stop offset=".932" stop-color="#756435"/>
      <stop offset="1" stop-color="#492a24"/>
    </linearGradient>
    <clipPath id="clippath">
      <path class="cls-5" d="M.1572.2279l.0459.0024s-.0179.0354.2805.0365c.1761.0006.2982-.0068.3169-.0401l.0362.0024.0012.5298s-.0398.0024-.0434.0036-.0652-.0471-.2981-.0386c0,0-.2848,0-.2848.035l-.0507.0024-.0036-.5335Z"/>
    </clipPath>
  </defs>
  <g>
    <path class="cls-10" d="M.5042.0151C.2354.0151.0175.233.0175.5018s.2179.4868.4867.4868.4868-.2179.4868-.4868S.7731.0151.5042.0151Z"/>
    <circle class="cls-20" cx=".5042" cy=".5018" r=".4669"/>
  </g>
  <g>
    <path class="cls-13" d="M.1572.2279l.0459.0024s-.0179.0354.2805.0365c.1761.0006.2982-.0068.3169-.0401l.0362.0024.0012.5298s-.0398.0024-.0434.0036-.0652-.0471-.2981-.0386c0,0-.2848,0-.2848.035l-.0507.0024-.0036-.5335Z"/>
    <g class="cls-25">
      <path class="cls-3" d="M.2211.2079l-.018.0224s.0374.0815.2908.0727c.2637-.0092.3158-.0391.3066-.0763s-.5795-.0188-.5795-.0188Z"/>
      <ellipse class="cls-9" cx=".4912" cy=".5073" rx=".2059" ry=".1718"/>
      <ellipse class="cls-14" cx=".4912" cy=".5196" rx=".162" ry=".1512"/>
      <path class="cls-11" d="M.3.4343s-.0651.0021-.0841.0252c0,0,.0714-.0105.208.0126,0,0-.0312-.0254-.0522-.0324-.0464-.0155-.0718-.0054-.0718-.0054Z"/>
      <path class="cls-22" d="M.2328.5751s-.0168-.0757-.0168-.1156c0,0,.1282-.0231.208.0126l.0145.0796-.2058.0233Z"/>
      <polygon class="cls-8" points=".6846 .4049 .6488 .4217 .7161 .5778 .7518 .5856 .6846 .4049"/>
      <polygon class="cls-4" points=".5933 .6065 .6488 .4217 .7161 .5778 .5933 .6065"/>
      <path class="cls-1" d="M.5064.5344l.0311-.0749.1891.0651s-.0026.0384-.017.0644-.2032-.0546-.2032-.0546Z"/>
      <path class="cls-16" d="M.5064.5344l.029-.0665.1765.0609s-.0026.0384-.017.0644-.1884-.0588-.1884-.0588Z"/>
      <g>
        <path class="cls-7" d="M.7857.609c0,.0324-.0832.0642-.1935.0839-.0041.0007-.0196.0136-.095.0136-.0841,0-.0736-.0099-.1063-.0159-.1088-.02-.167-.0508-.167-.0817,0-.041.1258-.0743.2809-.0743s.2809.0333.2809.0743Z"/>
        <ellipse class="cls-19" cx=".501" cy=".6007" rx=".2809" ry=".0697"/>
        <path class="cls-18" d="M.7214.6288c.0033-.0107.0284-.0205.0261-.0349s-.009-.0258-.0179-.0235-.0216.0038-.0269-.0053-.0097-.0008-.0134.0045-.0052,0-.009-.0068-.006-.0061-.0127-.003-.0172.0045-.0239-.0083-.0246-.0152-.0358-.0114-.0149-.0136-.0239-.025c-.003-.0038-.0052-.0114-.0157-.0076s-.0216.0083-.0336-.0038-.0142.0023-.0142.0023c-.0007-.0265-.0187-.0227-.0246-.022s-.0105.022-.0157.0159-.0082-.0106-.0194-.0061-.0045.0152-.0075.0227-.0045.0099-.0119.0045-.0164.0008-.0269.0061-.006.0182-.0172.0152-.0358-.0015-.0388.0038-.0075.0121-.0202.0068-.0082.0023-.0149.0068-.0105.0015-.0231.0008-.0127.0068-.0191.0132-.0063.0148-.0123.0179-.0097-.0015-.0194.0038,0,.022,0,.022c0,0,.0142.0197.0336.0265s.1335.0227.2128.0227c.1179,0,.1635-.0136.2038-.0197,0,0,.0172-.0038.0216-.0182Z"/>
        <path class="cls-6" d="M.2914.6053c.0028-.0045.0164.0008.0202-.0053s.009-.0099.0157-.0091.0149.0045.0231.0114.0134.0061.0209.0023.0284-.0167.0314-.0212.0172-.0008.0202.0045.0164.0053.0172-.0053.0067-.0152.0097-.0167.0164-.003.0246.0083.0067-.0045.009-.0068.003-.003.006-.003.0179-.0015.0328.0174.0105-.0076.0202-.003.0179.0083.0239.0136.0231.0114.0306.0061.0269-.003.0269.0091.0052.0144.0112.0106.0149-.0015.0149.0045v.0061h.0105c.0067-.003.0224-.0136.0291-.003s.0224,0,.0269-.0038.0119-.0174.0164-.0136.0007.0121-.006.0174-.006.0136-.0127.0167-.1127.028-.2247.0243-.209-.0197-.2187-.028-.0194-.022-.0097-.0265l.0097-.0045s.0157.0061.0209-.0023Z"/>
        <path class="cls-12" d="M.2608.6121s-.014-.0078-.0024-.0134.0176.0005.0206-.0056.004-.0179.0096-.0179.0085-.0077.0111-.0092.0065.0005.0106.001.008.0107.005.0123c-.006-.0071-.0149-.0168-.0196.001-.005.0189-.0126.0276-.0141.0286s-.006.0015-.006.0015c0,0,.0003-.0151-.0147.0016Z"/>
        <path class="cls-12" d="M.3077.5911s-.0091,0-.008-.0077.0096-.0056.0111-.0026l.0015.0031s.0101.0026.0116-.0036-.0035-.0128-.0035-.0128c0,0,.0075-.0026.0096-.0066s.007-.0041.0116-.001.0151.0133.0151.0189c0,0-.0121-.0153-.0201-.0123s-.005.0117-.005.0117c0,0,.005-.0077.0101-.0046s.0065.0174-.0015.0214c0,0,.0015-.0174-.0065-.0117,0,0-.0191.0102-.0256.0077Z"/>
        <path class="cls-12" d="M.3504.6023s.0056-.0096.0026-.0168c0,0,.007.0041.0075.0097,0,0,.0136-.0112-.0065-.0342,0,0,.007-.0041.0091-.0087s.0277-.0026.0357-.0015c0,0,.0106-.0015.0141-.0092,0,0,.0136.0026.0101.0194,0,0,.007-.0143-.001-.0281,0,0,.0015-.0102.0151-.0061s.0166.0036.0191-.001c0,0,.004.0153-.0085.0138s-.0161-.0041-.0161-.0041c0,0,.003.0107.0171.0112,0,0-.0096.0061-.0171-.0005,0,0,.005.0276-.007.0311,0,0-.0096.002-.0096-.0163s-.007-.0051-.007-.0051c0,0-.0101.0235-.0196.0133s-.0106-.0143-.0201-.0128c0,0-.006.0036-.002.0107s.0025-.0036.0065-.0036.006.0036.002.0077-.004.0128-.004.0143.006,0,.0085-.0066.0176-.0036.007.0041-.0156.0087-.0161.0158-.0045.0092-.0045.0092c0,0-.0142-.0037-.0151-.0057Z"/>
        <path class="cls-12" d="M.3836.5972s.0256-.0225.0267-.0301c0,0,.004.0097.003.0153,0,0-.0226.0051-.0297.0148Z"/>
        <path class="cls-12" d="M.4419.5722s-.0101-.0123-.0025-.0148.0126-.001.0151-.0056.0166-.0189.0075-.0332c0,0-.005-.0169.004-.0194s.0045.0102.0136.0133.0146.0082.0166.0143.003.0204.0166.0174.0211-.0128.0322-.0026-.0065.0163.0196.0214.0302-.0026.0342.0087.002.0189.002.0189c0,0-.0171.0061-.0211.0005s.0091-.0046.0121-.0061-.0065-.0184-.0161-.0128-.0045.0117-.008.0117-.005.0031-.006-.0061-.0075-.0128-.0141-.0107-.0126.0082-.0161.0128-.0151-.0077-.0151-.0128.0096.0036.0126.0036.0055-.0041.008-.0087.0065-.0169-.0035-.0194-.007.0082-.0226.0092-.0176-.0107-.0201-.0158-.0101-.0138-.0146-.0143c0,0,.0131.0189.0146.0352,0,0-.0096-.0235-.0181-.026,0,0-.0015.0179-.0106.024s-.0176.0077-.0176.0077c0,0,.0277-.0005.0297-.0123s.0091.0172.0091.0172c0,0-.0086-.0029-.0091-.0069s-.0085.0046-.0156.0051-.0131,0-.0166.0066Z"/>
        <path class="cls-12" d="M.4972.5656l-.0005-.0092s.0272.0026.0322-.0061.0055.0087-.0005.0128c0,0-.0236-.0066-.0312.0026Z"/>
        <path class="cls-12" d="M.4877.5068s.0085,0,.0136.0169.0151.0143.0211.0107.0231-.0051.0292.001.0327.0148.0387.0061c0,0-.008-.0311-.0191-.0271s-.0347.0036-.0437-.0056c0,0-.0121.0174-.0136.0092s.0035-.0317-.0151-.0291c0,0-.0015.0169-.0111.0179Z"/>
        <path class="cls-12" d="M.5646.5564s.0357-.0102.0427.0153c0,0,.0035.0133.003.0163s.0091-.0087.0136.0051-.001.0184.008.0163.0181-.0143.0216-.0026.0196.0138.0241.0036.0075-.0194,0-.0194-.0106.0148-.0151.0107-.0151-.0087-.0241-.0036-.006-.023-.0181-.0174-.0025-.0495-.0558-.0245Z"/>
        <path class="cls-12" d="M.6154.5518s.0065.0133.0055.0194.008-.0056.0136.0092.0146.0117.0211.0092.0171,0,.0176-.0077.0055-.0199-.004-.0153-.0166.0066-.0176.0051-.0181-.0148-.0196-.0194.007.0332.0277.0281c0,0-.008.0153-.0191.0005s-.0171-.0286-.0251-.0291Z"/>
        <path class="cls-12" d="M.6823.5855s.0116.0128.0045.0281c0,0,.0096.0097.0221.002s.0156-.0204.0231-.0174c0,0,.006-.0163,0-.0204,0,0-.0111.0041-.0191-.0005,0,0,.004.0128.0126.0117,0,0-.0131.0143-.0171.0189s-.0141.001-.0141.001c0,0,.0186-.0061.0191-.0174,0,0-.0111-.0087-.0151-.0209l-.0056.0067s.0116.0122.0076.0183c0,0-.0106-.0174-.0181-.0174v.0071Z"/>
        <path class="cls-12" d="M.2832.6439s-.0138-.0054-.0054-.0148.0056-.0066.0214-.0123.0214-.0132.0279-.0123.0316.0255.0464.0123.0297-.0292.0483-.0141.0279,0,.0297-.0066.0214-.016.0279-.0047.0102.0255.0019.0311-.0297-.0047-.0446.0066c0,0,.0121-.0236.0306-.017,0,0,.0009-.0236-.0074-.0141s-.0093.0226-.0418.0189-.0316.0028-.0399.0085-.0279-.0047-.0455-.0057-.0399.0104-.0399.0104c0,0,.052-.0066.0678.0047s.0223-.0057.039-.0047.0214.0302.0214.0302l-.0186.0009s.0065-.0217-.0093-.0198-.0232.0151-.0409.0085-.0523-.0203-.0689-.0059Z"/>
        <path class="cls-12" d="M.4152.6272s.0167.0226.0186.0377h.026s-.0037-.0207.0139-.0151.011.0141.0273.016.0182-.0254.0321-.0283.026.0085.0399.0113.0279.0047.0306-.0085c0,0-.0186.0066-.0344-.0038s-.0446-.0255-.0604-.0057-.0241-.0047-.0371-.0009-.0232.017-.0223.0255c0,0-.0214-.033-.0344-.0283Z"/>
        <path class="cls-12" d="M.4672.6659s-.0034-.0211.022.0008l-.022-.0008Z"/>
        <path class="cls-12" d="M.522.6659s.0065-.0038.0111-.0141.0214,0,.0334.0047.0362.0066.0436-.0009.0084-.0207.0167-.0245.0019-.0019.0167.0047.0149-.0019.0279-.0047.0204.0057.0232.0094l.0028.0038-.0167.0075s.0019-.0179-.0121-.0123-.0204.0151-.0325.0047-.0176.017-.0176.017l-.0613.0038s-.013-.0132-.0204.0019l-.0149-.0009Z"/>
        <path class="cls-12" d="M.4486.5829s.0028-.017.0167-.0047c0,0-.0186.0113-.0232.0207l.0065-.016Z"/>
        <path class="cls-12" d="M.4904.5791s.0139.0292.0046.0462c0,0,.0158-.0028.0204-.0113s.0427.0019.0501.0123c0,0,.0065-.0264-.0046-.0198,0,0-.0195-.0273-.0158-.0123s-.0121.0075-.0195.0047-.021.0101-.021.0101c0,0,.0005-.0233-.0143-.0299Z"/>
        <path class="cls-12" d="M.5749.6065s.0019.0132-.0019.0207.0325.0075.039.0028.0074-.0283-.0028-.0236-.0195.0038-.0223.0028.0074.0104.0204.0047c0,0,.0028.0104-.0074.0104s-.0139.0028-.0251-.0179Z"/>
      </g>
      <g id="YQYiUM">
        <g>
          <g>
            <polygon class="cls-21" points=".5477 .3992 .5405 .409 .5477 .3992 .5477 .3992"/>
            <polygon class="cls-21" points=".4722 .4265 .4716 .4266 .4716 .4266 .4722 .4265"/>
            <path class="cls-17" d="M.5213.4265s-.0005.0007-.0007.001c.0002-.0003.0005-.0007.0007-.001Z"/>
            <path class="cls-17" d="M.5202.428s-.0004.0006-.0006.0009c.0002-.0003.0004-.0006.0006-.0009Z"/>
            <path class="cls-17" d="M.5221.4254s-.0005.0007-.0008.0011c.0003-.0003.0005-.0007.0008-.0011Z"/>
            <path class="cls-17" d="M.4714.4258s.0001.0004.0001.0005c0-.0002,0-.0004-.0001-.0005Z"/>
            <path class="cls-17" d="M.5221.4254c.0071-.0093.0216-.0245.0256-.0262h0c-.004.0017-.0185.0169-.0256.0262Z"/>
            <polygon class="cls-17" points=".4716 .4266 .4715 .4263 .4716 .4266 .4716 .4266"/>
          </g>
          <path class="cls-21" d="M.6355.4022s-.0013-.0004-.0018-.0002c-.0007.0004-.0011.0011-.0017.0016-.0056.0061-.011.0123-.0167.0184-.0018.0019-.0042.0033-.0064.005-.0003-.0002-.0006-.0004-.0009-.0007.0008-.0014.0016-.0027.0022-.0041.0014-.0029.003-.0058.0039-.0089.001-.0037-.0019-.0067-.0057-.0071-.0059.0079-.0128.0147-.0212.0204,0-.0015,0-.003.0008-.004.0036-.0045.0071-.0091.0113-.0132.0045-.0045.0093-.0088.0164-.0102.0004,0,.0008-.0013.0006-.0018-.0016-.0052-.0056-.0088-.0123-.0057-.0017.0008-.0033.0016-.0048.0026-.0071.0046-.013.0102-.0177.0168-.0038.0054-.0087.0099-.0141.014-.0013.001-.0029.0017-.0043.0025-.0003-.0002-.0006-.0004-.0009-.0006.0011-.0019.0021-.004.0034-.0058.0045-.0064.009-.0128.0135-.0192.0021-.0029.0018-.0057.0004-.0086-.0017-.0034-.0037-.0039-.007-.0018-.0023.0015-.0044.0032-.0065.0049-.002.0016-.004.0032-.0066.0054.0016-.004.001-.007-.0013-.0097-.0018-.0022-.0036-.0025-.006-.0008-.0025.0017-.005.0036-.0073.0056-.0031.0028-.006.0058-.009.0087-.0002-.0002-.0005-.0004-.0007-.0006.0032-.0084.0013-.0151-.0042-.0157-.001.0025-.0015.0054-.0031.0075-.0056.0072-.0114.0142-.0174.021-.0027.003-.0061.0054-.0094.008-.0007.0005-.0023.0008-.003.0004-.0006-.0004-.0009-.0017-.0008-.0026.0001-.001.0007-.0021.0012-.0031.0018-.0029.0037-.0057.0055-.0085.002-.0031.0042-.0062.0059-.0094.002-.0037.0005-.009-.0027-.0111-.0023-.0015-.0037-.001-.0044.0015-.0003.0011-.0007.0023-.0013.0033-.0042.0079-.0106.0144-.0172.0208-.0033.0032-.0071.006-.0107.0089-.0004.0003-.001.0003-.0017.0004-.0002,0-.0004,0-.0006,0h0s0-.0002,0-.0003c0-.0002,0-.0004-.0001-.0005-.0001-.0004-.0002-.0009,0-.0013.0008-.0021.0015-.0044.0028-.0063.0067-.0106.0139-.021.02-.0319.0031-.0056.0069-.0074.0133-.0063.0019.0003.0027.0006.0032.0026.0005.002.002.0039.0034.0055.001.0011.0025.0008.0035-.0006.0023-.003.0047-.0058.0071-.0088.0011-.0013.0014-.0027.0001-.0042-.0036-.0042-.0094-.0043-.013,0-.0002.0002-.0004.0003-.0004.0003-.0032-.0002-.0063-.0004-.0094-.0007.0009-.0021.0018-.004.0024-.0059.0012-.0041-.0017-.0092-.0059-.0107-.0013-.0005-.0022-.0006-.0029.0011-.002.0049-.0043.0096-.0067.0144-.0004.0008-.0018.0018-.0027.0017-.0039,0-.0077-.0004-.0117-.0006.0009-.0021.0018-.0037.0024-.0055.0014-.0042-.0013-.0094-.0056-.011-.0012-.0004-.0023-.001-.0031.0008-.0021.005-.0045.0099-.0069.0148-.0003.0006-.0011.0013-.0018.0014-.0036.0003-.0072.0004-.011.0006,0-.0038.0003-.0072,0-.0106-.0008-.0075-.0064-.0129-.0147-.0132-.004-.0002-.0082.0005-.0121.0016-.0077.0022-.0137.0069-.019.0122-.0049-.0035-.0098-.0035-.0152.0002-.0055.0037-.0097.0084-.0134.0135-.0079.0111-.0123.023-.0095.0364.0021.0099.0091.0165.0196.0181.0084.0012.016-.001.023-.0051.017-.0099.0284-.024.0367-.0403.0012-.0024.0014-.0057.0034-.007.002-.0013.0056-.0005.0085-.0005.0003,0,.0005,0,.0011.0002-.0007.0011-.0013.0021-.0019.0031-.0046.0075-.0094.0149-.0138.0226-.0026.0045-.005.0092-.0067.0141-.0011.0034-.0004.0072.0033.0095.0037.0023.0073.0011.0103-.0013.004-.0031.0077-.0064.0115-.0097.0011-.001.0022-.0021.0032-.0032,0,.0015-.0006.0028-.001.0041-.001.0037.0006.0084.0034.0101.0029.0018.0065.0014.0106-.0015.0031-.0022.006-.0048.0089-.0073.0014-.0012.0027-.0026.0036-.0035.0007.0032.0009.0065.0021.0095.0016.0036.0057.0048.0096.0029.0022-.0011.0043-.0025.0061-.004.0022-.0017.0041-.0038.0066-.0061-.0008.0059.0019.0105.0058.0108.0003-.0006.0007-.0013.0013-.0022.0002-.0003.0004-.0006.0006-.0009.0001-.0002.0002-.0003.0003-.0005.0002-.0003.0005-.0007.0007-.001.0003-.0003.0005-.0007.0008-.0011.0071-.0093.0216-.0245.0256-.0262h0s0,0,0,0c-.0024.0032-.005.0064-.0072.0097-.0003.0005-.0006.001-.0009.0014-.002.0033-.0038.0067-.0051.0103-.0012.0036.0015.0087.0046.0103.0024-.0041.0045-.0085.0074-.0124.003-.0039.0065-.0076.0102-.011.0036-.0033.0077-.006.0116-.009-.0036.0059-.0074.0114-.011.017-.0023.0036-.0025.0076-.001.0115.0015.004.0046.0052.0088.0034.0018-.0008.0034-.0018.0049-.0029.0023-.0017.0044-.0035.0067-.0054.0006.0041.0026.0074.0069.0088.0039.0013.0059-.0019.0083-.0037.0024-.0018.0045-.0039.0069-.006,0,.0004.0002.0006.0001.0008-.001.0039.0013.0065.0046.0085.0032.0019.0059,0,.0084-.0016.0003-.0002.0006-.0004.0009-.0006.009-.0068.0158-.0153.0226-.0238.0002-.0003.0004-.0006.0005-.0009,0-.0005,0-.0012-.0002-.0013ZM.4051.4243c-.0041.0025-.0085.0041-.0135.0046-.0058.0006-.0096-.001-.0121-.0058-.0036-.0071-.0039-.0145-.0008-.0218.0042-.0099.012-.0173.0212-.0244.0034.0146.0108.0243.0302.0197-.0066.0111-.0139.0209-.025.0277ZM.4391.3743c-.0024-.0012-.0047-.0023-.0071-.0035-.0011.0036.0006.0059.0064.009-.0013.0032-.0027.0064-.0041.0097-.0001.0003-.0004.0006-.0007.0008-.0047.0022-.0097.0039-.0151.0024-.0049-.0014-.0068-.0052-.008-.0093-.0025-.0083.0062-.0164.0144-.0184.0013-.0003.0027-.0005.0041-.0007.0078-.0009.0113.0025.01.01ZM.4449.4271l-.0013-.0005c.0004-.0015.0004-.0032.0012-.0046.0032-.0059.0065-.0117.0101-.0174.0048-.0077.0099-.0153.0149-.0229.0007-.0011.0012-.0015.0028-.0013.0037.0004.0074.0004.0114.0006-.0099.0178-.0212.0343-.039.0461Z"/>
        </g>
      </g>
      <g>
        <path class="cls-21" d="M.4744.33c-.004.0009-.0042.0007-.0045-.0044,0-.0016-.0003-.0032-.0009-.005-.0004.0017-.0005.0035-.0011.0051-.0007.0017-.0019.0031-.0028.0046-.0009-.0015-.002-.0028-.0026-.0044-.0007-.0016-.0009-.0035-.0018-.0052,0,.0024,0,.0048,0,.0072-.0001.0069-.004.0127-.0098.0147-.0058.002-.0122-.0006-.0156-.0063-.0032-.0054-.0029-.0128.0008-.0181.0037-.0053.0104-.0072.0161-.0047.0022.001.0023.0011.0022.0044-.0034-.0019-.0068-.0034-.0106-.0019-.0062.0023-.0095.0093-.0073.0158.0023.007.0092.0102.0153.0072.0059-.0029.008-.0101.0055-.0168-.001-.0027-.0012-.0061-.0011-.0091,0-.0013.0019-.0034.0031-.0036.0012-.0002.003.0012.0038.0026.001.0017.0013.0041.0022.0071.0007-.0027.0013-.0045.0017-.0063.0006-.0023.0018-.0037.0041-.0034.0023.0003.0034.0022.0034.0047,0,.0053,0,.0105,0,.0159Z"/>
        <path class="cls-21" d="M.5158.3184c-.0002.0019-.001.0042-.0003.0054.0008.0014.003.0025.0045.0024.0021,0,.0033-.0021.0033-.0047,0-.0032-.0002-.0064.0001-.0095.0001-.0013.0014-.0024.0022-.0036.0008.001.0021.0018.0023.0029.0003.002.0012.0021.0026.0021.0036.0002.0045.0013.0046.0054,0,.0028.0002.0057-.0001.0084-.0002.0013-.0014.0024-.0022.0036-.0007-.0012-.0019-.0023-.0021-.0035-.0003-.0029,0-.0058,0-.0087-.0028-.0012-.0026.0008-.0026.0026-.0001.0052-.0027.0088-.0072.0101-.0056.0016-.0113-.0041-.0107-.0105.0005-.0047.0046-.0083.0087-.0074.0009.0002.0021.0006.0024.0013.0006.0015.0011.0033.0009.0048,0,.0008-.0017.0022-.0024.0021-.0011-.0003-.002-.0016-.003-.0025l-.0008-.0008Z"/>
        <path class="cls-21" d="M.4971.3167l-.0033.0013c0,.0031.0002.0061,0,.0092-.0001.0011-.0012.0028-.0021.0031-.0018.0005-.0024-.0012-.0024-.0031,0-.0031,0-.0061,0-.0092.0002-.0045.0035-.0065.007-.0044.0004.0003.0012.0002.0016,0,.0026-.0013.0038-.0004.0039.0029,0,.0023,0,.0047,0,.007,0,.0007.0008.0014.0012.0021.0005-.0007.0013-.0013.0013-.002.0002-.0026-.0001-.0052.0002-.0077.0001-.001.0013-.0019.002-.0029.0009.0009.0024.0017.0025.0028.0003.0031.0003.0063,0,.0095-.0003.0035-.003.0057-.0065.0055-.0031-.0002-.0054-.0027-.0055-.0063,0-.0024,0-.0049,0-.0076Z"/>
        <path class="cls-21" d="M.422.3251c-.0045.0019-.0089.0045-.0136.0055-.0043.0009-.009,0-.0135,0-.0006,0-.0012-.0001-.0018,0-.0048.0005-.0098.0021-.0145.0014-.0048-.0007-.0094,0-.0141-.0003-.0018-.0001-.0036-.0009-.006-.0015-.0002-.001-.0005-.0026-.0008-.0042h.0006s.0002.001.0003.001c.0038-.0004.0075.0036.0114.0001.0005-.0004.0018-.0004.0023,0,.0024.0018.0048.0014.0073.0007.0007-.0002.0015-.0003.0022,0,.0059.0025.0117.0008.0175-.0007.0008-.0002.0017-.0002.0025,0,.0057.0017.0111.0005.0164-.002.0011-.0005.0023-.0007.0035-.001l.0003.0011Z"/>
        <path class="cls-21" d="M.4377.3273c.0002-.0057.0046-.0104.0096-.0102.0053.0003.0092.0051.0091.0112-.0001.0059-.0043.0102-.0096.01-.0054-.0001-.0092-.0048-.009-.011ZM.4509.3234h-.0092c-.0022.0035-.0021.0072.0008.0101.0026.0027.0065.0027.009,0,.0027-.0027.0032-.007.001-.0101-.0008-.0012-.002-.002-.0031-.003l-.0004.0005c.0004.0006.0009.0012.0018.0024Z"/>
        <path class="cls-21" d="M.5536.3188c0,.003.0002.0061,0,.0091,0,.0011-.0012.002-.0019.003-.0008-.0009-.0024-.0018-.0024-.0029-.0003-.004-.0002-.008,0-.012,0-.0008.0009-.0022.0014-.0022.0026-.0002.0053-.0005.0077.0001.0011.0003.0024.0025.0026.0041.0004.0032.0003.0066,0,.0098-.0001.0011-.0014.0022-.0021.0032-.0008-.001-.0023-.0019-.0024-.003-.0004-.0025,0-.0052-.0002-.0077,0-.0009-.001-.0016-.0016-.0025-.0003.0003-.0007.0006-.001.0009Z"/>
        <polygon class="cls-21" points=".4826 .3176 .4802 .3182 .4771 .3163 .4795 .3136 .4838 .3136 .4869 .3156 .4862 .3289 .4803 .3306 .4761 .3253 .4795 .32 .4829 .3189 .4826 .3176"/>
        <path class="cls-21" d="M.5427.3177c-.0007.0002-.0015.0005-.0022.0004-.001,0-.0021,0-.0028-.0006-.0004-.0003-.0007-.0021-.0004-.0024.0007-.0008.0018-.0013.0028-.0015.0012-.0002.0026-.0003.0037,0,.0012.0004.0031.0014.0032.0023.0002.0041.0004.0084-.0004.0124-.0006.0028-.0038.0037-.0061.0025-.0018-.001-.0035-.0032-.0042-.0054-.0009-.0025.0007-.0045.003-.0053.0012-.0004.0025-.0008.0037-.0012,0-.0004-.0001-.0008-.0002-.0012Z"/>
        <polygon class="cls-21" points=".5667 .3299 .5642 .3316 .5624 .3294 .5643 .3278 .5667 .3299"/>
      </g>
      <polygon class="cls-2" points=".7975 .2018 .7945 .7626 .8711 .7629 .8588 .1987 .7975 .2018"/>
      <polygon class="cls-2" points=".1352 .2232 .1322 .784 .2088 .7843 .1965 .2141 .1352 .2232"/>
    </g>
    <path class="cls-22" d="M.4385.5518"/>
    <g>
      <polyline class="cls-24" points=".6069 .314 .6069 .356 .6363 .3857 .748 .3857 .7774 .356 .7774 .314"/>
      <polygon class="cls-24" points=".6631 .2692 .6215 .2692 .592 .299 .592 .341 .6215 .3708 .6631 .3708 .6925 .341 .6925 .299 .6631 .2692"/>
      <polygon class="cls-24" points=".7631 .2692 .7215 .2692 .6921 .299 .6921 .341 .7215 .3708 .7631 .3708 .7925 .341 .7925 .299 .7631 .2692"/>
      <polygon class="cls-23" points=".6598 .2773 .6247 .2773 .6 .3023 .6 .3377 .6247 .3627 .6598 .3627 .6845 .3377 .6845 .3023 .6598 .2773"/>
      <polygon class="cls-23" points=".7597 .2773 .7247 .2773 .6999 .3023 .6999 .3377 .7247 .3627 .7597 .3627 .7845 .3377 .7845 .3023 .7597 .2773"/>
    </g>
  </g>
  <path class="cls-21" d="M.8786.6003c-.0071-.0056-.0083-.038-.0104-.0712,0,0,.0008.0579-.0095.0721-.009.0126-.0297.0111-.051.0118,0,0,.0367,0,.048.0199.0043.0076.0092.0534.0135.0943,0,0-.0024-.0705.0119-.0935.0084-.0136.0299-.0159.0491-.0167,0,0-.0388-.0063-.0515-.0167h-.0001Z"/>
  <path class="cls-21" d="M.9197.4591c-.0048-.0035-.0056-.0233-.0069-.0437h0s.0005.0355-.0064.0442c-.006.0077-.02.0067-.0345.0073,0,0,.0249,0,.0324.0122.0029.0047.0061.0327.0092.0578,0,0-.0017-.0432.008-.0574.0058-.0083.0202-.0097.0332-.0101,0,0-.0261-.0041-.0349-.0102h-.0001Z"/>
  <path class="cls-21" d="M.3997.7945c-.0042-.0029-.0049-.0196-.0061-.0368H.3936s.0004.0299-.0056.0372c-.0053.0065-.0176.0056-.0304.0061,0,0,.0219,0,.0285.0103.0026.004.0054.0275.0081.0486,0,0-.0015-.0364.007-.0483.0051-.007.0178-.0082.0292-.0085,0,0-.023-.0035-.0307-.0086h0Z"/>
  <path class="cls-21" d="M.2799.1393s.0005.0344-.0062.0428c-.0058.0074-.0193.0065-.0335.0071,0,0,.0241,0,.0314.0119.0029.0046.0059.0318.0089.0561,0,0-.0017-.0421.0077-.0558.0055-.0081.0196-.0094.0321-.0098,0,0-.0254-.0038-.0338-.0098-.0047-.0034-.0054-.0227-.0067-.0425h.0001Z"/>
  <path class="cls-15" d="M.1362.2222s.0008.0574-.0099.0717c-.0093.0125-.0307.0109-.0529.0117,0,0,.0383,0,.0496.0197.0045.0076.0096.0529.0141.0938,0,0-.0024-.0701.0123-.093.0088-.0136.031-.0157.0511-.0165,0,0-.0403-.0063-.0535-.0165-.0072-.0057-.0086-.0377-.0106-.0709h-.0003s.0001,0,0,0Z"/>
</svg>