<?xml version="1.0" encoding="UTF-8"?>
<svg id="Layer_1" data-name="Layer 1" xmlns="http://www.w3.org/2000/svg" xmlns:xlink="http://www.w3.org/1999/xlink" version="1.1" viewBox="0 0 1 1">
  <defs>
    <style>
      .cls-1 {
        fill: #eee;
      }

      .cls-1, .cls-2, .cls-3, .cls-4, .cls-5, .cls-6, .cls-7, .cls-8, .cls-9, .cls-10, .cls-11, .cls-12, .cls-13, .cls-14, .cls-15, .cls-16, .cls-17, .cls-18, .cls-19, .cls-20, .cls-21, .cls-22, .cls-23 {
        stroke-width: 0px;
      }

      .cls-2, .cls-24 {
        fill: #221f20;
      }

      .cls-25 {
        stroke-width: .0015px;
      }

      .cls-25, .cls-26 {
        stroke: #000;
        stroke-miterlimit: 10;
      }

      .cls-25, .cls-20 {
        fill: #fff;
      }

      .cls-27 {
        clip-path: url(#clippath);
      }

      .cls-3, .cls-28 {
        fill: none;
      }

      .cls-4 {
        fill: #ad9c5e;
      }

      .cls-5 {
        fill: url(#linear-gradient);
      }

      .cls-6 {
        fill: #e8e1d1;
      }

      .cls-7 {
        fill: #cfae3a;
      }

      .cls-8 {
        fill: #ffffe0;
      }

      .cls-9 {
        fill: #d93973;
      }

      .cls-10 {
        fill: #fae54d;
      }

      .cls-11 {
        fill: #c0bead;
      }

      .cls-29 {
        clip-path: url(#clippath-1);
      }

      .cls-30 {
        clip-path: url(#clippath-3);
      }

      .cls-31 {
        clip-path: url(#clippath-2);
      }

      .cls-12, .cls-26 {
        fill: #000;
      }

      .cls-13 {
        fill: #eeeeec;
      }

      .cls-14 {
        fill: #dbbc3f;
      }

      .cls-24 {
        stroke: #fff;
        stroke-width: .0143px;
      }

      .cls-24, .cls-28 {
        stroke-linejoin: round;
      }

      .cls-15 {
        fill: #c7b744;
      }

      .cls-16 {
        fill: #f2b23e;
      }

      .cls-26 {
        stroke-width: .0013px;
      }

      .cls-17 {
        fill: #fae58e;
      }

      .cls-32 {
        opacity: .55;
      }

      .cls-18 {
        fill: #f2d45b;
      }

      .cls-19 {
        fill: url(#linear-gradient-2);
      }

      .cls-21 {
        fill: #ec712e;
      }

      .cls-22 {
        fill: #c7c2ac;
      }

      .cls-23 {
        fill: #74b549;
      }

      .cls-28 {
        stroke: #d93570;
        stroke-width: .0185px;
      }
    </style>
    <linearGradient id="linear-gradient" x1=".2373" y1="304.5963" x2=".7025" y2="303.9706" gradientTransform="translate(0 304.7391) scale(1 -1)" gradientUnits="userSpaceOnUse">
      <stop offset=".0228" stop-color="#d3b86f"/>
      <stop offset=".1422" stop-color="#fffff3"/>
      <stop offset=".2412" stop-color="#fffff3"/>
      <stop offset=".3838" stop-color="#d3b86f"/>
      <stop offset=".56" stop-color="#d3b86f"/>
      <stop offset=".7329" stop-color="#ffffe2"/>
      <stop offset=".8908" stop-color="#d3b86f"/>
      <stop offset="1" stop-color="#998351"/>
    </linearGradient>
    <linearGradient id="linear-gradient-2" x1=".2532" y1="304.623" x2=".7524" y2="303.856" gradientTransform="translate(0 304.7391) scale(1 -1)" gradientUnits="userSpaceOnUse">
      <stop offset=".0072" stop-color="#877139"/>
      <stop offset=".1728" stop-color="#ffb"/>
      <stop offset=".3571" stop-color="#c9a753"/>
      <stop offset=".5119" stop-color="#745c31"/>
      <stop offset=".6595" stop-color="#c9a753"/>
      <stop offset=".7826" stop-color="#c9a753"/>
      <stop offset=".932" stop-color="#756435"/>
      <stop offset="1" stop-color="#492a24"/>
    </linearGradient>
    <clipPath id="clippath">
      <path class="cls-3" d="M.1567.2253l.0472.0025s-.0335.0484.2893.0447c0,0,.2658.0186.3254-.0484l.0372.0025.0013.5452s-.041.0025-.0447.0038c-.0038.0013-.0671-.0484-.3067-.0398,0,0-.2931,0-.2931.0359l-.0522.0025-.0037-.5488Z"/>
    </clipPath>
    <clipPath id="clippath-1">
      <path class="cls-3" d="M.1567.2174l.0472.0025s-.0219.0371.2909.0371c.1614,0,.3028-.0033.3238-.0408l.0372.0025.0013.5452s-.041.0025-.0447.0038c-.0038.0013-.0671-.0484-.3067-.0398,0,0-.2931,0-.2931.036l-.0522.0025-.0037-.5489Z"/>
    </clipPath>
    <clipPath id="clippath-2">
      <path class="cls-3" d="M.1567.2865l.0472.0025s-.0219.0371.2909.0371c.1614,0,.3028-.0033.3238-.0409l.0372.0025.0013.477s-.041.0025-.0447.0038c-.0038.0013-.0671-.0484-.3067-.0398,0,0-.2931,0-.2931.036l-.0522.0025-.0037-.4806Z"/>
    </clipPath>
    <clipPath id="clippath-3">
      <path class="cls-3" d="M.2138.8292l.0013-.316s.0919-.0013.154.036c.0621.0373.1403.036.1403.036,0,0,.0747-.0016.1552-.0484.0534-.0311.1316-.0323.1316-.0323l.0025.3269-.585-.0022h0Z"/>
    </clipPath>
  </defs>
  <g>
    <path class="cls-5" d="M.5042.0151C.2354.0151.0175.233.0175.5018s.2179.4868.4867.4868.4868-.2179.4868-.4868S.7731.0151.5042.0151Z"/>
    <circle class="cls-19" cx=".5042" cy=".5018" r=".4669"/>
  </g>
  <path class="cls-9" d="M.1567.2175l.0472.0025s-.0184.0364.2887.0375c.1812.0006.3069-.007.3261-.0413l.0372.0025.0013.5452s-.041.0025-.0447.0038-.0671-.0484-.3067-.0398c0,0-.2932,0-.2932.036l-.0522.0025-.0037-.5489Z"/>
  <g>
    <g class="cls-27">
      <path class="cls-12" d="M.2138.2264l.0013.2111s.0919-.0013.154.036c.0621.0373.1403.036.1403.036,0,0,.0747-.0016.1552-.0484.0534-.0311.1316-.0323.1316-.0323l.0025-.2161-.585.0136Z"/>
    </g>
    <g class="cls-29">
      <path class="cls-10" d="M.2138.2187l.0013.2111s.0919-.0013.154.036c.0621.0373.1403.036.1403.036,0,0,.0747-.0016.1552-.0484.0534-.0311.1316-.0323.1316-.0323l.0025-.2161-.585.0136Z"/>
    </g>
  </g>
  <g class="cls-31">
    <g>
      <path class="cls-2" d="M.2138.8984l.0013-.3972s.0919-.0013.154.036c.0621.0373.1403.036.1403.036,0,0,.0747-.0016.1552-.0484.0534-.0311.1316-.0323.1316-.0323l.0025.3636-.585.0423h0Z"/>
      <path class="cls-20" d="M.2138.9026l.0013-.3972s.0919-.0013.154.036c.0621.0373.1403.036.1403.036,0,0,.0747-.0016.1552-.0484.0534-.0311.1316-.0323.1316-.0323l.0025.3636-.585.0423h0Z"/>
      <path class="cls-15" d="M.2138.8292l.0013-.3159s.0919-.0013.154.036c.0621.0373.1403.036.1403.036,0,0,.0747-.0016.1552-.0484.0534-.0311.1316-.0323.1316-.0323l.0025.3268-.585-.0022h0Z"/>
      <g class="cls-30">
        <g>
          <path class="cls-16" d="M.3032.5097l-.0947.1643s-.0057.1118-.0023.1118.1677-.0171.1677-.0171c0,0,.0513-.2145.0479-.2167s-.1186-.0422-.1186-.0422Z"/>
          <polygon class="cls-6" points=".261 .5839 .3888 .5953 .383 .6124 .2508 .6021 .261 .5839"/>
          <polygon class="cls-6" points=".2895 .5325 .4173 .5439 .4116 .561 .2793 .5507 .2895 .5325"/>
          <polygon class="cls-6" points=".2234 .6477 .3511 .6591 .3431 .6796 .2108 .6694 .2234 .6477"/>
          <polygon class="cls-6" points=".188 .7275 .3591 .7424 .3511 .7629 .1755 .7492 .188 .7275"/>
          <polygon class="cls-21" points=".2508 .6009 .3785 .6124 .358 .6568 .2234 .6477 .2508 .6009"/>
          <g>
            <path class="cls-13" d="M.3891.5501s-.0354-.0023-.0604.0308c-.0197.026-.0593.0171-.0593.0171,0,0-.0548-.0137-.0764-.0045s-.0069.0502.0468.0593c.0232.004.057-.008.0638-.0217s.0297-.0377.0388-.0433.0377-.0217.0707-.0205l-.0239-.0171H.3891Z"/>
            <path class="cls-22" d="M.1918.6014s.016.049.1118.0205c0,0,.0114-.0057.016-.0103,0,0-.0034.0388-.0673.0422,0,0-.0559.0125-.0604-.0524Z"/>
            <path class="cls-4" d="M.4017.5661s-.0451.0101-.0635.0241-.0221.0246-.0346.0317c-.0092.0053-.0471.0107-.0672.0081,0,0,.0386.0104.0764-.0081,0,0,.0186-.0221.0255-.0275.0196-.0154.0614-.0233.0614-.0233"/>
          </g>
          <g>
            <path class="cls-1" d="M.3234.7539s-.0994-.1959.1905-.2156c.221-.015.3525-.0217.3525-.0217l.1913.1721-.0442.105-.6262.0167s-.0638-.0566-.0638-.0566Z"/>
            <path class="cls-11" d="M.3336.7483s-.0971-.189.1927-.2087c.221-.015.3501-.0285.3501-.0285l.1913.1721-.0442.105-.6262.0167-.0638-.0566h0Z"/>
            <path class="cls-17" d="M.3616.6366s-.0142-.0151.0079-.0208c0,0,.0122-.0043.0229.005,0,0-.0086-.0214.0293-.03,0,0,.06-.015.0671-.0257s.0071-.0193.0171-.0222.0214-.005.0364-.0028c0,0,.005-.0185.0271-.0136,0,0,.0122-.0185.0286-.0086,0,0,.0057-.0093.0229.0035,0,0,.005-.0243.0364-.0157,0,0,.0114.0014.0143.0129,0,0,.0164-.0014.0193-.0064s.0107-.0131.0243-.0124c0,0,.0209.0108.034.0047.0317-.0151.1212.0049.1281.0156.0093.0143.04-.0178.0478.0035,0,0,.0035.01.0035.0136,0,0,.01-.0071.025.0028,0,0,.0057-.0057.0193-.0007,0,0,.0093.0028.0079.0171,0,0,.0236-.0079.0243.0157,0,0,.0114-.0185.0335.0028l.0122.1299-.0621.0657s-.4792.0143-.4964.0079-.025-.0243-.035-.0193-.03.0107-.0357.0014-.0314-.0136-.0185-.0364c0,0-.0379.0122-.025-.0164,0,0-.0214-.0136-.0064-.0257,0,0-.0178-.0079-.015-.0214,0,0-.0065-.0149.0049-.0241h0Z"/>
            <path class="cls-18" d="M.4217.7607s-.0013-.0092.0023-.0145.0142-.0112.0165-.0159.0054-.0153.0254-.0159c0,0,.0084-.0337.0375-.0145,0,0-.0098-.0121-.0016-.0245s.0159-.0307.0295-.0183c0,0-.0035-.0307.0283-.0218l.0301.013s.0076.003.0106,0l.0101.0088.0183-.003.0147.0159.0136-.0289.02-.0012.0165.0165.0071.0053s.0018-.0289.0384-.023c-.0012.0012.0183-.0018.0183-.0018,0,0,.0112-.0124.013-.013s.0158-.0263.0332-.0368c.0562-.0337.0699.0412.1098-.005.0016-.0018.0552.066.0587.0742s.0059.0142.0059.0142l-.0118.0177s.0159.0065.0171.0195c0,0,.0195-.0053.0277.0165s-.0885.0584-.0885.0584l-.3682.0006s-.0573.0083-.0696-.0076-.0183-.0183-.0336-.0118-.0269.0061-.0294-.0032l.0002.0002Z"/>
            <path class="cls-14" d="M.4017.6362s-.0098.0028-.0147-.007-.0132-.007-.0174-.0028.0056.0174.0056.0174c0,0-.0161,0-.0139.0118,0,0,.0035.0132.0091.0161,0,0,.0042-.0125.0188-.0132,0,0,.007.0091.0118.007,0,0-.0168.006-.0211.013s-.007.0135-.0006.0205c.0044.0047.0147.0021.0147.0021,0,0-.0139.0063-.0098.0147s.0188.0014.0188.0014c0,0-.0076-.0091.0064-.0106.0091-.001.0165.0005.024.0045,0,0-.0135-.0135-.0065-.0175s.016.0075.016.0075c0,0-.009-.0065-.012-.0035s.008.016.012.0125-.0005-.0105.0085-.0155.01-.004.0115-.0005-.0005.0145-.011.018-.0145.0125-.0145.022c0,0,.0075-.013.017-.0175s.0115-.002.0115-.002c0,0,.0035-.012.012-.017s.0165-.003.0255.0025c0,0-.0003-.012-.0137-.0221-.0108-.0081-.0159-.0043-.0273.0029-.0115-.0086-.0194.0122-.0194.0122,0,0-.006-.0135-.016-.0115,0,0-.013-.0055-.02-.003s-.003.0085-.003.0085c0,0,.0095.0035.015,0,0,0-.005.0065.0015.0135,0,0-.01-.008-.02-.008s-.0173-.0008-.017-.008c.0005-.0095.0185-.012.0205-.0125s.012-.0005.012-.0005l.013.001s.0035-.014.011-.0185-.012.01-.0205.007-.007-.0125-.007-.0125c0,0-.011.0155-.017.0055s.0062-.0178.0062-.0178v-.0004Z"/>
            <path class="cls-14" d="M.5189.6699s.0105-.005.0185.006c0,0-.0015-.027.0135-.0305,0,0,.0145-.001.0095.027,0,0-.0011.0025-.004.0059.0036-.0275-.0048-.0252-.0063-.0239s-.0115.0109-.0025.0316c-.0027.0018-.0059.0034-.0096.0047-.0063-.0176-.0134-.0163-.0168-.0145-.0046.0025-.0081.0113-.0018.018-.0021,0-.0042.0001-.0065,0,0,0-.009-.0145.006-.0245h0Z"/>
            <path class="cls-7" d="M.5134.7019s.0195.003.0385-.0075.016-.012.016-.012c0,0,.017-.0065.0325.014,0,0,.002-.0145.012-.0105s.013.0175.011.023-.01.004-.014-.0085c0,0,0,.0375-.026.02,0,0,.014-.0035.004-.021,0,0-.005-.0095-.0165-.006,0,0-.0065.003-.0005.0165,0,0-.01-.015-.0275-.0075,0,0-.01.0025-.012.022,0,0-.001-.0185-.0175-.0225h0Z"/>
            <path class="cls-14" d="M.5254.6938s-.0077-.0102-.0021-.0127.0081.0113.0081.0113l-.006.0014h0Z"/>
            <path class="cls-14" d="M.5509.6829s-.0058-.0137.0004-.0212c0,0,.0045-.0021-.0004.0212Z"/>
            <path class="cls-17" d="M.468.6845s.0043.0033.001.0115c0,0,.0096-.011.0216-.0081,0,0-.0076-.0139-.0225-.0033h0Z"/>
            <path class="cls-14" d="M.4863.6365s.003.0096.0163.0053c.0134-.0043.0221-.0134.0245-.023s-.0096-.0159-.0235-.012-.0182.0081-.0154.0139.0154.0053.0225-.0024c0,0,.0078.0038-.0048.012-.0139.0091-.0197.0062-.0197.0062h0Z"/>
            <path class="cls-14" d="M.481.6279s-.0101-.0144.0096-.0268c0,0-.0101-.0096-.0163-.0038s0,.0159-.0033.0206-.0091.0081-.0216.0043-.0206-.0096-.034.001c0,0-.0048.0043-.0024.011,0,0-.0159.0091-.0115.0139s.0134-.0096.0134-.0096l.0033.0053s-.0038.0086.0019.0105.0144-.0024.0187-.0057.0091-.011.0197-.011.0192-.0086.0225-.0096Z"/>
            <path class="cls-17" d="M.4445.6308s-.0163-.0101-.0225-.0033.001.0125.0029.0139.0091.0043.0197-.0105h0Z"/>
            <path class="cls-14" d="M.493.5967c.0005-.0159.0163-.0311.0316-.0178s.0245.0101.0355.0033.0221-.0062.034-.0019.0268.0029.0283-.0086-.0192-.0105-.0192-.0105c.0062-.0038.0076-.013.0038-.0178s-.012-.0029-.024.0038-.023.0096-.0389.0029-.0345-.0014-.0422.0053-.0091.0142-.011.0187c-.0048.0115-.0235.0144-.0321.0187s-.0302.0057-.0446.0091-.0139.0105-.0154.0187.0038.0081.0038.0081c0,0,.0005-.0115.0096-.0159s.0187-.0048.0292-.0005.023-.0033.023-.0033c0,0-.0018-.0113.0072-.0168.0139-.0086.0211.0043.0211.0043h0Z"/>
            <path class="cls-7" d="M.4738.7171s.0029-.0139.0144-.0139.0254.0048.0345.0235.0076.0154.0105.012.0019-.0197.0081-.0235.0159-.0081.0268.0086c0,0,.0316.0254.047-.0019.0019.0005.011.0096.0149.0029s.0067-.0178.0019-.0311c0,0,.0149-.0033.0187.012s-.0062.0302-.0163.034-.0197-.0062-.0197-.0062c0,0-.0062.0192-.0192.0173s-.0216-.0139-.0278-.0206-.0197-.0134-.0245.0048c0,0,.0019.023-.0149.0192s-.0173-.0221-.0278-.0288-.0159-.0005-.0187.0086c0,0-.0029-.0101.0014-.0149s.0192-.0072.0288.0067c0,0-.0115-.0268-.0384-.0086h0Z"/>
            <path class="cls-7" d="M.5534.7842c.0014-.001.0067-.0202.0259-.013s.0139.0149.0139.0149l.0062-.0019s-.0033-.0115.0019-.0182.0144-.0159.0254-.012.0297.0149.0355.0245l-.0192.001s-.0067-.0144-.0202-.0178-.0144.0225-.0144.0225l.0672-.0038s-.0057-.0125-.001-.0182.0235.0029.0292.012l.0182.0014s-.0149-.0125-.0178-.0197c0,0,.0187.0081.034-.0029s.0105-.0273.0105-.0273c0,0,.0105.0225.034.0115s.0268-.0288.0268-.0288c0,0-.001.0163.0096.0249,0,0-.0159.0115-.0192.036l-.011-.001s.0033-.0178-.0154-.0163-.0259.0202-.0259.0202l-.0139.0005s.0086-.0125.0187-.0187c0,0-.0192.0168-.0355.011l.0125.0115.0297-.0019s.001-.013.0081-.0149.0178-.0029.0154.011l.0278.0005s-.0014-.023.0221-.0384c0,0-.0182-.023-.0048-.0389l.0067-.0029s.011.0178.0139.0335.0022.0371.0022.0371l-.0113.0094.0057-.0292s-.0096-.0024-.0144.0024-.013.023-.0125.0297-.259.0168-.259.0168l-.0062-.0067h.0002Z"/>
            <path class="cls-7" d="M.6637.7646s.001-.011.0101-.0134.0221.0057.0221.0057c0,0-.0144-.0067-.013-.0264s.0072-.0221.0072-.0221c0,0-.012.0159-.0307.011,0,0,.0029.0178-.0192.0292,0,0,.0091-.0014.0235.0159h0Z"/>
            <path class="cls-7" d="M.6551.6883s.0053.0043.0067.0173c0,0,.0178.0019.0192-.0101,0,0,.013.0149.0311.0043s.0173-.0432.0527-.0278c0,0,.0076.034.0384.0264,0,0-.0235-.0019-.0264-.0302s.0201-.044.022-.044.0062-.0147.0062-.0147c0,0-.0355.0194-.0364.0443,0,0-.0024.0076-.013.0053s-.0268-.0101-.0374-.0048-.0072.0139-.013.0216-.0259-.001-.0288-.0038.0081.024.035.0125c0,0-.0067.0245-.0432-.0043,0,0-.0029.0101-.0134.0081h0Z"/>
            <path class="cls-14" d="M.5966.6759c.0014-.001.0086-.0163.0029-.0297,0,0,.0125.011.0225.0005s-.001-.0125.0048-.0149.013.0033.0159.0163l.0029.013s.0029-.0288.0178-.0316.0297.0178.0297.0178c0,0-.0033-.0221.0211-.0182s.0331.0115.057-.0053c0,0-.0086.013-.0096.0202s-.0043.0057-.0096.0019-.0345-.0154-.046-.0086-.0062.0211-.0062.0211c0,0,.0029-.0182.0182-.0173,0,0-.0144.0062-.0187.0249,0,0-.0076.0081-.0144,0s-.0057-.024-.0182-.0225-.0076.0249-.013.034-.0168.0033-.0211.0048c0,0-.0029-.0225-.012-.024s-.0182.0139-.0192.0192l-.0048-.0014h0Z"/>
            <path class="cls-7" d="M.8237.681c-.0005-.0015-.0149-.0037-.0214-.0103-.0149-.0151.0159-.0326.0136-.0362-.003-.0047-.0012-.0062-.002-.0122,0,0-.0378.0252-.0258.0521.0101.0226.0356.0067.0356.0067h0Z"/>
            <path class="cls-14" d="M.7307.6224s.0346.01.0451-.0252c0,0-.0126.0084-.0157.0084,0,0,.0079-.0042.0089-.0168s.0011-.0383-.0147-.0372-.0268.0147-.0268.0147c0,0-.0042.0089-.0094.0094,0,0,.0026-.01.0011-.0178s-.0163-.0183-.0304-.0063c0,0-.0189-.0068-.0209.0142,0,0-.012-.0084-.0215-.0021,0,0-.011-.0272-.0289-.011,0,0,.0194.0005.0157.0163,0,0-.0026.0168-.0168.022l.0026.0042s.012-.0063.0157-.0005c0,0,.0183-.0205.0404-.01,0,0,.0058-.0294.0252-.0257,0,0,.0189.0005.01.0325,0,0,.0115.0016.0163-.0026s.0026-.0089.0074-.0152.016-.0138.0231-.0037c.0037.0052.0094.0341-.0263.0524h0Z"/>
            <path class="cls-14" d="M.5513.5401s.0063-.011.0183-.0047c0,0,.0142-.0205.0283-.0074,0,0,.012-.0115.0241.0058,0,0,.0068-.0299.0299-.02,0,0,.022.0183.0016.0357,0,0-.02-.0178-.0383-.01,0,0-.0079-.0137-.0215-.0068s-.0294.0194-.0425.0074h0Z"/>
            <path class="cls-14" d="M.6446.6308s-.0152-.0194-.0268-.011c0,0-.0047.0068-.0005.0147,0,0-.0131.011-.0257-.0021s-.0105-.02-.0063-.0226.0142-.0011.022.01c0,0,.0011-.0241.0294-.0079,0,0,.0026-.0173.0183-.0189s.0189.0094.0352.0115.0467-.0063.054-.02c0,0,.0063.0137-.0173.0263s-.0362.0079-.0362.0079c0,0-.0084.0011-.0031.01,0,0-.0272-.0263-.043.0021Z"/>
            <circle class="cls-23" cx=".5464" cy=".5737" r=".0137"/>
            <circle class="cls-23" cx=".7073" cy=".6281" r=".0154"/>
            <circle class="cls-23" cx=".5387" cy=".7471" r=".0175"/>
            <circle class="cls-23" cx=".4758" cy=".6096" r=".0134"/>
            <path class="cls-14" d="M.4794.6414s-.024.008-.033.0195-.007.016-.0015.019c0,0,.0059-.0156.0174-.0074,0,0,.0106-.0101.0226-.0061,0,.001.01.002.018.0165,0,0,.001-.0125.0105-.0215s.02.0005.02.0005c0,0-.0035-.0255.016-.0265s.0196.0132.0215.02l-.0015.0155s.0135-.0015.02.0035c0,0,.005-.012.001-.0265,0,0-.0145-.005-.0155-.019,0,0-.014-.013-.032-.007,0,0-.0075.0025-.011.0075,0,0-.0225.027-.041.0225,0,0-.0095-.003-.0115-.0105h-.0001Z"/>
            <path class="cls-14" d="M.5739.6161s-.0031-.0246.0283-.0147c0,0-.0079-.0173-.0299-.0131s-.0294.0183-.0446.0052-.0268.0063-.0268.0063c0,0,.0263-.0105.0378.0142,0,0,.0157-.011.0352.0021h0Z"/>
            <path class="cls-17" d="M.5817.5647s-.0189.0026-.0257.0089-.0183.0016-.0241-.0037-.0147-.0079-.0226-.0042c0,0,.0074-.0131.0246-.0047s.0378-.0011.0378-.0011c0,0,.0126-.0074.0142-.0031s.0021.0068-.0042.0079Z"/>
            <path class="cls-14" d="M.6661.5479s.0094-.0115.0209-.0079c0,0,.0194-.0205.0398.0079,0,0,.0241-.0263.0404-.0063,0,0,.0011-.0152-.0031-.0278,0,0-.0094.01-.0236.0084s-.012-.0042-.0152-.0079-.02-.0084-.0272.0058c0,0-.0084.0131-.0263.0094,0,0,.0037.0068-.0058.0183Z"/>
            <path class="cls-14" d="M.6095.6773s.0062-.0019.013.0067c0,0,.0029-.011-.0024-.0163s-.0105.0096-.0105.0096h0Z"/>
            <path class="cls-7" d="M.7323.7195s-.0067-.0101-.0139-.0115c0,0-.0268-.0057-.0273.0197-.0004.0221.0159.0245.0259.0216s.0144-.0076.0159-.012l-.0072-.0053c.0009.0006-.0104.0156-.0197.0091-.0073-.0051-.0081-.0144-.0033-.0206s.0178-.0081.0254.0033l.012.0115s-.0024-.0283.012-.0335c-.0019.001.001.0245.0163.0249,0,0,.0202.001.035-.0187,0,0-.0105.0043-.0225-.0005-.0127-.0051-.0197-.023-.0197-.023,0,0,.0014.0292.0197.0307,0,0-.0115.0072-.0182-.0014s-.0101-.0302-.0101-.0302c0,0-.0216-.0048-.0202.036h0Z"/>
            <path class="cls-14" d="M.859.6054s-.0157-.0263-.0352-.0226-.0215.011-.0215.011c0,0-.0136-.0157-.0142-.0215s.0054-.029.0107-.0269.0103.0054.0087.0122-.0021.0173.0011.0194.0081-.0073.011-.0142c.0021-.005.0085.0023.0063.0068-.0016.0033.0016.0074.0016.0074,0,0,.0073.0041.0104-.0022s.0058-.0042.0058-.0042c0,0-.0016.0058.0011.0126.001.0025.01.0163.0142.022h0Z"/>
            <path class="cls-7" d="M.4309.7219s.002.0055.0015.0135-.003.0115.004.0125.008-.01.011-.0135.0045-.0115.011-.013.0105.0045.011.0095,0,.0085.004.0115.0115.008.016.0165.02.005.02.005c-.006.001-.0095-.005-.0135-.0105s-.0135-.0105-.0135-.0105c.012-.003.0205.0035.0265.011s.017.011.024.0115.0165-.0045.0175-.012.0045-.013.0045-.013c.0035-.0015.0065-.001.018.011.0094.0098.0285.0075.0285.0075-.005.0025-.013.0085-.013.0085,0,0-.0045-.0065-.0185-.0075s-.023.012-.023.012c-.007-.003-.0275.0005-.0355.002s-.021-.004-.035-.015-.017-.0105-.023-.009-.0135.0095-.018.01-.0065-.005-.0065-.005c0,0-.0047-.012-.0159-.013,0,0-.0076-.006-.0016-.014s.0195-.006.0195-.006h0Z"/>
            <path class="cls-7" d="M.778.6328s.051-.0552.0684-.0316c.0173.0236.0173.0477-.0005.065,0,0-.011.0074-.0168.0084,0,0,.0163.0037.0131.0246,0,0,.0183-.0079.0209.0209,0,0,.0058-.0011.0058-.0052s.0016-.0257-.022-.0272c0,0,.0011-.0058-.0042-.0105,0,0,.012-.0021.0142-.0094,0,0,.0016.0163.0152.0126.0137-.0037.0163-.0026.011-.012s-.0074-.0205-.0011-.0215.0084.0063.01.0152c.0016-.0016.0089-.0063.0084-.0173s.0079-.0189.01-.0189-.0026.0472-.0089.0561-.0074.0042-.0074.0042c0,0-.0094-.0068-.0205,0,0,0,.0058.012.0037.0283,0,0-.0309.0205-.0451.0189,0,0,.0011-.0126.0105-.0163s.0047.0142.0047.0142l.0084-.0058s-.0021-.0335-.0272-.0063c0,0,.012-.0194-.0037-.0367l-.0031-.0168s.0142-.0063.011-.0236-.0183-.0042-.0183-.0042l-.0037-.0142s.0105-.011.0209-.0047.0142.0137.012.0257c0,0,.0161-.0171-.01-.0388-.0126-.0105-.0464.0303-.0485.0318"/>
            <path class="cls-14" d="M.9115.6169s-.0178.0011-.0173.0236c0,0-.0089-.0074-.0183.0016,0,0-.0105.0074-.0026.0252,0,0-.0074.011-.012-.0058,0,0,.011-.011.01-.0331,0,0,.0278-.0021.0394-.0189l-.0021-.0052s-.0178.02-.0404.0105c0,0-.0011-.0074.0063-.0068s.0209.0047.0357-.0105l-.0021-.0047s-.0074.0147-.0341.0094-.0226-.0414-.0226-.0414c0,0-.0037-.0063-.0068-.0026s-.01.01-.01.01c0,0,.0063-.0157-.0047-.02s-.0163.0142-.0163.0142c0,0,.0084-.0183-.0084-.0257s-.02.0173-.02.0173c0,0,.0011-.02-.0084-.0246,0,0-.0016-.0021-.0068-.0016l-.0058-.0152s.02-.0042.0231.0147c0,0,.0226-.0173.0341.0105,0,0,.0163-.0163.0209.0084,0,0,.0068-.0063.0157.0011.0089.0074.0023.0161.0042.0241.0021.0089.0089.0272.0309.0236,0,0,.0126-.0037.0189-.0142,0,0-.0257.0157-.0357.0037s-.0011-.0252.0042-.0278.0231.0011.0231.0011l.0011.0068s-.0189-.0042-.0215.0037.0011.0163.0058.0147-.0047-.0079.0026-.0115.0137,0,.0137,0c0,0,.0058.0137.0063.0457h.0002Z"/>
          </g>
        </g>
      </g>
    </g>
  </g>
  <g>
    <g class="cls-32">
      <g>
        <path class="cls-28" d="M.3559.3834c.0042-.0007.0108-.0012.0183-.0012.009,0,.0149.0014.019.0045.0033.0025.0054.0064.0054.0117,0,.0074-.0057.0122-.0102.0136v.0003c.0039.0016.0062.0053.0076.0101.0019.0063.0037.0137.0048.0159h-.0134c-.0009-.0016-.0023-.0057-.0042-.0128-.0018-.0069-.0042-.0088-.01-.0088h-.0045v.0217h-.013v-.0547h0ZM.3689.4071h.0059c.0067,0,.0108-.003.0108-.0078,0-.0052-.004-.0075-.0101-.0075-.0037,0-.0057.0002-.0067.0004v.0149Z"/>
        <path class="cls-28" d="M.4332.4381l-.0008-.004h-.0003c-.0028.0033-.0072.005-.0124.005-.0089,0-.0138-.0062-.0138-.0124,0-.0105.0094-.0156.0254-.0156v-.0004c0-.0018-.0009-.0051-.0079-.0051-.0044,0-.0093.0016-.0121.0033l-.0024-.0083c.003-.0017.0088-.0038.0167-.0038.0138,0,.0188.0077.0188.0176v.0137c0,.004.0002.0079.0006.0099h-.0118,0ZM.4317.4192c-.0076,0-.0127.0016-.0127.0062,0,.003.0021.0046.0053.0046.0035,0,.0063-.0024.0071-.005.0002-.0007.0002-.0015.0002-.0023v-.0035h0Z"/>
        <path class="cls-28" d="M.4552.4109c0-.0052-.0001-.0096-.0004-.0131h.011l.0005.0057h.0003c.0016-.0024.0052-.0067.013-.0067.0054,0,.0099.0029.0117.0074h.0001c.0017-.0023.0035-.004.0056-.0052.0023-.0014.005-.0022.0083-.0022.0079,0,.0146.0054.0146.0182v.0231h-.0127v-.0212c0-.0062-.0023-.0096-.0067-.0096-.0033,0-.0054.0022-.0063.0046-.0004.001-.0005.0023-.0005.0033v.0229h-.0127v-.0217c0-.0058-.0023-.0091-.0065-.0091-.0038,0-.0057.0029-.0065.0048-.0004.0011-.0005.0022-.0005.0032v.0228h-.0127v-.0272h.0002Z"/>
        <path class="cls-28" d="M.5407.422c.0004.0048.0061.0074.0123.0074.0046,0,.0084-.0006.0122-.0018l.0018.0087c-.0047.0019-.0099.0028-.0158.0028-.0145,0-.023-.0082-.023-.0207,0-.0091.0062-.0215.0217-.0215.0145,0,.0194.0113.0194.0205,0,.002-.0003.0039-.0005.0047h-.0282ZM.5571.4131c0-.0023-.0013-.0078-.0079-.0078-.0059,0-.0083.0047-.0087.0078h.0166Z"/>
        <path class="cls-28" d="M.5772.4109c0-.0052-.0001-.0096-.0004-.0131h.0114l.0006.0059h.0003c.0015-.0024.0058-.0069.0134-.0069.0084,0,.0156.0053.0156.0181v.0231h-.0131v-.0214c0-.0058-.0022-.0094-.0071-.0094-.004,0-.0062.0028-.0071.0051-.0004.0008-.0004.0019-.0004.0029v.0228h-.0131v-.0272Z"/>
      </g>
    </g>
    <g>
      <path class="cls-24" d="M.3573.3805c.0042-.0007.0108-.0012.0183-.0012.009,0,.0149.0014.019.0045.0033.0025.0054.0064.0054.0117,0,.0074-.0057.0122-.0102.0136v.0003c.0039.0016.0062.0053.0076.0101.0019.0063.0037.0137.0048.0159h-.0134c-.0009-.0016-.0023-.0057-.0042-.0128-.0018-.0069-.0042-.0088-.01-.0088h-.0045v.0217h-.013v-.0547h0ZM.3703.4042h.0059c.0067,0,.0108-.003.0108-.0078,0-.0052-.004-.0075-.0101-.0075-.0037,0-.0057.0002-.0067.0004v.0149Z"/>
      <path class="cls-24" d="M.4347.4352l-.0008-.004h-.0003c-.0028.0033-.0072.005-.0124.005-.0089,0-.0138-.0062-.0138-.0124,0-.0105.0094-.0156.0254-.0156v-.0004c0-.0018-.0009-.0051-.0079-.0051-.0044,0-.0093.0016-.0121.0033l-.0024-.0083c.003-.0017.0088-.0038.0167-.0038.0138,0,.0188.0077.0188.0176v.0137c0,.004.0002.0079.0006.0099h-.0118,0ZM.4331.4163c-.0076,0-.0127.0016-.0127.0062,0,.003.0021.0046.0053.0046.0035,0,.0063-.0024.0071-.005.0002-.0007.0002-.0015.0002-.0023v-.0035h0Z"/>
      <path class="cls-24" d="M.4566.4081c0-.0052-.0001-.0096-.0004-.0131h.011l.0005.0057h.0003c.0016-.0024.0052-.0067.013-.0067.0054,0,.0099.0029.0117.0074h.0001c.0017-.0023.0035-.004.0056-.0052.0023-.0014.005-.0022.0083-.0022.0079,0,.0146.0054.0146.0182v.0231h-.0127v-.0212c0-.0062-.0023-.0096-.0067-.0096-.0033,0-.0054.0022-.0063.0046-.0004.001-.0005.0023-.0005.0033v.0229h-.0127v-.0217c0-.0058-.0023-.0091-.0065-.0091-.0038,0-.0057.0029-.0065.0048-.0004.0011-.0005.0022-.0005.0032v.0228h-.0127v-.0272h.0002Z"/>
      <path class="cls-24" d="M.5421.4192c.0004.0048.0061.0074.0123.0074.0046,0,.0084-.0006.0122-.0018l.0018.0087c-.0047.0019-.0099.0028-.0158.0028-.0145,0-.023-.0082-.023-.0207,0-.0091.0062-.0215.0217-.0215.0145,0,.0194.0113.0194.0205,0,.002-.0003.0039-.0005.0047h-.0282ZM.5586.4102c0-.0023-.0013-.0078-.0079-.0078-.0059,0-.0083.0047-.0087.0078h.0166Z"/>
      <path class="cls-24" d="M.5787.4081c0-.0052-.0001-.0096-.0004-.0131h.0114l.0006.0059h.0003c.0015-.0024.0058-.0069.0134-.0069.0084,0,.0156.0053.0156.0181v.0231h-.0131v-.0214c0-.0058-.0022-.0094-.0071-.0094-.004,0-.0062.0028-.0071.0051-.0004.0008-.0004.0019-.0004.0029v.0228h-.0131v-.0272Z"/>
    </g>
    <g>
      <path class="cls-2" d="M.3573.3805c.0042-.0007.0108-.0012.0183-.0012.009,0,.0149.0014.019.0045.0033.0025.0054.0064.0054.0117,0,.0074-.0057.0122-.0102.0136v.0003c.0039.0016.0062.0053.0076.0101.0019.0063.0037.0137.0048.0159h-.0134c-.0009-.0016-.0023-.0057-.0042-.0128-.0018-.0069-.0042-.0088-.01-.0088h-.0045v.0217h-.013v-.0547h0ZM.3703.4042h.0059c.0067,0,.0108-.003.0108-.0078,0-.0052-.004-.0075-.0101-.0075-.0037,0-.0057.0002-.0067.0004v.0149Z"/>
      <path class="cls-2" d="M.4347.4352l-.0008-.004h-.0003c-.0028.0033-.0072.005-.0124.005-.0089,0-.0138-.0062-.0138-.0124,0-.0105.0094-.0156.0254-.0156v-.0004c0-.0018-.0009-.0051-.0079-.0051-.0044,0-.0093.0016-.0121.0033l-.0024-.0083c.003-.0017.0088-.0038.0167-.0038.0138,0,.0188.0077.0188.0176v.0137c0,.004.0002.0079.0006.0099h-.0118,0ZM.4331.4163c-.0076,0-.0127.0016-.0127.0062,0,.003.0021.0046.0053.0046.0035,0,.0063-.0024.0071-.005.0002-.0007.0002-.0015.0002-.0023v-.0035h0Z"/>
      <path class="cls-2" d="M.4566.4081c0-.0052-.0001-.0096-.0004-.0131h.011l.0005.0057h.0003c.0016-.0024.0052-.0067.013-.0067.0054,0,.0099.0029.0117.0074h.0001c.0017-.0023.0035-.004.0056-.0052.0023-.0014.005-.0022.0083-.0022.0079,0,.0146.0054.0146.0182v.0231h-.0127v-.0212c0-.0062-.0023-.0096-.0067-.0096-.0033,0-.0054.0022-.0063.0046-.0004.001-.0005.0023-.0005.0033v.0229h-.0127v-.0217c0-.0058-.0023-.0091-.0065-.0091-.0038,0-.0057.0029-.0065.0048-.0004.0011-.0005.0022-.0005.0032v.0228h-.0127v-.0272h.0002Z"/>
      <path class="cls-2" d="M.5421.4192c.0004.0048.0061.0074.0123.0074.0046,0,.0084-.0006.0122-.0018l.0018.0087c-.0047.0019-.0099.0028-.0158.0028-.0145,0-.023-.0082-.023-.0207,0-.0091.0062-.0215.0217-.0215.0145,0,.0194.0113.0194.0205,0,.002-.0003.0039-.0005.0047h-.0282ZM.5586.4102c0-.0023-.0013-.0078-.0079-.0078-.0059,0-.0083.0047-.0087.0078h.0166Z"/>
      <path class="cls-2" d="M.5787.4081c0-.0052-.0001-.0096-.0004-.0131h.0114l.0006.0059h.0003c.0015-.0024.0058-.0069.0134-.0069.0084,0,.0156.0053.0156.0181v.0231h-.0131v-.0214c0-.0058-.0022-.0094-.0071-.0094-.004,0-.0062.0028-.0071.0051-.0004.0008-.0004.0019-.0004.0029v.0228h-.0131v-.0272Z"/>
    </g>
  </g>
  <g>
    <path class="cls-20" d="M.5611.3229c-.0024,0-.0046.0009-.0062.0025v-.0185c0-.0053-.0061-.0117-.0112-.0117h-.021c-.0015,0-.0029.0008-.0036.0021,0,.0001-.0002.0004-.0004.0006-.0004.0006-.0008.0013-.0013.0022-.0029-.0034-.0072-.0053-.0115-.0053h-.0108c-.0046,0-.0076.0027-.0088.006-.0004-.0006-.0008-.0012-.0014-.0018-.0024-.0027-.0057-.0042-.009-.0042h-.0055s-.0001-.0008-.0002-.0012c-.0003-.0019-.0006-.0041-.0016-.0061-.0016-.0028-.0042-.0044-.0076-.0044-.0015,0-.0039.0005-.006.002-.0028.0018-.0042.0046-.0042.0078v.0046c-.0028-.0022-.0062-.0032-.0088-.0032h-.0042c-.0039,0-.011.0033-.0156.009H.422c0-.0059-.0042-.0099-.0103-.0099-.003,0-.0053.0008-.0069.0025-.001.001-.0016.0021-.0019.0032-.0011-.0034-.0045-.0057-.0088-.0057-.0026,0-.0049.0007-.0066.002-.0022-.0018-.0051-.0029-.0079-.0029-.0045,0-.0087.0019-.0119.0054-.0011.0012-.002.0025-.0027.0038-.0008-.0013-.0018-.0024-.0029-.0034-.0028-.0023-.0063-.0037-.0098-.0037h-.0108c-.0036,0-.0062.0016-.0078.004v-.0011c0-.0069-.0062-.0127-.0112-.0127h-.0042c-.0052,0-.0081.0038-.0096.007-.0008.0018-.0016.0038-.0021.0058-.0006-.002-.0013-.004-.0023-.0058-.0033-.0062-.0081-.0074-.0115-.0074-.004,0-.0075.0016-.01.0044-.002.0022-.0032.0051-.0035.008-.0059-.0033-.0126-.0051-.0195-.0051-.0217,0-.0394.0176-.0394.0391s.0177.0391.0394.0391c.01,0,.0195-.0038.0268-.0107.0067-.0064.011-.0149.012-.0242.0019.0034.0045.0051.0076.0051.0048,0,.0075-.0037.0088-.0069.0004.0018.0013.0033.0028.0052.0008.001.002.0016.0033.0016h.0108c.0013,0,.0025-.0006.0033-.0016.0003-.0004.0005-.0007.0006-.0011.0021.0019.0045.0035.0075.0042h.0099c.0045-.0011.0081-.0036.0105-.0071.0013.0035.0049.0059.0093.0059.0064,0,.0098-.0045.0098-.0088v-.0204s.0006-.0001.001-.0003v.0146c0,.0081.0105.0159.0168.0159h.0042c.0033,0,.0074-.0018.0108-.0046.0022-.0018.0039-.004.005-.0064.0013.0021.0031.004.0052.0058.0049.0043.0107.0069.0151.0069h.0042c.0074,0,.0206-.0064.0243-.019v.0039c0,.0036-.0001.0081.0028.0112.0016.0017.0038.0025.0066.0025.0044,0,.0076-.003.009-.0062.0036.0042.0086.0067.0139.0067.0066,0,.0121-.0028.0155-.0073.0012.0031.0044.0068.0093.0068.005,0,.0086-.0032.0096-.0067.0012.0033.0041.0071.0091.0071.0026,0,.005-.0009.0069-.0026.0009-.0008.0016-.0018.0021-.0029.0016.002.0042.0033.007.0033.0049,0,.0088-.0039.0088-.0086s-.004-.0086-.0088-.0086h0ZM.3338.3138v-.0044c.0006.001.0015.0018.0024.0025-.0008.0005-.0017.0011-.0024.0018ZM.4434.3247c-.0023,0-.0065-.0028-.0065-.0065v-.0008s.0007.001.0011.0015c.0011.0012.0033.0026.0067.0026.0021,0,.0041-.0006.0058-.0016-.0008.0021-.0035.0049-.0072.0049h0ZM.4886.3128v-.0018l.0004.0004s.0005.0004.0007.0006c-.0004.0003-.0008.0005-.0012.0008h0Z"/>
    <path class="cls-12" d="M.5611.3271c-.0026,0-.0047.002-.0047.0045s.0021.0045.0047.0045c.0026,0,.0047-.002.0047-.0045s-.0021-.0045-.0047-.0045ZM.5611.3351c-.0021,0-.0038-.0016-.0038-.0035s.0017-.0035.0038-.0035.0038.0016.0038.0035-.0017.0035-.0038.0035Z"/>
    <path class="cls-12" d="M.5059.299h-.0108c-.0049,0-.0052.0045-.0052.0052,0,.0037.0029.0056.0056.0056.0031,0,.0039-.0023.0065-.0023.0018,0,.0033.0012.0033.0023,0,.0053-.0182.0003-.0182.0154,0,.003.0047.0131.0144.0131.0096,0,.0149-.0068.0149-.0144v-.014c0-.0071-.0059-.0108-.0107-.0108h0ZM.505.3251s-.0012.0018-.0033.0018c-.0017,0-.0028-.0018-.0028-.0028,0-.0002.0017-.0028.0047-.0028.0007,0,.0008,0,.0014,0v.0038Z"/>
    <path class="cls-12" d="M.2593.3074c-.0135,0-.0245.0106-.0245.0237s.011.0237.0245.0237.0245-.0106.0245-.0237-.011-.0237-.0245-.0237ZM.2594.349c-.0098,0-.0178-.008-.0178-.0178,0-.0052.0022-.0098.0057-.0131.0027.0028.0076.0055.011.004,0,0-.0019-.0016-.0016-.0033.0001-.0008.0064.0044.0122.0008,0,0-.0053-.0018-.0055-.0058.0079.0018.0138.0089.0138.0174,0,.0098-.008.0178-.0178.0178H.2594Z"/>
    <path class="cls-12" d="M.5437.2995h-.021c-.0007.0012-.0018.0023-.0018.0042v.0289c0,.0013.002.0051.0056.0051s.0056-.0026.0056-.0042v-.0247h.0074v.0234c0,.001.0016.0061.0056.0061.0033,0,.0056-.0025.0056-.0047v-.0266c0-.0032-.0042-.0074-.007-.0074h0Z"/>
    <path class="cls-12" d="M.3297.2976c0-.0045-.0043-.0085-.007-.0085h-.0042c-.0086,0-.0083.0187-.0119.0225-.0034-.0039-.0027-.0229-.0137-.0229-.0059,0-.0093.0049-.0093.0095v.0128c0,.0008-.0004.0016,0,.0025.0021.0026.0036.0056.0047.0088.0008.0028.0013.0057.0013.0087,0,.0159-.0132.0287-.0294.0287s-.0294-.0129-.0294-.0287.0132-.0287.0294-.0287c.0057,0,.0109.0016.0154.0042.0015.0008.0025.0014.0038.0023v-.0069c-.0056-.0036-.0122-.0057-.0194-.0057-.0195,0-.0352.0156-.0352.0349s.0158.0349.0352.0349c.0186,0,.0335-.0145.0348-.0326,0,0-.0005-.015.0008-.0246.0038.0117.0045.0275.0108.0275.0076,0,.0069-.018.012-.028.0005.006.0006.0214.0006.0214,0,.003.0004.0042.0023.0067h.0108c-.001-.0035-.0023-.0074-.0023-.0095v-.0291Z"/>
    <path class="cls-12" d="M.4118.2976c-.0057,0-.0052.0041-.0052.007v.0178c0,.0021-.0021.0042-.0038.0042-.0023,0-.0038-.0017-.0038-.0033v-.0214c0-.0024-.0018-.0042-.0051-.0042-.0024,0-.0061.0008-.0061.0056v.0224c0,.0057.0084.0117.0126.0117h.0042c.0042,0,.0131-.0053.0131-.0131v-.021c0-.003-.0018-.0056-.0061-.0056,0,0,0,0,0,0Z"/>
    <path class="cls-12" d="M.476.299h-.0084c-.0025-.0031,0-.0117-.0065-.0117-.0017,0-.0061.0015-.0061.0056v.0256c0,.0045-.005.0103-.0117.0103-.0045,0-.0108-.0046-.0108-.0108,0-.0036.002-.0064.0047-.0093h.0023c0,.0023-.0009.0084.0051.0084.0052,0,.0075-.0047.0075-.0079,0-.0086-.0076-.0108-.0103-.0108h-.0042c-.0038,0-.0163.0063-.0163.0177v.0042c0,.0091.0127.0187.0196.0187h.0042c.0059,0,.0196-.0061.021-.0196,0-.001,0-.007,0-.0108h.0074c-.0002.0018,0,.0072,0,.0182,0,.0049-.0008.0108.0052.0108.0038,0,.0056-.0039.0056-.0056v-.0243c0-.0043-.0038-.0088-.0084-.0088h0Z"/>
    <path class="cls-12" d="M.3797.2967c-.0073,0-.0121.0071-.0121.0117v.0234c0,.003.0028.0047.0056.0047.0036,0,.0056-.0021.0056-.0047v-.0234c.0025-.0018.0079-.0003.0079-.0065,0-.0026-.0036-.0051-.007-.0051H.3797Z"/>
    <path class="cls-12" d="M.3524.2988h-.0108c-.0049,0-.0052.0045-.0052.0052,0,.0037.003.0056.0056.0056.0031,0,.0039-.0023.0065-.0023.0018,0,.0033.0012.0033.0023,0,.0053-.0182.0003-.0182.0154,0,.003.0047.0131.0144.0131.0096,0,.0149-.0068.0149-.0144v-.014c0-.0071-.0059-.0108-.0108-.0108h.0001ZM.3514.325s-.0012.0018-.0033.0018c-.0017,0-.0028-.0018-.0028-.0028,0-.0002.0017-.0028.0047-.0028.0007,0,.0008,0,.0014,0v.0038H.3514Z"/>
    <polygon class="cls-12" points=".2552 .3255 .2527 .328 .2502 .3255 .2527 .3231 .2552 .3255 .2552 .3255"/>
    <polygon class="cls-12" points=".2694 .3255 .2669 .328 .2644 .3255 .2669 .3231 .2694 .3255 .2694 .3255"/>
    <path class="cls-12" d="M.2502.331s.0042.0022.0112.0015c0,0,.0041-.0005.0063-.0027l.0011-.0009s.0011-.0003.0014.0005-.0003.0013-.0003.0013c0,0-.0038.0026-.0068.0027,0,0-.0058.001-.012-.0014l-.0012-.0005.0002-.0006H.2502Z"/>
    <polygon class="cls-12" points=".26 .3291 .2607 .3291 .2619 .3299 .2606 .3312 .2577 .3306 .2588 .3289 .26 .3291"/>
    <path class="cls-12" d="M.5625.3325s-.0003-.0004-.0005-.0006c0,0-.0002-.0001-.0004-.0002.0004,0,.0007-.0002.0009-.0004.0002-.0002.0003-.0004.0003-.0007,0-.0002,0-.0004-.0002-.0006-.0001-.0002-.0003-.0003-.0005-.0004s-.0005-.0001-.0009-.0001h-.002v.0041h.0006v-.0018h.0011s.0002,0,.0003.0001c0,0,.0002.0001.0003.0003.0001.0001.0003.0003.0004.0006l.0006.0008h.0007l-.0008-.0011h.0001ZM.5612.3313h-.0013v-.0013h.0014s.0006,0,.0007.0002c.0001.0001.0002.0003.0002.0005,0,.0001,0,.0003-.0001.0004,0,.0001-.0002.0002-.0004.0002s-.0004,0-.0006,0h0Z"/>
  </g>
  <g>
    <polyline class="cls-25" points=".5964 .3136 .5964 .3562 .6266 .3864 .7411 .3864 .7712 .3562 .7712 .3136"/>
    <polygon class="cls-25" points=".654 .2683 .6114 .2683 .5813 .2984 .5813 .341 .6114 .3712 .654 .3712 .6842 .341 .6842 .2984 .654 .2683"/>
    <polygon class="cls-25" points=".7566 .2683 .714 .2683 .6838 .2984 .6838 .341 .714 .3712 .7566 .3712 .7867 .341 .7867 .2984 .7566 .2683"/>
    <polygon class="cls-26" points=".6506 .2764 .6148 .2764 .5894 .3018 .5894 .3377 .6148 .363 .6506 .363 .6761 .3377 .6761 .3018 .6506 .2764"/>
    <polygon class="cls-26" points=".7531 .2764 .7172 .2764 .6918 .3018 .6918 .3377 .7172 .363 .7531 .363 .7785 .3377 .7785 .3018 .7531 .2764"/>
  </g>
  <g>
    <path class="cls-20" d="M.2988.4887c.002.0017.0052.0037.0088.0046.0036.0008.0059,0,.0064-.0023.0004-.002-.0009-.0035-.005-.0059-.0056-.0031-.0092-.007-.0079-.0126.0013-.0059.0076-.009.0159-.0071.0044.001.0072.0025.0093.0041l-.0033.0058c-.0013-.001-.0038-.0028-.0076-.0036-.0035-.0008-.0055.0003-.0059.002-.0005.0022.0014.0036.0057.0062.006.0036.0084.0073.0072.0125-.0013.0054-.0067.0096-.0169.0072-.0042-.001-.0081-.0031-.01-.0048,0,0,.0033-.0061.0033-.0061Z"/>
    <path class="cls-20" d="M.3394.5088l.0004-.0025h-.0001c-.0023.0013-.0053.0014-.0084.0004-.0052-.0018-.0069-.0064-.0056-.0101.0021-.0062.0088-.0073.0182-.004v-.0002c.0004-.0011.0006-.0032-.0035-.0046-.0026-.0009-.0058-.001-.0078-.0006l.0003-.0054c.0021-.0004.0059-.0004.0106.0012.0081.0028.0095.0084.0075.0142l-.0028.0081c-.0008.0024-.0015.0047-.0016.006l-.0069-.0024h-.0001ZM.3423.4974c-.0045-.0016-.0079-.0016-.0088.001-.0006.0018.0003.0032.0022.0038.0021.0007.0042-.0001.0052-.0015.0003-.0004.0004-.0008.0006-.0013l.0007-.0021h0Z"/>
    <path class="cls-20" d="M.3507.5127c.0008-.0012.0025-.0038.004-.0064l.0148-.0253.0071.0041-.0074.0127h0c.0025-.0011.0058-.0009.0091.0011.0056.0033.0076.01.0034.0168-.0046.0079-.0125.0084-.0177.0053-.0028-.0016-.005-.0043-.0051-.0079h0l-.0021.003-.006-.0035h0ZM.3636.5072s-.0004.0008-.0006.0011c-.0006.0021.0001.005.0025.0064.0032.0018.0066.0009.0088-.0029.0019-.0033.0018-.007-.0018-.0091-.0022-.0013-.005-.0009-.0069.0011-.0003.0004-.0006.0007-.0008.0011l-.0013.0023h0Z"/>
    <path class="cls-20" d="M.4109.5313c-.004.0079-.0121.009-.019.0055-.0069-.0035-.0104-.0107-.0067-.018.0035-.007.011-.0095.0192-.0054.0074.0038.01.0111.0066.0178H.4109ZM.3927.5226c-.0019.0038-.0014.0076.0018.0093.003.0015.0063.0002.0085-.0041.0017-.0034.0018-.0074-.0017-.0092-.0037-.0018-.0069.0006-.0086.004Z"/>
    <path class="cls-20" d="M.4178.5301c.0015-.0038.0023-.006.003-.008l.0065.0026-.0016.0047h.0002c.0028-.0032.0065-.0034.0089-.0024.0007.0003.001.0004.0016.0008l-.0028.0071c-.0006-.0004-.0011-.0008-.0021-.0011-.0031-.0013-.0056-.0004-.0069.0017-.0002.0004-.0004.0008-.0006.0013l-.0047.0118-.0076-.003.0062-.0154h0Z"/>
    <path class="cls-20" d="M.46.5609v-.0025h-.0001c-.0021.0016-.0051.0021-.0082.0013-.0054-.0012-.0076-.0057-.0067-.0094.0014-.0064.0079-.0083.0176-.006v-.0002c.0003-.0011.0002-.0033-.0041-.0042-.0027-.0006-.0059-.0003-.0078.0003l-.0004-.0054c.0021-.0006.0059-.0011.0107,0,.0084.0019.0104.0073.0091.0133l-.0019.0084c-.0006.0025-.0009.0048-.001.0062l-.0072-.0016h0ZM.4617.5492c-.0046-.0011-.008-.0007-.0086.002-.0004.0018.0006.0031.0026.0035.0021.0005.0042-.0006.005-.0021.0002-.0004.0004-.0009.0004-.0013l.0005-.0021h0Z"/>
    <path class="cls-20" d="M.5196.5611c-.0015.0009-.0051.0022-.0099.0026-.013.0011-.0205-.0058-.0214-.0156-.001-.0113.0072-.0191.0189-.0202.0046-.0004.0083.0001.0099.0008l-.0012.0065c-.0019-.0006-.0046-.0011-.0079-.0008-.0069.0006-.0119.005-.0113.0124.0006.0065.0054.0108.0133.0101.0028-.0003.0058-.0011.0075-.002l.0019.0062h0Z"/>
    <path class="cls-20" d="M.5416.5581l-.0009-.0024h-.0002c-.0013.0023-.0038.004-.007.0045-.0054.001-.0092-.0022-.0099-.006-.0012-.0064.004-.0107.0138-.0125v-.0002c-.0003-.0011-.0012-.003-.0055-.0022-.0027.0005-.0055.0021-.007.0034l-.0024-.0048c.0016-.0014.005-.0033.0098-.0042.0085-.0016.0125.0025.0136.0086l.0016.0084c.0005.0025.0011.0048.0016.006l-.0073.0013h0ZM.5385.5467c-.0047.0008-.0076.0025-.0071.0052.0004.0018.0018.0026.0038.0022.0021-.0004.0036-.0022.0038-.0039,0-.0004,0-.001-.0001-.0014l-.0004-.0022h0Z"/>
    <path class="cls-20" d="M.5523.5388c-.0008-.0032-.0016-.0057-.0023-.0079l.0067-.0018.0012.0033h.0002c.0006-.0018.0021-.005.0068-.0062.0033-.0008.0064.0001.0083.0025h0c.0006-.0017.0015-.003.0025-.004.0012-.0013.0027-.0021.0047-.0026.0047-.0013.0097.0009.0117.0086l.0037.0139-.0076.0021-.0034-.0128c-.001-.0038-.003-.0054-.0055-.0047-.002.0005-.0029.0022-.0031.0038,0,.0006,0,.0015.0002.0021l.0037.0138-.0076.0021-.0035-.0131c-.0009-.0035-.0028-.0051-.0054-.0045-.0023.0006-.003.0027-.0031.004,0,.0007,0,.0014.0002.0021l.0037.0137-.0076.0021-.0044-.0164h0Z"/>
    <path class="cls-20" d="M.6184.5369l-.0013-.0022h-.0001c-.0009.0025-.0032.0045-.0062.0056-.0052.0019-.0094-.0007-.0108-.0043-.0022-.0062.0023-.0112.0116-.0145v-.0002c-.0005-.0011-.0017-.0028-.0058-.0013-.0026.0009-.0052.0029-.0064.0045l-.0032-.0043c.0014-.0016.0044-.0041.009-.0057.0081-.0029.0127.0006.0148.0064l.0029.0081c.0008.0024.0018.0045.0025.0057l-.0069.0025h0ZM.6135.526c-.0045.0016-.0071.0037-.0062.0063.0006.0018.0022.0023.0041.0016.0021-.0007.0032-.0028.0032-.0045,0-.0004-.0002-.0009-.0004-.0013,0,0-.0008-.0021-.0008-.0021Z"/>
    <path class="cls-20" d="M.6259.516c-.0017-.0037-.0028-.0058-.0038-.0076l.0064-.003.0023.0044h.0002c-.0005-.0043.0019-.0071.0043-.0083.0006-.0003.001-.0004.0016-.0006l.0032.0069c-.0006.0001-.0013.0004-.0022.0008-.003.0014-.0041.0038-.0035.0062.0001.0005.0004.0009.0006.0014l.0054.0115-.0074.0035-.007-.0151h0Z"/>
    <path class="cls-20" d="M.6707.4986c.0037.0079-.0004.0151-.0075.0183-.007.0033-.0149.0015-.0183-.0059-.0033-.0071-.0006-.0145.0077-.0183.0075-.0035.0149-.0009.018.0059ZM.6556.4798l-.0027.0101-.0052.0024.0009-.0093.0069-.0032ZM.6526.5074c.0018.0039.0051.0058.0084.0043.003-.0014.0041-.0048.0021-.0092-.0016-.0035-.0047-.006-.0083-.0043-.0038.0018-.0038.0058-.0022.0093h0Z"/>
    <path class="cls-20" d="M.6745.4928c-.0011-.003-.0021-.0056-.003-.0076l.0067-.0024.0016.0033h.0001c.0004-.0018.0019-.0053.0064-.0069.005-.0018.0103-.0002.013.0073l.0049.0137-.0077.0028-.0045-.0125c-.0012-.0034-.0033-.0051-.0062-.004-.0023.0008-.003.003-.0031.0045,0,.0005.0001.0012.0004.0018l.0048.0134-.0077.0028-.0057-.016h0Z"/>
  </g>
  <path class="cls-20" d="M.8645.6479c-.0062-.0049-.0073-.0333-.0091-.0624,0,0,.0007.0507-.0083.0632-.0079.011-.026.0097-.0447.0103,0,0,.0322,0,.0421.0174.0038.0067.0081.0468.0118.0826,0,0-.0021-.0618.0104-.0819.0074-.0119.0262-.0139.043-.0146,0,0-.034-.0055-.0451-.0146h0Z"/>
  <path class="cls-20" d="M.9102.5236c-.0048-.0035-.0056-.0233-.0069-.0437h0s.0005.0355-.0064.0442c-.006.0077-.02.0067-.0345.0073,0,0,.0249,0,.0324.0122.0029.0047.0061.0327.0092.0578,0,0-.0017-.0432.008-.0574.0058-.0083.0202-.0097.0332-.0101,0,0-.0261-.0041-.0349-.0102h-.0001Z"/>
  <path class="cls-20" d="M.373.0913s.0005.035-.0065.0436c-.0061.0075-.0203.0066-.0351.0072,0,0,.0253,0,.0329.0121.003.0047.0062.0324.0093.0571,0,0-.0018-.0428.0081-.0568.0058-.0082.0206-.0096.0337-.01,0,0-.0266-.0039-.0355-.01-.0049-.0035-.0057-.0231-.007-.0433h.0001Z"/>
  <path class="cls-8" d="M.2545.1041s.0008.0574-.0099.0717c-.0093.0125-.0307.0109-.0529.0117,0,0,.0383,0,.0496.0197.0045.0076.0096.0529.0141.0938,0,0-.0024-.0701.0123-.093.0088-.0136.031-.0157.0511-.0165,0,0-.0403-.0063-.0535-.0165-.0072-.0057-.0086-.0377-.0106-.0709h-.0003.0001Z"/>
</svg>