<?xml version="1.0" encoding="UTF-8"?>
<svg id="Layer_1" data-name="Layer 1" xmlns="http://www.w3.org/2000/svg" xmlns:xlink="http://www.w3.org/1999/xlink" version="1.1" viewBox="0 0 1 1">
  <defs>
    <style>
      .cls-1 {
        stroke: #221f20;
        stroke-width: .0008px;
      }

      .cls-1, .cls-2, .cls-3, .cls-4, .cls-5, .cls-6 {
        stroke-miterlimit: 10;
      }

      .cls-1, .cls-7 {
        fill: #fff;
      }

      .cls-8 {
        fill: #221f20;
      }

      .cls-8, .cls-9, .cls-10, .cls-11, .cls-12, .cls-13, .cls-14, .cls-15, .cls-16, .cls-17, .cls-18, .cls-19, .cls-20, .cls-21, .cls-22, .cls-23, .cls-24, .cls-25, .cls-26, .cls-27, .cls-7, .cls-28, .cls-29, .cls-30, .cls-31 {
        stroke-width: 0px;
      }

      .cls-9 {
        fill: #4a1a1e;
      }

      .cls-32 {
        clip-path: url(#clippath);
      }

      .cls-10, .cls-2, .cls-4, .cls-5, .cls-6 {
        fill: none;
      }

      .cls-11 {
        fill: #d7be55;
      }

      .cls-2 {
        stroke-width: .0037px;
      }

      .cls-2, .cls-3, .cls-4, .cls-5, .cls-6 {
        stroke: #ebd480;
      }

      .cls-12 {
        fill: url(#linear-gradient);
      }

      .cls-13 {
        fill: #da504d;
      }

      .cls-14 {
        fill: #6d2426;
      }

      .cls-15 {
        fill: #cbb045;
      }

      .cls-16 {
        fill: #ebd480;
      }

      .cls-17 {
        fill: #f1dc83;
      }

      .cls-18 {
        fill: #ffffe0;
      }

      .cls-19 {
        fill: #eed66f;
      }

      .cls-3, .cls-5 {
        stroke-width: .0033px;
      }

      .cls-3, .cls-25 {
        fill: #cf4745;
      }

      .cls-33 {
        clip-path: url(#clippath-1);
      }

      .cls-34 {
        clip-path: url(#clippath-4);
      }

      .cls-35 {
        clip-path: url(#clippath-3);
      }

      .cls-36 {
        clip-path: url(#clippath-2);
      }

      .cls-37 {
        clip-path: url(#clippath-7);
      }

      .cls-38 {
        clip-path: url(#clippath-8);
      }

      .cls-39 {
        clip-path: url(#clippath-6);
      }

      .cls-40 {
        clip-path: url(#clippath-5);
      }

      .cls-41 {
        clip-path: url(#clippath-9);
      }

      .cls-20 {
        fill: #8e353d;
      }

      .cls-4 {
        stroke-width: .0032px;
      }

      .cls-21 {
        fill: #000;
      }

      .cls-22 {
        fill: #fdf9a0;
      }

      .cls-42 {
        clip-path: url(#clippath-20);
      }

      .cls-43 {
        clip-path: url(#clippath-21);
      }

      .cls-44 {
        clip-path: url(#clippath-14);
      }

      .cls-45 {
        clip-path: url(#clippath-13);
      }

      .cls-46 {
        clip-path: url(#clippath-12);
      }

      .cls-47 {
        clip-path: url(#clippath-10);
      }

      .cls-48 {
        clip-path: url(#clippath-15);
      }

      .cls-49 {
        clip-path: url(#clippath-17);
      }

      .cls-50 {
        clip-path: url(#clippath-16);
      }

      .cls-51 {
        clip-path: url(#clippath-19);
      }

      .cls-52 {
        clip-path: url(#clippath-11);
      }

      .cls-53 {
        clip-path: url(#clippath-18);
      }

      .cls-23 {
        fill: #f7e79a;
      }

      .cls-24 {
        fill: #82b458;
      }

      .cls-26 {
        fill: url(#linear-gradient-2);
      }

      .cls-6 {
        stroke-width: .0035px;
      }

      .cls-27 {
        fill: #2458bf;
      }

      .cls-28 {
        fill: #8c353c;
      }

      .cls-29 {
        fill: #5dc9ec;
      }

      .cls-30 {
        fill: #d0cfce;
      }

      .cls-31 {
        fill: #c9c053;
      }
    </style>
    <linearGradient id="linear-gradient" x1=".2373" y1="304.5963" x2=".7025" y2="303.9706" gradientTransform="translate(0 304.7391) scale(1 -1)" gradientUnits="userSpaceOnUse">
      <stop offset=".0228" stop-color="#d3b86f"/>
      <stop offset=".1422" stop-color="#fffff3"/>
      <stop offset=".2412" stop-color="#fffff3"/>
      <stop offset=".3838" stop-color="#d3b86f"/>
      <stop offset=".56" stop-color="#d3b86f"/>
      <stop offset=".7329" stop-color="#ffffe2"/>
      <stop offset=".8908" stop-color="#d3b86f"/>
      <stop offset="1" stop-color="#998351"/>
    </linearGradient>
    <linearGradient id="linear-gradient-2" x1=".2532" y1="304.623" x2=".7524" y2="303.856" gradientTransform="translate(0 304.7391) scale(1 -1)" gradientUnits="userSpaceOnUse">
      <stop offset=".0072" stop-color="#877139"/>
      <stop offset=".1728" stop-color="#ffb"/>
      <stop offset=".3571" stop-color="#c9a753"/>
      <stop offset=".5119" stop-color="#745c31"/>
      <stop offset=".6595" stop-color="#c9a753"/>
      <stop offset=".7826" stop-color="#c9a753"/>
      <stop offset=".932" stop-color="#756435"/>
      <stop offset="1" stop-color="#492a24"/>
    </linearGradient>
    <clipPath id="clippath">
      <path class="cls-10" d="M.2446.1549l.4571.0205s.0169-.0039.0369.0115.0468.0474.0518.0717c.005.0243.0787.3991.0787.3991,0,0,.0129.0699-.0028.0952-.0165.0265-.0307.0421-.0546.0481-.0198.005-.4421.0358-.4421.0358,0,0-.0433.002-.0733-.0236,0,0-.0308-.0283-.0433-.0974s-.0759-.4504-.0759-.4618c0-.004-.0085-.0266.004-.0484.0125-.0217.0203-.0458.0636-.0505Z"/>
    </clipPath>
    <clipPath id="clippath-1">
      <path class="cls-10" d="M.1797.2351c.0068,0,.0255-.0083.0372-.0176.0191-.0153.0376-.0291.0583-.0286,0,0,.0337-.0044.0583.0184.0073.0068.0164.0121.0246.0038.0047-.0047.0301-.0234.0526-.0216.0225.0018.0388.0102.0587.028s.0335.0072.038.0039c.0102-.0076.045-.0435.0866-.0198.0346.0198.0375.0227.0386.0234.0065.0044.0212-.0377.0644-.0165.0192.0094.0311.0259.0326.0255.013-.0033.0342-.0452.0836-.037l.0157.0831-.6609.028-.0164-.0952s.0058.0037.0116.0096c.0059.0058.0115.0127.0164.0127h0Z"/>
    </clipPath>
    <clipPath id="clippath-2">
      <path class="cls-10" d="M.2483.2411s.0068-.0053.0108-.0012.0087.0127-.0021.0192c0,0,.0122.0115.0145.0127.0023.0012.0119.007.0218-.0012s.0236-.021.0366-.026l-.0064-.0025s-.0068-.0034-.0115-.0026l-.0047.0007s-.0133-.0194-.0274-.0108c-.0002.0002-.0091-.0161-.0197-.0125,0,0-.0075.0026-.0064.0113,0,0-.0124-.0038-.0167.0046,0,.0005-.0054.0103.0044.0153l.0066-.007Z"/>
    </clipPath>
    <clipPath id="clippath-3">
      <path class="cls-10" d="M.715.2627s-.0391-.0397-.0801-.0405c0,0-.018-.0008-.0429.0181-.0249.0189-.0318.0216-.0318.0216l-.051-.0244s-.0196-.025-.0479-.0239c-.0215.0008-.0276.0161-.0706.0518l.0107.0314s.0951.0201.0961.0224c.0009.0023.2337-.013.2333-.0127s-.0157-.0439-.0157-.0439h0Z"/>
    </clipPath>
    <clipPath id="clippath-4">
      <path class="cls-10" d="M.1143.2699c.0072,0,.0165-.0102.0288-.02.0201-.016.0294-.0261.0531-.0261.009,0,.0446.0101.0706.0342.0078.0072.0097.0028.0184-.0059.0049-.0049.0317-.0303.0555-.0283.0238.002.0376.0065.0584.0252s.069.0118.0744.0094c.0199-.0086.0411-.042.0809-.0188.0142.0082.0433.0306.0506.0346.018.0098.0068.0036.0376.0357.0269.028.0353-.0232.0815-.0586.0113-.0087.0344-.0258.067-.0031l.0211.0715-.7101.0271-.0173-.1004s.0061.004.0123.01.0121.0134.0173.0134Z"/>
    </clipPath>
    <clipPath id="clippath-5">
      <path class="cls-10" d="M.2107.2891s-.0098-.0028-.0133.0024c-.0035.0052-.0064.0149.0086.0176,0,0-.0109.015-.0134.0169s-.0121.0106-.0265.0061-.0349-.0122-.0522-.0127l.0069-.0046s.0071-.0054.0129-.0063l.0059-.0008s.0099-.023.0294-.0193c.0004.0001.0059-.0184.0196-.0184,0,0,.0098,0,.0112.0087,0,0,.0137-.0078.0214-.0011.0001.0004.0097.008-.0005.0161,0,0-.0101-.0044-.0101-.0044Z"/>
    </clipPath>
    <clipPath id="clippath-6">
      <path class="cls-10" d="M.4634.2615s.0068-.0053.0108-.0012.0087.0127-.0021.0192c0,0,.0122.0115.0145.0127s.0119.007.0218-.0012c.0099-.0082.0236-.0209.0366-.026l-.0064-.0025s-.0068-.0034-.0115-.0026l-.0047.0007s-.0133-.0194-.0274-.0108c-.0002.0002-.0091-.0161-.0197-.0125,0,0-.0075.0026-.0064.0113,0,0-.0124-.0038-.0167.0046,0,.0005-.0054.0103.0044.0153,0,0,.0066-.007.0066-.007Z"/>
    </clipPath>
    <clipPath id="clippath-7">
      <path class="cls-10" d="M.7987.2722s-.0179-.0114-.0445.008c-.029.0212-.0274.0088-.0383,0-.0104-.0084-.0431-.0315-.0801.0006-.0065.0056-.0088.0053-.0211-.0022-.026-.0154-.0496-.0322-.0989.0039,0,0-.0245.0213-.0344.0072-.0099-.0141-.0391-.0328-.0688-.0312,0,0-.0196.0016-.0422.0176s-.0188.008-.0289-.0016c-.0102-.0096-.0524-.0457-.1118.0032,0,0-.0234.02-.0438.0448l-.0023.0224s.0157.0625.0172.0648c.0016.0024.6169-.0344.6169-.0344l-.0188-.1033h-.0001Z"/>
    </clipPath>
    <clipPath id="clippath-8">
      <path class="cls-10" d="M.1842.3378s.0211-.0512.068-.0424.0785.0417.0827.0376c.07-.0682.1215-.0458.1551.0219.0033.0067.0496.0272.0764-.0015.0199-.0214.0351-.0573.072-.0568.0328.0004.0602.0123.0807.0275.016.0118.0249-.0144.051-.0171.0623-.0065.0667.085.0598.0881l-.6351.002s-.0107-.0595-.0107-.0595Z"/>
    </clipPath>
    <clipPath id="clippath-9">
      <path class="cls-10" d="M.5.3718s.0301-.0441.0606-.0432c.0198.0006.0565.0127.0925.0422l-.036.0336-.0406-.0105s-.0766-.0221-.0766-.0221Z"/>
    </clipPath>
    <clipPath id="clippath-10">
      <path class="cls-10" d="M.647.3714s.0393-.0531.0699-.0521c.0187.0006.0516.0197.0833.051.0047-.0063.0128-.0142.0164-.0168l.0088.0626-.1028.0021-.0756-.0469h0Z"/>
    </clipPath>
    <clipPath id="clippath-11">
      <path class="cls-10" d="M.4002.3609s.0175-.0255.0373-.0244c.0198.0012.0517.0154.0876.0449l-.036.0337-.0406-.0105-.0484-.0437h0Z"/>
    </clipPath>
    <clipPath id="clippath-12">
      <path class="cls-10" d="M.2594.4115s-.0074-.0053-.0118-.0012-.0095.0127.0023.0192c0,0,.0438.0134.0458.0153-.0272.0006-.065.0472-.0887.031-.0111-.0076-.0225-.0558-.0368-.0608l.0071-.0025s.0074-.0034.0126-.0026l.0051.0007s.0146-.0194.0299-.0108c.0003.0002.01-.0161.0215-.0125,0,0,.0082.0026.0069.0113,0,0,.0136-.0038.0181.0046,0,.0005.0059.0103-.0049.0153l-.0071-.007Z"/>
    </clipPath>
    <clipPath id="clippath-13">
      <path class="cls-10" d="M.1995.5025s-.0057-.0349.0352-.038c.0198-.0015.0772.0158.098.0625l-.0442.0298-.0406-.0105s-.0484-.0437-.0484-.0437Z"/>
    </clipPath>
    <clipPath id="clippath-14">
      <path class="cls-10" d="M.2864.4841s.0097.0016.013.0066c.0032.0049.0121.0205-.0004.0243,0,0-.0132.0291-.0156.0305-.0105.0064.0136.0233.0395.0125.0121-.0051.033-.0498.0475-.0517l-.0061-.0039s-.0064-.0049-.0114-.0053l-.005-.0003s-.0098-.0221-.0262-.0168c-.0003.0002-.0061-.0178-.0179-.0168,0,0-.0083.0009-.0089.0095,0,0-.0121-.0066-.0182.0006,0,.0005-.0077.0088.0015.016l.0083-.0053h0Z"/>
    </clipPath>
    <clipPath id="clippath-15">
      <path class="cls-10" d="M.2245.5803l.0545-.0553s.024-.0219.0478-.0226c.0185-.0005.0319-.0026.0781.0347l.1285.0058.0766-.0437s.0341-.0427.0663-.0469c.0493-.0063.0822.0353.0822.0353,0,0,.0169-.0248.036-.0258.0278-.0016.0509.0205.0509.0205l.0047.0589-.3814.0333-.2478.0394.0036-.0336h0Z"/>
    </clipPath>
    <clipPath id="clippath-16">
      <path class="cls-10" d="M.2575.5486s-.0107,0-.015.004-.0131.0196-.0013.0261c0,0,.0474-.0035.0495-.0016.0092.0085-.065.0472-.0887.031-.0111-.0076-.0225-.0557-.0368-.0607l.0071-.0025s.0074-.0034.0126-.0026l.0051.0007s.0146-.0194.0299-.0108c.0003.0002.002-.0109.0135-.0073,0,0,.0114-.0003.0102.0083,0,0,.0183-.0061.0229.0023,0,.0005.0059.0103-.0049.0153l-.004-.0021h0Z"/>
    </clipPath>
    <clipPath id="clippath-17">
      <path class="cls-10" d="M.225.5851c.0151-.0191.0335-.0347.0531-.0379,0,0,.026-.0033.0618.0066.0096.0027.0246.0038.0418-.0076.0055-.0037.0336-.0253.05-.0398.0193-.0171.0619-.01.1119.0352.0198.0179.056.029.1172-.0114.0128-.0085.0361-.0527.0731-.0344.0371.0183.0464.0383.0582.026.0092-.0097.0388-.0413.1015-.0016l-.0232.1016-.6297.0657s-.025-.0906-.0157-.1023v-.0002Z"/>
    </clipPath>
    <clipPath id="clippath-18">
      <path class="cls-10" d="M.2246.5939s.047.0006.0761.033l-.0588.0424-.0173-.0753Z"/>
    </clipPath>
    <clipPath id="clippath-19">
      <path class="cls-10" d="M.7049.5376s.0051-.0065.0099-.0034c.0048.0032.0113.0106.0028.0191,0,0,.0143.0087.0168.0094.0025.0007.013.0043.0203-.0056s.0172-.0252.0282-.0329l-.0067-.0011s-.0072-.0019-.0115-.0002l-.0042.0017s-.0174-.0162-.0285-.0049c-.0001.0003-.0126-.0138-.0216-.0081,0,0-.0064.0041-.0032.0123,0,0-.0126-.0012-.0145.0078.0001.0005-.0025.0112.008.014l.0044-.0081h0Z"/>
    </clipPath>
    <clipPath id="clippath-20">
      <path class="cls-10" d="M.4753.5603s.0426-.0106.075-.0324c.0323-.0218.0577-.0409.0825-.0268.0248.0141.0401.0248.0414.0289s.0102.0408.0102.0408l-.2056.0056-.0035-.0162h0Z"/>
    </clipPath>
    <clipPath id="clippath-21">
      <path class="cls-10" d="M.361.6026s.0282-.0514.066-.0592c0,0,.0248-.0071.0591.0183,0,0,.02.0197.0261.0162s.0289-.0289.0468-.0317.0468.0106.0619.0261l.1321.0092s.0076-.0648.097-.0402l.0206.0859-.0536-.0021-.4587-.0021.0028-.0204h0Z"/>
    </clipPath>
  </defs>
  <g>
    <path class="cls-12" d="M.5042.0151C.2354.0151.0175.233.0175.5018s.2179.4868.4867.4868.4868-.2179.4868-.4868S.7731.0151.5042.0151Z"/>
    <circle class="cls-26" cx=".5042" cy=".5018" r=".4669"/>
  </g>
  <g>
    <path class="cls-9" d="M.1979.3444l-.0303.062s-.0105.0071-.007.0406c.0035.0335.0408.2541.0408.2541,0,0,0,.0275.0152.0394s.0792.0632.0827.062-.1014-.4582-.1014-.4582Z"/>
    <path class="cls-14" d="M.1809.2055s-.0173.0258-.0106.0503.0647.4213.0853.4978c0,0,.0181.1031.1138.083.0956-.0201-.1899-.631-.1885-.6312Z"/>
    <path class="cls-10" d="M.2446.1549l.4571.0205s.0169-.004.0369.0114.0468.0474.0518.0717.0787.3991.0787.3991c0,0,.0129.0699-.0028.0951-.0165.0265-.0307.0421-.0546.0481-.0198.0049-.4421.0358-.4421.0358,0,0-.0433.002-.0733-.0236,0,0-.0308-.0284-.0433-.0975s-.0759-.4504-.0759-.4618c0-.004-.0085-.0266.004-.0484s.0203-.0458.0636-.0505Z"/>
    <g>
      <path class="cls-13" d="M.2446.1549l.4571.0205s.0169-.004.0369.0114.0468.0474.0518.0717.0787.3991.0787.3991c0,0,.0129.0699-.0028.0951-.0165.0265-.0307.0421-.0546.0481-.0198.0049-.4421.0358-.4421.0358,0,0-.0433.002-.0733-.0236,0,0-.0308-.0284-.0433-.0975s-.0759-.4504-.0759-.4618c0-.004-.0085-.0266.004-.0484s.0203-.0458.0636-.0505Z"/>
      <g class="cls-32">
        <g>
          <g>
            <g class="cls-33">
              <g>
                <polygon class="cls-25" points=".1377 .1797 .1608 .321 .8472 .2921 .8392 .1775 .1377 .1797"/>
                <path class="cls-5" d="M.1546.2265s.01.0182.0207.0197c.0099.0013.0291-.0014.0366-.0071s.0426-.0377.0621-.0392c0,0,.0246-.004.0457.0105.0253.0173.0273.0203.0424.0089s.0383-.0273.0691-.0174c.0203.0065.0381.0332.0545.0376s.0326-.0151.0463-.0221.0348-.027.074.0012c.0263.019.0351-.0008.0414-.0062,0,0,.0287-.0259.0594.0032.0268.0253.032.0266.0456.0165s.0359-.0325.0701-.0255v.0102s-.025-.0074-.0472.0095c-.0131.01-.0268.0217-.0356.0223-.0076.0006-.0292-.0209-.0456-.0311,0,0-.0217-.0137-.0437.0055-.0141.0123-.0239.0186-.0402.0078s-.0319-.0199-.0503-.0167-.032.0222-.045.0272c0,0-.0265.0146-.0457,0s-.0347-.0399-.0662-.0323-.0444.0298-.0546.0298c0,0-.0055.0009-.0238-.0128,0,0-.0282-.032-.0661-.0078,0,0-.038.0259-.0599.032-.0174.0049-.0362.0064-.0362.0064.0001,0-.006-.0025-.0136-.0064l.0028.0133s.0287.0178.0492-.0025.0632-.0417.0858-.0409c.0164.0006.0363.0148.0563.0231.026.0108.0355-.0095.0533-.021,0,0,.0196-.0124.0476.0073s.0296.0276.0563.0225c.0266-.0051.0438-.0191.0526-.0241s.0257-.0114.0495.0078c.0248.02.0374.0088.0564-.0071.0172-.0144.0409.0008.0587.0161s.0217.0152.0375.0083.0292-.0278.0626-.029"/>
              </g>
            </g>
            <path class="cls-5" d="M.1797.2351c.0068,0,.0255-.0083.0372-.0176.0191-.0152.0376-.0291.0583-.0287,0,0,.0337-.0044.0583.0184.0073.0068.0164.0121.0246.0038.0047-.0047.0301-.0234.0526-.0216s.0388.0102.0587.028c.0198.0178.0335.0073.038.0039.0102-.0076.045-.0435.0866-.0198.0346.0198.0375.0227.0386.0234.0065.0044.0212-.0377.0644-.0165.0192.0095.0311.0259.0326.0256.013-.0033.0342-.0452.0836-.037l.0157.0831-.6609.028-.0164-.0951s.0058.0037.0116.0095.0115.0127.0164.0127h0Z"/>
          </g>
          <g>
            <g>
              <g class="cls-36">
                <g>
                  <rect class="cls-25" x=".2296" y=".2054" width=".1076" height=".0822"/>
                  <path class="cls-5" d="M.2659.2329s.0098.0088.0069.0163-.0157.0131-.0157.0131l.0035.0023s.0245-.0013.0196-.0246l.0069.0017s.0061.0117-.0004.0179-.0239.0095-.0239.0095l.0108.0088s.0245-.0094.0241-.0248c0,0,0-.0104-.0061-.0129"/>
                </g>
              </g>
              <path class="cls-5" d="M.2483.2411s.0068-.0053.0108-.0012.0087.0127-.0021.0192c0,0,.0122.0115.0145.0127s.0119.007.0218-.0012.0236-.021.0366-.026l-.0064-.0025s-.0068-.0034-.0115-.0026l-.0047.0007s-.0133-.0194-.0274-.0108c-.0002.0002-.0091-.0161-.0197-.0125,0,0-.0075.0026-.0064.0113,0,0-.0124-.0038-.0167.0046,0,.0005-.0054.0103.0044.0153,0,0,.0066-.007.0066-.007Z"/>
            </g>
            <path class="cls-16" d="M.3302.2464s-.0034-.0134-.0221-.0088c0,0-.0114-.0183-.0285-.0113,0,0-.0059-.0129-.0173-.0133,0,0-.0088-.0029-.0091.0088,0,0-.0111-.006-.0165-.0013-.0133.0117.0019.0203.0019.0203,0,0,.0023.0023.008-.0039,0,0,.0007-.0065-.0047-.0085,0,0-.0043.0008-.0051.0082,0,0-.0064-.0043.0004-.0121,0,0,.0114-.0054.0184.0095,0,0,.0066.0053.0111.001,0,0,.0013-.0033-.0009-.0058-.0013-.0015-.0066-.0036-.0094-.0007,0,0-.0021-.0041.0019-.0073.0059-.0049.018.0047.019.0109,0,0-.0007.0115.0073.0132.0059.0013.0077-.0005.0089-.0026s-.0016-.006-.0054-.006-.0044.0024-.0044.0024c0,0-.0037-.0019-.0021-.0058s.0124-.0038.0185.0048l.004.0067s.0005.0017.0021.0024.0016-.0041.0047-.005.0128-.0007.0143.0067c0,0,.0052-.0026.0052-.0026Z"/>
            <path class="cls-5" d="M.2934.2428l-.0133-.0028-.0005-.0137s.0246.0014.0277.0138c0,0-.0055.0103.0026.0162"/>
            <circle class="cls-16" cx=".2166" cy=".2282" r=".005"/>
            <circle class="cls-16" cx=".3107" cy=".2285" r=".0039"/>
          </g>
          <g>
            <path class="cls-25" d="M.715.2627s-.0391-.0397-.0801-.0404c0,0-.018-.0008-.0429.0181s-.0318.0216-.0318.0216l-.051-.0244s-.0196-.025-.0479-.0239c-.0215.0008-.0276.0161-.0706.0518l.0107.0314s.0951.0201.0961.0224.2337-.013.2333-.0126-.0157-.044-.0157-.044h0Z"/>
            <g class="cls-35">
              <path class="cls-5" d="M.7238.2772s-.0491-.0397-.0656-.0444c0,0-.0253-.0078-.0464.0067-.021.0145-.0353.0263-.0353.0263l-.0744-.0256s-.0172-.0188-.038-.0165-.0433.033-.0552.04l.0161.0028s.0222-.0334.0429-.0326.0342.0281.0342.0281l.0874.0068s.0326-.0299.0544-.0294.0644.0373.0644.0373l-.0222-.0086s-.0253-.0216-.0441-.0196c0,0-.0215.0012-.046.0314"/>
            </g>
            <path class="cls-5" d="M.715.2627s-.0391-.0397-.0801-.0404c0,0-.018-.0008-.0429.0181s-.0318.0216-.0318.0216l-.051-.0244s-.0196-.025-.0479-.0239c-.0215.0008-.0276.0161-.0706.0518l.0107.0314s.0951.0201.0961.0224.2337-.013.2333-.0126-.0157-.044-.0157-.044h0Z"/>
          </g>
          <g>
            <g class="cls-34">
              <g>
                <polygon class="cls-25" points=".0695 .214 .0939 .363 .8179 .3325 .8095 .2117 .0695 .214"/>
                <path class="cls-6" d="M.0877.2608s.0105.0192.0219.0208c.0104.0015.0212-.009.0292-.015s.0185-.0305.0508-.0329c0,0,.0237-.0025.0494.0172.0305.0235.0332.0255.042.0192.0162-.0116.0419-.0492.0744-.0385s.0521.0401.0694.0448.0588-.0158.0733-.0232c.0145-.0073.0246-.0305.066-.0007.0278.02.0573.0421.0639.0364,0,0,.0038-.0452.0399-.0204s.0416.0055.0554-.006c.0159-.0133.034-.0321.0685-.0038l-.0004.0063s-.0287-.025-.0522-.0071c-.0138.0105-.0246.0275-.0368.0279-.008.0003-.0252-.0253-.0425-.036,0,0-.0137.0146-.0368.0348-.0148.013-.0366-.01-.0539-.0215s-.0244-.0181-.0438-.0147-.0356.0224-.0607.0248c0,0-.0491.0052-.0693-.0102s-.0388-.0314-.0618-.0228c-.0226.0085-.0493.0443-.0616.0399,0,0-.0058.0009-.0251-.0136,0,0-.0414-.04-.0813-.0145,0,0-.0116.0152-.0311.034-.0138.0133-.0382.0067-.0382.0067,0,0-.0065-.0027-.0144-.0067l.0029.014s.0303.0187.0519-.0027.0426-.0455.0665-.0445c.0173.0006.0415.0246.0627.0335.0274.0114.0412-.0196.0599-.0317,0,0,.0224-.0174.0519.0033s.0466.0354.0747.0301.0444-.0125.0538-.0179c.0094-.0054.0256-.0236.0522-.0056s.0334.0252.0529.0119.0394-.0259.0581-.0098.035.0299.0516.0225.0291-.0457.0639-.0193"/>
              </g>
            </g>
            <path class="cls-6" d="M.1143.2699c.0072,0,.0165-.0102.0288-.02.0201-.016.0294-.026.0531-.026.009,0,.0446.0101.0706.0342.0078.0072.0097.0028.0184-.0059.0049-.0049.0317-.0304.0555-.0284.0238.002.0376.0065.0584.0252.0209.0187.069.0118.0744.0095.0199-.0086.0411-.042.0809-.0188.0142.0083.0433.0306.0506.0346.018.0098.0068.0036.0376.0357.0269.028.0353-.0232.0815-.0586.0113-.0087.0344-.0258.067-.003l.0211.0715-.7101.0271-.0173-.1004s.0061.004.0123.01.0121.0134.0173.0134Z"/>
          </g>
          <g>
            <g>
              <g class="cls-40">
                <g>
                  <polygon class="cls-25" points=".1188 .3629 .2478 .3273 .2218 .2489 .0928 .2844 .1188 .3629"/>
                  <path class="cls-2" d="M.187.2871s-.009.0116-.0032.0178.0229.0073.0229.0073l-.0034.0034s-.0297.0068-.0313-.017l-.0078.0039s-.0036.0132.0061.017c.0097.0038.0317.0011.0317.0011l-.0102.0119s-.0324-.0008-.0368-.0157c0-.0001-.0032-.0101.0033-.0145"/>
                </g>
              </g>
              <path class="cls-2" d="M.2107.2891s-.0098-.0028-.0133.0024-.0064.015.0086.0176c0,0-.0109.015-.0134.0169s-.0121.0106-.0265.0061-.0349-.0122-.0522-.0127l.0069-.0046s.0071-.0054.0129-.0063l.0059-.0008s.0099-.0229.0294-.0193c.0004.0001.0059-.0184.0196-.0184,0,0,.0098,0,.0112.0087,0,0,.0137-.0078.0214-.0011.0001.0004.0097.008-.0005.0161,0,0-.0101-.0044-.0101-.0044Z"/>
            </g>
            <path class="cls-16" d="M.1141.3212s-.0001-.014.0236-.0156c0,0,.0079-.0213.0306-.0203,0,0,.003-.0143.0166-.0184,0,0,.0124-.0036.0166.0074,0,0,.0142-.0043.0206.0003.0111.0079.0037.0175.0037.0175,0,0-.0066.0087-.0154.0047,0,0-.0073-.0056-.0016-.0093,0,0,.007-.0044.0102.0025,0,0,.0079-.0061-.0028-.0112,0,0-.0098-.0011-.0169.0061,0,0-.0063.0073-.013.0046,0,0-.0026-.0027-.0007-.0058.0012-.0018.0067-.0056.011-.0038,0,0,.0013-.0046-.0046-.0064-.0086-.0028-.0201.0104-.0193.0167,0,0,.0045.0107-.0045.015-.0067.0031-.0094.0021-.0115.0004s0-.0063.0046-.0075.0061.0008.0061.0008c0,0,.0039-.003.0007-.0062s-.0161.0004-.0207.0107l-.0027.0077s0,.0018-.0018.003-.0032-.0033-.0072-.0032-.0157.0036-.015.0112l-.007-.0008h.0001Z"/>
            <path class="cls-2" d="M.1571.3056l.0151-.007-.0037-.0133s-.029.0095-.0288.0223c0,0,.0098.008.0019.0163"/>
            <circle class="cls-16" cx=".205" cy=".264" r=".0042"/>
            <circle class="cls-16" cx=".1318" cy=".2978" r=".0047"/>
          </g>
          <g>
            <g>
              <g class="cls-39">
                <g>
                  <rect class="cls-25" x=".4448" y=".2257" width=".1076" height=".0822"/>
                  <path class="cls-5" d="M.481.2533s.0098.0088.0069.0163-.0157.0131-.0157.0131l.0035.0023s.0245-.0013.0196-.0246l.0069.0017s.0061.0117-.0004.0179-.0239.0095-.0239.0095l.0108.0088s.0245-.0094.0241-.0248c0,0,0-.0104-.0061-.0129"/>
                </g>
              </g>
              <path class="cls-5" d="M.4634.2615s.0068-.0053.0108-.0012.0087.0127-.0021.0192c0,0,.0122.0115.0145.0127s.0119.007.0218-.0012c.0099-.0082.0236-.021.0366-.026l-.0064-.0025s-.0068-.0034-.0115-.0026l-.0047.0007s-.0133-.0194-.0274-.0108c-.0002.0002-.0091-.0161-.0197-.0125,0,0-.0075.0026-.0064.0113,0,0-.0124-.0038-.0167.0046,0,.0005-.0054.0103.0044.0153,0,0,.0066-.007.0066-.007Z"/>
            </g>
            <path class="cls-16" d="M.5453.2667s-.0034-.0134-.0221-.0088c0,0-.0114-.0183-.0285-.0113,0,0-.0059-.0129-.0173-.0133,0,0-.0104-.0001-.0108.0115,0,0-.0119-.0004-.0157.0058-.0065.0105.0016.0179.0016.0179,0,0,.0072.0066.0129.0004,0,0,.0042-.0074-.0011-.0093,0,0-.0065-.0023-.0072.0051,0,0-.0076-.0037-.0007-.0115,0,0,.0073-.0036.0144.0014,0,0,.0066.0053.0111.001,0,0,.0013-.0033-.0009-.0058-.0013-.0015-.0066-.0036-.0094-.0007,0,0-.0021-.0041.0019-.0073.0059-.0049.018.0047.019.0109,0,0-.0007.0115.0073.0132.0059.0013.0077-.0005.0089-.0026s-.0016-.006-.0054-.006-.0044.0024-.0044.0024c0,0-.0037-.0019-.0021-.0058s.0124-.0038.0185.0048l.004.0067s.0005.0017.0021.0024.0016-.0041.0047-.005.0128-.0007.0143.0067l.0052-.0026v-.0002Z"/>
            <path class="cls-5" d="M.5086.2631l-.0133-.0028-.0005-.0137s.0246.0014.0277.0138c0,0-.0055.0103.0026.0162"/>
            <circle class="cls-16" cx=".4398" cy=".2502" r=".005"/>
            <circle class="cls-16" cx=".4432" cy=".2351" r=".0039"/>
            <circle class="cls-16" cx=".5259" cy=".2489" r=".0039"/>
          </g>
          <circle class="cls-17" cx=".64" cy=".2055" r=".0041"/>
          <circle class="cls-17" cx=".286" cy=".2105" r=".0041"/>
          <circle class="cls-17" cx=".3454" cy=".1974" r=".0054"/>
          <circle class="cls-17" cx=".3006" cy=".6086" r=".0054"/>
          <circle class="cls-17" cx=".6296" cy=".2119" r=".004"/>
          <circle class="cls-17" cx=".2639" cy=".2038" r=".004"/>
          <g>
            <path class="cls-25" d="M.7987.2722s-.0179-.0114-.0445.008c-.029.0212-.0274.0088-.0383,0-.0104-.0084-.0431-.0315-.0801.0006-.0065.0056-.0088.0053-.0211-.0021-.026-.0154-.0496-.0322-.0989.0039,0,0-.0245.0213-.0344.0072s-.0391-.0328-.0688-.0312c0,0-.0196.0016-.0422.0176s-.0188.008-.0289-.0016-.0524-.0457-.1118.0032c0,0-.0234.02-.0438.0448l-.0023.0224s.0157.0625.0172.0649.6169-.0344.6169-.0344l-.0188-.1033h-.0001Z"/>
            <g class="cls-37">
              <path class="cls-6" d="M.8042.2785s-.0282-.0088-.0493.0152c0,0-.0142.0162-.0282.0102s-.0178-.0292-.0503-.0312c-.0015.0005-.0208-.0012-.0515.0307,0,0-.0283-.0342-.0599-.0317s-.069.0378-.069.0378l-.0107-.0015s-.0316-.0439-.0671-.0419c-.0258.0015-.0666.0368-.0666.0368,0,0-.0253-.0428-.0705-.0398,0,0-.0443.0109-.0725.0463l.0121.0055s.037-.0419.0642-.0433.0433.0129.0666.0438c0,0,.0425-.0425.0733-.0392-.0013.0013.0206-.0056.059.0431,0,0-.0115.0155-.011.0181.0016.0084.0056.0109.0061.01.001-.0015.0539-.0672.0865-.068.0209-.0005.0311.0075.0545.0324.0015,0,.0151-.003.0151-.003,0,0,.0287-.0299.0428-.0279,0,0,.0121-.0015.0311.0199.019.0214.0239.0184.0316.0129s.0331-.0319.0598-.0284l.002.0065s-.0214-.0025-.0423.0214l-.104.014-.0472-.016s-.019-.0249-.0462-.0234c0,0-.0276.0042-.0754.0663l-.0175-.0344-.0234-.0234s-.019-.0259-.0481-.002l-.0375.0229-.0277-.0129s-.0365-.0513-.0793-.0035"/>
            </g>
            <path class="cls-5" d="M.7987.2722s-.0179-.0114-.0445.008c-.029.0212-.0274.0088-.0383,0-.0104-.0084-.0431-.0315-.0801.0006-.0065.0056-.0088.0053-.0211-.0021-.026-.0154-.0496-.0322-.0989.0039,0,0-.0245.0213-.0344.0072s-.0391-.0328-.0688-.0312c0,0-.0196.0016-.0422.0176s-.0188.008-.0289-.0016-.0524-.0457-.1118.0032c0,0-.0234.02-.0438.0448l-.0023.0224s.0157.0625.0172.0649.6169-.0344.6169-.0344l-.0188-.1033h-.0001Z"/>
          </g>
          <g>
            <path class="cls-25" d="M.1842.3378s.0211-.0512.068-.0424.0785.0417.0827.0376c.07-.0683.1215-.0458.1551.0219.0033.0067.0496.0272.0764-.0015.0199-.0214.0351-.0572.072-.0567.0328.0004.0602.0123.0807.0275.016.0119.0249-.0144.051-.0171.0623-.0065.0667.0851.0598.0882l-.6351.002s-.0107-.0594-.0107-.0594Z"/>
            <g class="cls-38">
              <g>
                <path class="cls-5" d="M.1826.3522c.0008-.0024.0247-.0416.0493-.0416.0016,0,.0516-.0168.1087.0481l-.0078.0064s-.061-.0577-.1001-.0448c0,0-.036.012-.0438.052l.0274-.0232s.025-.0584.1063.0232l-.0071.008c-.0008-.005-.0582-.0701-.0923-.0248"/>
                <path class="cls-5" d="M.3393.3494c.0008-.0024.0158-.0271.0414-.0393.0146-.007.0392-.0305.0963.0344,0,0-.0091.0078-.0112.0055-.0287-.0308-.0462-.0421-.0773-.0319,0,0-.0374.0152-.0452.0553,0,0,.0167-.0402.0569-.0424.0184-.001.0448.0275.0715.0334l-.034-.0279s-.0199-.0179-.0409-.0129"/>
              </g>
            </g>
            <path class="cls-6" d="M.1842.3378s.0211-.0512.068-.0424.0785.0417.0827.0376c.07-.0683.1215-.0458.1551.0219.0033.0067.0496.0272.0764-.0015.0199-.0214.0351-.0572.072-.0567.0328.0004.0602.0123.0807.0275.016.0119.0249-.0144.051-.0171.0623-.0065.0667.0851.0598.0882l-.6351.002s-.0107-.0594-.0107-.0594Z"/>
          </g>
          <g>
            <path class="cls-7" d="M.5538.3165c-.002,0-.0037.0008-.0047.0022l-.0039-.0169c-.0011-.0049-.0076-.0107-.0119-.0108l-.0178-.0004c-.0013,0-.0023.0007-.0026.0018,0,.0001-.0001.0004-.0002.0006-.0002.0005-.0005.0011-.0006.002-.0032-.0032-.0073-.005-.0109-.0051l-.0091-.0002c-.0039,0-.0059.0023-.0061.0053-.0005-.0006-.001-.0011-.0016-.0016-.0026-.0025-.0057-.0039-.0085-.004h-.0047s-.0003-.0008-.0004-.0012c-.0006-.0018-.0013-.0037-.0027-.0056-.0019-.0026-.0045-.004-.0073-.0041-.0013,0-.0032.0004-.0047.0017-.0019.0016-.0026.0042-.002.0071l.001.0042c-.0028-.002-.0059-.003-.0082-.0031h-.0035c-.0033-.0001-.0086.0027-.0114.0078H.4321c-.0013-.0054-.0056-.0091-.0107-.0092-.0025,0-.0043.0007-.0054.0022-.0006.0008-.0008.0019-.0009.0029-.0017-.0031-.005-.0053-.0087-.0054-.0023,0-.004.0006-.0052.0017-.0022-.0017-.0049-.0028-.0073-.0028-.0038,0-.007.0016-.0089.0048-.0006.0011-.0011.0022-.0015.0035-.0009-.0011-.002-.0022-.0032-.0031-.0028-.0022-.0061-.0035-.0091-.0035l-.0091-.0002c-.0031,0-.0049.0014-.0057.0035l-.0002-.001c-.0014-.0062-.0078-.0116-.0121-.0118h-.0035c-.0044-.0001-.0061.0032-.0067.0061-.0004.0016-.0005.0035-.0006.0053-.0009-.0018-.002-.0037-.0032-.0054-.0041-.0056-.0084-.0069-.0113-.007-.0033,0-.006.0013-.0076.0039-.0012.002-.0016.0046-.0013.0073-.0057-.0031-.0117-.0049-.0175-.0049-.0184-.0004-.0296.0153-.0252.0349.0045.0196.0231.0359.0415.0363.0085.0001.0157-.0031.0204-.0093.0044-.0057.0061-.0134.0052-.0218.0023.0031.0049.0047.0076.0047.0041,0,.0056-.0032.0061-.0061.0008.0017.0018.003.0035.0048.0009.0009.002.0015.0031.0016l.0091.0002c.0011,0,.002-.0005.0025-.0014.0001-.0003.0002-.0006.0003-.001.0021.0018.0046.0032.0073.004h.0084c.0035-.0008.0061-.003.0074-.0061.0018.0032.0054.0054.009.0056.0054.0001.0073-.0039.0064-.0079l-.0043-.0186s.0005-.0001.0008-.0002l.003.0133c.0017.0074.0122.0146.0175.0148h.0035c.0028.0001.0059-.0014.0082-.004.0015-.0017.0025-.0036.0029-.0057.0016.0019.0035.0037.0056.0054.0051.004.0105.0066.0143.0066h.0035c.0062.0002.0161-.0054.0166-.0168.0001.0008.0004.0016.0006.0024,0,.0004.0001.0008.0003.0011.0007.0033.0016.0074.0047.0102.0018.0016.0038.0023.0061.0024.0037,0,.0058-.0026.0063-.0055.004.004.0087.0062.0132.0063.0056.0001.0097-.0023.0116-.0064.0017.0029.0052.0063.0092.0064.0042,0,.0066-.0028.0067-.0059.0017.003.005.0066.0092.0066.0022,0,.0041-.0008.0053-.0023.0006-.0008.001-.0016.0012-.0026.0018.0018.0042.0031.0066.0031.0042,0,.0067-.0034.0057-.0077-.001-.0043-.0052-.0079-.0093-.008l-.0002-.0003ZM.3596.3043l-.0009-.004c.0008.0009.0016.0017.0025.0023-.0006.0005-.0012.001-.0017.0016h0ZM.4546.3161c-.0019,0-.0061-.0026-.0069-.0061,0-.0003,0-.0005-.0001-.0008.0004.0005.0008.0009.0013.0013.0012.0011.0033.0024.0063.0025.0018,0,.0034-.0004.0046-.0013-.0003.0019-.002.0044-.0051.0043H.4546ZM.4904.3061l-.0004-.0017s.0003.0003.0005.0004c.0002.0002.0005.0004.0007.0006-.0003.0002-.0006.0005-.0008.0007Z"/>
            <path class="cls-20" d="M.5547.3203c-.0022,0-.0035.0018-.003.004.0005.0023.0028.0041.0049.0042.0022,0,.0035-.0018.003-.004-.0005-.0023-.0028-.0041-.0049-.0042ZM.5564.3277c-.0018,0-.0036-.0016-.004-.0033s.0007-.0032.0025-.0032c.0018,0,.0036.0016.004.0033s-.0007.0032-.0025.0032h0Z"/>
            <path class="cls-28" d="M.502.2938l-.0091-.0002c-.0042,0-.0034.004-.0032.0046.0008.0034.0037.0052.0059.0052.0027,0,.0028-.002.005-.002.0015,0,.003.0011.0032.0022.0011.0049-.0153,0-.0121.0137.0006.0028.0067.012.015.0121.0081.0001.0112-.0059.0096-.0129l-.003-.0128c-.0015-.0065-.0073-.0099-.0114-.01h0ZM.5067.3176s-.0006.0017-.0024.0016c-.0014,0-.0028-.0017-.003-.0026,0-.0002.0008-.0025.0034-.0025.0006,0,.0007,0,.0012,0l.0008.0034h0Z"/>
            <path class="cls-28" d="M.2952.2972c-.0114-.0002-.0185.0092-.0158.0212.0028.0119.0143.0218.0257.022s.0186-.0092.0158-.0212c-.0028-.0119-.0143-.0218-.0257-.022H.2952ZM.3039.3351c-.0083-.0001-.0167-.0076-.0188-.0165-.0011-.0047-.0002-.009.0021-.0119.0028.0026.0076.0052.0102.0039,0,0-.002-.0016-.002-.003,0-.0007.0064.0042.0104.001,0,0-.0049-.0018-.0059-.0054.0071.0018.0136.0083.0153.0161.002.009-.003.0161-.0114.016h0Z"/>
            <path class="cls-28" d="M.5341.2948l-.0178-.0004c-.0004.0011-.0011.0021-.0007.0038l.0061.0263c.0003.0011.0028.0047.0058.0048.0031,0,.0042-.0023.0039-.0037l-.0052-.0225h.0063s.0049.0214.0049.0214c.0002.0009.0026.0056.0061.0056.0028,0,.0042-.0022.0037-.0042l-.0056-.0242c-.0007-.0029-.0052-.0068-.0075-.0069h0Z"/>
            <path class="cls-28" d="M.3526.2895c-.0009-.0041-.0054-.0078-.0077-.0079h-.0035c-.0072-.0002-.0031.0168-.0054.0202-.0037-.0036-.0071-.021-.0164-.0212-.005,0-.0068.0043-.0059.0085l.0027.0116c.0001.0007,0,.0015.0006.0023.0023.0024.0042.0052.0058.008.0013.0025.0023.0052.003.0079.0033.0145-.0052.026-.0188.0257-.0138-.0003-.0275-.0122-.0308-.0267-.0033-.0145.0052-.026.0188-.0257.0048,0,.0095.0016.0139.0042.0014.0008.0024.0013.0036.0021l-.0015-.0063c-.0054-.0034-.0115-.0054-.0176-.0056-.0164-.0004-.0265.0136-.0225.0312.004.0176.0206.032.0371.0324.0157.0003.0253-.0127.0226-.0292,0,0-.0035-.0137-.0044-.0224.0056.0107.0095.0251.0149.0252.0064.0001.002-.0162.0043-.0253.0017.0055.005.0196.005.0196.0007.0028.0012.0038.0034.0061l.0091.0002c-.0016-.0032-.0035-.0068-.004-.0087,0,0-.0061-.0263-.0061-.0263Z"/>
            <path class="cls-28" d="M.4222.2909c-.0049,0-.0035.0037-.0029.0063l.0037.0162c.0004.0019-.0009.0038-.0023.0037-.0019,0-.0035-.0016-.0038-.003l-.0045-.0196c-.0005-.0022-.0024-.0039-.0052-.0039-.002,0-.0049.0006-.004.005l.0047.0204c.0012.0052.0095.0108.0131.0109h.0035c.0036.0001.01-.0045.0083-.0116l-.0044-.0191c-.0006-.0027-.0027-.0052-.0063-.0052H.4222Z"/>
            <path class="cls-28" d="M.4767.2933h-.0071c-.0028-.003-.0025-.0108-.008-.0109-.0014,0-.0048.0013-.004.005l.0054.0234c.0009.004-.002.0092-.0077.0092-.0038,0-.01-.0044-.0114-.01-.0008-.0033.0004-.0058.002-.0084h.002c.0005.0022.001.0077.0061.0078.0044,0,.0054-.0041.0047-.0071-.0018-.0078-.0088-.0099-.0109-.01h-.0035c-.0032-.0001-.0125.0054-.0101.0158l.0009.0038c.0019.0083.0146.0172.0205.0174h.0035c.0051.0001.0153-.0052.0136-.0174-.0001-.0009-.0015-.0064-.0023-.0098h.0063c.0002.0018.0016.0067.0038.0167.001.0044.0016.0097.0066.0099.0032,0,.004-.0035.0035-.005l-.0052-.0221c-.0009-.0039-.0051-.0081-.009-.0082h0Z"/>
            <path class="cls-28" d="M.3948.2895c-.0062-.0001-.0088.0062-.0078.0104l.0049.0212c.0006.0028.0034.0043.0057.0044.003,0,.0043-.0018.0037-.0042l-.0049-.0212c.0018-.0016.0066-.0001.0054-.0058-.0006-.0024-.0041-.0047-.007-.0048H.3948Z"/>
            <path class="cls-28" d="M.3721.2911l-.0091-.0002c-.0042,0-.0034.004-.0032.0046.0008.0034.0037.0052.0059.0052.0026,0,.0028-.002.005-.002.0015,0,.003.0011.0032.0022.0011.0049-.0153,0-.0121.0137.0006.0028.0067.012.015.0121.0081.0001.0112-.0059.0096-.0129l-.003-.0128c-.0015-.0065-.0073-.0099-.0113-.01ZM.3768.3149s-.0006.0017-.0024.0016c-.0014,0-.0028-.0017-.003-.0026,0-.0002.0008-.0025.0034-.0025.0006,0,.0007,0,.0012,0l.0008.0034H.3768Z"/>
            <polygon class="cls-28" points=".2955 .3137 .2938 .3159 .2912 .3136 .2928 .3114 .2955 .3137 .2955 .3137"/>
            <polygon class="cls-28" points=".3075 .3139 .3059 .3162 .3032 .3138 .3049 .3116 .3075 .3139 .3075 .3139"/>
            <path class="cls-28" d="M.2924.3186s.004.0021.0097.0016c0,0,.0034-.0004.0048-.0023l.0008-.0008s.0008-.0003.0013.0004c.0005.0007,0,.0013,0,.0013,0,0-.0026.0023-.0052.0023,0,0-.0047.0008-.0104-.0015l-.0011-.0004v-.0005h.0002Z"/>
            <polygon class="cls-28" points=".3003 .3171 .3009 .317 .3021 .3178 .3012 .3189 .2986 .3184 .2992 .3169 .3003 .3171"/>
            <path class="cls-20" d="M.557.3253s-.0004-.0004-.0005-.0005c0,0-.0002-.0001-.0004-.0002.0004,0,.0006-.0001.0007-.0004s.0001-.0004,0-.0006c0-.0002-.0001-.0004-.0003-.0006s-.0003-.0003-.0005-.0004-.0004-.0001-.0008-.0001h-.0017l.0008.0037h.0005l-.0004-.0016h.0008s.0001,0,.0003,0c0,0,.0002.0001.0003.0003.0001.0001.0003.0003.0005.0005l.0007.0008h.0006l-.0009-.001h0ZM.5556.3241h-.0011l-.0003-.0013h.0012s.0005,0,.0006.0002.0003.0003.0003.0004v.0004s-.0001.0001-.0002.0002h-.0006Z"/>
          </g>
          <g>
            <path class="cls-25" d="M.5.3718s.0301-.0441.0606-.0432c.0198.0006.0565.0126.0925.0421l-.036.0337-.0406-.0105s-.0766-.0221-.0766-.0221Z"/>
            <g class="cls-41">
              <path class="cls-5" d="M.5097.3718s.0283-.0353.0493-.0347c.0191.0005.0493.0058.0879.0384l-.0047.0058s-.0389-.0326-.074-.0358c-.0211-.0019-.0397.0155-.0509.0326l.0164-.0026s.0303-.0525.1031.0151"/>
            </g>
            <path class="cls-5" d="M.5.3718s.0301-.0441.0606-.0432c.0198.0006.0565.0126.0925.0421l-.036.0337-.0406-.0105s-.0766-.0221-.0766-.0221Z"/>
          </g>
          <path class="cls-5" d="M.5935.3356s.0141-.0253.0414-.0265c.0376-.0016.0667.0196.0672.0217s.0247.0147.0373.0057.0287-.0334.072-.006l.001.009s-.0375-.0259-.0656.0035l.0136.006s.0121-.0269.053.003"/>
          <g>
            <path class="cls-25" d="M.647.3714s.0393-.0531.0699-.0521c.0187.0006.0516.0197.0833.051.0047-.0063.0128-.0142.0164-.0169l.0088.0626-.1028.0021-.0756-.0469h0Z"/>
            <g class="cls-47">
              <path class="cls-5" d="M.6567.3714s.037-.0416.054-.0421c.0077-.0002.0293-.0068.0817.0458l-.0083.0021s-.0333-.0341-.0684-.0379c-.0097-.0011-.0402.0212-.0514.0384"/>
            </g>
            <path class="cls-5" d="M.647.3714s.0393-.0531.0699-.0521c.0187.0006.0516.0197.0833.051.0047-.0063.0128-.0142.0164-.0169l.0088.0626-.1028.0021-.0756-.0469h0Z"/>
          </g>
          <g>
            <path class="cls-25" d="M.4002.3608s.0175-.0255.0373-.0244.0517.0154.0876.0449l-.036.0337-.0406-.0105-.0484-.0437h0Z"/>
            <g class="cls-52">
              <path class="cls-5" d="M.4033.3687s.0164-.0248.0355-.0232.0416.0079.0802.0405l-.0047.0058s-.0699-.069-.0997-.0232l.0083.0058s.0133-.0409.0861.0267"/>
            </g>
            <path class="cls-5" d="M.4002.3608s.0175-.0255.0373-.0244.0517.0154.0876.0449l-.036.0337-.0406-.0105-.0484-.0437h0Z"/>
          </g>
          <path class="cls-3" d="M.1778.3356s.033-.0056.0687.0239.033.0232.033.0232c0,0,.0124.0056.022-.0064s.0392-.0493.077-.0317.1073.0627.1073.0627c0,0,.0076.0007.0165-.0113s.033-.0486.108.0049c0,0,.0413-.0662.1128.0049l.0151.0099s.0196-.0683.0825-.0345l.0175.1-.2285.0646-.3966.0456-.0355-.2559h0Z"/>
          <path class="cls-5" d="M.5268.5336s.0325-.0009.0277-.0364l-.01-.0044s.0116.0328-.0199.0345l-.0056-.004s.0256-.0018.0177-.0296l-.0087.0035s.0065.0226-.0121.0239c0,0,.0112-.0133.003-.0168l-.0134.0107"/>
          <g>
            <g>
              <g class="cls-46">
                <g>
                  <rect class="cls-25" x=".1622" y=".3758" width=".1175" height=".0822"/>
                  <path class="cls-6" d="M.2401.4033s-.0107.0088-.0076.0163.0172.0131.0172.0131l-.0037.0023s-.0267-.0013-.0214-.0246l-.0052.0034s-.0051.01.002.0162c.0059.0052.0529.0324.066.0303.0009-.0001.0082-.011.0103-.0064.0026.0059-.0539-.0178-.0543-.0268-.0003-.0056.0639.0092.0571.0225l-.0303.031s-.0616-.036-.0612-.0514c0,0-.0012-.0158.0055-.0183"/>
                </g>
              </g>
              <path class="cls-6" d="M.2594.4115s-.0074-.0053-.0118-.0012-.0095.0127.0023.0192c0,0,.0438.0134.0458.0153-.0272.0006-.065.0472-.0887.031-.0111-.0076-.0225-.0558-.0368-.0608l.0071-.0025s.0074-.0034.0126-.0026l.0051.0007s.0146-.0194.0299-.0108c.0003.0002.01-.0161.0215-.0125,0,0,.0082.0026.0069.0113,0,0,.0136-.0038.0181.0046,0,.0005.0059.0103-.0049.0153l-.0071-.007Z"/>
            </g>
            <path class="cls-16" d="M.1699.4168s.0037-.0134.0241-.0088c0,0,.0125-.0183.0311-.0113,0,0,.0064-.0129.0189-.0133,0,0,.0114-.0001.0118.0115,0,0,.013-.0004.0172.0058.0071.0105-.0017.0179-.0017.0179,0,0-.0079.0066-.0141.0004,0,0-.0046-.0074.0013-.0093,0,0,.0071-.0023.0079.0051,0,0,.0083-.0037.0008-.0115,0,0-.0079-.0036-.0157.0014,0,0-.0073.0053-.0121.001,0,0-.0015-.0033.001-.0058.0015-.0015.0071-.0036.0102-.0007,0,0,.0023-.0041-.002-.0073-.0065-.0049-.0197.0047-.0207.0109,0,0,.0008.0115-.0079.0132-.0064.0013-.0085-.0005-.0097-.0026s.0018-.006.0059-.006.0049.0024.0049.0024c0,0,.0041-.0019.0023-.0058s-.0136-.0038-.0202.0048l-.0044.0067s-.0005.0017-.0023.0024-.0018-.0041-.0051-.005-.014-.0007-.0156.0067l-.0056-.0026v-.0002Z"/>
            <path class="cls-6" d="M.21.4132l.0145-.0028.0006-.0137s-.0268.0014-.0302.0138c0,0,.006.0103-.0029.0162"/>
            <circle class="cls-16" cx=".2851" cy=".4002" r=".0052"/>
            <circle class="cls-16" cx=".2814" cy=".3851" r=".004"/>
            <circle class="cls-16" cx=".1911" cy=".3989" r=".004"/>
          </g>
          <g>
            <path class="cls-25" d="M.1995.5025s-.0057-.0349.0352-.038c.0198-.0015.0772.0158.098.0625l-.0442.0298-.0406-.0105s-.0484-.0437-.0484-.0437Z"/>
            <g class="cls-45">
              <path class="cls-5" d="M.1952.4969s.0234-.022.0424-.0204.0445.0103.083.043l-.0035.0133c-.0025-.0112-.0841-.0822-.1107-.0244l.0073.0018s.0159-.0357.0714.0053c.0065.0048.0136.0107.0212.0177l-.0082.0066s-.0359-.0359-.0636-.0323c0,0-.0134.0013-.0186.0222"/>
            </g>
            <path class="cls-5" d="M.1995.5025s-.0057-.0349.0352-.038c.0198-.0015.0772.0158.098.0625l-.0442.0298-.0406-.0105s-.0484-.0437-.0484-.0437Z"/>
          </g>
          <g>
            <g>
              <g class="cls-44">
                <g>
                  <polygon class="cls-25" points=".3696 .5513 .2579 .5266 .2748 .4462 .3865 .471 .3696 .5513"/>
                  <path class="cls-6" d="M.3186.5102"/>
                  <path class="cls-6" d="M.3089.4822c-.0004-.0027.0073.0123.0038.0268-.0019.0079-.0091.0097-.0091.0097l.02-.0104s.0041-.0222-.0177-.0292"/>
                </g>
              </g>
              <path class="cls-6" d="M.2864.4841s.0097.0016.013.0066.0121.0205-.0004.0244c0,0-.0132.0291-.0156.0306-.0105.0064.0136.0233.0395.0124.0121-.0051.033-.0498.0475-.0517l-.0061-.004s-.0064-.0049-.0114-.0052l-.005-.0004s-.0098-.0221-.0262-.0169c-.0003.0002-.0061-.0178-.0179-.0167,0,0-.0083.0008-.0089.0095,0,0-.0121-.0066-.0182.0006,0,.0005-.0077.0088.0015.016l.0083-.0053h0Z"/>
            </g>
            <path class="cls-16" d="M.3704.5081s-.0008-.0139-.0211-.0136c0,0-.008-.0205-.0273-.0176,0,0-.003-.0129-.0148-.016,0,0-.0112-.0036-.014.0077,0,0-.0123-.0031-.0175.002-.0089.0088-.002.0178-.002.0178,0,0,.0061.0081.0133.0034,0,0,.0059-.0063.0008-.0094,0,0-.0062-.0037-.0085.0033,0,0-.0071-.0054.0016-.0114,0,0,.009.001.0155.0076,0,0,.0058.0067.0113.0035,0,0,.002-.0029.0002-.0059-.0011-.0018-.0061-.005-.0096-.0029,0,0-.0013-.004.0035-.0064.0071-.0035.0169.0055.0166.0119,0,0,.0092-.0025.0117.0006.0016.0019.0082.0062-.0039.0177l.0172.0003s.0001.0018.0017.0028.0194-.0016.0193.006l.0059-.0014h0Z"/>
            <path class="cls-6" d="M.333.4961l-.0024-.01-.0085-.0093s.0253.0071.0258.0198c0,0-.0078.0088-.0006.0164"/>
            <circle class="cls-16" cx=".2643" cy=".4677" r=".005"/>
            <circle class="cls-16" cx=".2708" cy=".4537" r=".0039"/>
            <circle class="cls-16" cx=".3539" cy=".4862" r=".0039"/>
          </g>
          <g>
            <path class="cls-25" d="M.2245.5803l.0545-.0553s.024-.022.0478-.0227c.0185-.0005.0319-.0026.0781.0347l.1285.0058.0766-.0437s.0341-.0427.0663-.0469c.0493-.0063.0822.0353.0822.0353,0,0,.0169-.0248.036-.0258.0278-.0016.0509.0205.0509.0205l.0047.0589-.3814.0332-.2478.0395.0036-.0337h0Z"/>
            <g class="cls-48">
              <path class="cls-5" d="M.2502.5667s.0296-.0307.039-.0379c.0144-.0111.0313-.0174.0416-.0163s.0272,0,.0627.0295l.075.0326.1486-.0668s.0364-.0458.072-.0458c.0241,0,.0473.0079.0699.0368,0,0,.0216-.0281.038-.0284.0283-.0005.0421.0152.0421.0152l.0005.0079s-.0247-.0216-.0452-.0148c0,0-.0169.0079-.036.0316l-.0067-.0042s-.036-.0374-.0632-.0364c0,0-.0309.0011-.0587.0405l.0047.0105s.0257-.0379.0488-.0405c0,0,.0211-.0084.0452.0184,0,0,.0305.0294.0376.0184.0071-.0111.0253-.0265.036-.03.0319-.0103.0684.0595.052.069-.0003.0002-.0978-.0272-.1067-.026-.0576.008-.2768.0392-.2768.0392l-.0843-.0216s-.0344-.0311-.0555-.0268-.056.0337-.056.0337l.0247-.0037s.019-.0198.0344-.0195c.0262.0005.0437.0237.052.0342"/>
            </g>
            <path class="cls-5" d="M.2245.5803l.0545-.0553s.024-.022.0478-.0227c.0185-.0005.0319-.0026.0781.0347l.1285.0058.0766-.0437s.0341-.0427.0663-.0469c.0493-.0063.0822.0353.0822.0353,0,0,.0169-.0248.036-.0258.0278-.0016.0509.0205.0509.0205l.0047.0589-.3814.0332-.2478.0395.0036-.0337h0Z"/>
          </g>
          <g>
            <g>
              <g class="cls-50">
                <g>
                  <rect class="cls-25" x=".1571" y=".508" width=".1175" height=".0822"/>
                  <path class="cls-6" d="M.2327.5429s-.0123.0122-.0092.0197.0127.0117.0127.0117"/>
                </g>
              </g>
              <path class="cls-6" d="M.2575.5486s-.0107,0-.015.004-.0131.0196-.0013.026c0,0,.0474-.0035.0495-.0016.0092.0085-.065.0472-.0887.031-.0111-.0076-.0225-.0558-.0368-.0608l.0071-.0025s.0074-.0034.0126-.0026l.0051.0007s.0146-.0194.0299-.0108c.0003.0002.002-.0109.0135-.0073,0,0,.0114-.0003.0102.0083,0,0,.0183-.0061.0229.0023,0,.0005.0059.0103-.0049.0153l-.004-.0021h0Z"/>
            </g>
            <path class="cls-16" d="M.1648.549s.0037-.0134.0241-.0088c0,0,.0125-.0183.0311-.0113,0,0-.0029-.008.0096-.0084,0,0,.0109.0017.0138.0092,0,0,.0158-.0079.0244.0032.0077.01.002.0159.002.0159.001-.0006-.0048.0066-.0138.002,0,0-.0062-.0068-.0004-.0088,0,0,.0063-.0033.0071.0041,0,0,.0088-.0016-.0008-.0109,0,0-.0083-.0031-.0145-.0003-.0037.0017-.0028.0096-.0081.0108,0,0-.0053.0001-.0102-.0042,0,0-.0035-.0048.0041-.0083.0019-.0008.0026-.0008.0057.002,0,0,.0003-.0021-.0041-.0054-.0065-.0049-.0113-.0015-.0123.0048,0,0,.0008.0115-.0079.0132-.0064.0013-.0085-.0005-.0097-.0026s.0018-.006.0059-.006.0049.0024.0049.0024c0,0,.0041-.0019.0023-.0058s-.0136-.0038-.0202.0048l-.0044.0067s-.0005.0017-.0023.0024-.0018-.0041-.0051-.005-.014-.0007-.0156.0067c0,0-.0056-.0026-.0056-.0026Z"/>
            <path class="cls-6" d="M.2049.5454l.0145-.0028.0006-.0137s-.0268.0014-.0302.0138c0,0,.006.0103-.0029.0162"/>
            <circle class="cls-16" cx=".2496" cy=".5163" r=".0038"/>
            <circle class="cls-16" cx=".1861" cy=".5312" r=".004"/>
          </g>
          <g>
            <path class="cls-25" d="M.225.5852c.0151-.0191.0335-.0347.0531-.0379,0,0,.026-.0033.0618.0066.0096.0027.0246.0038.0418-.0076.0055-.0037.0336-.0253.05-.0397.0193-.0171.0619-.01.1119.0352.0198.0179.056.029.1172-.0114.0128-.0085.0361-.0527.0731-.0344.0371.0183.0464.0383.0582.026.0092-.0097.0388-.0413.1015-.0016l-.0232.1016-.6297.0657s-.025-.0906-.0157-.1023h0Z"/>
            <g class="cls-49">
              <path class="cls-5" d="M.231.602s.0208-.0348.0455-.0413c.0035-.0009.02-.0078.0679.0114,0,0,.0239-.003.0589-.0283,0,0,.0388-.0367.0582-.0344,0,0,.0194-.0068.0679.0328,0,0,.1179.0092.1448-.0122s.0321-.0275.047-.0268c0,0,.0232-.003.0493.029,0,0,.0097.0176.0351-.0084s.0552-.0076.0552-.0076l-.0104.0054s-.0253-.01-.0425.016l-.0284.0107-.1895.0184-.0702-.0206s-.0286-.0214-.0358-.0244c-.009-.0038-.0291-.0145-.0694.0275,0,0-.0291.0268-.0619.0306s-.0477-.0152-.0746-.0076c0,0-.0246.0092-.0328.0344l-.0142.0084c.0023.0008.0284-.0068.0284-.0068-.0006.0012.006-.0225.0261-.026.0184-.0032.0425.0092.0604.0114s.0709-.0244.094-.0504.0493-.0084.0493-.0084c.003.0023.0485.0328.0686.0405l-.2156.0344s-.0493-.0344-.0731-.003"/>
            </g>
            <path class="cls-5" d="M.225.5852c.0151-.0191.0335-.0347.0531-.0379,0,0,.026-.0033.0618.0066.0096.0027.0246.0038.0418-.0076.0055-.0037.0336-.0253.05-.0397.0193-.0171.0619-.01.1119.0352.0198.0179.056.029.1172-.0114.0128-.0085.0361-.0527.0731-.0344.0371.0183.0464.0383.0582.026.0092-.0097.0388-.0413.1015-.0016l-.0232.1016-.6297.0657s-.025-.0906-.0157-.1023h0Z"/>
          </g>
          <g>
            <path class="cls-25" d="M.2246.5939s.047.0006.0761.033l-.0588.0424-.0173-.0754Z"/>
            <g class="cls-53">
              <path class="cls-5" d="M.2235.6052s.0418-.0092.0723.032l-.0087.0054s-.0138-.032-.0595-.0285l.005.0092s.0355-.0032.046.0268l-.0108.0082s-.0128-.0257-.0383-.0239l.0108.0128s.0177,0,.0205.0167"/>
            </g>
            <path class="cls-5" d="M.2246.5939s.047.0006.0761.033l-.0588.0424-.0173-.0754Z"/>
          </g>
          <g>
            <g>
              <g class="cls-51">
                <g>
                  <polygon class="cls-25" points=".8002 .5645 .6986 .5867 .6785 .5067 .78 .4844 .8002 .5645"/>
                  <path class="cls-4" d="M.7195.5259s.0114.0065.0105.0144-.0116.016-.0116.016l.0038.0016s.0227-.0063.0124-.028l.0069.0002s.0086.0101.004.0176-.0203.0141-.0203.0141l.0124.0063s.0208-.0142.0167-.0292c0,0-.0025-.0102-.009-.0114"/>
                </g>
              </g>
              <path class="cls-4" d="M.7049.5376s.0051-.0066.0099-.0034.0113.0106.0028.0191c0,0,.0143.0087.0168.0094s.013.0043.0203-.0056.0172-.0253.0282-.0329l-.0067-.0011s-.0072-.0018-.0115-.0002l-.0042.0017s-.0174-.0162-.0285-.0049c-.0001.0003-.0126-.0138-.0216-.008,0,0-.0064.0041-.0032.0123,0,0-.0126-.0012-.0145.0078.0001.0005-.0025.0112.008.014l.0044-.0081h0Z"/>
            </g>
            <path class="cls-16" d="M.7834.5258s-.0065-.0124-.0229-.004c0,0-.0152-.0155-.0297-.0051,0,0-.0088-.0113-.0196-.0093,0,0-.0098.002-.0073.0134,0,0-.0114.0021-.0134.0088-.0035.0116.0059.017.0059.017,0,0,.0085.0049.0123-.0023,0,0,.0021-.008-.0034-.0089,0,0-.0067-.0009-.0056.0064,0,0-.008-.002-.0035-.0111,0,0,.0059-.005.014-.0016,0,0,.0076.0038.0107-.0013,0,0,.0004-.0035-.0023-.0054-.0016-.0011-.0071-.0021-.009.0012,0,0-.003-.0035,0-.0076.0044-.006.0181.0009.0206.0068,0,0,.0022.0114.0101.0114.0059,0,.0072-.002.0078-.0044s-.003-.0055-.0066-.0047-.0036.0032-.0036.0032c0,0-.004-.0011-.0034-.0052s.0107-.0063.0186.0008l.0054.0057s.0008.0016.0026.0019.0006-.0043.0032-.0059.012-.0034.0151.0036l.0042-.0036h0Z"/>
            <path class="cls-4" d="M.7478.5299h-.0132l-.0039-.0132s.0236-.0037.0295.0078c0,0-.0027.0112.0065.0152"/>
            <circle class="cls-16" cx=".6745" cy=".5148" r=".0047"/>
            <circle class="cls-16" cx=".6844" cy=".4339" r=".0047"/>
            <circle class="cls-16" cx=".6018" cy=".5462" r=".0047"/>
            <circle class="cls-16" cx=".6856" cy=".5213" r=".0037"/>
            <circle class="cls-16" cx=".6739" cy=".4424" r=".0037"/>
            <circle class="cls-16" cx=".7607" cy=".5124" r=".0037"/>
          </g>
          <path class="cls-5" d="M.6245.4359s.0316-.058.079-.0143c-.0007,0,.0126.0235.0385.0169.022-.0056.033-.062.0825-.031l.0049.0262.0066.0212s-.0127-.0038-.0234.0081l-.0112-.0011s.0116-.0179.0366-.0196l-.0064-.0076s-.0138-.0071-.0435.0272l-.0175.0038c.0032.0006.0297-.0397.061-.0413"/>
          <path class="cls-5" d="M.1775.3519c.0028.0007.0309-.0176.0599.0106s.0433.0331.0433.0331c0,0,.0175.0078.0349-.0152.0106-.014.0229-.0333.0442-.0298s.0557.0253.0557.0253l.0687.0416s.0109.0005.0248-.0162c.0158-.019.0268-.0204.0358-.0204.0118,0,.0296.0014.0612.0275,0,0,.009.0134.0138.0035s.0268-.0324.0468-.0303c0,0,.0234.0028.0468.0303,0,0,.0248.019.0303.0064s.0378-.0507.0757-.0268l.0035.0099s-.0241-.0155-.0419-.0071c0,0-.02.0099-.0344.0338,0,0-.0241.0056-.0316-.0056s-.0323-.043-.075-.019l-.022.0225s-.0378-.0388-.0647-.0352c0,0-.0213.0028-.0385.0197l-.0275.0155-.0275-.0113s-.0897-.0611-.1064-.0568-.0251.0214-.0292.0304-.0162.0262-.0446.0165c-.015-.0052-.0523-.0366-.0523-.0366,0,0-.0172-.0162-.0474-.0085l.0055.0078s.022-.0064.0536.0211c0,0,.0321.0289.0571.0289.0131,0,.0241.0012.0311-.0095.0064-.0097.0198-.0395.0322-.038s.031.0073.0613.0313l.0702.0373"/>
          <path class="cls-5" d="M.7895.4446c-.0472-.0103-.079.0109-.079.0109l-.0138-.0038c.0467-.0353.1008-.0125.1008-.0125l.009-.0071s-.0164-.0119-.0679-.0092c-.0349.0018-.0562.0277-.0562.0277l-.0133.0032s-.0281-.0364-.0843-.006l.0069.0087s.0308-.0185.0668.0006c-.0011.0011-.0154.0103-.0154.0103,0,0-.0175-.0201-.0557-.0016"/>
          <g>
            <path class="cls-25" d="M.4753.5603s.0426-.0106.075-.0324.0577-.0409.0825-.0268.0401.0248.0414.0289.0102.0407.0102.0407l-.2056.0056-.0035-.0162h0Z"/>
            <g class="cls-42">
              <path class="cls-5" d="M.469.5758s.0543-.0127.0867-.0423.0557-.0338.0743-.0232.0516.0317.0516.0317l.0028.0099-.0351-.0204s-.0206-.0246-.0461-.0162c0,0-.02.0064-.0371.0253s-.077.0437-.0805.0444.0447-.0042.0447-.0042c0,0,.0454-.0324.0536-.0409s.0248-.0246.0509-.0078.0536.0317.0536.0317"/>
            </g>
            <path class="cls-5" d="M.4753.5603s.0426-.0106.075-.0324.0577-.0409.0825-.0268.0401.0248.0414.0289.0102.0407.0102.0407l-.2056.0056-.0035-.0162h0Z"/>
          </g>
          <g>
            <path class="cls-25" d="M.361.6026s.0282-.0514.066-.0591c0,0,.0248-.0071.0591.0183,0,0,.02.0197.0261.0162s.0289-.0289.0468-.0317.0468.0106.0619.026l.1321.0092s.0076-.0648.097-.0402l.0206.0859-.0536-.0021-.4587-.0021.0028-.0204h0Z"/>
            <g class="cls-43">
              <path class="cls-5" d="M.3658.63s.0227-.0683.0715-.0747c0,0,.0296-.0007.0605.0331.0028.0014.0124.0113.0213-.0021s.0351-.0331.0529-.0303c0,0,.0371.0071.0488.0388l.1486-.0056s.022-.0613.0825-.0373l.002.0141s-.0516-.0331-.0667.0268l.0131.0071s-.0028-.0563.0571-.0246l-.0131.0246.0041.0099.0151-.0169.0013.0225-.3742-.0134s-.022-.0423-.0599-.0366c0,0-.0371.0099-.0378.0458l.0241-.0211s.0117-.0282.0406-.0078"/>
            </g>
            <path class="cls-5" d="M.361.6026s.0282-.0514.066-.0591c0,0,.0248-.0071.0591.0183,0,0,.02.0197.0261.0162s.0289-.0289.0468-.0317.0468.0106.0619.026l.1321.0092s.0076-.0648.097-.0402l.0206.0859-.0536-.0021-.4587-.0021.0028-.0204h0Z"/>
          </g>
          <path class="cls-21" d="M.2358.6678s.0691-.0846.3224-.1022c.1931-.0134.3085.0436.3085.0436l.0311.1324-.0565.0796-.5295.0294-.0647-.0503-.0114-.1324h0Z"/>
          <g>
            <polygon class="cls-1" points=".5992 .308 .6168 .2805 .647 .2801 .6763 .3105 .6821 .3457 .665 .3732 .6344 .374 .6055 .3435 .5992 .308"/>
            <polygon class="cls-8" points=".6046 .3088 .6202 .2857 .6474 .2857 .6717 .3109 .6775 .344 .6637 .3672 .6347 .3672 .61 .3411 .6046 .3088"/>
          </g>
          <g>
            <polygon class="cls-1" points=".6759 .3084 .6934 .2809 .7236 .2805 .7529 .3109 .7588 .3462 .7416 .3736 .7111 .3745 .6821 .344 .6759 .3084"/>
            <polygon class="cls-8" points=".6813 .3092 .6966 .2861 .7236 .2861 .7476 .3114 .7534 .3444 .7397 .3676 .711 .3676 .6866 .3416 .6813 .3092"/>
          </g>
          <g>
            <polygon class="cls-1" points=".6939 .4019 .7115 .3745 .7416 .374 .768 .4028 .7789 .465 .7056 .4667 .6939 .4019"/>
            <polygon class="cls-8" points=".6994 .4024 .7141 .3796 .7401 .3796 .7633 .4045 .7689 .4371 .7557 .4599 .728 .4599 .7044 .4342 .6994 .4024"/>
          </g>
          <path class="cls-29" d="M.6139.4913l-.0319-.0654s-.0622-.0033-.0867.0117-.0433.0193-.0573.01-.0671-.0218-.0916-.0008-.0248.0275-.0237.0327c.0032.016.0182.0253.0802.031.0638.0059.1359-.01.1539-.0151"/>
          <polygon class="cls-1" points=".7068 .4774 .781 .4762 .7789 .465 .7056 .4667 .7068 .4774"/>
          <polygon class="cls-1" points=".665 .3732 .6939 .4019 .7115 .3745 .6821 .344 .665 .3732"/>
          <path class="cls-27" d="M.5444.4991c.0392-.0166.0648-.0109.0648-.0109.0038.0018.0149.0126-.0167.0114s-.0409.0109-.0409.0109l-.0073-.0114h0Z"/>
          <g>
            <g>
              <polygon class="cls-16" points=".2929 .4441 .2917 .4654 .3072 .4643 .3077 .4429 .3339 .4037 .3157 .4055 .3021 .4268 .2937 .4092 .2768 .4129 .2929 .4441"/>
              <path class="cls-21" d="M.3339.4038l-.0262.0392-.0006.0215-.0155.0011.0012-.0214s-.0148-.0308-.016-.0312c-.0012-.0004.0168-.0037.0168-.0037l.0084.0176.0136-.0213.0181-.0018M.3339.3987h-.0005l-.0181.0018c-.0015.0001-.0029.001-.0037.0023l-.0088.0138-.0046-.0095c-.0008-.0018-.0026-.0028-.0045-.0028-.0003,0-.0006,0-.0009,0-.0195.0036-.0207.0038-.021.0083-.0001.0023.0013.0044.0035.0052-.0008.0005.0067.0153.0131.0286l-.0017.0189c0,.0015.0005.0028.0015.0038.0009.0009.0022.0015.0035.0015h.0004l.0155-.0011c.0025-.0001.0045-.0023.0046-.0048l.0006-.0215.0253-.0366c.0011-.0016.0011-.0037.0001-.0053-.0009-.0015-.0025-.0025-.0042-.0025h0Z"/>
            </g>
            <g>
              <path class="cls-16" d="M.3246.4592l.0064-.0451s.0016-.0111.0108-.0123l.0289-.0029s.0107-.002.0095.0116l-.0074.0424-.0139.0006.0013-.0115-.0197.0018-.0014.0147-.0144.0008h0Z"/>
              <path class="cls-21" d="M.372.3989c.0028,0,.009.0011.0081.0116l-.0075.0424-.0139.0006.0013-.0116-.0197.0018-.0014.0147-.0144.0007.0064-.045s.0016-.0111.0108-.0124l.0289-.0029s.0006,0,.0013,0M.372.3939s-.002.0001-.0023.0001l-.0284.0028c-.0104.0014-.0145.0111-.0152.0165l-.0064.0451c-.0002.0015.0003.003.0013.004.0009.0011.0023.0016.0037.0016h.0003l.0145-.0007c.0025-.0001.0044-.002.0047-.0045l.001-.0106.0095-.0008-.0006.0055c-.0001.0014.0003.0029.0013.004.0009.001.0023.0016.0037.0016h.0002l.0139-.0006c.0023-.0001.0043-.0018.0047-.0042l.0074-.0424c.0006-.0061-.0006-.0104-.0034-.0136-.0023-.0026-.0058-.004-.0096-.004h0Z"/>
            </g>
            <g>
              <polygon class="cls-16" points=".3891 .397 .3795 .4514 .3937 .4501 .3992 .4256 .408 .4489 .4236 .4479 .4119 .4145 .433 .3951 .4171 .3955 .4016 .4094 .4034 .3959 .3891 .397"/>
              <path class="cls-21" d="M.433.3951l-.021.0193.0116.0335-.0157.001-.0088-.0233-.0055.0244-.0141.0014.0095-.0543.0143-.0011-.0017.0135.0155-.0139.0159-.0004M.433.3901h-.0001l-.0159.0004-.0088.0072v-.0011c.0004-.0015-.0001-.003-.0012-.0041-.0009-.001-.0023-.0016-.0036-.0016h-.0004l-.0143.0011c-.0023.0001-.0041.0018-.0045.0041l-.0095.0543c-.0003.0016.0002.0031.0013.0042.0009.001.0023.0016.0037.0016h.0005l.0141-.0014c.0021-.0002.0039-.0018.0044-.0039l.0019-.0083.0029.0078c.0007.0019.0026.0032.0047.0032h.0003l.0157-.0011c.0016,0,.003-.0009.0038-.0022s.0011-.003.0006-.0044l-.0106-.0304.0186-.0172c.0016-.0014.002-.0036.0013-.0055s-.0026-.0032-.0046-.0032h0Z"/>
            </g>
            <polygon class="cls-21" points=".3427 .4313 .3625 .4299 .3644 .4131 .3446 .4146 .3427 .4313"/>
            <g>
              <polygon class="cls-16" points=".4249 .4475 .4351 .3951 .4492 .3947 .4381 .4473 .4249 .4475"/>
              <path class="cls-21" d="M.4492.3947l-.0111.0526-.0132.0002.0101-.0524.0141-.0004M.4492.3897h-.0001l-.0141.0004c-.0023,0-.0043.0018-.0047.004l-.0101.0524c-.0003.0015.0001.003.0011.0042s.0023.0018.0038.0018h0l.0132-.0002c.0023,0,.0043-.0017.0048-.004l.0111-.0526c.0003-.0015,0-.003-.0011-.0042-.0009-.0011-.0023-.0018-.0038-.0018h0Z"/>
            </g>
            <g>
              <polygon class="cls-16" points=".4544 .4479 .5015 .3951 .4822 .4482 .4544 .4479"/>
              <path class="cls-21" d="M.4721.3941c.008,0,.0194,0,.0231.0004.0059.0006.0054.0055.0054.0055l-.0002.0106-.0145.0004v-.0044s-.018.0002-.018.0002c-.0019.0011-.0023.0073-.0023.0073l.0208.0009c.0032.0002.012-.0004.0084.0157-.0033.0146-.0107.0152-.012.0152h-.0002s-.0217,0-.0282-.0001c-.0065-.0002-.0071-.0068-.0071-.0068,0,0,.0004-.0086.0006-.0092,0-.0001.0008-.0002.002-.0002.0039,0,.0119.0006.0119.0006v.0027l.0181.0004.0013-.0078s-.0072.0005-.0145.0005c-.003,0-.0059,0-.0085-.0003-.0086-.0008-.0084-.0092-.0052-.019.0032-.0098.0103-.0124.0103-.0124h.0086M.4721.3891h-.0086c-.0026.0006-.0112.004-.015.0157-.003.0088-.003.0153-.0004.0198-.0021.0006-.0045.0018-.0049.0035-.0002.0006-.0004.0011-.0008.0104.0004.0051.0039.0118.0119.0121.0066.0001.0284.0001.0284.0001H.4826c.0023,0,.0129-.001.0171-.0191.0016-.0071.0013-.0124-.0011-.016h.0018c.0027-.0001.0048-.0023.0049-.0049l.0002-.0106s.0003-.0036-.0021-.0067c-.0012-.0015-.0035-.0034-.0077-.0038-.0038-.0004-.0154-.0004-.0236-.0004h0Z"/>
            </g>
            <g>
              <path class="cls-16" d="M.5336.4486h0ZM.5225.4482h0ZM.5222.4482h0Z"/>
              <path class="cls-21" d="M.5185.3951h.0009l.0281.0011s.0097.0012.0061.0141c-.004.0141-.0073.0254-.0073.0254,0,0-.0035.0103-.0126.0103s-.0256-.0006-.0256-.0006c0,0-.0111,0-.0088-.0121s.0082-.0299.0082-.0305c0-.0005.0032-.0078.0109-.0078M.5185.3901c-.0104,0-.0159.0095-.0159.0128-.0028.0083-.0064.0205-.0081.0296-.0013.0067.0007.0108.0026.0131.004.0049.0104.005.0111.005-.0001,0,.0164.0006.0256.0006.0101,0,.0156-.0087.0174-.0138l.0073-.0256c.0017-.006.0013-.0109-.0013-.0148-.0032-.0048-.0085-.0056-.009-.0057l-.0284-.0012h-.0012Z"/>
            </g>
            <polygon class="cls-21" points=".5137 .4332 .5332 .4338 .5397 .4087 .5204 .4083 .5137 .4332"/>
            <g>
              <path class="cls-16" d="M.5853.452h0Z"/>
              <path class="cls-21" d="M.5648.3984l.0331.0033s.0095.002.008.0099c-.0018.0092-.0044.0107-.0077.0128,0,0,.0059.0041.0012.0151-.0047.0107-.0093.01-.0129.0102h-.0007c-.006,0-.0364-.0027-.0364-.0027l.0154-.0487M.5648.3934c-.0021,0-.0041.0014-.0047.0035l-.0154.0487c-.0005.0015-.0002.003.0006.0042.0008.0013.0022.002.0037.0022,0,0,.0307.0028.0368.0028.0072-.0004.0131-.0017.0181-.0133.0032-.0073.0025-.0126.0011-.0161.0025-.0025.0044-.006.0058-.0129.0018-.0092-.0061-.0145-.0119-.0157l-.0336-.0034h-.0005Z"/>
            </g>
            <g>
              <path class="cls-16" d="M.5992.4512l.0131-.0377s.0034-.0094.0136-.0078.024.0035.024.0035c0,0,.0128.0013.0076.0147s-.0125.0342-.0125.0342l-.0136-.0016.0037-.0115-.0183-.0027-.0039.0107-.0136-.0019h0Z"/>
              <path class="cls-21" d="M.6235.4056c.0007,0,.0015,0,.0023.0001.0102.0016.024.0035.024.0035,0,0,.0128.0013.0076.0147-.0052.0133-.0126.0342-.0126.0342l-.0136-.0016.0037-.0115-.0183-.0027-.0039.0107-.0136-.0018.0131-.0377s.0029-.0079.0113-.0079M.6235.4006c-.0094,0-.0145.0071-.016.0112l-.0131.0378c-.0005.0014-.0003.003.0005.0042s.0021.0022.0036.0023l.0136.0019h.0007c.002,0,.004-.0013.0047-.0032l.0025-.0069.0085.0013-.0019.0059c-.0004.0014-.0002.003.0006.0042s.0021.002.0036.0023l.0136.0016h.0006c.0021,0,.004-.0013.0047-.0034,0,0,.0073-.0208.0125-.034.0023-.0057.0021-.0107-.0003-.0146-.0036-.0059-.0106-.0068-.0114-.0068h0s-.0137-.0018-.0238-.0035l-.003-.0003h0Z"/>
            </g>
            <polygon class="cls-21" points=".6211 .4317 .6391 .4338 .6438 .4205 .625 .4187 .6211 .4317"/>
            <path class="cls-21" d="M.5741.4112l-.0016.0078.0146.0013s.0016-.0008.0026-.004c.0013-.004-.0023-.004-.0023-.004l-.0133-.0011Z"/>
            <path class="cls-21" d="M.5705.4287l-.0023.0072.0146.0006s.0026.0006.0034-.003c.0009-.0041-.0029-.0043-.0029-.0043l-.0128-.0006h0Z"/>
          </g>
          <g>
            <g>
              <polygon class="cls-16" points=".2929 .4407 .2917 .4621 .3072 .4609 .3077 .4395 .3339 .4004 .3157 .4021 .3021 .4235 .2937 .4059 .2768 .4095 .2929 .4407"/>
              <path class="cls-21" d="M.3339.4004l-.0262.0391-.0006.0215-.0155.0011.0012-.0213s-.0148-.0308-.016-.0312c-.0012-.0004.0168-.0037.0168-.0037l.0084.0176.0136-.0213.0181-.0018M.3339.3954h-.0005l-.0181.0018c-.0015.0001-.0029.001-.0037.0023l-.0088.0138-.0046-.0095c-.0008-.0018-.0026-.0028-.0045-.0028-.0003,0-.0006,0-.0009,0-.0195.0036-.0207.0038-.021.0083-.0001.0023.0013.0044.0035.0052-.0008.0005.0067.0153.0131.0286l-.0017.0188c0,.0015.0005.0028.0015.0038.0009.0009.0022.0015.0035.0015h.0004l.0155-.0011c.0025-.0001.0046-.0023.0047-.0048l.0006-.0215.0253-.0365c.0011-.0016.0011-.0037.0001-.0053-.0009-.0015-.0025-.0025-.0042-.0025h0Z"/>
            </g>
            <g>
              <path class="cls-16" d="M.3246.4558l.0064-.0451s.0016-.0111.0108-.0123l.0289-.0029s.0107-.002.0095.0116l-.0074.0424-.0139.0006.0013-.0115-.0197.0018-.0014.0147-.0144.0008h0Z"/>
              <path class="cls-21" d="M.372.3955c.0028,0,.009.0011.0081.0116l-.0075.0424-.0139.0006.0013-.0116-.0197.0018-.0014.0147-.0144.0008.0064-.045s.0016-.0111.0108-.0124l.0289-.0029s.0006,0,.0013,0M.372.3905s-.002.0001-.0023.0001l-.0284.0028c-.0104.0013-.0145.011-.0152.0165l-.0064.0451c-.0002.0015.0003.003.0013.004.0009.0011.0023.0016.0037.0016h.0003l.0145-.0008c.0025-.0001.0044-.002.0047-.0045l.001-.0105.0095-.0008-.0006.0055c-.0001.0014.0003.0029.0013.004.0009.001.0023.0016.0037.0016h.0002l.0139-.0006c.0023-.0001.0043-.0018.0047-.0042l.0074-.0424c.0006-.0061-.0006-.0104-.0034-.0136-.0023-.0026-.0058-.004-.0096-.004h0Z"/>
            </g>
            <g>
              <polygon class="cls-16" points=".3891 .3937 .3795 .448 .3937 .4467 .3992 .4222 .408 .4455 .4236 .4446 .4119 .4111 .433 .3918 .4171 .3921 .4016 .406 .4034 .3925 .3891 .3937"/>
              <path class="cls-21" d="M.433.3918l-.021.0193.0116.0335-.0157.001-.0088-.0233-.0055.0244-.0141.0014.0095-.0543.0143-.0011-.0017.0135.0155-.0139.0159-.0004M.433.3867h-.0001l-.0159.0004-.0088.0072v-.0011c.0004-.0015-.0001-.003-.0012-.0041-.0009-.001-.0023-.0016-.0036-.0016h-.0004l-.0143.0011c-.0023.0001-.0041.0018-.0045.0041l-.0095.0543c-.0003.0016.0002.0031.0013.0042.0009.001.0023.0016.0037.0016h.0005l.0141-.0014c.0021-.0002.0039-.0018.0044-.0039l.0019-.0083.0029.0078c.0007.0019.0026.0032.0047.0032h.0003l.0157-.0011c.0016,0,.003-.0009.0038-.0022s.0011-.003.0006-.0044l-.0106-.0304.0186-.0172c.0016-.0014.002-.0036.0013-.0055s-.0026-.0032-.0046-.0032h0Z"/>
            </g>
            <polygon class="cls-21" points=".3427 .4279 .3625 .4266 .3644 .4098 .3446 .4113 .3427 .4279"/>
            <g>
              <polygon class="cls-16" points=".4249 .4441 .4351 .3918 .4492 .3913 .4381 .4439 .4249 .4441"/>
              <path class="cls-21" d="M.4492.3913l-.0111.0526-.0132.0002.0101-.0524.0141-.0004M.4492.3864h-.0001l-.0141.0004c-.0023,0-.0043.0018-.0047.004l-.0101.0524c-.0003.0015.0001.003.0011.0042s.0023.0018.0038.0018h0l.0132-.0002c.0023,0,.0043-.0017.0048-.004l.0111-.0526c.0003-.0015,0-.003-.0011-.0042-.0009-.0011-.0023-.0018-.0038-.0018h0Z"/>
            </g>
            <g>
              <polygon class="cls-16" points=".4544 .4444 .5015 .3917 .4822 .4448 .4544 .4444"/>
              <path class="cls-21" d="M.4721.3907c.008,0,.0194,0,.0231.0004.0059.0006.0054.0055.0054.0055l-.0002.0106-.0145.0004v-.0044s-.018.0002-.018.0002c-.0019.0011-.0023.0072-.0023.0072l.0208.001c.0032.0002.012-.0004.0084.0157-.0033.0146-.0107.0152-.012.0152h-.0002s-.0217,0-.0282-.0001c-.0065-.0002-.0071-.0068-.0071-.0068,0,0,.0004-.0086.0006-.0092,0-.0001.0007-.0001.0018-.0001.0037,0,.0121.0006.0121.0006v.0027l.0181.0004.0013-.0078s-.0072.0005-.0145.0005c-.003,0-.0059,0-.0085-.0003-.0086-.0008-.0084-.0092-.0052-.019.0032-.0098.0103-.0124.0103-.0124h.0086M.4721.3858h-.0086c-.0026.0006-.0112.004-.015.0157-.0029.0088-.003.0152-.0004.0197-.002.0005-.0043.0017-.0049.0032-.0003.0008-.0004.0014-.0008.0107.0004.0051.0039.0118.0119.0121.0066.0001.0284.0001.0284.0001H.4826c.0023,0,.0129-.001.0171-.0191.0016-.0071.0013-.0124-.0011-.016h.0018c.0027-.0001.0048-.0023.0049-.0049l.0002-.0106s.0003-.0036-.0021-.0067c-.0012-.0015-.0035-.0034-.0077-.0038-.0038-.0004-.0154-.0004-.0236-.0004h0Z"/>
            </g>
            <g>
              <path class="cls-16" d="M.5336.4451h0ZM.5225.4448h0ZM.5222.4448h0Z"/>
              <path class="cls-21" d="M.5185.3917h.0009l.0281.0011s.0097.0012.0061.0141c-.004.0141-.0073.0254-.0073.0254,0,0-.0035.0103-.0126.0103s-.0256-.0006-.0256-.0006c0,0-.0111,0-.0088-.0121s.0082-.0299.0082-.0305c0-.0005.0032-.0078.0109-.0078M.5185.3867c-.0104,0-.0159.0095-.0159.0128-.0028.0083-.0064.0205-.0081.0296-.0013.0067.0007.0108.0026.0131.004.0049.0104.005.0111.005-.0001,0,.0164.0006.0256.0006.0101,0,.0156-.0087.0174-.0138l.0073-.0256c.0017-.006.0013-.0109-.0013-.0148-.0032-.0048-.0085-.0056-.009-.0057l-.0284-.0012h-.0012Z"/>
            </g>
            <polygon class="cls-21" points=".5137 .4298 .5332 .4304 .5397 .4053 .5204 .405 .5137 .4298"/>
            <g>
              <path class="cls-16" d="M.5856.4489h0Z"/>
              <path class="cls-21" d="M.5648.395l.0331.0033s.0095.002.008.0099c-.0018.0092-.0044.0107-.0077.0128,0,0,.0059.0041.0012.0151-.0047.0107-.0093.01-.0129.0102h-.0007c-.006,0-.0364-.0027-.0364-.0027l.0154-.0487M.5648.39c-.0021,0-.0041.0014-.0047.0035l-.0154.0487c-.0005.0015-.0002.003.0006.0042.0008.0013.0022.002.0037.0022,0,0,.0307.0028.0368.0028.0072-.0004.0131-.0017.0181-.0133.0032-.0073.0025-.0126.0011-.0161.0025-.0025.0044-.006.0058-.0129.0018-.0092-.0061-.0145-.0119-.0157l-.0336-.0034h-.0005Z"/>
            </g>
            <g>
              <path class="cls-16" d="M.5992.4479l.0131-.0377s.0034-.0094.0136-.0078.024.0035.024.0035c0,0,.0128.0013.0076.0147s-.0125.0342-.0125.0342l-.0136-.0016.0037-.0115-.0183-.0027-.0039.0107-.0136-.0019h0Z"/>
              <path class="cls-21" d="M.6235.4023c.0007,0,.0015,0,.0023.0001.0102.0016.024.0035.024.0035,0,0,.0128.0013.0076.0147-.0052.0133-.0126.0342-.0126.0342l-.0136-.0016.0037-.0115-.0183-.0027-.0039.0107-.0136-.0018.0131-.0377s.0029-.0079.0113-.0079M.6235.3973c-.0094,0-.0145.0071-.016.0112l-.0131.0378c-.0005.0014-.0003.003.0005.0042s.0021.0022.0036.0023l.0136.0019h.0007c.002,0,.004-.0013.0047-.0032l.0025-.0069.0085.0013-.0019.0059c-.0004.0014-.0002.003.0006.0042s.0021.002.0036.0023l.0136.0016h.0006c.0021,0,.004-.0013.0047-.0034,0,0,.0073-.0208.0125-.034.0023-.0057.0021-.0107-.0003-.0146-.0036-.0059-.0106-.0068-.0114-.0068h0s-.0137-.0018-.0238-.0035l-.003-.0003h0Z"/>
            </g>
            <polygon class="cls-21" points=".6211 .4283 .6391 .4305 .6438 .4171 .625 .4153 .6211 .4283"/>
            <path class="cls-21" d="M.5741.4078l-.0016.0078.0146.0013s.0016-.0008.0026-.004c.0013-.004-.0023-.004-.0023-.004l-.0133-.0011Z"/>
            <path class="cls-21" d="M.5705.4254l-.0023.0072.0146.0006s.0026.0006.0034-.003c.0009-.0041-.0029-.0043-.0029-.0043l-.0128-.0006h0Z"/>
          </g>
          <g>
            <polygon class="cls-16" points=".2929 .4407 .2917 .4621 .3072 .4609 .3077 .4395 .3339 .4004 .3157 .4021 .3021 .4235 .2937 .4059 .2768 .4095 .2929 .4407"/>
            <path class="cls-16" d="M.3246.4558l.0064-.0451s.0016-.0111.0108-.0123l.0289-.0029s.0107-.002.0095.0116l-.0074.0424-.0139.0006.0013-.0115-.0197.0018-.0014.0147-.0144.0008h0Z"/>
            <polygon class="cls-16" points=".3891 .3937 .3795 .448 .3937 .4467 .3992 .4222 .408 .4455 .4236 .4446 .4119 .4111 .433 .3918 .4171 .3921 .4016 .406 .4034 .3925 .3891 .3937"/>
            <polygon class="cls-21" points=".3427 .4279 .3625 .4266 .3644 .4098 .3446 .4113 .3427 .4279"/>
            <polygon class="cls-16" points=".4249 .4441 .4351 .3918 .4492 .3913 .4381 .4439 .4249 .4441"/>
            <path class="cls-16" d="M.4859.4075h.0133l.0013-.0109s.0006-.0049-.0054-.0055-.0317-.0004-.0317-.0004c0,0-.0071.0025-.0103.0123s-.0035.0182.0052.019.0227.0008.0227.0008l-.0011.0061-.0181.0004v-.0028s-.0138-.001-.0139-.0004-.0006.0092-.0006.0092c0,0,.0006.0066.0071.0068s.0282.0002.0282.0002c0,0,.0086.0008.0122-.0152s-.0058-.016-.009-.0162l-.0195-.0007s.0008-.0063.0016-.007l.0181-.0002v.0044s-.0001,0-.0001,0Z"/>
            <path class="cls-16" d="M.5194.3918l.0281.0012s.0097.0012.0061.014c-.004.014-.0073.0254-.0073.0254,0,0-.0035.0104-.0126.0104s-.0256-.0006-.0256-.0006c0,0-.0111,0-.0088-.0121s.0082-.0299.0082-.0305.0035-.0084.0119-.0078h-.0001Z"/>
            <polygon class="cls-21" points=".5137 .4298 .5332 .4304 .5397 .4053 .5204 .405 .5137 .4298"/>
            <path class="cls-16" d="M.5494.4437l.0154-.0487.0331.0033s.0095.002.008.0099c-.0018.0092-.0044.0107-.0077.0128,0,0,.0059.0041.0012.0151-.0047.0107-.0093.01-.0129.0102s-.0371-.0027-.0371-.0027Z"/>
            <path class="cls-16" d="M.5992.4479l.0131-.0377s.0034-.0094.0136-.0078.024.0035.024.0035c0,0,.0128.0013.0076.0147s-.0125.0342-.0125.0342l-.0136-.0016.0037-.0115-.0183-.0027-.0039.0107-.0136-.0019h0Z"/>
            <polygon class="cls-21" points=".6211 .4283 .6391 .4305 .6438 .4171 .625 .4153 .6211 .4283"/>
            <path class="cls-21" d="M.5741.4078l-.0016.0078.0146.0013s.0016-.0008.0026-.004c.0013-.004-.0023-.004-.0023-.004l-.0133-.0011Z"/>
            <path class="cls-21" d="M.5705.4254l-.0023.0072.0146.0006s.0026.0006.0034-.003c.0009-.0041-.0029-.0043-.0029-.0043l-.0128-.0006h0Z"/>
          </g>
          <path class="cls-23" d="M.2806.6999s-.0124-.0136.0069-.0186c0,0,.0106-.0038.02.0044,0,0-.0075-.0192.0256-.0268,0,0,.0524-.0134.0587-.023s.0062-.0172.015-.0198.0187-.0044.0318-.0025c0,0,.0044-.0166.0237-.0121,0,0,.0106-.0166.025-.0077,0,0,.005-.0083.02.0032,0,0,.0044-.0217.0318-.014,0,0,.01.0013.0125.0115,0,0,.0143-.0013.0169-.0057s.0093-.0117.0212-.0111c0,0,.0183.0097.0297.0042.0277-.0135.1059.0044.1119.014.0081.0128.0349-.016.0418.0032,0,0,.0031.009.0031.0121,0,0,.0088-.0064.0218.0025,0,0,.005-.0051.0169-.0006,0,0,.0081.0025.0068.0153,0,0,.0206-.0071.0212.014,0,0,.01-.0166.0294.0025l.0106.1163-.0543.0588s-.4188.0128-.4338.0071-.0218-.0217-.0306-.0172-.0262.0096-.0312.0013-.0275-.0121-.0162-.0326c0,0-.0331.0109-.0218-.0147,0,0-.0187-.0121-.0056-.023,0,0-.0156-.0071-.0131-.0192,0,0-.0057-.0133.0043-.0216h0Z"/>
          <path class="cls-19" d="M.3331.811s-.0011-.0083.002-.013.0124-.01.0145-.0143.0047-.0136.0222-.0142c0,0,.0073-.0301.0328-.013,0,0-.0085-.0108-.0013-.022s.0139-.0275.0258-.0164c0,0-.0031-.0275.0248-.0196l.0263.0116s.0067.0026.0093,0l.0088.0079.016-.0026.0129.0143.0119-.0259.0175-.0011.0145.0148.0062.0047s.0016-.0259.0335-.0206c-.0011.0011.016-.0016.016-.0016,0,0,.0098-.0111.0114-.0116s.0098-.0116.0196-.0111c0,0,.1331.0364.1351.0359s.0186-.0032.0217.0042.0052.0127.0052.0127l-.0103.0158s.0139.0058.015.0174c0,0,.017-.0047.0242.0148s-.0774.0523-.0774.0523l-.3218.0005s-.05.0074-.0608-.0068-.016-.0164-.0294-.0106-.0235.0054-.0257-.0028h-.0001Z"/>
          <path class="cls-30" d="M.8373.462s-.0212.0176-.0335.0301c-.0123.0126-.0311.0318-.0491.0385s-.0474.021-.0474.021l.0385.057s.036-.0151.0458-.0494.0287-.0645.0483-.0822l-.0025-.0151h0Z"/>
          <path class="cls-22" d="M.7342.5626s-.0094-.0384-.0381-.0318-.0275.0215-.0275.0215c0,0-.0304-.004-.0251.0121,0,0-.0211.004-.0106.0311s.0224.0595.0172.069.0238.0649.0238.0649c0,0,.0333.0167.0343.0827.0002.0154.0918-.0058.0918-.0058,0,0,.0011-.0313.0011-.0502s-.0162-.0443-.0176-.0699-.0119-.0311-.0198-.0486-.026-.055-.0295-.0748h0Z"/>
          <path class="cls-11" d="M.3156.6995s-.0085.0025-.0128-.0062-.0116-.0062-.0152-.0025.0049.0156.0049.0156c0,0-.014,0-.0122.0106,0,0,.003.0119.0079.0143,0,0,.0037-.0112.0164-.0119,0,0,.0061.0081.0104.0062,0,0-.0148.0054-.0184.0116s-.0061.0121-.0005.0184c.0038.0042.0128.0019.0128.0019,0,0-.0122.0056-.0085.0131s.0164.0013.0164.0013c0,0-.0067-.0082.0056-.0095.0079-.0008.0144.0004.021.004,0,0-.0118-.0121-.0056-.0157s.014.0067.014.0067c0,0-.0078-.0058-.0105-.0031s.007.0143.0105.0112-.0004-.0094.0074-.0139.0088-.0036.01-.0004-.0004.013-.0096.0161-.0127.0112-.0127.0197c0,0,.0066-.0116.0148-.0157s.01-.0018.01-.0018c0,0,.003-.0107.0105-.0152s.0144-.0027.0223.0023c0,0-.0003-.0108-.012-.0198-.0094-.0072-.0138-.0039-.0239.0025-.0101-.0077-.0169.0109-.0169.0109,0,0-.0052-.0121-.014-.0103,0,0-.0114-.0049-.0175-.0027s-.0026.0076-.0026.0076c0,0,.0083.0031.0131,0,0,0-.0044.0058.0013.0121,0,0-.0088-.0071-.0175-.0071s-.0152-.0008-.0148-.0071c.0004-.0085.0162-.0107.0179-.0112s.0105-.0004.0105-.0004l.0114.0009s.003-.0125.0096-.0166-.0105.009-.0179.0063-.0061-.0112-.0061-.0112c0,0-.0096.0139-.0148.0049s.0055-.0159.0055-.0159h0Z"/>
          <path class="cls-23" d="M.2869.7217s.0061-.0076.0148-.0076c0,0-.0162-.0067-.0148.0076Z"/>
          <path class="cls-11" d="M.3385.7709s-.0182.0076-.0188-.0013c-.0004-.0071.0188.0013.0188.0013Z"/>
          <path class="cls-11" d="M.418.7297s.0092-.0044.0162.0054c0,0-.0013-.0241.0118-.0273,0,0,.0127-.0009.0083.0241,0,0-.001.0023-.0035.0053.0032-.0246-.0042-.0226-.0055-.0214s-.01.0098-.0022.0282c-.0023.0016-.0051.003-.0084.0042-.0055-.0158-.0117-.0146-.0148-.013-.004.0022-.0071.0101-.0016.0162-.0018,0-.0037.0001-.0056,0,0,0-.0078-.013.0052-.022v.0002Z"/>
          <path class="cls-15" d="M.4132.7584s.017.0027.0337-.0067.014-.0107.014-.0107c0,0,.0148-.0058.0284.0125,0,0,.0018-.013.0105-.0094s.0114.0157.0096.0206-.0088.0036-.0122-.0076c0,0,0,.0335-.0227.0179,0,0,.0122-.0031.0035-.0188,0,0-.0044-.0085-.0144-.0054,0,0-.0056.0027-.0004.0148,0,0-.0088-.0134-.024-.0067,0,0-.0088.0023-.0105.0197,0,0-.0008-.0166-.0153-.0201h0Z"/>
          <path class="cls-11" d="M.4237.7512s-.0068-.0092-.0018-.0114.0071.0101.0071.0101c0,0-.0052.0013-.0052.0013Z"/>
          <path class="cls-11" d="M.446.7414s-.0051-.0122.0003-.0189c0,0,.0039-.0018-.0003.0189Z"/>
          <path class="cls-23" d="M.3736.7428s.0037.003.0008.0103c0,0,.0084-.0099.0188-.0073,0,0-.0067-.0124-.0197-.003Z"/>
          <path class="cls-11" d="M.3895.6999s.0026.0085.0143.0047c.0117-.0039.0193-.012.0214-.0206s-.0084-.0142-.0205-.0107-.016.0073-.0134.0124.0134.0047.0197-.0021c0,0,.0068.0034-.0042.0107-.0121.0082-.0172.0056-.0172.0056h0Z"/>
          <path class="cls-11" d="M.3849.6921s-.0088-.0128.0084-.0241c0,0-.0088-.0086-.0143-.0035s0,.0142-.003.0184-.008.0073-.0188.0039-.018-.0086-.0298.0008c0,0-.0042.0039-.0021.0099,0,0-.0138.0082-.0101.0124s.0117-.0086.0117-.0086l.003.0047s-.0034.0077.0017.0095.0126-.0021.0164-.0052.008-.0099.0172-.0099.0168-.0077.0197-.0086h0Z"/>
          <path class="cls-23" d="M.3531.6947s-.0143-.009-.0197-.003.0008.0112.0025.0124.008.0039.0172-.0095H.3531Z"/>
          <path class="cls-11" d="M.3953.6642c.0004-.0142.0143-.0279.0277-.0159s.0214.009.031.003.0193-.0056.0298-.0017.0235.0025.0247-.0077-.0168-.0095-.0168-.0095c.0054-.0035.0067-.0116.0034-.0159s-.0104-.0025-.021.0035-.0201.0086-.034.0025-.0302-.0013-.0369.0047-.008.0126-.0097.0167c-.0042.0103-.0205.0128-.0281.0167s-.0264.0052-.039.0082-.0121.0095-.0134.0167.0034.0073.0034.0073c0,0,.0004-.0103.0084-.0142s.0164-.0043.0256-.0004.0201-.003.0201-.003c0,0-.0016-.01.0063-.015.0121-.0077.0184.0039.0184.0039h0Z"/>
          <path class="cls-15" d="M.3786.7719s.0025-.0124.0126-.0124.0222.0043.0302.021.0067.0138.0092.0107.0017-.0176.0071-.021.0138-.0073.0235.0077c0,0,.0277.0227.0411-.0017.0017.0004.0097.0086.013.0025s.0059-.0159.0017-.0279c0,0,.013-.003.0164.0107s-.0054.027-.0143.0305-.0172-.0056-.0172-.0056c0,0-.0054.0172-.0168.0155s-.0188-.0124-.0243-.0184-.0172-.012-.0214.0043c0,0,.0017.0206-.013.0172s-.0151-.0198-.0243-.0258-.0138-.0004-.0164.0077c0,0-.0025-.009.0013-.0133s.0168-.0064.0251.006c0,0-.0101-.0241-.0335-.0077h-.0001Z"/>
          <path class="cls-15" d="M.4482.8321c.0013-.0008.0059-.018.0227-.0116s.0121.0133.0121.0133l.0054-.0017s-.003-.0103.0017-.0163.0126-.0142.0222-.0107.026.0133.031.0219l-.0168.0008s-.0059-.0128-.0176-.0159-.0126.0202-.0126.0202l.0587-.0035s-.005-.0112-.0008-.0163.0205.0025.0256.0107l.016.0013s-.013-.0112-.0155-.0176c0,0,.0164.0073.0298-.0025s.0092-.0245.0092-.0245c0,0,.0092.0202.0298.0103s.0235-.0258.0235-.0258c0,0-.0008.0146.0084.0223,0,0-.0138.0103-.0168.0322l-.0097-.0008s.003-.0159-.0134-.0146-.0227.018-.0227.018l-.0121.0004s.0076-.0112.0164-.0167c0,0-.0168.015-.031.0099l.0109.0103.026-.0017s.0008-.0116.0071-.0133.0155-.0025.0134.0099l.0243.0004s-.0013-.0206.0193-.0343c0,0-.016-.0206-.0042-.0348l.0059-.0025s.0097.0159.0121.0301.0019.0332.0019.0332l-.0099.0085.005-.0262s-.0084-.0021-.0126.0021-.0113.0206-.0109.0266-.2263.015-.2263.015l-.0054-.006h0Z"/>
          <path class="cls-15" d="M.5446.8144s.0008-.0099.0088-.012.0193.0052.0193.0052c0,0-.0126-.006-.0113-.0236s.0063-.0198.0063-.0198c0,0-.0104.0142-.0268.0099,0,0,.0025.0159-.0168.0262,0,0,.008-.0013.0205.0142h0Z"/>
          <path class="cls-15" d="M.537.7462s.0046.0039.0059.0155c0,0,.0155.0017.0168-.009,0,0,.0113.0133.0272.0039s.0151-.0386.0461-.0249c0,0,.0067.0305.0335.0236,0,0-.0205-.0017-.0231-.027s.0134-.0318.0151-.0318-.003-.0073-.003-.0073c0,0-.0184.0039-.0193.0262,0,0-.0021.0068-.0113.0047s-.0235-.009-.0327-.0043-.0063.0124-.0113.0193-.0227-.0008-.0251-.0035.0071.0215.0306.0112c0,0-.0059.0219-.0377-.0039,0,0-.0025.009-.0117.0073h0Z"/>
          <path class="cls-11" d="M.4859.735c.0013-.0008.0076-.0146.0025-.0266,0,0,.0109.0099.0197.0004s-.0008-.0112.0042-.0133.0113.003.0138.0146l.0025.0116s.0025-.0258.0155-.0283.026.0159.026.0159c0,0-.003-.0198.0184-.0163s.0289.0103.0499-.0047c0,0-.0076.0116-.0084.018s-.0037.0052-.0084.0017-.0302-.0138-.0402-.0077-.0054.0189-.0054.0189c0,0,.0025-.0163.016-.0155,0,0-.0126.0056-.0164.0223,0,0-.0067.0073-.0126,0s-.005-.0215-.016-.0202-.0067.0223-.0113.0305-.0147.003-.0184.0043c0,0-.0025-.0202-.0104-.0215s-.016.0124-.0168.0172l-.0042-.0013h0Z"/>
          <path class="cls-15" d="M.6844.7396c-.0008-.0026-.021-.0146-.0236-.0344,0,0-.0181.0134-.0076.0284.0126.0181.0311.006.0311.006Z"/>
          <path class="cls-11" d="M.6031.6872s.0303.0089.0395-.0225c0,0-.011.0075-.0138.0075,0,0,.0068-.0037.0078-.015s.0009-.0343-.0128-.0333-.0234.0131-.0234.0131c0,0-.0037.008-.0083.0085,0,0,.0023-.0089.0009-.016s-.0142-.0164-.0266-.0056c0,0-.0165-.0061-.0184.0127,0,0-.0105-.0075-.0188-.0019,0,0-.0096-.0244-.0252-.0099,0,0,.0169.0005.0138.0145,0,0-.0023.015-.0147.0197l.0023.0037s.0105-.0056.0138-.0005c0,0,.016-.0183.0353-.0089,0,0,.005-.0263.022-.023,0,0,.0165.0005.0087.0291,0,0,.0101.0014.0142-.0023s.0023-.008.0064-.0136.014-.0124.0202-.0033c.0032.0047.0083.0305-.0229.0469h0Z"/>
          <path class="cls-11" d="M.4463.6135s.0055-.0099.016-.0042c0,0,.0124-.0183.0248-.0066,0,0,.0105-.0103.0211.0052,0,0,.0059-.0268.0261-.0179,0,0,.0193.0164.0013.0319,0,0-.0174-.016-.0335-.0089,0,0-.0068-.0122-.0188-.0061s-.0257.0174-.0371.0066Z"/>
          <path class="cls-11" d="M.5279.6947s-.0133-.0174-.0234-.0099c0,0-.0041.0061-.0004.0131,0,0-.0114.0099-.0224-.0019s-.0092-.0179-.0055-.0202.0124-.0009.0193.0089c0,0,.0009-.0216.0257-.0071,0,0,.0023-.0155.016-.0169s.0165.0085.0307.0103.0408-.0056.0472-.0179c0,0,.0055.0122-.0151.0235s-.0316.0071-.0316.0071c0,0-.0073.0009-.0028.0089,0,0-.0239-.0235-.0376.0019h0Z"/>
          <circle class="cls-24" cx=".4454" cy=".625" r=".0143"/>
          <circle class="cls-24" cx=".6048" cy=".7449" r=".0155"/>
          <circle class="cls-24" cx=".4353" cy=".7988" r=".0155"/>
          <circle class="cls-24" cx=".3598" cy=".709" r=".0155"/>
          <path class="cls-11" d="M.3835.7042s-.021.0071-.0289.0174-.0061.0143-.0013.017c0,0,.0052-.0139.0152-.0066,0,0,.0092-.009.0198-.0054,0,.0009.0088.0018.0157.0148,0,0,.0008-.0112.0092-.0193s.0175.0004.0175.0004c0,0-.003-.0228.014-.0237s.0172.0119.0188.0179l-.0013.0139s.0118-.0013.0175.0031c0,0,.0044-.0107.0008-.0237,0,0-.0127-.0044-.0136-.017,0,0-.0122-.0116-.028-.0063,0,0-.0066.0023-.0096.0067,0,0-.0197.0241-.0359.0201,0,0-.0083-.0027-.01-.0094h0Z"/>
          <path class="cls-11" d="M.466.6816s-.0028-.0221.0248-.0131c0,0-.0068-.0155-.0261-.0117s-.0257.0164-.039.0047-.0234.0056-.0234.0056c0,0,.0229-.0094.033.0127,0,0,.0138-.0099.0307.0019h0Z"/>
          <path class="cls-23" d="M.4729.6356s-.0165.0023-.0224.008-.016.0014-.0211-.0033-.0128-.0071-.0197-.0037c0,0,.0064-.0117.0215-.0042s.033-.0009.033-.0009c0,0,.011-.0066.0124-.0028s.0018.0061-.0037.0071Z"/>
          <path class="cls-11" d="M.5467.6205s.0083-.0103.0184-.0071c0,0,.0169-.0183.0349.0071,0,0,.0211-.0235.0353-.0056,0,0,.0009-.0136-.0028-.0248,0,0-.0083.0089-.0206.0075s-.0105-.0037-.0133-.0071-.0174-.0075-.0239.0052c0,0-.0073.0117-.0229.0085,0,0,.0032.0061-.005.0164h0Z"/>
          <path class="cls-31" d="M.7082.812s-.0006-.038.0025-.053-.0037-.0512-.0202-.0719c-.0004.0019.0197.0606.011.0803,0,.0023.0066.0445.0066.0445h0Z"/>
          <path class="cls-31" d="M.6953.737s-.0087-.0404-.0138-.0503-.0105-.0287-.0105-.0287c0,0,.0165.0056.0284.0282s.0188.0338.022.0596c-.0013.0009-.0078.0197-.0028.0329s.0018.0324.0018.0324c0,0,.0128.0009.0128-.0005s-.0004-.0315-.0018-.0521-.008-.0536-.0234-.077c-.0124-.0188-.0275-.0347-.0335-.0376,0,0-.0193-.0315-.0224-.0671,0,0-.0142-.0042-.011.0108s.0151.0324.0188.0464.0073.0423.0087.054.0064.0399.0266.0488h0Z"/>
          <path class="cls-31" d="M.6531.675c-.0006.0018-.0032-.0329-.0169-.0558,0,0,.0128-.0033.0169.0155s.0037.0301,0,.0404Z"/>
          <path class="cls-31" d="M.7443.8097s-.0023-.0446-.0064-.0625c0,0,.0202.0343.0234.0601l-.0169.0023h0Z"/>
          <path class="cls-31" d="M.7718.8083c0-.0014-.0142-.0535-.0298-.0746s-.0064-.0455-.0055-.0629.0037-.0207-.0064-.0277-.022.0061-.0239.016c0,0-.0128-.0169-.0248-.0263,0-.0019-.0174-.0366-.0193-.0493s-.0009-.0141-.0009-.0193-.0059-.0014-.0096,0c0,0,.0009-.0075.0119-.0056s.0138.0117.0147.0202.0092.038.0184.0474c0,0,.0041-.0117.0101-.0136,0,0-.0211-.0455-.0206-.0582s.0128-.0248.0128-.0248c.0013-.0005.0091-.0028.0112-.0002,0,0-.019.0129-.0135.0312s.0169.0498.0169.0498l.0064-.0023s-.0131-.0443-.0128-.0562.0049-.0109.0073-.0095.0018.0103.0046.0207.0096.046.0138.0488.0138-.0037.0229.0277c0,0,.0096.0258.0193.0409s.0325.0437.028.123c.0004.0014-.0083.0028-.0083.0028,0,0,.0032-.0446-.0092-.0812s-.0257-.0418-.0316-.0699-.0234-.0347-.038-.0315c0,0-.0119.0047-.0169.0122l.0037.0071s.0206-.023.038-.0047c.0013.0023.0142.0136.0087.0395.0004.0042.0004.016.0156.0356s.0248.0699.0239.0953l-.005-.0005s-.0041-.0455-.0124-.0634-.0202-.0301-.0252-.0427-.0059.0066.0004.0216.0298.0639.0316.0859l-.0064-.0009h-.0001Z"/>
          <path class="cls-11" d="M.4972.7363s.0054-.0017.0113.006c0,0,.0025-.0099-.0021-.0146s-.0092.0086-.0092.0086h0Z"/>
          <path class="cls-15" d="M.6045.7741s-.0059-.009-.0121-.0103c0,0-.0235-.0052-.0239.0176-.0004.0198.0138.0219.0227.0193s.0126-.0068.0138-.0107l-.0063-.0047c.0008.0005-.009.014-.0172.0082-.0064-.0046-.0071-.0128-.003-.0184s.0155-.0073.0222.003l.0104.0103s-.0021-.0253.0104-.0301c-.0017.0008.0008.0219.0143.0223,0,0,.0176.0008.0306-.0167,0,0-.0092.0039-.0197-.0004-.0112-.0046-.0172-.0206-.0172-.0206,0,0,.0013.0262.0172.0275,0,0-.0101.0064-.016-.0013s-.0088-.027-.0088-.027c0,0-.0188-.0043-.0176.0322h0Z"/>
          <path class="cls-31" d="M.7269.705s-.0023-.0376,0-.0455-.0037-.0075-.0083-.0033-.0037.0164.0083.0488Z"/>
          <path class="cls-11" d="M.8332.6895s-.0138-.0235-.0307-.0202-.0188.0099-.0188.0099c0,0-.0119-.0141-.0124-.0193s.0047-.026.0093-.0241.009.0048.0076.0109-.0018.0155.0009.0174.0071-.0066.0096-.0127c.0018-.0044.0074.0021.0055.0061-.0014.003.0015.0066.0015.0066,0,0,.0064.0037.0091-.0019s.005-.0037.005-.0037c0,0-.0013.0052.0009.0113.0008.0023.0087.0145.0124.0197Z"/>
          <circle class="cls-24" cx=".8078" cy=".6726" r=".0155"/>
          <path class="cls-15" d="M.3411.7762s.0018.0049.0013.0121-.0026.0103.0035.0112.007-.009.0096-.0121.004-.0103.0096-.0116.0092.004.0096.0085,0,.0076.0035.0103.01.0071.014.0148.0175.0044.0175.0044c-.0052.0009-.0083-.0044-.0118-.0094s-.0118-.0094-.0118-.0094c.0105-.0027.0179.0031.0232.0098s.0148.0098.021.0103.0144-.004.0153-.0107.004-.0116.004-.0116c.003-.0013.0056-.0009.0157.0098.0083.0088.0249.0067.0249.0067-.0044.0023-.0114.0076-.0114.0076,0,0-.004-.0058-.0162-.0067s-.0201.0107-.0201.0107c-.0061-.0027-.024.0004-.031.0018s-.0184-.0036-.0306-.0134-.0148-.0094-.0201-.008-.0118.0085-.0157.009-.0056-.0044-.0056-.0044c0,0-.0041-.0108-.0139-.0116,0,0-.0066-.0054-.0014-.0126s.017-.0054.017-.0054h-.0001Z"/>
          <path class="cls-15" d="M.7814.69s.0257-.0253.0408-.0042.0151.0427-.0004.0582c0,0-.0096.0066-.0147.0075,0,0,.0142.0033.0114.0221,0,0,.016-.0071.0184.0188,0,0,.005-.0009.005-.0047s.0013-.023-.0193-.0244c0,0,.0009-.0052-.0037-.0094,0,0,.0105-.0019.0124-.0085,0,0,.0013.0145.0133.0113.0119-.0032.0142-.0023.0096-.0108s-.0064-.0183-.0009-.0193c.0055-.001.0073.0056.0087.0136.0013-.0014.0078-.0056.0073-.0155s.0068-.0169.0087-.0169-.0023.0423-.0078.0503-.0064.0037-.0064.0037c0,0-.0083-.0061-.0179,0,0,0,.005.0108.0032.0253,0,0-.027.0183-.0395.0169,0,0,.0009-.0113.0092-.0145s.0041.0127.0041.0127l.0073-.0052s-.0018-.0301-.0239-.0056c0,0,.0105-.0174-.0032-.0329l-.0028-.015s.0124-.0056.0096-.0211-.016-.0037-.016-.0037l-.0032-.0127s.0092-.0099.0184-.0042.0124.0122.0105.023c0,0,.0141-.0152-.0087-.0347-.011-.0094-.0234.0047-.0252.0061"/>
          <path class="cls-11" d="M.8791.6999s-.0156.0009-.0151.0211c0,0-.0078-.0066-.016.0014,0,0-.0092.0066-.0023.0225,0,0-.0064.0099-.0105-.0052,0,0,.0096-.0099.0087-.0296,0,0,.0243-.0019.0344-.0169l-.0018-.0047s-.0156.0179-.0353.0094c0,0-.0009-.0066.0055-.0061s.0184.0042.0312-.0094l-.0018-.0042s-.0064.0131-.0298.0085-.0197-.0371-.0197-.0371c0,0-.0032-.0056-.0059-.0023s-.0087.0089-.0087.0089c0,0,.0055-.0141-.0041-.0179s-.0142.0127-.0142.0127c0,0,.0073-.0164-.0073-.023s-.0174.0155-.0174.0155c0,0,.0009-.0179-.0073-.0221,0,0-.0013-.0019-.0059-.0014l-.005-.0136s.0174-.0037.0202.0131c0,0,.0197-.0155.0298.0094,0,0,.0142-.0145.0184.0075,0,0,.0059-.0056.0138.0009s.002.0144.0037.0216c.0018.008.0078.0244.027.0211,0,0,.011-.0033.0165-.0127,0,0-.0224.0141-.0312.0033s-.0009-.0225.0037-.0248c.0046-.0023.0202.0009.0202.0009l.0009.0061s-.0165-.0037-.0188.0033.0009.0145.005.0131-.0041-.0071.0023-.0103.0119,0,.0119,0c0,0,.005.0122.0055.0409h-.0003Z"/>
        </g>
      </g>
    </g>
  </g>
  <path class="cls-7" d="M.8989.601c-.0062-.0049-.0073-.0333-.0091-.0624,0,0,.0007.0507-.0083.0632-.0079.011-.026.0097-.0447.0103,0,0,.0322,0,.0421.0174.0038.0067.0081.0468.0118.0826,0,0-.0021-.0618.0104-.0819.0074-.0119.0262-.0139.043-.0146,0,0-.034-.0055-.0451-.0146h0Z"/>
  <path class="cls-7" d="M.9494.4968c-.0048-.0035-.0056-.0233-.0069-.0437h0s.0005.0355-.0064.0442c-.006.0077-.02.0067-.0345.0073,0,0,.0249,0,.0324.0122.0029.0047.0061.0327.0092.0578,0,0-.0017-.0432.008-.0574.0058-.0083.0202-.0097.0332-.0101,0,0-.0261-.0041-.0349-.0102h-.0001Z"/>
  <path class="cls-7" d="M.1605.1676s.0005.0344-.0062.0428c-.0058.0074-.0193.0065-.0335.0071,0,0,.0241,0,.0314.0119.0029.0046.0059.0318.0089.0561,0,0-.0017-.0421.0077-.0558.0055-.0081.0196-.0094.0321-.0098,0,0-.0254-.0038-.0338-.0098-.0047-.0034-.0054-.0227-.0067-.0425h0Z"/>
  <path class="cls-18" d="M.0963.2599s.0008.0574-.0099.0717c-.0093.0125-.0307.0109-.0529.0117,0,0,.0383,0,.0496.0197.0045.0076.0096.0529.0141.0938,0,0-.0024-.0701.0123-.093.0088-.0136.031-.0157.0511-.0165,0,0-.0403-.0063-.0535-.0165-.0072-.0057-.0086-.0377-.0106-.0709h-.0003.0001Z"/>
</svg>